<svg width="78" height="79" viewBox="0 0 78 79" fill="none" xmlns="http://www.w3.org/2000/svg">
<path fill-rule="evenodd" clip-rule="evenodd" d="M24.482 43.1075C24.092 43.5675 23.606 43.8845 23.03 44.0715V38.2555C23.729 38.5135 24.259 38.8456 24.599 39.2635C25.011 39.7685 25.216 40.3705 25.216 41.0675C25.216 41.8495 24.971 42.5275 24.482 43.1075ZM18.794 31.8245C18.4694 31.3767 18.2944 30.8377 18.294 30.2845C18.294 29.6805 18.476 29.1285 18.84 28.6285C19.165 28.1867 19.6085 27.8459 20.119 27.6455V32.8795C19.541 32.5995 19.094 32.2515 18.794 31.8245ZM27.686 36.3575C26.836 35.3465 25.279 34.5155 23.03 33.8565V27.8805C23.767 28.3555 24.25 29.0885 24.45 30.1135L28.404 29.5975C28.133 28.0355 27.509 26.7875 26.529 25.8555C25.644 25.0125 24.468 24.4855 23.029 24.2435V22.6125H20.119V24.1925C18.419 24.3995 17.042 25.0495 16.004 26.1685C14.924 27.3285 14.387 28.7645 14.387 30.4725C14.387 32.1605 14.863 33.5965 15.816 34.7775C16.739 35.9235 18.176 36.7835 20.119 37.3665V43.8665C19.632 43.5925 19.184 43.1965 18.778 42.6625C18.32 42.0575 18.007 41.3385 17.84 40.5055L13.76 40.9425C14.074 42.9955 14.793 44.5855 15.918 45.7105C17.002 46.7935 18.407 47.4455 20.118 47.6885V50.5685H23.03V47.5655C24.843 47.2255 26.28 46.4645 27.334 45.2725C28.474 43.9795 29.044 42.3915 29.044 40.5055C29.044 38.8175 28.591 37.4345 27.686 36.3575Z" fill="#A094FC"/>
<path fill-rule="evenodd" clip-rule="evenodd" d="M36.5449 29.6155H62.4979V26.6155H36.5449V29.6155Z" fill="#534891"/>
<path fill-rule="evenodd" clip-rule="evenodd" d="M36.5449 38.6825H62.4979V35.6825H36.5449V38.6825Z" fill="#534891"/>
<path fill-rule="evenodd" clip-rule="evenodd" d="M36.5449 47.7505H62.4979V44.7505H36.5449V47.7505Z" fill="#534891"/>
<path fill-rule="evenodd" clip-rule="evenodd" d="M68.93 55.4055C68.9292 56.0245 68.6829 56.618 68.2452 57.0557C67.8075 57.4935 67.214 57.7397 66.595 57.7405H8.835C8.21596 57.7397 7.62251 57.4935 7.18478 57.0557C6.74706 56.618 6.50079 56.0245 6.5 55.4055V18.8545C6.50079 18.2355 6.74706 17.642 7.18478 17.2043C7.62251 16.7666 8.21596 16.5203 8.835 16.5195H66.595C67.214 16.5203 67.8075 16.7666 68.2452 17.2043C68.6829 17.642 68.9292 18.2355 68.93 18.8545V55.4055ZM73.295 18.6675C72.525 17.6835 69.43 14.9495 68.773 14.6145C68.1004 14.2634 67.3537 14.0776 66.595 14.0725H8.835C7.55308 14.0738 6.32405 14.5837 5.4176 15.4901C4.51115 16.3966 4.00132 17.6256 4 18.9075V55.4585C4 56.2015 4.139 56.7695 4.388 57.3515C5.56 60.0005 8.778 61.9935 9.466 62.3715C10.156 62.7515 10.784 62.8745 11.625 62.8745H69.385C70.6671 62.8734 71.8964 62.3637 72.803 61.4573C73.7097 60.5508 74.2197 59.3216 74.221 58.0395V21.4885C74.221 20.4335 74.064 19.6515 73.295 18.6675Z" fill="#534891"/>
</svg>
