<svg width="78" height="79" viewBox="0 0 78 79" fill="none" xmlns="http://www.w3.org/2000/svg">
<path fill-rule="evenodd" clip-rule="evenodd" d="M2 25.0975L4.02 27.3155L14.694 17.5965L12.674 15.3785L2 25.0975Z" fill="#A094FC"/>
<path fill-rule="evenodd" clip-rule="evenodd" d="M12.1731 26.5025L14.1961 28.7175L21.1291 22.3875L19.1061 20.1725L12.1731 26.5025Z" fill="#A094FC"/>
<path fill-rule="evenodd" clip-rule="evenodd" d="M42.8191 72.0135L44.8461 74.2255L55.4921 64.4755L53.4651 62.2635L42.8191 72.0135Z" fill="#A094FC"/>
<path fill-rule="evenodd" clip-rule="evenodd" d="M44.2879 63.9775L51.2199 57.6485L49.1969 55.4325L42.2649 61.7615L44.2879 63.9775Z" fill="#A094FC"/>
<path fill-rule="evenodd" clip-rule="evenodd" d="M67.6467 13.2263L56.2407 23.2453C55.9347 23.5143 55.7787 23.9143 55.8227 24.3203L59.0927 54.3133L57.0427 56.1153L46.7977 33.6843C46.6327 33.3253 46.3087 33.0643 45.9217 32.9813C45.8347 32.9623 45.7477 32.9543 45.6607 32.9543C45.3597 32.9543 45.0657 33.0623 44.8347 33.2643L33.4297 43.2843C33.1517 43.5293 32.9957 43.8833 33.0047 44.2533L33.2317 53.5293L32.0837 54.5393L27.3107 44.0873C27.2087 43.8653 27.0427 43.6763 26.8347 43.5463L17.0867 37.4663L18.2357 36.4563L27.4047 37.8773C27.7717 37.9333 28.1427 37.8253 28.4207 37.5813L39.8267 27.5633C40.1237 27.3023 40.2797 26.9153 40.2477 26.5223C40.2157 26.1273 39.9987 25.7723 39.6637 25.5633L18.7407 12.5123L20.7907 10.7113L50.1127 17.8193C50.5087 17.9133 50.9257 17.8113 51.2317 17.5433L62.6377 7.52532C63.4027 6.85232 64.3727 6.50632 65.3967 6.58132C66.4097 6.64532 67.3357 7.09932 68.0047 7.86132C68.6727 8.62232 69.0037 9.59832 68.9377 10.6113C68.8697 11.6253 68.4117 12.5543 67.6467 13.2263ZM73.2537 8.89132C73.2457 8.87932 73.2477 8.87432 73.2387 8.86232C70.9327 5.82132 67.4567 4.50532 67.4567 4.50532V4.50832C66.8557 4.27432 66.2167 4.12832 65.5547 4.08632C63.8787 3.97432 62.2527 4.53532 60.9877 5.64632L50.0697 15.2363L20.7487 8.12832C20.3507 8.03432 19.9347 8.13532 19.6287 8.40432L15.8267 11.7443C15.5297 12.0053 15.3747 12.3913 15.4067 12.7853C15.4387 13.1793 15.6547 13.5353 15.9907 13.7443L34.7747 25.4603L36.8147 26.8813L27.2097 35.3183L18.0417 33.8973C17.6717 33.8393 17.3027 33.9493 17.0247 34.1933L14.1737 36.6983C13.8757 36.9593 13.7207 37.3453 13.7517 37.7393C13.7847 38.1333 14.0007 38.4893 14.3367 38.6983L25.1927 45.4683L30.5077 57.1073C30.5387 57.1743 30.5807 57.2353 30.6227 57.2953H30.6207C30.6207 57.2953 30.6277 57.3053 30.6317 57.3103C30.6507 57.3373 30.6697 57.3643 30.6917 57.3893C31.0547 57.8613 32.8427 60.0733 34.4437 60.0963C34.8287 60.1793 35.2327 60.0743 35.5297 59.8133L38.3807 57.3083C38.6587 57.0633 38.8147 56.7083 38.8057 56.3383L38.5787 47.0633L46.8427 39.8023L55.4667 58.6833C55.4927 58.7383 55.5277 58.7863 55.5597 58.8363L55.5567 58.8373L55.6047 58.9113C55.6117 58.9183 55.6167 58.9283 55.6237 58.9373C55.9317 59.3853 57.3147 61.2353 59.4017 61.6723C59.4887 61.6913 59.5767 61.7003 59.6637 61.7003C59.9647 61.7003 60.2587 61.5913 60.4887 61.3893L64.2907 58.0493C64.5967 57.7803 64.7517 57.3793 64.7087 56.9743L61.4387 26.9823L72.3557 17.3913C74.8417 15.2063 75.1967 11.4933 73.2537 8.89132Z" fill="#534891"/>
</svg>
