<svg width="78" height="79" viewBox="0 0 78 79" fill="none" xmlns="http://www.w3.org/2000/svg">
<path fill-rule="evenodd" clip-rule="evenodd" d="M38.268 68.1095C21.854 68.1095 8.50002 54.7555 8.50002 38.3425C8.50002 21.9295 21.854 8.57451 38.268 8.57451C54.681 8.57451 68.036 21.9275 68.036 38.3415C68.036 54.7555 54.68 68.1095 38.268 68.1095ZM65.437 20.9675C59.697 12.0195 49.666 6.07251 38.267 6.07251C20.477 6.07251 6.00002 20.5475 6.00002 38.3405C5.99325 45.2065 8.18955 51.8936 12.266 57.4185C18.006 66.3725 28.039 72.3225 39.443 72.3225C57.235 72.3225 71.709 57.8475 71.709 40.0555C71.7151 33.1856 69.5167 26.4949 65.437 20.9675Z" fill="#534891"/>
<path fill-rule="evenodd" clip-rule="evenodd" d="M56.1019 29.6675L48.5069 22.0725L46.3869 24.1935L51.4709 29.2795H21.3649V32.2795H51.4719L46.3859 37.3645L48.5069 39.4855L56.1009 31.8925C56.7149 31.2775 56.7149 30.2825 56.1019 29.6685V29.6675ZM56.1969 46.2675H26.0909L31.1759 41.1825L29.0539 39.0615L21.4609 46.6565C21.3148 46.8023 21.1988 46.9756 21.1196 47.1663C21.0405 47.357 20.9998 47.5615 20.9998 47.768C20.9998 47.9745 21.0405 48.179 21.1196 48.3697C21.1988 48.5604 21.3148 48.7337 21.4609 48.8795L29.0539 56.4735L31.1759 54.3525L26.0909 49.2675H56.1969V46.2675Z" fill="#A094FC"/>
</svg>
