<svg width="78" height="79" viewBox="0 0 78 79" fill="none" xmlns="http://www.w3.org/2000/svg">
<path fill-rule="evenodd" clip-rule="evenodd" d="M40.6361 46.5764C40.2871 46.9884 39.8511 47.2724 39.3371 47.4394V42.2314C39.9621 42.4624 40.4361 42.7614 40.7411 43.1344C41.1091 43.5874 41.2941 44.1254 41.2941 44.7504C41.2941 45.4494 41.0741 46.0574 40.6361 46.5764ZM35.5421 36.4724C35.2441 36.0494 35.0941 35.5894 35.0941 35.0944C35.0941 34.5534 35.2581 34.0584 35.5841 33.6104C35.8751 33.2124 36.2611 32.9224 36.7291 32.7304V37.4174C36.2111 37.1674 35.8111 36.8544 35.5421 36.4724ZM43.5051 40.5314C42.7441 39.6264 41.3491 38.8824 39.3371 38.2924V32.9404C39.9961 33.3654 40.4291 34.0224 40.6081 34.9404L44.1491 34.4784C43.9061 33.0794 43.3461 31.9624 42.4691 31.1274C41.6771 30.3734 40.6241 29.9014 39.3371 29.6834V28.2234H38.9291H36.9001H36.7291V29.6394C35.2071 29.8234 33.9741 30.4054 33.0441 31.4074C32.0781 32.4474 31.5961 33.7324 31.5961 35.2624C31.5961 36.7734 32.0231 38.0584 32.8761 39.1174C33.7021 40.1424 34.9901 40.9134 36.7291 41.4354V47.2564C36.2931 47.0114 35.8911 46.6564 35.5291 46.1784C35.1181 45.6364 34.8381 44.9924 34.6891 44.2464L31.0361 44.6384C31.3161 46.4754 31.9601 47.8984 32.9681 48.9064C33.9381 49.8774 35.1971 50.4614 36.7291 50.6794V53.2584H36.9001H38.9291H39.3371V50.5684C40.9591 50.2644 42.2461 49.5824 43.1901 48.5144C44.2111 47.3574 44.7221 45.9344 44.7221 44.2464C44.7221 42.7344 44.3171 41.4964 43.5051 40.5314Z" fill="#A094FC"/>
<path fill-rule="evenodd" clip-rule="evenodd" d="M67.2152 27.8899C67.2152 28.4479 66.7622 28.9009 66.2052 28.9009H59.3162L58.7012 24.8049H62.0752C62.7652 24.8049 63.3252 24.2449 63.3252 23.5549V15.5759C63.3252 14.8849 62.7652 14.3259 62.0752 14.3259H14.4612C13.7712 14.3259 13.2112 14.8849 13.2112 15.5759V23.5549C13.2112 24.2449 13.7712 24.8049 14.4612 24.8049H17.0572L16.4432 28.9009H10.5102C9.95324 28.9009 9.50024 28.4479 9.50024 27.8899V11.5819C9.50024 11.0259 9.95324 10.5729 10.5102 10.5729H66.2052C66.7622 10.5729 67.2152 11.0259 67.2152 11.5819V27.8899ZM61.5102 60.3419H14.2492L20.5612 18.3099H55.1972L61.5102 60.3419ZM16.1322 66.4109L16.6682 62.8419H59.0902L59.6262 66.4109H16.1322ZM66.4732 8.07288L66.4882 8.10088C66.3932 8.09288 66.3022 8.07288 66.2052 8.07288H10.5102C8.57424 8.07288 7.00024 9.64688 7.00024 11.5819V27.8899C7.00024 27.8919 7.01624 33.9669 11.5472 33.9929C11.7152 33.9939 11.8632 33.9879 12.0012 33.9779C12.0502 33.9799 12.0962 33.9929 12.1462 33.9929H15.6782L11.5612 61.4069C11.5072 61.7659 11.6122 62.1319 11.8502 62.4079C12.0872 62.6839 12.4332 62.8419 12.7972 62.8419H14.1402L13.4442 67.4749C13.3902 67.8339 13.4962 68.2009 13.7332 68.4759C13.9702 68.7519 14.3172 68.9109 14.6802 68.9109H61.0782C61.4422 68.9109 61.7882 68.7519 62.0252 68.4759C62.2622 68.2009 62.3682 67.8339 62.3142 67.4749L61.6192 62.8419H62.9622C63.3252 62.8419 63.6722 62.6839 63.9092 62.4079C64.1462 62.1319 64.2522 61.7659 64.1982 61.4069L60.0812 33.9929H67.8412C69.7772 33.9929 71.3512 32.4179 71.3512 30.4829V14.1749C71.3512 8.07288 66.4732 8.07288 66.4732 8.07288Z" fill="#534891"/>
</svg>
