<svg width="78" height="79" viewBox="0 0 78 79" fill="none" xmlns="http://www.w3.org/2000/svg">
<path fill-rule="evenodd" clip-rule="evenodd" d="M8.50002 38.3415C8.50002 21.9275 21.854 8.57453 38.268 8.57453C54.681 8.57453 68.035 21.9275 68.035 38.3415C68.035 54.7555 54.68 68.1095 38.268 68.1095C21.854 68.1095 8.50002 54.7555 8.50002 38.3415ZM38.268 6.07153C20.476 6.07253 6.00002 20.5485 6.00002 38.3415C5.99325 45.2076 8.18955 51.8946 12.266 57.4195C18.006 66.3725 28.039 72.3225 39.442 72.3225C57.234 72.3225 71.709 57.8475 71.709 40.0555C71.7151 33.1856 69.5167 26.495 65.437 20.9675C59.696 12.0195 49.666 6.07253 38.267 6.07253L38.268 6.07153Z" fill="#534891"/>
<path fill-rule="evenodd" clip-rule="evenodd" d="M54.931 38.3695L55 40.4495L53.503 44.2745L52.689 44.7445L50.921 48.7045L47.996 49.9125L47.248 49.0395L45.821 49.5095L43.031 47.6315L42.557 46.1555L40.923 45.8175L41.74 43.7405L40.312 45.6165L39.562 45.1485L38.882 43.2725L36.503 42.3985L32.356 43.2725L30.996 44.0755L30.52 44.9465L27.595 45.2815L26.302 46.4895L23.854 46.0195L24.128 43.7405L23.175 41.5915L21.272 38.8405L21.406 38.1035L21.069 37.0975L21 35.3515L21.406 34.5465L24.06 33.1365L28.14 30.2525L28.75 28.5755L29.84 28.4405L31.268 26.0255L32.151 25.8245L33.443 26.8975L34.667 26.9635L34.394 26.3625L36.571 23.4095L40.585 24.2135L41.263 24.0135L41.605 24.4135L40.109 26.7635L44.934 29.3135L45.752 27.1665L45.887 24.7495L46.907 23.0725L47.589 24.3485L47.926 26.6965L49.287 27.3005L49.832 31.0585L52.009 32.8685L52.415 34.5465L53.299 34.6145L54.931 38.3695ZM47.316 54.0065L46.839 52.5285L46.569 51.1875L47.791 51.7225L49.151 51.4545V53.0645L48.811 53.8695L48.402 53.6005L47.996 54.0725L47.316 54.0065Z" fill="#A094FC"/>
</svg>
