<svg width="78" height="79" viewBox="0 0 78 79" fill="none" xmlns="http://www.w3.org/2000/svg">
<path fill-rule="evenodd" clip-rule="evenodd" d="M18.6541 18.9446H50.3171V15.9436H18.6541V18.9446Z" fill="#534891"/>
<path fill-rule="evenodd" clip-rule="evenodd" d="M18.6541 26.5465H50.3171V23.5465H18.6541V26.5465Z" fill="#534891"/>
<path fill-rule="evenodd" clip-rule="evenodd" d="M18.6541 34.1496H50.3171V31.1486H18.6541V34.1496Z" fill="#534891"/>
<path fill-rule="evenodd" clip-rule="evenodd" d="M18.6541 41.7505H50.3171V38.7505H18.6541V41.7505Z" fill="#534891"/>
<path fill-rule="evenodd" clip-rule="evenodd" d="M56.4718 68.5051H52.9118H16.0878C14.1098 68.5051 12.4998 66.8961 12.4998 64.9171V9.65114H56.4718V63.3891C56.6248 66.5261 57.6538 67.8101 59.4508 68.5051H56.4718ZM58.9718 56.5511V7.07214H9.99976V64.8391C9.99976 68.1961 12.7318 70.9271 16.0878 70.9271H58.9718V70.9171H63.1168C65.4628 70.9171 67.3648 69.0151 67.3648 66.6691V56.5511H58.9718Z" fill="#534891"/>
<path fill-rule="evenodd" clip-rule="evenodd" d="M25.5527 63.2356C29.6957 63.2356 33.0527 59.8786 33.0527 55.7356C33.0527 51.5936 29.6957 48.2356 25.5527 48.2356C21.4107 48.2356 18.0527 51.5936 18.0527 55.7356C18.0527 59.8786 21.4107 63.2356 25.5527 63.2356Z" fill="#A094FC"/>
</svg>
