<svg width="78" height="79" viewBox="0 0 78 79" fill="none" xmlns="http://www.w3.org/2000/svg">
<path fill-rule="evenodd" clip-rule="evenodd" d="M45.287 56.1245L48.947 66.1275C45.5398 67.4402 41.9193 68.1114 38.268 68.1075C34.66 68.1075 31.2 67.4625 27.998 66.2815L31.588 56.4635C33.6455 57.1998 35.8148 57.575 38 57.5725C40.582 57.5725 43.043 57.0575 45.287 56.1245ZM10.487 27.6425L20.447 31.2865C19.4886 33.5959 18.9968 36.0722 19 38.5725C19 40.8225 19.391 42.9815 20.109 44.9835L10.311 48.5695C9.10958 45.2928 8.49649 41.8296 8.50002 38.3395C8.50002 34.5705 9.20402 30.9635 10.487 27.6415V27.6425ZM68.035 38.3395C68.035 41.8755 67.415 45.2695 66.279 48.4185L56.004 44.6585C56.65 42.7485 57 40.7015 57 38.5725C57 36.1125 56.533 33.7625 55.682 31.6055L66.105 27.7915C67.3847 31.1608 68.0387 34.7354 68.035 38.3395ZM38.268 8.57253C41.965 8.57253 45.507 9.25052 48.776 10.4875L44.969 20.8915C42.7497 20.0172 40.3853 19.5697 38 19.5725C35.871 19.5725 33.824 19.9225 31.913 20.5685L28.169 10.3355C31.4074 9.16562 34.8248 8.56902 38.268 8.57253Z" fill="#A094FC"/>
<path d="M38 19.5725C48.493 19.5725 57 28.0795 57 38.5725C57 49.0655 48.493 57.5725 38 57.5725C27.507 57.5725 19 49.0655 19 38.5725C19 28.0795 27.507 19.5725 38 19.5725ZM38 21.5725C28.611 21.5725 21 29.1835 21 38.5725C21 47.9615 28.611 55.5725 38 55.5725C47.389 55.5725 55 47.9615 55 38.5725C55 29.1835 47.389 21.5725 38 21.5725Z" fill="#534891"/>
<path fill-rule="evenodd" clip-rule="evenodd" d="M38 2.07251C38.7956 2.07251 39.5587 2.38858 40.1213 2.95119C40.6839 3.5138 41 4.27686 41 5.07251V6.18751C51.258 7.05251 60.16 12.7425 65.437 20.9675C68.6073 25.2649 70.6561 30.285 71.398 35.5735L72.5 35.5725C73.2956 35.5725 74.0587 35.8886 74.6213 36.4512C75.1839 37.0138 75.5 37.7769 75.5 38.5725C75.5 39.3682 75.1839 40.1312 74.6213 40.6938C74.0587 41.2564 73.2956 41.5725 72.5 41.5725H71.674C70.903 58.1465 57.569 71.4935 41 72.2855V73.0725C41.0007 73.8534 40.6969 74.6038 40.1532 75.1643C39.6094 75.7248 38.8686 76.0512 38.088 76.0741C37.3074 76.097 36.5487 75.8147 35.973 75.287C35.3973 74.7594 35.05 74.0281 35.005 73.2485L35 73.0725V72.0175C25.462 70.6975 17.248 65.1895 12.266 57.4185C8.84526 52.7808 6.73644 47.3075 6.16096 41.5735L4.99996 41.5725C4.21906 41.5733 3.46863 41.2695 2.90815 40.7257C2.34766 40.182 2.02128 39.4411 1.99836 38.6605C1.97545 37.88 2.2578 37.1212 2.78542 36.5455C3.31305 35.9698 4.04436 35.6226 4.82396 35.5775L4.99996 35.5725H6.11796C7.43396 20.1495 19.645 7.78751 35 6.23651V5.07251C35 4.27686 35.316 3.5138 35.8786 2.95119C36.4413 2.38858 37.2043 2.07251 38 2.07251ZM38.268 8.57451C21.854 8.57451 8.49996 21.9275 8.49996 38.3415C8.49996 54.7555 21.854 68.1095 38.268 68.1095C54.681 68.1095 68.035 54.7555 68.035 38.3415C68.035 21.9275 54.681 8.57451 38.268 8.57451Z" fill="#534891"/>
</svg>
