<svg width="78" height="79" viewBox="0 0 78 79" fill="none" xmlns="http://www.w3.org/2000/svg">
<path fill-rule="evenodd" clip-rule="evenodd" d="M21.3559 24.7996H12.7719C12.541 24.7996 12.3165 24.875 12.1323 25.0144C11.9482 25.1537 11.8147 25.3494 11.7519 25.5716L9.39593 33.9916C8.85176 35.9362 8.57587 37.9462 8.57593 39.9656V43.8986C8.57593 44.7366 9.50893 45.2486 10.2079 44.7856C12.6309 43.1746 15.5979 40.4836 22.0639 40.1956C22.6359 40.1706 23.0939 39.7196 23.0939 39.1476V25.8526C23.0939 25.2686 22.6209 24.7996 22.0369 24.7996" fill="#A094FC"/>
<path fill-rule="evenodd" clip-rule="evenodd" d="M28.352 37.6025H36.924V27.3395H28.352V37.6025ZM39.424 37.6025H47.848V27.3395H39.424V37.6025ZM50.348 37.6025H58.707V27.3395H50.348V37.6025ZM68.015 51.7325C67.104 49.3385 64.791 47.6295 62.081 47.6295C59.371 47.6295 57.058 49.3395 56.147 51.7325H21.461C20.55 49.3385 18.238 47.6295 15.528 47.6295C12.818 47.6295 10.505 49.3395 9.594 51.7325H5.5V39.0185C5.5 36.2625 5.962 33.5465 6.875 30.9445L8.824 25.3845C9.2154 24.2709 9.94272 23.3061 10.9056 22.6234C11.8685 21.9406 13.0196 21.5734 14.2 21.5725H67.97C68.974 21.5725 69.791 22.3885 69.791 23.3925V24.8405H27.131L25.852 24.8705V38.8215L25.881 40.1015H69.791V51.7325H68.015ZM58.228 53.9825C58.2293 52.961 58.6357 51.9818 59.358 51.2595C60.0803 50.5372 61.0595 50.1308 62.081 50.1295C63.1026 50.1306 64.082 50.5368 64.8043 51.2592C65.5267 51.9815 65.9329 52.961 65.934 53.9825C65.9329 55.0042 65.5267 55.9837 64.8044 56.7062C64.0821 57.4287 63.1026 57.8352 62.081 57.8365C61.0594 57.8352 60.0799 57.4287 59.3576 56.7062C58.6353 55.9837 58.2291 55.0042 58.228 53.9825ZM11.675 53.9825C11.6761 52.961 12.0823 51.9815 12.8047 51.2592C13.527 50.5368 14.5064 50.1306 15.528 50.1295C16.5495 50.1308 17.5287 50.5372 18.251 51.2595C18.9733 51.9818 19.3797 52.961 19.381 53.9825C19.3799 55.0042 18.9737 55.9837 18.2514 56.7062C17.5291 57.4287 16.5496 57.8352 15.528 57.8365C14.5064 57.8352 13.5269 57.4287 12.8046 56.7062C12.0823 55.9837 11.6761 55.0042 11.675 53.9825ZM61.208 37.6025H69.791V27.3395H61.208V37.6025ZM66.971 19.0725H14.2C12.5015 19.0738 10.8452 19.6022 9.45959 20.5846C8.074 21.567 7.02735 22.9551 6.464 24.5575L4.515 30.1175C3.51129 32.9777 2.99905 35.9873 3 39.0185V53.8655H3.017C3.0262 54.0018 3.06901 54.1336 3.1416 54.2493C3.21419 54.365 3.31431 54.4609 3.433 54.5285L5.944 55.9515C6.209 56.1025 6.51 56.1815 6.815 56.1815H9.575C10.472 58.6035 12.798 60.3365 15.528 60.3365C18.257 60.3365 20.583 58.6035 21.48 56.1815H56.128C57.026 58.6035 59.352 60.3365 62.081 60.3365C64.811 60.3365 67.136 58.6035 68.034 56.1815H75.231C75.2846 56.1816 75.3377 56.1712 75.3873 56.1507C75.4369 56.1303 75.4819 56.1002 75.5198 56.0623C75.5577 56.0244 75.5878 55.9794 75.6082 55.9298C75.6287 55.8802 75.6391 55.8271 75.639 55.7735V25.3425C75.639 23.0685 71.398 19.5135 68.94 19.1925C68.2854 19.128 67.6286 19.088 66.971 19.0725Z" fill="#534891"/>
</svg>
