<svg width="78" height="79" viewBox="0 0 78 79" fill="none" xmlns="http://www.w3.org/2000/svg">
<path fill-rule="evenodd" clip-rule="evenodd" d="M70.639 48.5625H65.455C65.455 48.5355 65.459 48.5095 65.459 48.4825C65.4569 46.5709 64.6966 44.7383 63.3449 43.3866C61.9932 42.0349 60.1606 41.2746 58.249 41.2725C54.274 41.2725 51.039 44.5065 51.039 48.4825C51.039 48.5095 51.043 48.5355 51.043 48.5625H23.462C23.462 48.5355 23.466 48.5095 23.466 48.4825C23.4639 46.5709 22.7036 44.7383 21.3519 43.3866C20.0002 42.0349 18.1676 41.2746 16.256 41.2725C14.3444 41.2746 12.5118 42.0349 11.1601 43.3866C9.80842 44.7383 9.04812 46.5709 9.046 48.4825C9.046 48.5095 9.05 48.5355 9.05 48.5625H5.573V42.7305C5.57356 41.1683 6.04715 39.6428 6.93143 38.355C7.81571 37.0671 9.06924 36.0772 10.527 35.5155C11.317 35.2115 13.37 34.7925 16.687 34.2575C18.3297 33.9221 19.8733 33.2139 21.199 32.1875C22.709 31.0105 25.089 29.2825 27.838 27.7375C34.308 24.1055 38.874 22.4205 45.966 22.5875C46.021 22.5875 51.514 22.4925 54.551 22.7905C63.299 23.6495 69.464 28.4335 71.464 35.9125C72.379 39.3325 72.05 45.0025 70.744 48.2955L70.639 48.5625ZM53.539 48.4825C53.5403 47.2337 54.037 46.0365 54.92 45.1535C55.803 44.2705 57.0002 43.7738 58.249 43.7725C59.4978 43.7738 60.695 44.2705 61.578 45.1535C62.461 46.0365 62.9577 47.2337 62.959 48.4825C62.9574 49.7311 62.4606 50.9281 61.5777 51.8109C60.6947 52.6937 59.4976 53.1902 58.249 53.1915C57.0002 53.1902 55.803 52.6935 54.92 51.8105C54.037 50.9275 53.5403 49.7303 53.539 48.4815V48.4825ZM11.546 48.4825C11.5473 47.2337 12.044 46.0365 12.927 45.1535C13.81 44.2705 15.0072 43.7738 16.256 43.7725C17.5048 43.7738 18.702 44.2705 19.585 45.1535C20.468 46.0365 20.9647 47.2337 20.966 48.4825C20.9644 49.7311 20.4676 50.9281 19.5847 51.8109C18.7017 52.6937 17.5046 53.1902 16.256 53.1915C15.0072 53.1902 13.81 52.6935 12.927 51.8105C12.044 50.9275 11.5473 49.7303 11.546 48.4815V48.4825ZM75.166 35.8245C73.751 30.2165 67.381 23.8015 59.925 21.6425C57.9176 20.9535 55.8358 20.5037 53.723 20.3025C50.543 19.9905 47.45 20.0895 44.9 20.0895C37.203 20.0895 33.415 21.6995 26.54 25.5595C23.657 27.1795 21.169 28.9865 19.59 30.2165C18.5686 31.0066 17.3794 31.5517 16.114 31.8095C12.506 32.4765 10.421 32.9015 9.857 33.0865C9.011 33.3635 7.082 34.1935 5.482 36.0505C3.88149 37.9081 3.00078 40.2785 3 42.7305V49.8135C3 50.4735 3.515 50.8245 3.863 50.9835C4.729 51.3635 6.143 51.6205 6.611 51.6205H9.775C9.965 52.0105 10.188 52.3805 10.443 52.7295C12.096 55.2985 15.725 57.1045 18.693 57.1045C22.073 57.1045 24.909 54.7635 25.686 51.6205H50.768C50.847 51.7825 50.931 51.9405 51.021 52.0965C52.461 54.9965 56.481 57.1045 59.687 57.1045C63.066 57.1045 65.902 54.7635 66.679 51.6205H72.775C73.0256 51.6205 73.2703 51.5451 73.4775 51.4042C73.6847 51.2634 73.8448 51.0635 73.937 50.8305L74.442 49.5595C76.117 45.3355 76.249 40.4095 75.167 35.8245H75.166Z" fill="#534891"/>
<path fill-rule="evenodd" clip-rule="evenodd" d="M45.8449 25.5805L46.3949 33.4425L23.6779 35.0325C23.4019 35.0515 22.5499 34.8425 23.6879 34.0825L24.2009 33.6945C25.5629 32.6815 27.4949 31.3495 29.6859 30.1445C35.4659 26.9655 39.5619 25.4715 45.8449 25.5805ZM53.8199 25.7645C59.3239 26.2945 63.6959 28.5075 66.4539 32.0385L49.3879 33.2325L48.8529 25.5755C51.4209 25.6305 53.0769 25.6935 53.8209 25.7655L53.8199 25.7645Z" fill="#A094FC"/>
</svg>
