<svg width="78" height="79" viewBox="0 0 78 79" fill="none" xmlns="http://www.w3.org/2000/svg">
<path fill-rule="evenodd" clip-rule="evenodd" d="M12.1501 19.1035H43.3641V16.1035H12.1501V19.1035Z" fill="#A094FC"/>
<path fill-rule="evenodd" clip-rule="evenodd" d="M12.1501 26.0825H43.3641V23.0825H12.1501V26.0825Z" fill="#A094FC"/>
<path fill-rule="evenodd" clip-rule="evenodd" d="M12.1501 33.0605H33.0261V30.0605H12.1501V33.0605Z" fill="#A094FC"/>
<path fill-rule="evenodd" clip-rule="evenodd" d="M71.2814 26.5198H58.5754C57.9584 26.5198 57.4574 27.0198 57.4574 27.6378V44.7388C57.4574 45.3568 56.9564 45.8568 56.3394 45.8568H29.5514C28.9324 45.8568 28.4324 46.3578 28.4324 46.9758V48.2208V56.3088C28.4324 56.8178 28.8444 57.2308 29.3544 57.2308L50.2664 57.2248C50.4464 57.2188 62.1864 56.8448 67.2734 61.6858C69.0554 63.3828 70.0204 65.4908 70.2084 68.1098C70.2434 68.6058 70.6354 68.9988 71.1344 68.9968H71.1824C71.6904 68.9938 72.0994 68.5818 72.0994 68.0748V27.3378C72.0994 26.8858 71.7334 26.5198 71.2814 26.5198Z" fill="#534891"/>
<path fill-rule="evenodd" clip-rule="evenodd" d="M10.214 44.5823C8.946 45.7893 8.047 47.1703 7.5 48.7583V11.5723H48.667V39.7833L28.124 39.7773C27.617 39.7563 15.628 39.4313 10.214 44.5823ZM48.995 42.2833C48.998 42.2833 49.001 42.2823 49.005 42.2823L51.995 42.2833C53.193 42.2833 54.167 41.3093 54.167 40.1113V11.1413C54.167 10.0003 53.239 9.07227 52.099 9.07227H49.099H10.068H7.068C5.928 9.07227 5 10.0003 5 11.1403V51.8773C5 53.0483 5.939 54.0053 7.149 54.0433V54.0463H7.185C7.193 54.0463 7.2 54.0493 7.208 54.0493H7.221C7.23 54.0493 7.237 54.0463 7.245 54.0463H10.185C10.193 54.0463 10.2 54.0493 10.208 54.0493H10.221C10.23 54.0493 10.237 54.0463 10.245 54.0463H10.296V54.0413C11.398 54.0023 12.309 53.1253 12.389 52.0013C12.553 49.7043 13.387 47.8703 14.938 46.3933C18.652 42.8583 26.589 42.3393 29.746 42.2773L48.995 42.2833Z" fill="#534891"/>
</svg>
