<svg width="78" height="79" viewBox="0 0 78 79" fill="none" xmlns="http://www.w3.org/2000/svg">
<path fill-rule="evenodd" clip-rule="evenodd" d="M37.014 35.3485C37.2557 35.1068 37.5426 34.915 37.8584 34.7842C38.1742 34.6534 38.5126 34.5861 38.8545 34.5861C39.1963 34.5861 39.5347 34.6534 39.8505 34.7842C40.1663 34.915 40.4533 35.1068 40.695 35.3485C40.9367 35.5902 41.1284 35.8771 41.2592 36.1929C41.39 36.5087 41.4573 36.8471 41.4573 37.189C41.4573 37.5308 41.39 37.8692 41.2592 38.185C41.1284 38.5008 40.9367 38.7878 40.695 39.0295L43.572 41.9075C43.593 41.8875 43.619 41.8715 43.633 41.8475L54.097 22.3455C54.1269 22.2896 54.138 22.2255 54.1287 22.1628C54.1194 22.1001 54.0902 22.0421 54.0453 21.9973C54.0004 21.9525 53.9423 21.9234 53.8795 21.9142C53.8168 21.9051 53.7528 21.9164 53.697 21.9465L34.197 32.4105C34.171 32.4235 34.157 32.4505 34.137 32.4705L37.014 35.3485Z" fill="#A094FC"/>
<path fill-rule="evenodd" clip-rule="evenodd" d="M38.268 68.1095C21.854 68.1095 8.5 54.7555 8.5 38.3415C8.5 21.9275 21.854 8.57451 38.268 8.57451C54.681 8.57451 68.035 21.9275 68.035 38.3415C68.035 54.7555 54.681 68.1095 38.268 68.1095ZM65.438 20.9675C59.695 12.0195 49.665 6.07251 38.267 6.07251C20.476 6.07251 6 20.5475 6 38.3405C6 45.4735 8.331 52.0705 12.266 57.4185C18.006 66.3725 28.04 72.3225 39.442 72.3225C57.234 72.3225 71.709 57.8475 71.709 40.0555C71.7151 33.1856 69.5167 26.4949 65.437 20.9675" fill="#534891"/>
<path fill-rule="evenodd" clip-rule="evenodd" d="M40.6059 14.3475C40.6124 14.0261 40.5546 13.7067 40.4361 13.4079C40.3176 13.1092 40.1407 12.8371 39.9157 12.6076C39.6907 12.378 39.4222 12.1957 39.1258 12.0713C38.8295 11.9468 38.5113 11.8827 38.1899 11.8828C37.8685 11.8829 37.5503 11.9471 37.254 12.0716C36.9577 12.1962 36.6893 12.3786 36.4644 12.6083C36.2395 12.8379 36.0626 13.1101 35.9443 13.4089C35.8259 13.7077 35.7683 14.0271 35.7749 14.3485C35.7878 14.9806 36.0479 15.5825 36.4995 16.025C36.9511 16.4675 37.5581 16.7153 38.1904 16.7153C38.8226 16.7153 39.4297 16.4675 39.8813 16.025C40.3329 15.5825 40.593 14.9806 40.6059 14.3485V14.3475ZM38.1899 59.4685C37.8685 59.4619 37.5491 59.5196 37.2503 59.638C36.9515 59.7565 36.6794 59.9334 36.4498 60.1583C36.2203 60.3833 36.0379 60.6517 35.9134 60.9481C35.7889 61.2444 35.7247 61.5625 35.7247 61.884C35.7247 62.2054 35.7889 62.5236 35.9134 62.8199C36.0379 63.1162 36.2203 63.3847 36.4498 63.6096C36.6794 63.8346 36.9515 64.0114 37.2503 64.1299C37.5491 64.2484 37.8685 64.306 38.1899 64.2995C38.8184 64.2814 39.415 64.019 39.8531 63.5681C40.2913 63.1171 40.5364 62.5132 40.5364 61.8845C40.5364 61.2557 40.2913 60.6518 39.8531 60.2008C39.415 59.7499 38.8184 59.4875 38.1899 59.4695V59.4685ZM62.0529 35.9265C61.4124 35.9265 60.7981 36.1809 60.3452 36.6338C59.8923 37.0867 59.6379 37.701 59.6379 38.3415C59.6379 38.982 59.8923 39.5962 60.3452 40.0491C60.7981 40.502 61.4124 40.7565 62.0529 40.7565C62.6934 40.7565 63.3076 40.502 63.7605 40.0491C64.2134 39.5962 64.4679 38.982 64.4679 38.3415C64.4679 37.701 64.2134 37.0867 63.7605 36.6338C63.3076 36.1809 62.6934 35.9265 62.0529 35.9265ZM14.2739 35.9265C13.6334 35.9265 13.0191 36.1809 12.5662 36.6338C12.1133 37.0867 11.8589 37.701 11.8589 38.3415C11.8589 38.982 12.1133 39.5962 12.5662 40.0491C13.0191 40.502 13.6334 40.7565 14.2739 40.7565C14.9144 40.7565 15.5286 40.502 15.9815 40.0491C16.4344 39.5962 16.6889 38.982 16.6889 38.3415C16.6889 37.701 16.4344 37.0867 15.9815 36.6338C15.5286 36.1809 14.9144 35.9265 14.2739 35.9265ZM37.0139 39.0295C36.526 38.5412 36.252 37.8792 36.252 37.189C36.252 36.4987 36.526 35.8367 37.0139 35.3485L34.1359 32.4705C34.1159 32.4905 34.0899 32.5065 34.0759 32.5305L23.6119 52.0305C23.5815 52.0864 23.5701 52.1506 23.5792 52.2135C23.5883 52.2765 23.6176 52.3348 23.6626 52.3798C23.7075 52.4248 23.7659 52.454 23.8288 52.4631C23.8918 52.4723 23.956 52.4608 24.0119 52.4305L43.5119 41.9675C43.5369 41.9535 43.5519 41.9265 43.5729 41.9075L40.6949 39.0295C40.2066 39.517 39.5449 39.7908 38.8549 39.7908C38.1649 39.7908 37.5031 39.517 37.0149 39.0295" fill="#534891"/>
</svg>
