<svg width="78" height="79" viewBox="0 0 78 79" fill="none" xmlns="http://www.w3.org/2000/svg">
<path fill-rule="evenodd" clip-rule="evenodd" d="M38.268 68.1095C21.854 68.1095 8.5 54.7555 8.5 38.3415C8.5 21.9275 21.854 8.57451 38.268 8.57451C54.681 8.57451 68.035 21.9275 68.035 38.3415C68.035 54.7555 54.681 68.1095 38.268 68.1095ZM65.437 20.9675C59.696 12.0195 49.666 6.07251 38.268 6.07251C20.476 6.07251 6 20.5475 6 38.3405C6 45.4735 8.331 52.0705 12.266 57.4195C18.006 66.3725 28.039 72.3225 39.442 72.3225C57.234 72.3225 71.709 57.8475 71.709 40.0555C71.7151 33.1856 69.5167 26.4949 65.437 20.9675Z" fill="#534891"/>
<path d="M43.7041 41.1025C48.2051 41.1025 51.9061 44.3625 52.0421 48.3845L52.0461 48.6125V51.8655C52.0461 52.5255 51.4811 53.0385 50.7961 53.0975L50.6661 53.1025H26.3401C25.6461 53.1025 25.1171 52.6305 25.0531 51.9945L25.0471 51.8655V48.6125C25.0471 44.5625 28.6641 41.2285 33.1341 41.1065L33.3881 41.1025H43.7051H43.7041ZM38.5461 21.1025C37.4298 21.1024 36.3245 21.3222 35.2932 21.7493C34.2618 22.1764 33.3247 22.8025 32.5354 23.5918C31.7461 24.3812 31.12 25.3182 30.6929 26.3496C30.2658 27.3809 30.046 28.4863 30.0461 29.6025C30.0461 31.9685 31.0181 34.1815 32.7021 35.7755C33.7101 36.7297 34.9365 37.4225 36.274 37.7934C37.6115 38.1643 39.0194 38.2021 40.3749 37.9033C41.7304 37.6046 42.992 36.9785 44.0497 36.0796C45.1074 35.1808 45.9288 34.0367 46.4423 32.7472C46.9558 31.4577 47.1457 30.0621 46.9954 28.6822C46.8452 27.3024 46.3593 25.9804 45.5802 24.8317C44.8012 23.6829 43.7527 22.7424 42.5263 22.0924C41.3 21.4423 39.9331 21.1025 38.5451 21.1025H38.5461Z" fill="#A094FC"/>
</svg>
