<svg width="78" height="79" viewBox="0 0 78 79" fill="none" xmlns="http://www.w3.org/2000/svg">
<path d="M56.0127 42.1027C60.3477 42.1027 63.9114 45.362 64.042 49.3843L64.0457 49.6128V52.8657C64.0457 53.5246 63.5016 54.0389 62.8425 54.0972L62.7177 54.1027H39.2907C38.6228 54.1027 38.1129 53.6303 38.0518 52.9949L38.0457 52.8657V49.6128C38.0457 45.5628 41.529 42.2282 45.8332 42.1061L46.0777 42.1027H56.0127ZM51.0459 23.1027C46.6267 23.1027 43.0459 26.6835 43.0459 31.1027C43.0459 33.3297 43.9609 35.4117 45.5462 36.9127C47.0217 38.3099 48.972 39.1027 51.0459 39.1027C55.464 39.1027 59.0459 35.5208 59.0459 31.1027C59.0459 26.6839 55.4643 23.1027 51.0459 23.1027Z" fill="#A094FC"/>
<path fill-rule="evenodd" clip-rule="evenodd" d="M12.5801 26.8495H35.0221V23.8495H12.5801V26.8495Z" fill="#534891"/>
<path fill-rule="evenodd" clip-rule="evenodd" d="M12.5801 34.2415H35.0221V31.2415H12.5801V34.2415Z" fill="#534891"/>
<path fill-rule="evenodd" clip-rule="evenodd" d="M12.5801 41.6335H35.0221V38.6335H12.5801V41.6335Z" fill="#534891"/>
<path fill-rule="evenodd" clip-rule="evenodd" d="M68.9298 56.4055C68.9298 57.6935 67.8818 58.7405 66.5948 58.7405H8.83476C7.54776 58.7405 6.49976 57.6935 6.49976 56.4055V19.8545C6.49976 18.5675 7.54776 17.5195 8.83476 17.5195H66.5948C67.8818 17.5195 68.9298 18.5675 68.9298 19.8545V56.4055ZM73.2948 19.6675C71.5488 17.1075 68.7838 15.5855 68.7838 15.5855C68.7838 15.5855 68.7767 15.6055 68.7728 15.6145C68.1158 15.2795 67.3818 15.0725 66.5948 15.0725H8.83476C6.16876 15.0725 3.99976 17.2415 3.99976 19.9075V56.4585C3.99976 57.1305 4.13876 57.7695 4.38776 58.3515C4.41676 58.5445 4.52876 58.8025 4.77176 59.1635C6.51576 61.7445 9.30676 63.2795 9.30676 63.2795C9.30676 63.2795 9.31276 63.2645 9.31476 63.2605C10.0038 63.6395 10.7838 63.8745 11.6248 63.8745H69.3848C72.0518 63.8745 74.2208 61.7055 74.2208 59.0395V22.4885C74.2208 21.4335 73.8708 20.4635 73.2948 19.6675Z" fill="#534891"/>
</svg>
