<svg width="78" height="79" viewBox="0 0 78 79" fill="none" xmlns="http://www.w3.org/2000/svg">
<path fill-rule="evenodd" clip-rule="evenodd" d="M62.64 22.6564C57.05 22.2364 49.11 22.3724 42.52 25.3054V22.3054C49.11 19.3724 57.05 19.2364 62.64 19.6564V22.6564ZM62.64 31.5394C57.05 31.1184 49.11 31.2545 42.52 34.1885V31.1884C49.11 28.2544 57.05 28.1184 62.64 28.5384V31.5384V31.5394ZM62.64 40.4224C57.05 40.0024 49.11 40.1375 42.52 43.0705V40.0705C49.11 37.1375 57.05 37.0014 62.64 37.4214V40.4214V40.4224ZM62.64 49.3034C57.05 48.8834 49.11 49.0194 42.52 51.9524V48.9525C49.11 46.0195 57.05 45.8834 62.64 46.3034V49.3034Z" fill="#A094FC"/>
<path fill-rule="evenodd" clip-rule="evenodd" d="M67.553 56.2415C62.83 55.4315 48.295 53.6345 38.265 59.8235V19.5795C47.7 12.6455 63.475 14.8195 67.553 15.5295V56.2425V56.2415ZM35.765 59.8225C30.046 56.2955 22.867 55.3625 16.876 55.3625C13.3914 55.3683 9.91317 55.6623 6.477 56.2415V15.5285C10.553 14.8165 26.328 12.6435 35.765 19.5785V59.8225ZM70.27 13.7815C70.121 13.5955 69.924 13.3815 69.084 13.1985C68.244 13.0145 48.804 8.97846 37.021 17.4065C25.24 8.99146 5.823 13.0995 4.983 13.2825L4 13.4965V58.8165L4.013 58.8185C4.016 59.0885 4.095 59.3515 4.261 59.5665L5.891 61.6775C6.184 62.0575 6.672 62.2365 7.142 62.1345L7.888 61.9715C8.082 61.9285 27.356 57.8515 38.193 65.8575C38.467 66.0625 38.876 66.1675 39.118 66.1675C39.36 66.1675 39.598 66.1675 39.829 66.1605C40.062 66.1535 40.389 66.0375 40.629 65.8605C51.47 57.8555 70.737 61.9305 70.931 61.9735L72.448 62.3035V16.9325C72.448 16.6455 72.35 16.3685 72.171 16.1455L70.271 13.7815H70.27Z" fill="#534891"/>
</svg>
