<svg width="78" height="79" viewBox="0 0 78 79" fill="none" xmlns="http://www.w3.org/2000/svg">
<path fill-rule="evenodd" clip-rule="evenodd" d="M55.4405 6.573C56.7615 6.573 57.8355 7.62 57.8355 8.908V65.396C57.8355 66.684 56.7615 67.731 55.4405 67.731H55.3755V6.573H55.4405ZM25.7213 63.0425C26.4113 63.0425 26.9713 63.6025 26.9713 64.2925C26.9713 64.9825 26.4113 65.5425 25.7213 65.5425H19.2763C18.5863 65.5425 18.0263 64.9825 18.0263 64.2925C18.0263 63.6025 18.5863 63.0425 19.2763 63.0425H25.7213ZM37.276 63.0425C37.966 63.0425 38.526 63.6025 38.526 64.2925C38.526 64.9825 37.966 65.5425 37.276 65.5425H30.831C30.141 65.5425 29.581 64.9825 29.581 64.2925C29.581 63.6025 30.141 63.0425 30.831 63.0425H37.276ZM48.8311 63.0425C49.5211 63.0425 50.0811 63.6025 50.0811 64.2925C50.0811 64.9825 49.5211 65.5425 48.8311 65.5425H42.3861C41.6961 65.5425 41.1361 64.9825 41.1361 64.2925C41.1361 63.6025 41.6961 63.0425 42.3861 63.0425H48.8311ZM25.7213 58.3916C26.4113 58.3916 26.9713 58.9516 26.9713 59.6416C26.9713 60.3316 26.4113 60.8916 25.7213 60.8916H19.2763C18.5863 60.8916 18.0263 60.3316 18.0263 59.6416C18.0263 58.9516 18.5863 58.3916 19.2763 58.3916H25.7213ZM37.276 58.3916C37.966 58.3916 38.526 58.9516 38.526 59.6416C38.526 60.3316 37.966 60.8916 37.276 60.8916H30.831C30.141 60.8916 29.581 60.3316 29.581 59.6416C29.581 58.9516 30.141 58.3916 30.831 58.3916H37.276ZM48.8311 58.3916C49.5211 58.3916 50.0811 58.9516 50.0811 59.6416C50.0811 60.3316 49.5211 60.8916 48.8311 60.8916H42.3861C41.6961 60.8916 41.1361 60.3316 41.1361 59.6416C41.1361 58.9516 41.6961 58.3916 42.3861 58.3916H48.8311ZM25.7213 53.7402C26.4113 53.7402 26.9713 54.3002 26.9713 54.9902C26.9713 55.6802 26.4113 56.2402 25.7213 56.2402H19.2763C18.5863 56.2402 18.0263 55.6802 18.0263 54.9902C18.0263 54.3002 18.5863 53.7402 19.2763 53.7402H25.7213ZM37.276 53.7402C37.966 53.7402 38.526 54.3002 38.526 54.9902C38.526 55.6802 37.966 56.2402 37.276 56.2402H30.831C30.141 56.2402 29.581 55.6802 29.581 54.9902C29.581 54.3002 30.141 53.7402 30.831 53.7402H37.276ZM48.8311 53.7402C49.5211 53.7402 50.0811 54.3002 50.0811 54.9902C50.0811 55.6802 49.5211 56.2402 48.8311 56.2402H42.3861C41.6961 56.2402 41.1361 55.6802 41.1361 54.9902C41.1361 54.3002 41.6961 53.7402 42.3861 53.7402H48.8311ZM48.5309 9.1215C49.3859 9.1215 50.0809 9.8325 50.0809 10.7075V49.7245C50.0809 50.5985 49.3859 51.3105 48.5309 51.3105H19.5759C18.7209 51.3105 18.0269 50.5985 18.0269 49.7245V10.7075C18.0269 9.8325 18.7209 9.1215 19.5759 9.1215H48.5309ZM47.5809 11.6225H20.5259V48.8105H47.5809V11.6225ZM17.9585 67.731C16.6385 67.731 15.5635 66.684 15.5635 65.396V8.908C15.5635 7.62 16.6385 6.573 17.9585 6.573H52.8755V67.731H17.9585ZM62.4835 9.453C62.4895 9.45 62.5075 9.443 62.5075 9.443C62.5075 9.443 62.4085 9.268 62.2185 8.977C62.2055 8.958 62.1935 8.939 62.1805 8.92C61.5915 8.03 60.2305 6.189 58.2865 4.908C57.9535 4.689 57.6995 4.569 57.5075 4.526C56.8765 4.242 56.1805 4.073 55.4405 4.073H17.9585C15.2245 4.073 13.0005 6.242 13.0005 8.908V65.396C13.0005 66.166 13.2015 66.883 13.5305 67.529L13.5255 67.531C13.5255 67.531 13.5605 67.592 13.6215 67.692C13.7405 67.905 13.8705 68.109 14.0205 68.301C14.6735 69.248 15.9525 70.872 17.7125 72.042C18.5285 72.618 19.5225 72.967 20.6055 72.967H58.0875C60.8225 72.967 63.0465 70.798 63.0465 68.132V11.643C63.0465 10.851 62.8315 10.113 62.4835 9.453Z" fill="#534891"/>
<path fill-rule="evenodd" clip-rule="evenodd" d="M28.3039 30.6571C31.5419 27.3711 36.8479 27.3711 40.1109 30.6571L41.8149 28.953C37.6029 24.742 30.7869 24.742 26.5999 28.953L28.3039 30.6571Z" fill="#A094FC"/>
<path fill-rule="evenodd" clip-rule="evenodd" d="M24.9449 27.2491C30.0569 22.1361 38.3579 22.1361 43.4699 27.2491L45.1739 25.5941C39.0879 19.5321 29.3259 19.5321 23.2649 25.5941L24.9449 27.2491ZM31.7119 33.9921C33.0749 32.5551 35.3879 32.5551 36.7759 33.9921L38.4549 32.2881C36.0939 29.9751 32.3209 29.9751 30.0079 32.2881L31.7119 33.9921ZM34.2199 35.0881C33.2699 35.0881 32.4669 35.8671 32.4669 36.8411C32.4669 37.7651 33.2699 38.5451 34.2199 38.5451C35.1689 38.5451 35.9479 37.7411 35.9479 36.8411C35.9479 35.8671 35.1689 35.0881 34.2199 35.0881Z" fill="#A094FC"/>
</svg>
