<svg width="78" height="79" viewBox="0 0 78 79" fill="none" xmlns="http://www.w3.org/2000/svg">
<path fill-rule="evenodd" clip-rule="evenodd" d="M22.646 38.0215H54.308V35.0215H22.646V38.0215Z" fill="#A094FC"/>
<path fill-rule="evenodd" clip-rule="evenodd" d="M22.646 31.5455H54.308V28.5455H22.646V31.5455Z" fill="#A094FC"/>
<path fill-rule="evenodd" clip-rule="evenodd" d="M22.646 24.5695H43.822V21.5695H22.646V24.5695Z" fill="#A094FC"/>
<path fill-rule="evenodd" clip-rule="evenodd" d="M63.614 64.4035C63.614 64.4275 63.608 64.4515 63.607 64.4755L48.705 50.9985C49.175 50.5845 49.651 50.1625 50.167 49.7025C53.327 46.8875 55.507 44.8805 57.014 43.4275L63.614 37.5775V64.4035ZM61.8 66.2155H14.313C14.223 66.2155 14.137 66.2025 14.051 66.1895L28.849 52.8045C31.902 55.6305 33.611 57.0755 34.587 57.7985C34.781 57.9485 34.977 58.0905 35.183 58.2095C35.441 58.3725 35.617 58.4565 35.743 58.4975C36.3505 58.7635 37.0058 58.903 37.669 58.9075C38.104 58.9075 38.535 58.8275 38.962 58.7085C39.0478 58.694 39.1317 58.6699 39.212 58.6365C39.8911 58.4121 40.5172 58.0514 41.052 57.5765L42.228 56.5345C43.328 55.6495 44.808 54.4065 46.815 52.6585L61.804 66.2155H61.8ZM12.5 37.4755L21.007 45.3255C22.9892 47.2697 24.992 49.1928 27.015 51.0945L12.5 64.2225V37.4745V37.4755ZM13.042 33.4515L15.594 30.9395V36.9275L12.604 34.1685C12.694 33.9005 12.838 33.6515 13.042 33.4515ZM18.094 17.8145C18.094 17.4865 18.361 17.2195 18.689 17.2195H57.278C57.607 17.2195 57.873 17.4865 57.873 17.8145V38.9745C56.271 41.0145 43.767 52.2245 39.575 55.4655C38.952 55.9485 38.175 56.1785 37.388 56.1285C36.7155 56.0874 36.0727 55.8367 35.55 55.4115C31.73 52.3015 19.594 40.6955 18.094 38.6365V17.8145ZM36.786 10.0875C37.136 9.74251 37.596 9.57051 38.056 9.57051C38.518 9.57051 38.978 9.74251 39.328 10.0875L44.037 14.7195H32.077L36.786 10.0875ZM60.373 30.7955L63.073 33.4525C63.308 33.6825 63.468 33.9775 63.55 34.2945L60.373 37.1095V30.7955ZM60.373 27.2865V17.8145C60.3719 16.994 60.0455 16.2074 59.4653 15.6272C58.8851 15.047 58.0985 14.7206 57.278 14.7195H47.603L41.082 8.30351C39.414 6.66351 36.7 6.66051 35.032 8.30351L28.511 14.7195H18.689C17.8685 14.7206 17.0819 15.047 16.5017 15.6272C15.9215 16.2074 15.5951 16.994 15.594 17.8145V27.4305L11.288 31.6675C10.8812 32.0699 10.558 32.5487 10.337 33.0764C10.1159 33.6041 10.0014 34.1704 10 34.7425V64.4025C10 65.1685 10.218 65.8765 10.568 66.5005L10.507 66.4575C10.507 66.4575 12.181 69.7175 15.46 71.2505C16.019 71.5075 16.533 71.5445 17.15 71.5445H64.638C65.7818 71.5432 66.8784 71.0881 67.687 70.2791C68.4956 69.4701 68.9502 68.3733 68.951 67.2295V37.5695C68.9497 36.9977 68.8353 36.4319 68.6144 35.9045C68.3935 35.3771 68.0705 34.8986 67.664 34.4965L60.373 27.2875V27.2865Z" fill="#534891"/>
</svg>
