<svg width="78" height="79" viewBox="0 0 78 79" fill="none" xmlns="http://www.w3.org/2000/svg">
<path fill-rule="evenodd" clip-rule="evenodd" d="M33.0815 34.8113C33.0815 35.8143 33.2845 36.5513 33.6915 37.0253C34.0975 37.4993 34.6015 37.7363 35.2015 37.7363C35.6505 37.7363 36.0735 37.6253 36.4685 37.4043C36.7685 37.2473 37.0635 36.9983 37.3555 36.6593C37.7745 36.1763 38.1355 35.4743 38.4395 34.5503C38.7435 33.6263 38.8955 32.7663 38.8955 31.9693C38.8955 31.0773 38.6885 30.3923 38.2735 29.9153C37.8595 29.4373 37.3365 29.1983 36.7055 29.1983C36.0255 29.1983 35.3985 29.4603 34.8225 29.9863C34.2455 30.5103 33.8115 31.2583 33.5195 32.2303C33.2275 33.2013 33.0815 34.0613 33.0815 34.8113ZM45.8815 39.6783H48.4045C47.6145 41.2813 46.4025 42.5363 44.7695 43.4443C42.8975 44.4863 40.6165 45.0063 37.9245 45.0063C35.3195 45.0063 33.0695 44.5663 31.1745 43.6863C29.2805 42.8063 27.8715 41.5073 26.9475 39.7903C26.0235 38.0743 25.5615 36.2053 25.5615 34.1833C25.5615 31.9653 26.0865 29.8993 27.1375 27.9853C28.1865 26.0703 29.6235 24.6333 31.4475 23.6743C33.2705 22.7153 35.3545 22.2363 37.6995 22.2363C39.6885 22.2363 41.4565 22.6233 43.0045 23.3963C44.5515 24.1693 45.7335 25.2693 46.5515 26.6943C47.3685 28.1193 47.7765 29.6753 47.7765 31.3653C47.7765 33.3783 47.1565 35.1983 45.9175 36.8243C44.3625 38.8763 42.3695 39.9033 39.9375 39.9033C39.2825 39.9033 38.7895 39.7893 38.4575 39.5593C38.1255 39.3313 37.9045 38.9953 37.7945 38.5533C36.8625 39.4533 35.7895 39.9033 34.5735 39.9033C33.2635 39.9033 32.1755 39.4513 31.3105 38.5473C30.4465 37.6433 30.0145 36.4413 30.0145 34.9413C30.0145 33.0863 30.5355 31.3933 31.5775 29.8613C32.8405 27.9993 34.4585 27.0673 36.4325 27.0673C37.8375 27.0673 38.8755 27.6043 39.5465 28.6773L39.8425 27.3633H42.9695L41.1815 35.8533C41.0705 36.3903 41.0155 36.7373 41.0155 36.8953C41.0155 37.0923 41.0605 37.2413 41.1515 37.3393C41.2425 37.4383 41.3505 37.4873 41.4775 37.4873C41.8555 37.4873 42.3455 37.2583 42.9455 36.8003C43.7505 36.2013 44.4015 35.3953 44.8985 34.3843C45.3965 33.3743 45.6445 32.3293 45.6445 31.2473C45.6445 29.3053 44.9425 27.6803 43.5375 26.3733C42.1325 25.0683 40.1705 24.4153 37.6525 24.4153C35.5125 24.4153 33.6995 24.8503 32.2105 25.7233C30.7235 26.5953 29.6025 27.8233 28.8485 29.4063C28.0945 30.9883 27.7175 32.6363 27.7175 34.3493C27.7175 36.0153 28.1375 37.5313 28.9785 38.8963C29.8195 40.2623 30.9995 41.2583 32.5195 41.8863C34.0385 42.5143 35.7775 42.8283 37.7345 42.8283C39.6225 42.8283 41.2445 42.5653 42.6025 42.0403C43.9595 41.5153 45.0535 40.7283 45.8815 39.6783Z" fill="#A094FC"/>
<path fill-rule="evenodd" clip-rule="evenodd" d="M62.6138 64.404C62.6138 64.428 62.6078 64.452 62.6068 64.476L47.7048 50.999C48.1738 50.585 48.6508 50.163 49.1668 49.703C52.3278 46.888 54.5078 44.881 56.0128 43.428L62.6138 37.578V64.404ZM60.8008 66.216H13.3128C13.2228 66.216 13.1368 66.203 13.0508 66.19L27.8488 52.805C30.9018 55.631 32.6108 57.076 33.5868 57.799C33.7808 57.949 33.9768 58.091 34.1828 58.21C34.4408 58.373 34.6168 58.457 34.7428 58.498C35.3648 58.763 36.0148 58.907 36.6688 58.907C37.1038 58.907 37.5348 58.827 37.9618 58.709C38.0278 58.699 38.1108 58.676 38.2128 58.637C38.8628 58.42 39.4888 58.077 40.0518 57.577L41.2278 56.535C42.3288 55.65 43.8088 54.407 45.8148 52.659L60.8038 66.216C60.8028 66.216 60.8018 66.216 60.8008 66.216ZM11.4998 37.475L20.0068 45.325C21.1568 46.46 22.5388 47.798 24.2328 49.409C24.8658 50.011 25.4558 50.569 26.0148 51.094L11.4998 64.223V37.475ZM12.0418 33.452L14.5938 30.94V36.928L11.6028 34.169C11.6938 33.901 11.8378 33.652 12.0418 33.452ZM17.0938 17.815C17.0938 17.487 17.3598 17.22 17.6888 17.22H56.2778C56.6068 17.22 56.8728 17.487 56.8728 17.815V38.974C55.2708 41.014 42.7668 52.224 38.5748 55.466C37.9518 55.948 37.1748 56.179 36.3878 56.129C35.7138 56.086 35.0738 55.839 34.5498 55.412C30.7298 52.301 18.5938 40.696 17.0938 38.637V17.815ZM35.7858 10.088C36.1358 9.74301 36.5958 9.57101 37.0568 9.57101C37.5178 9.57101 37.9778 9.74301 38.3278 10.088L43.0368 14.72H31.0768L35.7858 10.088ZM59.3728 30.796L62.0728 33.453C62.3078 33.683 62.4678 33.978 62.5498 34.295L59.3728 37.11V30.796ZM66.6638 34.496L63.9848 31.86C63.9288 31.799 63.8858 31.727 63.8258 31.669L59.3728 27.286V17.815C59.3728 16.109 57.9848 14.72 56.2778 14.72H46.6028L40.0818 8.30401C38.4138 6.66301 35.6998 6.66101 34.0318 8.30401L27.5108 14.72H17.6888C15.9818 14.72 14.5938 16.109 14.5938 17.815V27.431L10.2878 31.668C9.46976 32.473 8.99976 33.593 8.99976 34.742V64.402C8.99976 65.167 9.21676 65.876 9.56776 66.5L9.50676 66.457C9.50676 66.457 11.1808 69.716 14.4598 71.25C14.4598 71.25 14.4428 71.218 14.4188 71.174C14.9488 71.408 15.5328 71.543 16.1498 71.543H63.6378C66.0168 71.543 67.9508 69.608 67.9508 67.229V37.569C67.9508 36.421 67.4818 35.3 66.6638 34.496Z" fill="#534891"/>
</svg>
