<svg width="78" height="79" viewBox="0 0 78 79" fill="none" xmlns="http://www.w3.org/2000/svg">
<path fill-rule="evenodd" clip-rule="evenodd" d="M38.268 68.1095C21.854 68.1095 8.50002 54.7555 8.50002 38.3425C8.50002 21.9295 21.854 8.57451 38.268 8.57451C54.681 8.57451 68.036 21.9275 68.036 38.3415C68.036 54.7555 54.68 68.1095 38.268 68.1095ZM65.437 20.9675C59.697 12.0195 49.666 6.07251 38.267 6.07251C20.477 6.07251 6.00002 20.5475 6.00002 38.3405C5.99325 45.2065 8.18955 51.8936 12.266 57.4185C18.006 66.3725 28.039 72.3225 39.443 72.3225C57.235 72.3225 71.709 57.8465 71.709 40.0555C71.7151 33.1856 69.5167 26.4949 65.437 20.9675Z" fill="#534891"/>
<path fill-rule="evenodd" clip-rule="evenodd" d="M24.514 54.0315L22 52.3945C22.22 52.0575 27.483 44.1375 38.33 44.0725C49.193 44.1375 54.456 52.0575 54.675 52.3945L52.16 54.0275C51.976 53.7505 47.513 47.1285 38.33 47.0725C29.162 47.1285 24.7 53.7505 24.514 54.0315Z" fill="#A094FC"/>
<path fill-rule="evenodd" clip-rule="evenodd" d="M29.224 31.7425C29.224 32.5594 28.8995 33.3428 28.3219 33.9204C27.7442 34.498 26.9608 34.8225 26.144 34.8225C25.3271 34.8225 24.5437 34.498 23.9661 33.9204C23.3885 33.3428 23.064 32.5594 23.064 31.7425C23.064 30.9256 23.3885 30.1422 23.9661 29.5646C24.5437 28.987 25.3271 28.6625 26.144 28.6625C26.9608 28.6625 27.7442 28.987 28.3219 29.5646C28.8995 30.1422 29.224 30.9256 29.224 31.7425ZM53.222 31.7425C53.222 32.5596 52.8974 33.3433 52.3196 33.9211C51.7418 34.4989 50.9581 34.8235 50.141 34.8235C49.3238 34.8235 48.5402 34.4989 47.9624 33.9211C47.3846 33.3433 47.06 32.5596 47.06 31.7425C47.06 30.9254 47.3846 30.1417 47.9624 29.5639C48.5402 28.9861 49.3238 28.6615 50.141 28.6615C50.9581 28.6615 51.7418 28.9861 52.3196 29.5639C52.8974 30.1417 53.222 30.9254 53.222 31.7425Z" fill="#534891"/>
</svg>
