<svg width="78" height="79" viewBox="0 0 78 79" fill="none" xmlns="http://www.w3.org/2000/svg">
<path fill-rule="evenodd" clip-rule="evenodd" d="M42.5321 54.4796C40.0221 53.7846 38.3631 52.8476 36.6301 51.1456C35.5313 50.0606 34.66 48.7673 34.0672 47.3414C33.4745 45.9156 33.1722 44.3857 33.1781 42.8416C33.1781 40.1836 35.4381 38.0246 38.2141 38.0246C40.9891 38.0246 43.2491 40.1846 43.2491 42.8416C43.2491 44.3786 44.5931 45.6326 46.2591 45.6326C47.924 45.6326 49.2661 44.3786 49.2661 42.8426C49.2661 37.0976 44.3081 32.4276 38.1981 32.4276C33.8541 32.4276 29.8861 34.8446 28.1031 38.5786C27.5111 39.8086 27.2071 41.2536 27.2071 42.8416C27.2071 44.6336 27.4671 46.3356 28.2351 48.3856C28.2844 48.5092 28.3083 48.6415 28.3053 48.7745C28.3024 48.9075 28.2727 49.0386 28.218 49.16C28.1633 49.2813 28.0848 49.3904 27.987 49.4807C27.8893 49.571 27.7743 49.6407 27.6491 49.6856C27.5251 49.7326 27.3931 49.7547 27.2606 49.7505C27.1281 49.7464 26.9977 49.7162 26.8769 49.6615C26.7562 49.6069 26.6474 49.529 26.5568 49.4322C26.4662 49.3354 26.3956 49.2217 26.3491 49.0976C25.5741 47.0286 25.1951 44.9736 25.1951 42.8416C25.1951 40.9416 25.5601 39.2066 26.2781 37.6896C28.3921 33.2556 33.0761 30.3856 38.1981 30.3856C45.4191 30.3856 51.2941 35.9606 51.2941 42.8266C51.2941 45.4866 49.034 47.6436 46.2581 47.6436C43.4821 47.6436 41.2221 45.4856 41.2221 42.8266C41.2221 41.2906 39.8791 40.0366 38.2141 40.0366C36.5481 40.0366 35.2051 41.2906 35.2051 42.8266C35.2051 45.4346 36.2121 47.8686 38.0511 49.6916C39.5111 51.1356 40.8971 51.9216 43.0431 52.5156C43.5851 52.6556 43.9001 53.2166 43.7591 53.7426C43.7097 53.9614 43.5878 54.1572 43.4132 54.2981C43.2385 54.4389 43.0214 54.5166 42.7971 54.5186C42.7191 54.5186 42.6331 54.5046 42.5321 54.4796ZM40.9671 49.8796C38.5791 48.2616 37.1531 45.6316 37.1531 42.8416C37.1531 42.2766 37.6001 41.8286 38.1671 41.8286C38.7321 41.8286 39.1791 42.2766 39.1791 42.8416C39.1791 44.9666 40.2671 46.9656 42.1011 48.1986C43.1651 48.9186 44.4121 49.2646 45.9311 49.2646C46.3441 49.2646 46.9571 49.2096 47.5111 49.1146C47.6424 49.0909 47.7772 49.0935 47.9076 49.1222C48.038 49.1509 48.1614 49.2052 48.2707 49.2819C48.3799 49.3587 48.4729 49.4563 48.5442 49.5692C48.6155 49.682 48.6637 49.8079 48.6861 49.9396C48.71 50.0711 48.7077 50.2061 48.6791 50.3367C48.6505 50.4673 48.5962 50.591 48.5195 50.7005C48.4427 50.8099 48.345 50.9031 48.232 50.9745C48.119 51.046 47.9929 51.0942 47.8611 51.1166C47.1431 51.2546 46.4511 51.3076 45.9311 51.3076C44.0261 51.3076 42.3451 50.8256 40.9671 49.8796ZM34.753 54.1916C34.6199 54.1935 34.4878 54.1677 34.3652 54.1157C34.2426 54.0637 34.1322 53.9867 34.0411 53.8896C32.5461 52.3936 31.8541 51.5006 30.8691 49.7226C29.7761 47.7736 29.2021 45.3976 29.2021 42.8426C29.2021 38.0796 33.2701 34.2056 38.2621 34.2056C43.2501 34.2056 47.3181 38.0796 47.3181 42.8416C47.3181 43.4076 46.8701 43.8556 46.3041 43.8556C46.1707 43.8565 46.0385 43.8309 45.9151 43.7803C45.7917 43.7296 45.6796 43.6549 45.5853 43.5606C45.4911 43.4662 45.4165 43.3541 45.366 43.2306C45.3155 43.1072 45.29 42.9749 45.2911 42.8416C45.2911 39.2016 42.1411 36.2316 38.2611 36.2316C34.3811 36.2316 31.2291 39.2016 31.2291 42.8416C31.2291 45.0516 31.719 47.0836 32.649 48.7316C33.533 50.3196 34.1001 51.0396 35.4991 52.4566C35.6843 52.6513 35.7865 52.9105 35.784 53.1792C35.7816 53.4479 35.6748 53.7052 35.4861 53.8966C35.2761 54.0886 35.0181 54.1916 34.753 54.1916ZM24.4231 35.1916C24.3131 35.1152 24.2193 35.0177 24.1474 34.9048C24.0754 34.7919 24.0266 34.6658 24.0038 34.5338C23.981 34.4019 23.9846 34.2667 24.0146 34.1362C24.0445 34.0057 24.1001 33.8824 24.1781 33.7736C25.7451 31.5586 27.7381 29.8196 30.1081 28.6036C35.0781 26.0396 41.4251 26.0306 46.3961 28.5866C48.7582 29.7951 50.7922 31.5581 52.3241 33.7246C52.4023 33.8335 52.4581 33.9568 52.4883 34.0875C52.5185 34.2181 52.5224 34.3534 52.4999 34.4856C52.4774 34.6178 52.4289 34.7442 52.3572 34.8575C52.2854 34.9708 52.1919 35.0687 52.0821 35.1456C51.9734 35.2232 51.8505 35.2785 51.7203 35.3083C51.5902 35.3382 51.4554 35.3419 51.3239 35.3193C51.1923 35.2967 51.0665 35.2482 50.9537 35.1767C50.841 35.1052 50.7436 35.012 50.6671 34.9026C49.2841 32.9656 47.534 31.4486 45.4671 30.3906C41.0531 28.1316 35.4121 28.1356 31.0241 30.4066C28.9517 31.4754 27.1666 33.0267 25.8191 34.9296C25.6561 35.2156 25.3491 35.3746 25.0091 35.3746C24.8031 35.3746 24.6031 35.3126 24.4231 35.1916ZM47.3181 27.1896C47.155 27.1902 46.9945 27.1489 46.8521 27.0696C43.8921 25.5436 41.3421 24.8976 38.2751 24.8976C35.2151 24.8976 32.3251 25.6276 29.7031 27.0676C29.4658 27.1924 29.1893 27.2198 28.9322 27.144C28.675 27.0682 28.4576 26.8951 28.3261 26.6616C28.1994 26.4247 28.171 26.1475 28.247 25.8899C28.3229 25.6323 28.4972 25.4148 28.7321 25.2846C31.6595 23.6905 34.9417 22.8606 38.2751 22.8716C41.6321 22.8716 44.5681 23.6116 47.7851 25.2676C47.9032 25.3274 48.0082 25.4103 48.0939 25.5113C48.1796 25.6122 48.2442 25.7293 48.2841 25.8556C48.324 25.9819 48.3382 26.1149 48.326 26.2467C48.3138 26.3786 48.2754 26.5067 48.2131 26.6236C48.1321 26.7925 48.0052 26.9351 47.8469 27.0352C47.6886 27.1353 47.5053 27.1888 47.3181 27.1896Z" fill="#A094FC"/>
<path fill-rule="evenodd" clip-rule="evenodd" d="M38.268 68.1095C21.854 68.1095 8.50002 54.7555 8.50002 38.3425C8.50002 21.9295 21.854 8.57451 38.268 8.57451C54.681 8.57451 68.036 21.9275 68.036 38.3415C68.036 54.7555 54.68 68.1095 38.268 68.1095ZM65.437 20.9675C59.697 12.0195 49.666 6.07251 38.267 6.07251C20.477 6.07251 6.00002 20.5475 6.00002 38.3405C5.99325 45.2065 8.18955 51.8936 12.266 57.4185C18.006 66.3725 28.039 72.3225 39.443 72.3225C57.235 72.3225 71.709 57.8475 71.709 40.0555C71.7151 33.1856 69.5167 26.4949 65.437 20.9675Z" fill="#534891"/>
</svg>
