<svg width="78" height="79" viewBox="0 0 78 79" fill="none" xmlns="http://www.w3.org/2000/svg">
<path fill-rule="evenodd" clip-rule="evenodd" d="M53.0489 70.9025C51.2209 70.9025 49.7359 69.4085 49.7359 67.5655C49.7359 65.7215 51.2209 64.2285 53.0489 64.2285C54.8789 64.2285 56.3619 65.7215 56.3619 67.5655C56.3619 69.4085 54.8789 70.9025 53.0489 70.9025ZM26.1699 73.8085H59.5069V61.4155H26.1709V73.8085H26.1699Z" fill="#A094FC"/>
<path fill-rule="evenodd" clip-rule="evenodd" d="M56.328 39.2765C56.328 42.3575 55.373 48.9065 53.463 58.9265H27.396L12.2 39.7525L12.113 39.6535C11.7195 39.2535 11.4993 38.7146 11.5 38.1535C11.5008 37.3623 11.8154 36.6036 12.3748 36.044C12.9342 35.4844 13.6927 35.1696 14.484 35.1685H16.848C17.14 35.1685 17.415 35.2855 17.62 35.4945L28.042 46.2285V5.74751C28.042 5.65151 28.122 5.57251 28.218 5.57251H31.058C31.8567 5.57383 32.6222 5.8919 33.1867 6.45693C33.7512 7.02197 34.0685 7.78783 34.069 8.58651V28.9365H48.937C53.013 28.9365 56.328 32.2525 56.328 36.3285V39.2765ZM40.45 26.4365V8.58651C40.4484 7.12459 39.867 5.72301 38.8332 4.68928C37.7995 3.65555 36.3979 3.0741 34.936 3.07251H28.218C27.5086 3.07304 26.8284 3.35501 26.3267 3.85652C25.825 4.35804 25.5428 5.03813 25.542 5.74751V40.0655L19.412 33.7515C19.0776 33.4103 18.6788 33.1389 18.2386 32.9531C17.7984 32.7674 17.3258 32.671 16.848 32.6695H14.484C13.0299 32.6711 11.6358 33.2495 10.6076 34.2778C9.57949 35.3062 9.00132 36.7004 9 38.1545C9 39.3525 9.453 40.4855 10.28 41.3545L26.187 61.4255H59.504C61.631 50.1175 62.695 42.8245 62.695 39.5475C62.695 38.0375 62.699 36.9645 62.708 36.3285C62.708 30.8745 58.271 26.4365 52.818 26.4365H40.448H40.45Z" fill="#534891"/>
</svg>
