<svg width="78" height="79" viewBox="0 0 78 79" fill="none" xmlns="http://www.w3.org/2000/svg">
<path fill-rule="evenodd" clip-rule="evenodd" d="M30.763 51.6695L23.688 44.5945L25.809 42.4735L32.884 49.5485L30.763 51.6695Z" fill="#A094FC"/>
<path fill-rule="evenodd" clip-rule="evenodd" d="M35.4419 46.9915L28.3669 39.9165L30.4879 37.7955L37.5629 44.8705L35.4419 46.9915Z" fill="#A094FC"/>
<path fill-rule="evenodd" clip-rule="evenodd" d="M40.1209 42.3126L33.0459 35.2376L35.1669 33.1166L42.2419 40.1916L40.1209 42.3126Z" fill="#A094FC"/>
<path fill-rule="evenodd" clip-rule="evenodd" d="M44.7999 37.6345L37.7239 30.5595L39.8459 28.4385L46.9199 35.5135L44.7999 37.6345Z" fill="#A094FC"/>
<path fill-rule="evenodd" clip-rule="evenodd" d="M49.4778 32.9555L42.4028 25.8805L44.5238 23.7595L51.5988 30.8345L49.4778 32.9555Z" fill="#A094FC"/>
<path fill-rule="evenodd" clip-rule="evenodd" d="M65.8409 30.2065C63.9449 37.8665 59.1609 45.8245 52.3719 52.6145C45.5819 59.4045 37.6239 64.1875 29.9649 66.0835C23.0949 67.7835 17.2609 66.9535 13.3609 63.7655L25.2069 51.9195L23.4389 50.1515L11.5939 61.9975C8.41388 58.0965 7.58688 52.2685 9.28488 45.4045C11.1809 37.7445 15.9649 29.7875 22.7549 22.9965C31.9739 13.7765 42.9889 8.64254 51.7359 8.64254C55.4309 8.64254 58.7129 9.57354 61.2909 11.4865L49.5849 23.1935L51.3519 24.9605L63.1469 13.1665C66.6429 17.0615 67.6059 23.0745 65.8409 30.2065ZM59.4619 7.46554C55.3729 5.79054 50.2989 5.61054 44.6419 7.01054C36.5469 9.01354 28.1739 14.0305 21.0679 21.1385C13.9599 28.2455 8.94288 36.6185 6.93888 44.7135C4.87988 53.0325 6.23188 60.0995 10.7459 64.6125C10.9679 64.8345 11.2099 65.0315 11.4449 65.2385C11.4569 65.2515 15.7169 68.9875 19.8029 70.4725C21.9379 71.2485 24.3069 71.6255 26.8319 71.6255C36.3099 71.6245 47.9769 66.2905 57.6529 56.6145C64.7609 49.5075 69.7789 41.1345 71.7809 33.0395C73.8339 24.7435 72.4939 17.6935 68.0109 13.1785C64.8649 10.0095 62.7649 8.81854 59.4619 7.46554Z" fill="#534891"/>
</svg>
