<svg width="78" height="79" viewBox="0 0 78 79" fill="none" xmlns="http://www.w3.org/2000/svg">
<path fill-rule="evenodd" clip-rule="evenodd" d="M25.198 32.8085L27.486 71.8925C27.512 72.2545 27.259 72.3595 26.926 72.3685L20.279 72.4905C19.968 72.4995 19.703 72.3495 19.716 72.0335L22.166 32.9525C22.204 31.9625 21.563 31.0585 20.493 30.5905C18.641 29.7345 17.686 28.9275 16.811 27.8635C15.975 26.8475 15.512 25.2465 15.503 24.6665C15.5 24.5242 15.4983 24.3818 15.498 24.2395L15.5 6.88147C15.502 6.78047 15.537 6.67147 15.572 6.57347C15.894 5.84247 16.668 5.57247 17.312 5.57247C18.286 5.57247 19.11 6.17147 19.11 6.88147V24.2395C19.11 24.571 19.2417 24.8889 19.4761 25.1234C19.7105 25.3578 20.0284 25.4895 20.36 25.4895C20.6915 25.4895 21.0094 25.3578 21.2438 25.1234C21.4783 24.8889 21.61 24.571 21.61 24.2395V6.88147C21.61 6.17147 22.433 5.57147 23.407 5.57147C24.382 5.57147 25.205 6.17147 25.205 6.88147V24.2395C25.205 24.571 25.3367 24.8889 25.5711 25.1234C25.8055 25.3578 26.1234 25.4895 26.455 25.4895C26.7865 25.4895 27.1044 25.3578 27.3388 25.1234C27.5733 24.8889 27.705 24.571 27.705 24.2395V6.88147C27.705 6.17147 28.529 5.57147 29.503 5.57147C30.478 5.57147 31.301 6.17147 31.301 6.86947L31.138 24.2085H31.143C30.881 27.6945 28.256 29.5885 26.633 30.4335C25.666 30.9375 25.116 31.8485 25.198 32.8085ZM35.71 6.88147C35.71 5.21747 34.169 3.07747 31.852 3.07347H29.51L29.503 3.07247H29.48C28.299 3.08047 27.229 3.50947 26.455 4.20047C25.675 3.50447 24.598 3.07247 23.407 3.07247C22.217 3.07247 21.139 3.50447 20.36 4.20047C19.58 3.50447 18.502 3.07247 17.312 3.07247C14.942 3.07247 13.014 4.78147 13.014 6.88147V23.9115C12.972 24.4015 12.667 29.8945 19.491 32.8805C19.5521 32.9064 19.6099 32.9396 19.663 32.9795L17.195 72.3525C17.172 72.9815 17.415 73.5895 17.882 74.0645C18.461 74.6545 19.322 74.9905 20.254 74.9905L29.028 74.9925C29.992 74.9735 30.873 74.4775 31.445 73.8425C31.894 73.3465 32.112 72.7255 32.059 72.0955L29.753 32.7075C29.7809 32.6862 29.8107 32.6674 29.842 32.6515C31.671 31.6985 35.902 28.8795 35.711 23.2785L35.71 6.88147ZM50.89 72.0615L53.173 37.7115C53.252 36.5055 52.229 35.4895 50.846 35.3995C48.595 35.2525 46.91 34.6095 46.101 33.5895C45.503 32.8365 45.317 31.8325 45.534 30.5215L48.408 13.1315L48.439 12.9685C48.746 11.0805 50.218 6.58247 57.221 5.57847C57.279 5.57043 57.3379 5.57043 57.396 5.57847L58.68 72.0085C58.682 72.2935 58.51 72.3805 58.307 72.3835L51.31 72.4855C50.975 72.4895 50.874 72.2555 50.89 72.0615ZM61.67 5.22947C61.658 4.64947 61.394 4.11147 60.923 3.71147C60.475 3.32947 58.653 2.84947 56.86 3.10447C47.976 4.37747 46.275 10.6685 45.971 12.5555L43.063 30.1155C42.729 32.1335 43.091 33.8255 44.138 35.1455C45.737 37.1605 48.557 37.7525 50.65 37.8925L48.34 72.6745C48.3232 72.9577 48.367 73.2413 48.4684 73.5063C48.5698 73.7713 48.7264 74.0117 48.928 74.2115C49.414 74.7115 50.124 74.9915 50.864 74.9915H60.555C61.932 74.9375 62.994 73.8495 62.974 72.6615L61.671 5.22947H61.67Z" fill="#534891"/>
<path fill-rule="evenodd" clip-rule="evenodd" d="M27.4851 71.8925C27.5111 72.2545 27.2581 72.3595 26.9261 72.3685L20.2781 72.4905C19.9681 72.4995 19.7021 72.3495 19.7151 72.0335L20.4021 61.0725H26.8521L27.4851 71.8925ZM58.6821 72.0095C58.6841 72.2935 58.5121 72.3805 58.3091 72.3835L51.3121 72.4855C51.0141 72.4895 50.9021 72.3055 50.8911 72.1275L51.6221 61.0725H58.4711L58.6821 72.0085V72.0095Z" fill="#A094FC"/>
</svg>
