<svg width="78" height="79" viewBox="0 0 78 79" fill="none" xmlns="http://www.w3.org/2000/svg">
<path fill-rule="evenodd" clip-rule="evenodd" d="M56.472 68.5049H52.912H16.088C14.11 68.5049 12.5 66.8959 12.5 64.9169V9.6509H56.472V63.3899C56.625 66.5259 57.654 67.8099 59.451 68.5049H56.472ZM58.972 56.5509V7.0719H10V64.8389C10 68.1959 12.732 70.9269 16.088 70.9269H58.972V70.9169H63.117C65.462 70.9169 67.365 69.0149 67.365 66.6689V56.5509H58.972Z" fill="#534891"/>
<path fill-rule="evenodd" clip-rule="evenodd" d="M18.655 18.9445H50.317V15.9435H18.655V18.9445Z" fill="#A094FC"/>
<path fill-rule="evenodd" clip-rule="evenodd" d="M18.655 27.2415H50.317V24.2415H18.655V27.2415Z" fill="#A094FC"/>
<path fill-rule="evenodd" clip-rule="evenodd" d="M18.655 35.5396H50.317V32.5396H18.655V35.5396Z" fill="#A094FC"/>
<path fill-rule="evenodd" clip-rule="evenodd" d="M18.6541 43.8365H39.8301V40.8365H18.6541V43.8365Z" fill="#A094FC"/>
</svg>
