<svg width="78" height="79" viewBox="0 0 78 79" fill="none" xmlns="http://www.w3.org/2000/svg">
<path fill-rule="evenodd" clip-rule="evenodd" d="M65.289 34.514C65.289 35.03 64.941 35.466 64.529 35.466H62.021V35.47H12.785V35.466H10.26C9.848 35.466 9.5 35.03 9.5 34.514V22.406C9.5 21.89 9.848 21.454 10.26 21.454H64.529C64.941 21.454 65.289 21.89 65.289 22.406V34.514ZM58.318 66.937H16.488C14.446 66.937 12.785 65.275 12.785 63.233V37.97H62.021V63.233C62.021 65.275 60.36 66.937 58.318 66.937ZM71.136 23.554C69.358 20.684 66.002 19.322 65.884 19.275C65.47 19.074 65.014 18.954 64.529 18.954H10.26C8.462 18.954 7 20.502 7 22.406V34.514C7 36.417 8.462 37.966 10.26 37.966H10.285V63.233C10.285 64.183 10.506 65.081 10.89 65.887L10.873 65.884C13.231 71.076 18.975 72.494 18.975 72.494L18.967 72.486C19.52 72.648 20.104 72.739 20.709 72.739H62.539C65.96 72.739 68.742 69.956 68.742 66.536V41.254C70.477 41.178 71.869 39.671 71.869 37.817V25.708C71.869 24.889 71.587 24.146 71.136 23.554Z" fill="#534891"/>
<path fill-rule="evenodd" clip-rule="evenodd" d="M52.0858 13.1204C51.7118 14.2904 50.5718 15.6924 48.4988 16.1134L41.6658 17.5024L44.1568 11.8194C44.7568 10.4524 46.1428 9.43036 47.7738 9.15336C48.0618 9.10436 48.3448 9.07936 48.6208 9.07936C49.7588 9.07936 50.7878 9.48336 51.4758 10.2224C52.4718 11.2924 52.2858 12.4964 52.0858 13.1204ZM26.4238 16.1134C24.3508 15.6934 23.2118 14.2914 22.8368 13.1204C22.6378 12.4974 22.4518 11.2924 23.4478 10.2224C24.1338 9.48336 25.1638 9.07936 26.3018 9.07936C26.5788 9.07936 26.8618 9.10436 27.1488 9.15336C28.7808 9.43036 30.1668 10.4524 30.7658 11.8194L33.2568 17.5024L26.4238 16.1134ZM54.4008 7.49036C52.6278 5.58136 49.9048 4.72636 47.1058 5.20136C44.1178 5.70836 41.6468 7.58036 40.4948 10.2064L37.4608 17.1264L34.4278 10.2064C33.2768 7.58036 30.8058 5.70836 27.8168 5.20136C25.0228 4.72636 22.2948 5.58136 20.5208 7.49036C18.8038 9.33636 18.2458 11.8994 19.0278 14.3444C19.9478 17.2184 22.4778 19.4014 25.6288 20.0414L35.1758 21.9814V66.9364H39.6308V22.0054L49.2938 20.0414C52.4458 19.4014 54.9758 17.2184 55.8958 14.3434C56.6778 11.8994 56.1188 9.33636 54.4008 7.49036Z" fill="#A094FC"/>
</svg>
