<svg width="78" height="79" viewBox="0 0 78 79" fill="none" xmlns="http://www.w3.org/2000/svg">
<path fill-rule="evenodd" clip-rule="evenodd" d="M38.718 5.97253C50.116 5.97253 60.147 11.9195 65.888 20.8675C69.9667 26.3954 72.1647 33.0858 72.159 39.9555C72.159 57.7475 57.685 72.2225 39.893 72.2225C28.489 72.2225 18.456 66.2725 12.716 57.3195C8.64012 51.7939 6.4439 45.1068 6.44996 38.2405C6.44996 20.4475 20.926 5.97253 38.718 5.97253ZM38.718 8.47453C37.5668 8.47427 36.4165 8.54038 35.273 8.67253C36.531 11.0675 35.831 12.0425 33.176 11.5985C28.797 10.8655 34.606 16.8415 28.294 17.0785C21.982 17.3165 24.418 26.2385 20.791 26.2385C18.448 26.2385 16.399 24.4105 14.643 20.7535C10.9368 25.8307 8.94293 31.9556 8.94996 38.2415C8.94996 50.4565 16.347 60.9775 26.896 65.5615C27.728 65.5445 28.551 65.6115 28.751 65.7315C29.587 66.2375 28.831 62.7085 30.231 62.7085C31.629 62.7085 38.851 60.5685 40.899 61.6385C42.947 62.7085 47.144 65.1655 45.456 65.4485C43.95 65.7015 42.857 66.0655 45.093 67.3215C58.453 64.3955 68.486 52.4675 68.486 38.2415C68.486 21.8275 55.131 8.47453 38.718 8.47453Z" fill="#534891"/>
<path fill-rule="evenodd" clip-rule="evenodd" d="M48.413 58.1726C47.37 58.8706 45.238 58.1595 44.155 56.3815C43.073 54.6026 43.368 53.6146 42.7771 53.2196C42.187 52.8246 42.384 52.8246 41.793 53.2196C41.203 53.6146 40.809 53.5156 39.923 52.6266C39.0371 51.7376 38.348 51.3426 37.167 51.3426C35.987 51.3426 35.5931 51.0456 34.0181 51.8366C32.4431 52.6266 31.853 53.9116 30.868 53.9116C29.884 53.9116 28.703 53.8116 28.014 54.3066C27.325 54.8006 27.818 55.0965 26.834 55.0965C25.849 55.0965 24.964 53.8125 25.16 52.4296C25.357 51.0455 23.88 49.1696 23.192 48.2796C22.502 47.3896 21.322 44.4266 23.389 42.7466C25.455 41.0666 28.211 40.7706 28.703 39.8816C29.195 38.9916 29.195 40.1216 29.393 38.3996C29.589 36.6766 30.8691 37.5096 31.361 36.5216C31.853 35.5336 32.9351 33.9526 33.6241 34.3486C34.314 34.7436 34.8051 35.4346 35.1991 35.2376C35.5931 35.0396 35.5931 34.8426 35.8881 34.3476C36.1831 33.8546 36.971 32.7676 38.447 32.5696C39.851 32.3816 40.809 32.3726 41.8391 32.8236C42.8691 33.2746 42.285 33.5576 41.5961 34.5456C40.9071 35.5336 41.793 36.1266 42.482 36.3246C43.172 36.5216 44.8441 38.4976 45.5331 38.1026C46.2231 37.7076 47.009 36.5226 47.009 35.6326C47.009 34.7426 47.403 32.4706 47.403 32.1746C47.403 31.8786 47.8951 31.0876 48.584 33.6566C49.274 36.2256 49.8081 35.3406 50.257 36.3246C50.7071 37.3086 50.7491 37.3126 50.7491 38.3996C50.7491 39.4856 52.9151 42.2526 53.4071 42.7466C53.8991 43.2406 56.8521 47.2916 55.8671 49.4656C54.883 51.6386 53.407 53.6156 52.423 55.5906C51.438 57.5666 49.456 57.4746 48.413 58.1726ZM48.812 60.4276C49.299 60.1956 49.692 60.5905 49.496 60.9646C49.299 61.3386 48.962 61.9986 48.812 61.9986C48.6621 61.9986 48.4831 62.1286 48.4831 62.4186C48.4831 62.7086 48.067 62.7106 47.896 62.5646C47.725 62.4186 47.325 61.4046 47.419 61.0906C47.467 60.9306 47.042 60.5056 47.291 60.2326C47.541 59.9586 48.3241 60.6596 48.8111 60.4276H48.812Z" fill="#A094FC"/>
<path fill-rule="evenodd" clip-rule="evenodd" d="M31.2021 21.9125C29.5601 20.8145 24.9601 24.3755 24.9601 26.1825C24.9601 27.9895 27.2911 29.5825 28.2861 28.8115C29.2801 28.0415 32.8461 23.0085 31.2021 21.9115V21.9125ZM29.5181 33.4105C30.3201 32.8555 23.9361 31.5505 21.5481 28.9835C19.6901 26.9855 19.6621 26.9735 18.6201 27.6955C17.6601 28.3595 21.7481 35.3055 29.5181 33.4105ZM52.6461 24.4435C55.7261 24.4435 54.8131 28.6735 54.4901 29.0225C54.1671 29.3725 49.3131 29.6795 48.1641 29.0225C47.0141 28.3655 46.5141 26.2505 45.1861 26.2505C43.8571 26.2505 39.0281 23.8915 37.9791 22.1435C36.9291 20.3955 49.5671 24.4435 52.6461 24.4435ZM62.5651 49.7885C62.5551 50.6765 62.3931 52.6645 61.2561 52.9765C60.4621 53.1935 61.4011 54.6965 61.8051 54.2725C62.5491 53.4915 63.6471 53.1925 63.2101 51.1155C62.7721 49.0385 62.5691 49.3575 62.5651 49.7885ZM60.0101 53.9025C59.7131 54.2065 59.2361 54.8045 58.9301 54.9295C58.3601 55.1625 57.3901 55.6085 56.9261 55.6085C56.4621 55.6085 55.9171 56.1515 55.6101 56.5165C55.3031 56.8825 55.7041 57.4165 56.0831 57.4165C56.4631 57.4165 57.7151 57.2925 57.8151 56.7295C57.9151 56.1665 58.6651 55.8355 58.9311 55.8355C59.1971 55.8355 60.0811 54.8595 60.4221 54.6505C60.7641 54.4405 60.0811 53.8275 60.0091 53.9015L60.0101 53.9025ZM32.4801 25.5575C32.8231 24.4785 33.9601 26.4725 34.5961 27.2585C35.2321 28.0455 34.5961 28.0455 33.1121 28.0455C32.2281 28.0455 31.8441 27.9175 31.6521 27.8675C31.1421 27.7355 32.1361 26.6355 32.4801 25.5575Z" fill="#534891"/>
</svg>
