<svg width="78" height="79" viewBox="0 0 78 79" fill="none" xmlns="http://www.w3.org/2000/svg">
<path fill-rule="evenodd" clip-rule="evenodd" d="M8 7.52851L26.612 26.0565C26.9804 26.4232 27.4765 26.6329 27.9962 26.6415C28.5159 26.65 29.0187 26.4569 29.399 26.1025L40.185 16.0455C40.3431 15.8987 40.5517 15.8183 40.7675 15.8211C40.9833 15.8239 41.1897 15.9096 41.344 16.0605L63.268 37.5045H50.443L50.398 41.1955H67.75C68.705 41.1955 69.478 40.4225 69.478 39.4685V22.2965H65.838L65.876 35.2085L42.011 11.8655C41.6924 11.5534 41.2658 11.3762 40.8198 11.3708C40.3739 11.3654 39.943 11.5322 39.617 11.8365L28.496 22.2045C28.3794 22.3134 28.225 22.3727 28.0655 22.3699C27.9059 22.3671 27.7537 22.3024 27.641 22.1895L10.446 5.07251L8 7.52851Z" fill="#A094FC"/>
<path fill-rule="evenodd" clip-rule="evenodd" d="M51.6139 69.0575H62.6689V58.9325H51.6139V69.0565V69.0575ZM38.0599 69.0575H49.1149V51.0825H38.0599V69.0575ZM24.5049 69.0575H35.5599V42.6755H24.5049V69.0575ZM10.9509 69.0575H22.0049V34.8265H10.9509V69.0565V69.0575ZM63.4709 56.4335H51.6149V50.2815C51.6149 49.8308 51.436 49.3986 51.1174 49.0798C50.7988 48.761 50.3666 48.5818 49.9159 48.5815H38.0599V41.8735C38.0594 41.4234 37.8803 40.9918 37.562 40.6735C37.2437 40.3551 36.8121 40.1761 36.3619 40.1755H24.5049V34.0245C24.5044 33.5745 24.3255 33.1431 24.0074 32.8248C23.6893 32.5065 23.2579 32.3273 22.8079 32.3265H10.1489C9.69875 32.3271 9.26717 32.5061 8.94884 32.8245C8.63052 33.1428 8.45146 33.5744 8.45093 34.0245V71.5575C8.45293 71.7205 8.60193 71.8185 8.80893 71.9455C9.88893 72.6085 13.2909 73.3285 13.9489 73.3285H69.4319V61.7605C69.4319 59.9325 66.3149 56.9055 64.1869 56.5025C63.9507 56.459 63.7111 56.4356 63.4709 56.4325V56.4335Z" fill="#534891"/>
</svg>
