<svg width="78" height="79" viewBox="0 0 78 79" fill="none" xmlns="http://www.w3.org/2000/svg">
<path fill-rule="evenodd" clip-rule="evenodd" d="M24.855 57.2365V40.4005H28.081V49.3355L31.86 45.0405H35.834L31.666 49.4965L36.133 57.2365H32.653L29.585 51.7585L28.081 53.3325V57.2365H24.855Z" fill="#A094FC"/>
<path fill-rule="evenodd" clip-rule="evenodd" d="M40.5748 50.8855C40.5748 52.1795 40.8248 53.1265 41.3268 53.7285C41.8268 54.3285 42.4468 54.6295 43.1818 54.6295C43.9708 54.6295 44.6368 54.3215 45.1798 53.7045C45.7238 53.0895 45.9958 52.1755 45.9958 50.9665C45.9958 49.7025 45.7358 48.7655 45.2148 48.1535C44.6938 47.5395 44.0348 47.2335 43.2398 47.2335C42.4658 47.2335 41.8278 47.5335 41.3268 48.1355C40.8258 48.7365 40.5748 49.6535 40.5748 50.8855ZM37.6918 58.0405L41.3788 58.4885C41.4388 58.9165 41.5818 59.2125 41.8038 59.3735C42.1098 59.6035 42.5918 59.7175 43.2508 59.7175C44.0928 59.7175 44.7248 59.5905 45.1458 59.3385C45.4288 59.1695 45.6438 58.8985 45.7888 58.5225C45.8878 58.2555 45.9378 57.7605 45.9378 57.0425V55.2605C44.9728 56.5795 43.7558 57.2365 42.2858 57.2365C40.6478 57.2365 39.3498 56.5435 38.3928 55.1585C37.6418 54.0645 37.2668 52.6995 37.2668 51.0705C37.2668 49.0255 37.7598 47.4645 38.7428 46.3845C39.7268 45.3045 40.9498 44.7645 42.4118 44.7645C43.9208 44.7645 45.1648 45.4275 46.1448 46.7505V45.0405H49.1648V55.9845C49.1648 57.4245 49.0468 58.5005 48.8088 59.2115C48.5718 59.9235 48.2388 60.4835 47.8088 60.8885C47.3808 61.2935 46.8088 61.6125 46.0928 61.8415C45.3768 62.0715 44.4718 62.1875 43.3768 62.1875C41.3098 62.1875 39.8438 61.8325 38.9788 61.1235C38.1128 60.4155 37.6808 59.5185 37.6808 58.4305C37.6808 58.3245 37.6848 58.1945 37.6908 58.0405" fill="#A094FC"/>
<path fill-rule="evenodd" clip-rule="evenodd" d="M46.7118 18.3665L44.4228 26.7565C41.4634 25.8134 38.3531 25.4345 35.2538 25.6395C34.7532 25.6717 34.2536 25.7191 33.7558 25.7815L31.7328 18.3665C31.5458 17.6805 31.6568 16.9805 32.0298 16.4945C32.1628 16.3195 32.2648 16.2655 32.2808 16.2615H46.1608C46.1808 16.2675 46.2818 16.3195 46.4158 16.4945C46.7878 16.9825 46.8988 17.6825 46.7118 18.3665ZM46.1638 13.7625H27.5538C26.7088 13.7625 25.9138 14.1925 25.3158 14.9755C24.4728 16.0785 24.2038 17.5925 24.5938 19.0235L27.5988 30.0375L28.8858 29.5495C30.9775 28.7532 33.1772 28.2769 35.4108 28.1365C38.6157 27.9224 41.8291 28.4034 44.8308 29.5465L46.1198 30.0375L49.1238 19.0255C49.5148 17.5925 49.2448 16.0785 48.4018 14.9775C47.8038 14.1935 47.0088 13.7625 46.1638 13.7625Z" fill="#534891"/>
<path fill-rule="evenodd" clip-rule="evenodd" d="M46.0689 69.9195H27.6369C26.6744 69.9177 25.7221 69.7218 24.837 69.3434C23.952 68.9651 23.1523 68.4121 22.4859 67.7175C18.2709 63.3075 14.1799 55.5465 14.5129 49.2445C14.6796 46.2055 15.4628 43.2322 16.8149 40.5055C18.167 37.7788 20.0597 35.3556 22.3779 33.3835L22.9849 32.8685L19.5809 20.3905C18.7689 17.4075 19.3679 14.2065 21.1859 11.8255C22.7659 9.75851 25.0839 8.57251 27.5479 8.57251H46.1579C48.6219 8.57251 50.9399 9.75851 52.5199 11.8255C54.3379 14.2055 54.9379 17.4075 54.1249 20.3905L50.7179 32.8825L51.3209 33.3965C53.7935 35.5007 55.7805 38.1158 57.1451 41.0619C58.5096 44.0079 59.2192 47.2148 59.2249 50.4615C59.2249 56.2705 55.2129 63.5235 51.2499 67.6855C50.5815 68.3878 49.7779 68.9478 48.8876 69.3317C47.9973 69.7156 47.0385 69.9155 46.0689 69.9195ZM58.2769 32.0215L61.2709 21.0475C62.2869 17.3175 61.5279 13.3035 59.2399 10.3075C57.1849 7.61751 54.1419 6.07251 50.8919 6.07251H27.5539C24.3039 6.07251 21.2619 7.61651 19.2059 10.3085C16.9179 13.3045 16.1589 17.3185 17.1759 21.0475L20.1649 32.0055C15.3075 36.4157 12.3824 42.5615 12.0229 49.1125C11.6349 56.4495 16.2409 64.7955 20.6859 69.4455C21.5862 70.3835 22.6664 71.1304 23.8619 71.6414C25.0575 72.1524 26.3438 72.417 27.6439 72.4195H50.8029C52.1111 72.4149 53.4048 72.1458 54.6063 71.6286C55.8079 71.1113 56.8925 70.3565 57.7949 69.4095C62.1009 64.8875 66.4589 56.9265 66.4589 50.4615C66.4531 46.9878 65.7224 43.5535 64.3135 40.3782C62.9046 37.203 60.8486 34.3568 58.2769 32.0215Z" fill="#534891"/>
</svg>
