<svg width="78" height="79" viewBox="0 0 78 79" fill="none" xmlns="http://www.w3.org/2000/svg">
<path fill-rule="evenodd" clip-rule="evenodd" d="M63.779 53.2175C63.779 57.0375 60.619 60.1495 56.729 60.1635C55.6644 60.1553 54.6462 59.7267 53.8962 58.9711C53.1462 58.2155 52.7252 57.1941 52.725 56.1295V44.8155C52.725 42.5885 54.53 40.7775 56.749 40.7775H60.782V33.9915C60.782 21.1585 50.194 10.7195 37.18 10.7195C24.166 10.7195 13.577 21.1595 13.577 33.9915V40.7775H18.643C19.7118 40.7804 20.7357 41.2072 21.4901 41.9643C22.2445 42.7213 22.6678 43.7467 22.667 44.8155V56.1295C22.667 57.1976 22.2434 58.2222 21.489 58.9784C20.7346 59.7347 19.7111 60.1608 18.643 60.1635H17.657C13.756 60.1635 10.582 57.0475 10.582 53.2175V33.9915C10.582 19.5575 22.514 7.81549 37.18 7.81549C51.847 7.81549 63.779 19.5575 63.779 33.9915V53.2175ZM36.673 5.23849C20.817 5.50849 8 18.2985 8 33.9925V53.2185C8 58.2005 11.891 62.2965 16.83 62.7125C18.559 62.8445 21.033 63.0565 23.364 62.6545C24.9046 62.3921 26.3027 61.5932 27.3111 60.3993C28.3195 59.2054 28.8731 57.6933 28.874 56.1305V44.8155C28.874 41.1605 25.909 38.1875 22.267 38.1875H19.783V33.9925C19.783 23.1895 28.249 14.3095 38.992 13.4005C49.736 14.3095 58.2 23.1905 58.2 33.9925V38.1885H56.75C53.107 38.1885 50.143 41.1615 50.143 44.8165V56.1305C50.1445 57.6957 50.7001 59.2098 51.7115 60.4044C52.7228 61.5989 54.1245 62.3968 55.668 62.6565C57.806 62.9835 59.408 62.9355 61.201 62.7095L61.207 62.7085C66.121 62.2675 69.985 58.1825 69.985 53.2185V33.9915C69.985 18.1755 56.969 5.30349 40.943 5.22949L36.673 5.23949V5.23849Z" fill="#534891"/>
<path fill-rule="evenodd" clip-rule="evenodd" d="M55.668 62.6524C56.4204 62.7703 57.179 62.8444 57.94 62.8744C57.319 67.3404 53.651 70.8074 49.182 70.9414L48.912 70.9454H44.628C44.151 72.1314 43.049 72.9854 41.748 73.0634L41.551 73.0694H35.334C33.496 73.0694 32 71.5274 32 69.6344C32 67.8004 33.398 66.2974 35.152 66.1994L35.334 66.1944H41.551C42.871 66.1944 44.013 66.9914 44.552 68.1444L44.628 68.3204H48.913C52.188 68.3204 54.907 65.8384 55.405 62.6014C55.492 62.6214 55.58 62.6374 55.668 62.6514V62.6524Z" fill="#A094FC"/>
</svg>
