<svg width="78" height="79" viewBox="0 0 78 79" fill="none" xmlns="http://www.w3.org/2000/svg">
<path fill-rule="evenodd" clip-rule="evenodd" d="M38.268 68.1095C21.854 68.1095 8.5 54.7555 8.5 38.3415C8.5 21.9275 21.854 8.57451 38.268 8.57451C54.681 8.57451 68.035 21.9275 68.035 38.3415C68.035 54.7555 54.681 68.1095 38.268 68.1095ZM65.437 20.9675C59.696 12.0195 49.666 6.07251 38.268 6.07251C20.476 6.07251 6 20.5475 6 38.3405C6 45.4735 8.331 52.0705 12.266 57.4185C18.006 66.3725 28.039 72.3225 39.442 72.3225C57.234 72.3225 71.709 57.8475 71.709 40.0555C71.7151 33.1856 69.5167 26.4949 65.437 20.9675Z" fill="#534891"/>
<path fill-rule="evenodd" clip-rule="evenodd" d="M46.548 24.0725C43.244 24.0725 39.065 25.8255 38 32.6625C36.935 25.8255 32.756 24.0725 29.45 24.0725C23.599 24.0725 19 28.5565 19 34.2635C19 41.2675 25.46 46.9735 35.246 55.6275L37.997 58.0675V58.0725L38 58.0695L38.003 58.0725V58.0685L40.753 55.6275C50.539 46.9725 57 41.2675 57 34.2625C57 28.5565 52.402 24.0725 46.548 24.0725Z" fill="#A094FC"/>
</svg>
