<svg width="78" height="79" viewBox="0 0 78 79" fill="none" xmlns="http://www.w3.org/2000/svg">
<path fill-rule="evenodd" clip-rule="evenodd" d="M26.8429 68.0356L41.5629 74.0576V51.7266L26.8289 45.6746L26.8429 68.0356Z" fill="#A094FC"/>
<path fill-rule="evenodd" clip-rule="evenodd" d="M57.4765 36.6295V63.2455C57.4765 64.5155 56.4465 65.5455 55.1765 65.5455L47.2975 65.5465V43.1755H24.3535V65.5555L14.1715 65.5575V36.6295H7.40751L35.8245 10.4695L64.2445 36.6295H57.4765ZM41.1835 7.07251H35.8245L0.999512 39.1295H11.6715V68.0585L17.0305 68.0575V68.0585L22.5285 68.0555L26.8535 68.0545V45.6755H44.7975V68.0475L51.1565 68.0465V68.0475L58.8445 68.0465C62.4295 68.0455 65.3355 65.1385 65.3355 61.5525V39.1295H70.6515H76.0105L41.1835 7.07251Z" fill="#534891"/>
</svg>
