<svg width="78" height="79" viewBox="0 0 78 79" fill="none" xmlns="http://www.w3.org/2000/svg">
<path fill-rule="evenodd" clip-rule="evenodd" d="M38.268 68.1095C21.854 68.1095 8.5 54.7555 8.5 38.3415C8.5 21.9275 21.854 8.57451 38.268 8.57451C54.681 8.57451 68.035 21.9275 68.035 38.3415C68.035 54.7555 54.681 68.1095 38.268 68.1095ZM65.437 20.9675C59.696 12.0195 49.666 6.07251 38.268 6.07251C20.476 6.07251 6 20.5475 6 38.3405C6 45.4735 8.331 52.0705 12.266 57.4185C18.006 66.3725 28.039 72.3225 39.442 72.3225C57.234 72.3225 71.709 57.8475 71.709 40.0555C71.7151 33.1856 69.5167 26.4949 65.437 20.9675Z" fill="#534891"/>
<path d="M39 19.0725C49.217 19.0725 57.5 27.3555 57.5 37.5725C57.5 40.1365 56.977 42.6295 55.978 44.9305L55.538 45.9185L62.281 43.1945L63.417 46.0075L53.346 50.0755C52.978 50.2239 52.5679 50.2295 52.196 50.0911C51.8242 49.9527 51.5174 49.6804 51.336 49.3275L51.276 49.1955L47.208 39.1265L50.021 37.9905L52.745 44.7345C52.849 44.5445 52.953 44.3405 53.057 44.1225C54.0104 42.0707 54.5029 39.835 54.5 37.5725C54.5 29.0125 47.56 22.0725 39 22.0725C37.344 22.0725 35.728 22.3325 34.199 22.8295L33.023 20.0595C34.9475 19.4043 36.967 19.0708 39 19.0725ZM26.081 27.4365L26.141 27.5675L30.209 37.6375L27.397 38.7735L24.673 32.0295C24.569 32.2195 24.464 32.4225 24.361 32.6415C23.4073 34.6933 22.9144 36.9289 22.917 39.1915C22.917 47.7515 29.857 54.6915 38.417 54.6915C40.1041 54.6934 41.7801 54.4198 43.379 53.8815L44.554 56.6485C42.582 57.3405 40.5069 57.6932 38.417 57.6915C28.2 57.6915 19.917 49.4085 19.917 39.1915C19.917 36.6275 20.44 34.1345 21.439 31.8325L21.879 30.8455L15.136 33.5695L14 30.7565L24.072 26.6885C24.4171 26.5498 24.7998 26.5362 25.1538 26.6502C25.5078 26.7642 25.8107 26.9985 26.01 27.3125L26.081 27.4365Z" fill="#A094FC"/>
</svg>
