<svg width="78" height="79" viewBox="0 0 78 79" fill="none" xmlns="http://www.w3.org/2000/svg">
<path fill-rule="evenodd" clip-rule="evenodd" d="M59.968 30.9504H35.408L37.783 24.3984C38.099 23.5294 38.924 22.9504 39.85 22.9504H64.407L62.032 29.5034C61.718 30.3714 60.893 30.9504 59.968 30.9504Z" fill="#A094FC"/>
<path fill-rule="evenodd" clip-rule="evenodd" d="M17.385 44.6276H50.385V41.6276H17.385V44.6276Z" fill="#534891"/>
<path fill-rule="evenodd" clip-rule="evenodd" d="M10.385 51.6166H46.385V48.6166H10.385V51.6166Z" fill="#534891"/>
<path fill-rule="evenodd" clip-rule="evenodd" d="M68.9308 56.4583C68.9308 57.7463 67.8828 58.7933 66.5958 58.7933H8.83476C7.54776 58.7933 6.49976 57.7463 6.49976 56.4583V19.9073C6.49976 18.6203 7.54776 17.5723 8.83476 17.5723H66.5958C67.8828 17.5723 68.9308 18.6203 68.9308 19.9073V56.4583ZM73.3008 19.6743C71.5547 17.1093 68.7848 15.5853 68.7848 15.5853C68.7848 15.5853 68.7767 15.6053 68.7728 15.6143C68.1158 15.2793 67.3828 15.0723 66.5958 15.0723H8.83476C6.16876 15.0723 3.99976 17.2413 3.99976 19.9073V56.4583C3.99976 57.1303 4.13976 57.7703 4.38876 58.3533C4.41776 58.5453 4.53076 58.8043 4.77276 59.1633C6.51676 61.7443 9.30776 63.2793 9.30776 63.2793C9.30776 63.2793 9.31376 63.2643 9.31576 63.2603C10.0048 63.6393 10.7848 63.8753 11.6258 63.8753H69.3857C72.0518 63.8753 74.2208 61.7063 74.2208 59.0403V22.4893C74.2208 21.4373 73.8737 20.4693 73.3008 19.6743Z" fill="#534891"/>
</svg>
