<svg width="78" height="79" viewBox="0 0 78 79" fill="none" xmlns="http://www.w3.org/2000/svg">
<path fill-rule="evenodd" clip-rule="evenodd" d="M41.8563 62.8861C41.8563 65.2061 39.9753 67.0881 37.6553 67.0881C35.3353 67.0881 33.4543 65.2061 33.4543 62.8861C33.4543 60.5661 35.3353 58.6851 37.6553 58.6851C39.9753 58.6851 41.8563 60.5661 41.8563 62.8861Z" fill="#A094FC"/>
<path fill-rule="evenodd" clip-rule="evenodd" d="M57.205 67.8255C57.205 69.1135 56.157 70.1605 54.87 70.1605H20.757C19.47 70.1605 18.422 69.1135 18.422 67.8255V6.90851C18.422 5.62051 19.47 4.57251 20.757 4.57251H54.87C56.157 4.57251 57.205 5.62051 57.205 6.90851V67.8255ZM61.658 7.61851C61.665 7.61651 61.684 7.60851 61.684 7.60851C61.684 7.60851 60.238 4.77051 57.713 2.94651C57.701 2.93751 57.692 2.93351 57.681 2.92551C57.651 2.90451 57.62 2.88751 57.59 2.86751C57.379 2.72451 57.202 2.62951 57.058 2.57751C56.417 2.26451 55.708 2.07251 54.948 2.07251H20.835C18.169 2.07251 16 4.24151 16 6.90851V67.8255C16 68.6385 16.214 69.3965 16.571 70.0655C16.567 70.0675 16.552 70.0735 16.552 70.0735C16.552 70.0735 17.827 72.5265 20.056 74.3215C20.907 75.0995 22.027 75.5865 23.272 75.5865H57.386C60.052 75.5865 62.221 73.4175 62.221 70.7515V9.83451C62.221 9.03151 62.005 8.28551 61.658 7.61851Z" fill="#534891"/>
<path fill-rule="evenodd" clip-rule="evenodd" d="M24.3769 53.3287H51.4069V10.6487H24.3769V53.3287ZM52.0238 8.14868H23.6029C22.6079 8.14868 21.7979 8.95868 21.7979 9.95268V54.0247C21.7979 55.0187 22.6079 55.8287 23.6029 55.8287H52.0238C53.0189 55.8287 53.8288 55.0187 53.8288 54.0247V9.95268C53.8288 8.95868 53.0189 8.14868 52.0238 8.14868Z" fill="#534891"/>
</svg>
