<svg width="78" height="79" viewBox="0 0 78 79" fill="none" xmlns="http://www.w3.org/2000/svg">
<path fill-rule="evenodd" clip-rule="evenodd" d="M63.5001 54.6726C58.1601 62.6896 49.0431 67.9846 38.7111 67.9846C22.2971 67.9846 8.94312 54.6306 8.94312 38.2166C8.94312 21.8026 22.2971 8.44963 38.7111 8.44963C50.8421 8.44963 61.2951 15.7476 65.9271 26.1816L68.4581 24.9676C67.6991 23.5266 66.8401 22.1456 65.8801 20.8426C60.1391 11.8946 50.1091 5.94763 38.7111 5.94763C20.9191 5.94763 6.44312 20.4226 6.44312 38.2156C6.44312 45.3486 8.77311 51.9456 12.7091 57.2936C18.4491 66.2476 28.4811 72.1976 39.8851 72.1976C51.3471 72.1976 61.4251 66.1856 67.1501 57.1536L63.5001 54.6726Z" fill="#534891"/>
<path fill-rule="evenodd" clip-rule="evenodd" d="M54.1396 23.9745V54.0115C54.1396 54.2735 54.2437 54.5225 54.4267 54.7055C54.8087 55.0925 55.4266 55.0925 55.8076 54.7055L70.7136 39.6875C71.0956 39.3045 71.0956 38.6815 70.7136 38.2965L55.8076 23.2775C55.6236 23.0925 55.3766 22.9905 55.1176 22.9905C54.5776 22.9905 54.1396 23.4315 54.1396 23.9745Z" fill="#534891"/>
<path fill-rule="evenodd" clip-rule="evenodd" d="M39.843 46.7005C39.366 47.2625 38.772 47.6505 38.07 47.8775V40.7705C38.923 41.0855 39.571 41.4925 39.986 42.0025C40.489 42.6195 40.74 43.3545 40.74 44.2075C40.74 45.1625 40.442 45.9925 39.843 46.7005ZM32.891 32.9115C32.484 32.3325 32.28 31.7045 32.28 31.0305C32.28 30.2915 32.503 29.6165 32.948 29.0055C33.346 28.4605 33.871 28.0655 34.511 27.8045V34.1995C33.804 33.8585 33.258 33.4325 32.891 32.9115ZM43.758 38.4505C42.72 37.2145 40.817 36.1985 38.07 35.3945V28.0905C38.969 28.6705 39.561 29.5665 39.805 30.8195L44.636 30.1895C44.305 28.2795 43.541 26.7555 42.345 25.6165C41.263 24.5865 39.825 23.9435 38.07 23.6465V21.6525H37.513H34.743H34.511V23.5845C32.434 23.8365 30.75 24.6315 29.482 25.9975C28.164 27.4175 27.505 29.1715 27.505 31.2595C27.505 33.3215 28.087 35.0755 29.252 36.5205C30.38 37.9195 32.137 38.9715 34.511 39.6845V47.6275C33.916 47.2935 33.367 46.8085 32.872 46.1555C32.312 45.4175 31.93 44.5385 31.726 43.5195L26.741 44.0545C27.123 46.5625 28.002 48.5045 29.377 49.8795C30.701 51.2035 32.419 52.0015 34.511 52.2985V55.8195H34.743H37.513H38.07V52.1485C40.284 51.7325 42.04 50.8025 43.327 49.3455C44.722 47.7655 45.419 45.8245 45.419 43.5195C45.419 41.4575 44.865 39.7665 43.758 38.4505Z" fill="#A094FC"/>
</svg>
