<svg width="78" height="79" viewBox="0 0 78 79" fill="none" xmlns="http://www.w3.org/2000/svg">
<path fill-rule="evenodd" clip-rule="evenodd" d="M15.01 13.8005C15.037 13.2005 15.466 12.7385 15.973 12.7655L66.137 15.4855C67.149 15.4965 67.983 16.2395 68 17.1455C68.016 18.0505 67.21 18.7755 66.2 18.7635C66.1318 18.7623 66.0638 18.758 65.996 18.7505L15.857 15.1385C15.357 15.1025 14.975 14.5935 15.001 13.9985L15.011 13.8005H15.01Z" fill="#A094FC"/>
<path fill-rule="evenodd" clip-rule="evenodd" d="M49.0801 61.2705L48.4041 61.6375V67.2675H23.0341V61.6375L22.3581 61.2705C13.6581 56.5445 8.04611 47.5365 7.60011 37.6535H63.8401C63.3921 47.5375 57.7801 56.5445 49.0801 61.2705ZM71.5861 38.2725C71.0071 37.6765 67.0311 35.8185 65.4181 35.3255C65.0521 35.2155 64.5611 35.0655 64.1421 35.0635H35.4321C35.2371 33.7135 34.7591 32.8585 34.3231 32.0905C33.8421 31.2435 33.4631 30.5755 33.4631 29.1075C33.4631 27.6385 33.8421 26.9695 34.3231 26.1235C34.8851 25.1335 35.5241 24.0135 35.5241 21.8555C35.5241 19.6995 34.8841 18.5775 34.3241 17.5885C33.8421 16.7425 33.4621 16.0765 33.4621 14.6085C33.4621 13.1425 33.8421 12.4755 34.3231 11.6315C34.8851 10.6435 35.5241 9.52351 35.5241 7.36751C35.5241 6.65251 34.9471 6.07251 34.2361 6.07251C33.5231 6.07251 32.9471 6.65251 32.9471 7.36751C32.9471 8.83351 32.5671 9.50051 32.0871 10.3435C31.5241 11.3335 30.8861 12.4535 30.8861 14.6095C30.8861 16.7645 31.5241 17.8855 32.0861 18.8745C32.5661 19.7195 32.9471 20.3885 32.9471 21.8545C32.9471 23.3245 32.5671 23.9925 32.0871 24.8385C31.5241 25.8285 30.8861 26.9495 30.8861 29.1075C30.8861 31.2645 31.5241 32.3855 32.0861 33.3755C32.3961 33.9225 32.6641 34.3995 32.8161 35.0635H28.8761C28.6821 33.7135 28.2041 32.8585 27.7661 32.0905C27.2861 31.2435 26.9061 30.5755 26.9061 29.1075C26.9061 27.6385 27.2861 26.9695 27.7661 26.1235C28.3291 25.1335 28.9671 24.0135 28.9671 21.8555C28.9671 19.6995 28.3291 18.5775 27.7671 17.5885C27.2851 16.7425 26.9061 16.0765 26.9061 14.6085C26.9061 13.1425 27.2861 12.4755 27.7661 11.6315C28.3291 10.6435 28.9671 9.52351 28.9671 7.36751C28.9678 7.19794 28.935 7.0299 28.8706 6.87301C28.8063 6.71611 28.7116 6.57345 28.5921 6.45317C28.4726 6.33289 28.3305 6.23736 28.174 6.17204C28.0175 6.10673 27.8497 6.0729 27.6801 6.07251C26.9691 6.07251 26.3921 6.65251 26.3921 7.36751C26.3921 8.83351 26.0121 9.50051 25.5311 10.3435C24.9681 11.3335 24.3301 12.4535 24.3301 14.6095C24.3301 16.7645 24.9681 17.8855 25.5301 18.8745C26.0121 19.7195 26.3921 20.3885 26.3921 21.8545C26.3921 23.3245 26.0121 23.9925 25.5311 24.8385C24.9681 25.8285 24.3301 26.9495 24.3301 29.1075C24.3301 31.2645 24.9681 32.3855 25.5301 33.3755C25.8421 33.9225 26.1101 34.3995 26.2601 35.0635H22.3201C22.1261 33.7135 21.6481 32.8585 21.2111 32.0905C20.7301 31.2435 20.3511 30.5755 20.3511 29.1075C20.3511 27.6385 20.7301 26.9695 21.2111 26.1235C21.7741 25.1335 22.4111 24.0135 22.4111 21.8555C22.4111 19.6995 21.7741 18.5775 21.2111 17.5885C20.7301 16.7425 20.3511 16.0765 20.3511 14.6085C20.3511 13.1425 20.7301 12.4755 21.2111 11.6315C21.7741 10.6435 22.4111 9.52351 22.4111 7.36751C22.4111 6.65251 21.8351 6.07251 21.1231 6.07251C20.4111 6.07251 19.8351 6.65251 19.8351 7.36751C19.8351 8.83351 19.4551 9.50051 18.9751 10.3435C18.4121 11.3335 17.7741 12.4535 17.7741 14.6095C17.7741 16.7645 18.4121 17.8855 18.9741 18.8745C19.4561 19.7195 19.8351 20.3885 19.8351 21.8545C19.8351 23.3245 19.4551 23.9925 18.9751 24.8385C18.4121 25.8285 17.7741 26.9495 17.7741 29.1075C17.7741 31.2645 18.4121 32.3855 18.9741 33.3755C19.2861 33.9225 19.5521 34.3995 19.7041 35.0635H6.97611C6.44811 35.0635 5.93111 35.2815 5.56011 35.6635C5.37637 35.852 5.23218 36.0754 5.13601 36.3205C5.03984 36.5655 4.99364 36.8273 5.00011 37.0905C5.25011 47.8855 11.1521 57.8075 20.4571 63.1705V67.6645C20.4571 68.5015 20.9321 69.2225 21.6201 69.5915C23.5701 71.0535 28.1441 72.0725 28.2031 72.0725H54.3621C54.9422 72.0704 55.4978 71.8382 55.9069 71.4268C56.316 71.0155 56.5452 70.4586 56.5441 69.8785V65.3865C65.8541 60.0185 71.7561 50.0895 72.0001 39.2885C72.0061 38.7925 71.9901 38.7045 71.5871 38.2725H71.5861Z" fill="#534891"/>
<path fill-rule="evenodd" clip-rule="evenodd" d="M15.0012 10.7145C14.9875 10.4697 15.0708 10.2293 15.2331 10.0455C15.3954 9.86169 15.6236 9.74923 15.8682 9.73251L65.9932 6.77452C67.0022 6.67852 67.8962 7.22352 67.9922 7.99152C68.0872 8.75952 67.3482 9.46151 66.3402 9.55751C66.2732 9.56351 66.2042 9.56751 66.1382 9.56751L15.9602 11.7635C15.7178 11.7719 15.4819 11.6841 15.3039 11.5193C15.1259 11.3544 15.0204 11.1259 15.0102 10.8835L15.0012 10.7135V10.7145Z" fill="#A094FC"/>
</svg>
