<svg width="78" height="79" viewBox="0 0 78 79" fill="none" xmlns="http://www.w3.org/2000/svg">
<path fill-rule="evenodd" clip-rule="evenodd" d="M29.28 45.2375L34.612 44.6855C34.764 45.8915 35.215 46.8465 35.964 47.5515C36.713 48.2565 37.576 48.6085 38.553 48.6085C39.671 48.6085 40.617 48.1545 41.391 47.2485C42.166 46.3395 42.551 44.9715 42.551 43.1435C42.551 41.4285 42.169 40.1435 41.4 39.2875C40.633 38.4295 39.633 38.0015 38.4 38.0015C36.865 38.0015 35.488 38.6815 34.269 40.0395L29.927 39.4115L32.67 24.8815H46.818V29.8895H36.725L35.887 34.6315C37.081 34.0345 38.3 33.7355 39.544 33.7355C41.918 33.7355 43.93 34.5995 45.581 36.3255C47.231 38.0525 48.056 40.2935 48.056 43.0485C48.056 45.3455 47.389 47.3965 46.056 49.1985C44.241 51.6625 41.721 52.8935 38.496 52.8935C35.92 52.8935 33.818 52.2015 32.193 50.8175C30.568 49.4335 29.597 47.5745 29.28 45.2375Z" fill="#A094FC"/>
<path fill-rule="evenodd" clip-rule="evenodd" d="M38.268 68.1095C21.855 68.1095 8.50001 54.7555 8.50001 38.3405C8.50001 21.9265 21.855 8.57451 38.268 8.57451C54.681 8.57451 68.036 21.9265 68.036 38.3405C68.036 54.7555 54.681 68.1095 38.268 68.1095ZM38.268 6.07251C20.476 6.07251 6.00001 20.5465 6.00001 38.3395C5.99374 45.2058 8.18998 51.893 12.266 57.4185C18.006 66.3725 28.039 72.3225 39.443 72.3225C57.235 72.3225 71.709 57.8465 71.709 40.0545C71.7146 33.1848 69.5166 26.4944 65.438 20.9665C59.697 12.0195 49.666 6.07251 38.268 6.07251Z" fill="#534891"/>
</svg>
