<svg width="78" height="79" viewBox="0 0 78 79" fill="none" xmlns="http://www.w3.org/2000/svg">
<path fill-rule="evenodd" clip-rule="evenodd" d="M29.436 44.5865L34.616 43.9585C34.781 45.2785 35.225 46.2885 35.949 46.9865C36.672 47.6865 37.548 48.0335 38.577 48.0335C39.681 48.0335 40.611 47.6145 41.366 46.7765C42.122 45.9395 42.499 44.8095 42.499 43.3875C42.499 42.0415 42.137 40.9755 41.414 40.1885C40.69 39.4005 39.808 39.0085 38.767 39.0085C38.082 39.0085 37.262 39.1415 36.31 39.4065L36.901 35.0465C38.348 35.0845 39.453 34.7705 40.214 34.1045C40.976 33.4375 41.357 32.5515 41.357 31.4475C41.357 30.5085 41.078 29.7595 40.519 29.1995C39.96 28.6425 39.217 28.3615 38.29 28.3615C37.376 28.3615 36.596 28.6815 35.949 29.3155C35.301 29.9495 34.908 30.8755 34.768 32.0955L29.835 31.2565C30.178 29.5685 30.696 28.2195 31.387 27.2105C32.08 26.2005 33.044 25.4075 34.282 24.8305C35.52 24.2525 36.907 23.9635 38.443 23.9635C41.071 23.9635 43.178 24.8015 44.765 26.4775C46.073 27.8485 46.727 29.3975 46.727 31.1235C46.727 33.5735 45.387 35.5285 42.708 36.9885C44.308 37.3315 45.587 38.1005 46.545 39.2935C47.504 40.4865 47.984 41.9275 47.984 43.6155C47.984 46.0655 47.088 48.1555 45.298 49.8815C43.508 51.6075 41.281 52.4715 38.615 52.4715C36.088 52.4715 33.994 51.7435 32.331 50.2915C30.667 48.8365 29.703 46.9365 29.436 44.5865Z" fill="#A094FC"/>
<path fill-rule="evenodd" clip-rule="evenodd" d="M38.268 68.1095C21.855 68.1095 8.50001 54.7555 8.50001 38.3405C8.50001 21.9265 21.855 8.57451 38.268 8.57451C54.681 8.57451 68.036 21.9265 68.036 38.3405C68.036 54.7555 54.681 68.1095 38.268 68.1095ZM65.438 20.9665C59.697 12.0185 49.666 6.07251 38.268 6.07251C20.476 6.07251 6.00001 20.5465 6.00001 38.3395C5.99374 45.2058 8.18998 51.893 12.266 57.4185C18.006 66.3725 28.039 72.3225 39.443 72.3225C57.235 72.3225 71.709 57.8465 71.709 40.0545C71.7146 33.1848 69.5166 26.4944 65.438 20.9665Z" fill="#534891"/>
</svg>
