<svg width="78" height="79" viewBox="0 0 78 79" fill="none" xmlns="http://www.w3.org/2000/svg">
<path fill-rule="evenodd" clip-rule="evenodd" d="M43.3733 46.0461C43.3733 42.4561 40.4633 39.5461 36.8733 39.5461C33.2833 39.5461 30.3733 42.4561 30.3733 46.0461C30.3733 48.3461 31.5703 50.3621 33.3733 51.5171V57.0461C33.3733 58.9791 34.9403 60.5461 36.8733 60.5461C38.8063 60.5461 40.3733 58.9791 40.3733 57.0461V51.5171C42.1753 50.3621 43.3733 48.3461 43.3733 46.0461Z" fill="#A094FC"/>
<path fill-rule="evenodd" clip-rule="evenodd" d="M57.268 63.5403C57.268 65.9133 55.338 67.8433 52.966 67.8433H19.803C17.43 67.8433 15.5 65.9133 15.5 63.5403V31.3433H57.268V63.5403ZM62.997 32.6803L62.999 32.6763L59.186 29.4073L59.185 29.4083C58.833 29.0593 58.349 28.8433 57.815 28.8433H53.84V21.2393C53.84 11.7733 46.446 4.07227 37.357 4.07227C28.268 4.07227 20.873 11.7733 20.873 21.2393V21.6563H24.873V21.2393C24.873 13.9793 30.474 8.07227 37.357 8.07227C44.24 8.07227 49.84 13.9793 49.84 21.2393V28.8433H14.939C13.87 28.8433 13 29.7123 13 30.7823V63.5403C13 63.6743 13.012 63.8043 13.02 63.9363C13.019 63.9363 13.013 63.9333 13.013 63.9333C13.013 63.9333 13.017 64.0433 13.035 64.2303C13.035 64.2333 13.036 64.2363 13.036 64.2383C13.183 65.7323 14.289 72.3313 22.237 73.4923C22.691 73.5883 23.162 73.6413 23.645 73.6413H56.808C60.559 73.6413 63.611 70.5893 63.611 66.8383V34.0943C63.611 33.5373 63.373 33.0363 62.997 32.6803Z" fill="#534891"/>
</svg>
