<svg width="78" height="79" viewBox="0 0 78 79" fill="none" xmlns="http://www.w3.org/2000/svg">
<path fill-rule="evenodd" clip-rule="evenodd" d="M37.7109 67.9846C21.2969 67.9846 7.94287 54.6306 7.94287 38.2166C7.94287 21.8026 21.2969 8.44963 37.7109 8.44963C54.1239 8.44963 67.4779 21.8026 67.4779 38.2166C67.4779 54.6306 54.1239 67.9846 37.7109 67.9846ZM64.8799 20.8426C59.1389 11.8946 49.1089 5.94763 37.7109 5.94763C19.9189 5.94763 5.44287 20.4226 5.44287 38.2156C5.44287 45.3486 7.77387 51.9456 11.7089 57.2936C17.4489 66.2476 27.4819 72.1976 38.8849 72.1976C56.6769 72.1976 71.1519 57.7226 71.1519 39.9306C71.1519 32.7926 68.8179 26.1926 64.8799 20.8426Z" fill="#534891"/>
<path fill-rule="evenodd" clip-rule="evenodd" d="M45.7489 46.4281C45.7489 48.3091 45.9659 49.5661 46.3999 50.1971C46.7289 50.6841 47.1829 50.9271 47.7619 50.9271C48.3539 50.9271 48.8079 50.6911 49.1239 50.2171C49.5579 49.5721 49.7739 48.3091 49.7739 46.4281C49.7739 44.5471 49.5639 43.2841 49.1429 42.6391C48.8139 42.1661 48.3539 41.9291 47.7619 41.9291C47.1699 41.9291 46.7159 42.1661 46.3999 42.6391C45.9659 43.2841 45.7489 44.5471 45.7489 46.4281ZM41.4279 46.4481C41.4279 43.8561 41.9969 41.9361 43.1339 40.6861C44.2719 39.4361 45.8279 38.8111 47.8009 38.8111C49.7879 38.8111 51.3499 39.4361 52.4879 40.6861C53.6259 41.9361 54.1949 43.8561 54.1949 46.4481C54.1949 49.0531 53.6259 50.9801 52.4879 52.2301C51.3499 53.4791 49.8079 54.1041 47.8599 54.1041C45.8479 54.1041 44.2719 53.4791 43.1339 52.2301C41.9969 50.9801 41.4279 49.0531 41.4279 46.4481ZM31.8919 54.0451H27.4019L44.7379 23.5181H49.1089L31.8919 54.0451ZM26.2329 31.1151C26.2329 32.9961 26.4499 34.2601 26.8839 34.9041C27.2129 35.3781 27.6669 35.6151 28.2459 35.6151C28.8379 35.6151 29.2979 35.3781 29.6269 34.9041C30.0479 34.2601 30.2589 32.9961 30.2589 31.1151C30.2589 29.2341 30.0479 27.9781 29.6269 27.3461C29.2979 26.8601 28.8379 26.6161 28.2459 26.6161C27.6669 26.6161 27.2129 26.8531 26.8839 27.3261C26.4499 27.9711 26.2329 29.2341 26.2329 31.1151ZM21.9119 31.1551C21.9119 28.5631 22.4799 26.6421 23.6189 25.3931C24.7559 24.1431 26.2989 23.5181 28.2459 23.5181C30.2589 23.5181 31.8339 24.1401 32.9719 25.3831C34.1099 26.6261 34.6789 28.5501 34.6789 31.1551C34.6789 33.7461 34.1099 35.6671 32.9719 36.9171C31.8339 38.1671 30.2909 38.7911 28.3449 38.7911C26.3319 38.7911 24.7559 38.1701 23.6189 36.9271C22.4799 35.6831 21.9119 33.7601 21.9119 31.1551Z" fill="#A094FC"/>
</svg>
