<svg width="78" height="79" viewBox="0 0 78 79" fill="none" xmlns="http://www.w3.org/2000/svg">
<path fill-rule="evenodd" clip-rule="evenodd" d="M11.0082 70.6864L12.4082 61.6264L12.4312 61.4954C12.8922 58.8374 14.7062 56.5524 17.2832 55.3814C18.9822 54.6114 22.2632 53.1134 25.3242 51.6654L27.7162 50.5214C28.1482 50.3114 28.5622 50.1094 28.9532 49.9144C30.1842 51.1184 34.1092 54.5164 39.3112 54.5904C39.3692 54.5914 39.4272 54.5914 39.4862 54.5914C43.0622 54.5914 46.4452 52.9964 49.5572 49.8794C50.2322 50.2094 50.9682 50.5624 51.7472 50.9314L54.1572 52.0564C56.9102 53.3294 59.6882 54.5784 61.2072 55.2574C63.7912 56.4124 65.6182 58.6874 66.0962 61.3484L67.5702 70.5254L11.0082 70.6864ZM32.7082 46.7424C33.2942 45.6864 33.6162 44.5084 33.7662 43.3484C35.4402 44.4824 37.3372 45.2004 39.4752 45.2004C41.4392 45.2004 43.1792 44.6474 44.7182 43.7464C44.9832 45.2904 45.5272 46.5744 46.3222 47.5844C46.6352 47.9804 46.9952 48.3124 47.3192 48.5734C44.8032 50.9334 42.1692 52.1164 39.3652 52.0904C35.6312 52.0444 32.5742 49.7914 31.1952 48.5784C32.4262 47.5234 32.7082 46.7424 32.7082 46.7424ZM26.5492 27.2774C26.9342 25.3694 29.0462 22.9224 31.1972 22.4374C34.0272 21.6684 39.9332 23.0974 43.3032 17.8534C45.5772 18.6224 47.9682 16.9454 50.1282 20.6034C50.8862 22.2904 51.0022 24.0634 51.3232 26.1044C51.2952 26.5844 51.6522 27.4214 52.0392 27.7534C51.1762 30.8134 47.3152 42.7004 39.4752 42.7004C31.4862 42.7004 27.0682 28.9894 26.5492 27.2774ZM71.3582 60.6004L71.3282 60.4294C70.6722 56.7124 68.1542 53.5354 64.5922 51.9314C61.9372 50.7354 55.1612 48.5174 51.7472 46.7804C48.5562 45.1574 47.3162 42.6034 47.3172 41.7444C50.0042 39.1304 51.8622 35.5094 53.0372 32.5804C53.1072 32.6464 53.1892 32.6904 53.2942 32.6904C55.7722 32.6904 57.0082 29.0524 57.0082 27.6934C57.0082 26.3914 56.2122 25.3364 55.2102 25.2504C56.0642 23.8974 56.2822 22.5854 56.2822 22.5854C57.0992 18.2084 56.0552 15.3264 54.3062 12.7244C52.4392 9.88636 49.6612 7.88836 46.0442 8.30236C45.1812 6.74136 43.7952 5.78536 42.1252 5.29836C41.2892 5.05536 40.4172 4.97436 39.5462 4.96436C38.4132 4.95036 37.2182 5.01836 36.0392 5.10836C30.4172 5.53636 25.9772 8.44936 23.8482 12.6194C22.2432 15.7544 21.4872 19.4204 22.4182 22.6154C22.7042 23.5964 23.1262 24.4784 23.5782 25.2444C22.5522 25.3004 21.7332 26.3704 21.7332 27.6934C21.7332 29.0524 22.9692 32.6904 25.4462 32.6904C25.6072 32.6904 25.7182 32.6004 25.7982 32.4554C27.0072 35.2534 28.8682 38.7544 31.4332 41.3814C31.4462 43.0664 31.1532 45.5944 29.4262 46.8374C29.2732 46.9484 29.1072 47.0494 28.9302 47.1404C25.4932 48.8994 18.9502 51.8904 16.2972 53.0944C12.9652 54.6064 10.6162 57.5834 10.0172 61.0454L8.13721 73.1834L57.5822 73.0434H73.3642L71.3582 60.6004Z" fill="#534891"/>
<path fill-rule="evenodd" clip-rule="evenodd" d="M47.304 73.0846H58.165V60.5336H47.304V73.0846Z" fill="#A094FC"/>
</svg>
