<svg width="78" height="79" viewBox="0 0 78 79" fill="none" xmlns="http://www.w3.org/2000/svg">
<path fill-rule="evenodd" clip-rule="evenodd" d="M51.4654 34.9672C49.7334 34.9672 48.3274 36.3702 48.3274 38.1052C48.3274 39.8402 49.7334 41.2422 51.4654 41.2422C53.1964 41.2422 54.6024 39.8402 54.6024 38.1052C54.6024 36.3702 53.1964 34.9672 51.4654 34.9672Z" fill="#534891"/>
<path fill-rule="evenodd" clip-rule="evenodd" d="M68.1178 51.2246L60.1428 55.3406C59.7488 55.5446 59.4918 55.9426 59.4688 56.3856L58.8648 67.8496C58.8418 68.2836 58.6818 68.6936 58.4168 69.0016C58.3418 69.0886 58.2588 69.1786 58.1698 69.2676C57.7288 69.7056 57.1188 69.8856 56.4908 69.7616C55.8348 69.6306 55.2898 69.1876 55.0318 68.5766L52.1948 61.8276C52.0598 61.5076 51.7978 61.2576 51.4718 61.1386C51.1428 61.0176 50.7818 61.0406 50.4728 61.1996C50.3338 61.2696 36.3148 68.2576 22.1948 61.3746C21.8828 61.2226 21.5208 61.2066 21.1968 61.3316C20.8728 61.4566 20.6158 61.7116 20.4868 62.0336L17.7088 68.9766C17.5288 69.4286 17.1648 69.7876 16.6508 69.9866C16.0768 70.2076 15.4508 70.1426 14.9348 69.8076C14.4178 69.4736 14.1038 68.9286 14.0738 68.3136L13.4078 55.1246C13.3948 54.8716 13.3038 54.6266 13.1498 54.4256C12.7458 53.8986 3.47678 41.4516 17.1968 29.0176L17.4298 28.9516C18.7038 30.1106 20.1978 31.0296 21.8348 31.6496C20.6628 32.3406 19.4808 33.1256 18.2998 34.0396C17.7538 34.4626 17.6538 35.2466 18.0758 35.7936C18.3228 36.1116 18.6928 36.2786 19.0658 36.2786C19.3328 36.2786 19.6018 36.1926 19.8298 36.0166C30.0638 28.0986 40.7208 29.8826 40.8778 29.9086C41.5618 30.0356 42.2078 29.5836 42.3328 28.9056C42.4578 28.2266 42.0088 27.5756 41.3298 27.4496C41.1668 27.4196 39.7358 27.1726 37.4838 27.1996C38.5088 25.8816 39.3068 24.3796 39.7988 22.7426L42.6428 23.5746C44.3868 24.0846 46.2918 23.7576 47.7388 22.6996C48.9488 21.8136 51.2298 20.1446 52.8238 17.5786C53.7288 19.0876 54.7648 21.8646 53.9008 25.9826C53.6918 26.9856 54.0318 28.0376 54.9128 29.1116L61.3088 36.9086C61.7828 37.4866 62.3468 37.9776 62.9818 38.3686L68.1178 41.5226V51.2246ZM15.4178 18.8036C15.4178 12.9036 20.2178 8.10257 26.1178 8.10257C32.0188 8.10257 36.8188 12.9036 36.8188 18.8036C36.8188 24.7036 32.0188 29.5046 26.1178 29.5046C20.2178 29.5046 15.4178 24.7036 15.4178 18.8036ZM73.0218 40.7586L67.2908 37.2386C66.8918 36.9936 66.5388 36.6846 66.2418 36.3226L59.8468 28.5256C59.4268 28.0156 59.3138 27.6586 59.3478 27.4956C61.0238 19.5036 53.7958 14.5066 53.6068 14.3406C53.3538 14.1186 53.0248 14.0156 52.6958 14.0376C52.5688 14.0286 52.4408 14.0316 52.3148 14.0606C51.9208 14.1536 51.5958 14.4326 51.4428 14.8076C50.2398 17.7716 47.6528 19.6646 46.2628 20.6816C45.4388 21.2846 44.3498 21.4676 43.3458 21.1756L40.2978 20.2836C40.3498 19.7966 40.3808 19.3046 40.3808 18.8046C40.3808 11.2326 34.2208 5.07257 26.6488 5.07257C19.0768 5.07257 12.9168 11.2326 12.9168 18.8046C12.9168 21.8896 13.9518 24.7306 15.6768 27.0256C13.4098 29.0576 11.7018 31.1016 10.4388 33.1146C8.90077 32.2066 6.86577 30.7056 6.41877 29.5306C6.17477 28.8846 5.45077 28.5606 4.80677 28.8056C4.16077 29.0506 3.83677 29.7726 4.08177 30.4176C4.89377 32.5546 7.82378 34.4776 9.22678 35.3016C4.48678 45.1596 9.70977 53.8126 10.9288 55.6106L11.5758 68.4396C11.6478 69.8646 12.3758 71.1276 13.5738 71.9056C13.6238 71.9386 13.6938 71.9756 13.7738 72.0166C14.1188 72.2166 14.4808 72.3686 14.8568 72.4666C16.2788 72.9956 18.3528 73.6146 18.9438 73.6146C19.4958 73.6146 20.0588 73.5096 20.6128 73.2956C21.7118 72.8706 22.5928 71.9986 23.0308 70.9056L25.2748 65.2956C25.7758 65.4586 26.2758 65.6206 26.7728 65.7576C36.8538 69.6096 46.2878 67.5116 51.1658 65.8306L52.7268 69.5456C53.3068 70.9246 54.5328 71.9216 56.0048 72.2136C56.1428 72.2416 56.2818 72.2556 56.4208 72.2706C56.4298 72.2726 56.4378 72.2756 56.4478 72.2776C57.8858 72.5626 61.9038 73.0596 62.9298 72.0426C63.0668 71.9076 63.1928 71.7696 63.3098 71.6336C63.9358 70.9076 64.3088 69.9656 64.3608 68.9816L64.9278 58.2336L72.9408 54.0976C73.3568 53.8826 73.6178 53.4536 73.6178 52.9866V41.8236C73.6178 41.3896 73.3918 40.9856 73.0218 40.7586Z" fill="#534891"/>
<path fill-rule="evenodd" clip-rule="evenodd" d="M27.8458 22.4609C27.6268 22.7189 27.3538 22.8969 27.0318 23.0019V19.7379C27.4238 19.8829 27.7208 20.0689 27.9108 20.3039C28.1418 20.5869 28.2578 20.9249 28.2578 21.3159C28.2578 21.7549 28.1208 22.1359 27.8458 22.4609ZM24.6538 16.1289C24.4668 15.8629 24.3728 15.5749 24.3728 15.2659C24.3728 14.9259 24.4748 14.6169 24.6798 14.3359C24.8628 14.0859 25.1038 13.9039 25.3978 13.7839V16.7209C25.0728 16.5649 24.8218 16.3689 24.6538 16.1289ZM29.6438 18.6729C29.1668 18.1059 28.2928 17.6389 27.0318 17.2699V13.9159C27.4448 14.1819 27.7158 14.5939 27.8278 15.1689L30.0468 14.8789C29.8948 14.0029 29.5438 13.3029 28.9948 12.7789C28.4978 12.3069 27.8378 12.0109 27.0318 11.8749V10.9599H26.7758H25.5048H25.3978V11.8469C24.4438 11.9619 23.6708 12.3269 23.0878 12.9549C22.4828 13.6069 22.1808 14.4119 22.1808 15.3709C22.1808 16.3179 22.4478 17.1239 22.9828 17.7869C23.5008 18.4289 24.3068 18.9119 25.3978 19.2399V22.8869C25.1238 22.7329 24.8728 22.5109 24.6448 22.2109C24.3878 21.8719 24.2118 21.4679 24.1188 21.0009L21.8298 21.2459C22.0058 22.3979 22.4088 23.2899 23.0398 23.9209C23.6478 24.5289 24.4368 24.8949 25.3978 25.0319V26.6479H25.5048H26.7758H27.0318V24.9619C28.0488 24.7719 28.8548 24.3449 29.4458 23.6749C30.0858 22.9509 30.4068 22.0589 30.4068 21.0009C30.4068 20.0539 30.1518 19.2769 29.6438 18.6729Z" fill="#A094FC"/>
</svg>
