<svg width="78" height="79" viewBox="0 0 78 79" fill="none" xmlns="http://www.w3.org/2000/svg">
<path fill-rule="evenodd" clip-rule="evenodd" d="M35.581 29.2846C35.581 30.7545 34.9971 32.1643 33.9576 33.2037C32.9182 34.2431 31.5085 34.8271 30.0385 34.8271C28.5685 34.8271 27.1588 34.2431 26.1194 33.2037C25.0799 32.1643 24.496 30.7545 24.496 29.2846C24.496 27.8146 25.0799 26.4048 26.1194 25.3654C27.1588 24.326 28.5685 23.7421 30.0385 23.7421C31.5085 23.7421 32.9182 24.326 33.9576 25.3654C34.9971 26.4048 35.581 27.8146 35.581 29.2846ZM29.406 49.6446C29.1607 51.0846 28.3534 52.3681 27.1617 53.2129C25.97 54.0576 24.4915 54.3944 23.0515 54.1491C21.6115 53.9037 20.328 53.0964 19.4832 51.9047C18.6384 50.713 18.3017 49.2346 18.547 47.7946C18.7923 46.3546 19.5996 45.071 20.7913 44.2263C21.983 43.3815 23.4615 43.0447 24.9015 43.2901C26.3415 43.5354 27.6251 44.3427 28.4698 45.5344C29.3146 46.7261 29.6513 48.2046 29.406 49.6446ZM47.9 40.4576C48.2616 41.084 48.4963 41.7755 48.5906 42.4926C48.685 43.2097 48.6372 43.9383 48.4499 44.6369C48.2627 45.3356 47.9397 45.9905 47.4993 46.5643C47.059 47.138 46.5099 47.6195 45.8835 47.9811C45.2571 48.3427 44.5656 48.5773 43.8485 48.6717C43.1314 48.766 42.4027 48.7182 41.7041 48.531C40.2932 48.1528 39.0903 47.2296 38.36 45.9646C37.6297 44.6995 37.4319 43.1961 37.8101 41.7852C38.1883 40.3743 39.1114 39.1713 40.3765 38.4411C41.6416 37.7108 43.145 37.513 44.5559 37.8911C45.9668 38.2693 47.1697 39.1925 47.9 40.4576Z" fill="#A094FC"/>
<path fill-rule="evenodd" clip-rule="evenodd" d="M63.9339 50.2156C63.6826 50.5423 63.369 50.816 63.0113 51.0209C62.6536 51.2259 62.2589 51.358 61.8499 51.4096C61.6581 51.4315 61.4646 51.4355 61.2719 51.4216C61.2139 51.4176 61.1589 51.4096 61.1019 51.4026C60.9671 51.3879 60.8335 51.3638 60.7019 51.3306C60.6459 51.3176 60.5899 51.3046 60.5369 51.2876C60.3727 51.2386 60.2128 51.176 60.0589 51.1006C59.6819 50.9142 59.346 50.654 59.0712 50.3356C58.7964 50.0172 58.5882 49.6469 58.4589 49.2466C58.3997 49.0662 58.3568 48.8807 58.3309 48.6926C58.2382 47.9765 58.1269 47.2629 57.9969 46.5526C57.1925 42.0404 55.625 37.6982 53.3619 33.7126C51.0859 29.7112 48.1281 26.1385 44.6219 23.1556C43.8577 22.5054 43.068 21.8856 42.2549 21.2976C41.6092 20.8318 40.9489 20.3866 40.2749 19.9626C40.2389 19.9396 40.2019 19.9136 40.1629 19.8906C39.5143 19.4856 38.8534 19.1007 38.1809 18.7366L37.9729 18.6266C36.6683 17.9307 35.321 17.3181 33.9389 16.7926C33.8369 16.7546 33.7339 16.7146 33.6309 16.6776C32.9764 16.4359 32.314 16.2158 31.6449 16.0176C31.5719 15.9946 31.4969 15.9776 31.4239 15.9546C30.8129 15.7795 30.1966 15.6234 29.5759 15.4866C29.4789 15.4666 29.3829 15.4416 29.2879 15.4206C27.8795 15.1269 26.4513 14.938 25.0149 14.8556C24.3594 14.8199 23.7316 14.5794 23.2199 14.168C22.7083 13.7567 22.3386 13.1952 22.1629 12.5626C22.1159 12.4102 22.0824 12.2539 22.0629 12.0956C22.0368 11.9175 22.0278 11.7374 22.0359 11.5576C22.0546 11.1433 22.1554 10.7369 22.3325 10.3619C22.5097 9.98696 22.7597 9.651 23.0679 9.37358C23.3738 9.09738 23.7316 8.88484 24.1205 8.74835C24.5094 8.61186 24.9215 8.55415 25.3329 8.57858C46.8859 9.67258 62.2049 29.4286 64.5649 47.8956C64.6185 48.3048 64.5903 48.7206 64.482 49.1188C64.3737 49.5171 64.1874 49.8899 63.9339 50.2156ZM9.92795 62.6896L22.9479 16.8936C23.5479 17.1536 24.1979 17.3156 24.8879 17.3506C38.2059 18.0276 53.4279 30.0546 55.8509 49.0076C55.9289 49.6156 56.1139 50.1856 56.3679 50.7136L9.92795 62.6896ZM48.4139 14.9096C45.9599 12.9826 37.0899 6.67358 25.4629 6.08258C24.7234 6.04097 23.9829 6.14636 23.2843 6.39267C22.5857 6.63898 21.9429 7.02132 21.3929 7.51758C20.8401 8.01478 20.3915 8.61676 20.0731 9.28863C19.7547 9.9605 19.5728 10.6889 19.5379 11.4316C19.4675 12.8495 19.9367 14.2415 20.8509 15.3276L7.03995 63.8966C6.94495 64.2466 6.94195 64.6356 7.30795 65.0686L10.5039 68.6666C10.6565 68.8385 10.8536 68.965 11.0734 69.032C11.2933 69.0991 11.5274 69.1041 11.7499 69.0466L61.1079 56.3186C61.1229 56.3146 61.1329 56.3026 61.1479 56.2986C62.1129 57.0696 63.8009 57.6856 65.3569 57.4886C66.0924 57.3965 66.8024 57.1595 67.4457 56.7913C68.089 56.4231 68.653 55.9311 69.1049 55.3436C69.5603 54.7586 69.895 54.089 70.0898 53.3738C70.2847 52.6585 70.3357 51.9117 70.2399 51.1766C68.6339 38.6126 60.2729 24.0146 48.4129 14.9096H48.4139Z" fill="#534891"/>
</svg>
