<svg width="78" height="79" viewBox="0 0 78 79" fill="none" xmlns="http://www.w3.org/2000/svg">
<path fill-rule="evenodd" clip-rule="evenodd" d="M14.4321 12.5816C12.9671 21.8516 15.4101 26.7256 19.0061 29.1996C27.3601 34.9486 37.5271 24.1596 31.2931 16.1626C28.6091 12.7186 23.6011 10.5686 14.4331 12.5816" fill="#A094FC"/>
<path fill-rule="evenodd" clip-rule="evenodd" d="M19.3611 49.9556H56.0581V45.3976H19.3611V49.9556ZM51.6581 52.7856L50.0051 69.9056H25.4151L23.7301 52.4556H42.9291L51.6931 52.5116L51.6581 52.7856ZM43.4801 12.0346C45.5251 9.06255 49.0441 7.56855 53.9721 7.56855C54.9631 7.56855 56.0281 7.64655 57.1321 7.76655C54.9341 9.42455 49.1571 14.1446 44.0861 21.4126C42.0451 19.0616 41.1361 15.4396 43.4801 12.0346ZM58.3641 9.96756C59.1391 15.8756 57.9221 20.1296 54.7191 22.6266C51.7411 24.9486 48.4221 24.5706 45.9881 23.0416C50.6991 16.2206 56.1061 11.6976 58.3641 9.96756ZM57.2181 42.8976H38.0811C38.9591 36.0726 41.5131 30.1226 44.5721 25.2016C45.2181 25.5916 45.9781 25.9286 46.8081 26.2016C47.2851 26.3726 47.7741 26.5136 48.2771 26.6126C49.7711 26.9636 51.3101 27.1396 52.5391 27.1396C54.5531 27.1396 56.6661 26.4916 58.6651 24.9336C63.2031 21.3966 64.5601 15.3016 62.6981 6.81955C62.6445 6.57373 62.5178 6.34986 62.3347 6.17729C62.1516 6.00473 61.9206 5.89153 61.6721 5.85255C60.4355 5.65161 59.1945 5.47857 57.9501 5.33355C50.0781 4.35555 44.5231 6.12755 41.4311 10.6166C38.1411 15.3986 39.6551 20.4816 42.6721 23.5486C39.8861 27.9546 37.4601 33.1596 36.1911 39.0826C34.9081 34.4116 32.9821 30.5816 30.8841 27.5446C30.3271 28.1976 29.6121 28.7966 28.9081 29.2856C31.6901 33.3826 33.5411 37.9406 34.4681 42.8976H18.1111C17.4211 42.8976 16.8611 43.4576 16.8611 44.1476V51.2056C16.8611 51.8956 17.4211 52.4556 18.1111 52.4556H21.2191L23.0351 71.2756C23.0731 71.6646 23.2971 71.9796 23.6021 72.1816C23.9161 72.4876 24.8631 73.0716 27.5281 73.0716H54.3881C55.0321 73.0716 55.5711 72.5826 55.6321 71.9416L57.4611 53.0046L60.5561 53.1216C61.2471 53.1216 61.8061 52.5616 61.8061 51.8716V44.8136C61.8061 44.3506 61.5431 43.9626 61.1681 43.7466C60.2451 43.3146 58.6921 42.8976 57.2181 42.8976Z" fill="#534891"/>
</svg>
