<svg width="78" height="79" viewBox="0 0 78 79" fill="none" xmlns="http://www.w3.org/2000/svg">
<path fill-rule="evenodd" clip-rule="evenodd" d="M38.5966 47.2288L27.8236 54.7258C27.4866 54.9598 27.0426 54.6378 27.1616 54.2448L30.9626 41.6828C31.0146 41.5088 30.9536 41.3218 30.8096 41.2118L20.3506 33.2828C20.0236 33.0348 20.1936 32.5138 20.6036 32.5058L33.7256 32.2378C33.9066 32.2338 34.0666 32.1188 34.1256 31.9478L38.4346 19.5498C38.5696 19.1628 39.1176 19.1628 39.2516 19.5498L43.5616 31.9478C43.6206 32.1188 43.7806 32.2338 43.9616 32.2378L57.0836 32.5058C57.4936 32.5138 57.6626 33.0348 57.3356 33.2828L46.8766 41.2118C46.7336 41.3218 46.6716 41.5088 46.7246 41.6828L50.5256 54.2448C50.6446 54.6378 50.2006 54.9598 49.8646 54.7258L39.0906 47.2288C38.9426 47.1248 38.7446 47.1248 38.5966 47.2288Z" fill="#A094FC"/>
<path fill-rule="evenodd" clip-rule="evenodd" d="M38.7109 67.9847C22.2969 67.9847 8.9419 54.6307 8.9419 38.2167C8.9419 21.8027 22.2969 8.44969 38.7109 8.44969C55.1239 8.44969 68.4779 21.8027 68.4779 38.2167C68.4779 54.6307 55.1239 67.9847 38.7109 67.9847ZM65.8799 20.8427C60.1389 11.8947 50.1079 5.94769 38.7109 5.94769C20.9189 5.94769 6.44189 20.4227 6.44189 38.2157C6.44189 45.3487 8.7739 51.9457 12.7089 57.2937C18.4489 66.2477 28.4819 72.1977 39.8849 72.1977C57.6769 72.1977 72.1509 57.7227 72.1509 39.9307C72.1509 32.7927 69.8169 26.1927 65.8799 20.8427Z" fill="#534891"/>
</svg>
