<svg width="78" height="79" viewBox="0 0 78 79" fill="none" xmlns="http://www.w3.org/2000/svg">
<path fill-rule="evenodd" clip-rule="evenodd" d="M30.4229 24.4246L27.7039 25.6926L37.0019 45.6306L38.2949 45.0276H54.2129V42.0276H38.6309L30.4229 24.4246Z" fill="#534891"/>
<path fill-rule="evenodd" clip-rule="evenodd" d="M38.8218 68.7179C24.3338 68.7179 12.5468 56.9309 12.5468 42.4429C12.5468 27.9539 24.3338 16.1669 38.8218 16.1669C53.3098 16.1669 65.0968 27.9539 65.0968 42.4429C65.0968 56.9309 53.3098 68.7179 38.8218 68.7179ZM63.0038 26.9479C61.2048 24.1449 58.9258 21.6829 56.2968 19.6549L57.8908 16.7779L60.9528 18.4749L63.3768 14.1019L52.8818 8.28387L50.4568 12.6569L53.5178 14.3539L52.0788 16.9509C48.0968 14.8619 43.5758 13.6669 38.7758 13.6669C22.9088 13.6669 9.99976 26.5759 9.99976 42.4429C9.99976 48.8049 12.0798 54.6889 15.5898 59.4589C20.7098 67.4369 29.6538 72.7389 39.8178 72.7389C55.6838 72.7389 68.5928 59.8309 68.5928 43.9639C68.5928 37.6019 66.5128 31.7179 63.0038 26.9479Z" fill="#534891"/>
<path fill-rule="evenodd" clip-rule="evenodd" d="M32.7046 4.07239V9.07239H36.2046V13.7854C37.8716 13.6384 39.5436 13.6264 41.2046 13.7574V9.07239H44.7046V4.07239H32.7046ZM38.7124 38.0275C35.9504 38.0275 33.7124 40.2665 33.7124 43.0275C33.7124 45.7885 35.9504 48.0275 38.7124 48.0275C41.4734 48.0275 43.7124 45.7885 43.7124 43.0275C43.7124 40.2665 41.4734 38.0275 38.7124 38.0275Z" fill="#A094FC"/>
</svg>
