<svg width="78" height="79" viewBox="0 0 78 79" fill="none" xmlns="http://www.w3.org/2000/svg">
<path fill-rule="evenodd" clip-rule="evenodd" d="M9.16749 62.1344C9.16749 60.1404 10.7955 58.5244 12.8035 58.5244C14.8115 58.5244 16.4395 60.1404 16.4395 62.1344C16.4395 64.1284 14.8115 65.7444 12.8035 65.7444C10.7955 65.7444 9.16749 64.1284 9.16749 62.1344ZM6.00049 69.2244H19.5055V32.6194H6.00049V69.2244Z" fill="#A094FC"/>
<path fill-rule="evenodd" clip-rule="evenodd" d="M65.5961 43.4971L56.8311 63.9581C56.1311 65.6381 54.4901 66.7241 52.6501 66.7241H23.2631H22.0051V33.1711C22.0051 31.9511 22.4711 30.8131 23.3201 29.9671L41.5491 11.7331L41.6611 11.8441L43.7351 13.8991C44.2991 14.4631 44.6271 15.2411 44.6401 16.0401L42.5501 34.4211H61.3481C65.0051 34.4211 65.8981 35.3141 65.8981 38.9721C65.8981 40.6901 65.7301 43.0831 65.5961 43.4971ZM65.1061 31.9211H61.3481H49.1111L50.8091 17.1281L50.8931 16.2051L50.8991 16.0921C50.8991 14.6161 50.3011 13.1721 49.2561 12.1271L46.7851 9.68008C46.3961 9.29408 45.8921 9.09908 45.3821 9.08008V9.07208H41.5921V9.07808C41.0371 9.06708 40.4801 9.26708 40.0601 9.68608L21.5531 28.1971C20.2321 29.5161 19.5051 31.2831 19.5051 33.1711V69.2241H24.5871H52.6501H56.4081C59.2591 69.2241 61.8051 67.5351 62.8921 64.9311L71.6661 44.4451C72.1271 43.2691 72.1561 39.0141 72.1561 38.9721C72.1561 33.9641 70.1131 31.9211 65.1061 31.9211Z" fill="#534891"/>
</svg>
