<svg width="78" height="79" viewBox="0 0 78 79" fill="none" xmlns="http://www.w3.org/2000/svg">
<path fill-rule="evenodd" clip-rule="evenodd" d="M33.6217 46.1126L25.7987 40.6966C25.6607 40.6006 25.4707 40.6356 25.3747 40.7736L23.4447 43.5626C23.3497 43.7016 23.3837 43.8906 23.5217 43.9866L34.6567 51.6946C34.7957 51.7896 34.9847 51.7556 35.0807 51.6166L51.5557 27.8196C51.6507 27.6806 51.6167 27.4906 51.4777 27.3956L48.6677 25.4506C48.5287 25.3556 48.3397 25.3896 48.2437 25.5286L34.0457 46.0356C33.9497 46.1746 33.7597 46.2086 33.6217 46.1126Z" fill="#A094FC"/>
<path fill-rule="evenodd" clip-rule="evenodd" d="M37.7109 67.9847C21.2969 67.9847 7.94287 54.6307 7.94287 38.2167C7.94287 21.8027 21.2969 8.44969 37.7109 8.44969C54.1239 8.44969 67.4779 21.8027 67.4779 38.2167C67.4779 54.6307 54.1239 67.9847 37.7109 67.9847ZM64.8799 20.8427C59.1389 11.8947 49.1089 5.94769 37.7109 5.94769C19.9189 5.94769 5.44287 20.4227 5.44287 38.2157C5.44287 45.3487 7.77387 51.9457 11.7089 57.2937C17.4489 66.2477 27.4819 72.1977 38.8849 72.1977C56.6769 72.1977 71.1519 57.7227 71.1519 39.9307C71.1519 32.7927 68.8179 26.1927 64.8799 20.8427Z" fill="#534891"/>
</svg>
