<svg width="78" height="79" viewBox="0 0 78 79" fill="none" xmlns="http://www.w3.org/2000/svg">
<path fill-rule="evenodd" clip-rule="evenodd" d="M18.521 61.2306C18.3123 61.4493 18.0619 61.6241 17.7846 61.7447C17.5073 61.8653 17.2088 61.9293 16.9064 61.9329C16.6041 61.9365 16.3041 61.8796 16.024 61.7656C15.744 61.6516 15.4895 61.4827 15.2757 61.269C15.0618 61.0552 14.8928 60.8009 14.7786 60.5209C14.6644 60.241 14.6073 59.941 14.6107 59.6386C14.6141 59.3363 14.6779 59.0377 14.7983 58.7603C14.9188 58.483 15.0934 58.2325 15.312 58.0236C15.7394 57.6083 16.3131 57.3777 16.909 57.3819C17.505 57.386 18.0754 57.6244 18.497 58.0456C18.9186 58.4669 19.1576 59.037 19.1623 59.633C19.1669 60.229 18.937 60.8028 18.522 61.2306H18.521ZM18.152 55.0216C17.3435 54.8056 16.4925 54.8058 15.6841 55.0222C14.8758 55.2386 14.1384 55.6636 13.546 56.2546C12.9553 56.8473 12.5306 57.5846 12.3142 58.3929C12.0978 59.2012 12.0974 60.0521 12.313 60.8606C12.5861 61.8722 13.1841 62.766 14.0149 63.4045C14.8456 64.0431 15.8632 64.3909 16.911 64.3946C18.1773 64.3944 19.392 63.8924 20.289 62.9986C20.8795 62.4058 21.3043 61.6685 21.5208 60.8603C21.7373 60.0521 21.7381 59.2012 21.523 58.3926C21.3056 57.5845 20.8797 56.8477 20.2879 56.2561C19.6961 55.6645 18.9592 55.2388 18.151 55.0216" fill="#534891"/>
<path fill-rule="evenodd" clip-rule="evenodd" d="M22.797 65.5056C19.555 68.7456 14.28 68.7456 11.039 65.5056C7.79702 62.2636 7.79702 56.9886 11.039 53.7466C11.439 53.3476 11.88 52.9876 12.351 52.6776C12.702 52.4456 12.913 52.0536 12.913 51.6336V24.7296C12.913 24.3036 12.695 23.9066 12.337 23.6766C11.8286 23.3537 11.3569 22.9765 10.93 22.5516C7.89002 19.5096 7.70102 14.6786 10.367 11.4166L10.424 15.8186C10.429 16.1886 10.597 16.5366 10.882 16.7706L15.916 20.8876C16.1324 21.0652 16.4023 21.1648 16.6821 21.1705C16.962 21.1761 17.2357 21.0874 17.459 20.9186L23.006 16.7436C23.312 16.5136 23.496 16.1566 23.504 15.7746L23.594 11.8676C25.894 15.1106 25.592 19.6476 22.687 22.5526C22.298 22.9426 21.867 23.2946 21.404 23.6026C21.2327 23.7167 21.0921 23.8713 20.9948 24.0527C20.8975 24.2341 20.8464 24.4367 20.846 24.6426V51.5886C20.846 52.0136 21.062 52.4086 21.419 52.6396C21.922 52.9636 22.385 53.3366 22.797 53.7476C23.5716 54.518 24.1856 55.4343 24.6036 56.4437C25.0215 57.453 25.2351 58.5352 25.232 59.6276C25.2349 60.7197 25.0211 61.8015 24.6032 62.8104C24.1852 63.8194 23.5713 64.7354 22.797 65.5056ZM25.853 25.2326C26.245 24.9356 26.616 24.6126 26.963 24.2656C31.178 20.0486 31.178 13.1886 26.963 8.97059C26.5555 8.5692 26.1168 8.20071 25.651 7.86859C25.311 7.62259 23.041 7.51859 22.311 7.65559C22.1561 7.6993 22.0042 7.75274 21.856 7.81559C21.6518 7.91669 21.4792 8.07167 21.3567 8.26378C21.2342 8.45589 21.1665 8.67782 21.161 8.90559L21.018 15.1106L18.079 17.3226L15.422 15.1506L15.339 8.59359C15.336 8.36938 15.2728 8.15009 15.156 7.95869C15.0392 7.76728 14.873 7.61079 14.675 7.50559C14.362 7.33859 12.753 7.24159 11.879 7.32559C11.435 7.38159 11.175 7.44359 10.897 7.61759C10.27 8.02859 9.68702 8.50259 9.16202 9.02759C4.94502 13.2426 4.94502 20.1036 9.16202 24.3196C9.54502 24.7026 9.96402 25.0606 10.412 25.3896V50.9866C10.0095 51.2908 9.62853 51.6226 9.27202 51.9796C5.05402 56.1956 5.05402 63.0566 9.27202 67.2736C10.2754 68.2779 11.4673 69.0743 12.7792 69.6169C14.0912 70.1595 15.4973 70.4377 16.917 70.4356C17.004 70.4356 18.005 70.4116 19.92 70.3636C22.6161 70.2592 25.1719 69.1351 27.071 67.2186C28.0787 66.2171 28.8777 65.0256 29.4216 63.7131C29.9656 62.4007 30.2438 60.9933 30.24 59.5726C30.24 56.6856 29.115 53.9696 27.073 51.9276C26.6937 51.548 26.2862 51.1977 25.854 50.8796V25.2326H25.853ZM56.079 18.3296H44.872C44.7721 18.3291 44.6764 18.2892 44.6057 18.2187C44.5349 18.1481 44.4948 18.0525 44.494 17.9526L44.457 10.0626C44.457 9.96267 44.4964 9.86677 44.5665 9.79565C44.6367 9.72452 44.7321 9.68391 44.832 9.68259H44.852L51.738 10.0046C54.337 10.1266 56.791 10.8216 58.836 12.0166C63.414 14.6886 65.589 18.7236 66.574 21.3696C61.176 18.5676 56.347 18.3396 56.079 18.3296ZM53.732 66.9526C53.44 67.2426 53.097 67.4526 52.732 67.6126C52.679 67.6396 52.629 67.6716 52.572 67.6926C52.562 67.6966 52.555 67.7026 52.545 67.7076L52.539 67.7036C52.139 67.8556 51.709 67.9386 51.269 67.9406C50.8163 67.9364 50.369 67.8412 49.9538 67.6606C49.5385 67.4801 49.1639 67.2179 48.852 66.8896C48.5375 66.5632 48.2918 66.1768 48.1296 65.7535C47.9675 65.3302 47.8921 64.8786 47.908 64.4256L49.128 21.0056L53.74 21.0046L54.739 64.5176C54.7426 64.9702 54.6554 65.4189 54.4824 65.8372C54.3094 66.2555 54.0543 66.6348 53.732 66.9526ZM37.959 18.2596H41.411V9.57259H37.959V18.2596ZM63.146 10.0326C60.754 8.63659 57.905 7.82259 54.905 7.68259L44.968 7.18659C44.341 7.16474 43.7235 7.34531 43.207 7.70159C42.7882 7.29759 42.229 7.07176 41.647 7.07159H35.46V20.7596H41.649C42.209 20.7596 42.717 20.5476 43.112 20.2096C43.6125 20.6079 44.2324 20.8263 44.872 20.8296H46.652L45.43 64.3496C45.4028 65.1343 45.5335 65.9165 45.8146 66.6497C46.0956 67.3829 46.5212 68.0521 47.066 68.6176C47.6135 69.1921 48.2713 69.6502 49 69.9646C49.744 70.3366 51.456 70.5536 54.138 70.6146C54.9095 70.617 55.6739 70.4671 56.3873 70.1733C57.1007 69.8795 57.749 69.4476 58.295 68.9026C58.8563 68.3486 59.3002 67.6872 59.6001 66.9578C59.9001 66.2285 60.0501 65.4462 60.041 64.6576L59.011 21.2846C60.831 21.6836 65.261 23.5286 67.316 24.6736C67.931 24.9526 68.589 25.0306 69.172 25.0266C70.396 24.9876 71.39 24.8706 71.925 24.4956C72.2097 24.2848 72.4247 23.9934 72.542 23.6591C72.6593 23.3249 72.6736 22.9631 72.583 22.6206C71.928 20.1096 69.698 13.8586 63.145 10.0326H63.146Z" fill="#534891"/>
<path fill-rule="evenodd" clip-rule="evenodd" d="M51.2701 67.9606C51.7101 67.9586 52.1401 67.8756 52.5401 67.7236L52.5451 67.7276L52.5731 67.7136C52.6281 67.6906 52.6791 67.6576 52.7331 67.6336C53.0971 67.4716 53.4391 67.2636 53.7311 66.9736C54.0536 66.6557 54.3089 66.2762 54.4819 65.8578C54.6549 65.4393 54.742 64.9904 54.7381 64.5376L54.3401 47.1796H48.3931L47.9081 64.4456C47.8921 64.8985 47.9674 65.3499 48.1296 65.7731C48.2918 66.1962 48.5375 66.5824 48.8521 66.9086C49.164 67.2369 49.5386 67.4992 49.9538 67.6799C50.369 67.8606 50.8163 67.9561 51.2691 67.9606" fill="#A094FC"/>
</svg>
