<svg width="78" height="79" viewBox="0 0 78 79" fill="none" xmlns="http://www.w3.org/2000/svg">
<path fill-rule="evenodd" clip-rule="evenodd" d="M38 27.0726H64V24.0726H38V27.0726Z" fill="#A094FC"/>
<path fill-rule="evenodd" clip-rule="evenodd" d="M46 34.0726H63V31.0726H46V34.0726Z" fill="#A094FC"/>
<path fill-rule="evenodd" clip-rule="evenodd" d="M67.4563 54.8681H63.9245C63.3144 51.1037 60.069 48.2196 56.1566 48.2196C52.2473 48.2196 49.0008 51.1037 48.3907 54.8681H33.0436V19.8894C33.0436 19.2123 33.5908 18.6608 34.2638 18.6608H66.4147C66.9893 18.6608 67.4563 19.1316 67.4563 19.7086V54.8681ZM59.7411 60.1022C59.5909 60.2411 59.4345 60.3749 59.268 60.4964C59.1665 60.5689 59.063 60.6353 58.9564 60.7006C58.7463 60.8344 58.53 60.957 58.3016 61.0591C58.2356 61.0887 58.1676 61.1112 58.0996 61.1388C57.8286 61.247 57.5484 61.3389 57.257 61.4012C57.2296 61.4084 57.1992 61.4104 57.1697 61.4166C56.8418 61.4809 56.5048 61.5197 56.1566 61.5197C55.8094 61.5197 55.4724 61.4809 55.1445 61.4166C55.1161 61.4104 55.0856 61.4084 55.0562 61.4012C54.7658 61.3389 54.4867 61.247 54.2156 61.1388C54.1486 61.1112 54.0786 61.0887 54.0136 61.0591C53.7852 60.957 53.568 60.8334 53.3578 60.7017C53.2523 60.6353 53.1487 60.5689 53.0482 60.4964C52.8817 60.3749 52.7244 60.2411 52.5731 60.1022C52.4675 60.0051 52.366 59.9092 52.2686 59.805V59.804C51.3752 58.844 50.8169 57.5623 50.8169 56.1458C50.8169 54.8314 51.3072 53.6416 52.0879 52.7071C52.1457 52.6377 52.1985 52.5652 52.2584 52.4998C52.3873 52.3609 52.5264 52.2353 52.6685 52.1107C52.7721 52.0198 52.8756 51.9309 52.9863 51.8472C53.1172 51.7492 53.2523 51.6583 53.3923 51.5714C53.5355 51.4826 53.6857 51.4029 53.838 51.3284C53.9669 51.2651 54.0938 51.2017 54.2288 51.1486C54.4197 51.0731 54.6187 51.0169 54.8217 50.9638C54.9333 50.9342 55.042 50.8964 55.1577 50.8739C55.4805 50.8116 55.8115 50.7728 56.1525 50.7728C56.1546 50.7728 56.1556 50.7728 56.1566 50.7728C56.1586 50.7728 56.1597 50.7728 56.1617 50.7728C56.5028 50.7728 56.8347 50.8116 57.1575 50.8739C57.2733 50.8964 57.3809 50.9342 57.4936 50.9638C57.6956 51.0169 57.8945 51.0731 58.0874 51.1486C58.2204 51.2017 58.3473 51.2651 58.4762 51.3284C58.6305 51.4029 58.7787 51.4826 58.9239 51.5714C59.063 51.6583 59.198 51.7492 59.329 51.8472C59.4406 51.9309 59.5431 52.0198 59.6477 52.1107C59.7888 52.2353 59.9279 52.3609 60.0568 52.4998C60.1177 52.5662 60.1695 52.6377 60.2274 52.7071C61.008 53.6426 61.4983 54.8314 61.4983 56.1458C61.4983 57.7165 60.8131 59.1187 59.7411 60.1022ZM30.5058 54.8692H27.2887C26.6786 51.1047 23.4332 48.2196 19.5208 48.2196C15.6104 48.2196 12.364 51.1047 11.7549 54.8692H9.12362C8.8008 54.8692 8.53788 54.6046 8.53788 54.2799V39.8258C8.53788 39.3692 8.70741 38.9332 9.01703 38.5972L19.598 27.0874C19.937 26.7187 20.4182 26.5073 20.9177 26.5073H30.5058V54.8692ZM23.4098 59.804V59.805C23.3134 59.9092 23.2109 60.0051 23.1063 60.1012C22.954 60.2411 22.7977 60.3749 22.6302 60.4974C22.5297 60.5699 22.4262 60.6353 22.3206 60.7017C22.1105 60.8344 21.8942 60.957 21.6658 61.0591C21.5998 61.0887 21.5318 61.1122 21.4628 61.1388C21.1928 61.247 20.9126 61.3389 20.6212 61.4012C20.5928 61.4084 20.5634 61.4104 20.5339 61.4166C20.206 61.4809 19.868 61.5197 19.5208 61.5197C19.1736 61.5197 18.8356 61.4809 18.5087 61.4166C18.4793 61.4104 18.4498 61.4084 18.4204 61.4012C18.13 61.3389 17.8509 61.247 17.5788 61.1388C17.5118 61.1122 17.4428 61.0887 17.3768 61.0591C17.1484 60.957 16.9322 60.8334 16.722 60.7017C16.6175 60.6353 16.5129 60.5699 16.4134 60.4974C16.2469 60.3749 16.0886 60.2421 15.9373 60.1022C15.8317 60.0051 15.7292 59.9092 15.6328 59.805C15.6328 59.804 15.6318 59.804 15.6318 59.804C14.7384 58.844 14.1811 57.5623 14.1811 56.1458C14.1811 55.7035 14.2491 55.2807 14.3496 54.8692C14.3496 54.8681 14.3506 54.8681 14.3506 54.8681C14.5486 54.0572 14.9333 53.328 15.4511 52.7081C15.5089 52.6387 15.5617 52.5662 15.6216 52.4998C15.7505 52.3609 15.8896 52.2363 16.0307 52.1117C16.1353 52.0198 16.2398 51.9309 16.3495 51.8472C16.4814 51.7492 16.6154 51.6583 16.7555 51.5725C16.8997 51.4826 17.0489 51.4029 17.2022 51.3284C17.3311 51.2651 17.458 51.2017 17.592 51.1486C17.7829 51.0731 17.9839 51.0169 18.1859 50.9638C18.2975 50.9342 18.4062 50.8964 18.5209 50.8739C18.8437 50.8116 19.1746 50.7728 19.5167 50.7728C19.5178 50.7728 19.5198 50.7728 19.5208 50.7728C19.5218 50.7728 19.5238 50.7728 19.5249 50.7728C19.867 50.7728 20.1979 50.8116 20.5217 50.8739C20.6365 50.8964 20.7441 50.9342 20.8578 50.9638C21.0588 51.0169 21.2587 51.0731 21.4516 51.1486C21.5846 51.2017 21.7115 51.2651 21.8404 51.3284C21.9947 51.4029 22.1429 51.4826 22.2871 51.5714C22.4272 51.6583 22.5612 51.7492 22.6921 51.8472C22.8038 51.9309 22.9084 52.0198 23.0119 52.1117C23.153 52.2363 23.2921 52.3609 23.42 52.4998C23.4819 52.5662 23.5337 52.6387 23.5916 52.7081C24.1103 53.328 24.495 54.0572 24.693 54.8681V54.8692C24.7945 55.2807 24.8625 55.7035 24.8625 56.1458C24.8625 57.5623 24.3042 58.844 23.4098 59.804ZM71.5717 20.3745C71.5727 20.3643 71.5747 20.3592 71.5768 20.35C71.5463 20.304 71.5209 20.2714 71.4915 20.2275C71.4265 20.1192 71.3555 20.0181 71.2803 19.918C69.446 17.2269 68.2795 16.6377 68.2795 16.6377L68.2866 16.655C67.7405 16.3149 67.103 16.1086 66.4147 16.1086H34.2638C32.1919 16.1086 30.5058 17.805 30.5058 19.8894V23.9541H20.9177C19.7127 23.9541 18.5523 24.4647 17.7352 25.3543L7.15321 36.864C6.40911 37.6729 6 38.7248 6 39.8258V54.2799C6 54.8896 6.1807 55.4523 6.48017 55.9343L6.47002 55.9333C6.47002 55.9333 7.35726 57.6031 9.02617 58.9492C9.18656 59.1003 9.36218 59.23 9.551 59.3444C9.57435 59.3607 9.59567 59.3801 9.62003 59.3965C9.62815 59.3975 9.63424 59.3944 9.64236 59.3944C10.0921 59.6477 10.6027 59.804 11.1539 59.804H12.5386C13.8552 62.3367 16.4885 64.0729 19.5208 64.0729C22.5541 64.0729 25.1874 62.3367 26.504 59.804H33.9877H35.0739H49.1754C50.4921 62.3367 53.1254 64.0729 56.1566 64.0729C59.1899 64.0729 61.8232 62.3367 63.1398 59.804H70.5718C71.3727 59.804 72.0244 59.1493 72.0244 58.3435V22.0923C72.0244 21.4663 71.8509 20.8872 71.5717 20.3745Z" fill="#534891"/>
</svg>
