<svg width="78" height="79" viewBox="0 0 78 79" fill="none" xmlns="http://www.w3.org/2000/svg">
<path fill-rule="evenodd" clip-rule="evenodd" d="M46.982 30.0816L44.893 27.9926L36.813 36.0726L28.733 27.9926L26.644 30.0816L34.724 38.1616L26.644 46.2416L28.733 48.3306L36.813 40.2506L44.893 48.3306L46.982 46.2416L38.902 38.1616L46.982 30.0816Z" fill="#A094FC"/>
<path fill-rule="evenodd" clip-rule="evenodd" d="M61.126 35.5635C61.126 50.3495 50.694 64.0255 36.814 67.5075C22.932 64.0255 12.5 50.3485 12.5 35.5635V19.7555L36.813 8.81555L61.125 19.7555V35.5635H61.126ZM36.814 6.07355L10 18.1375V35.5625C10 42.8365 12.169 50.1115 17.16 56.8495C17.18 56.8745 17.197 56.8995 17.216 56.9225C20.374 61.1725 24.42 64.7175 29.052 67.1685C32.4901 69.1129 36.1822 70.5688 40.022 71.4945L40.312 71.5645L40.604 71.4945C55.724 67.8695 67.124 53.0595 67.124 37.0455V19.6235L36.814 6.07355Z" fill="#534891"/>
</svg>
