<svg width="78" height="79" viewBox="0 0 78 79" fill="none" xmlns="http://www.w3.org/2000/svg">
<path fill-rule="evenodd" clip-rule="evenodd" d="M68.8052 65.9376H11.0882C9.11024 65.9376 7.50024 64.3276 7.50024 62.3496V25.5596V21.9656V19.0216C8.17124 20.7546 9.50883 21.9656 11.4362 21.9656H68.8052V65.9376ZM53.3662 19.4656V11.0726H9.24824C6.90224 11.0726 5.00024 12.9746 5.00024 15.3206V19.4656V21.4196V62.3496C5.00024 65.7066 7.73124 68.4376 11.0882 68.4376H71.3052V19.4656H53.3662Z" fill="#534891"/>
<path fill-rule="evenodd" clip-rule="evenodd" d="M73.1484 32.7154C73.7014 32.7154 74.1484 33.1634 74.1484 33.7154V53.7154C74.1484 54.2674 73.7014 54.7154 73.1484 54.7154H56.1484C56.0014 54.7154 55.8604 54.6834 55.7344 54.6264C50.3274 53.9314 46.1484 49.3114 46.1484 43.7154C46.1484 38.1194 50.3274 33.4994 55.7344 32.8054C55.8604 32.7474 56.0014 32.7154 56.1484 32.7154H73.1484ZM56.6484 39.2154C54.1634 39.2154 52.1484 41.2304 52.1484 43.7154C52.1484 46.2004 54.1634 48.2154 56.6484 48.2154C59.1334 48.2154 61.1484 46.2004 61.1484 43.7154C61.1484 41.2304 59.1334 39.2154 56.6484 39.2154Z" fill="#A094FC"/>
</svg>
