<svg width="78" height="79" viewBox="0 0 78 79" fill="none" xmlns="http://www.w3.org/2000/svg">
<path fill-rule="evenodd" clip-rule="evenodd" d="M47.4361 52.4426H26.736C26.2233 52.4415 25.7317 52.2375 25.369 51.8751C25.0062 51.5127 24.8016 51.0214 24.8 50.5086V24.6126C24.8016 24.1 25.006 23.6088 25.3686 23.2464C25.7312 22.8841 26.2224 22.6799 26.7351 22.6786H47.4361C47.9485 22.6802 48.4395 22.8844 48.8018 23.2468C49.1642 23.6091 49.3685 24.1001 49.37 24.6126V50.5086C49.3685 51.021 49.1642 51.512 48.8018 51.8744C48.4395 52.2367 47.9485 52.441 47.4361 52.4426Z" fill="#A094FC"/>
<path fill-rule="evenodd" clip-rule="evenodd" d="M52.674 52.0306C52.6727 53.0144 52.2813 53.9575 51.5856 54.6532C50.89 55.3488 49.9468 55.7402 48.963 55.7416H25.213C23.833 55.7416 22.64 54.9736 22 53.8516V53.8556C21.99 53.8386 21.984 53.8196 21.974 53.8026C21.874 53.6226 21.789 53.4326 21.721 53.2346C21.6791 53.1203 21.6424 53.0042 21.611 52.8866C21.5949 52.8177 21.5809 52.7483 21.569 52.6786C21.5248 52.4653 21.5014 52.2483 21.499 52.0306V23.1036C21.5006 22.1198 21.8922 21.1767 22.5881 20.4813C23.2839 19.7858 24.2272 19.3946 25.211 19.3936H48.963C49.9465 19.3952 50.8892 19.7865 51.5846 20.482C52.28 21.1774 52.6714 22.1201 52.673 23.1036V52.0306H52.674ZM45.144 64.4356C45.0327 65.0234 44.9153 65.6101 44.792 66.1956C44.498 67.5656 43.255 68.5616 41.836 68.5616H32.509C31.089 68.5616 29.847 67.5656 29.553 66.1946C29.433 65.6406 29.319 65.0466 29.2 64.4356C28.78 62.2656 28.329 59.9406 27.51 58.2416H46.834C46.016 59.9416 45.564 62.2646 45.144 64.4356ZM29.198 10.6976C29.317 10.0876 29.432 9.49357 29.551 8.93957C29.845 7.56757 31.088 6.57257 32.507 6.57257H41.834C41.996 6.57257 42.154 6.58857 42.31 6.61357C42.402 6.62857 42.488 6.65357 42.577 6.67657C42.631 6.68957 42.686 6.70157 42.737 6.71757C42.859 6.75757 42.973 6.80257 43.086 6.85357L43.121 6.87057C43.5405 7.06324 43.9097 7.35036 44.1998 7.70947C44.4898 8.06858 44.6929 8.48994 44.793 8.94057C44.912 9.49357 45.028 10.0876 45.146 10.6976C45.566 12.8686 46.016 15.1936 46.835 16.8926H27.508C28.327 15.1936 28.778 12.8686 29.197 10.6976H29.198ZM56.775 22.2296C54.775 19.3966 52.845 18.1166 51.592 17.5096C51.152 16.0836 50.357 11.9846 50.236 11.4156C50.0658 10.6513 49.7311 9.93326 49.255 9.31157C48.494 8.37257 45.821 5.33757 44.047 4.55757C43.3508 4.24367 42.5967 4.07848 41.833 4.07257H32.483C29.903 4.08357 27.643 5.90657 27.105 8.41557C26.9787 9.01675 26.858 9.61911 26.743 10.2226C26.435 11.8126 25.881 14.6676 25.143 16.0696C24.876 16.5756 24.714 16.8866 24.273 16.9716C21.293 17.4266 19 19.9996 19 23.1036V52.0306C19 53.3726 19.243 54.3006 20.13 55.5576C22.13 58.3906 24.589 60.0576 24.589 60.0576L24.582 60.0426C24.952 60.3126 25.352 60.5366 25.778 60.7186C26.203 62.1256 26.984 66.1486 27.105 66.7186C27.2249 67.2516 27.4248 67.7634 27.698 68.2366C27.698 68.2366 29.57 71.8916 33.075 73.4786C33.83 73.8556 34.6611 74.055 35.505 74.0616H44.833C47.423 74.0616 49.695 72.2356 50.235 69.7186C50.355 69.1496 51.338 61.5026 53.067 61.1426C54.4979 60.8816 55.7921 60.1274 56.7246 59.0111C57.6571 57.8949 58.1689 56.4871 58.171 55.0326V26.1026C58.171 24.7526 57.279 22.9446 56.774 22.2286L56.775 22.2296Z" fill="#534891"/>
</svg>
