<svg width="78" height="78" viewBox="0 0 78 78" fill="none" xmlns="http://www.w3.org/2000/svg">
<path fill-rule="evenodd" clip-rule="evenodd" d="M51.9649 29.7974H25.0349C23.9299 29.7974 23.0349 30.6934 23.0349 31.7974C23.0349 32.9014 23.9299 33.7974 25.0349 33.7974H31.3669C33.4119 33.9344 34.4199 35.6614 34.4199 37.7944L31.4039 54.2864C31.2069 55.3734 31.9259 56.4154 33.0139 56.6134C33.1349 56.6364 33.2559 56.6474 33.3749 56.6474C34.3219 56.6474 35.1639 55.9714 35.3399 55.0064L37.5659 42.8324V42.8344C37.5659 42.3494 37.9589 41.9574 38.4429 41.9574C38.8649 41.9574 39.2009 42.2614 39.2839 42.6594L41.5409 55.0064C41.7189 55.9714 42.5609 56.6474 43.5079 56.6474C43.6269 56.6474 43.7479 56.6364 43.8689 56.6134C44.9549 56.4154 45.6759 55.3734 45.4769 54.2864L42.4549 37.7554C42.4669 35.6414 43.4729 33.9334 45.5049 33.7974H51.9649C53.0699 33.7974 53.9649 32.9014 53.9649 31.7974C53.9649 30.6934 53.0699 29.7974 51.9649 29.7974ZM38.5001 28.6543C40.5821 28.6543 42.2701 26.9663 42.2701 24.8843C42.2701 22.8023 40.5821 21.1143 38.5001 21.1143C36.4181 21.1143 34.7301 22.8023 34.7301 24.8843C34.7301 26.9663 36.4181 28.6543 38.5001 28.6543Z" fill="#1F1C4F"/>
<path fill-rule="evenodd" clip-rule="evenodd" d="M38.7109 67.9121C22.2969 67.9121 8.9419 54.5581 8.9419 38.1441C8.9419 21.7301 22.2969 8.37711 38.7109 8.37711C55.1239 8.37711 68.4779 21.7301 68.4779 38.1441C68.4779 54.5581 55.1239 67.9121 38.7109 67.9121ZM65.8799 20.7701C60.1389 11.8221 50.1079 5.87511 38.7109 5.87511C20.9189 5.87511 6.44189 20.3501 6.44189 38.1431C6.44189 45.2761 8.7739 51.8731 12.7089 57.2211C18.4489 66.1751 28.4819 72.1251 39.8849 72.1251C57.6769 72.1251 72.1509 57.6501 72.1509 39.8581C72.1509 32.7201 69.8169 26.1201 65.8799 20.7701Z" fill="#1F1C4F"/>
</svg>
