<svg width="78" height="78" viewBox="0 0 78 78" fill="none" xmlns="http://www.w3.org/2000/svg">
<path fill-rule="evenodd" clip-rule="evenodd" d="M2 25.025L4.02 27.243L14.694 17.524L12.674 15.306L2 25.025Z" fill="#1F1C4F"/>
<path fill-rule="evenodd" clip-rule="evenodd" d="M12.173 26.43L14.196 28.645L21.129 22.315L19.106 20.1L12.173 26.43Z" fill="#1F1C4F"/>
<path fill-rule="evenodd" clip-rule="evenodd" d="M42.819 71.941L44.846 74.153L55.492 64.403L53.465 62.191L42.819 71.941Z" fill="#1F1C4F"/>
<path fill-rule="evenodd" clip-rule="evenodd" d="M44.288 63.905L51.22 57.576L49.197 55.36L42.265 61.689L44.288 63.905Z" fill="#1F1C4F"/>
<path fill-rule="evenodd" clip-rule="evenodd" d="M67.6466 13.1538L56.2406 23.1728C55.9346 23.4418 55.7786 23.8418 55.8226 24.2478L59.0926 54.2408L57.0426 56.0428L46.7976 33.6118C46.6326 33.2528 46.3086 32.9918 45.9216 32.9088C45.8346 32.8898 45.7476 32.8818 45.6606 32.8818C45.3596 32.8818 45.0656 32.9898 44.8346 33.1918L33.4296 43.2118C33.1516 43.4568 32.9956 43.8108 33.0046 44.1808L33.2316 53.4568L32.0836 54.4668L27.3106 44.0148C27.2086 43.7928 27.0426 43.6038 26.8346 43.4738L17.0866 37.3938L18.2356 36.3838L27.4046 37.8048C27.7716 37.8608 28.1426 37.7528 28.4206 37.5088L39.8266 27.4908C40.1236 27.2298 40.2796 26.8428 40.2476 26.4498C40.2156 26.0548 39.9986 25.6998 39.6636 25.4908L18.7406 12.4398L20.7906 10.6388L50.1126 17.7468C50.5086 17.8408 50.9256 17.7388 51.2316 17.4708L62.6376 7.45281C63.4026 6.77981 64.3726 6.43381 65.3966 6.50881C66.4096 6.57281 67.3356 7.02681 68.0046 7.78881C68.6726 8.54981 69.0036 9.52581 68.9376 10.5388C68.8696 11.5528 68.4116 12.4818 67.6466 13.1538ZM73.2536 8.81881C73.2456 8.80681 73.2476 8.80181 73.2386 8.78981C70.9326 5.74881 67.4566 4.43281 67.4566 4.43281V4.43581C66.8556 4.20181 66.2166 4.05581 65.5546 4.01381C63.8786 3.90181 62.2526 4.46281 60.9876 5.57381L50.0696 15.1638L20.7486 8.05581C20.3506 7.96181 19.9346 8.06281 19.6286 8.33181L15.8266 11.6718C15.5296 11.9328 15.3746 12.3188 15.4066 12.7128C15.4386 13.1068 15.6546 13.4628 15.9906 13.6718L34.7746 25.3878L36.8146 26.8088L27.2096 35.2458L18.0416 33.8248C17.6716 33.7668 17.3026 33.8768 17.0246 34.1208L14.1736 36.6258C13.8756 36.8868 13.7206 37.2728 13.7516 37.6668C13.7846 38.0608 14.0006 38.4168 14.3366 38.6258L25.1926 45.3958L30.5076 57.0348C30.5386 57.1018 30.5806 57.1628 30.6226 57.2228H30.6206C30.6206 57.2228 30.6276 57.2328 30.6316 57.2378C30.6506 57.2648 30.6696 57.2918 30.6916 57.3168C31.0546 57.7888 32.8426 60.0008 34.4436 60.0238C34.8286 60.1068 35.2326 60.0018 35.5296 59.7408L38.3806 57.2358C38.6586 56.9908 38.8146 56.6358 38.8056 56.2658L38.5786 46.9908L46.8426 39.7298L55.4666 58.6108C55.4926 58.6658 55.5276 58.7138 55.5596 58.7638L55.5566 58.7648L55.6046 58.8388C55.6116 58.8458 55.6166 58.8558 55.6236 58.8648C55.9316 59.3128 57.3146 61.1628 59.4016 61.5998C59.4886 61.6188 59.5766 61.6278 59.6636 61.6278C59.9646 61.6278 60.2586 61.5188 60.4886 61.3168L64.2906 57.9768C64.5966 57.7078 64.7516 57.3068 64.7086 56.9018L61.4386 26.9098L72.3556 17.3188C74.8416 15.1338 75.1966 11.4208 73.2536 8.81881Z" fill="#1F1C4F"/>
</svg>
