<svg width="78" height="78" viewBox="0 0 78 78" fill="none" xmlns="http://www.w3.org/2000/svg">
<path fill-rule="evenodd" clip-rule="evenodd" d="M38.268 68.037C21.854 68.037 8.50002 54.683 8.50002 38.27C8.50002 21.857 21.854 8.502 38.268 8.502C54.681 8.502 68.036 21.855 68.036 38.269C68.036 54.683 54.68 68.037 38.268 68.037ZM65.437 20.895C59.697 11.947 49.666 6 38.267 6C20.477 6 6.00002 20.475 6.00002 38.268C5.99325 45.134 8.18955 51.8211 12.266 57.346C18.006 66.3 28.039 72.25 39.443 72.25C57.235 72.25 71.709 57.775 71.709 39.983C71.7151 33.1131 69.5167 26.4224 65.437 20.895Z" fill="#1F1C4F"/>
<path fill-rule="evenodd" clip-rule="evenodd" d="M56.1021 29.595L48.5071 22L46.3871 24.121L51.4711 29.207H21.3651V32.207H51.4721L46.3861 37.292L48.5071 39.413L56.1011 31.82C56.7151 31.205 56.7151 30.21 56.1021 29.596V29.595ZM56.1971 46.195H26.0911L31.1761 41.11L29.0541 38.989L21.4611 46.584C21.3149 46.7298 21.1989 46.9031 21.1198 47.0938C21.0406 47.2845 20.9999 47.489 20.9999 47.6955C20.9999 47.902 21.0406 48.1065 21.1198 48.2972C21.1989 48.4879 21.3149 48.6612 21.4611 48.807L29.0541 56.401L31.1761 54.28L26.0911 49.195H56.1971V46.195Z" fill="#1F1C4F"/>
</svg>
