<svg width="78" height="78" viewBox="0 0 78 78" fill="none" xmlns="http://www.w3.org/2000/svg">
<path fill-rule="evenodd" clip-rule="evenodd" d="M11.385 40.91H44.385V37.91H11.385V40.91Z" fill="#1F1C4F"/>
<path fill-rule="evenodd" clip-rule="evenodd" d="M11.385 47.899H30.371V44.899H11.385V47.899Z" fill="#1F1C4F"/>
<path fill-rule="evenodd" clip-rule="evenodd" d="M66.5952 57.7207H8.83524C7.54724 57.7207 6.50024 56.6737 6.50024 55.3857V32.1937H68.9302V55.3857C68.9302 56.6737 67.8832 57.7207 66.5952 57.7207ZM8.83524 16.4997H66.5952C67.8832 16.4997 68.9302 17.5477 68.9302 18.8347V22.1227H6.50024V18.8347C6.50024 17.5477 7.54724 16.4997 8.83524 16.4997ZM73.2982 18.5987C71.5522 16.0357 68.7842 14.5127 68.7842 14.5127C68.7842 14.5127 68.7762 14.5327 68.7732 14.5417C68.1152 14.2067 67.3822 13.9997 66.5952 13.9997H8.83524C6.16924 13.9997 4.00024 16.1687 4.00024 18.8347V55.3857C4.00024 56.0577 4.13924 56.6977 4.38824 57.2797C4.41724 57.4717 4.52924 57.7307 4.77224 58.0907C6.51624 60.6717 9.30724 62.2067 9.30724 62.2067C9.30724 62.2067 9.31324 62.1917 9.31524 62.1877C10.0052 62.5667 10.7842 62.8027 11.6252 62.8027H69.3862C72.0522 62.8027 74.2202 60.6337 74.2202 57.9677V21.4167C74.2202 20.3627 73.8722 19.3937 73.2982 18.5987Z" fill="#1F1C4F"/>
</svg>
