<svg width="78" height="78" viewBox="0 0 78 78" fill="none" xmlns="http://www.w3.org/2000/svg">
<path fill-rule="evenodd" clip-rule="evenodd" d="M18.6541 18.872H50.3171V15.871H18.6541V18.872Z" fill="#1F1C4F"/>
<path fill-rule="evenodd" clip-rule="evenodd" d="M18.6541 26.474H50.3171V23.474H18.6541V26.474Z" fill="#1F1C4F"/>
<path fill-rule="evenodd" clip-rule="evenodd" d="M18.6541 34.077H50.3171V31.076H18.6541V34.077Z" fill="#1F1C4F"/>
<path fill-rule="evenodd" clip-rule="evenodd" d="M18.6541 41.678H50.3171V38.678H18.6541V41.678Z" fill="#1F1C4F"/>
<path fill-rule="evenodd" clip-rule="evenodd" d="M56.4718 68.4326H52.9118H16.0878C14.1098 68.4326 12.4998 66.8236 12.4998 64.8446V9.5786H56.4718V63.3166C56.6248 66.4536 57.6538 67.7376 59.4508 68.4326H56.4718ZM58.9718 56.4786V6.9996H9.99976V64.7666C9.99976 68.1236 12.7318 70.8546 16.0878 70.8546H58.9718V70.8446H63.1168C65.4628 70.8446 67.3648 68.9426 67.3648 66.5966V56.4786H58.9718Z" fill="#1F1C4F"/>
<path fill-rule="evenodd" clip-rule="evenodd" d="M25.5527 63.1631C29.6957 63.1631 33.0527 59.8061 33.0527 55.6631C33.0527 51.5211 29.6957 48.1631 25.5527 48.1631C21.4107 48.1631 18.0527 51.5211 18.0527 55.6631C18.0527 59.8061 21.4107 63.1631 25.5527 63.1631Z" fill="#1F1C4F"/>
</svg>
