<svg width="78" height="78" viewBox="0 0 78 78" fill="none" xmlns="http://www.w3.org/2000/svg">
<path fill-rule="evenodd" clip-rule="evenodd" d="M6.499 54.2822H67.93V20.5002H6.499V54.2822ZM73.393 22.8152L73.395 22.7992C73.395 21.5962 70.33 17.9992 68.25 17.9992H6.18C4.978 17.9992 4 18.9782 4 20.1802V54.7432C4 55.7992 6.448 59.3202 8.626 59.7402C8.76 59.7672 8.898 59.7822 9.04 59.7822H71.39C72.515 59.7822 73.43 58.8672 73.43 57.7432V23.1802C73.43 23.0552 73.414 22.9342 73.393 22.8152Z" fill="#1F1C4F"/>
<path fill-rule="evenodd" clip-rule="evenodd" d="M11.1311 43.4352C15.7171 43.4352 16.6801 46.5332 16.6801 49.1312C16.6801 49.8222 17.2401 50.3812 17.9301 50.3812H31.0672C30.1852 49.6822 29.3801 48.8442 28.6701 47.8812H19.1141C18.6861 43.9762 16.2181 41.4532 12.3891 41.0062L12.4401 33.8302C16.2771 33.3882 18.7521 30.8642 19.1801 26.9532H28.6341C29.3361 25.9932 30.1311 25.1542 31.0031 24.4532H17.9971C17.3061 24.4532 16.7471 25.0122 16.7471 25.7032C16.7471 28.3012 15.7841 31.3992 11.1981 31.3992C10.5111 31.3992 9.95315 31.9542 9.94815 32.6402L9.88113 42.1762C9.87915 42.5092 10.0091 42.8302 10.2441 43.0662C10.4791 43.3022 10.7981 43.4352 11.1311 43.4352ZM55.1903 47.8814H45.8452C45.1362 48.8444 44.3312 49.6824 43.4482 50.3814H56.3742C57.0642 50.3814 57.6242 49.8214 57.6242 49.1314C57.6242 46.5324 58.5863 43.4354 63.1732 43.4354C63.8602 43.4354 64.4183 42.8804 64.4233 42.1944L64.4893 32.6574C64.4922 32.3244 64.3612 32.0044 64.1262 31.7684C63.8922 31.5314 63.5723 31.3994 63.2393 31.3994C58.6533 31.3994 57.6903 28.3014 57.6903 25.7024C57.6903 25.0124 57.1312 24.4524 56.4403 24.4524H43.5122C44.3853 25.1534 45.1802 25.9924 45.8812 26.9524H55.2572C55.6852 30.8584 58.1533 33.3814 61.9813 33.8274L61.9312 41.0044C58.0932 41.4454 55.6183 43.9704 55.1903 47.8814Z" fill="#1F1C4F"/>
<path fill-rule="evenodd" clip-rule="evenodd" d="M39.9718 43.2525C39.6228 43.6645 39.1868 43.9485 38.6718 44.1155V38.9075C39.2978 39.1385 39.7718 39.4365 40.0758 39.8105C40.4448 40.2625 40.6298 40.8015 40.6298 41.4265C40.6298 42.1255 40.4098 42.7335 39.9718 43.2525ZM34.8778 33.1485C34.5788 32.7255 34.4298 32.2655 34.4298 31.7705C34.4298 31.2295 34.5938 30.7345 34.9198 30.2865C35.2108 29.8885 35.5968 29.5985 36.0648 29.4065V34.0935C35.5468 33.8435 35.1468 33.5305 34.8778 33.1485ZM42.8408 37.2075C42.0798 36.3025 40.6848 35.5575 38.6718 34.9685V29.6165C39.3308 30.0415 39.7648 30.6985 39.9438 31.6165L43.4838 31.1545C43.2418 29.7555 42.6818 28.6385 41.8048 27.8035C41.0128 27.0495 39.9598 26.5775 38.6718 26.3595V24.8985H38.2648H36.2358H36.0648V26.3155C34.5428 26.4995 33.3088 27.0815 32.3798 28.0835C31.4138 29.1235 30.9318 30.4085 30.9318 31.9385C30.9318 33.4495 31.3578 34.7345 32.2118 35.7935C33.0378 36.8185 34.3258 37.5895 36.0648 38.1115V43.9325C35.6288 43.6875 35.2268 43.3325 34.8638 42.8545C34.4538 42.3125 34.1738 41.6685 34.0248 40.9225L30.3718 41.3145C30.6518 43.1515 31.2958 44.5745 32.3038 45.5825C33.2738 46.5525 34.5328 47.1375 36.0648 47.3555V49.9345H36.2358H38.2648H38.6718V47.2445C40.2948 46.9405 41.5818 46.2585 42.5258 45.1905C43.5468 44.0335 44.0578 42.6105 44.0578 40.9225C44.0578 39.4105 43.6518 38.1725 42.8408 37.2075Z" fill="#1F1C4F"/>
</svg>
