<svg width="78" height="78" viewBox="0 0 78 78" fill="none" xmlns="http://www.w3.org/2000/svg">
<path fill-rule="evenodd" clip-rule="evenodd" d="M56.225 51.218C52.593 52.172 48.333 48.109 46.74 42.161C45.486 37.483 44.745 32.894 44.3 29.363H56.917C58.315 33.021 59.365 36.147 60.045 38.685C61.041 42.401 60.754 46.137 59.276 48.681C58.498 50.021 57.443 50.898 56.226 51.218H56.225ZM43.75 24.061L53.718 21.462C54.4801 23.2537 55.2215 25.0542 55.942 26.863H44.012C43.9152 25.9299 43.8278 24.9959 43.75 24.061ZM67.036 68.861C65.256 69.335 64.124 69.002 63.598 68.757L59.363 52.947C61.16 52.422 62.68 51.172 63.763 49.308C65.569 46.202 65.95 41.753 64.786 37.408C63.614 33.036 61.411 27.046 58.238 19.604C58.078 19.23 57.974 18.988 57.944 18.906L57.541 17.857L41.028 22.2L41.176 23.297C41.188 23.389 41.206 23.615 41.234 23.957C41.452 26.577 42.112 34.545 44.325 42.802C46.085 49.366 50.619 53.852 55.147 53.852C55.586 53.852 56.025 53.794 56.462 53.707L60.702 69.533C60.37 70.009 59.559 70.864 57.78 71.341C57.5896 71.3918 57.4111 71.4795 57.2546 71.5993C57.0981 71.719 56.9667 71.8685 56.8679 72.039C56.7692 72.2095 56.705 72.3978 56.679 72.5932C56.653 72.7885 56.6658 72.9871 56.7165 73.1775C56.7673 73.3679 56.855 73.5465 56.9748 73.703C57.0946 73.8595 57.244 73.9908 57.4145 74.0896C57.5851 74.1883 57.7734 74.2525 57.9687 74.2785C58.1641 74.3045 58.3626 74.2917 58.553 74.241L67.813 71.759C68.1973 71.6561 68.525 71.4047 68.724 71.0602C68.923 70.7157 68.9769 70.3063 68.874 69.922C68.7711 69.5377 68.5198 69.21 68.1753 69.011C67.8308 68.8121 67.4213 68.7581 67.037 68.861H67.036ZM30.892 26.863H18.742C19.5714 24.8314 20.4527 22.8214 21.385 20.835L31.315 23.569C31.1803 24.6678 31.039 25.7659 30.891 26.863H30.892ZM28.183 41.647C27.189 45.363 25.072 48.455 22.52 49.92C21.177 50.69 19.823 50.923 18.61 50.59C14.983 49.598 13.33 43.952 14.922 38.006C15.659 35.256 16.608 32.366 17.752 29.363H30.542C29.803 34.426 29.015 38.549 28.183 41.647ZM19.957 17.867L19.535 18.887C19.5 18.973 19.405 19.172 19.264 19.473C16.254 25.846 13.982 31.863 12.508 37.359C10.58 44.559 12.803 51.248 17.567 52.867L13.325 68.696C12.803 68.94 11.675 69.275 9.90003 68.803L9.88903 68.8C9.69881 68.749 9.50042 68.7361 9.30518 68.7618C9.10994 68.7875 8.92168 68.8514 8.75114 68.9499C8.58061 69.0484 8.43114 69.1795 8.31127 69.3357C8.1914 69.492 8.10348 69.6703 8.05253 69.8605C8.00158 70.0507 7.98859 70.2491 8.01431 70.4443C8.04003 70.6396 8.10395 70.8278 8.20243 70.9984C8.30091 71.1689 8.43201 71.3184 8.58825 71.4382C8.74449 71.5581 8.92281 71.646 9.11303 71.697H9.11703L18.36 74.176C18.4906 74.2121 18.6255 74.2303 18.761 74.23C19.1256 74.2307 19.4779 74.0987 19.7522 73.8585C20.0264 73.6184 20.2038 73.2865 20.2512 72.9251C20.2987 72.5637 20.2128 72.1973 20.0098 71.8946C19.8068 71.5918 19.5004 71.3733 19.148 71.28L19.138 71.278C17.366 70.801 16.555 69.948 16.222 69.474L20.459 53.662C20.9821 53.7926 21.5189 53.8597 22.058 53.862C23.392 53.862 24.759 53.475 26.09 52.712C29.206 50.924 31.762 47.262 32.926 42.918C34.096 38.55 35.184 32.263 36.157 24.23C36.206 23.824 36.237 23.562 36.251 23.475L36.428 22.365L19.958 17.867H19.957Z" fill="#1F1C4F"/>
<path fill-rule="evenodd" clip-rule="evenodd" d="M37.2119 16.031H39.7119V4H37.2119V16.031Z" fill="#1F1C4F"/>
<path fill-rule="evenodd" clip-rule="evenodd" d="M24.0681 7.803L31.4611 17.295L33.4331 15.76L26.0411 6.267L24.0681 7.803Z" fill="#1F1C4F"/>
<path fill-rule="evenodd" clip-rule="evenodd" d="M52.8569 7.803L45.4639 17.295L43.4919 15.76L50.8839 6.267L52.8569 7.803Z" fill="#1F1C4F"/>
</svg>
