<svg width="78" height="78" viewBox="0 0 78 78" fill="none" xmlns="http://www.w3.org/2000/svg">
<path fill-rule="evenodd" clip-rule="evenodd" d="M37.014 35.276C37.2557 35.0343 37.5426 34.8426 37.8584 34.7118C38.1742 34.581 38.5126 34.5136 38.8545 34.5136C39.1963 34.5136 39.5347 34.581 39.8505 34.7118C40.1663 34.8426 40.4533 35.0343 40.695 35.276C40.9367 35.5177 41.1284 35.8046 41.2592 36.1204C41.39 36.4362 41.4573 36.7747 41.4573 37.1165C41.4573 37.4583 41.39 37.7968 41.2592 38.1126C41.1284 38.4284 40.9367 38.7153 40.695 38.957L43.572 41.835C43.593 41.815 43.619 41.799 43.633 41.775L54.097 22.273C54.1269 22.2171 54.138 22.1531 54.1287 22.0904C54.1194 22.0276 54.0902 21.9696 54.0453 21.9248C54.0004 21.8801 53.9423 21.8509 53.8795 21.8418C53.8168 21.8326 53.7528 21.8439 53.697 21.874L34.197 32.338C34.171 32.351 34.157 32.378 34.137 32.398L37.014 35.276Z" fill="#1F1C4F"/>
<path fill-rule="evenodd" clip-rule="evenodd" d="M38.268 68.037C21.854 68.037 8.5 54.683 8.5 38.269C8.5 21.855 21.854 8.502 38.268 8.502C54.681 8.502 68.035 21.855 68.035 38.269C68.035 54.683 54.681 68.037 38.268 68.037ZM65.438 20.895C59.695 11.947 49.665 6 38.267 6C20.476 6 6 20.475 6 38.268C6 45.401 8.331 51.998 12.266 57.346C18.006 66.3 28.04 72.25 39.442 72.25C57.234 72.25 71.709 57.775 71.709 39.983C71.7151 33.1131 69.5167 26.4224 65.437 20.895" fill="#1F1C4F"/>
<path fill-rule="evenodd" clip-rule="evenodd" d="M40.606 14.275C40.6125 13.9537 40.5548 13.6343 40.4363 13.3355C40.3177 13.0367 40.1408 12.7646 39.9158 12.5351C39.6908 12.3056 39.4223 12.1233 39.1259 11.9988C38.8296 11.8744 38.5114 11.8103 38.19 11.8104C37.8686 11.8104 37.5504 11.8746 37.2541 11.9992C36.9578 12.1238 36.6894 12.3062 36.4645 12.5358C36.2396 12.7654 36.0628 13.0376 35.9444 13.3364C35.826 13.6352 35.7684 13.9547 35.775 14.276C35.7879 14.9081 36.048 15.51 36.4996 15.9525C36.9512 16.395 37.5583 16.6429 38.1905 16.6429C38.8228 16.6429 39.4298 16.395 39.8814 15.9525C40.333 15.51 40.5931 14.9081 40.606 14.276V14.275ZM38.19 59.396C37.8687 59.3895 37.5492 59.4471 37.2505 59.5656C36.9517 59.684 36.6795 59.8609 36.45 60.0859C36.2204 60.3108 36.038 60.5793 35.9135 60.8756C35.789 61.1719 35.7249 61.4901 35.7249 61.8115C35.7249 62.1329 35.789 62.4511 35.9135 62.7474C36.038 63.0437 36.2204 63.3122 36.45 63.5372C36.6795 63.7621 36.9517 63.939 37.2505 64.0575C37.5492 64.1759 37.8687 64.2335 38.19 64.227C38.8185 64.2089 39.4151 63.9466 39.8533 63.4956C40.2914 63.0447 40.5365 62.4407 40.5365 61.812C40.5365 61.1833 40.2914 60.5793 39.8533 60.1284C39.4151 59.6775 38.8185 59.4151 38.19 59.397V59.396ZM62.053 35.854C61.4125 35.854 60.7982 36.1084 60.3453 36.5613C59.8924 37.0142 59.638 37.6285 59.638 38.269C59.638 38.9095 59.8924 39.5238 60.3453 39.9767C60.7982 40.4296 61.4125 40.684 62.053 40.684C62.6935 40.684 63.3078 40.4296 63.7607 39.9767C64.2136 39.5238 64.468 38.9095 64.468 38.269C64.468 37.6285 64.2136 37.0142 63.7607 36.5613C63.3078 36.1084 62.6935 35.854 62.053 35.854ZM14.274 35.854C13.6335 35.854 13.0192 36.1084 12.5663 36.5613C12.1134 37.0142 11.859 37.6285 11.859 38.269C11.859 38.9095 12.1134 39.5238 12.5663 39.9767C13.0192 40.4296 13.6335 40.684 14.274 40.684C14.9145 40.684 15.5288 40.4296 15.9817 39.9767C16.4346 39.5238 16.689 38.9095 16.689 38.269C16.689 37.6285 16.4346 37.0142 15.9817 36.5613C15.5288 36.1084 14.9145 35.854 14.274 35.854ZM37.014 38.957C36.5262 38.4687 36.2521 37.8067 36.2521 37.1165C36.2521 36.4263 36.5262 35.7643 37.014 35.276L34.136 32.398C34.116 32.418 34.09 32.434 34.076 32.458L23.612 51.958C23.5817 52.0139 23.5702 52.0781 23.5793 52.1411C23.5885 52.204 23.6177 52.2624 23.6627 52.3073C23.7077 52.3523 23.766 52.3816 23.8289 52.3907C23.8919 52.3998 23.9561 52.3884 24.012 52.358L43.512 41.895C43.537 41.881 43.552 41.854 43.573 41.835L40.695 38.957C40.2068 39.4446 39.545 39.7184 38.855 39.7184C38.165 39.7184 37.5032 39.4446 37.015 38.957" fill="#1F1C4F"/>
</svg>
