<svg width="78" height="78" viewBox="0 0 78 78" fill="none" xmlns="http://www.w3.org/2000/svg">
<path d="M56.0127 42.0302C60.3477 42.0302 63.9114 45.2896 64.042 49.3119L64.0457 49.5404V52.7933C64.0457 53.4522 63.5016 53.9665 62.8425 54.0247L62.7177 54.0302H39.2907C38.6228 54.0302 38.1129 53.5579 38.0518 52.9225L38.0457 52.7933V49.5404C38.0457 45.4903 41.529 42.1558 45.8332 42.0337L46.0777 42.0302H56.0127ZM51.0459 23.0302C46.6267 23.0302 43.0459 26.6111 43.0459 31.0302C43.0459 33.2572 43.9609 35.3392 45.5462 36.8403C47.0217 38.2374 48.972 39.0302 51.0459 39.0302C55.464 39.0302 59.0459 35.4484 59.0459 31.0302C59.0459 26.6114 55.4643 23.0302 51.0459 23.0302Z" fill="#1F1C4F"/>
<path fill-rule="evenodd" clip-rule="evenodd" d="M12.5801 26.777H35.0221V23.777H12.5801V26.777Z" fill="#1F1C4F"/>
<path fill-rule="evenodd" clip-rule="evenodd" d="M12.5801 34.169H35.0221V31.169H12.5801V34.169Z" fill="#1F1C4F"/>
<path fill-rule="evenodd" clip-rule="evenodd" d="M12.5801 41.561H35.0221V38.561H12.5801V41.561Z" fill="#1F1C4F"/>
<path fill-rule="evenodd" clip-rule="evenodd" d="M68.9298 56.333C68.9298 57.621 67.8818 58.668 66.5948 58.668H8.83476C7.54776 58.668 6.49976 57.621 6.49976 56.333V19.782C6.49976 18.495 7.54776 17.447 8.83476 17.447H66.5948C67.8818 17.447 68.9298 18.495 68.9298 19.782V56.333ZM73.2948 19.595C71.5488 17.035 68.7838 15.513 68.7838 15.513C68.7838 15.513 68.7767 15.533 68.7728 15.542C68.1158 15.207 67.3818 15 66.5948 15H8.83476C6.16876 15 3.99976 17.169 3.99976 19.835V56.386C3.99976 57.058 4.13876 57.697 4.38776 58.279C4.41676 58.472 4.52876 58.73 4.77176 59.091C6.51576 61.672 9.30676 63.207 9.30676 63.207C9.30676 63.207 9.31276 63.192 9.31476 63.188C10.0038 63.567 10.7838 63.802 11.6248 63.802H69.3848C72.0518 63.802 74.2208 61.633 74.2208 58.967V22.416C74.2208 21.361 73.8708 20.391 73.2948 19.595Z" fill="#1F1C4F"/>
</svg>
