<svg width="78" height="78" viewBox="0 0 78 78" fill="none" xmlns="http://www.w3.org/2000/svg">
<path fill-rule="evenodd" clip-rule="evenodd" d="M33.0814 34.7388C33.0814 35.7418 33.2844 36.4788 33.6914 36.9528C34.0974 37.4268 34.6014 37.6638 35.2014 37.6638C35.6504 37.6638 36.0734 37.5528 36.4684 37.3318C36.7684 37.1748 37.0634 36.9258 37.3554 36.5868C37.7744 36.1038 38.1354 35.4018 38.4394 34.4778C38.7434 33.5538 38.8954 32.6938 38.8954 31.8968C38.8954 31.0048 38.6884 30.3198 38.2734 29.8428C37.8594 29.3648 37.3364 29.1258 36.7054 29.1258C36.0254 29.1258 35.3984 29.3878 34.8224 29.9138C34.2454 30.4378 33.8114 31.1858 33.5194 32.1578C33.2274 33.1288 33.0814 33.9888 33.0814 34.7388ZM45.8814 39.6058H48.4044C47.6144 41.2088 46.4024 42.4638 44.7694 43.3718C42.8974 44.4138 40.6164 44.9338 37.9244 44.9338C35.3194 44.9338 33.0694 44.4938 31.1744 43.6138C29.2804 42.7338 27.8714 41.4348 26.9474 39.7178C26.0234 38.0018 25.5614 36.1328 25.5614 34.1108C25.5614 31.8928 26.0864 29.8268 27.1374 27.9128C28.1864 25.9978 29.6234 24.5608 31.4474 23.6018C33.2704 22.6428 35.3544 22.1638 37.6994 22.1638C39.6884 22.1638 41.4564 22.5508 43.0044 23.3238C44.5514 24.0968 45.7334 25.1968 46.5514 26.6218C47.3684 28.0468 47.7764 29.6028 47.7764 31.2928C47.7764 33.3058 47.1564 35.1258 45.9174 36.7518C44.3624 38.8038 42.3694 39.8308 39.9374 39.8308C39.2824 39.8308 38.7894 39.7168 38.4574 39.4868C38.1254 39.2588 37.9044 38.9228 37.7944 38.4808C36.8624 39.3808 35.7894 39.8308 34.5734 39.8308C33.2634 39.8308 32.1754 39.3788 31.3104 38.4748C30.4464 37.5708 30.0144 36.3688 30.0144 34.8688C30.0144 33.0138 30.5354 31.3208 31.5774 29.7888C32.8404 27.9268 34.4584 26.9948 36.4324 26.9948C37.8374 26.9948 38.8754 27.5318 39.5464 28.6048L39.8424 27.2908H42.9694L41.1814 35.7808C41.0704 36.3178 41.0154 36.6648 41.0154 36.8228C41.0154 37.0198 41.0604 37.1688 41.1514 37.2668C41.2424 37.3658 41.3504 37.4148 41.4774 37.4148C41.8554 37.4148 42.3454 37.1858 42.9454 36.7278C43.7504 36.1288 44.4014 35.3228 44.8984 34.3118C45.3964 33.3018 45.6444 32.2568 45.6444 31.1748C45.6444 29.2328 44.9424 27.6078 43.5374 26.3008C42.1324 24.9958 40.1704 24.3428 37.6524 24.3428C35.5124 24.3428 33.6994 24.7778 32.2104 25.6508C30.7234 26.5228 29.6024 27.7508 28.8484 29.3338C28.0944 30.9158 27.7174 32.5638 27.7174 34.2768C27.7174 35.9428 28.1374 37.4588 28.9784 38.8238C29.8194 40.1898 30.9994 41.1858 32.5194 41.8138C34.0384 42.4418 35.7774 42.7558 37.7344 42.7558C39.6224 42.7558 41.2444 42.4928 42.6024 41.9678C43.9594 41.4428 45.0534 40.6558 45.8814 39.6058Z" fill="#1F1C4F"/>
<path fill-rule="evenodd" clip-rule="evenodd" d="M62.6138 64.3315C62.6138 64.3555 62.6078 64.3795 62.6068 64.4035L47.7048 50.9265C48.1738 50.5125 48.6508 50.0905 49.1668 49.6305C52.3278 46.8155 54.5078 44.8085 56.0128 43.3555L62.6138 37.5055V64.3315ZM60.8008 66.1435H13.3128C13.2228 66.1435 13.1368 66.1305 13.0508 66.1175L27.8488 52.7325C30.9018 55.5585 32.6108 57.0035 33.5868 57.7265C33.7808 57.8765 33.9768 58.0185 34.1828 58.1375C34.4408 58.3005 34.6168 58.3845 34.7428 58.4255C35.3648 58.6905 36.0148 58.8345 36.6688 58.8345C37.1038 58.8345 37.5348 58.7545 37.9618 58.6365C38.0278 58.6265 38.1108 58.6035 38.2128 58.5645C38.8628 58.3475 39.4888 58.0045 40.0518 57.5045L41.2278 56.4625C42.3288 55.5775 43.8088 54.3345 45.8148 52.5865L60.8038 66.1435C60.8028 66.1435 60.8018 66.1435 60.8008 66.1435ZM11.4998 37.4025L20.0068 45.2525C21.1568 46.3875 22.5388 47.7255 24.2328 49.3365C24.8658 49.9385 25.4558 50.4965 26.0148 51.0215L11.4998 64.1505V37.4025ZM12.0418 33.3795L14.5938 30.8675V36.8555L11.6028 34.0965C11.6938 33.8285 11.8378 33.5795 12.0418 33.3795ZM17.0938 17.7425C17.0938 17.4145 17.3598 17.1475 17.6888 17.1475H56.2778C56.6068 17.1475 56.8728 17.4145 56.8728 17.7425V38.9015C55.2708 40.9415 42.7668 52.1515 38.5748 55.3935C37.9518 55.8755 37.1748 56.1065 36.3878 56.0565C35.7138 56.0135 35.0738 55.7665 34.5498 55.3395C30.7298 52.2285 18.5938 40.6235 17.0938 38.5645V17.7425ZM35.7858 10.0155C36.1358 9.6705 36.5958 9.4985 37.0568 9.4985C37.5178 9.4985 37.9778 9.6705 38.3278 10.0155L43.0368 14.6475H31.0768L35.7858 10.0155ZM59.3728 30.7235L62.0728 33.3805C62.3078 33.6105 62.4678 33.9055 62.5498 34.2225L59.3728 37.0375V30.7235ZM66.6638 34.4235L63.9848 31.7875C63.9288 31.7265 63.8858 31.6545 63.8258 31.5965L59.3728 27.2135V17.7425C59.3728 16.0365 57.9848 14.6475 56.2778 14.6475H46.6028L40.0818 8.2315C38.4138 6.5905 35.6998 6.5885 34.0318 8.2315L27.5108 14.6475H17.6888C15.9818 14.6475 14.5938 16.0365 14.5938 17.7425V27.3585L10.2878 31.5955C9.46976 32.4005 8.99976 33.5205 8.99976 34.6695V64.3295C8.99976 65.0945 9.21676 65.8035 9.56776 66.4275L9.50676 66.3845C9.50676 66.3845 11.1808 69.6435 14.4598 71.1775C14.4598 71.1775 14.4428 71.1455 14.4188 71.1015C14.9488 71.3355 15.5328 71.4705 16.1498 71.4705H63.6378C66.0168 71.4705 67.9508 69.5355 67.9508 67.1565V37.4965C67.9508 36.3485 67.4818 35.2275 66.6638 34.4235Z" fill="#1F1C4F"/>
</svg>
