<svg width="78" height="78" viewBox="0 0 78 78" fill="none" xmlns="http://www.w3.org/2000/svg">
<path fill-rule="evenodd" clip-rule="evenodd" d="M22.646 37.949H54.308V34.949H22.646V37.949Z" fill="#1F1C4F"/>
<path fill-rule="evenodd" clip-rule="evenodd" d="M22.646 31.473H54.308V28.473H22.646V31.473Z" fill="#1F1C4F"/>
<path fill-rule="evenodd" clip-rule="evenodd" d="M22.646 24.497H43.822V21.497H22.646V24.497Z" fill="#1F1C4F"/>
<path fill-rule="evenodd" clip-rule="evenodd" d="M63.614 64.331C63.614 64.355 63.608 64.379 63.607 64.403L48.705 50.926C49.175 50.512 49.651 50.09 50.167 49.63C53.327 46.815 55.507 44.808 57.014 43.355L63.614 37.505V64.331ZM61.8 66.143H14.313C14.223 66.143 14.137 66.13 14.051 66.117L28.849 52.732C31.902 55.558 33.611 57.003 34.587 57.726C34.781 57.876 34.977 58.018 35.183 58.137C35.441 58.3 35.617 58.384 35.743 58.425C36.3505 58.691 37.0058 58.8305 37.669 58.835C38.104 58.835 38.535 58.755 38.962 58.636C39.0478 58.6215 39.1317 58.5974 39.212 58.564C39.8911 58.3396 40.5172 57.9789 41.052 57.504L42.228 56.462C43.328 55.577 44.808 54.334 46.815 52.586L61.804 66.143H61.8ZM12.5 37.403L21.007 45.253C22.9892 47.1972 24.992 49.1203 27.015 51.022L12.5 64.15V37.402V37.403ZM13.042 33.379L15.594 30.867V36.855L12.604 34.096C12.694 33.828 12.838 33.579 13.042 33.379ZM18.094 17.742C18.094 17.414 18.361 17.147 18.689 17.147H57.278C57.607 17.147 57.873 17.414 57.873 17.742V38.902C56.271 40.942 43.767 52.152 39.575 55.393C38.952 55.876 38.175 56.106 37.388 56.056C36.7155 56.0149 36.0727 55.7642 35.55 55.339C31.73 52.229 19.594 40.623 18.094 38.564V17.742ZM36.786 10.015C37.136 9.67 37.596 9.498 38.056 9.498C38.518 9.498 38.978 9.67 39.328 10.015L44.037 14.647H32.077L36.786 10.015ZM60.373 30.723L63.073 33.38C63.308 33.61 63.468 33.905 63.55 34.222L60.373 37.037V30.723ZM60.373 27.214V17.742C60.3719 16.9215 60.0455 16.1349 59.4653 15.5547C58.8851 14.9745 58.0985 14.6481 57.278 14.647H47.603L41.082 8.231C39.414 6.591 36.7 6.588 35.032 8.231L28.511 14.647H18.689C17.8685 14.6481 17.0819 14.9745 16.5017 15.5547C15.9215 16.1349 15.5951 16.9215 15.594 17.742V27.358L11.288 31.595C10.8812 31.9974 10.558 32.4762 10.337 33.0039C10.1159 33.5316 10.0014 34.0979 10 34.67V64.33C10 65.096 10.218 65.804 10.568 66.428L10.507 66.385C10.507 66.385 12.181 69.645 15.46 71.178C16.019 71.435 16.533 71.472 17.15 71.472H64.638C65.7818 71.4707 66.8784 71.0156 67.687 70.2066C68.4956 69.3976 68.9502 68.3008 68.951 67.157V37.497C68.9497 36.9252 68.8353 36.3594 68.6144 35.832C68.3935 35.3046 68.0705 34.8261 67.664 34.424L60.373 27.215V27.214Z" fill="#1F1C4F"/>
</svg>
