<svg width="78" height="78" viewBox="0 0 78 78" fill="none" xmlns="http://www.w3.org/2000/svg">
<path fill-rule="evenodd" clip-rule="evenodd" d="M38.268 68.037C21.854 68.037 8.50002 54.683 8.50002 38.27C8.50002 21.857 21.854 8.502 38.268 8.502C54.681 8.502 68.036 21.855 68.036 38.269C68.036 54.683 54.68 68.037 38.268 68.037ZM65.437 20.895C59.697 11.947 49.666 6 38.267 6C20.477 6 6.00002 20.475 6.00002 38.268C5.99325 45.134 8.18955 51.8211 12.266 57.346C18.006 66.3 28.039 72.25 39.443 72.25C57.235 72.25 71.709 57.774 71.709 39.983C71.7151 33.1131 69.5167 26.4224 65.437 20.895Z" fill="#1F1C4F"/>
<path fill-rule="evenodd" clip-rule="evenodd" d="M29.224 31.67C29.224 32.4869 28.8995 33.2703 28.3219 33.8479C27.7442 34.4255 26.9608 34.75 26.144 34.75C25.3271 34.75 24.5437 34.4255 23.9661 33.8479C23.3885 33.2703 23.064 32.4869 23.064 31.67C23.064 30.8531 23.3885 30.0697 23.9661 29.4921C24.5437 28.9145 25.3271 28.59 26.144 28.59C26.9608 28.59 27.7442 28.9145 28.3219 29.4921C28.8995 30.0697 29.224 30.8531 29.224 31.67ZM53.222 31.67C53.222 32.4871 52.8974 33.2708 52.3196 33.8486C51.7418 34.4264 50.9581 34.751 50.141 34.751C49.3238 34.751 48.5402 34.4264 47.9624 33.8486C47.3846 33.2708 47.06 32.4871 47.06 31.67C47.06 30.8529 47.3846 30.0692 47.9624 29.4914C48.5402 28.9136 49.3238 28.589 50.141 28.589C50.9581 28.589 51.7418 28.9136 52.3196 29.4914C52.8974 30.0692 53.222 30.8529 53.222 31.67Z" fill="#1F1C4F"/>
<path fill-rule="evenodd" clip-rule="evenodd" d="M52.161 46L54.675 47.637C54.456 47.974 49.192 55.894 38.346 55.959C27.482 55.894 22.22 47.974 22 47.637L24.515 46.004C24.699 46.281 29.162 52.903 38.346 52.959C47.513 52.903 51.976 46.281 52.161 46Z" fill="#1F1C4F"/>
</svg>
