<svg width="78" height="78" viewBox="0 0 78 78" fill="none" xmlns="http://www.w3.org/2000/svg">
<path fill-rule="evenodd" clip-rule="evenodd" d="M30.763 51.597L23.688 44.522L25.809 42.401L32.884 49.476L30.763 51.597Z" fill="#1F1C4F"/>
<path fill-rule="evenodd" clip-rule="evenodd" d="M35.4419 46.919L28.3669 39.844L30.4879 37.723L37.5629 44.798L35.4419 46.919Z" fill="#1F1C4F"/>
<path fill-rule="evenodd" clip-rule="evenodd" d="M40.1209 42.24L33.0459 35.165L35.1669 33.044L42.2419 40.119L40.1209 42.24Z" fill="#1F1C4F"/>
<path fill-rule="evenodd" clip-rule="evenodd" d="M44.7999 37.562L37.7239 30.487L39.8459 28.366L46.9199 35.441L44.7999 37.562Z" fill="#1F1C4F"/>
<path fill-rule="evenodd" clip-rule="evenodd" d="M49.4778 32.883L42.4028 25.808L44.5238 23.687L51.5988 30.762L49.4778 32.883Z" fill="#1F1C4F"/>
<path fill-rule="evenodd" clip-rule="evenodd" d="M65.8409 30.134C63.9449 37.794 59.1609 45.752 52.3719 52.542C45.5819 59.332 37.6239 64.115 29.9649 66.011C23.0949 67.711 17.2609 66.881 13.3609 63.693L25.2069 51.847L23.4389 50.079L11.5939 61.925C8.41388 58.024 7.58688 52.196 9.28488 45.332C11.1809 37.672 15.9649 29.715 22.7549 22.924C31.9739 13.704 42.9889 8.57003 51.7359 8.57003C55.4309 8.57003 58.7129 9.50103 61.2909 11.414L49.5849 23.121L51.3519 24.888L63.1469 13.094C66.6429 16.989 67.6059 23.002 65.8409 30.134ZM59.4619 7.39303C55.3729 5.71803 50.2989 5.53803 44.6419 6.93803C36.5469 8.94103 28.1739 13.958 21.0679 21.066C13.9599 28.173 8.94288 36.546 6.93888 44.641C4.87988 52.96 6.23188 60.027 10.7459 64.54C10.9679 64.762 11.2099 64.959 11.4449 65.166C11.4569 65.179 15.7169 68.915 19.8029 70.4C21.9379 71.176 24.3069 71.553 26.8319 71.553C36.3099 71.552 47.9769 66.218 57.6529 56.542C64.7609 49.435 69.7789 41.062 71.7809 32.967C73.8339 24.671 72.4939 17.621 68.0109 13.106C64.8649 9.93703 62.7649 8.74603 59.4619 7.39303Z" fill="#1F1C4F"/>
</svg>
