<svg width="78" height="78" viewBox="0 0 78 78" fill="none" xmlns="http://www.w3.org/2000/svg">
<path fill-rule="evenodd" clip-rule="evenodd" d="M25.198 32.736L27.486 71.82C27.512 72.182 27.259 72.287 26.926 72.296L20.279 72.418C19.968 72.427 19.703 72.277 19.716 71.961L22.166 32.88C22.204 31.89 21.563 30.986 20.493 30.518C18.641 29.662 17.686 28.855 16.811 27.791C15.975 26.775 15.512 25.174 15.503 24.594C15.5 24.4517 15.4983 24.3094 15.498 24.167L15.5 6.80902C15.502 6.70802 15.537 6.59902 15.572 6.50102C15.894 5.77002 16.668 5.50002 17.312 5.50002C18.286 5.50002 19.11 6.09902 19.11 6.80902V24.167C19.11 24.4985 19.2417 24.8165 19.4761 25.0509C19.7105 25.2853 20.0284 25.417 20.36 25.417C20.6915 25.417 21.0094 25.2853 21.2438 25.0509C21.4783 24.8165 21.61 24.4985 21.61 24.167V6.80902C21.61 6.09902 22.433 5.49902 23.407 5.49902C24.382 5.49902 25.205 6.09902 25.205 6.80902V24.167C25.205 24.4985 25.3367 24.8165 25.5711 25.0509C25.8055 25.2853 26.1234 25.417 26.455 25.417C26.7865 25.417 27.1044 25.2853 27.3388 25.0509C27.5733 24.8165 27.705 24.4985 27.705 24.167V6.80902C27.705 6.09902 28.529 5.49902 29.503 5.49902C30.478 5.49902 31.301 6.09902 31.301 6.79702L31.138 24.136H31.143C30.881 27.622 28.256 29.516 26.633 30.361C25.666 30.865 25.116 31.776 25.198 32.736ZM35.71 6.80902C35.71 5.14502 34.169 3.00502 31.852 3.00102H29.51L29.503 3.00002H29.48C28.299 3.00802 27.229 3.43702 26.455 4.12802C25.675 3.43202 24.598 3.00002 23.407 3.00002C22.217 3.00002 21.139 3.43202 20.36 4.12802C19.58 3.43202 18.502 3.00002 17.312 3.00002C14.942 3.00002 13.014 4.70902 13.014 6.80902V23.839C12.972 24.329 12.667 29.822 19.491 32.808C19.5521 32.8339 19.6099 32.8672 19.663 32.907L17.195 72.28C17.172 72.909 17.415 73.517 17.882 73.992C18.461 74.582 19.322 74.918 20.254 74.918L29.028 74.92C29.992 74.901 30.873 74.405 31.445 73.77C31.894 73.274 32.112 72.653 32.059 72.023L29.753 32.635C29.7809 32.6137 29.8107 32.595 29.842 32.579C31.671 31.626 35.902 28.807 35.711 23.206L35.71 6.80902ZM50.89 71.989L53.173 37.639C53.252 36.433 52.229 35.417 50.846 35.327C48.595 35.18 46.91 34.537 46.101 33.517C45.503 32.764 45.317 31.76 45.534 30.449L48.408 13.059L48.439 12.896C48.746 11.008 50.218 6.51002 57.221 5.50602C57.279 5.49798 57.3379 5.49798 57.396 5.50602L58.68 71.936C58.682 72.221 58.51 72.308 58.307 72.311L51.31 72.413C50.975 72.417 50.874 72.183 50.89 71.989ZM61.67 5.15702C61.658 4.57702 61.394 4.03902 60.923 3.63902C60.475 3.25702 58.653 2.77702 56.86 3.03202C47.976 4.30502 46.275 10.596 45.971 12.483L43.063 30.043C42.729 32.061 43.091 33.753 44.138 35.073C45.737 37.088 48.557 37.68 50.65 37.82L48.34 72.602C48.3232 72.8853 48.367 73.1688 48.4684 73.4339C48.5698 73.6989 48.7264 73.9393 48.928 74.139C49.414 74.639 50.124 74.919 50.864 74.919H60.555C61.932 74.865 62.994 73.777 62.974 72.589L61.671 5.15702H61.67Z" fill="#1F1C4F"/>
<path fill-rule="evenodd" clip-rule="evenodd" d="M27.4849 71.82C27.5109 72.182 27.2579 72.287 26.9259 72.296L20.2779 72.418C19.9679 72.427 19.7019 72.277 19.7149 71.961L20.4019 61H26.8519L27.4849 71.82ZM58.6819 71.937C58.6839 72.221 58.5119 72.308 58.3089 72.311L51.3119 72.413C51.0139 72.417 50.9019 72.233 50.8909 72.055L51.6219 61H58.4709L58.6819 71.936V71.937Z" fill="#1F1C4F"/>
</svg>
