<svg width="78" height="78" viewBox="0 0 78 78" fill="none" xmlns="http://www.w3.org/2000/svg">
<path fill-rule="evenodd" clip-rule="evenodd" d="M56.4719 68.4324H52.9119H16.0879C14.1099 68.4324 12.4999 66.8234 12.4999 64.8444V9.57839H56.4719V63.3174C56.6249 66.4534 57.6539 67.7374 59.4509 68.4324H56.4719ZM58.9719 56.4784V6.99939H9.99988V64.7664C9.99988 68.1234 12.7319 70.8544 16.0879 70.8544H58.9719V70.8444H63.1169C65.4619 70.8444 67.3649 68.9424 67.3649 66.5964V56.4784H58.9719Z" fill="#1F1C4F"/>
<path fill-rule="evenodd" clip-rule="evenodd" d="M18.655 18.872H50.317V15.871H18.655V18.872Z" fill="#1F1C4F"/>
<path fill-rule="evenodd" clip-rule="evenodd" d="M18.655 27.169H50.317V24.169H18.655V27.169Z" fill="#1F1C4F"/>
<path fill-rule="evenodd" clip-rule="evenodd" d="M18.655 35.467H50.317V32.467H18.655V35.467Z" fill="#1F1C4F"/>
<path fill-rule="evenodd" clip-rule="evenodd" d="M18.6539 43.764H39.8299V40.764H18.6539V43.764Z" fill="#1F1C4F"/>
</svg>
