<svg width="78" height="78" viewBox="0 0 78 78" fill="none" xmlns="http://www.w3.org/2000/svg">
<path fill-rule="evenodd" clip-rule="evenodd" d="M8 37.667L26.612 19.14C26.9804 18.7733 27.4765 18.5636 27.9962 18.555C28.5159 18.5464 29.0187 18.7396 29.399 19.094L40.185 29.15C40.3431 29.2968 40.5517 29.3772 40.7675 29.3744C40.9833 29.3716 41.1897 29.2859 41.344 29.135L63.268 7.69098H50.443L50.398 4.00098H67.75C68.705 4.00098 69.478 4.77298 69.478 5.72698V22.9H65.838L65.876 9.98798L42.012 33.33C41.6936 33.6422 41.267 33.8196 40.821 33.8252C40.3751 33.8308 39.9442 33.6642 39.618 33.36L28.496 22.99C28.3794 22.8811 28.225 22.8218 28.0655 22.8246C27.9059 22.8274 27.7537 22.892 27.641 23.005L10.446 40.123L8 37.667Z" fill="#1F1C4F"/>
<path fill-rule="evenodd" clip-rule="evenodd" d="M51.614 68.901H62.669V34.671H51.614V68.9V68.901ZM38.0601 68.901H49.1151V42.52H38.0601V68.902V68.901ZM24.5061 68.901H35.5601V50.926H24.5061V68.901ZM10.9511 68.901H22.0061V58.777H10.9511V68.901ZM63.411 32.171C63.042 32.163 58.843 32.163 50.813 32.171C49.875 32.171 49.1151 32.931 49.1151 33.868V40.019H37.2581C36.3201 40.019 35.5601 40.779 35.5601 41.717V48.427H23.703C22.766 48.427 22.0061 49.187 22.0061 50.124V56.277H10.1491C9.21105 56.277 8.45105 57.037 8.45105 57.975C8.44405 66.736 8.44405 71.204 8.45105 71.378C8.46105 71.64 8.64705 71.711 8.97105 71.871C10.1611 72.456 12.9971 73.003 13.5641 73.003H68.975V35.47C68.975 34.736 66.233 33.103 64.599 32.433C64.151 32.249 63.9641 32.181 63.411 32.17V32.171Z" fill="#1F1C4F"/>
</svg>
