<svg width="78" height="78" viewBox="0 0 78 78" fill="none" xmlns="http://www.w3.org/2000/svg">
<path fill-rule="evenodd" clip-rule="evenodd" d="M24.855 57.164V40.328H28.081V49.263L31.86 44.968H35.834L31.666 49.424L36.133 57.164H32.653L29.585 51.686L28.081 53.26V57.164H24.855Z" fill="#1F1C4F"/>
<path fill-rule="evenodd" clip-rule="evenodd" d="M40.5748 50.813C40.5748 52.107 40.8248 53.054 41.3268 53.656C41.8268 54.256 42.4468 54.557 43.1818 54.557C43.9708 54.557 44.6368 54.249 45.1798 53.632C45.7238 53.017 45.9958 52.103 45.9958 50.894C45.9958 49.63 45.7358 48.693 45.2148 48.081C44.6938 47.467 44.0348 47.161 43.2398 47.161C42.4658 47.161 41.8278 47.461 41.3268 48.063C40.8258 48.664 40.5748 49.581 40.5748 50.813ZM37.6918 57.968L41.3788 58.416C41.4388 58.844 41.5818 59.14 41.8038 59.301C42.1098 59.531 42.5918 59.645 43.2508 59.645C44.0928 59.645 44.7248 59.518 45.1458 59.266C45.4288 59.097 45.6438 58.826 45.7888 58.45C45.8878 58.183 45.9378 57.688 45.9378 56.97V55.188C44.9728 56.507 43.7558 57.164 42.2858 57.164C40.6478 57.164 39.3498 56.471 38.3928 55.086C37.6418 53.992 37.2668 52.627 37.2668 50.998C37.2668 48.953 37.7598 47.392 38.7428 46.312C39.7268 45.232 40.9498 44.692 42.4118 44.692C43.9208 44.692 45.1648 45.355 46.1448 46.678V44.968H49.1648V55.912C49.1648 57.352 49.0468 58.428 48.8088 59.139C48.5718 59.851 48.2388 60.411 47.8088 60.816C47.3808 61.221 46.8088 61.54 46.0928 61.769C45.3768 61.999 44.4718 62.115 43.3768 62.115C41.3098 62.115 39.8438 61.76 38.9788 61.051C38.1128 60.343 37.6808 59.446 37.6808 58.358C37.6808 58.252 37.6848 58.122 37.6908 57.968" fill="#1F1C4F"/>
<path fill-rule="evenodd" clip-rule="evenodd" d="M46.7118 18.294L44.4228 26.684C41.4634 25.741 38.3531 25.3621 35.2538 25.567C34.7532 25.5993 34.2536 25.6466 33.7558 25.709L31.7328 18.294C31.5458 17.608 31.6568 16.908 32.0298 16.422C32.1628 16.247 32.2648 16.193 32.2808 16.189H46.1608C46.1808 16.195 46.2818 16.247 46.4158 16.422C46.7878 16.91 46.8988 17.61 46.7118 18.294ZM46.1638 13.69H27.5538C26.7088 13.69 25.9138 14.12 25.3158 14.903C24.4728 16.006 24.2038 17.52 24.5938 18.951L27.5988 29.965L28.8858 29.477C30.9775 28.6808 33.1772 28.2044 35.4108 28.064C38.6157 27.85 41.8291 28.3309 44.8308 29.474L46.1198 29.965L49.1238 18.953C49.5148 17.52 49.2448 16.006 48.4018 14.905C47.8038 14.121 47.0088 13.69 46.1638 13.69Z" fill="#1F1C4F"/>
<path fill-rule="evenodd" clip-rule="evenodd" d="M46.0689 69.847H27.6369C26.6744 69.8452 25.7221 69.6493 24.837 69.2709C23.952 68.8925 23.1523 68.3396 22.4859 67.645C18.2709 63.235 14.1799 55.474 14.5129 49.172C14.6796 46.133 15.4628 43.1597 16.8149 40.433C18.167 37.7062 20.0597 35.2831 22.3779 33.311L22.9849 32.796L19.5809 20.318C18.7689 17.335 19.3679 14.134 21.1859 11.753C22.7659 9.686 25.0839 8.5 27.5479 8.5H46.1579C48.6219 8.5 50.9399 9.686 52.5199 11.753C54.3379 14.133 54.9379 17.335 54.1249 20.318L50.7179 32.81L51.3209 33.324C53.7935 35.4281 55.7805 38.0433 57.1451 40.9894C58.5096 43.9354 59.2192 47.1423 59.2249 50.389C59.2249 56.198 55.2129 63.451 51.2499 67.613C50.5815 68.3153 49.7779 68.8753 48.8876 69.2592C47.9973 69.6431 47.0385 69.843 46.0689 69.847ZM58.2769 31.949L61.2709 20.975C62.2869 17.245 61.5279 13.231 59.2399 10.235C57.1849 7.545 54.1419 6 50.8919 6H27.5539C24.3039 6 21.2619 7.544 19.2059 10.236C16.9179 13.232 16.1589 17.246 17.1759 20.975L20.1649 31.933C15.3075 36.3432 12.3824 42.489 12.0229 49.04C11.6349 56.377 16.2409 64.723 20.6859 69.373C21.5862 70.311 22.6664 71.0579 23.8619 71.5688C25.0575 72.0798 26.3438 72.3445 27.6439 72.347H50.8029C52.1111 72.3424 53.4048 72.0733 54.6063 71.5561C55.8079 71.0388 56.8925 70.284 57.7949 69.337C62.1009 64.815 66.4589 56.854 66.4589 50.389C66.4531 46.9153 65.7224 43.481 64.3135 40.3057C62.9046 37.1305 60.8486 34.2843 58.2769 31.949Z" fill="#1F1C4F"/>
</svg>
