<svg width="78" height="78" viewBox="0 0 78 78" fill="none" xmlns="http://www.w3.org/2000/svg">
<path fill-rule="evenodd" clip-rule="evenodd" d="M40.8909 24.2231L44.4889 18.0061C44.6009 17.8111 44.8959 17.8691 44.9289 18.0911L45.9619 25.1991C45.9691 25.2469 45.9906 25.2914 46.0237 25.3268C46.0567 25.3622 46.0997 25.3867 46.1469 25.3971L53.1719 26.8971C53.2203 26.9072 53.2642 26.9322 53.2977 26.9686C53.3311 27.005 53.3523 27.0509 53.3584 27.0999C53.3644 27.1489 53.355 27.1986 53.3315 27.242C53.3079 27.2855 53.2714 27.3204 53.2269 27.3421L46.7869 30.5211C46.7432 30.5425 46.7072 30.5768 46.6836 30.6193C46.66 30.6619 46.65 30.7106 46.6549 30.7591L47.3979 37.9031C47.4033 37.9519 47.3932 38.0013 47.3692 38.0442C47.3451 38.0871 47.3083 38.1214 47.2638 38.1423C47.2193 38.1632 47.1693 38.1697 47.121 38.1609C47.0726 38.1521 47.0282 38.1283 46.9939 38.0931L41.9799 32.9501C41.9462 32.9153 41.9026 32.8917 41.855 32.8826C41.8074 32.8735 41.7582 32.8792 41.7139 32.899L35.1479 35.8131C35.1031 35.8332 35.053 35.8388 35.0048 35.8291C34.9566 35.8194 34.9127 35.7948 34.8791 35.7589C34.8455 35.723 34.8239 35.6775 34.8174 35.6288C34.811 35.58 34.8199 35.5305 34.8429 35.4871L38.1849 29.1271C38.2073 29.0844 38.216 29.036 38.21 28.9882C38.2039 28.9404 38.1833 28.8957 38.1509 28.8601L33.3509 23.5161C33.3181 23.4795 33.2974 23.4335 33.2918 23.3847C33.2862 23.3358 33.296 23.2864 33.3197 23.2433C33.3434 23.2003 33.38 23.1656 33.4243 23.1443C33.4686 23.1229 33.5184 23.1158 33.5669 23.1241L40.6469 24.3381C40.6946 24.3463 40.7437 24.3397 40.7876 24.3192C40.8314 24.2986 40.8678 24.265 40.8919 24.2231" fill="#1F1C4F"/>
<path fill-rule="evenodd" clip-rule="evenodd" d="M27.249 52.284L33.16 56.902L34.699 54.931L28.788 50.314L27.249 52.284Z" fill="#1F1C4F"/>
<path fill-rule="evenodd" clip-rule="evenodd" d="M18.8049 45.689L24.7159 50.306L26.2549 48.336L20.3439 43.719L18.8049 45.689Z" fill="#1F1C4F"/>
<path fill-rule="evenodd" clip-rule="evenodd" d="M39.005 58.295L37.232 56.91L35.692 58.88L37.466 60.266L28.973 71.139L23.831 67.122C26.556 63.582 25.916 58.482 22.39 55.727C18.862 52.971 13.758 53.586 10.984 57.087L6.00498 53.197L14.499 42.325L16.272 43.711L17.811 41.741L16.037 40.356L42.088 7.00502L65.056 24.945L39.005 58.295ZM51.397 5.02402C51.1578 4.80614 50.8435 4.68933 50.52 4.69809C50.1966 4.70685 49.8891 4.8405 49.662 5.07102L47.062 7.71802L42.642 4.26602C42.5126 4.16487 42.3646 4.0902 42.2064 4.04626C42.0482 4.00232 41.8829 3.98998 41.7199 4.00995C41.557 4.02991 41.3995 4.08179 41.2566 4.16262C41.1137 4.24345 40.9881 4.35164 40.887 4.48102L3.26498 52.645C3.06112 52.9063 2.96936 53.2378 3.00986 53.5667C3.05037 53.8956 3.21982 54.195 3.48098 54.399L10.517 59.896C10.6608 60.008 10.8273 60.0873 11.0049 60.1282C11.1826 60.1691 11.367 60.1707 11.5453 60.1329C11.7236 60.0951 11.8915 60.0188 12.0373 59.9093C12.183 59.7998 12.303 59.6598 12.389 59.499C12.558 59.183 12.731 58.912 12.919 58.672C13.8422 57.4921 15.1958 56.7267 16.6828 56.5439C18.1698 56.3611 19.6685 56.7758 20.85 57.697C22.0293 58.6208 22.7942 59.9746 22.977 61.4615C23.1597 62.9484 22.7455 64.4471 21.825 65.629C21.637 65.869 21.417 66.103 21.15 66.344C21.0145 66.4661 20.9074 66.6164 20.8363 66.7844C20.7651 66.9523 20.7317 67.1338 20.7383 67.3161C20.7448 67.4984 20.7913 67.677 20.8743 67.8394C20.9574 68.0018 21.075 68.144 21.219 68.256L28.419 73.879C28.5481 73.9805 28.6961 74.0554 28.8543 74.0994C29.0125 74.1435 29.1779 74.1559 29.3409 74.1358C29.5039 74.1157 29.6613 74.0636 29.8041 73.9825C29.9469 73.9013 30.0723 73.7928 30.173 73.663L74.81 28.163C74.9274 28.0431 75.0195 27.9008 75.0808 27.7446C75.1421 27.5884 75.1713 27.4214 75.1667 27.2536C75.1622 27.0859 75.1239 26.9207 75.0542 26.7681C74.9845 26.6154 74.8848 26.4783 74.761 26.365L51.397 5.02402Z" fill="#1F1C4F"/>
</svg>
