<svg xmlns="http://www.w3.org/2000/svg" viewBox="0 0 78 78" width="78" height="78" fill="none"><g fill="none" fill-rule="evenodd"><path fill="#1f1c4f" d="M15.1504 33.873H6V31.373H15.1504V33.873Z"></path><path fill="#1f1c4f" d="M71.126 33.873H61.9766V31.373H71.126V33.873Z"></path><path fill="#1f1c4f" d="M22.8906 17.125L21.124 18.8916L14.6543 12.4209L16.4219 10.6533L22.8906 17.125Z"></path><path fill="#1f1c4f" d="M62.4727 12.4219L56.0029 18.8916L54.2354 17.124L60.7051 10.6543L62.4727 12.4219Z"></path><path fill="#1f1c4f" d="M39.8135 11.1504H37.3135V2.00098H39.8135V11.1504Z"></path><path fill="#1f1c4f" d="M46.0968 60.9717L46.0079 60.9697C45.5887 64.6654 42.9012 67.5292 39.6534 67.5293C36.7305 67.5291 32.1257 65.5263 30.6056 61.6367C30.3517 61.1251 30.1489 60.5763 30.0001 60H16.0763C16.0763 60 15.9052 55.6887 16.0763 54.875C16.5598 52.5757 20.5344 50.6378 20.5607 50.625V40.875C20.5607 32.9538 26.2776 26.2974 34.0148 24.4102V21.75C34.0148 19.4028 36.0232 17.5 38.5001 17.5C40.9769 17.5001 42.9845 19.4028 42.9845 21.75V24.4102C50.7217 26.2974 55.4396 32.9537 55.4396 40.875V51.625C55.4845 51.6469 59.4416 53.5812 59.9239 55.875C60.0949 56.6883 59.9241 59.9964 59.9239 60H46.0968V60.9717ZM32.6066 60C33.267 61.7775 34.6746 63.0194 36.3126 63.0195C37.9517 63.0195 39.3592 61.7784 40.0187 60H32.6066ZM37.5011 27C35.6358 27 34.1219 27.3104 34.1114 27.3125C28.2648 28.8338 23.9445 34.1989 23.9445 40.584V52.3613C23.9253 52.3633 22.5523 52.5091 21.5861 53.7871C20.615 55.0716 20.556 55.9963 20.5558 56H54.4454C54.4454 56 54.4455 54.9999 53.4728 54C52.5059 53.0062 51.0743 52.3691 51.0568 52.3613V40.584C51.0568 34.1989 46.7364 28.8338 40.8898 27.3125C38.913 27.0003 39.3722 27 37.5011 27Z"></path></g></svg>
