<svg width="78" height="78" viewBox="0 0 78 78" fill="none" xmlns="http://www.w3.org/2000/svg">
<path fill-rule="evenodd" clip-rule="evenodd" d="M47.237 46.492V51.463H28.479C28.682 49.584 29.292 47.804 30.307 46.121C31.323 44.439 33.329 42.208 36.325 39.428C38.737 37.18 40.215 35.658 40.762 34.858C41.499 33.753 41.866 32.661 41.866 31.582C41.866 30.388 41.546 29.472 40.905 28.83C40.264 28.19 39.378 27.87 38.249 27.87C37.132 27.87 36.243 28.205 35.583 28.878C34.923 29.551 34.542 30.668 34.44 32.229L29.108 31.696C29.425 28.751 30.423 26.638 32.098 25.356C33.774 24.073 35.868 23.431 38.382 23.431C41.137 23.431 43.301 24.174 44.876 25.661C46.45 27.144 47.236 28.992 47.236 31.201C47.2408 32.4297 47.0117 33.648 46.561 34.791C46.11 35.927 45.395 37.117 44.419 38.361C43.769 39.186 42.602 40.374 40.915 41.922C39.225 43.472 38.157 44.5 37.705 45.008C37.2914 45.4649 36.9245 45.962 36.61 46.492H47.237Z" fill="#1F1C4F"/>
<path fill-rule="evenodd" clip-rule="evenodd" d="M38.268 68.037C21.855 68.037 8.50001 54.683 8.50001 38.269C8.50001 21.855 21.855 8.502 38.268 8.502C54.681 8.502 68.036 21.855 68.036 38.269C68.036 54.683 54.681 68.037 38.268 68.037ZM65.438 20.895C59.697 11.947 49.666 6 38.268 6C20.476 6 6.00001 20.474 6.00001 38.267C5.9936 45.1333 8.18985 51.8205 12.266 57.346C18.006 66.3 28.039 72.25 39.443 72.25C57.235 72.25 71.709 57.775 71.709 39.983C71.715 33.1132 69.517 26.4227 65.438 20.895Z" fill="#1F1C4F"/>
</svg>
