<svg width="78" height="78" viewBox="0 0 78 78" fill="none" xmlns="http://www.w3.org/2000/svg">
<path fill-rule="evenodd" clip-rule="evenodd" d="M43.3734 45.9736C43.3734 42.3836 40.4634 39.4736 36.8734 39.4736C33.2834 39.4736 30.3734 42.3836 30.3734 45.9736C30.3734 48.2736 31.5704 50.2896 33.3734 51.4446V56.9736C33.3734 58.9066 34.9404 60.4736 36.8734 60.4736C38.8064 60.4736 40.3734 58.9066 40.3734 56.9736V51.4446C42.1754 50.2896 43.3734 48.2736 43.3734 45.9736Z" fill="#1F1C4F"/>
<path fill-rule="evenodd" clip-rule="evenodd" d="M57.268 63.4677C57.268 65.8407 55.338 67.7707 52.966 67.7707H19.803C17.43 67.7707 15.5 65.8407 15.5 63.4677V31.2707H57.268V63.4677ZM62.997 32.6077L62.999 32.6037L59.186 29.3347L59.185 29.3357C58.833 28.9867 58.349 28.7707 57.815 28.7707H53.84V21.1667C53.84 11.7007 46.446 3.99969 37.357 3.99969C28.268 3.99969 20.873 11.7007 20.873 21.1667V21.5837H24.873V21.1667C24.873 13.9067 30.474 7.99969 37.357 7.99969C44.24 7.99969 49.84 13.9067 49.84 21.1667V28.7707H14.939C13.87 28.7707 13 29.6397 13 30.7097V63.4677C13 63.6017 13.012 63.7317 13.02 63.8637C13.019 63.8637 13.013 63.8607 13.013 63.8607C13.013 63.8607 13.017 63.9707 13.035 64.1577C13.035 64.1607 13.036 64.1637 13.036 64.1657C13.183 65.6597 14.289 72.2587 22.237 73.4197C22.691 73.5157 23.162 73.5687 23.645 73.5687H56.808C60.559 73.5687 63.611 70.5167 63.611 66.7657V34.0217C63.611 33.4647 63.373 32.9637 62.997 32.6077Z" fill="#1F1C4F"/>
</svg>
