<svg width="78" height="78" viewBox="0 0 78 78" fill="none" xmlns="http://www.w3.org/2000/svg">
<path fill-rule="evenodd" clip-rule="evenodd" d="M14.432 12.509C12.967 21.779 15.41 26.653 19.006 29.127C27.36 34.876 37.527 24.087 31.293 16.09C28.609 12.646 23.601 10.496 14.433 12.509" fill="#1F1C4F"/>
<path fill-rule="evenodd" clip-rule="evenodd" d="M19.361 49.883H56.058V45.325H19.361V49.883ZM51.658 52.713L50.005 69.833H25.415L23.73 52.383H42.929L51.693 52.439L51.658 52.713ZM43.48 11.962C45.525 8.98998 49.044 7.49598 53.972 7.49598C54.963 7.49598 56.028 7.57398 57.132 7.69398C54.934 9.35198 49.157 14.072 44.086 21.34C42.045 18.989 41.136 15.367 43.48 11.962ZM58.364 9.89498C59.139 15.803 57.922 20.057 54.719 22.554C51.741 24.876 48.422 24.498 45.988 22.969C50.699 16.148 56.106 11.625 58.364 9.89498ZM57.218 42.825H38.081C38.959 36 41.513 30.05 44.572 25.129C45.218 25.519 45.978 25.856 46.808 26.129C47.285 26.3 47.774 26.441 48.277 26.54C49.771 26.891 51.31 27.067 52.539 27.067C54.553 27.067 56.666 26.419 58.665 24.861C63.203 21.324 64.56 15.229 62.698 6.74698C62.6444 6.50116 62.5177 6.27729 62.3346 6.10472C62.1515 5.93216 61.9205 5.81896 61.672 5.77998C60.4354 5.57904 59.1944 5.406 57.95 5.26098C50.078 4.28298 44.523 6.05498 41.431 10.544C38.141 15.326 39.655 20.409 42.672 23.476C39.886 27.882 37.46 33.087 36.191 39.01C34.908 34.339 32.982 30.509 30.884 27.472C30.327 28.125 29.612 28.724 28.908 29.213C31.69 33.31 33.541 37.868 34.468 42.825H18.111C17.421 42.825 16.861 43.385 16.861 44.075V51.133C16.861 51.823 17.421 52.383 18.111 52.383H21.219L23.035 71.203C23.073 71.592 23.297 71.907 23.602 72.109C23.916 72.415 24.863 72.999 27.528 72.999H54.388C55.032 72.999 55.571 72.51 55.632 71.869L57.461 52.932L60.556 53.049C61.247 53.049 61.806 52.489 61.806 51.799V44.741C61.806 44.278 61.543 43.89 61.168 43.674C60.245 43.242 58.692 42.825 57.218 42.825Z" fill="#1F1C4F"/>
</svg>
