<svg width="78" height="78" viewBox="0 0 78 78" fill="none" xmlns="http://www.w3.org/2000/svg">
<path fill-rule="evenodd" clip-rule="evenodd" d="M40.115 40.343C40.1155 39.802 39.9752 39.2702 39.7077 38.8C39.4402 38.3297 39.0549 37.9372 38.5897 37.6611C38.1244 37.385 37.5953 37.2349 37.0544 37.2254C36.5134 37.216 35.9794 37.3476 35.5048 37.6073C35.0302 37.867 34.6314 38.2458 34.3477 38.7064C34.064 39.1671 33.9051 39.6937 33.8868 40.2343C33.8685 40.775 33.9912 41.3112 34.2431 41.79C34.4949 42.2688 34.8671 42.6738 35.323 42.965V45.614C35.323 46.0589 35.4997 46.4856 35.8143 46.8002C36.1289 47.1148 36.5556 47.2915 37.0005 47.2915C37.4454 47.2915 37.8721 47.1148 38.1867 46.8002C38.5013 46.4856 38.678 46.0589 38.678 45.614V42.964C39.1185 42.6831 39.4811 42.2957 39.7323 41.8376C39.9834 41.3795 40.1151 40.8655 40.115 40.343Z" fill="#1F1C4F"/>
<path fill-rule="evenodd" clip-rule="evenodd" d="M31.061 30.879C31.061 27.418 33.725 24.602 36.999 24.602C40.275 24.602 42.939 27.418 42.939 30.879V31.665H31.062V30.879H31.061ZM46.358 34.165V46.052C46.3566 47.1926 45.903 48.2862 45.0965 49.0929C44.2901 49.8995 43.1966 50.3534 42.056 50.355H31.946C30.8051 50.3537 29.7112 49.8999 28.9044 49.0933C28.0976 48.2866 27.6436 47.1929 27.642 46.052V34.165H46.358ZM28.562 31.665H25.142V46.052C25.1438 47.8557 25.8612 49.585 27.1366 50.8604C28.412 52.1358 30.1413 52.8531 31.945 52.855H42.055C43.8587 52.8531 45.588 52.1358 46.8634 50.8604C48.1388 49.585 48.8561 47.8557 48.858 46.052V31.665H45.44V30.879C45.44 26.039 41.654 22.102 37 22.102C32.346 22.102 28.561 26.039 28.561 30.879V31.665H28.562Z" fill="#1F1C4F"/>
<path fill-rule="evenodd" clip-rule="evenodd" d="M61.126 35.491C61.126 50.277 50.694 63.953 36.814 67.435C22.932 63.953 12.5 50.276 12.5 35.491V19.683L36.814 8.743L61.126 19.683V35.491ZM57.92 15.498L36.814 6L10 18.066V35.491C10 42.765 12.358 49.787 16.345 55.629L16.392 55.697C16.6587 56.0871 16.9331 56.4718 17.215 56.851C20.374 61.101 24.419 64.646 29.052 67.097C32.49 69.0415 36.1822 70.4975 40.022 71.423L40.313 71.493L40.604 71.423C55.724 67.798 67.125 52.988 67.125 36.974V19.551L57.92 15.498Z" fill="#1F1C4F"/>
</svg>
