<svg width="78" height="78" viewBox="0 0 78 78" fill="none" xmlns="http://www.w3.org/2000/svg">
<path fill-rule="evenodd" clip-rule="evenodd" d="M33.6215 46.0401L25.7985 40.6241C25.6605 40.5281 25.4705 40.5631 25.3745 40.7011L23.4445 43.4901C23.3495 43.6291 23.3835 43.8181 23.5215 43.9141L34.6565 51.6221C34.7955 51.7171 34.9845 51.6831 35.0805 51.5441L51.5555 27.7471C51.6505 27.6081 51.6165 27.4181 51.4775 27.3231L48.6675 25.3781C48.5285 25.2831 48.3395 25.3171 48.2435 25.4561L34.0455 45.9631C33.9495 46.1021 33.7595 46.1361 33.6215 46.0401Z" fill="#1F1C4F"/>
<path fill-rule="evenodd" clip-rule="evenodd" d="M37.7109 67.9121C21.2969 67.9121 7.94287 54.5581 7.94287 38.1441C7.94287 21.7301 21.2969 8.37712 37.7109 8.37712C54.1239 8.37712 67.4779 21.7301 67.4779 38.1441C67.4779 54.5581 54.1239 67.9121 37.7109 67.9121ZM64.8799 20.7701C59.1389 11.8221 49.1089 5.87512 37.7109 5.87512C19.9189 5.87512 5.44287 20.3501 5.44287 38.1431C5.44287 45.2761 7.77387 51.8731 11.7089 57.2211C17.4489 66.1751 27.4819 72.1251 38.8849 72.1251C56.6769 72.1251 71.1519 57.6501 71.1519 39.8581C71.1519 32.7201 68.8179 26.1201 64.8799 20.7701Z" fill="#1F1C4F"/>
</svg>
