<svg width="78" height="78" viewBox="0 0 78 78" fill="none" xmlns="http://www.w3.org/2000/svg">
<path fill-rule="evenodd" clip-rule="evenodd" d="M58.6119 32.593C58.6119 33.006 58.2929 33.341 57.8979 33.341H36.2619C35.7679 33.341 35.4229 32.828 35.5899 32.341L39.7979 18.063C39.844 17.9207 39.9335 17.7963 40.0539 17.7074C40.1742 17.6184 40.3193 17.5693 40.4689 17.567H57.8999C58.2939 17.567 58.6129 17.902 58.6129 18.315V32.593H58.6119Z" fill="#1F1C4F"/>
<path fill-rule="evenodd" clip-rule="evenodd" d="M52.153 50.036C52.1546 48.6804 52.6938 47.3808 53.6523 46.4223C54.6109 45.4638 55.9105 44.9246 57.266 44.923C58.6212 44.9251 59.9201 45.4646 60.8781 46.4231C61.836 47.3816 62.3747 48.6808 62.376 50.036C62.3747 51.391 61.836 52.6902 60.878 53.6485C59.92 54.6069 58.6211 55.1461 57.266 55.148C55.9106 55.1466 54.611 54.6077 53.6524 53.6493C52.6939 52.6909 52.1546 51.3914 52.153 50.036ZM49.653 50.036C49.653 54.233 53.069 57.648 57.266 57.648C61.463 57.648 64.876 54.233 64.876 50.036C64.876 45.838 61.463 42.423 57.266 42.423C53.069 42.423 49.653 45.838 49.653 50.036ZM8.53003 54.339C8.53082 54.976 8.78425 55.5868 9.23473 56.0373C9.68521 56.4878 10.296 56.7412 10.933 56.742C11.5697 56.7407 12.1798 56.487 12.6297 56.0365C13.0796 55.5861 13.3325 54.9756 13.333 54.339C13.3322 53.7026 13.0792 53.0925 12.6293 52.6424C12.1794 52.1924 11.5694 51.939 10.933 51.938C10.2963 51.9385 9.68582 52.1916 9.2355 52.6417C8.78518 53.0919 8.53182 53.7023 8.53103 54.339H8.53003Z" fill="#1F1C4F"/>
<path fill-rule="evenodd" clip-rule="evenodd" d="M46.012 50.207C46.012 44.002 51.06 38.953 57.265 38.953C63.47 38.953 68.519 44.003 68.519 50.207C68.519 56.412 63.469 61.46 57.265 61.46C51.06 61.46 46.012 56.412 46.012 50.207ZM31.142 47.197V31.202L35.988 16.1C36.2282 15.3443 36.7031 14.6848 37.3436 14.2172C37.9841 13.7497 38.757 13.4985 39.55 13.5H63.006V37.72C61.2071 36.8846 59.2474 36.4522 57.264 36.453C50.714 36.453 45.231 41.058 43.853 47.197H31.142ZM19.767 53.183C19.5934 51.9441 19.1592 50.756 18.493 49.697H43.537C43.532 49.868 43.512 50.035 43.512 50.207C43.512 51.231 43.642 52.223 43.859 53.183H19.767ZM4.5 54.383C4.50185 52.6782 5.17989 51.0438 6.38535 49.8384C7.59081 48.6329 9.22523 47.9549 10.93 47.953C12.6347 47.9551 14.269 48.6333 15.4744 49.8387C16.6798 51.0441 17.3579 52.6783 17.36 54.383C17.3581 56.0878 16.6801 57.7222 15.4747 58.9277C14.2692 60.1331 12.6348 60.8112 10.93 60.813C9.22523 60.8112 7.59081 60.1331 6.38535 58.9277C5.17989 57.7222 4.50185 56.0878 4.5 54.383ZM7.164 39.484C7.16393 38.6922 7.42518 37.9226 7.90722 37.2944C8.38927 36.6663 9.06515 36.2148 9.83 36.01L28.64 32.874V47.198H16.15C14.6336 46.0962 12.8074 45.5025 10.933 45.502C9.62948 45.5029 8.34221 45.7914 7.163 46.347V39.485L7.164 39.484ZM70.091 15.684C70.091 14.819 69.559 14.108 68.9 13.572L65.453 11H39.55C38.2271 10.997 36.9377 11.4156 35.8688 12.1951C34.8 12.9746 34.0074 14.0745 33.606 15.335L28.801 30.312L16.454 32.37V25.123C16.454 24.7252 16.296 24.3437 16.0147 24.0624C15.7334 23.7811 15.3518 23.623 14.954 23.623H10.481V26.623H13.454V32.87L9.364 33.552L9.262 33.574C7.94666 33.9063 6.77986 34.6681 5.94658 35.7387C5.1133 36.8093 4.66122 38.1274 4.662 39.484V48.079C3.81831 48.9081 3.14835 49.897 2.69128 50.988C2.23421 52.079 1.99921 53.2501 2 54.433C2 55.436 2.174 56.397 2.48 57.298C3.723 61.92 10.807 65.4 15.468 65.4C19.978 65.4 23.711 62.056 24.344 57.718H45.696C49.016 62.583 56.156 65.995 61.801 65.995C69.411 65.995 75.603 59.805 75.603 52.193C75.603 47.693 73.435 43.696 70.091 41.178V15.684Z" fill="#1F1C4F"/>
</svg>
