<svg width="24" height="24" viewBox="0 0 24 24" fill="none" xmlns="http://www.w3.org/2000/svg">
<path d="M16.123 2C16.2255 2 16.5 2 17 2.11523C18.7357 2.5424 19.9438 4.11164 20 6V12H22V16C22 18.2091 20.2091 20 18 20V22H16V20H8V22H6V20C3.79086 20 2 18.2091 2 16V12H18V6C17.9361 4.89842 17.1896 4.02258 16.0811 4.00098C15.2389 4.01757 14.5173 4.52405 14.1885 5.24707C14.5363 5.39723 14.853 5.61084 15.1211 5.87891C15.3997 6.15748 15.6207 6.48856 15.7715 6.85254C15.9221 7.21639 16 7.6062 16 8H10C10 7.60605 10.0778 7.21553 10.2285 6.85156C10.3793 6.48775 10.6004 6.15738 10.8789 5.87891C11.1575 5.60033 11.4886 5.37928 11.8525 5.22852C11.9401 5.19227 12.0289 5.15957 12.1191 5.13184C12.5365 3.44449 13.9923 2.16679 15.7695 2.01562C15.8557 2.00555 15.9454 2 16.0391 2C16.0529 2 16.0672 2.00084 16.0811 2.00098C16.095 2.00082 16.109 2 16.123 2Z" fill="#0000FF"/>
</svg>
