<svg width="24" height="24" viewBox="0 0 24 24" fill="none" xmlns="http://www.w3.org/2000/svg">
<path d="M18 8C20.2091 8 22 9.79086 22 12V22H20V18H4V22H2V12C2 9.79086 3.79086 8 6 8H18Z" fill="#0000FF"/>
<path d="M10 2C10.5523 2 11 2.44772 11 3V5C11 5.55228 10.5523 6 10 6H5C4.44772 6 4 5.55228 4 5V3C4 2.44772 4.44772 2 5 2H10Z" fill="#0000FF"/>
<path d="M19 2C19.5523 2 20 2.44772 20 3V5C20 5.55228 19.5523 6 19 6H14C13.4477 6 13 5.55228 13 5V3C13 2.44772 13.4477 2 14 2H19Z" fill="#0000FF"/>
</svg>
