<svg width="24" height="24" fill="none" xmlns="http://www.w3.org/2000/svg"><path d="M12 8a4 4 0 1 0 0-8 4 4 0 0 0 0 8Z" fill="#00F"/><path fill-rule="evenodd" clip-rule="evenodd" d="M12 9c3.338 0 10 1.519 10 4.533v5.934c0 1.321-1.28 2.355-3 3.1-.32.139-.655.267-1 .386v-3.286C18 17.893 14.002 17 12 17s-6 .893-6 2.667v.061c.225.104.483.21.773.316 1.547.562 3.416.88 4.747.944V21a1.5 1.5 0 1 1-.285 2.977c-1.537-.09-3.508-.431-5.235-1.024-2.199-.756-4-1.919-4-3.486v-5.934C2 10.52 8.662 9 12 9Zm2.5 4.5a2.5 2.5 0 1 1-5 0 2.5 2.5 0 0 1 5 0Z" fill="#00F"/></svg>