<svg width="24" height="24" viewBox="0 0 24 24" fill="none" xmlns="http://www.w3.org/2000/svg">
<path fill-rule="evenodd" clip-rule="evenodd" d="M0 4C0 2.89543 0.895431 2 2 2H22C23.1046 2 24 2.89543 24 4V20C24 21.1046 23.1046 22 22 22H2C0.895431 22 0 21.1046 0 20V4ZM5.5 14.5H9.5V13.5H11V15C11 15.55 10.55 16 10 16H5C4.45 16 4 15.55 4 15V9C4 8.45 4.45 8 5 8H10C10.55 8 11 8.45 11 9V10.5H9.5V9.5H5.5V14.5ZM14.5 14.5H18.5V13.5H20V15C20 15.55 19.55 16 19 16H14C13.45 16 13 15.55 13 15V9C13 8.45 13.45 8 14 8H19C19.55 8 20 8.45 20 9V10.5H18.5V9.5H14.5V14.5Z" fill="#0000FF"/>
</svg>
