<svg width="24" height="24" viewBox="0 0 24 24" fill="none" xmlns="http://www.w3.org/2000/svg">
<path d="M19.7778 2C20.3889 2 20.912 2.21759 21.3472 2.65278C21.7824 3.08796 22 3.61111 22 4.22222L22 19.7778C22 20.3889 21.7824 20.912 21.3472 21.3472C20.912 21.7824 20.3889 22 19.7778 22L4.22222 22C3.61111 22 3.08796 21.7824 2.65277 21.3472C2.21759 20.912 2 20.3889 2 19.7778L2 4.22222C2 3.61111 2.21759 3.08796 2.65278 2.65278C3.08796 2.21759 3.61111 2 4.22222 2L19.7778 2ZM4 4L4 20L14 20L14 4L4 4Z" fill="#1F1C4F"/>
</svg>
