<svg width="24" height="24" viewBox="0 0 24 24" fill="none" xmlns="http://www.w3.org/2000/svg">
<path d="M9.04883 10.75C9.21369 12.0716 9.80733 13.2587 10.6875 14.1689C10.6259 14.1939 10.563 14.216 10.5 14.2383C8.98118 13.7007 7.83626 12.3755 7.56348 10.75H9.04883Z" fill="#0000FF"/>
<path d="M16.4375 10.75C16.1647 12.3755 15.0188 13.7007 13.5 14.2383C13.4367 14.2159 13.3734 14.194 13.3115 14.1689C14.192 13.2586 14.7873 12.0718 14.9521 10.75H16.4375Z" fill="#0000FF"/>
<path d="M13.4375 10.75C13.2652 11.7765 12.7422 12.682 12 13.3477C11.2578 12.682 10.7357 11.7765 10.5635 10.75H13.4375Z" fill="#0000FF"/>
<path d="M10.6875 5.83008C9.80706 6.74043 9.21372 7.92818 9.04883 9.25H7.56348C7.83629 7.62435 8.98095 6.29825 10.5 5.76074C10.563 5.78302 10.6259 5.80512 10.6875 5.83008Z" fill="#0000FF"/>
<path d="M12 6.65137C12.7426 7.31712 13.2652 8.22312 13.4375 9.25H10.5635C10.7358 8.22315 11.2574 7.3171 12 6.65137Z" fill="#0000FF"/>
<path d="M13.5 5.76074C15.0191 6.29825 16.1647 7.62432 16.4375 9.25H14.9521C14.7872 7.92792 14.1922 6.74051 13.3115 5.83008C13.3735 5.80497 13.4367 5.78314 13.5 5.76074Z" fill="#0000FF"/>
<path fill-rule="evenodd" clip-rule="evenodd" d="M20 0C20.55 0 21.0204 0.196224 21.4121 0.587891C21.8038 0.979557 22 1.45 22 2V22C22 22.55 21.8038 23.0204 21.4121 23.4121C21.0204 23.8038 20.55 24 20 24H2V0H20ZM6 18V20H18V18H6ZM12 4C11.4821 4 10.9794 4.06606 10.5 4.18945C9.47803 4.45251 8.5622 4.97855 7.82715 5.69043C6.70107 6.78111 6 8.30849 6 10C6 11.7139 6.71974 13.2592 7.87207 14.3525C8.59944 15.0426 9.49868 15.5538 10.5 15.8115C10.9794 15.9349 11.4821 16 12 16C12.5179 16 13.0206 15.9349 13.5 15.8115C14.5018 15.5537 15.4004 15.0411 16.1279 14.3506C17.2798 13.2573 18 11.7135 18 10C18 8.28551 17.28 6.7399 16.127 5.64648C15.3218 4.8831 14.3059 4.33877 13.1748 4.11426C12.7949 4.03887 12.402 4 12 4Z" fill="#0000FF"/>
</svg>
