<svg xmlns="http://www.w3.org/2000/svg" width="24" height="24" fill="none">
<path fill="#00F" fill-rule="evenodd" d="M.99 15.975A101.66 101.66 0 0 0 3 24h6v-3h4v3h5.6l2.01-7.92L24 14.97V6.5h-2.61l-2.73-2.63c.04-.24.095-.475.165-.705.07-.23.145-.455.225-.675.04-.1.075-.21.105-.33a1.736 1.736 0 0 0-.48-1.635A1.736 1.736 0 0 0 17.4 0c-.96 0-1.855.21-2.685.63A6.098 6.098 0 0 0 12.6 2.4h-6c-1.84 0-3.4.64-4.68 1.92C.64 5.6 0 7.16 0 9c0 2.136.42 4.19.845 6.264l.145.711ZM6 7a1 1 0 0 1 1-1h5a1 1 0 1 1 0 2H7a1 1 0 0 1-1-1Zm12.5 3.25a1.25 1.25 0 1 1-2.5 0 1.25 1.25 0 0 1 2.5 0Z" clip-rule="evenodd" />
</svg>