<svg xmlns="http://www.w3.org/2000/svg" width="24" height="24" fill="none">
<path fillRule="evenodd" d="M24 14c0 3.073-1.155 5.877-3.056 8H3.056A11.955 11.955 0 0 1 0 14C0 7.373 5.373 2 12 2s12 5.373 12 12Zm-3.877-3.88-1.528 1.528c.262.735.405 1.527.405 2.352 0 1.277-.34 2.47-.936 3.5a1 1 0 0 0 1.731 1A8.963 8.963 0 0 0 21 14c0-1.39-.315-2.705-.877-3.88ZM15.88 5.877A9 9 0 0 0 4.204 18.501a1 1 0 0 0 1.732-1.002 7 7 0 0 1 8.416-10.094l1.528-1.528Zm2.827 2.83a1 1 0 0 0-1.414-1.414l-4.775 4.775a2 2 0 1 0 1.414 1.414l4.775-4.775Z" clipRule="evenodd" fill="#0000FF"/>
</svg>