<svg width="24" height="24" viewBox="0 0 24 24" fill="none" xmlns="http://www.w3.org/2000/svg">
<path d="M11.9998 11.9971V11.9981L13.9998 13.9981V13.9971L15.5367 15.5341C15.5365 15.5343 15.5369 15.5339 15.5367 15.5341L17.6575 17.6559C17.6577 17.6557 17.6573 17.6561 17.6575 17.6559L19.0722 19.0696C19.072 19.0698 19.0724 19.0694 19.0722 19.0696L21.6242 21.6226L20.21 23.0368L17.5156 20.3424C16.4657 21.038 15.2769 21.5406 13.9998 21.7999V19.7479C14.7342 19.5588 15.4279 19.2681 16.0648 18.8916L11.9998 14.8266V21L6.99976 16H1.99976V8H5.17319L1.22266 4.04947L2.63687 2.63525L11.9998 11.9971Z" fill="#0000FF"/>
<path d="M13.9998 11.1687L16.6562 13.8251C16.878 13.2597 16.9998 12.6441 16.9998 12C16.9998 9.94965 15.7657 8.18757 13.9998 7.41602V11.1687Z" fill="#0000FF"/>
<path d="M18.8932 16.0621L20.3441 17.513C21.3904 15.9325 21.9998 14.0374 21.9998 11.9999C21.9998 7.162 18.5642 3.12649 13.9998 2.19995V4.25195C17.4502 5.14004 19.9998 8.27224 19.9998 11.9999C19.9998 13.4828 19.5963 14.8715 18.8932 16.0621Z" fill="#0000FF"/>
<path d="M8.91541 6.08435L11.9998 9.1687V3L8.91541 6.08435Z" fill="#0000FF"/>
</svg>
