<svg width="78" height="78" viewBox="0 0 78 78" fill="none" xmlns="http://www.w3.org/2000/svg">
<path fill-rule="evenodd" clip-rule="evenodd" d="M24.482 43.035C24.092 43.495 23.606 43.812 23.03 43.999V38.183C23.729 38.441 24.259 38.773 24.599 39.191C25.011 39.696 25.216 40.298 25.216 40.995C25.216 41.777 24.971 42.455 24.482 43.035ZM18.794 31.752C18.4694 31.3041 18.2944 30.7652 18.294 30.212C18.294 29.608 18.476 29.056 18.84 28.556C19.165 28.1142 19.6085 27.7734 20.119 27.573V32.807C19.541 32.527 19.094 32.179 18.794 31.752ZM27.686 36.285C26.836 35.274 25.279 34.443 23.03 33.784V27.808C23.767 28.283 24.25 29.016 24.45 30.041L28.404 29.525C28.133 27.963 27.509 26.715 26.529 25.783C25.644 24.94 24.468 24.413 23.029 24.171V22.54H20.119V24.12C18.419 24.327 17.042 24.977 16.004 26.096C14.924 27.256 14.387 28.692 14.387 30.4C14.387 32.088 14.863 33.524 15.816 34.705C16.739 35.851 18.176 36.711 20.119 37.294V43.794C19.632 43.52 19.184 43.124 18.778 42.59C18.32 41.985 18.007 41.266 17.84 40.433L13.76 40.87C14.074 42.923 14.793 44.513 15.918 45.638C17.002 46.721 18.407 47.373 20.118 47.616V50.496H23.03V47.493C24.843 47.153 26.28 46.392 27.334 45.2C28.474 43.907 29.044 42.319 29.044 40.433C29.044 38.745 28.591 37.362 27.686 36.285Z" fill="#78BE20"/>
<path fill-rule="evenodd" clip-rule="evenodd" d="M36.545 29.543H62.498V26.543H36.545V29.543Z" fill="#004833"/>
<path fill-rule="evenodd" clip-rule="evenodd" d="M36.545 38.61H62.498V35.61H36.545V38.61Z" fill="#004833"/>
<path fill-rule="evenodd" clip-rule="evenodd" d="M36.545 47.678H62.498V44.678H36.545V47.678Z" fill="#004833"/>
<path fill-rule="evenodd" clip-rule="evenodd" d="M68.93 55.333C68.9292 55.952 68.6829 56.5455 68.2452 56.9832C67.8075 57.4209 67.214 57.6672 66.595 57.668H8.835C8.21596 57.6672 7.62251 57.4209 7.18478 56.9832C6.74706 56.5455 6.50079 55.952 6.5 55.333V18.782C6.50079 18.163 6.74706 17.5695 7.18478 17.1318C7.62251 16.6941 8.21596 16.4478 8.835 16.447H66.595C67.214 16.4478 67.8075 16.6941 68.2452 17.1318C68.6829 17.5695 68.9292 18.163 68.93 18.782V55.333ZM73.295 18.595C72.525 17.611 69.43 14.877 68.773 14.542C68.1004 14.1909 67.3537 14.0051 66.595 14H8.835C7.55308 14.0013 6.32405 14.5111 5.4176 15.4176C4.51115 16.3241 4.00132 17.5531 4 18.835V55.386C4 56.129 4.139 56.697 4.388 57.279C5.56 59.928 8.778 61.921 9.466 62.299C10.156 62.679 10.784 62.802 11.625 62.802H69.385C70.6671 62.8009 71.8964 62.2912 72.803 61.3848C73.7097 60.4783 74.2197 59.2491 74.221 57.967V21.416C74.221 20.361 74.064 19.579 73.295 18.595Z" fill="#004833"/>
</svg>
