<svg width="78" height="78" viewBox="0 0 78 78" fill="none" xmlns="http://www.w3.org/2000/svg">
<path fill-rule="evenodd" clip-rule="evenodd" d="M10.122 51H23.244V30.332H10.122V51Z" fill="#78BE20"/>
<path fill-rule="evenodd" clip-rule="evenodd" d="M46.719 46.979C46.835 47.0953 46.9727 47.1877 47.1244 47.2507C47.2761 47.3136 47.4388 47.3461 47.603 47.3461C47.7673 47.3461 47.9299 47.3136 48.0816 47.2507C48.2333 47.1877 48.3711 47.0953 48.487 46.979L54.256 41.21C54.4838 40.9743 54.6099 40.6586 54.6071 40.3308C54.6044 40.0031 54.473 39.6895 54.2413 39.4577C54.0096 39.2259 53.6961 39.0943 53.3684 39.0914C53.0406 39.0885 52.7248 39.2144 52.489 39.442L46.719 45.211C46.6029 45.3271 46.5108 45.4649 46.448 45.6166C46.3851 45.7682 46.3528 45.9308 46.3528 46.095C46.3528 46.2592 46.3851 46.4218 46.448 46.5734C46.5108 46.7251 46.6029 46.8629 46.719 46.979ZM52.674 45.363L49.552 48.486C49.4327 48.6013 49.3375 48.7393 49.272 48.8918C49.2065 49.0443 49.1721 49.2084 49.1707 49.3744C49.1693 49.5403 49.201 49.7049 49.2639 49.8585C49.3268 50.0121 49.4196 50.1517 49.537 50.269C49.6544 50.3863 49.794 50.4791 49.9477 50.5419C50.1013 50.6047 50.2659 50.6363 50.4319 50.6348C50.5979 50.6333 50.7619 50.5988 50.9143 50.5332C51.0668 50.4677 51.2047 50.3724 51.32 50.253L54.442 47.131C54.5581 47.0149 54.6502 46.8771 54.713 46.7254C54.7758 46.5737 54.8082 46.4112 54.8082 46.247C54.8082 46.0828 54.7758 45.9203 54.713 45.7686C54.6502 45.6169 54.5581 45.4791 54.442 45.363C54.3259 45.2469 54.1881 45.1548 54.0364 45.092C53.8848 45.0292 53.7222 44.9968 53.558 44.9968C53.3938 44.9968 53.2313 45.0292 53.0796 45.092C52.9279 45.1548 52.7901 45.2469 52.674 45.363Z" fill="#004833"/>
<path fill-rule="evenodd" clip-rule="evenodd" d="M72.205 14C72.896 14 73.455 14.56 73.455 15.25V55.301C73.4526 57.1297 72.7251 58.8829 71.432 60.176C70.1389 61.4691 68.3857 62.1966 66.557 62.199H5.25C4.56 62.199 4 61.639 4 60.949V24.437C4 24.4 4.018 24.369 4.021 24.332C4.018 24.296 4 24.264 4 24.227V15.25C4 14.56 4.56 14 5.25 14H72.205ZM64.711 25.687H6.5V59.7H26.901V31.544C26.901 30.854 27.461 30.294 28.151 30.294H58.396C59.086 30.294 59.646 30.854 59.646 31.544V59.7H64.711V25.687ZM57.146 32.794H44.587V59.7H57.146V32.794ZM42.087 32.794H29.401V59.7H42.087V32.794ZM64.711 16.5H6.5V22.978H64.711V16.5Z" fill="#004833"/>
</svg>
