<svg width="78" height="78" viewBox="0 0 78 78" fill="none" xmlns="http://www.w3.org/2000/svg">
<path fill-rule="evenodd" clip-rule="evenodd" d="M32.2896 38.1076H25.7016C25.5346 38.1076 25.3996 37.9726 25.3996 37.8056V31.3976C25.3996 31.2316 25.5346 31.0956 25.7016 31.0956H32.2896C32.4566 31.0956 32.5916 31.2316 32.5916 31.3976V37.8056C32.5916 37.9726 32.4566 38.1076 32.2896 38.1076ZM44.0454 38.1076H37.4574C37.2904 38.1076 37.1554 37.9726 37.1554 37.8056V31.3976C37.1554 31.2316 37.2904 31.0956 37.4574 31.0956H44.0454C44.2124 31.0956 44.3474 31.2316 44.3474 31.3976V37.8056C44.3474 37.9726 44.2124 38.1076 44.0454 38.1076ZM55.8013 38.1076H49.2133C49.0473 38.1076 48.9113 37.9726 48.9113 37.8056V31.3976C48.9113 31.2316 49.0473 31.0956 49.2133 31.0956H55.8013C55.9683 31.0956 56.1033 31.2316 56.1033 31.3976V37.8056C56.1033 37.9726 55.9683 38.1076 55.8013 38.1076ZM20.5332 49.5344H13.9452C13.7792 49.5344 13.6432 49.3994 13.6432 49.2324V42.8244C13.6432 42.6584 13.7792 42.5224 13.9452 42.5224H20.5332C20.7002 42.5224 20.8352 42.6584 20.8352 42.8244V49.2324C20.8352 49.3994 20.7002 49.5344 20.5332 49.5344ZM32.2896 49.5344H25.7016C25.5346 49.5344 25.3996 49.3994 25.3996 49.2324V42.8244C25.3996 42.6584 25.5346 42.5224 25.7016 42.5224H32.2896C32.4566 42.5224 32.5916 42.6584 32.5916 42.8244V49.2324C32.5916 49.3994 32.4566 49.5344 32.2896 49.5344ZM44.0454 49.5344H37.4574C37.2904 49.5344 37.1554 49.3994 37.1554 49.2324V42.8244C37.1554 42.6584 37.2904 42.5224 37.4574 42.5224H44.0454C44.2124 42.5224 44.3474 42.6584 44.3474 42.8244V49.2324C44.3474 49.3994 44.2124 49.5344 44.0454 49.5344ZM55.8013 49.5344H49.2133C49.0473 49.5344 48.9113 49.3994 48.9113 49.2324V42.8244C48.9113 42.6584 49.0473 42.5224 49.2133 42.5224H55.8013C55.9683 42.5224 56.1033 42.6584 56.1033 42.8244V49.2324C56.1033 49.3994 55.9683 49.5344 55.8013 49.5344ZM20.5332 60.6814H13.9452C13.7792 60.6814 13.6432 60.5464 13.6432 60.3794V53.9714C13.6432 53.8054 13.7792 53.6694 13.9452 53.6694H20.5332C20.7002 53.6694 20.8352 53.8054 20.8352 53.9714V60.3794C20.8352 60.5464 20.7002 60.6814 20.5332 60.6814ZM32.2896 60.6814H25.7016C25.5346 60.6814 25.3996 60.5464 25.3996 60.3794V53.9714C25.3996 53.8054 25.5346 53.6694 25.7016 53.6694H32.2896C32.4566 53.6694 32.5916 53.8054 32.5916 53.9714V60.3794C32.5916 60.5464 32.4566 60.6814 32.2896 60.6814Z" fill="#78BE20"/>
<path fill-rule="evenodd" clip-rule="evenodd" d="M61.1548 65.6721V65.6801H12.0888C10.1098 65.6801 8.49982 64.0711 8.49982 62.0921V26.0971H61.1548V60.9291C61.1798 64.3711 62.1378 65.6721 64.1338 65.6721H61.1548ZM8.49982 16.7971H12.8098V19.0181C12.8098 20.2631 13.8188 21.2731 15.0638 21.2731C16.3098 21.2731 17.3188 20.2631 17.3188 19.0181V16.7971H52.5078V19.0181C52.5078 20.2631 53.5168 21.2731 54.7618 21.2731C56.0068 21.2731 57.0168 20.2631 57.0168 19.0181V16.7971H61.1548V23.5971H8.49982V16.7971ZM63.6548 56.2941V14.2971H57.0168V12.2551C57.0168 11.0091 56.0068 10.0001 54.7618 10.0001C53.5168 10.0001 52.5078 11.0091 52.5078 12.2551V14.2971H17.3188V12.2551C17.3188 11.0091 16.3098 10.0001 15.0638 10.0001C13.8188 10.0001 12.8098 11.0091 12.8098 12.2551V14.2971H5.99982V62.0921C5.99982 65.4491 8.73182 68.1801 12.0888 68.1801H63.6548V68.1701H67.7998C70.6558 68.1701 72.9708 65.8551 72.9708 62.9991V56.2941H63.6548Z" fill="#004833"/>
</svg>
