<svg width="78" height="78" viewBox="0 0 78 78" fill="none" xmlns="http://www.w3.org/2000/svg">
<path fill-rule="evenodd" clip-rule="evenodd" d="M38.268 68.037C21.854 68.037 8.5 54.683 8.5 38.269C8.5 21.855 21.854 8.502 38.268 8.502C54.681 8.502 68.035 21.855 68.035 38.269C68.035 54.683 54.681 68.037 38.268 68.037ZM65.437 20.895C59.696 11.947 49.666 6 38.268 6C20.476 6 6 20.475 6 38.268C6 45.401 8.331 51.998 12.266 57.347C18.006 66.3 28.039 72.25 39.442 72.25C57.234 72.25 71.709 57.775 71.709 39.983C71.7151 33.1131 69.5167 26.4224 65.437 20.895Z" fill="#004833"/>
<path d="M43.704 41.03C48.205 41.03 51.906 44.29 52.042 48.312L52.046 48.54V51.793C52.046 52.453 51.481 52.966 50.796 53.025L50.666 53.03H26.34C25.646 53.03 25.117 52.558 25.053 51.922L25.047 51.793V48.54C25.047 44.49 28.664 41.156 33.134 41.034L33.388 41.03H43.705H43.704ZM38.546 21.03C37.4297 21.0299 36.3244 21.2496 35.293 21.6768C34.2617 22.1039 33.3246 22.73 32.5353 23.5193C31.746 24.3086 31.1199 25.2457 30.6928 26.277C30.2656 27.3084 30.0459 28.4137 30.046 29.53C30.046 31.896 31.018 34.109 32.702 35.703C33.71 36.6572 34.9363 37.35 36.2738 37.7209C37.6113 38.0918 39.0193 38.1295 40.3748 37.8308C41.7302 37.532 42.9919 36.9059 44.0496 36.0071C45.1072 35.1083 45.9287 33.9642 46.4422 32.6747C46.9557 31.3852 47.1456 29.9895 46.9953 28.6097C46.845 27.2299 46.3592 25.9078 45.5801 24.7591C44.8011 23.6104 43.7526 22.6699 42.5262 22.0199C41.2999 21.3698 39.933 21.03 38.545 21.03H38.546Z" fill="#78BE20"/>
</svg>
