<svg width="78" height="78" viewBox="0 0 78 78" fill="none" xmlns="http://www.w3.org/2000/svg">
<path d="M56.0127 42.0302C60.3477 42.0302 63.9115 45.2896 64.042 49.3119L64.0457 49.5404V52.7933C64.0457 53.4522 63.5016 53.9665 62.8425 54.0247L62.7177 54.0302H39.2907C38.6229 54.0302 38.113 53.5579 38.0519 52.9225L38.0457 52.7933V49.5404C38.0457 45.4903 41.5291 42.1558 45.8332 42.0337L46.0777 42.0302H56.0127ZM51.0459 23.0302C46.6268 23.0302 43.0459 26.6111 43.0459 31.0302C43.0459 33.2572 43.961 35.3392 45.5462 36.8403C47.0217 38.2374 48.9721 39.0302 51.0459 39.0302C55.4641 39.0302 59.0459 35.4484 59.0459 31.0302C59.0459 26.6114 55.4644 23.0302 51.0459 23.0302Z" fill="#78BE20"/>
<path fill-rule="evenodd" clip-rule="evenodd" d="M12.58 26.777H35.022V23.777H12.58V26.777Z" fill="#004833"/>
<path fill-rule="evenodd" clip-rule="evenodd" d="M12.58 34.169H35.022V31.169H12.58V34.169Z" fill="#004833"/>
<path fill-rule="evenodd" clip-rule="evenodd" d="M12.58 41.561H35.022V38.561H12.58V41.561Z" fill="#004833"/>
<path fill-rule="evenodd" clip-rule="evenodd" d="M68.9297 56.333C68.9297 57.621 67.8817 58.668 66.5947 58.668H8.83469C7.54769 58.668 6.49969 57.621 6.49969 56.333V19.782C6.49969 18.495 7.54769 17.447 8.83469 17.447H66.5947C67.8817 17.447 68.9297 18.495 68.9297 19.782V56.333ZM73.2947 19.595C71.5487 17.035 68.7837 15.513 68.7837 15.513C68.7837 15.513 68.7767 15.533 68.7727 15.542C68.1157 15.207 67.3817 15 66.5947 15H8.83469C6.16869 15 3.99969 17.169 3.99969 19.835V56.386C3.99969 57.058 4.13869 57.697 4.38769 58.279C4.41669 58.472 4.52869 58.73 4.77169 59.091C6.51569 61.672 9.30669 63.207 9.30669 63.207C9.30669 63.207 9.3127 63.192 9.31469 63.188C10.0037 63.567 10.7837 63.802 11.6247 63.802H69.3847C72.0517 63.802 74.2207 61.633 74.2207 58.967V22.416C74.2207 21.361 73.8707 20.391 73.2947 19.595Z" fill="#004833"/>
</svg>
