<svg width="78" height="78" viewBox="0 0 78 78" fill="none" xmlns="http://www.w3.org/2000/svg">
<path fill-rule="evenodd" clip-rule="evenodd" d="M53.049 70.83C51.221 70.83 49.736 69.336 49.736 67.493C49.736 65.649 51.221 64.156 53.049 64.156C54.879 64.156 56.362 65.649 56.362 67.493C56.362 69.336 54.879 70.83 53.049 70.83ZM26.17 73.736H59.507V61.343H26.171V73.736H26.17Z" fill="#78BE20"/>
<path fill-rule="evenodd" clip-rule="evenodd" d="M56.328 39.204C56.328 42.285 55.373 48.834 53.463 58.854H27.396L12.2 39.68L12.113 39.581C11.7195 39.181 11.4993 38.6421 11.5 38.081C11.5008 37.2897 11.8154 36.5311 12.3748 35.9715C12.9342 35.4119 13.6927 35.0971 14.484 35.096H16.848C17.14 35.096 17.415 35.213 17.62 35.422L28.042 46.156V5.675C28.042 5.579 28.122 5.5 28.218 5.5H31.058C31.8567 5.50132 32.6222 5.81939 33.1867 6.38442C33.7512 6.94946 34.0685 7.71532 34.069 8.514V28.864H48.937C53.013 28.864 56.328 32.18 56.328 36.256V39.204ZM40.45 26.364V8.514C40.4484 7.05208 39.867 5.6505 38.8332 4.61677C37.7995 3.58304 36.3979 3.00159 34.936 3H28.218C27.5086 3.00053 26.8284 3.2825 26.3267 3.78401C25.825 4.28553 25.5428 4.96562 25.542 5.675V39.993L19.412 33.679C19.0776 33.3377 18.6788 33.0664 18.2386 32.8806C17.7984 32.6949 17.3258 32.5985 16.848 32.597H14.484C13.0299 32.5986 11.6358 33.177 10.6076 34.2053C9.57949 35.2337 9.00132 36.6279 9 38.082C9 39.28 9.453 40.413 10.28 41.282L26.187 61.353H59.504C61.631 50.045 62.695 42.752 62.695 39.475C62.695 37.965 62.699 36.892 62.708 36.256C62.708 30.802 58.271 26.364 52.818 26.364H40.448H40.45Z" fill="#004833"/>
</svg>
