<svg width="78" height="78" viewBox="0 0 78 78" fill="none" xmlns="http://www.w3.org/2000/svg">
<path fill-rule="evenodd" clip-rule="evenodd" d="M42.532 54.407C40.022 53.712 38.363 52.775 36.63 51.073C35.5312 49.988 34.6599 48.6948 34.0672 47.2689C33.4744 45.843 33.1721 44.3132 33.178 42.769C33.178 40.111 35.438 37.952 38.214 37.952C40.989 37.952 43.249 40.112 43.249 42.769C43.249 44.306 44.593 45.56 46.259 45.56C47.924 45.56 49.266 44.306 49.266 42.77C49.266 37.025 44.308 32.355 38.198 32.355C33.854 32.355 29.886 34.772 28.103 38.506C27.511 39.736 27.207 41.181 27.207 42.769C27.207 44.561 27.467 46.263 28.235 48.313C28.2843 48.4366 28.3082 48.5689 28.3053 48.7019C28.3023 48.835 28.2727 48.9661 28.218 49.0874C28.1633 49.2087 28.0847 49.3178 27.987 49.4081C27.8892 49.4984 27.7743 49.5681 27.649 49.613C27.525 49.66 27.393 49.6821 27.2605 49.678C27.128 49.6738 26.9977 49.6436 26.8769 49.589C26.7561 49.5343 26.6473 49.4564 26.5567 49.3596C26.4661 49.2628 26.3955 49.1491 26.349 49.025C25.574 46.956 25.195 44.901 25.195 42.769C25.195 40.869 25.56 39.134 26.278 37.617C28.392 33.183 33.076 30.313 38.198 30.313C45.419 30.313 51.294 35.888 51.294 42.754C51.294 45.414 49.034 47.571 46.258 47.571C43.482 47.571 41.222 45.413 41.222 42.754C41.222 41.218 39.879 39.964 38.214 39.964C36.548 39.964 35.205 41.218 35.205 42.754C35.205 45.362 36.212 47.796 38.051 49.619C39.511 51.063 40.897 51.849 43.043 52.443C43.585 52.583 43.9 53.144 43.759 53.67C43.7096 53.8889 43.5877 54.0846 43.4131 54.2255C43.2385 54.3663 43.0213 54.4441 42.797 54.446C42.719 54.446 42.633 54.432 42.532 54.407ZM40.967 49.807C38.579 48.189 37.153 45.559 37.153 42.769C37.153 42.204 37.6 41.756 38.167 41.756C38.732 41.756 39.179 42.204 39.179 42.769C39.179 44.894 40.267 46.893 42.101 48.126C43.165 48.846 44.412 49.192 45.931 49.192C46.344 49.192 46.957 49.137 47.511 49.042C47.6424 49.0183 47.7772 49.0209 47.9076 49.0496C48.0379 49.0784 48.1613 49.1327 48.2706 49.2094C48.3799 49.2861 48.4728 49.3837 48.5441 49.4966C48.6154 49.6095 48.6637 49.7354 48.686 49.867C48.71 49.9985 48.7076 50.1335 48.679 50.2641C48.6504 50.3948 48.5962 50.5184 48.5194 50.6279C48.4427 50.7374 48.345 50.8305 48.2319 50.902C48.1189 50.9734 47.9928 51.0217 47.861 51.044C47.143 51.182 46.451 51.235 45.931 51.235C44.026 51.235 42.345 50.753 40.967 49.807ZM34.753 54.119C34.6198 54.121 34.4877 54.0951 34.3651 54.0431C34.2425 53.9911 34.1321 53.9141 34.041 53.817C32.546 52.321 31.854 51.428 30.869 49.65C29.776 47.701 29.202 45.325 29.202 42.77C29.202 38.007 33.27 34.133 38.262 34.133C43.25 34.133 47.318 38.007 47.318 42.769C47.318 43.335 46.87 43.783 46.304 43.783C46.1706 43.7839 46.0384 43.7583 45.915 43.7077C45.7916 43.657 45.6795 43.5824 45.5853 43.488C45.491 43.3937 45.4164 43.2815 45.3659 43.1581C45.3154 43.0346 45.2899 42.9024 45.291 42.769C45.291 39.129 42.141 36.159 38.261 36.159C34.381 36.159 31.229 39.129 31.229 42.769C31.229 44.979 31.719 47.011 32.649 48.659C33.533 50.247 34.1 50.967 35.499 52.384C35.6842 52.5787 35.7864 52.8379 35.784 53.1066C35.7816 53.3754 35.6747 53.6326 35.486 53.824C35.276 54.016 35.018 54.119 34.753 54.119ZM24.423 35.119C24.313 35.0426 24.2193 34.9452 24.1473 34.8322C24.0753 34.7193 24.0265 34.5932 24.0037 34.4613C23.9809 34.3293 23.9846 34.1942 24.0145 34.0636C24.0444 33.9331 24.1 33.8098 24.178 33.701C25.745 31.486 27.738 29.747 30.108 28.531C35.078 25.967 41.425 25.958 46.396 28.514C48.7581 29.7225 50.7922 31.4855 52.324 33.652C52.4022 33.7609 52.458 33.8843 52.4882 34.0149C52.5184 34.1455 52.5224 34.2809 52.4999 34.4131C52.4774 34.5452 52.4288 34.6716 52.3571 34.7849C52.2854 34.8982 52.1919 34.9961 52.082 35.073C51.9734 35.1506 51.8504 35.206 51.7203 35.2358C51.5901 35.2656 51.4554 35.2693 51.3238 35.2467C51.1922 35.2241 51.0664 35.1756 50.9537 35.1041C50.8409 35.0326 50.7435 34.9394 50.667 34.83C49.284 32.893 47.534 31.376 45.467 30.318C41.053 28.059 35.412 28.063 31.024 30.334C28.9517 31.4029 27.1666 32.9541 25.819 34.857C25.656 35.143 25.349 35.302 25.009 35.302C24.803 35.302 24.603 35.24 24.423 35.119ZM47.318 27.117C47.1549 27.1177 46.9945 27.0763 46.852 26.997C43.892 25.471 41.342 24.825 38.275 24.825C35.215 24.825 32.325 25.555 29.703 26.995C29.4658 27.1198 29.1892 27.1472 28.9321 27.0714C28.675 26.9956 28.4576 26.8225 28.326 26.589C28.1993 26.3521 28.1709 26.075 28.2469 25.8173C28.3229 25.5597 28.4971 25.3423 28.732 25.212C31.6594 23.6179 34.9417 22.788 38.275 22.799C41.632 22.799 44.568 23.539 47.785 25.195C47.9031 25.2549 48.0081 25.3377 48.0938 25.4387C48.1795 25.5397 48.2442 25.6567 48.284 25.783C48.3239 25.9093 48.3381 26.0423 48.3259 26.1742C48.3137 26.306 48.2753 26.4342 48.213 26.551C48.132 26.7199 48.0051 26.8625 47.8468 26.9626C47.6886 27.0627 47.5053 27.1162 47.318 27.117Z" fill="#78BE20"/>
<path fill-rule="evenodd" clip-rule="evenodd" d="M38.268 68.037C21.854 68.037 8.50002 54.683 8.50002 38.27C8.50002 21.857 21.854 8.502 38.268 8.502C54.681 8.502 68.036 21.855 68.036 38.269C68.036 54.683 54.68 68.037 38.268 68.037ZM65.437 20.895C59.697 11.947 49.666 6 38.267 6C20.477 6 6.00002 20.475 6.00002 38.268C5.99325 45.134 8.18955 51.8211 12.266 57.346C18.006 66.3 28.039 72.25 39.443 72.25C57.235 72.25 71.709 57.775 71.709 39.983C71.7151 33.1131 69.5167 26.4224 65.437 20.895Z" fill="#004833"/>
</svg>
