<svg width="78" height="78" viewBox="0 0 78 78" fill="none" xmlns="http://www.w3.org/2000/svg">
<path fill-rule="evenodd" clip-rule="evenodd" d="M65.2891 34.4415C65.2891 34.9575 64.9411 35.3935 64.5291 35.3935H62.0211V35.3975H12.7851V35.3935H10.2601C9.84812 35.3935 9.50012 34.9575 9.50012 34.4415V22.3335C9.50012 21.8175 9.84812 21.3815 10.2601 21.3815H64.5291C64.9411 21.3815 65.2891 21.8175 65.2891 22.3335V34.4415ZM58.3181 66.8645H16.4881C14.4461 66.8645 12.7851 65.2025 12.7851 63.1605V37.8975H62.0211V63.1605C62.0211 65.2025 60.3601 66.8645 58.3181 66.8645ZM71.1361 23.4815C69.3581 20.6115 66.0021 19.2495 65.8841 19.2025C65.4701 19.0015 65.0141 18.8815 64.5291 18.8815H10.2601C8.46212 18.8815 7.00012 20.4295 7.00012 22.3335V34.4415C7.00012 36.3445 8.46212 37.8935 10.2601 37.8935H10.2851V63.1605C10.2851 64.1105 10.5061 65.0085 10.8901 65.8145L10.8731 65.8115C13.2311 71.0035 18.9751 72.4215 18.9751 72.4215L18.9671 72.4135C19.5201 72.5755 20.1041 72.6665 20.7091 72.6665H62.5391C65.9601 72.6665 68.7421 69.8835 68.7421 66.4635V41.1815C70.4771 41.1055 71.8691 39.5985 71.8691 37.7445V25.6355C71.8691 24.8165 71.5871 24.0735 71.1361 23.4815Z" fill="#004833"/>
<path fill-rule="evenodd" clip-rule="evenodd" d="M52.0859 13.0479C51.7119 14.2179 50.5719 15.6199 48.4989 16.0409L41.6659 17.4299L44.1569 11.7469C44.7569 10.3799 46.1429 9.35791 47.7739 9.08091C48.0619 9.03191 48.3449 9.00691 48.6209 9.00691C49.7589 9.00691 50.7879 9.41091 51.4759 10.1499C52.4719 11.2199 52.2859 12.4239 52.0859 13.0479ZM26.4239 16.0409C24.3509 15.6209 23.2119 14.2189 22.8369 13.0479C22.6379 12.4249 22.4519 11.2199 23.4479 10.1499C24.1339 9.41091 25.1639 9.00691 26.3019 9.00691C26.5789 9.00691 26.8619 9.03191 27.1489 9.08091C28.7809 9.35791 30.1669 10.3799 30.7659 11.7469L33.2569 17.4299L26.4239 16.0409ZM54.4009 7.41791C52.6279 5.50891 49.9049 4.65391 47.1059 5.12891C44.1179 5.63591 41.6469 7.50791 40.4949 10.1339L37.4609 17.0539L34.4279 10.1339C33.2769 7.50791 30.8059 5.63591 27.8169 5.12891C25.0229 4.65391 22.2949 5.50891 20.5209 7.41791C18.8039 9.26391 18.2459 11.8269 19.0279 14.2719C19.9479 17.1459 22.4779 19.3289 25.6289 19.9689L35.1759 21.9089V66.8639H39.6309V21.9329L49.2939 19.9689C52.4459 19.3289 54.9759 17.1459 55.8959 14.2709C56.6779 11.8269 56.1189 9.26391 54.4009 7.41791Z" fill="#78BE20"/>
</svg>
