<svg width="78" height="78" viewBox="0 0 78 78" fill="none" xmlns="http://www.w3.org/2000/svg">
<path fill-rule="evenodd" clip-rule="evenodd" d="M38.718 5.90002C50.116 5.90002 60.147 11.847 65.888 20.795C69.9667 26.3229 72.1647 33.0133 72.159 39.883C72.159 57.675 57.685 72.15 39.893 72.15C28.489 72.15 18.456 66.2 12.716 57.247C8.64012 51.7214 6.4439 45.0342 6.44996 38.168C6.44996 20.375 20.926 5.90002 38.718 5.90002ZM38.718 8.40202C37.5668 8.40176 36.4165 8.46787 35.273 8.60002C36.531 10.995 35.831 11.97 33.176 11.526C28.797 10.793 34.606 16.769 28.294 17.006C21.982 17.244 24.418 26.166 20.791 26.166C18.448 26.166 16.399 24.338 14.643 20.681C10.9368 25.7581 8.94293 31.8831 8.94996 38.169C8.94996 50.384 16.347 60.905 26.896 65.489C27.728 65.472 28.551 65.539 28.751 65.659C29.587 66.165 28.831 62.636 30.231 62.636C31.629 62.636 38.851 60.496 40.899 61.566C42.947 62.636 47.144 65.093 45.456 65.376C43.95 65.629 42.857 65.993 45.093 67.249C58.453 64.323 68.486 52.395 68.486 38.169C68.486 21.755 55.131 8.40202 38.718 8.40202Z" fill="#004833"/>
<path fill-rule="evenodd" clip-rule="evenodd" d="M48.4129 58.1C47.3699 58.798 45.2379 58.087 44.1549 56.309C43.0729 54.53 43.3679 53.542 42.7769 53.147C42.1869 52.752 42.3839 52.752 41.7929 53.147C41.2029 53.542 40.8089 53.443 39.9229 52.554C39.0369 51.665 38.3479 51.27 37.1669 51.27C35.9869 51.27 35.5929 50.973 34.0179 51.764C32.4429 52.554 31.8529 53.839 30.8679 53.839C29.8839 53.839 28.7029 53.739 28.0139 54.234C27.3249 54.728 27.8179 55.024 26.8339 55.024C25.8489 55.024 24.9639 53.74 25.1599 52.357C25.3569 50.973 23.8799 49.097 23.1919 48.207C22.5019 47.317 21.3219 44.354 23.3889 42.674C25.4549 40.994 28.2109 40.698 28.7029 39.809C29.1949 38.919 29.1949 40.049 29.3929 38.327C29.5889 36.604 30.8689 37.437 31.3609 36.449C31.8529 35.461 32.9349 33.88 33.6239 34.276C34.3139 34.671 34.8049 35.362 35.1989 35.165C35.5929 34.967 35.5929 34.77 35.8879 34.275C36.1829 33.782 36.9709 32.695 38.4469 32.497C39.8509 32.309 40.8089 32.3 41.8389 32.751C42.8689 33.202 42.2849 33.485 41.5959 34.473C40.9069 35.461 41.7929 36.054 42.4819 36.252C43.1719 36.449 44.8439 38.425 45.5329 38.03C46.2229 37.635 47.0089 36.45 47.0089 35.56C47.0089 34.67 47.4029 32.398 47.4029 32.102C47.4029 31.806 47.8949 31.015 48.5839 33.584C49.2739 36.153 49.8079 35.268 50.2569 36.252C50.7069 37.236 50.7489 37.24 50.7489 38.327C50.7489 39.413 52.9149 42.18 53.4069 42.674C53.8989 43.168 56.8519 47.219 55.8669 49.393C54.8829 51.566 53.4069 53.543 52.4229 55.518C51.4379 57.494 49.4559 57.402 48.4129 58.1ZM48.8119 60.355C49.2989 60.123 49.6919 60.518 49.4959 60.892C49.2989 61.266 48.9619 61.926 48.8119 61.926C48.6619 61.926 48.4829 62.056 48.4829 62.346C48.4829 62.636 48.0669 62.638 47.8959 62.492C47.7249 62.346 47.3249 61.332 47.4189 61.018C47.4669 60.858 47.0419 60.433 47.2909 60.16C47.5409 59.886 48.3239 60.587 48.8109 60.355H48.8119Z" fill="#78BE20"/>
<path fill-rule="evenodd" clip-rule="evenodd" d="M31.2019 21.84C29.5599 20.742 24.9599 24.303 24.9599 26.11C24.9599 27.917 27.2909 29.51 28.2859 28.739C29.2799 27.969 32.8459 22.936 31.2019 21.839V21.84ZM29.5179 33.338C30.3199 32.783 23.9359 31.478 21.5479 28.911C19.6899 26.913 19.6619 26.901 18.6199 27.623C17.6599 28.287 21.7479 35.233 29.5179 33.338ZM52.6459 24.371C55.7259 24.371 54.8129 28.601 54.4899 28.95C54.1669 29.3 49.3129 29.607 48.1639 28.95C47.0139 28.293 46.5139 26.178 45.1859 26.178C43.8569 26.178 39.0279 23.819 37.9789 22.071C36.9289 20.323 49.5669 24.371 52.6459 24.371ZM62.5649 49.716C62.5549 50.604 62.3929 52.592 61.2559 52.904C60.4619 53.121 61.4009 54.624 61.8049 54.2C62.5489 53.419 63.6469 53.12 63.2099 51.043C62.7719 48.966 62.5689 49.285 62.5649 49.716ZM60.0099 53.83C59.7129 54.134 59.2359 54.732 58.9299 54.857C58.3599 55.09 57.3899 55.536 56.9259 55.536C56.4619 55.536 55.9169 56.079 55.6099 56.444C55.3029 56.81 55.7039 57.344 56.0829 57.344C56.4629 57.344 57.7149 57.22 57.8149 56.657C57.9149 56.094 58.6649 55.763 58.9309 55.763C59.1969 55.763 60.0809 54.787 60.4219 54.578C60.7639 54.368 60.0809 53.755 60.0089 53.829L60.0099 53.83ZM32.4799 25.485C32.8229 24.406 33.9599 26.4 34.5959 27.186C35.2319 27.973 34.5959 27.973 33.1119 27.973C32.2279 27.973 31.8439 27.845 31.6519 27.795C31.1419 27.663 32.1359 26.563 32.4799 25.485Z" fill="#004833"/>
</svg>
