<svg width="78" height="78" viewBox="0 0 78 78" fill="none" xmlns="http://www.w3.org/2000/svg">
<path fill-rule="evenodd" clip-rule="evenodd" d="M24.855 57.164V40.328H28.081V49.263L31.86 44.968H35.834L31.666 49.424L36.133 57.164H32.653L29.585 51.686L28.081 53.26V57.164H24.855Z" fill="#78BE20"/>
<path fill-rule="evenodd" clip-rule="evenodd" d="M40.575 50.813C40.575 52.107 40.825 53.054 41.327 53.656C41.827 54.256 42.447 54.557 43.182 54.557C43.971 54.557 44.637 54.249 45.18 53.632C45.724 53.017 45.996 52.103 45.996 50.894C45.996 49.63 45.736 48.693 45.215 48.081C44.694 47.467 44.035 47.161 43.24 47.161C42.466 47.161 41.828 47.461 41.327 48.063C40.826 48.664 40.575 49.581 40.575 50.813ZM37.692 57.968L41.379 58.416C41.439 58.844 41.582 59.14 41.804 59.301C42.11 59.531 42.592 59.645 43.251 59.645C44.093 59.645 44.725 59.518 45.146 59.266C45.429 59.097 45.644 58.826 45.789 58.45C45.888 58.183 45.938 57.688 45.938 56.97V55.188C44.973 56.507 43.756 57.164 42.286 57.164C40.648 57.164 39.35 56.471 38.393 55.086C37.642 53.992 37.267 52.627 37.267 50.998C37.267 48.953 37.76 47.392 38.743 46.312C39.727 45.232 40.95 44.692 42.412 44.692C43.921 44.692 45.165 45.355 46.145 46.678V44.968H49.165V55.912C49.165 57.352 49.047 58.428 48.809 59.139C48.572 59.851 48.239 60.411 47.809 60.816C47.381 61.221 46.809 61.54 46.093 61.769C45.377 61.999 44.472 62.115 43.377 62.115C41.31 62.115 39.844 61.76 38.979 61.051C38.113 60.343 37.681 59.446 37.681 58.358C37.681 58.252 37.685 58.122 37.691 57.968" fill="#78BE20"/>
<path fill-rule="evenodd" clip-rule="evenodd" d="M46.712 18.294L44.423 26.684C41.4635 25.741 38.3533 25.3621 35.254 25.567C34.7534 25.5993 34.2538 25.6466 33.756 25.709L31.733 18.294C31.546 17.608 31.657 16.908 32.03 16.422C32.163 16.247 32.265 16.193 32.281 16.189H46.161C46.181 16.195 46.282 16.247 46.416 16.422C46.788 16.91 46.899 17.61 46.712 18.294ZM46.164 13.69H27.554C26.709 13.69 25.914 14.12 25.316 14.903C24.473 16.006 24.204 17.52 24.594 18.951L27.599 29.965L28.886 29.477C30.9776 28.6808 33.1774 28.2044 35.411 28.064C38.6159 27.85 41.8292 28.3309 44.831 29.474L46.12 29.965L49.124 18.953C49.515 17.52 49.245 16.006 48.402 14.905C47.804 14.121 47.009 13.69 46.164 13.69Z" fill="#004833"/>
<path fill-rule="evenodd" clip-rule="evenodd" d="M46.069 69.847H27.637C26.6744 69.8452 25.7222 69.6493 24.8371 69.2709C23.952 68.8925 23.1524 68.3396 22.486 67.645C18.271 63.235 14.18 55.474 14.513 49.172C14.6796 46.133 15.4629 43.1597 16.815 40.433C18.1671 37.7062 20.0598 35.2831 22.378 33.311L22.985 32.796L19.581 20.318C18.769 17.335 19.368 14.134 21.186 11.753C22.766 9.686 25.084 8.5 27.548 8.5H46.158C48.622 8.5 50.94 9.686 52.52 11.753C54.338 14.133 54.938 17.335 54.125 20.318L50.718 32.81L51.321 33.324C53.7936 35.4281 55.7806 38.0433 57.1451 40.9894C58.5096 43.9354 59.2192 47.1423 59.225 50.389C59.225 56.198 55.213 63.451 51.25 67.613C50.5815 68.3153 49.778 68.8753 48.8877 69.2592C47.9973 69.6431 47.0386 69.843 46.069 69.847ZM58.277 31.949L61.271 20.975C62.287 17.245 61.528 13.231 59.24 10.235C57.185 7.545 54.142 6 50.892 6H27.554C24.304 6 21.262 7.544 19.206 10.236C16.918 13.232 16.159 17.246 17.176 20.975L20.165 31.933C15.3076 36.3432 12.3825 42.489 12.023 49.04C11.635 56.377 16.241 64.723 20.686 69.373C21.5863 70.311 22.6665 71.0579 23.862 71.5688C25.0575 72.0798 26.3438 72.3445 27.644 72.347H50.803C52.1111 72.3424 53.4048 72.0733 54.6064 71.5561C55.8079 71.0388 56.8925 70.284 57.795 69.337C62.101 64.815 66.459 56.854 66.459 50.389C66.4531 46.9153 65.7224 43.481 64.3135 40.3057C62.9047 37.1305 60.8487 34.2843 58.277 31.949Z" fill="#004833"/>
</svg>
