<svg width="78" height="78" viewBox="0 0 78 78" fill="none" xmlns="http://www.w3.org/2000/svg">
<path fill-rule="evenodd" clip-rule="evenodd" d="M26.843 67.963L41.563 73.985V51.654L26.829 45.602L26.843 67.963Z" fill="#78BE20"/>
<path fill-rule="evenodd" clip-rule="evenodd" d="M57.4766 36.557V63.173C57.4766 64.443 56.4466 65.473 55.1766 65.473L47.2976 65.474V43.103H24.3536V65.483L14.1716 65.485V36.557H7.40763L35.8246 10.397L64.2446 36.557H57.4766ZM41.1836 7H35.8246L0.999634 39.057H11.6716V67.986L17.0306 67.985V67.986L22.5286 67.983L26.8536 67.982V45.603H44.7976V67.975L51.1566 67.974V67.975L58.8446 67.974C62.4296 67.973 65.3356 65.066 65.3356 61.48V39.057H70.6516H76.0106L41.1836 7Z" fill="#004833"/>
</svg>
