<svg width="78" height="78" viewBox="0 0 78 78" fill="none" xmlns="http://www.w3.org/2000/svg">
<path fill-rule="evenodd" clip-rule="evenodd" d="M15.01 13.728C15.037 13.128 15.466 12.666 15.973 12.693L66.137 15.413C67.149 15.424 67.983 16.167 68 17.073C68.016 17.978 67.21 18.703 66.2 18.691C66.1318 18.6898 66.0638 18.6855 65.996 18.678L15.857 15.066C15.357 15.03 14.975 14.521 15.001 13.926L15.011 13.728H15.01Z" fill="#78BE20"/>
<path fill-rule="evenodd" clip-rule="evenodd" d="M49.08 61.198L48.404 61.565V67.195H23.034V61.565L22.358 61.198C13.658 56.472 8.04599 47.464 7.59999 37.581H63.84C63.392 47.465 57.78 56.472 49.08 61.198ZM71.586 38.2C71.007 37.604 67.031 35.746 65.418 35.253C65.052 35.143 64.561 34.993 64.142 34.991H35.432C35.237 33.641 34.759 32.786 34.323 32.018C33.842 31.171 33.463 30.503 33.463 29.035C33.463 27.566 33.842 26.897 34.323 26.051C34.885 25.061 35.524 23.941 35.524 21.783C35.524 19.627 34.884 18.505 34.324 17.516C33.842 16.67 33.462 16.004 33.462 14.536C33.462 13.07 33.842 12.403 34.323 11.559C34.885 10.571 35.524 9.451 35.524 7.295C35.524 6.58 34.947 6 34.236 6C33.523 6 32.947 6.58 32.947 7.295C32.947 8.761 32.567 9.428 32.087 10.271C31.524 11.261 30.886 12.381 30.886 14.537C30.886 16.692 31.524 17.813 32.086 18.802C32.566 19.647 32.947 20.316 32.947 21.782C32.947 23.252 32.567 23.92 32.087 24.766C31.524 25.756 30.886 26.877 30.886 29.035C30.886 31.192 31.524 32.313 32.086 33.303C32.396 33.85 32.664 34.327 32.816 34.991H28.876C28.682 33.641 28.204 32.786 27.766 32.018C27.286 31.171 26.906 30.503 26.906 29.035C26.906 27.566 27.286 26.897 27.766 26.051C28.329 25.061 28.967 23.941 28.967 21.783C28.967 19.627 28.329 18.505 27.767 17.516C27.285 16.67 26.906 16.004 26.906 14.536C26.906 13.07 27.286 12.403 27.766 11.559C28.329 10.571 28.967 9.451 28.967 7.295C28.9676 7.12543 28.9349 6.95739 28.8705 6.8005C28.8062 6.6436 28.7115 6.50094 28.592 6.38066C28.4725 6.26038 28.3304 6.16485 28.1739 6.09953C28.0174 6.03422 27.8496 6.00039 27.68 6C26.969 6 26.392 6.58 26.392 7.295C26.392 8.761 26.012 9.428 25.531 10.271C24.968 11.261 24.33 12.381 24.33 14.537C24.33 16.692 24.968 17.813 25.53 18.802C26.012 19.647 26.392 20.316 26.392 21.782C26.392 23.252 26.012 23.92 25.531 24.766C24.968 25.756 24.33 26.877 24.33 29.035C24.33 31.192 24.968 32.313 25.53 33.303C25.842 33.85 26.11 34.327 26.26 34.991H22.32C22.126 33.641 21.648 32.786 21.211 32.018C20.73 31.171 20.351 30.503 20.351 29.035C20.351 27.566 20.73 26.897 21.211 26.051C21.774 25.061 22.411 23.941 22.411 21.783C22.411 19.627 21.774 18.505 21.211 17.516C20.73 16.67 20.351 16.004 20.351 14.536C20.351 13.07 20.73 12.403 21.211 11.559C21.774 10.571 22.411 9.451 22.411 7.295C22.411 6.58 21.835 6 21.123 6C20.411 6 19.835 6.58 19.835 7.295C19.835 8.761 19.455 9.428 18.975 10.271C18.412 11.261 17.774 12.381 17.774 14.537C17.774 16.692 18.412 17.813 18.974 18.802C19.456 19.647 19.835 20.316 19.835 21.782C19.835 23.252 19.455 23.92 18.975 24.766C18.412 25.756 17.774 26.877 17.774 29.035C17.774 31.192 18.412 32.313 18.974 33.303C19.286 33.85 19.552 34.327 19.704 34.991H6.97599C6.44799 34.991 5.93099 35.209 5.55999 35.591C5.37625 35.7795 5.23206 36.0029 5.13589 36.248C5.03972 36.493 4.99351 36.7548 4.99999 37.018C5.24999 47.813 11.152 57.735 20.457 63.098V67.592C20.457 68.429 20.932 69.15 21.62 69.519C23.57 70.981 28.144 72 28.203 72H54.362C54.9421 71.9979 55.4977 71.7657 55.9068 71.3543C56.3159 70.943 56.5451 70.3861 56.544 69.806V65.314C65.854 59.946 71.756 50.017 72 39.216C72.006 38.72 71.99 38.632 71.587 38.2H71.586Z" fill="#004833"/>
<path fill-rule="evenodd" clip-rule="evenodd" d="M15.001 10.642C14.9872 10.3972 15.0706 10.1568 15.2329 9.97299C15.3951 9.78918 15.6233 9.67672 15.868 9.66001L65.993 6.70201C67.002 6.60601 67.896 7.15101 67.992 7.91901C68.087 8.68701 67.348 9.389 66.34 9.485C66.273 9.491 66.204 9.49501 66.138 9.49501L15.96 11.691C15.7175 11.6994 15.4816 11.6116 15.3037 11.4468C15.1257 11.2819 15.0201 11.0534 15.01 10.811L15.001 10.641V10.642Z" fill="#78BE20"/>
</svg>
