<svg width="78" height="78" viewBox="0 0 78 78" fill="none" xmlns="http://www.w3.org/2000/svg">
<path fill-rule="evenodd" clip-rule="evenodd" d="M29.436 44.514L34.616 43.886C34.781 45.206 35.225 46.216 35.949 46.914C36.672 47.614 37.548 47.961 38.577 47.961C39.681 47.961 40.611 47.542 41.366 46.704C42.122 45.867 42.499 44.737 42.499 43.315C42.499 41.969 42.137 40.903 41.414 40.116C40.69 39.328 39.808 38.936 38.767 38.936C38.082 38.936 37.262 39.069 36.31 39.334L36.901 34.974C38.348 35.012 39.453 34.698 40.214 34.032C40.976 33.365 41.357 32.479 41.357 31.375C41.357 30.436 41.078 29.687 40.519 29.127C39.96 28.57 39.217 28.289 38.29 28.289C37.376 28.289 36.596 28.609 35.949 29.243C35.301 29.877 34.908 30.803 34.768 32.023L29.835 31.184C30.178 29.496 30.696 28.147 31.387 27.138C32.08 26.128 33.044 25.335 34.282 24.758C35.52 24.18 36.907 23.891 38.443 23.891C41.071 23.891 43.178 24.729 44.765 26.405C46.073 27.776 46.727 29.325 46.727 31.051C46.727 33.501 45.387 35.456 42.708 36.916C44.308 37.259 45.587 38.028 46.545 39.221C47.504 40.414 47.984 41.855 47.984 43.543C47.984 45.993 47.088 48.083 45.298 49.809C43.508 51.535 41.281 52.399 38.615 52.399C36.088 52.399 33.994 51.671 32.331 50.219C30.667 48.764 29.703 46.864 29.436 44.514Z" fill="#78BE20"/>
<path fill-rule="evenodd" clip-rule="evenodd" d="M38.268 68.037C21.855 68.037 8.50001 54.683 8.50001 38.268C8.50001 21.854 21.855 8.502 38.268 8.502C54.681 8.502 68.036 21.854 68.036 38.268C68.036 54.683 54.681 68.037 38.268 68.037ZM65.438 20.894C59.697 11.946 49.666 6 38.268 6C20.476 6 6.00001 20.474 6.00001 38.267C5.99374 45.1333 8.18998 51.8205 12.266 57.346C18.006 66.3 28.039 72.25 39.443 72.25C57.235 72.25 71.709 57.774 71.709 39.982C71.7146 33.1123 69.5166 26.4219 65.438 20.894Z" fill="#004833"/>
</svg>
