<svg width="78" height="78" viewBox="0 0 78 78" fill="none" xmlns="http://www.w3.org/2000/svg">
<path fill-rule="evenodd" clip-rule="evenodd" d="M38.675 41.513V31.973L32.258 41.513H38.675ZM38.675 51.833V46.217H27.25V41.532L39.362 23.802H43.856V41.512H47.322V46.217H43.856V51.834H38.676L38.675 51.833Z" fill="#78BE20"/>
<path fill-rule="evenodd" clip-rule="evenodd" d="M38.268 68.037C21.855 68.037 8.5 54.683 8.5 38.269C8.5 21.855 21.855 8.502 38.268 8.502C54.681 8.502 68.036 21.855 68.036 38.269C68.036 54.683 54.681 68.037 38.268 68.037ZM65.438 20.895C59.697 11.947 49.666 6 38.268 6C20.476 6 6 20.475 6 38.268C6 45.401 8.331 51.998 12.266 57.347C18.006 66.3 28.039 72.25 39.443 72.25C57.235 72.25 71.709 57.775 71.709 39.983C71.7148 33.1133 69.5168 26.4228 65.438 20.895Z" fill="#004833"/>
</svg>
