<svg width="78" height="78" viewBox="0 0 78 78" fill="none" xmlns="http://www.w3.org/2000/svg">
<path fill-rule="evenodd" clip-rule="evenodd" d="M29.28 45.165L34.612 44.613C34.764 45.819 35.215 46.774 35.964 47.479C36.713 48.184 37.576 48.536 38.553 48.536C39.671 48.536 40.617 48.082 41.391 47.176C42.166 46.267 42.551 44.899 42.551 43.071C42.551 41.356 42.169 40.071 41.4 39.215C40.633 38.357 39.633 37.929 38.4 37.929C36.865 37.929 35.488 38.609 34.269 39.967L29.927 39.339L32.67 24.809H46.818V29.817H36.725L35.887 34.559C37.081 33.962 38.3 33.663 39.544 33.663C41.918 33.663 43.93 34.527 45.581 36.253C47.231 37.98 48.056 40.221 48.056 42.976C48.056 45.273 47.389 47.324 46.056 49.126C44.241 51.59 41.721 52.821 38.496 52.821C35.92 52.821 33.818 52.129 32.193 50.745C30.568 49.361 29.597 47.502 29.28 45.165Z" fill="#78BE20"/>
<path fill-rule="evenodd" clip-rule="evenodd" d="M38.268 68.037C21.855 68.037 8.50001 54.683 8.50001 38.268C8.50001 21.854 21.855 8.502 38.268 8.502C54.681 8.502 68.036 21.854 68.036 38.268C68.036 54.683 54.681 68.037 38.268 68.037ZM38.268 6C20.476 6 6.00001 20.474 6.00001 38.267C5.99374 45.1333 8.18998 51.8205 12.266 57.346C18.006 66.3 28.039 72.25 39.443 72.25C57.235 72.25 71.709 57.774 71.709 39.982C71.7146 33.1123 69.5166 26.4219 65.438 20.894C59.697 11.947 49.666 6 38.268 6Z" fill="#004833"/>
</svg>
