<svg width="78" height="78" viewBox="0 0 78 78" fill="none" xmlns="http://www.w3.org/2000/svg">
<path fill-rule="evenodd" clip-rule="evenodd" d="M18.641 35.799L18.514 34.556C18.065 30.176 18.994 26.606 21.276 23.946C24.84 19.793 30.373 19.469 30.607 19.456L31.855 19.394L31.981 21.891L30.735 21.953C30.631 21.96 25.992 22.273 23.159 25.592C21.351 27.709 20.625 30.639 21.001 34.3L21.128 35.544L18.641 35.799Z" fill="#78BE20"/>
<path fill-rule="evenodd" clip-rule="evenodd" d="M61.276 68.744C60.6798 68.7456 60.0892 68.629 59.5384 68.4009C58.9876 68.1728 58.4875 67.8377 58.067 67.415L41.79 51.138C41.6035 50.9509 41.3624 50.8278 41.1015 50.7865C40.8405 50.7452 40.5732 50.7877 40.338 50.908C37.2653 52.4895 33.8588 53.3128 30.403 53.309C18.326 53.309 8.5 43.482 8.5 31.404C8.5 19.326 18.326 9.5 30.403 9.5C42.483 9.5 52.308 19.326 52.308 31.404C52.308 35.792 51.015 40.027 48.568 43.65C48.4057 43.8905 48.3321 44.18 48.3598 44.4688C48.3875 44.7576 48.5149 45.0278 48.72 45.233L64.484 60.997C64.907 61.4173 65.2424 61.9173 65.4707 62.4682C65.699 63.019 65.8157 63.6097 65.814 64.206C65.8157 64.8023 65.699 65.393 65.4707 65.9438C65.2424 66.4947 64.907 66.9947 64.484 67.415C64.0638 67.8377 63.5639 68.1729 63.0132 68.401C62.4625 68.6291 61.8721 68.7457 61.276 68.744ZM55 44.179C57.3643 40.3379 58.6129 35.9145 58.606 31.404C58.606 17.035 47.01 7 30.403 7C16.947 7 6 17.947 6 31.404C6 44.861 16.947 55.809 30.403 55.809C33.97 55.809 37.414 55.045 40.653 53.536L56.299 69.183C57.3537 70.2398 58.7197 70.9303 60.196 71.153C61.712 71.344 63.769 71.306 65.212 71.236C66.556 71.088 68.522 70.713 70.05 69.183C70.7058 68.5311 71.2258 67.7555 71.5797 66.9011C71.9337 66.0468 72.1146 65.1307 72.112 64.206C72.1146 63.2813 71.9337 62.3652 71.5797 61.5109C71.2258 60.6565 70.7058 59.8809 70.05 59.229L55 44.179Z" fill="#004833"/>
<path fill-rule="evenodd" clip-rule="evenodd" d="M30.305 47.243C21.625 47.243 14.565 40.183 14.565 31.504C14.565 22.825 21.625 15.764 30.305 15.764C38.984 15.764 46.044 22.825 46.044 31.504C46.044 40.182 38.984 47.244 30.304 47.244L30.305 47.243ZM30.304 13.264C20.248 13.264 12.066 21.446 12.066 31.504C12.066 41.561 20.248 49.744 30.305 49.744C40.362 49.744 48.544 41.561 48.544 31.504C48.544 21.446 40.362 13.264 30.304 13.264Z" fill="#004833"/>
</svg>
