<svg width="78" height="78" viewBox="0 0 78 78" fill="none" xmlns="http://www.w3.org/2000/svg">
<path fill-rule="evenodd" clip-rule="evenodd" d="M30.423 24.352L27.704 25.62L37.002 45.558L38.295 44.955H54.213V41.955H38.631L30.423 24.352Z" fill="#004833"/>
<path fill-rule="evenodd" clip-rule="evenodd" d="M38.8218 68.6453C24.3338 68.6453 12.5468 56.8583 12.5468 42.3703C12.5468 27.8813 24.3338 16.0943 38.8218 16.0943C53.3098 16.0943 65.0968 27.8813 65.0968 42.3703C65.0968 56.8583 53.3098 68.6453 38.8218 68.6453ZM63.0038 26.8753C61.2048 24.0723 58.9258 21.6103 56.2968 19.5823L57.8908 16.7053L60.9528 18.4023L63.3768 14.0293L52.8818 8.2113L50.4568 12.5843L53.5178 14.2813L52.0788 16.8783C48.0968 14.7893 43.5758 13.5943 38.7758 13.5943C22.9088 13.5943 9.99982 26.5033 9.99982 42.3703C9.99982 48.7323 12.0798 54.6163 15.5898 59.3863C20.7098 67.3643 29.6538 72.6663 39.8178 72.6663C55.6838 72.6663 68.5928 59.7583 68.5928 43.8913C68.5928 37.5293 66.5128 31.6453 63.0038 26.8753Z" fill="#004833"/>
<path fill-rule="evenodd" clip-rule="evenodd" d="M32.7046 3.99982V8.99982H36.2046V13.7128C37.8716 13.5658 39.5436 13.5538 41.2046 13.6848V8.99982H44.7046V3.99982H32.7046ZM38.7124 37.9549C35.9504 37.9549 33.7124 40.1939 33.7124 42.9549C33.7124 45.7159 35.9504 47.9549 38.7124 47.9549C41.4734 47.9549 43.7124 45.7159 43.7124 42.9549C43.7124 40.1939 41.4734 37.9549 38.7124 37.9549Z" fill="#78BE20"/>
</svg>
