<svg width="78" height="78" viewBox="0 0 78 78" fill="none" xmlns="http://www.w3.org/2000/svg">
<path fill-rule="evenodd" clip-rule="evenodd" d="M9.16761 62.0618C9.16761 60.0678 10.7956 58.4518 12.8036 58.4518C14.8116 58.4518 16.4396 60.0678 16.4396 62.0618C16.4396 64.0558 14.8116 65.6718 12.8036 65.6718C10.7956 65.6718 9.16761 64.0558 9.16761 62.0618ZM6.00061 69.1518H19.5056V32.5468H6.00061V69.1518Z" fill="#78BE20"/>
<path fill-rule="evenodd" clip-rule="evenodd" d="M65.5964 43.4245L56.8314 63.8855C56.1314 65.5655 54.4904 66.6515 52.6504 66.6515H23.2634H22.0054V33.0985C22.0054 31.8785 22.4714 30.7405 23.3204 29.8945L41.5494 11.6605L41.6614 11.7715L43.7354 13.8265C44.2994 14.3905 44.6274 15.1685 44.6404 15.9675L42.5504 34.3485H61.3484C65.0054 34.3485 65.8984 35.2415 65.8984 38.8995C65.8984 40.6175 65.7304 43.0105 65.5964 43.4245ZM65.1064 31.8485H61.3484H49.1114L50.8094 17.0555L50.8934 16.1325L50.8994 16.0195C50.8994 14.5435 50.3014 13.0995 49.2564 12.0545L46.7854 9.60751C46.3964 9.22151 45.8924 9.02651 45.3824 9.00751V8.99951H41.5924V9.00551C41.0374 8.99451 40.4804 9.19451 40.0604 9.61351L21.5534 28.1245C20.2324 29.4435 19.5054 31.2105 19.5054 33.0985V69.1515H24.5874H52.6504H56.4084C59.2594 69.1515 61.8054 67.4625 62.8924 64.8585L71.6664 44.3725C72.1274 43.1965 72.1564 38.9415 72.1564 38.8995C72.1564 33.8915 70.1134 31.8485 65.1064 31.8485Z" fill="#004833"/>
</svg>
