<svg width="78" height="78" viewBox="0 0 78 78" fill="none" xmlns="http://www.w3.org/2000/svg">
<path fill-rule="evenodd" clip-rule="evenodd" d="M38 27H64V24H38V27Z" fill="#78BE20"/>
<path fill-rule="evenodd" clip-rule="evenodd" d="M46 34H63V31H46V34Z" fill="#78BE20"/>
<path fill-rule="evenodd" clip-rule="evenodd" d="M67.4564 54.7955H63.9247C63.3146 51.0311 60.0691 48.147 56.1567 48.147C52.2474 48.147 49.0009 51.0311 48.3908 54.7955H33.0438V19.8168C33.0438 19.1397 33.5909 18.5882 34.264 18.5882H66.4148C66.9894 18.5882 67.4564 19.059 67.4564 19.636V54.7955ZM59.7412 60.0295C59.591 60.1684 59.4347 60.3022 59.2682 60.4238C59.1666 60.4963 59.0631 60.5627 58.9565 60.628C58.7464 60.7618 58.5302 60.8844 58.3017 60.9865C58.2358 61.0161 58.1677 61.0386 58.0997 61.0661C57.8287 61.1744 57.5485 61.2663 57.2572 61.3286C57.2297 61.3358 57.1993 61.3378 57.1698 61.3439C56.842 61.4083 56.5049 61.4471 56.1567 61.4471C55.8095 61.4471 55.4725 61.4083 55.1446 61.3439C55.1162 61.3378 55.0857 61.3358 55.0563 61.3286C54.766 61.2663 54.4868 61.1744 54.2158 61.0661C54.1488 61.0386 54.0787 61.0161 54.0137 60.9865C53.7853 60.8844 53.5681 60.7608 53.358 60.629C53.2524 60.5627 53.1488 60.4963 53.0483 60.4238C52.8818 60.3022 52.7245 60.1684 52.5732 60.0295C52.4677 59.9325 52.3661 59.8365 52.2687 59.7324V59.7313C51.3754 58.7713 50.817 57.4896 50.817 56.0731C50.817 54.7587 51.3074 53.5689 52.088 52.6345C52.1459 52.565 52.1987 52.4925 52.2585 52.4272C52.3875 52.2883 52.5265 52.1627 52.6687 52.0381C52.7722 51.9472 52.8758 51.8583 52.9864 51.7746C53.1174 51.6765 53.2524 51.5856 53.3925 51.4988C53.5356 51.41 53.6858 51.3303 53.8381 51.2558C53.967 51.1924 54.0939 51.1291 54.229 51.076C54.4198 51.0004 54.6188 50.9443 54.8218 50.8912C54.9335 50.8615 55.0421 50.8238 55.1578 50.8013C55.4806 50.739 55.8116 50.7002 56.1527 50.7002C56.1547 50.7002 56.1557 50.7002 56.1567 50.7002C56.1588 50.7002 56.1598 50.7002 56.1618 50.7002C56.5029 50.7002 56.8348 50.739 57.1577 50.8013C57.2734 50.8238 57.381 50.8615 57.4937 50.8912C57.6957 50.9443 57.8947 51.0004 58.0875 51.076C58.2205 51.1291 58.3474 51.1924 58.4763 51.2558C58.6307 51.3303 58.7789 51.41 58.924 51.4988C59.0631 51.5856 59.1981 51.6765 59.3291 51.7746C59.4407 51.8583 59.5433 51.9472 59.6478 52.0381C59.7889 52.1627 59.928 52.2883 60.0569 52.4272C60.1178 52.4935 60.1696 52.565 60.2275 52.6345C61.0081 53.57 61.4985 54.7587 61.4985 56.0731C61.4985 57.6438 60.8132 59.0461 59.7412 60.0295ZM30.5059 54.7965H27.2889C26.6788 51.0321 23.4333 48.147 19.5209 48.147C15.6106 48.147 12.3641 51.0321 11.755 54.7965H9.12374C8.80093 54.7965 8.538 54.532 8.538 54.2072V39.7531C8.538 39.2966 8.70753 38.8605 9.01715 38.5245L19.5981 27.0147C19.9371 26.6461 20.4183 26.4346 20.9178 26.4346H30.5059V54.7965ZM23.41 59.7313V59.7324C23.3135 59.8365 23.211 59.9325 23.1064 60.0285C22.9542 60.1684 22.7978 60.3022 22.6303 60.4248C22.5298 60.4973 22.4263 60.5627 22.3207 60.629C22.1106 60.7618 21.8944 60.8844 21.6659 60.9865C21.6 61.0161 21.5319 61.0396 21.4629 61.0661C21.1929 61.1744 20.9127 61.2663 20.6213 61.3286C20.5929 61.3358 20.5635 61.3378 20.534 61.3439C20.2062 61.4083 19.8681 61.4471 19.5209 61.4471C19.1737 61.4471 18.8357 61.4083 18.5088 61.3439C18.4794 61.3378 18.4499 61.3358 18.4205 61.3286C18.1302 61.2663 17.851 61.1744 17.5789 61.0661C17.5119 61.0396 17.4429 61.0161 17.3769 60.9865C17.1485 60.8844 16.9323 60.7608 16.7222 60.629C16.6176 60.5627 16.513 60.4973 16.4135 60.4248C16.2471 60.3022 16.0887 60.1695 15.9374 60.0295C15.8319 59.9325 15.7293 59.8365 15.6329 59.7324C15.6329 59.7313 15.6319 59.7313 15.6319 59.7313C14.7385 58.7713 14.1812 57.4896 14.1812 56.0731C14.1812 55.6309 14.2492 55.2081 14.3497 54.7965C14.3497 54.7955 14.3508 54.7955 14.3508 54.7955C14.5487 53.9846 14.9335 53.2554 15.4512 52.6355C15.509 52.5661 15.5618 52.4935 15.6217 52.4272C15.7507 52.2883 15.8897 52.1637 16.0308 52.0391C16.1354 51.9472 16.24 51.8583 16.3496 51.7746C16.4816 51.6765 16.6156 51.5856 16.7557 51.4998C16.8998 51.41 17.049 51.3303 17.2023 51.2558C17.3312 51.1924 17.4581 51.1291 17.5921 51.076C17.783 51.0004 17.984 50.9443 18.186 50.8912C18.2977 50.8615 18.4063 50.8238 18.521 50.8013C18.8438 50.739 19.1748 50.7002 19.5169 50.7002C19.5179 50.7002 19.5199 50.7002 19.5209 50.7002C19.5219 50.7002 19.524 50.7002 19.525 50.7002C19.8671 50.7002 20.198 50.739 20.5219 50.8013C20.6366 50.8238 20.7442 50.8615 20.8579 50.8912C21.0589 50.9443 21.2589 51.0004 21.4517 51.076C21.5847 51.1291 21.7116 51.1924 21.8405 51.2558C21.9949 51.3303 22.1431 51.41 22.2872 51.4988C22.4273 51.5856 22.5613 51.6765 22.6923 51.7746C22.8039 51.8583 22.9085 51.9472 23.012 52.0391C23.1531 52.1637 23.2922 52.2883 23.4201 52.4272C23.482 52.4935 23.5338 52.5661 23.5917 52.6355C24.1104 53.2554 24.4952 53.9846 24.6931 54.7955V54.7965C24.7946 55.2081 24.8627 55.6309 24.8627 56.0731C24.8627 57.4896 24.3043 58.7713 23.41 59.7313ZM71.5718 20.3019C71.5728 20.2917 71.5749 20.2866 71.5769 20.2774C71.5464 20.2314 71.521 20.1987 71.4916 20.1548C71.4266 20.0466 71.3556 19.9455 71.2805 19.8454C69.4461 17.1543 68.2797 16.565 68.2797 16.565L68.2868 16.5824C67.7406 16.2423 67.1031 16.036 66.4148 16.036H34.264C32.192 16.036 30.5059 17.7324 30.5059 19.8168V23.8815H20.9178C19.7128 23.8815 18.5525 24.3921 17.7353 25.2816L7.15333 36.7914C6.40923 37.6003 6.00012 38.6522 6.00012 39.7531V54.2072C6.00012 54.8169 6.18082 55.3797 6.48029 55.8617L6.47014 55.8607C6.47014 55.8607 7.35738 57.5305 9.02629 58.8765C9.18668 59.0277 9.3623 59.1574 9.55112 59.2718C9.57447 59.2881 9.59579 59.3075 9.62015 59.3238C9.62827 59.3249 9.63436 59.3218 9.64249 59.3218C10.0922 59.5751 10.6028 59.7313 11.154 59.7313H12.5387C13.8554 62.2641 16.4887 64.0003 19.5209 64.0003C22.5542 64.0003 25.1875 62.2641 26.5042 59.7313H33.9878H35.0741H49.1755C50.4922 62.2641 53.1255 64.0003 56.1567 64.0003C59.19 64.0003 61.8233 62.2641 63.14 59.7313H70.5719C71.3728 59.7313 72.0246 59.0767 72.0246 58.2709V22.0197C72.0246 21.3936 71.851 20.8146 71.5718 20.3019Z" fill="#004833"/>
</svg>
