<svg width="78" height="79" viewBox="0 0 78 79" fill="none" xmlns="http://www.w3.org/2000/svg">
<path fill-rule="evenodd" clip-rule="evenodd" d="M51.9649 29.87H25.0349C23.9299 29.87 23.0349 30.766 23.0349 31.87C23.0349 32.974 23.9299 33.87 25.0349 33.87H31.3669C33.4119 34.007 34.4199 35.734 34.4199 37.867L31.4039 54.359C31.2069 55.446 31.9259 56.488 33.0139 56.686C33.1349 56.709 33.2559 56.72 33.3749 56.72C34.3219 56.72 35.1639 56.044 35.3399 55.079L37.5659 42.905V42.907C37.5659 42.422 37.9589 42.03 38.4429 42.03C38.8649 42.03 39.2009 42.334 39.2839 42.732L41.5409 55.079C41.7189 56.044 42.5609 56.72 43.5079 56.72C43.6269 56.72 43.7479 56.709 43.8689 56.686C44.9549 56.488 45.6759 55.446 45.4769 54.359L42.4549 37.828C42.4669 35.714 43.4729 34.006 45.5049 33.87H51.9649C53.0699 33.87 53.9649 32.974 53.9649 31.87C53.9649 30.766 53.0699 29.87 51.9649 29.87ZM38.5001 28.7269C40.5821 28.7269 42.2701 27.0389 42.2701 24.9569C42.2701 22.8749 40.5821 21.1869 38.5001 21.1869C36.4181 21.1869 34.7301 22.8749 34.7301 24.9569C34.7301 27.0389 36.4181 28.7269 38.5001 28.7269Z" fill="#534891"/>
<path fill-rule="evenodd" clip-rule="evenodd" d="M38.7109 67.9846C22.2969 67.9846 8.9419 54.6306 8.9419 38.2166C8.9419 21.8026 22.2969 8.44963 38.7109 8.44963C55.1239 8.44963 68.4779 21.8026 68.4779 38.2166C68.4779 54.6306 55.1239 67.9846 38.7109 67.9846ZM65.8799 20.8426C60.1389 11.8946 50.1079 5.94763 38.7109 5.94763C20.9189 5.94763 6.44189 20.4226 6.44189 38.2156C6.44189 45.3486 8.7739 51.9456 12.7089 57.2936C18.4489 66.2476 28.4819 72.1976 39.8849 72.1976C57.6769 72.1976 72.1509 57.7226 72.1509 39.9306C72.1509 32.7926 69.8169 26.1926 65.8799 20.8426Z" fill="#534891"/>
</svg>
