<svg width="78" height="79" viewBox="0 0 78 79" fill="none" xmlns="http://www.w3.org/2000/svg">
<path fill-rule="evenodd" clip-rule="evenodd" d="M2 25.0975L4.02 27.3155L14.694 17.5965L12.674 15.3785L2 25.0975Z" fill="#534891"/>
<path fill-rule="evenodd" clip-rule="evenodd" d="M12.173 26.5025L14.196 28.7175L21.129 22.3875L19.106 20.1725L12.173 26.5025Z" fill="#534891"/>
<path fill-rule="evenodd" clip-rule="evenodd" d="M42.819 72.0135L44.846 74.2255L55.492 64.4755L53.465 62.2635L42.819 72.0135Z" fill="#534891"/>
<path fill-rule="evenodd" clip-rule="evenodd" d="M44.288 63.9775L51.22 57.6485L49.197 55.4325L42.265 61.7615L44.288 63.9775Z" fill="#534891"/>
<path fill-rule="evenodd" clip-rule="evenodd" d="M67.6466 13.2263L56.2406 23.2453C55.9346 23.5143 55.7786 23.9143 55.8226 24.3203L59.0926 54.3133L57.0426 56.1153L46.7976 33.6843C46.6326 33.3253 46.3086 33.0643 45.9216 32.9813C45.8346 32.9623 45.7476 32.9543 45.6606 32.9543C45.3596 32.9543 45.0656 33.0623 44.8346 33.2643L33.4296 43.2843C33.1516 43.5293 32.9956 43.8833 33.0046 44.2533L33.2316 53.5293L32.0836 54.5393L27.3106 44.0873C27.2086 43.8653 27.0426 43.6763 26.8346 43.5463L17.0866 37.4663L18.2356 36.4563L27.4046 37.8773C27.7716 37.9333 28.1426 37.8253 28.4206 37.5813L39.8266 27.5633C40.1236 27.3023 40.2796 26.9153 40.2476 26.5223C40.2156 26.1273 39.9986 25.7723 39.6636 25.5633L18.7406 12.5123L20.7906 10.7113L50.1126 17.8193C50.5086 17.9133 50.9256 17.8113 51.2316 17.5433L62.6376 7.52532C63.4026 6.85232 64.3726 6.50632 65.3966 6.58132C66.4096 6.64532 67.3356 7.09932 68.0046 7.86132C68.6726 8.62232 69.0036 9.59832 68.9376 10.6113C68.8696 11.6253 68.4116 12.5543 67.6466 13.2263ZM73.2536 8.89132C73.2456 8.87932 73.2476 8.87432 73.2386 8.86232C70.9326 5.82132 67.4566 4.50532 67.4566 4.50532V4.50832C66.8556 4.27432 66.2166 4.12832 65.5546 4.08632C63.8786 3.97432 62.2526 4.53532 60.9876 5.64632L50.0696 15.2363L20.7486 8.12832C20.3506 8.03432 19.9346 8.13532 19.6286 8.40432L15.8266 11.7443C15.5296 12.0053 15.3746 12.3913 15.4066 12.7853C15.4386 13.1793 15.6546 13.5353 15.9906 13.7443L34.7746 25.4603L36.8146 26.8813L27.2096 35.3183L18.0416 33.8973C17.6716 33.8393 17.3026 33.9493 17.0246 34.1933L14.1736 36.6983C13.8756 36.9593 13.7206 37.3453 13.7516 37.7393C13.7846 38.1333 14.0006 38.4893 14.3366 38.6983L25.1926 45.4683L30.5076 57.1073C30.5386 57.1743 30.5806 57.2353 30.6226 57.2953H30.6206C30.6206 57.2953 30.6276 57.3053 30.6316 57.3103C30.6506 57.3373 30.6696 57.3643 30.6916 57.3893C31.0546 57.8613 32.8426 60.0733 34.4436 60.0963C34.8286 60.1793 35.2326 60.0743 35.5296 59.8133L38.3806 57.3083C38.6586 57.0633 38.8146 56.7083 38.8056 56.3383L38.5786 47.0633L46.8426 39.8023L55.4666 58.6833C55.4926 58.7383 55.5276 58.7863 55.5596 58.8363L55.5566 58.8373L55.6046 58.9113C55.6116 58.9183 55.6166 58.9283 55.6236 58.9373C55.9316 59.3853 57.3146 61.2353 59.4016 61.6723C59.4886 61.6913 59.5766 61.7003 59.6636 61.7003C59.9646 61.7003 60.2586 61.5913 60.4886 61.3893L64.2906 58.0493C64.5966 57.7803 64.7516 57.3793 64.7086 56.9743L61.4386 26.9823L72.3556 17.3913C74.8416 15.2063 75.1966 11.4933 73.2536 8.89132Z" fill="#534891"/>
</svg>
