<svg width="78" height="79" viewBox="0 0 78 79" fill="none" xmlns="http://www.w3.org/2000/svg">
<path fill-rule="evenodd" clip-rule="evenodd" d="M38.268 68.1095C21.854 68.1095 8.5 54.7555 8.5 38.3425C8.5 21.9295 21.854 8.57451 38.268 8.57451C54.681 8.57451 68.035 21.9275 68.035 38.3415C68.035 54.7555 54.681 68.1095 38.268 68.1095ZM65.436 20.9675C59.696 12.0195 49.666 6.07251 38.268 6.07251C20.476 6.07251 6 20.5475 6 38.3405C6 45.4735 8.331 52.0705 12.266 57.4185C18.006 66.3725 28.039 72.3225 39.442 72.3225C57.234 72.3225 71.709 57.8475 71.709 40.0555C71.7152 33.1854 69.5164 26.4946 65.436 20.9675Z" fill="#534891"/>
<path fill-rule="evenodd" clip-rule="evenodd" d="M49.264 38.5105L40.021 47.7515V21.1425H36.521V47.7545L27.278 38.5115L24.92 40.8675L36.407 52.3525C36.9015 52.8466 37.572 53.1242 38.271 53.1242C38.9701 53.1242 39.6406 52.8466 40.135 52.3525L51.622 40.8665L49.264 38.5105Z" fill="#534891"/>
</svg>
