<svg width="78" height="79" viewBox="0 0 78 79" fill="none" xmlns="http://www.w3.org/2000/svg">
<path fill-rule="evenodd" clip-rule="evenodd" d="M38.268 68.1095C21.854 68.1095 8.50002 54.7555 8.50002 38.3425C8.50002 21.9295 21.854 8.57451 38.268 8.57451C54.681 8.57451 68.036 21.9275 68.036 38.3415C68.036 54.7555 54.68 68.1095 38.268 68.1095ZM65.437 20.9675C59.697 12.0195 49.666 6.07251 38.267 6.07251C20.477 6.07251 6.00002 20.5475 6.00002 38.3405C5.99325 45.2065 8.18955 51.8936 12.266 57.4185C18.006 66.3725 28.039 72.3225 39.443 72.3225C57.235 72.3225 71.709 57.8475 71.709 40.0555C71.7151 33.1856 69.5167 26.4949 65.437 20.9675Z" fill="#534891"/>
<path fill-rule="evenodd" clip-rule="evenodd" d="M56.1021 29.6675L48.5071 22.0725L46.3871 24.1935L51.4711 29.2795H21.3651V32.2795H51.4721L46.3861 37.3645L48.5071 39.4855L56.1011 31.8925C56.7151 31.2775 56.7151 30.2825 56.1021 29.6685V29.6675ZM56.1971 46.2675H26.0911L31.1761 41.1825L29.0541 39.0615L21.4611 46.6565C21.3149 46.8023 21.1989 46.9756 21.1198 47.1663C21.0406 47.357 20.9999 47.5615 20.9999 47.768C20.9999 47.9745 21.0406 48.179 21.1198 48.3697C21.1989 48.5604 21.3149 48.7337 21.4611 48.8795L29.0541 56.4735L31.1761 54.3525L26.0911 49.2675H56.1971V46.2675Z" fill="#534891"/>
</svg>
