<svg width="78" height="79" viewBox="0 0 78 79" fill="none" xmlns="http://www.w3.org/2000/svg">
<path fill-rule="evenodd" clip-rule="evenodd" d="M53.6376 53.9606C53.6376 51.8506 51.9276 50.1396 49.8166 50.1396C47.7066 50.1396 45.9956 51.8506 45.9956 53.9606C45.9956 55.3126 46.6996 56.4976 47.7596 57.1766V60.4266C47.7596 61.5636 48.6806 62.4836 49.8166 62.4836C50.9526 62.4836 51.8736 61.5636 51.8736 60.4266V57.1766C52.9336 56.4976 53.6376 55.3126 53.6376 53.9606Z" fill="#534891"/>
<path fill-rule="evenodd" clip-rule="evenodd" d="M11.4871 36.2795H31.8081V33.2795H11.4871V36.2795Z" fill="#534891"/>
<path fill-rule="evenodd" clip-rule="evenodd" d="M11.4871 43.2686H25.7851V40.2686H11.4871V43.2686Z" fill="#534891"/>
<path fill-rule="evenodd" clip-rule="evenodd" d="M68.9295 17.2106H6.49951V13.8546C6.49951 12.5666 7.54751 11.5196 8.83451 11.5196H66.5945C67.8815 11.5196 68.9295 12.5666 68.9295 13.8546V17.2106ZM68.9295 50.4056C68.9295 51.6926 67.8815 52.7406 66.5945 52.7406H64.0775V43.5986H59.8845V42.3526C59.8845 36.5716 55.3675 31.8686 49.8165 31.8686C44.2655 31.8686 39.7485 36.5716 39.7485 42.3526V43.5986H35.5555V52.7406H8.83451C7.54751 52.7406 6.49951 51.6926 6.49951 50.4056V27.2816H68.9295V50.4056ZM42.2485 43.5986V42.3526C42.2485 37.9506 45.6435 34.3686 49.8165 34.3686C53.9895 34.3686 57.3845 37.9506 57.3845 42.3526V43.5986H42.2485ZM61.5775 62.2226C61.5775 64.5946 59.6475 66.5246 57.2745 66.5246H42.3575C39.9855 66.5246 38.0545 64.5946 38.0545 62.2226V46.0986H61.5775V62.2226ZM73.2945 13.6676C71.5495 11.1066 68.7845 9.58563 68.7845 9.58563C68.7845 9.58563 68.7755 9.60563 68.7725 9.61463C68.1145 9.27963 67.3825 9.07263 66.5945 9.07263H8.83451C6.16851 9.07263 3.99951 11.2416 3.99951 13.9076V50.4586C3.99951 51.1296 4.13851 51.7696 4.38751 52.3516C4.41651 52.5436 4.52851 52.8026 4.77151 53.1636C6.51551 55.7446 9.30651 57.2796 9.30651 57.2796C9.30651 57.2796 9.31251 57.2636 9.31451 57.2606C10.0045 57.6396 10.7835 57.8746 11.6245 57.8746H35.5555V62.2226C35.5555 65.9736 38.6065 69.0246 42.3575 69.0246H57.2755C61.0265 69.0246 64.0775 65.9736 64.0775 62.2226V57.8746H69.3845C72.0515 57.8746 74.2205 55.7056 74.2205 53.0396V16.4886C74.2205 15.4336 73.8715 14.4636 73.2945 13.6676Z" fill="#534891"/>
</svg>
