<svg width="78" height="79" viewBox="0 0 78 79" fill="none" xmlns="http://www.w3.org/2000/svg">
<path fill-rule="evenodd" clip-rule="evenodd" d="M10.1221 51.0725H23.2441V30.4045H10.1221V51.0725Z" fill="#534891"/>
<path fill-rule="evenodd" clip-rule="evenodd" d="M46.719 47.0515C46.835 47.1678 46.9727 47.2601 47.1244 47.3231C47.2761 47.3861 47.4388 47.4185 47.603 47.4185C47.7673 47.4185 47.9299 47.3861 48.0816 47.3231C48.2333 47.2601 48.3711 47.1678 48.487 47.0515L54.256 41.2825C54.4838 41.0468 54.6099 40.7311 54.6071 40.4033C54.6044 40.0756 54.473 39.762 54.2413 39.5302C54.0096 39.2984 53.6961 39.1668 53.3684 39.1639C53.0406 39.1609 52.7248 39.2868 52.489 39.5145L46.719 45.2835C46.6029 45.3995 46.5108 45.5374 46.448 45.689C46.3851 45.8407 46.3528 46.0033 46.3528 46.1675C46.3528 46.3316 46.3851 46.4942 46.448 46.6459C46.5108 46.7976 46.6029 46.9354 46.719 47.0515ZM52.674 45.4355L49.552 48.5585C49.4327 48.6738 49.3375 48.8118 49.272 48.9643C49.2065 49.1168 49.1721 49.2808 49.1707 49.4468C49.1693 49.6128 49.201 49.7774 49.2639 49.931C49.3268 50.0846 49.4196 50.2241 49.537 50.3415C49.6544 50.4588 49.794 50.5516 49.9477 50.6144C50.1013 50.6772 50.2659 50.7088 50.4319 50.7073C50.5979 50.7058 50.7619 50.6713 50.9143 50.6057C51.0668 50.5402 51.2047 50.4449 51.32 50.3255L54.442 47.2035C54.5581 47.0874 54.6502 46.9496 54.713 46.7979C54.7758 46.6462 54.8082 46.4836 54.8082 46.3195C54.8082 46.1553 54.7758 45.9927 54.713 45.841C54.6502 45.6894 54.5581 45.5516 54.442 45.4355C54.3259 45.3194 54.1881 45.2273 54.0364 45.1645C53.8848 45.1016 53.7222 45.0693 53.558 45.0693C53.3938 45.0693 53.2313 45.1016 53.0796 45.1645C52.9279 45.2273 52.7901 45.3194 52.674 45.4355Z" fill="#534891"/>
<path fill-rule="evenodd" clip-rule="evenodd" d="M72.205 14.0725C72.896 14.0725 73.455 14.6325 73.455 15.3225V55.3735C73.4526 57.2022 72.7251 58.9554 71.432 60.2485C70.1389 61.5416 68.3857 62.2691 66.557 62.2715H5.25C4.56 62.2715 4 61.7115 4 61.0215V24.5095C4 24.4725 4.018 24.4415 4.021 24.4045C4.018 24.3685 4 24.3365 4 24.2995V15.3225C4 14.6325 4.56 14.0725 5.25 14.0725H72.205ZM64.711 25.7595H6.5V59.7725H26.901V31.6165C26.901 30.9265 27.461 30.3665 28.151 30.3665H58.396C59.086 30.3665 59.646 30.9265 59.646 31.6165V59.7725H64.711V25.7595ZM57.146 32.8665H44.587V59.7725H57.146V32.8665ZM42.087 32.8665H29.401V59.7725H42.087V32.8665ZM64.711 16.5725H6.5V23.0505H64.711V16.5725Z" fill="#534891"/>
</svg>
