<svg width="78" height="79" viewBox="0 0 78 79" fill="none" xmlns="http://www.w3.org/2000/svg">
<path fill-rule="evenodd" clip-rule="evenodd" d="M11.385 40.9825H44.385V37.9825H11.385V40.9825Z" fill="#534891"/>
<path fill-rule="evenodd" clip-rule="evenodd" d="M11.385 47.9716H30.371V44.9716H11.385V47.9716Z" fill="#534891"/>
<path fill-rule="evenodd" clip-rule="evenodd" d="M66.5952 57.7933H8.83524C7.54724 57.7933 6.50024 56.7463 6.50024 55.4583V32.2663H68.9302V55.4583C68.9302 56.7463 67.8832 57.7933 66.5952 57.7933ZM8.83524 16.5723H66.5952C67.8832 16.5723 68.9302 17.6203 68.9302 18.9073V22.1953H6.50024V18.9073C6.50024 17.6203 7.54724 16.5723 8.83524 16.5723ZM73.2982 18.6713C71.5522 16.1083 68.7842 14.5853 68.7842 14.5853C68.7842 14.5853 68.7762 14.6053 68.7732 14.6143C68.1152 14.2793 67.3822 14.0723 66.5952 14.0723H8.83524C6.16924 14.0723 4.00024 16.2413 4.00024 18.9073V55.4583C4.00024 56.1303 4.13924 56.7703 4.38824 57.3523C4.41724 57.5443 4.52924 57.8033 4.77224 58.1633C6.51624 60.7443 9.30724 62.2793 9.30724 62.2793C9.30724 62.2793 9.31324 62.2643 9.31524 62.2603C10.0052 62.6393 10.7842 62.8753 11.6252 62.8753H69.3862C72.0522 62.8753 74.2202 60.7063 74.2202 58.0403V21.4893C74.2202 20.4353 73.8722 19.4663 73.2982 18.6713Z" fill="#534891"/>
</svg>
