<svg width="78" height="79" viewBox="0 0 78 79" fill="none" xmlns="http://www.w3.org/2000/svg">
<path fill-rule="evenodd" clip-rule="evenodd" d="M14.026 23.2665H21C21.0849 23.2665 21.1663 23.2327 21.2263 23.1727C21.2863 23.1127 21.32 23.0313 21.32 22.9465V16.1645C21.3197 16.0798 21.2859 15.9986 21.2259 15.9388C21.1659 15.879 21.0847 15.8455 21 15.8455H14.027C13.9423 15.8457 13.8612 15.8796 13.8014 15.9395C13.7416 15.9995 13.708 16.0808 13.708 16.1655V22.9465C13.708 23.1235 13.85 23.2665 14.028 23.2665H14.026ZM26.525 23.2665H33.498C33.5829 23.2665 33.6643 23.2327 33.7243 23.1727C33.7843 23.1127 33.818 23.0313 33.818 22.9465V16.1645C33.8177 16.0798 33.7839 15.9986 33.7239 15.9388C33.6639 15.879 33.5827 15.8455 33.498 15.8455H26.525C26.4403 15.8457 26.3592 15.8796 26.2994 15.9395C26.2396 15.9995 26.206 16.0808 26.206 16.1655V22.9465C26.206 23.1235 26.348 23.2665 26.526 23.2665H26.525ZM14.026 35.8345H21C21.0849 35.8345 21.1663 35.8007 21.2263 35.7407C21.2863 35.6807 21.32 35.5993 21.32 35.5145V28.7325C21.3197 28.6478 21.2859 28.5666 21.2259 28.5068C21.1659 28.447 21.0847 28.4135 21 28.4135H14.027C13.9425 28.4137 13.8615 28.4474 13.8017 28.5072C13.742 28.567 13.7083 28.6479 13.708 28.7325V35.5145C13.708 35.6915 13.85 35.8345 14.028 35.8345H14.026ZM33.563 28.4125H26.591C26.5061 28.4125 26.4247 28.4462 26.3647 28.5062C26.3047 28.5662 26.271 28.6476 26.271 28.7325V35.5155C26.2713 35.6002 26.3051 35.6813 26.3651 35.7411C26.4251 35.8009 26.5063 35.8345 26.591 35.8345H33.563C33.6479 35.8345 33.7293 35.8007 33.7893 35.7407C33.8493 35.6807 33.883 35.5993 33.883 35.5145V28.7335C33.883 28.6486 33.8493 28.5672 33.7893 28.5072C33.7293 28.4472 33.6479 28.4135 33.563 28.4135V28.4125ZM14.026 48.4025H21C21.0849 48.4025 21.1663 48.3687 21.2263 48.3087C21.2863 48.2487 21.32 48.1673 21.32 48.0825V41.3005C21.32 41.2156 21.2863 41.1342 21.2263 41.0742C21.1663 41.0142 21.0849 40.9805 21 40.9805H14.027C13.9423 40.9807 13.8612 41.0146 13.8014 41.0745C13.7416 41.1345 13.708 41.2158 13.708 41.3005V48.0835C13.708 48.2595 13.85 48.4025 14.028 48.4025H14.026ZM26.559 48.4025H33.532C33.6167 48.4022 33.6978 48.3684 33.7576 48.3084C33.8174 48.2484 33.851 48.1672 33.851 48.0825V41.3005C33.851 41.2156 33.8173 41.1342 33.7573 41.0742C33.6973 41.0142 33.6159 40.9805 33.531 40.9805H26.56C26.4751 40.9805 26.3937 41.0142 26.3337 41.0742C26.2737 41.1342 26.24 41.2156 26.24 41.3005V48.0835C26.2403 48.1682 26.2741 48.2493 26.3341 48.3091C26.3941 48.3689 26.4753 48.4025 26.56 48.4025H26.559ZM14.026 60.9705H21C21.0849 60.9705 21.1663 60.9367 21.2263 60.8767C21.2863 60.8167 21.32 60.7353 21.32 60.6505V53.8685C21.32 53.7836 21.2863 53.7022 21.2263 53.6422C21.1663 53.5822 21.0849 53.5485 21 53.5485H14.027C13.9423 53.5487 13.8612 53.5826 13.8014 53.6425C13.7416 53.7025 13.708 53.7838 13.708 53.8685V60.6515C13.708 60.8275 13.85 60.9705 14.028 60.9705H14.026ZM33.597 53.5495H26.624C26.5393 53.5495 26.4581 53.583 26.3981 53.6428C26.3381 53.7026 26.3043 53.7838 26.304 53.8685V60.6515C26.3043 60.7362 26.3381 60.8173 26.3981 60.8771C26.4581 60.9369 26.5393 60.9705 26.624 60.9705H33.597C33.639 60.9705 33.6805 60.9622 33.7193 60.9461C33.7581 60.93 33.7933 60.9064 33.8229 60.8767C33.8526 60.8469 33.876 60.8117 33.892 60.7728C33.908 60.734 33.9161 60.6924 33.916 60.6505V53.8685C33.916 53.7836 33.8823 53.7022 33.8223 53.6422C33.7623 53.5822 33.6809 53.5485 33.596 53.5485" fill="#534891"/>
<path fill-rule="evenodd" clip-rule="evenodd" d="M40.629 65.3265H61.698V30.0195H40.629V65.3265ZM9.5 65.3265H38.129V11.5725H9.5V65.3265ZM70.038 28.3835C70.0372 28.1562 69.9464 27.9385 69.7853 27.778C69.6243 27.6176 69.4063 27.5275 69.179 27.5275L46.388 27.5195V9.94051C46.3875 9.71046 46.2959 9.48999 46.1332 9.32732C45.9705 9.16466 45.75 9.07304 45.52 9.07251H8.25C7.56 9.07251 7 9.63251 7 10.3225V66.5765C7 67.2665 7.56 67.8265 8.25 67.8265L63.655 67.8545C65.3768 67.8497 67.0262 67.1614 68.2406 65.9408C69.455 64.7202 70.135 63.0673 70.131 61.3455L70.038 28.3835Z" fill="#534891"/>
<path fill-rule="evenodd" clip-rule="evenodd" d="M57.179 39.0945H45.149C45.0924 39.0943 45.0383 39.0716 44.9984 39.0315C44.9584 38.9914 44.936 38.9371 44.936 38.8805V34.5975C44.936 34.4795 45.032 34.3835 45.149 34.3835H57.179C57.296 34.3835 57.392 34.4795 57.392 34.5975V38.8805C57.392 38.9371 57.3696 38.9914 57.3297 39.0315C57.2898 39.0716 57.2356 39.0943 57.179 39.0945ZM57.179 48.2595H45.149C45.0926 48.2593 45.0386 48.2368 44.9987 48.1969C44.9588 48.157 44.9363 48.103 44.936 48.0465V43.7625C44.936 43.6455 45.032 43.5495 45.149 43.5495H57.179C57.296 43.5495 57.392 43.6455 57.392 43.7625V48.0465C57.3918 48.103 57.3692 48.157 57.3294 48.1969C57.2895 48.2368 57.2354 48.2593 57.179 48.2595ZM57.179 57.4255H45.149C45.0924 57.4253 45.0383 57.4026 44.9984 57.3625C44.9584 57.3224 44.936 57.2681 44.936 57.2115V52.9285C44.936 52.8105 45.032 52.7145 45.149 52.7145H57.179C57.296 52.7145 57.392 52.8105 57.392 52.9285V57.2115C57.392 57.2681 57.3696 57.3224 57.3297 57.3625C57.2898 57.4026 57.2356 57.4253 57.179 57.4255Z" fill="#534891"/>
</svg>
