<svg width="78" height="79" viewBox="0 0 78 79" fill="none" xmlns="http://www.w3.org/2000/svg">
<path fill-rule="evenodd" clip-rule="evenodd" d="M58.4887 67.2456H48.2197C48.0557 67.2456 47.9237 67.1126 47.9237 66.9486V61.2666C47.9237 61.1026 48.0557 60.9696 48.2197 60.9696H58.4887C58.6527 60.9696 58.7847 61.1026 58.7847 61.2666V66.9486C58.7847 67.1126 58.6527 67.2456 58.4887 67.2456Z" fill="#534891"/>
<path fill-rule="evenodd" clip-rule="evenodd" d="M8.871 70.1992L10.271 61.1392L10.294 61.0082C10.755 58.3502 12.569 56.0652 15.146 54.8942C16.77 54.1582 19.838 52.7572 22.78 51.3702L32.383 60.9742C32.775 61.3662 33.41 61.3662 33.802 60.9742L37.253 57.5222L40.712 60.9812C41.1 61.3682 41.728 61.3682 42.117 60.9812L51.684 51.4122L52.02 51.5692C54.773 52.8422 57.551 54.0912 59.07 54.7702C61.654 55.9252 63.481 58.2002 63.959 60.8612L65.433 70.0382L8.871 70.1992ZM30.571 46.2552C31.157 45.1992 31.479 44.0212 31.629 42.8612C33.303 43.9952 35.2 44.7132 37.338 44.7132C39.302 44.7132 41.042 44.1602 42.581 43.2592C42.846 44.8032 43.39 46.0872 44.185 47.0972C44.185 47.0972 44.535 47.5142 45.276 48.0802L37.253 56.1032L29.046 47.8952C30.174 46.9532 30.571 46.2552 30.571 46.2552ZM24.604 27.3962C37.866 24.0062 42.405 13.8142 42.405 13.8142C44.46 19.2382 47.873 23.1802 50.014 25.2832C49.985 26.5502 49.766 27.8082 49.36 29.0142C47.879 33.4232 44.079 42.2132 37.338 42.2132C29.965 42.2132 25.637 30.5432 24.604 27.3962ZM69.221 60.1132L69.191 59.9422C68.535 56.2252 66.017 53.0482 62.455 51.4442C59.8 50.2482 53.024 48.0302 49.61 46.2932C47.984 45.4662 46.87 44.3992 46.163 43.4362C51.028 44.8082 54.175 44.4212 55.599 42.2692C58.165 38.3902 58.499 31.8832 56.599 22.7482C55.195 12.4072 47.248 4.07324 36.947 4.07324C26.646 4.07324 18.748 13.4682 17.295 22.7482C15.493 31.7822 15.827 38.2892 18.295 42.2692C19.761 44.6322 23.385 44.7842 29.166 42.7292C28.96 44.0862 28.455 45.5112 27.289 46.3502C27.136 46.4612 26.97 46.5622 26.793 46.6532C23.356 48.4122 16.813 51.4032 14.16 52.6072C10.828 54.1192 8.479 57.0962 7.88 60.5582L6 72.6962L55.445 72.5562H71.227L69.221 60.1132Z" fill="#534891"/>
</svg>
