<svg width="78" height="79" viewBox="0 0 78 79" fill="none" xmlns="http://www.w3.org/2000/svg">
<path fill-rule="evenodd" clip-rule="evenodd" d="M25.4757 54.618C26.5697 54.618 27.4567 53.731 27.4567 52.637C27.4567 51.542 26.5697 50.655 25.4757 50.655C24.3807 50.655 23.4937 51.542 23.4937 52.637C23.4937 53.731 24.3807 54.618 25.4757 54.618ZM32.4156 63.0946C33.5096 63.0946 34.3966 62.2066 34.3966 61.1126C34.3966 60.0186 33.5096 59.1316 32.4156 59.1316C31.3206 59.1316 30.4336 60.0186 30.4336 61.1126C30.4336 62.2066 31.3206 63.0946 32.4156 63.0946Z" fill="#534891"/>
<path fill-rule="evenodd" clip-rule="evenodd" d="M36.026 38.3286H30.527V32.8296H27.55V38.3286H22.051V41.3056H27.55V46.8046H30.527V41.3056H36.026V38.3286Z" fill="#534891"/>
<path fill-rule="evenodd" clip-rule="evenodd" d="M52.9381 35.8275L50.8341 33.7225L46.5741 37.9815L42.3151 33.7225L40.2101 35.8275L44.4691 40.0865L40.2101 44.3465L42.3151 46.4515L46.5741 42.1915L50.8341 46.4515L52.9381 44.3465L48.6791 40.0865L52.9381 35.8275Z" fill="#534891"/>
<path fill-rule="evenodd" clip-rule="evenodd" d="M24.6861 63.3365L22.5811 61.2315L33.2051 50.6075L35.3101 52.7125L24.6861 63.3365Z" fill="#534891"/>
<path fill-rule="evenodd" clip-rule="evenodd" d="M40.4021 56.1065H53.6151V53.1295H40.4021V56.1065Z" fill="#534891"/>
<path fill-rule="evenodd" clip-rule="evenodd" d="M40.4021 62.1086H53.6151V59.1316H40.4021V62.1086Z" fill="#534891"/>
<path fill-rule="evenodd" clip-rule="evenodd" d="M21.2771 28.1836H54.9451V10.3716H21.2771V28.1836Z" fill="#534891"/>
<path fill-rule="evenodd" clip-rule="evenodd" d="M58.7212 65.3963C58.7212 66.6843 57.6742 67.7313 56.3862 67.7313H19.8352C18.5482 67.7313 17.5002 66.6843 17.5002 65.3963V8.90727C17.5002 7.62027 18.5482 6.57227 19.8352 6.57227H56.3862C57.6742 6.57227 58.7212 7.62027 58.7212 8.90727V65.3963ZM63.2532 9.45327L63.2772 9.44327C63.2772 9.44327 63.1802 9.26727 62.9952 8.97727C62.9822 8.95827 62.9712 8.93827 62.9572 8.91927C62.3842 8.02927 61.0562 6.18827 59.1602 4.90827C58.8362 4.68927 58.5882 4.56927 58.4012 4.52627C57.7862 4.24227 57.1072 4.07227 56.3862 4.07227H19.8352C17.1692 4.07227 15.0002 6.24127 15.0002 8.90727V65.3963C15.0002 66.1653 15.1972 66.8833 15.5182 67.5293C15.5172 67.5293 15.5132 67.5313 15.5132 67.5313C15.5132 67.5313 15.5472 67.5913 15.6062 67.6923C15.7222 67.9053 15.8492 68.1093 15.9952 68.3013C16.6332 69.2483 17.8802 70.8723 19.5962 72.0423C20.3912 72.6183 21.3612 72.9673 22.4162 72.9673H58.9672C61.6342 72.9673 63.8032 70.7983 63.8032 68.1323V11.6433C63.8032 10.8513 63.5932 10.1133 63.2532 9.45327Z" fill="#534891"/>
</svg>
