<svg width="78" height="79" viewBox="0 0 78 79" fill="none" xmlns="http://www.w3.org/2000/svg">
<path fill-rule="evenodd" clip-rule="evenodd" d="M32.2895 38.1801H25.7015C25.5345 38.1801 25.3995 38.0451 25.3995 37.8781V31.4701C25.3995 31.3041 25.5345 31.1681 25.7015 31.1681H32.2895C32.4565 31.1681 32.5915 31.3041 32.5915 31.4701V37.8781C32.5915 38.0451 32.4565 38.1801 32.2895 38.1801ZM44.0453 38.1801H37.4573C37.2903 38.1801 37.1553 38.0451 37.1553 37.8781V31.4701C37.1553 31.3041 37.2903 31.1681 37.4573 31.1681H44.0453C44.2123 31.1681 44.3473 31.3041 44.3473 31.4701V37.8781C44.3473 38.0451 44.2123 38.1801 44.0453 38.1801ZM55.8012 38.1801H49.2132C49.0472 38.1801 48.9112 38.0451 48.9112 37.8781V31.4701C48.9112 31.3041 49.0472 31.1681 49.2132 31.1681H55.8012C55.9682 31.1681 56.1032 31.3041 56.1032 31.4701V37.8781C56.1032 38.0451 55.9682 38.1801 55.8012 38.1801ZM20.5331 49.6069H13.9451C13.7791 49.6069 13.6431 49.4719 13.6431 49.3049V42.8969C13.6431 42.7309 13.7791 42.5949 13.9451 42.5949H20.5331C20.7001 42.5949 20.8351 42.7309 20.8351 42.8969V49.3049C20.8351 49.4719 20.7001 49.6069 20.5331 49.6069ZM32.2895 49.6069H25.7015C25.5345 49.6069 25.3995 49.4719 25.3995 49.3049V42.8969C25.3995 42.7309 25.5345 42.5949 25.7015 42.5949H32.2895C32.4565 42.5949 32.5915 42.7309 32.5915 42.8969V49.3049C32.5915 49.4719 32.4565 49.6069 32.2895 49.6069ZM44.0453 49.6069H37.4573C37.2903 49.6069 37.1553 49.4719 37.1553 49.3049V42.8969C37.1553 42.7309 37.2903 42.5949 37.4573 42.5949H44.0453C44.2123 42.5949 44.3473 42.7309 44.3473 42.8969V49.3049C44.3473 49.4719 44.2123 49.6069 44.0453 49.6069ZM55.8012 49.6069H49.2132C49.0472 49.6069 48.9112 49.4719 48.9112 49.3049V42.8969C48.9112 42.7309 49.0472 42.5949 49.2132 42.5949H55.8012C55.9682 42.5949 56.1032 42.7309 56.1032 42.8969V49.3049C56.1032 49.4719 55.9682 49.6069 55.8012 49.6069ZM20.5331 60.7539H13.9451C13.7791 60.7539 13.6431 60.6189 13.6431 60.4519V54.0439C13.6431 53.8779 13.7791 53.7419 13.9451 53.7419H20.5331C20.7001 53.7419 20.8351 53.8779 20.8351 54.0439V60.4519C20.8351 60.6189 20.7001 60.7539 20.5331 60.7539ZM32.2895 60.7539H25.7015C25.5345 60.7539 25.3995 60.6189 25.3995 60.4519V54.0439C25.3995 53.8779 25.5345 53.7419 25.7015 53.7419H32.2895C32.4565 53.7419 32.5915 53.8779 32.5915 54.0439V60.4519C32.5915 60.6189 32.4565 60.7539 32.2895 60.7539Z" fill="#534891"/>
<path fill-rule="evenodd" clip-rule="evenodd" d="M61.1548 65.7446V65.7526H12.0888C10.1098 65.7526 8.49976 64.1436 8.49976 62.1646V26.1696H61.1548V61.0016C61.1798 64.4436 62.1378 65.7446 64.1338 65.7446H61.1548ZM8.49976 16.8696H12.8098V19.0906C12.8098 20.3356 13.8188 21.3456 15.0638 21.3456C16.3098 21.3456 17.3188 20.3356 17.3188 19.0906V16.8696H52.5078V19.0906C52.5078 20.3356 53.5168 21.3456 54.7618 21.3456C56.0068 21.3456 57.0168 20.3356 57.0168 19.0906V16.8696H61.1548V23.6696H8.49976V16.8696ZM63.6548 56.3666V14.3696H57.0168V12.3276C57.0168 11.0816 56.0068 10.0726 54.7618 10.0726C53.5168 10.0726 52.5078 11.0816 52.5078 12.3276V14.3696H17.3188V12.3276C17.3188 11.0816 16.3098 10.0726 15.0638 10.0726C13.8188 10.0726 12.8098 11.0816 12.8098 12.3276V14.3696H5.99976V62.1646C5.99976 65.5216 8.73176 68.2526 12.0888 68.2526H63.6548V68.2426H67.7998C70.6558 68.2426 72.9708 65.9276 72.9708 63.0716V56.3666H63.6548Z" fill="#534891"/>
</svg>
