<svg width="78" height="79" viewBox="0 0 78 79" fill="none" xmlns="http://www.w3.org/2000/svg">
<path fill-rule="evenodd" clip-rule="evenodd" d="M6.499 54.3547H67.93V20.5727H6.499V54.3547ZM73.393 22.8877L73.395 22.8717C73.395 21.6687 70.33 18.0717 68.25 18.0717H6.18C4.978 18.0717 4 19.0507 4 20.2527V54.8157C4 55.8717 6.448 59.3927 8.626 59.8127C8.76 59.8397 8.898 59.8547 9.04 59.8547H71.39C72.515 59.8547 73.43 58.9397 73.43 57.8157V23.2527C73.43 23.1277 73.414 23.0067 73.393 22.8877Z" fill="#534891"/>
<path fill-rule="evenodd" clip-rule="evenodd" d="M11.1311 43.5077C15.7171 43.5077 16.6801 46.6057 16.6801 49.2037C16.6801 49.8947 17.2401 50.4537 17.9301 50.4537H31.0672C30.1852 49.7547 29.3801 48.9167 28.6701 47.9537H19.1141C18.6861 44.0487 16.2181 41.5257 12.3891 41.0787L12.4401 33.9027C16.2771 33.4607 18.7521 30.9367 19.1801 27.0257H28.6341C29.3361 26.0657 30.1311 25.2267 31.0031 24.5257H17.9971C17.3061 24.5257 16.7471 25.0847 16.7471 25.7757C16.7471 28.3737 15.7841 31.4717 11.1981 31.4717C10.5111 31.4717 9.95315 32.0267 9.94815 32.7127L9.88113 42.2487C9.87915 42.5817 10.0091 42.9027 10.2441 43.1387C10.4791 43.3747 10.7981 43.5077 11.1311 43.5077ZM55.1903 47.9539H45.8452C45.1362 48.9169 44.3312 49.7549 43.4482 50.4539H56.3742C57.0642 50.4539 57.6242 49.8939 57.6242 49.2039C57.6242 46.6049 58.5863 43.5079 63.1732 43.5079C63.8602 43.5079 64.4183 42.9529 64.4233 42.2669L64.4893 32.7299C64.4922 32.3969 64.3612 32.0769 64.1262 31.8409C63.8922 31.6039 63.5723 31.4719 63.2393 31.4719C58.6533 31.4719 57.6903 28.3739 57.6903 25.7749C57.6903 25.0849 57.1312 24.5249 56.4403 24.5249H43.5122C44.3853 25.2259 45.1802 26.0649 45.8812 27.0249H55.2572C55.6852 30.9309 58.1533 33.4539 61.9813 33.8999L61.9312 41.0769C58.0932 41.5179 55.6183 44.0429 55.1903 47.9539Z" fill="#534891"/>
<path fill-rule="evenodd" clip-rule="evenodd" d="M39.9718 43.3249C39.6228 43.7369 39.1868 44.0209 38.6718 44.1879V38.9799C39.2978 39.2109 39.7718 39.5089 40.0758 39.8829C40.4448 40.3349 40.6298 40.8739 40.6298 41.4989C40.6298 42.1979 40.4098 42.8059 39.9718 43.3249ZM34.8778 33.2209C34.5788 32.7979 34.4298 32.3379 34.4298 31.8429C34.4298 31.3019 34.5938 30.8069 34.9198 30.3589C35.2108 29.9609 35.5968 29.6709 36.0648 29.4789V34.1659C35.5468 33.9159 35.1468 33.6029 34.8778 33.2209ZM42.8408 37.2799C42.0798 36.3749 40.6848 35.6299 38.6718 35.0409V29.6889C39.3308 30.1139 39.7648 30.7709 39.9438 31.6889L43.4838 31.2269C43.2418 29.8279 42.6818 28.7109 41.8048 27.8759C41.0128 27.1219 39.9598 26.6499 38.6718 26.4319V24.9709H38.2648H36.2358H36.0648V26.3879C34.5428 26.5719 33.3088 27.1539 32.3798 28.1559C31.4138 29.1959 30.9318 30.4809 30.9318 32.0109C30.9318 33.5219 31.3578 34.8069 32.2118 35.8659C33.0378 36.8909 34.3258 37.6619 36.0648 38.1839V44.0049C35.6288 43.7599 35.2268 43.4049 34.8638 42.9269C34.4538 42.3849 34.1738 41.7409 34.0248 40.9949L30.3718 41.3869C30.6518 43.2239 31.2958 44.6469 32.3038 45.6549C33.2738 46.6249 34.5328 47.2099 36.0648 47.4279V50.0069H36.2358H38.2648H38.6718V47.3169C40.2948 47.0129 41.5818 46.3309 42.5258 45.2629C43.5468 44.1059 44.0578 42.6829 44.0578 40.9949C44.0578 39.4829 43.6518 38.2449 42.8408 37.2799Z" fill="#534891"/>
</svg>
