<svg width="78" height="79" viewBox="0 0 78 79" fill="none" xmlns="http://www.w3.org/2000/svg">
<path fill-rule="evenodd" clip-rule="evenodd" d="M56.225 51.2906C52.593 52.2446 48.333 48.1816 46.74 42.2336C45.486 37.5556 44.745 32.9666 44.3 29.4356H56.917C58.315 33.0936 59.365 36.2196 60.045 38.7576C61.041 42.4736 60.754 46.2096 59.276 48.7536C58.498 50.0936 57.443 50.9706 56.226 51.2906H56.225ZM43.75 24.1336L53.718 21.5346C54.4801 23.3263 55.2215 25.1267 55.942 26.9356H44.012C43.9152 26.0025 43.8278 25.0684 43.75 24.1336ZM67.036 68.9336C65.256 69.4076 64.124 69.0746 63.598 68.8296L59.363 53.0196C61.16 52.4946 62.68 51.2446 63.763 49.3806C65.569 46.2746 65.95 41.8256 64.786 37.4806C63.614 33.1086 61.411 27.1186 58.238 19.6766C58.078 19.3026 57.974 19.0606 57.944 18.9786L57.541 17.9296L41.028 22.2726L41.176 23.3696C41.188 23.4616 41.206 23.6876 41.234 24.0296C41.452 26.6496 42.112 34.6176 44.325 42.8746C46.085 49.4386 50.619 53.9246 55.147 53.9246C55.586 53.9246 56.025 53.8666 56.462 53.7796L60.702 69.6056C60.37 70.0816 59.559 70.9366 57.78 71.4136C57.5896 71.4643 57.4111 71.5521 57.2546 71.6718C57.0981 71.7916 56.9667 71.941 56.8679 72.1116C56.7692 72.2821 56.705 72.4704 56.679 72.6657C56.653 72.8611 56.6658 73.0596 56.7165 73.2501C56.7673 73.4405 56.855 73.619 56.9748 73.7755C57.0946 73.932 57.244 74.0634 57.4145 74.1622C57.5851 74.2609 57.7734 74.3251 57.9687 74.3511C58.1641 74.3771 58.3626 74.3643 58.553 74.3136L67.813 71.8316C68.1973 71.7287 68.525 71.4773 68.724 71.1328C68.923 70.7883 68.9769 70.3789 68.874 69.9946C68.7711 69.6103 68.5198 69.2826 68.1753 69.0836C67.8308 68.8846 67.4213 68.8307 67.037 68.9336H67.036ZM30.892 26.9356H18.742C19.5714 24.904 20.4527 22.894 21.385 20.9076L31.315 23.6416C31.1803 24.7404 31.039 25.8384 30.891 26.9356H30.892ZM28.183 41.7196C27.189 45.4356 25.072 48.5276 22.52 49.9926C21.177 50.7626 19.823 50.9956 18.61 50.6626C14.983 49.6706 13.33 44.0246 14.922 38.0786C15.659 35.3286 16.608 32.4386 17.752 29.4356H30.542C29.803 34.4986 29.015 38.6216 28.183 41.7196ZM19.957 17.9396L19.535 18.9596C19.5 19.0456 19.405 19.2446 19.264 19.5456C16.254 25.9186 13.982 31.9356 12.508 37.4316C10.58 44.6316 12.803 51.3206 17.567 52.9396L13.325 68.7686C12.803 69.0126 11.675 69.3476 9.90003 68.8756L9.88903 68.8726C9.69881 68.8216 9.50042 68.8086 9.30518 68.8343C9.10994 68.8601 8.92168 68.924 8.75114 69.0225C8.58061 69.1209 8.43114 69.252 8.31127 69.4083C8.1914 69.5645 8.10348 69.7428 8.05253 69.9331C8.00158 70.1233 7.98859 70.3217 8.01431 70.5169C8.04003 70.7122 8.10395 70.9004 8.20243 71.071C8.30091 71.2415 8.43201 71.3909 8.58825 71.5108C8.74449 71.6307 8.92281 71.7186 9.11303 71.7696H9.11703L18.36 74.2486C18.4906 74.2847 18.6255 74.3029 18.761 74.3026C19.1256 74.3033 19.4779 74.1712 19.7522 73.9311C20.0264 73.6909 20.2038 73.3591 20.2512 72.9977C20.2987 72.6362 20.2128 72.2699 20.0098 71.9671C19.8068 71.6644 19.5004 71.4459 19.148 71.3526L19.138 71.3506C17.366 70.8736 16.555 70.0206 16.222 69.5466L20.459 53.7346C20.9821 53.8651 21.5189 53.9323 22.058 53.9346C23.392 53.9346 24.759 53.5476 26.09 52.7846C29.206 50.9966 31.762 47.3346 32.926 42.9906C34.096 38.6226 35.184 32.3356 36.157 24.3026C36.206 23.8966 36.237 23.6346 36.251 23.5476L36.428 22.4376L19.958 17.9396H19.957Z" fill="#534891"/>
<path fill-rule="evenodd" clip-rule="evenodd" d="M37.2119 16.1035H39.7119V4.07251H37.2119V16.1035Z" fill="#534891"/>
<path fill-rule="evenodd" clip-rule="evenodd" d="M24.0681 7.87548L31.4611 17.3675L33.4331 15.8325L26.0411 6.33948L24.0681 7.87548Z" fill="#534891"/>
<path fill-rule="evenodd" clip-rule="evenodd" d="M52.8569 7.87548L45.4639 17.3675L43.4919 15.8325L50.8839 6.33948L52.8569 7.87548Z" fill="#534891"/>
</svg>
