<svg width="78" height="79" viewBox="0 0 78 79" fill="none" xmlns="http://www.w3.org/2000/svg">
<path fill-rule="evenodd" clip-rule="evenodd" d="M12.15 19.1035H43.364V16.1035H12.15V19.1035Z" fill="#534891"/>
<path fill-rule="evenodd" clip-rule="evenodd" d="M12.15 26.0825H43.364V23.0825H12.15V26.0825Z" fill="#534891"/>
<path fill-rule="evenodd" clip-rule="evenodd" d="M12.15 33.0605H33.026V30.0605H12.15V33.0605Z" fill="#534891"/>
<path fill-rule="evenodd" clip-rule="evenodd" d="M71.2813 26.5198H58.5752C57.9582 26.5198 57.4572 27.0198 57.4572 27.6378V44.7388C57.4572 45.3568 56.9562 45.8568 56.3392 45.8568H29.5513C28.9323 45.8568 28.4323 46.3578 28.4323 46.9758V48.2208V56.3088C28.4323 56.8178 28.8442 57.2308 29.3542 57.2308L50.2663 57.2248C50.4463 57.2188 62.1862 56.8448 67.2733 61.6858C69.0553 63.3828 70.0202 65.4908 70.2082 68.1098C70.2432 68.6058 70.6353 68.9988 71.1343 68.9968H71.1822C71.6902 68.9938 72.0992 68.5818 72.0992 68.0748V27.3378C72.0992 26.8858 71.7333 26.5198 71.2813 26.5198Z" fill="#534891"/>
<path fill-rule="evenodd" clip-rule="evenodd" d="M10.2139 44.5823C8.94588 45.7893 8.04688 47.1703 7.49988 48.7583V11.5723H48.6669V39.7833L28.1239 39.7773C27.6169 39.7563 15.6279 39.4313 10.2139 44.5823ZM48.9949 42.2833C48.9979 42.2833 49.0009 42.2823 49.0049 42.2823L51.9949 42.2833C53.1929 42.2833 54.1669 41.3093 54.1669 40.1113V11.1413C54.1669 10.0003 53.2389 9.07227 52.0989 9.07227H49.0989H10.0679H7.06788C5.92788 9.07227 4.99988 10.0003 4.99988 11.1403V51.8773C4.99988 53.0483 5.93888 54.0053 7.14888 54.0433V54.0463H7.18488C7.19288 54.0463 7.19988 54.0493 7.20788 54.0493H7.22088C7.22988 54.0493 7.23688 54.0463 7.24488 54.0463H10.1849C10.1929 54.0463 10.1999 54.0493 10.2079 54.0493H10.2209C10.2299 54.0493 10.2369 54.0463 10.2449 54.0463H10.2959V54.0413C11.3979 54.0023 12.3089 53.1253 12.3889 52.0013C12.5529 49.7043 13.3869 47.8703 14.9379 46.3933C18.6519 42.8583 26.5889 42.3393 29.7459 42.2773L48.9949 42.2833Z" fill="#534891"/>
</svg>
