<svg width="78" height="79" viewBox="0 0 78 79" fill="none" xmlns="http://www.w3.org/2000/svg">
<path fill-rule="evenodd" clip-rule="evenodd" d="M38.268 68.1096C21.854 68.1096 8.5 54.7556 8.5 38.3406C8.5 21.9276 21.854 8.57463 38.268 8.57463C54.681 8.57463 68.035 21.9276 68.035 38.3406C68.035 54.7556 54.681 68.1096 38.268 68.1096ZM65.437 20.9666C59.696 12.0196 49.666 6.07263 38.268 6.07263C20.476 6.07263 6 20.5466 6 38.3396C6 45.4736 8.331 52.0706 12.266 57.4186C18.006 66.3726 28.039 72.3226 39.442 72.3226C57.234 72.3226 71.709 57.8476 71.709 40.0556C71.709 32.9176 69.375 26.3176 65.437 20.9666Z" fill="#534891"/>
<path fill-rule="evenodd" clip-rule="evenodd" d="M39.8571 18.9775H36.8571V38.9195H38.3571L37.2721 39.9565L53.4401 56.8865L55.6101 54.8145L39.8571 38.3185V18.9775Z" fill="#534891"/>
<path fill-rule="evenodd" clip-rule="evenodd" d="M38.3568 34.4299C35.8768 34.4299 33.8658 36.4399 33.8658 38.9199C33.8658 41.4009 35.8768 43.4099 38.3568 43.4099C40.8368 43.4099 42.8478 41.4009 42.8478 38.9199C42.8478 36.4399 40.8368 34.4299 38.3568 34.4299Z" fill="#534891"/>
</svg>
