<svg width="78" height="79" viewBox="0 0 78 79" fill="none" xmlns="http://www.w3.org/2000/svg">
<path fill-rule="evenodd" clip-rule="evenodd" d="M52.827 52.0725H20.163L19 39.0725H54L52.827 52.0725Z" fill="#534891"/>
<path fill-rule="evenodd" clip-rule="evenodd" d="M13.594 22.4385H59.394V18.5305H13.594V22.4385ZM51.004 71.4965H21.984L17.92 25.0145H55.068L51.005 71.4965H51.004ZM18.512 9.07952L54.602 12.7545L55.791 15.9545H16.877L18.511 9.07952H18.512ZM62.002 15.9555L58.742 11.1625C58.6331 11.005 58.4906 10.8735 58.3247 10.7777C58.1589 10.6819 57.9739 10.6241 57.783 10.6085L57.787 10.6045L55.671 10.3295L17.645 6.45752C17.3322 6.42234 17.0173 6.5032 16.7602 6.68477C16.503 6.86633 16.3215 7.13597 16.25 7.44252L14.224 15.9555H12.298C11.582 15.9555 11.001 16.5315 11.001 17.2435V23.7265C11.001 24.4375 11.582 25.0145 12.298 25.0145H15.316L19.5 72.8955C19.558 73.5615 20.12 74.0725 20.793 74.0725H52.192C54.943 74.0725 57.544 71.2705 57.772 68.4845L61.594 25.0145H64.614C65.33 25.0145 65.911 24.4375 65.911 23.7265V17.2435C65.911 16.5315 65.33 15.9555 64.614 15.9555H62H62.002Z" fill="#534891"/>
</svg>
