<svg width="78" height="79" viewBox="0 0 78 79" fill="none" xmlns="http://www.w3.org/2000/svg">
<path d="M32 15.1963C33.9177 14.7027 35.9282 14.4402 38 14.4402C40.0718 14.4402 42.0823 14.7027 44 15.1963C45.9177 14.7027 47.9282 14.4402 50 14.4402C63.2548 14.4402 74 25.1853 74 38.4402C74 51.695 63.2548 62.4402 50 62.4402C47.9282 62.4402 45.9177 62.1777 44 61.6841C42.0823 62.1777 40.0718 62.4402 38 62.4402C35.9282 62.4402 33.9177 62.1777 32 61.6841C30.0823 62.1777 28.0718 62.4402 26 62.4402C12.7452 62.4402 2 51.695 2 38.4402C2 25.1853 12.7452 14.4402 26 14.4402C28.0718 14.4402 30.0823 14.7027 32 15.1963ZM24.6629 18.4842C14.2406 19.1721 6 27.8438 6 38.4402C6 49.0366 14.2406 57.7082 24.6629 58.3962C25.1048 58.4254 25.5507 58.4402 26 58.4402C28.0904 58.4402 30.1059 58.1195 32 57.5246C40.1142 54.9761 46 47.3955 46 38.4402C46 29.4849 40.1142 21.9043 32 19.3558C30.1059 18.7609 28.0904 18.4402 26 18.4402C25.5507 18.4402 25.1048 18.455 24.6629 18.4842L24.6629 18.4842ZM39.3371 18.4842C45.7669 22.7899 50 30.1207 50 38.4402C50 46.7597 45.7669 54.0905 39.3371 58.3962C49.7594 57.7082 58 49.0366 58 38.4402C58 27.8438 49.7594 19.1721 39.3371 18.4842ZM51.3371 18.4842C57.7669 22.7899 62 30.1207 62 38.4402C62 46.7597 57.7669 54.0905 51.3371 58.3962C61.7594 57.7082 70 49.0366 70 38.4402C70 27.8438 61.7594 19.1721 51.3371 18.4842Z" fill="#534891"/>
<path d="M27.2 51.7525H24.08V48.7225C21.5 48.3925 18.98 47.3725 17 45.8725L19.34 42.4525C20.96 43.6825 22.46 44.5225 24.23 44.8825V40.1125C19.91 38.9425 17.78 37.2625 17.78 33.7225C17.78 30.3925 20.3 28.2025 24.08 27.8125V26.0725H27.2V27.8725C29.33 28.1725 31.16 28.9525 32.78 30.0925L30.77 33.6025C29.57 32.7925 28.31 32.1625 27.05 31.8325V36.3625C31.61 37.5925 33.56 39.4825 33.56 42.8425C33.56 46.1725 31.01 48.3625 27.2 48.7825V51.7525ZM24.23 35.6125V31.5625C22.79 31.7725 22.16 32.4925 22.16 33.4525C22.16 34.3825 22.58 35.0125 24.23 35.6125ZM27.05 45.0325C28.46 44.8225 29.18 44.1625 29.18 43.0825C29.18 42.0625 28.67 41.4325 27.05 40.8325V45.0325Z" fill="#534891"/>
</svg>
