<svg width="78" height="79" viewBox="0 0 78 79" fill="none" xmlns="http://www.w3.org/2000/svg">
<path fill-rule="evenodd" clip-rule="evenodd" d="M37.014 35.3485C37.2557 35.1068 37.5426 34.915 37.8584 34.7842C38.1742 34.6534 38.5126 34.5861 38.8545 34.5861C39.1963 34.5861 39.5347 34.6534 39.8505 34.7842C40.1663 34.915 40.4533 35.1068 40.695 35.3485C40.9367 35.5902 41.1284 35.8771 41.2592 36.1929C41.39 36.5087 41.4573 36.8471 41.4573 37.189C41.4573 37.5308 41.39 37.8692 41.2592 38.185C41.1284 38.5008 40.9367 38.7878 40.695 39.0295L43.572 41.9075C43.593 41.8875 43.619 41.8715 43.633 41.8475L54.097 22.3455C54.1269 22.2896 54.138 22.2255 54.1287 22.1628C54.1194 22.1001 54.0902 22.0421 54.0453 21.9973C54.0004 21.9525 53.9423 21.9234 53.8795 21.9142C53.8168 21.9051 53.7528 21.9164 53.697 21.9465L34.197 32.4105C34.171 32.4235 34.157 32.4505 34.137 32.4705L37.014 35.3485Z" fill="#534891"/>
<path fill-rule="evenodd" clip-rule="evenodd" d="M38.268 68.1095C21.854 68.1095 8.5 54.7555 8.5 38.3415C8.5 21.9275 21.854 8.57451 38.268 8.57451C54.681 8.57451 68.035 21.9275 68.035 38.3415C68.035 54.7555 54.681 68.1095 38.268 68.1095ZM65.438 20.9675C59.695 12.0195 49.665 6.07251 38.267 6.07251C20.476 6.07251 6 20.5475 6 38.3405C6 45.4735 8.331 52.0705 12.266 57.4185C18.006 66.3725 28.04 72.3225 39.442 72.3225C57.234 72.3225 71.709 57.8475 71.709 40.0555C71.7151 33.1856 69.5167 26.4949 65.437 20.9675" fill="#534891"/>
<path fill-rule="evenodd" clip-rule="evenodd" d="M40.606 14.3475C40.6125 14.0261 40.5548 13.7067 40.4363 13.4079C40.3177 13.1092 40.1408 12.8371 39.9158 12.6076C39.6908 12.378 39.4223 12.1957 39.1259 12.0713C38.8296 11.9468 38.5114 11.8827 38.19 11.8828C37.8686 11.8829 37.5504 11.9471 37.2541 12.0716C36.9578 12.1962 36.6894 12.3786 36.4645 12.6083C36.2396 12.8379 36.0628 13.1101 35.9444 13.4089C35.826 13.7077 35.7684 14.0271 35.775 14.3485C35.7879 14.9806 36.048 15.5825 36.4996 16.025C36.9512 16.4675 37.5583 16.7153 38.1905 16.7153C38.8228 16.7153 39.4298 16.4675 39.8814 16.025C40.333 15.5825 40.5931 14.9806 40.606 14.3485V14.3475ZM38.19 59.4685C37.8687 59.4619 37.5492 59.5196 37.2505 59.638C36.9517 59.7565 36.6795 59.9334 36.45 60.1583C36.2204 60.3833 36.038 60.6517 35.9135 60.9481C35.789 61.2444 35.7249 61.5625 35.7249 61.884C35.7249 62.2054 35.789 62.5236 35.9135 62.8199C36.038 63.1162 36.2204 63.3847 36.45 63.6096C36.6795 63.8346 36.9517 64.0114 37.2505 64.1299C37.5492 64.2484 37.8687 64.306 38.19 64.2995C38.8185 64.2814 39.4151 64.019 39.8533 63.5681C40.2914 63.1171 40.5365 62.5132 40.5365 61.8845C40.5365 61.2557 40.2914 60.6518 39.8533 60.2008C39.4151 59.7499 38.8185 59.4875 38.19 59.4695V59.4685ZM62.053 35.9265C61.4125 35.9265 60.7982 36.1809 60.3453 36.6338C59.8924 37.0867 59.638 37.701 59.638 38.3415C59.638 38.982 59.8924 39.5962 60.3453 40.0491C60.7982 40.502 61.4125 40.7565 62.053 40.7565C62.6935 40.7565 63.3078 40.502 63.7607 40.0491C64.2136 39.5962 64.468 38.982 64.468 38.3415C64.468 37.701 64.2136 37.0867 63.7607 36.6338C63.3078 36.1809 62.6935 35.9265 62.053 35.9265ZM14.274 35.9265C13.6335 35.9265 13.0192 36.1809 12.5663 36.6338C12.1134 37.0867 11.859 37.701 11.859 38.3415C11.859 38.982 12.1134 39.5962 12.5663 40.0491C13.0192 40.502 13.6335 40.7565 14.274 40.7565C14.9145 40.7565 15.5288 40.502 15.9817 40.0491C16.4346 39.5962 16.689 38.982 16.689 38.3415C16.689 37.701 16.4346 37.0867 15.9817 36.6338C15.5288 36.1809 14.9145 35.9265 14.274 35.9265ZM37.014 39.0295C36.5262 38.5412 36.2521 37.8792 36.2521 37.189C36.2521 36.4987 36.5262 35.8367 37.014 35.3485L34.136 32.4705C34.116 32.4905 34.09 32.5065 34.076 32.5305L23.612 52.0305C23.5817 52.0864 23.5702 52.1506 23.5793 52.2135C23.5885 52.2765 23.6177 52.3348 23.6627 52.3798C23.7077 52.4248 23.766 52.454 23.8289 52.4631C23.8919 52.4723 23.9561 52.4608 24.012 52.4305L43.512 41.9675C43.537 41.9535 43.552 41.9265 43.573 41.9075L40.695 39.0295C40.2068 39.517 39.545 39.7908 38.855 39.7908C38.165 39.7908 37.5032 39.517 37.015 39.0295" fill="#534891"/>
</svg>
