<svg width="78" height="79" viewBox="0 0 78 79" fill="none" xmlns="http://www.w3.org/2000/svg">
<path fill-rule="evenodd" clip-rule="evenodd" d="M38.268 68.1095C21.854 68.1095 8.5 54.7555 8.5 38.3415C8.5 21.9275 21.854 8.57451 38.268 8.57451C54.681 8.57451 68.035 21.9275 68.035 38.3415C68.035 54.7555 54.681 68.1095 38.268 68.1095ZM65.437 20.9675C59.696 12.0195 49.666 6.07251 38.268 6.07251C20.476 6.07251 6 20.5475 6 38.3405C6 45.4735 8.331 52.0705 12.266 57.4195C18.006 66.3725 28.039 72.3225 39.442 72.3225C57.234 72.3225 71.709 57.8475 71.709 40.0555C71.7151 33.1856 69.5167 26.4949 65.437 20.9675Z" fill="#534891"/>
<path d="M43.704 41.1025C48.205 41.1025 51.906 44.3625 52.042 48.3845L52.046 48.6125V51.8655C52.046 52.5255 51.481 53.0385 50.796 53.0975L50.666 53.1025H26.34C25.646 53.1025 25.117 52.6305 25.053 51.9945L25.047 51.8655V48.6125C25.047 44.5625 28.664 41.2285 33.134 41.1065L33.388 41.1025H43.705H43.704ZM38.546 21.1025C37.4297 21.1024 36.3244 21.3222 35.293 21.7493C34.2617 22.1764 33.3246 22.8025 32.5353 23.5918C31.746 24.3812 31.1199 25.3182 30.6928 26.3496C30.2656 27.3809 30.0459 28.4863 30.046 29.6025C30.046 31.9685 31.018 34.1815 32.702 35.7755C33.71 36.7297 34.9363 37.4225 36.2738 37.7934C37.6113 38.1643 39.0193 38.2021 40.3748 37.9033C41.7302 37.6046 42.9919 36.9785 44.0496 36.0796C45.1072 35.1808 45.9287 34.0367 46.4422 32.7472C46.9557 31.4577 47.1456 30.0621 46.9953 28.6822C46.845 27.3024 46.3592 25.9804 45.5801 24.8317C44.8011 23.6829 43.7526 22.7424 42.5262 22.0924C41.2999 21.4423 39.933 21.1025 38.545 21.1025H38.546Z" fill="#534891"/>
</svg>
