<svg width="78" height="79" viewBox="0 0 78 79" fill="none" xmlns="http://www.w3.org/2000/svg">
<path fill-rule="evenodd" clip-rule="evenodd" d="M12.936 47.7191H61.229V17.1821H12.936V47.7191ZM61.987 14.6821H12.177C11.217 14.6821 10.436 15.4631 10.436 16.4231V48.4771C10.436 49.4381 11.217 50.2191 12.177 50.2191H61.987C62.947 50.2191 63.729 49.4381 63.729 48.4771V16.4231C63.729 15.4631 62.947 14.6821 61.987 14.6821Z" fill="#534891"/>
<path fill-rule="evenodd" clip-rule="evenodd" d="M66.9102 51.2175C66.9102 52.3815 65.9642 53.3275 64.8002 53.3275H45.2362H31.2322H9.61024C8.44624 53.3275 7.50024 52.3815 7.50024 51.2175V13.6835C7.50024 12.5195 8.44624 11.5725 9.61024 11.5725H64.8002C65.9642 11.5725 66.9102 12.5195 66.9102 13.6835V51.2175ZM68.1412 9.07251H64.8002H12.9522H9.61024C7.06824 9.07251 5.00024 11.1405 5.00024 13.6835V51.2175C5.00024 53.7595 7.06824 55.8275 9.61024 55.8275H12.9522H31.2322V60.5875H33.7322V55.8275H42.7362V60.5875H47.5492V55.8275H64.8002H68.1412C70.6842 55.8275 72.7532 53.7595 72.7532 51.2175V13.6835C72.7532 11.1405 70.6842 9.07251 68.1412 9.07251Z" fill="#534891"/>
<path fill-rule="evenodd" clip-rule="evenodd" d="M53.8887 68.3659H23.9137C23.2687 68.3659 22.7407 67.8379 22.7407 67.1929V66.8089C22.7407 63.3869 25.5397 60.5879 28.9617 60.5879H48.8407C52.2627 60.5879 55.0627 63.3869 55.0627 66.8089V67.1929C55.0627 67.8379 54.5347 68.3659 53.8887 68.3659Z" fill="#534891"/>
</svg>
