<svg width="78" height="79" viewBox="0 0 78 79" fill="none" xmlns="http://www.w3.org/2000/svg">
<path fill-rule="evenodd" clip-rule="evenodd" d="M15.655 20.0715H47.317V17.0715H15.655V20.0715Z" fill="#534891"/>
<path fill-rule="evenodd" clip-rule="evenodd" d="M15.655 28.3705H47.317V25.3705H15.655V28.3705Z" fill="#534891"/>
<path fill-rule="evenodd" clip-rule="evenodd" d="M15.655 36.6665H35.682V33.6665H15.655V36.6665Z" fill="#534891"/>
<path fill-rule="evenodd" clip-rule="evenodd" d="M41.556 57.3125L35.352 51.1095L61.174 25.2885L67.378 31.4915L41.556 57.3125ZM35.093 59.3565L33.202 57.4645L34.379 53.6715L38.952 58.2445L35.092 59.3565H35.093ZM13.088 68.5055C12.1368 68.5042 11.225 68.1257 10.5524 67.4531C9.87977 66.7806 9.50132 65.8687 9.5 64.9175V9.65151H53.472V29.3775L33.185 49.6645C32.945 49.9065 32.764 50.2045 32.66 50.5315L28.53 63.8275L42.064 59.9265C42.387 59.8235 42.684 59.6425 42.926 59.4005L53.472 48.8545V63.3905C53.625 66.5265 54.655 67.8105 56.452 68.5055H13.088ZM69.362 32.9655C70.175 32.1525 70.192 30.8485 69.402 30.0585L62.53 23.1855C62.3345 22.9921 62.1014 22.8409 61.8451 22.7411C61.5888 22.6414 61.3148 22.5952 61.04 22.6055C60.5057 22.6249 59.9989 22.8474 59.623 23.2275L55.972 26.8775V7.07251H7V64.8395C7.00185 66.4536 7.64386 68.001 8.78518 69.1423C9.9265 70.2836 11.4739 70.9257 13.088 70.9275H55.972L60.118 70.9175C61.2445 70.917 62.3247 70.4693 63.1212 69.6727C63.9177 68.8762 64.3655 67.796 64.366 66.6695V56.5515H55.972V46.3555L69.362 32.9655Z" fill="#534891"/>
</svg>
