<svg width="78" height="79" viewBox="0 0 78 79" fill="none" xmlns="http://www.w3.org/2000/svg">
<path fill-rule="evenodd" clip-rule="evenodd" d="M38.2678 68.1093C21.8538 68.1093 8.49976 54.7553 8.49976 38.3413C8.49976 21.9273 21.8538 8.57427 38.2678 8.57427C54.6808 8.57427 68.0348 21.9273 68.0348 38.3413C68.0348 54.7553 54.6808 68.1093 38.2678 68.1093ZM65.4368 20.9673C59.6958 12.0193 49.6658 6.07227 38.2678 6.07227C20.4758 6.07227 5.99976 20.5473 5.99976 38.3403C5.99976 45.4733 8.33076 52.0703 12.2658 57.4183C18.0058 66.3723 28.0388 72.3223 39.4418 72.3223C57.2338 72.3223 71.7088 57.8473 71.7088 40.0553C71.7088 32.9173 69.3748 26.3173 65.4368 20.9673Z" fill="#534891"/>
<path fill-rule="evenodd" clip-rule="evenodd" d="M42.0295 46.9296C41.5525 47.4916 40.9585 47.8796 40.2555 48.1076V40.9996C41.1095 41.3146 41.7565 41.7216 42.1725 42.2316C42.6755 42.8486 42.9265 43.5836 42.9265 44.4366C42.9265 45.3916 42.6275 46.2216 42.0295 46.9296ZM35.0775 33.1406C34.6705 32.5616 34.4665 31.9336 34.4665 31.2596C34.4665 30.5206 34.6895 29.8466 35.1345 29.2346C35.5315 28.6906 36.0575 28.2956 36.6975 28.0336V34.4296C35.9905 34.0886 35.4445 33.6626 35.0775 33.1406ZM45.9445 38.6796C44.9065 37.4446 43.0035 36.4286 40.2555 35.6236V28.3206C41.1555 28.9006 41.7465 29.7966 41.9905 31.0496L46.8225 30.4186C46.4915 28.5096 45.7285 26.9856 44.5315 25.8456C43.4495 24.8156 42.0125 24.1726 40.2555 23.8756V21.8826H39.6995H36.9305H36.6975V23.8136C34.6205 24.0656 32.9365 24.8606 31.6685 26.2276C30.3505 27.6466 29.6925 29.4006 29.6925 31.4886C29.6925 33.5516 30.2745 35.3056 31.4395 36.7496C32.5665 38.1496 34.3235 39.2006 36.6975 39.9136V47.8566C36.1025 47.5226 35.5545 47.0386 35.0585 46.3856C34.4985 45.6466 34.1165 44.7676 33.9125 43.7496L28.9275 44.2836C29.3105 46.7926 30.1885 48.7346 31.5635 50.1096C32.8875 51.4336 34.6055 52.2306 36.6975 52.5276V56.0486H36.9305H39.6995H40.2555V52.3776C42.4705 51.9616 44.2275 51.0326 45.5145 49.5746C46.9085 47.9956 47.6065 46.0546 47.6065 43.7496C47.6065 41.6866 47.0515 39.9966 45.9445 38.6796Z" fill="#534891"/>
</svg>
