<svg width="78" height="79" viewBox="0 0 78 79" fill="none" xmlns="http://www.w3.org/2000/svg">
<path fill-rule="evenodd" clip-rule="evenodd" d="M55.4406 6.573C56.7616 6.573 57.8356 7.62 57.8356 8.908V65.396C57.8356 66.684 56.7616 67.731 55.4406 67.731H55.3756V6.573H55.4406ZM25.7214 63.0425C26.4114 63.0425 26.9714 63.6025 26.9714 64.2925C26.9714 64.9825 26.4114 65.5425 25.7214 65.5425H19.2764C18.5864 65.5425 18.0264 64.9825 18.0264 64.2925C18.0264 63.6025 18.5864 63.0425 19.2764 63.0425H25.7214ZM37.2761 63.0425C37.9661 63.0425 38.5261 63.6025 38.5261 64.2925C38.5261 64.9825 37.9661 65.5425 37.2761 65.5425H30.8311C30.1411 65.5425 29.5811 64.9825 29.5811 64.2925C29.5811 63.6025 30.1411 63.0425 30.8311 63.0425H37.2761ZM48.8312 63.0425C49.5212 63.0425 50.0812 63.6025 50.0812 64.2925C50.0812 64.9825 49.5212 65.5425 48.8312 65.5425H42.3862C41.6962 65.5425 41.1362 64.9825 41.1362 64.2925C41.1362 63.6025 41.6962 63.0425 42.3862 63.0425H48.8312ZM25.7214 58.3916C26.4114 58.3916 26.9714 58.9516 26.9714 59.6416C26.9714 60.3316 26.4114 60.8916 25.7214 60.8916H19.2764C18.5864 60.8916 18.0264 60.3316 18.0264 59.6416C18.0264 58.9516 18.5864 58.3916 19.2764 58.3916H25.7214ZM37.2761 58.3916C37.9661 58.3916 38.5261 58.9516 38.5261 59.6416C38.5261 60.3316 37.9661 60.8916 37.2761 60.8916H30.8311C30.1411 60.8916 29.5811 60.3316 29.5811 59.6416C29.5811 58.9516 30.1411 58.3916 30.8311 58.3916H37.2761ZM48.8312 58.3916C49.5212 58.3916 50.0812 58.9516 50.0812 59.6416C50.0812 60.3316 49.5212 60.8916 48.8312 60.8916H42.3862C41.6962 60.8916 41.1362 60.3316 41.1362 59.6416C41.1362 58.9516 41.6962 58.3916 42.3862 58.3916H48.8312ZM25.7214 53.7402C26.4114 53.7402 26.9714 54.3002 26.9714 54.9902C26.9714 55.6802 26.4114 56.2402 25.7214 56.2402H19.2764C18.5864 56.2402 18.0264 55.6802 18.0264 54.9902C18.0264 54.3002 18.5864 53.7402 19.2764 53.7402H25.7214ZM37.2761 53.7402C37.9661 53.7402 38.5261 54.3002 38.5261 54.9902C38.5261 55.6802 37.9661 56.2402 37.2761 56.2402H30.8311C30.1411 56.2402 29.5811 55.6802 29.5811 54.9902C29.5811 54.3002 30.1411 53.7402 30.8311 53.7402H37.2761ZM48.8312 53.7402C49.5212 53.7402 50.0812 54.3002 50.0812 54.9902C50.0812 55.6802 49.5212 56.2402 48.8312 56.2402H42.3862C41.6962 56.2402 41.1362 55.6802 41.1362 54.9902C41.1362 54.3002 41.6962 53.7402 42.3862 53.7402H48.8312ZM48.531 9.1215C49.386 9.1215 50.081 9.8325 50.081 10.7075V49.7245C50.081 50.5985 49.386 51.3105 48.531 51.3105H19.576C18.721 51.3105 18.027 50.5985 18.027 49.7245V10.7075C18.027 9.8325 18.721 9.1215 19.576 9.1215H48.531ZM47.581 11.6225H20.526V48.8105H47.581V11.6225ZM17.9586 67.731C16.6386 67.731 15.5636 66.684 15.5636 65.396V8.908C15.5636 7.62 16.6386 6.573 17.9586 6.573H52.8756V67.731H17.9586ZM62.4836 9.453C62.4896 9.45 62.5076 9.443 62.5076 9.443C62.5076 9.443 62.4086 9.268 62.2186 8.977C62.2056 8.958 62.1936 8.939 62.1806 8.92C61.5916 8.03 60.2306 6.189 58.2866 4.908C57.9536 4.689 57.6996 4.569 57.5076 4.526C56.8766 4.242 56.1806 4.073 55.4406 4.073H17.9586C15.2246 4.073 13.0006 6.242 13.0006 8.908V65.396C13.0006 66.166 13.2016 66.883 13.5306 67.529L13.5256 67.531C13.5256 67.531 13.5606 67.592 13.6216 67.692C13.7406 67.905 13.8706 68.109 14.0206 68.301C14.6736 69.248 15.9526 70.872 17.7126 72.042C18.5286 72.618 19.5226 72.967 20.6056 72.967H58.0876C60.8226 72.967 63.0466 70.798 63.0466 68.132V11.643C63.0466 10.851 62.8316 10.113 62.4836 9.453Z" fill="#534891"/>
<path fill-rule="evenodd" clip-rule="evenodd" d="M28.3039 30.6571C31.5419 27.3711 36.8479 27.3711 40.1109 30.6571L41.8149 28.953C37.6029 24.742 30.7869 24.742 26.5999 28.953L28.3039 30.6571Z" fill="#534891"/>
<path fill-rule="evenodd" clip-rule="evenodd" d="M24.9449 27.2491C30.0569 22.1361 38.3579 22.1361 43.4699 27.2491L45.1739 25.5941C39.0879 19.5321 29.3259 19.5321 23.2649 25.5941L24.9449 27.2491ZM31.7119 33.9921C33.0749 32.5551 35.3879 32.5551 36.7759 33.9921L38.4549 32.2881C36.0939 29.9751 32.3209 29.9751 30.0079 32.2881L31.7119 33.9921ZM34.2199 35.0881C33.2699 35.0881 32.4669 35.8671 32.4669 36.8411C32.4669 37.7651 33.2699 38.5451 34.2199 38.5451C35.1689 38.5451 35.9479 37.7411 35.9479 36.8411C35.9479 35.8671 35.1689 35.0881 34.2199 35.0881Z" fill="#534891"/>
</svg>
