<svg width="78" height="79" viewBox="0 0 78 79" fill="none" xmlns="http://www.w3.org/2000/svg">
<path fill-rule="evenodd" clip-rule="evenodd" d="M56.4719 68.5049H52.9119H16.0879C14.1099 68.5049 12.4999 66.8959 12.4999 64.9169V9.6509H56.4719V63.3899C56.6249 66.5259 57.6539 67.8099 59.4509 68.5049H56.4719ZM58.9719 56.5509V7.0719H9.99988V64.8389C9.99988 68.1959 12.7319 70.9269 16.0879 70.9269H58.9719V70.9169H63.1169C65.4619 70.9169 67.3649 69.0149 67.3649 66.6689V56.5509H58.9719Z" fill="#534891"/>
<path fill-rule="evenodd" clip-rule="evenodd" d="M18.655 18.9445H50.317V15.9435H18.655V18.9445Z" fill="#534891"/>
<path fill-rule="evenodd" clip-rule="evenodd" d="M18.655 27.2415H50.317V24.2415H18.655V27.2415Z" fill="#534891"/>
<path fill-rule="evenodd" clip-rule="evenodd" d="M18.655 35.5396H50.317V32.5396H18.655V35.5396Z" fill="#534891"/>
<path fill-rule="evenodd" clip-rule="evenodd" d="M18.6539 43.8365H39.8299V40.8365H18.6539V43.8365Z" fill="#534891"/>
</svg>
