<svg width="78" height="79" viewBox="0 0 78 79" fill="none" xmlns="http://www.w3.org/2000/svg">
<path fill-rule="evenodd" clip-rule="evenodd" d="M65.2891 34.514C65.2891 35.03 64.9411 35.466 64.5291 35.466H62.0211V35.47H12.7851V35.466H10.2601C9.84812 35.466 9.50012 35.03 9.50012 34.514V22.406C9.50012 21.89 9.84812 21.454 10.2601 21.454H64.5291C64.9411 21.454 65.2891 21.89 65.2891 22.406V34.514ZM58.3181 66.937H16.4881C14.4461 66.937 12.7851 65.275 12.7851 63.233V37.97H62.0211V63.233C62.0211 65.275 60.3601 66.937 58.3181 66.937ZM71.1361 23.554C69.3581 20.684 66.0021 19.322 65.8841 19.275C65.4701 19.074 65.0141 18.954 64.5291 18.954H10.2601C8.46212 18.954 7.00012 20.502 7.00012 22.406V34.514C7.00012 36.417 8.46212 37.966 10.2601 37.966H10.2851V63.233C10.2851 64.183 10.5061 65.081 10.8901 65.887L10.8731 65.884C13.2311 71.076 18.9751 72.494 18.9751 72.494L18.9671 72.486C19.5201 72.648 20.1041 72.739 20.7091 72.739H62.5391C65.9601 72.739 68.7421 69.956 68.7421 66.536V41.254C70.4771 41.178 71.8691 39.671 71.8691 37.817V25.708C71.8691 24.889 71.5871 24.146 71.1361 23.554Z" fill="#534891"/>
<path fill-rule="evenodd" clip-rule="evenodd" d="M52.0859 13.1204C51.7119 14.2904 50.5719 15.6924 48.4989 16.1134L41.6659 17.5024L44.1569 11.8194C44.7569 10.4524 46.1429 9.43036 47.7739 9.15336C48.0619 9.10436 48.3449 9.07936 48.6209 9.07936C49.7589 9.07936 50.7879 9.48336 51.4759 10.2224C52.4719 11.2924 52.2859 12.4964 52.0859 13.1204ZM26.4239 16.1134C24.3509 15.6934 23.2119 14.2914 22.8369 13.1204C22.6379 12.4974 22.4519 11.2924 23.4479 10.2224C24.1339 9.48336 25.1639 9.07936 26.3019 9.07936C26.5789 9.07936 26.8619 9.10436 27.1489 9.15336C28.7809 9.43036 30.1669 10.4524 30.7659 11.8194L33.2569 17.5024L26.4239 16.1134ZM54.4009 7.49036C52.6279 5.58136 49.9049 4.72636 47.1059 5.20136C44.1179 5.70836 41.6469 7.58036 40.4949 10.2064L37.4609 17.1264L34.4279 10.2064C33.2769 7.58036 30.8059 5.70836 27.8169 5.20136C25.0229 4.72636 22.2949 5.58136 20.5209 7.49036C18.8039 9.33636 18.2459 11.8994 19.0279 14.3444C19.9479 17.2184 22.4779 19.4014 25.6289 20.0414L35.1759 21.9814V66.9364H39.6309V22.0054L49.2939 20.0414C52.4459 19.4014 54.9759 17.2184 55.8959 14.3434C56.6779 11.8994 56.1189 9.33636 54.4009 7.49036Z" fill="#534891"/>
</svg>
