<svg width="78" height="79" viewBox="0 0 78 79" fill="none" xmlns="http://www.w3.org/2000/svg">
<path fill-rule="evenodd" clip-rule="evenodd" d="M38.718 5.97253C50.116 5.97253 60.147 11.9195 65.888 20.8675C69.9667 26.3954 72.1647 33.0858 72.159 39.9555C72.159 57.7475 57.685 72.2225 39.893 72.2225C28.489 72.2225 18.456 66.2725 12.716 57.3195C8.64012 51.7939 6.4439 45.1068 6.44996 38.2405C6.44996 20.4475 20.926 5.97253 38.718 5.97253ZM38.718 8.47453C37.5668 8.47427 36.4165 8.54038 35.273 8.67253C36.531 11.0675 35.831 12.0425 33.176 11.5985C28.797 10.8655 34.606 16.8415 28.294 17.0785C21.982 17.3165 24.418 26.2385 20.791 26.2385C18.448 26.2385 16.399 24.4105 14.643 20.7535C10.9368 25.8307 8.94293 31.9556 8.94996 38.2415C8.94996 50.4565 16.347 60.9775 26.896 65.5615C27.728 65.5445 28.551 65.6115 28.751 65.7315C29.587 66.2375 28.831 62.7085 30.231 62.7085C31.629 62.7085 38.851 60.5685 40.899 61.6385C42.947 62.7085 47.144 65.1655 45.456 65.4485C43.95 65.7015 42.857 66.0655 45.093 67.3215C58.453 64.3955 68.486 52.4675 68.486 38.2415C68.486 21.8275 55.131 8.47453 38.718 8.47453Z" fill="#534891"/>
<path fill-rule="evenodd" clip-rule="evenodd" d="M48.4129 58.1726C47.3699 58.8706 45.2379 58.1595 44.1549 56.3815C43.0729 54.6026 43.3679 53.6146 42.7769 53.2196C42.1869 52.8246 42.3839 52.8246 41.7929 53.2196C41.2029 53.6146 40.8089 53.5156 39.9229 52.6266C39.0369 51.7376 38.3479 51.3426 37.1669 51.3426C35.9869 51.3426 35.5929 51.0456 34.0179 51.8366C32.4429 52.6266 31.8529 53.9116 30.8679 53.9116C29.8839 53.9116 28.7029 53.8116 28.0139 54.3066C27.3249 54.8006 27.8179 55.0965 26.8339 55.0965C25.8489 55.0965 24.9639 53.8125 25.1599 52.4296C25.3569 51.0455 23.8799 49.1696 23.1919 48.2796C22.5019 47.3896 21.3219 44.4266 23.3889 42.7466C25.4549 41.0666 28.2109 40.7706 28.7029 39.8816C29.1949 38.9916 29.1949 40.1216 29.3929 38.3996C29.5889 36.6766 30.8689 37.5096 31.3609 36.5216C31.8529 35.5336 32.9349 33.9526 33.6239 34.3486C34.3139 34.7436 34.8049 35.4346 35.1989 35.2376C35.5929 35.0396 35.5929 34.8426 35.8879 34.3476C36.1829 33.8546 36.9709 32.7676 38.4469 32.5696C39.8509 32.3816 40.8089 32.3726 41.8389 32.8236C42.8689 33.2746 42.2849 33.5576 41.5959 34.5456C40.9069 35.5336 41.7929 36.1266 42.4819 36.3246C43.1719 36.5216 44.8439 38.4976 45.5329 38.1026C46.2229 37.7076 47.0089 36.5226 47.0089 35.6326C47.0089 34.7426 47.4029 32.4706 47.4029 32.1746C47.4029 31.8786 47.8949 31.0876 48.5839 33.6566C49.2739 36.2256 49.8079 35.3406 50.2569 36.3246C50.7069 37.3086 50.7489 37.3126 50.7489 38.3996C50.7489 39.4856 52.9149 42.2526 53.4069 42.7466C53.8989 43.2406 56.8519 47.2916 55.8669 49.4656C54.8829 51.6386 53.4069 53.6156 52.4229 55.5906C51.4379 57.5666 49.4559 57.4746 48.4129 58.1726ZM48.8119 60.4276C49.2989 60.1956 49.6919 60.5905 49.4959 60.9646C49.2989 61.3386 48.9619 61.9986 48.8119 61.9986C48.6619 61.9986 48.4829 62.1286 48.4829 62.4186C48.4829 62.7086 48.0669 62.7106 47.8959 62.5646C47.7249 62.4186 47.3249 61.4046 47.4189 61.0906C47.4669 60.9306 47.0419 60.5056 47.2909 60.2326C47.5409 59.9586 48.3239 60.6596 48.8109 60.4276H48.8119Z" fill="#534891"/>
<path fill-rule="evenodd" clip-rule="evenodd" d="M31.2019 21.9125C29.5599 20.8145 24.9599 24.3755 24.9599 26.1825C24.9599 27.9895 27.2909 29.5825 28.2859 28.8115C29.2799 28.0415 32.8459 23.0085 31.2019 21.9115V21.9125ZM29.5179 33.4105C30.3199 32.8555 23.9359 31.5505 21.5479 28.9835C19.6899 26.9855 19.6619 26.9735 18.6199 27.6955C17.6599 28.3595 21.7479 35.3055 29.5179 33.4105ZM52.6459 24.4435C55.7259 24.4435 54.8129 28.6735 54.4899 29.0225C54.1669 29.3725 49.3129 29.6795 48.1639 29.0225C47.0139 28.3655 46.5139 26.2505 45.1859 26.2505C43.8569 26.2505 39.0279 23.8915 37.9789 22.1435C36.9289 20.3955 49.5669 24.4435 52.6459 24.4435ZM62.5649 49.7885C62.5549 50.6765 62.3929 52.6645 61.2559 52.9765C60.4619 53.1935 61.4009 54.6965 61.8049 54.2725C62.5489 53.4915 63.6469 53.1925 63.2099 51.1155C62.7719 49.0385 62.5689 49.3575 62.5649 49.7885ZM60.0099 53.9025C59.7129 54.2065 59.2359 54.8045 58.9299 54.9295C58.3599 55.1625 57.3899 55.6085 56.9259 55.6085C56.4619 55.6085 55.9169 56.1515 55.6099 56.5165C55.3029 56.8825 55.7039 57.4165 56.0829 57.4165C56.4629 57.4165 57.7149 57.2925 57.8149 56.7295C57.9149 56.1665 58.6649 55.8355 58.9309 55.8355C59.1969 55.8355 60.0809 54.8595 60.4219 54.6505C60.7639 54.4405 60.0809 53.8275 60.0089 53.9015L60.0099 53.9025ZM32.4799 25.5575C32.8229 24.4785 33.9599 26.4725 34.5959 27.2585C35.2319 28.0455 34.5959 28.0455 33.1119 28.0455C32.2279 28.0455 31.8439 27.9175 31.6519 27.8675C31.1419 27.7355 32.1359 26.6355 32.4799 25.5575Z" fill="#534891"/>
</svg>
