<svg width="78" height="79" viewBox="0 0 78 79" fill="none" xmlns="http://www.w3.org/2000/svg">
<path fill-rule="evenodd" clip-rule="evenodd" d="M38.7179 5.97253C50.1159 5.97253 60.1469 11.9195 65.888 20.8675C69.825 26.2175 72.159 32.8185 72.159 39.9555C72.159 57.7475 57.685 72.2225 39.893 72.2225C28.489 72.2225 18.456 66.2725 12.716 57.3195C8.78095 51.9705 6.44995 45.3735 6.44995 38.2405C6.44995 20.4475 20.9259 5.97253 38.7179 5.97253ZM16.5614 58.0663C20.6925 62.6696 26.2335 65.9828 32.4974 67.3191C29.9808 65.2796 27.7849 62.0779 26.0941 58.0666L16.5614 58.0663ZM38.3235 58.0846L28.9756 58.0847C31.4175 63.4437 34.7828 66.8829 38.3231 67.2655L38.3235 58.0846ZM60.8707 58.0663L51.7469 58.0666L51.5374 58.5538C49.9115 62.2573 47.847 65.2345 45.4964 67.1936L45.8607 67.1061C51.7445 65.6511 56.9444 62.4413 60.8707 58.0663ZM48.9886 58.0847L40.9565 58.0846L40.9577 66.9814C44.0075 65.9941 46.8516 62.7745 48.9886 58.0847ZM38.3235 40.6396L25.1972 40.6398C25.402 46.1822 26.3939 51.2542 27.9071 55.4521L38.3235 55.4516V40.6396ZM52.767 40.6398L40.9565 40.6396V55.4516L50.0571 55.4521C51.5703 51.2542 52.5622 46.1822 52.767 40.6398ZM68.387 40.6206H55.3364L55.3028 41.3946C55.0457 46.5363 54.1402 51.3166 52.7442 55.4338L62.9788 55.4334C66.0048 51.1845 67.9439 46.1105 68.387 40.6206ZM22.5047 40.6206H9.04515C9.48817 46.1105 11.4273 51.1845 14.4533 55.4334L25.0969 55.4338L24.8912 54.8113C23.5446 50.6285 22.6965 45.7977 22.5047 40.6206ZM27.2541 23.5228C25.9781 27.7372 25.2051 32.6791 25.1599 38.0067H38.3235V23.5236L27.2541 23.5228ZM50.7101 23.5228L40.9565 23.5236V38.0067H52.8043C52.7592 32.6791 51.9861 27.7372 50.7101 23.5228ZM64.5948 23.5053H53.4253L53.6131 24.1926C54.7138 28.3459 55.346 33.029 55.3768 37.9884L68.4833 37.9878C68.4455 32.7266 67.0358 27.7856 64.5948 23.5053ZM24.4158 23.5053H12.8373C10.4388 27.711 9.03599 32.5547 8.95205 37.7133L8.94995 37.9875L22.464 37.988L22.4777 37.0339C22.5845 32.1546 23.2736 27.5628 24.4158 23.5053ZM38.3231 9.73578C34.3656 10.1635 30.6267 14.4107 28.1519 20.8894L38.3235 20.8906L38.3231 9.73578ZM40.9577 10.0199L40.9565 20.8906L49.8123 20.8894C47.6139 15.1344 44.4182 11.1402 40.9577 10.0199ZM33.0803 8.97253L32.4661 9.09785C25.1203 10.6735 18.7712 14.9678 14.5279 20.8723H25.2464L25.4258 20.3721C27.3054 15.2403 29.967 11.2302 33.0803 8.97253ZM44.917 9.08759C48.0631 11.4397 50.7376 15.5881 52.5947 20.8723H62.9042C58.6516 14.9549 52.2839 10.6546 44.917 9.08759Z" fill="#534891"/>
<path d="M51.752 26.1505C53.9335 26.1505 55.702 24.382 55.702 22.2005C55.702 20.019 53.9335 18.2505 51.752 18.2505C49.5705 18.2505 47.802 20.019 47.802 22.2005C47.802 24.382 49.5705 26.1505 51.752 26.1505Z" fill="#534891"/>
<path d="M50.752 60.7115C52.9335 60.7115 54.702 58.943 54.702 56.7615C54.702 54.58 52.9335 52.8115 50.752 52.8115C48.5705 52.8115 46.802 54.58 46.802 56.7615C46.802 58.943 48.5705 60.7115 50.752 60.7115Z" fill="#534891"/>
<path d="M23.445 42.9375C25.6265 42.9375 27.395 41.169 27.395 38.9875C27.395 36.806 25.6265 35.0375 23.445 35.0375C21.2635 35.0375 19.495 36.806 19.495 38.9875C19.495 41.169 21.2635 42.9375 23.445 42.9375Z" fill="#534891"/>
</svg>
