<svg width="78" height="79" viewBox="0 0 78 79" fill="none" xmlns="http://www.w3.org/2000/svg">
<path fill-rule="evenodd" clip-rule="evenodd" d="M8 37.7395L26.612 19.2125C26.9804 18.8458 27.4765 18.6361 27.9962 18.6275C28.5159 18.619 29.0187 18.8121 29.399 19.1665L40.185 29.2225C40.3431 29.3693 40.5517 29.4497 40.7675 29.4469C40.9833 29.4441 41.1897 29.3584 41.344 29.2075L63.268 7.76349H50.443L50.398 4.07349H67.75C68.705 4.07349 69.478 4.84549 69.478 5.79949V22.9725H65.838L65.876 10.0605L42.012 33.4025C41.6936 33.7148 41.267 33.8921 40.821 33.8977C40.3751 33.9033 39.9442 33.7367 39.618 33.4325L28.496 23.0625C28.3794 22.9536 28.225 22.8943 28.0655 22.8971C27.9059 22.8999 27.7537 22.9646 27.641 23.0775L10.446 40.1955L8 37.7395Z" fill="#534891"/>
<path fill-rule="evenodd" clip-rule="evenodd" d="M51.614 68.9735H62.669V34.7435H51.614V68.9725V68.9735ZM38.0601 68.9735H49.1151V42.5925H38.0601V68.9745V68.9735ZM24.5061 68.9735H35.5601V50.9985H24.5061V68.9735ZM10.9511 68.9735H22.0061V58.8495H10.9511V68.9735ZM63.411 32.2435C63.042 32.2355 58.843 32.2355 50.813 32.2435C49.875 32.2435 49.1151 33.0035 49.1151 33.9405V40.0915H37.2581C36.3201 40.0915 35.5601 40.8515 35.5601 41.7895V48.4995H23.703C22.766 48.4995 22.0061 49.2595 22.0061 50.1965V56.3495H10.1491C9.21105 56.3495 8.45105 57.1095 8.45105 58.0475C8.44405 66.8085 8.44405 71.2765 8.45105 71.4505C8.46105 71.7125 8.64705 71.7836 8.97105 71.9436C10.1611 72.5285 12.9971 73.0755 13.5641 73.0755H68.975V35.5425C68.975 34.8085 66.233 33.1755 64.599 32.5055C64.151 32.3215 63.9641 32.2535 63.411 32.2425V32.2435Z" fill="#534891"/>
</svg>
