<svg width="78" height="79" viewBox="0 0 78 79" fill="none" xmlns="http://www.w3.org/2000/svg">
<path fill-rule="evenodd" clip-rule="evenodd" d="M26.843 68.0356L41.563 74.0576V51.7266L26.829 45.6746L26.843 68.0356Z" fill="#534891"/>
<path fill-rule="evenodd" clip-rule="evenodd" d="M57.4766 36.6295V63.2455C57.4766 64.5155 56.4466 65.5455 55.1766 65.5455L47.2976 65.5465V43.1755H24.3536V65.5555L14.1716 65.5575V36.6295H7.40763L35.8246 10.4695L64.2446 36.6295H57.4766ZM41.1836 7.07251H35.8246L0.999634 39.1295H11.6716V68.0585L17.0306 68.0575V68.0585L22.5286 68.0555L26.8536 68.0545V45.6755H44.7976V68.0475L51.1566 68.0465V68.0475L58.8446 68.0465C62.4296 68.0455 65.3356 65.1385 65.3356 61.5525V39.1295H70.6516H76.0106L41.1836 7.07251Z" fill="#534891"/>
</svg>
