<svg width="78" height="79" viewBox="0 0 78 79" fill="none" xmlns="http://www.w3.org/2000/svg">
<path fill-rule="evenodd" clip-rule="evenodd" d="M37.313 11.2225H39.813V2.07349H37.313V11.2225Z" fill="#534891"/>
<path fill-rule="evenodd" clip-rule="evenodd" d="M61.976 33.9454H71.1259V31.4454H61.976V33.9454Z" fill="#534891"/>
<path fill-rule="evenodd" clip-rule="evenodd" d="M6 33.9454H15.15V31.4454H6V33.9454Z" fill="#534891"/>
<path fill-rule="evenodd" clip-rule="evenodd" d="M57.47 48.2814L63.94 54.7514L65.707 52.9834L59.238 46.5134L57.47 48.2814Z" fill="#534891"/>
<path fill-rule="evenodd" clip-rule="evenodd" d="M14.6541 12.4935L21.1241 18.9645L22.8911 17.1975L16.4221 10.7255L14.6541 12.4935Z" fill="#534891"/>
<path fill-rule="evenodd" clip-rule="evenodd" d="M13.218 52.9834L14.986 54.7514L21.455 48.2814L19.688 46.5134L13.218 52.9834Z" fill="#534891"/>
<path fill-rule="evenodd" clip-rule="evenodd" d="M60.705 10.7264L54.235 17.1964L56.003 18.9644L62.473 12.4944L60.705 10.7264Z" fill="#534891"/>
<path fill-rule="evenodd" clip-rule="evenodd" d="M48.475 43.0554C45.629 47.3254 45.135 51.9654 45.127 54.6474H30.427C30.419 51.9664 29.924 47.3254 27.078 43.0554C23.326 37.4284 23.25 32.6894 23.25 32.6454C23.25 24.6184 29.76 18.0814 37.777 18.0354C45.794 18.0814 52.303 24.6174 52.303 32.6414C52.303 32.6884 52.228 37.4274 48.475 43.0554ZM37.966 71.5554C36.323 71.5554 34.912 70.3064 34.254 68.5204H41.678C41.021 70.3074 39.61 71.5554 37.966 71.5554ZM30.316 59.9974V58.8464C30.316 58.2064 30.324 57.6554 30.338 57.1464H45.214C45.234 57.7744 45.238 58.3674 45.239 58.8604V59.9984H30.316V59.9974ZM45.24 62.4974L45.241 65.0444H30.316V62.4984H45.24V62.4974ZM44.621 17.0084C42.4208 16.0273 40.037 15.5255 37.628 15.5364C28.3 15.6614 20.75 23.2884 20.75 32.6464C20.75 32.8674 20.798 38.1444 24.997 44.4434C27.973 48.9064 28.015 53.8854 27.897 55.8184C27.84 56.6964 27.817 57.6314 27.817 58.8474V66.2944C27.817 66.9844 28.375 67.5444 29.067 67.5444H31.455C31.59 68.4874 31.863 69.3744 32.259 70.1724C33.779 74.0624 38.384 76.0654 41.307 76.0654C44.555 76.0654 47.242 73.2014 47.661 69.5054L49.832 69.5754C50.114 69.5754 50.382 69.4654 50.579 69.2654C50.6774 69.1677 50.7554 69.0515 50.8086 68.9234C50.8618 68.7954 50.8891 68.6581 50.889 68.5194L50.884 61.0834C50.884 59.8944 50.859 58.9334 50.805 58.0564C50.685 56.1034 50.728 51.0704 53.735 46.5614C57.901 40.3094 57.95 35.0914 57.95 34.8714C57.95 27.5404 51.775 19.9184 44.621 17.0084Z" fill="#534891"/>
</svg>
