<svg width="78" height="79" viewBox="0 0 78 79" fill="none" xmlns="http://www.w3.org/2000/svg">
<path fill-rule="evenodd" clip-rule="evenodd" d="M41.8565 62.8861C41.8565 65.2061 39.9755 67.0881 37.6555 67.0881C35.3355 67.0881 33.4545 65.2061 33.4545 62.8861C33.4545 60.5661 35.3355 58.6851 37.6555 58.6851C39.9755 58.6851 41.8565 60.5661 41.8565 62.8861Z" fill="#534891"/>
<path fill-rule="evenodd" clip-rule="evenodd" d="M57.2051 67.8255C57.2051 69.1135 56.1571 70.1605 54.8701 70.1605H20.7571C19.4701 70.1605 18.4221 69.1135 18.4221 67.8255V6.90851C18.4221 5.62051 19.4701 4.57251 20.7571 4.57251H54.8701C56.1571 4.57251 57.2051 5.62051 57.2051 6.90851V67.8255ZM61.6581 7.61851C61.6651 7.61651 61.6841 7.60851 61.6841 7.60851C61.6841 7.60851 60.2381 4.77051 57.7131 2.94651C57.7011 2.93751 57.6921 2.93351 57.6811 2.92551C57.6511 2.90451 57.6201 2.88751 57.5901 2.86751C57.3791 2.72451 57.2021 2.62951 57.0581 2.57751C56.4171 2.26451 55.7081 2.07251 54.9481 2.07251H20.8351C18.1691 2.07251 16.0001 4.24151 16.0001 6.90851V67.8255C16.0001 68.6385 16.2141 69.3965 16.5711 70.0655C16.5671 70.0675 16.5521 70.0735 16.5521 70.0735C16.5521 70.0735 17.8271 72.5265 20.0561 74.3215C20.9071 75.0995 22.0271 75.5865 23.2721 75.5865H57.3861C60.0521 75.5865 62.2211 73.4175 62.2211 70.7515V9.83451C62.2211 9.03151 62.0051 8.28551 61.6581 7.61851Z" fill="#534891"/>
<path fill-rule="evenodd" clip-rule="evenodd" d="M24.377 53.3287H51.407V10.6487H24.377V53.3287ZM52.024 8.14868H23.603C22.608 8.14868 21.798 8.95868 21.798 9.95268V54.0247C21.798 55.0187 22.608 55.8287 23.603 55.8287H52.024C53.019 55.8287 53.829 55.0187 53.829 54.0247V9.95268C53.829 8.95868 53.019 8.14868 52.024 8.14868Z" fill="#534891"/>
</svg>
