<svg width="78" height="79" viewBox="0 0 78 79" fill="none" xmlns="http://www.w3.org/2000/svg">
<path fill-rule="evenodd" clip-rule="evenodd" d="M65.8799 20.8425C60.1389 11.8945 50.1089 5.94751 38.7109 5.94751C27.2289 5.94751 17.1349 11.9805 11.4139 21.0385L13.2209 22.8585C18.4399 14.2305 27.9119 8.44951 38.7109 8.44951C55.1239 8.44951 68.4779 21.8025 68.4779 38.2165C68.4779 54.6305 55.1239 67.9845 38.7109 67.9845C28.0959 67.9845 18.7659 62.3945 13.4939 54.0085L11.7039 55.8115C12.0309 56.3115 12.3559 56.8135 12.7089 57.2935C18.4489 66.2475 28.4819 72.1975 39.8849 72.1975C57.6769 72.1975 72.1519 57.7225 72.1519 39.9305C72.1519 32.7925 69.8179 26.1925 65.8799 20.8425Z" fill="#534891"/>
<path fill-rule="evenodd" clip-rule="evenodd" d="M5.98633 23.9187V53.9557C5.98633 54.2177 6.09133 54.4667 6.27333 54.6507C6.65533 55.0367 7.27333 55.0367 7.65433 54.6507L22.5603 39.6317C22.9423 39.2487 22.9423 38.6257 22.5603 38.2407L7.65433 23.2217C7.47033 23.0367 7.22433 22.9347 6.96533 22.9347C6.42433 22.9347 5.98633 23.3757 5.98633 23.9187Z" fill="#534891"/>
<path fill-rule="evenodd" clip-rule="evenodd" d="M42.8447 46.7005C42.3677 47.2625 41.7737 47.6505 41.0717 47.8775V40.7705C41.9247 41.0855 42.5727 41.4925 42.9877 42.0025C43.4907 42.6195 43.7417 43.3545 43.7417 44.2075C43.7417 45.1625 43.4437 45.9925 42.8447 46.7005ZM35.8927 32.9115C35.4857 32.3325 35.2827 31.7045 35.2827 31.0305C35.2827 30.2915 35.5047 29.6165 35.9497 29.0055C36.3477 28.4605 36.8727 28.0655 37.5127 27.8045V34.1995C36.8057 33.8585 36.2597 33.4325 35.8927 32.9115ZM46.7597 38.4505C45.7217 37.2145 43.8187 36.1985 41.0717 35.3945V28.0905C41.9707 28.6705 42.5627 29.5665 42.8067 30.8195L47.6387 30.1895C47.3077 28.2795 46.5427 26.7555 45.3467 25.6165C44.2657 24.5865 42.8277 23.9435 41.0717 23.6465V21.6525H40.5147H37.7447H37.5127V23.5845C35.4357 23.8365 33.7517 24.6315 32.4837 25.9975C31.1657 27.4175 30.5077 29.1715 30.5077 31.2595C30.5077 33.3215 31.0897 35.0755 32.2547 36.5205C33.3817 37.9195 35.1387 38.9715 37.5127 39.6845V47.6275C36.9177 47.2935 36.3687 46.8085 35.8737 46.1555C35.3137 45.4175 34.9317 44.5385 34.7287 43.5195L29.7427 44.0545C30.1247 46.5625 31.0037 48.5045 32.3787 49.8795C33.7027 51.2035 35.4207 52.0015 37.5127 52.2985V55.8195H37.7447H40.5147H41.0717V52.1485C43.2857 51.7325 45.0427 50.8025 46.3297 49.3455C47.7237 47.7655 48.4207 45.8245 48.4207 43.5195C48.4207 41.4575 47.8667 39.7665 46.7597 38.4505Z" fill="#534891"/>
</svg>
