<svg width="78" height="79" viewBox="0 0 78 79" fill="none" xmlns="http://www.w3.org/2000/svg">
<path fill-rule="evenodd" clip-rule="evenodd" d="M40.8909 24.2955L44.4889 18.0785C44.6009 17.8835 44.8959 17.9415 44.9289 18.1635L45.9619 25.2715C45.9691 25.3194 45.9906 25.3639 46.0237 25.3993C46.0567 25.4346 46.0997 25.4591 46.1469 25.4695L53.1719 26.9695C53.2203 26.9797 53.2642 27.0047 53.2977 27.0411C53.3311 27.0774 53.3523 27.1233 53.3584 27.1724C53.3644 27.2214 53.355 27.2711 53.3315 27.3145C53.3079 27.3579 53.2714 27.3929 53.2269 27.4145L46.7869 30.5935C46.7432 30.6149 46.7072 30.6492 46.6836 30.6918C46.66 30.7343 46.65 30.7831 46.6549 30.8315L47.3979 37.9755C47.4033 38.0244 47.3932 38.0737 47.3692 38.1166C47.3451 38.1595 47.3083 38.1938 47.2638 38.2147C47.2193 38.2357 47.1693 38.2422 47.121 38.2334C47.0726 38.2245 47.0282 38.2008 46.9939 38.1655L41.9799 33.0225C41.9462 32.9877 41.9026 32.9642 41.855 32.955C41.8074 32.9459 41.7582 32.9517 41.7139 32.9715L35.1479 35.8855C35.1031 35.9056 35.053 35.9112 35.0048 35.9015C34.9566 35.8918 34.9127 35.8673 34.8791 35.8314C34.8455 35.7955 34.8239 35.75 34.8174 35.7012C34.811 35.6525 34.8199 35.6029 34.8429 35.5595L38.1849 29.1995C38.2073 29.1569 38.216 29.1084 38.21 29.0606C38.2039 29.0129 38.1833 28.9682 38.1509 28.9325L33.3509 23.5885C33.3181 23.5519 33.2974 23.506 33.2918 23.4571C33.2862 23.4083 33.296 23.3589 33.3197 23.3158C33.3434 23.2727 33.38 23.2381 33.4243 23.2167C33.4686 23.1953 33.5184 23.1883 33.5669 23.1965L40.6469 24.4105C40.6946 24.4188 40.7437 24.4122 40.7876 24.3916C40.8314 24.371 40.8678 24.3375 40.8919 24.2955" fill="#534891"/>
<path fill-rule="evenodd" clip-rule="evenodd" d="M27.249 52.3565L33.16 56.9745L34.699 55.0035L28.788 50.3865L27.249 52.3565Z" fill="#534891"/>
<path fill-rule="evenodd" clip-rule="evenodd" d="M18.8049 45.7615L24.7159 50.3785L26.2549 48.4085L20.3439 43.7915L18.8049 45.7615Z" fill="#534891"/>
<path fill-rule="evenodd" clip-rule="evenodd" d="M39.005 58.3675L37.232 56.9825L35.692 58.9525L37.466 60.3385L28.973 71.2115L23.831 67.1945C26.556 63.6545 25.916 58.5545 22.39 55.7995C18.862 53.0435 13.758 53.6585 10.984 57.1595L6.00498 53.2695L14.499 42.3975L16.272 43.7835L17.811 41.8135L16.037 40.4285L42.088 7.07747L65.056 25.0175L39.005 58.3675ZM51.397 5.09647C51.1578 4.87858 50.8435 4.76178 50.52 4.77054C50.1966 4.7793 49.8891 4.91295 49.662 5.14347L47.062 7.79047L42.642 4.33847C42.5126 4.23732 42.3646 4.16264 42.2064 4.11871C42.0482 4.07477 41.8829 4.06243 41.7199 4.0824C41.557 4.10236 41.3995 4.15424 41.2566 4.23507C41.1137 4.3159 40.9881 4.42409 40.887 4.55347L3.26498 52.7175C3.06112 52.9787 2.96936 53.3103 3.00986 53.6392C3.05037 53.9681 3.21982 54.2675 3.48098 54.4715L10.517 59.9685C10.6608 60.0805 10.8273 60.1597 11.0049 60.2007C11.1826 60.2416 11.367 60.2432 11.5453 60.2054C11.7236 60.1676 11.8915 60.0912 12.0373 59.9817C12.183 59.8722 12.303 59.7322 12.389 59.5715C12.558 59.2555 12.731 58.9845 12.919 58.7445C13.8422 57.5645 15.1958 56.7991 16.6828 56.6163C18.1698 56.4335 19.6685 56.8483 20.85 57.7695C22.0293 58.6933 22.7942 60.0471 22.977 61.5339C23.1597 63.0208 22.7455 64.5195 21.825 65.7015C21.637 65.9415 21.417 66.1755 21.15 66.4165C21.0145 66.5386 20.9074 66.6889 20.8363 66.8568C20.7651 67.0248 20.7317 67.2063 20.7383 67.3886C20.7448 67.5709 20.7913 67.7495 20.8743 67.9119C20.9574 68.0742 21.075 68.2165 21.219 68.3285L28.419 73.9515C28.5481 74.0529 28.6961 74.1278 28.8543 74.1719C29.0125 74.216 29.1779 74.2283 29.3409 74.2082C29.5039 74.1882 29.6613 74.1361 29.8041 74.0549C29.9469 73.9738 30.0723 73.8652 30.173 73.7355L74.81 28.2355C74.9274 28.1156 75.0195 27.9733 75.0808 27.817C75.1421 27.6608 75.1713 27.4938 75.1667 27.3261C75.1622 27.1583 75.1239 26.9932 75.0542 26.8405C74.9845 26.6879 74.8848 26.5508 74.761 26.4375L51.397 5.09647Z" fill="#534891"/>
</svg>
