<svg width="78" height="79" viewBox="0 0 78 79" fill="none" xmlns="http://www.w3.org/2000/svg">
<path fill-rule="evenodd" clip-rule="evenodd" d="M40.592 37.3376C40.1803 37.8245 39.6385 38.1842 39.03 38.3746V32.1146C39.782 32.3926 40.352 32.7506 40.718 33.1996C41.161 33.7426 41.382 34.3896 41.382 35.1416C41.382 35.9836 41.119 36.7136 40.592 37.3376ZM34.47 25.1926C34.1209 24.7106 33.9326 24.1308 33.932 23.5356C33.932 22.8846 34.129 22.2916 34.52 21.7526C34.87 21.2726 35.333 20.9256 35.897 20.6946V26.3276C35.274 26.0276 34.793 25.6526 34.47 25.1926ZM44.042 30.0706C43.127 28.9836 41.452 28.0886 39.032 27.3796V20.9476C39.823 21.4576 40.344 22.2476 40.559 23.3506L44.814 22.7956C44.524 21.1136 43.851 19.7716 42.797 18.7676C41.844 17.8606 40.578 17.2946 39.031 17.0326V15.2766H35.896V16.9766C34.067 17.1996 32.584 17.9006 31.467 19.1046C30.307 20.3536 29.727 21.8986 29.727 23.7376C29.727 25.5546 30.239 27.0996 31.265 28.3716C32.258 29.6046 33.805 30.5296 35.896 31.1576V38.1536C35.372 37.8596 34.889 37.4336 34.452 36.8586C33.959 36.2076 33.623 35.4336 33.443 34.5366L29.053 35.0066C29.39 37.2166 30.163 38.9266 31.374 40.1386C32.54 41.3046 34.054 42.0066 35.896 42.2686V45.3686H39.031V42.1356C40.981 41.7696 42.528 40.9506 43.662 39.6656C44.889 38.2756 45.505 36.5656 45.505 34.5356C45.505 32.7196 45.015 31.2316 44.041 30.0706" fill="#534891"/>
<path fill-rule="evenodd" clip-rule="evenodd" d="M49.556 64.3966C51.574 64.3966 53.441 64.3216 55.152 64.2046C48.476 67.8566 34.678 72.6676 19.842 61.6396C22.421 61.5836 24.875 61.4746 27.22 61.3236C35.527 63.6706 43.235 64.3966 49.556 64.3966ZM18.386 37.8346C18.386 22.1906 27.008 9.46256 37.605 9.46256C48.202 9.46256 56.824 22.1906 56.824 37.8346C56.824 41.0516 56.429 43.9956 55.724 46.6606C46.711 48.2416 34.193 48.8426 19.179 45.4306C18.667 43.0956 18.387 40.5626 18.387 37.8346H18.386ZM71.08 57.0126L70.48 54.5846C70.338 54.6206 64.155 56.0866 55.315 56.3156C65.461 52.9426 69.545 49.1736 69.853 48.8776L68.122 47.0756C68.034 47.1596 62.198 52.5416 46.577 56.1016C37.987 55.4416 28.232 53.2916 19.335 48.0556C27.357 49.8466 34.654 50.5266 41.095 50.5266C60.232 50.5266 71.832 44.5646 72.558 44.1806L71.388 41.9706C71.302 42.0166 68.333 43.5286 63.008 45.0176C63.207 43.4506 63.314 41.8626 63.314 40.2756C63.314 23.1976 51.414 8.07656 39.513 7.11156C37.647 6.99156 35.626 7.08956 32.256 8.19356C22.859 11.5876 15.886 23.7116 15.886 38.1116C15.886 40.3596 16.096 42.6066 16.501 44.7926C12.8997 43.8726 9.346 42.7753 5.853 41.5046L5 43.8546C7.449 44.7446 9.843 45.5226 12.187 46.2096C20.409 52.6876 29.789 56.0196 38.614 57.5946C35.234 58.1046 31.51 58.5156 27.428 58.7926C21.0473 56.9452 14.935 54.273 9.246 50.8436L7.956 52.9846C11.968 55.3994 16.1878 57.4509 20.565 59.1146C17.408 59.1976 14.082 59.2096 10.543 59.1216L10.48 61.6216C12.272 61.6666 14.013 61.6876 15.708 61.6876C23.632 68.2296 32.205 70.8626 39.004 70.8626C50.488 70.8626 59.094 64.8006 60.643 63.6346C64.011 63.1566 65.985 62.6266 66.059 62.6066L65.386 60.1986C65.196 60.2506 52.246 63.7186 35.153 60.6056C39.571 60.0806 43.485 59.3936 46.947 58.6166C49.07 58.7646 51.127 58.8366 53.075 58.8366C63.452 58.8366 70.922 57.0516 71.081 57.0126H71.08Z" fill="#534891"/>
</svg>
