<svg width="78" height="79" viewBox="0 0 78 79" fill="none" xmlns="http://www.w3.org/2000/svg">
<path fill-rule="evenodd" clip-rule="evenodd" d="M38.675 41.5855V32.0455L32.258 41.5855H38.675ZM38.675 51.9055V46.2895H27.25V41.6045L39.362 23.8745H43.856V41.5845H47.322V46.2895H43.856V51.9065H38.676L38.675 51.9055Z" fill="#534891"/>
<path fill-rule="evenodd" clip-rule="evenodd" d="M38.268 68.1095C21.855 68.1095 8.5 54.7555 8.5 38.3415C8.5 21.9275 21.855 8.57451 38.268 8.57451C54.681 8.57451 68.036 21.9275 68.036 38.3415C68.036 54.7555 54.681 68.1095 38.268 68.1095ZM65.438 20.9675C59.697 12.0195 49.666 6.07251 38.268 6.07251C20.476 6.07251 6 20.5475 6 38.3405C6 45.4735 8.331 52.0705 12.266 57.4195C18.006 66.3725 28.039 72.3225 39.443 72.3225C57.235 72.3225 71.709 57.8475 71.709 40.0555C71.7148 33.1858 69.5168 26.4954 65.438 20.9675Z" fill="#534891"/>
</svg>
