<svg width="78" height="79" viewBox="0 0 78 79" fill="none" xmlns="http://www.w3.org/2000/svg">
<path fill-rule="evenodd" clip-rule="evenodd" d="M47.237 46.5645V51.5355H28.479C28.682 49.6565 29.292 47.8765 30.307 46.1935C31.323 44.5115 33.329 42.2805 36.325 39.5005C38.737 37.2525 40.215 35.7305 40.762 34.9305C41.499 33.8255 41.866 32.7335 41.866 31.6545C41.866 30.4605 41.546 29.5445 40.905 28.9025C40.264 28.2625 39.378 27.9425 38.249 27.9425C37.132 27.9425 36.243 28.2775 35.583 28.9505C34.923 29.6235 34.542 30.7405 34.44 32.3015L29.108 31.7685C29.425 28.8235 30.423 26.7105 32.098 25.4285C33.774 24.1455 35.868 23.5035 38.382 23.5035C41.137 23.5035 43.301 24.2465 44.876 25.7335C46.45 27.2165 47.236 29.0645 47.236 31.2735C47.2408 32.5022 47.0117 33.7205 46.561 34.8635C46.11 35.9995 45.395 37.1895 44.419 38.4335C43.769 39.2585 42.602 40.4465 40.915 41.9945C39.225 43.5445 38.157 44.5725 37.705 45.0805C37.2914 45.5374 36.9245 46.0346 36.61 46.5645H47.237Z" fill="#534891"/>
<path fill-rule="evenodd" clip-rule="evenodd" d="M38.268 68.1095C21.855 68.1095 8.50001 54.7555 8.50001 38.3415C8.50001 21.9275 21.855 8.57451 38.268 8.57451C54.681 8.57451 68.036 21.9275 68.036 38.3415C68.036 54.7555 54.681 68.1095 38.268 68.1095ZM65.438 20.9675C59.697 12.0195 49.666 6.07251 38.268 6.07251C20.476 6.07251 6.00001 20.5465 6.00001 38.3395C5.9936 45.2058 8.18985 51.8931 12.266 57.4185C18.006 66.3725 28.039 72.3225 39.443 72.3225C57.235 72.3225 71.709 57.8475 71.709 40.0555C71.715 33.1857 69.517 26.4953 65.438 20.9675Z" fill="#534891"/>
</svg>
