<svg width="78" height="79" viewBox="0 0 78 79" fill="none" xmlns="http://www.w3.org/2000/svg">
<path fill-rule="evenodd" clip-rule="evenodd" d="M42.762 52.2325H37.412V32.0665C35.456 33.8945 33.152 35.2465 30.498 36.1225V31.2655C31.895 30.8085 33.412 29.9425 35.05 28.6675C36.688 27.3905 37.811 25.9025 38.42 24.2015H42.762V52.2325Z" fill="#534891"/>
<path fill-rule="evenodd" clip-rule="evenodd" d="M38.268 68.1095C21.855 68.1095 8.5 54.7555 8.5 38.3415C8.5 21.9275 21.855 8.57451 38.268 8.57451C54.681 8.57451 68.036 21.9275 68.036 38.3415C68.036 54.7555 54.681 68.1095 38.268 68.1095ZM65.438 20.9675C59.697 12.0195 49.666 6.07251 38.268 6.07251C20.476 6.07251 6 20.5475 6 38.3405C6 45.4735 8.331 52.0705 12.266 57.4185C18.006 66.3725 28.039 72.3225 39.443 72.3225C57.235 72.3225 71.709 57.8475 71.709 40.0555C71.715 33.1857 69.5169 26.4953 65.438 20.9675Z" fill="#534891"/>
</svg>
