<svg width="78" height="79" viewBox="0 0 78 79" fill="none" xmlns="http://www.w3.org/2000/svg">
<path fill-rule="evenodd" clip-rule="evenodd" d="M43.3733 45.7737C43.3733 42.1837 40.4633 39.2737 36.8733 39.2737C33.2833 39.2737 30.3733 42.1837 30.3733 45.7737C30.3733 48.0737 31.5713 50.0897 33.3733 51.2457V56.7737C33.3733 58.7067 34.9403 60.2737 36.8733 60.2737C38.8063 60.2737 40.3733 58.7067 40.3733 56.7737V51.2457C42.1763 50.0897 43.3733 48.0737 43.3733 45.7737Z" fill="#534891"/>
<path fill-rule="evenodd" clip-rule="evenodd" d="M57.2682 63.2678C57.2682 65.6408 55.3382 67.5708 52.9662 67.5708H19.8032C17.4302 67.5708 15.5002 65.6408 15.5002 63.2678V31.0708H57.2682V63.2678ZM24.3842 22.7808C24.3842 15.2218 30.2152 9.07275 37.3842 9.07275C44.5522 9.07275 50.3842 15.2218 50.3842 22.7808V28.5708H24.3842V22.7808ZM62.9972 32.4078L62.9982 32.4038L59.1862 29.1348L59.1852 29.1358C58.8322 28.7878 58.3492 28.5708 57.8152 28.5708H54.3842V22.7808C54.3842 13.0168 46.7582 5.07275 37.3842 5.07275C28.0102 5.07275 20.3842 13.0168 20.3842 22.7808V28.5708H14.9392C13.8702 28.5708 13.0002 29.4408 13.0002 30.5098V63.2678C13.0002 63.4018 13.0122 63.5328 13.0202 63.6638C13.0192 63.6638 13.0122 63.6618 13.0122 63.6618C13.0122 63.6618 13.0172 63.7708 13.0352 63.9588C13.0352 63.9608 13.0352 63.9638 13.0362 63.9668C13.1832 65.4608 14.2892 72.0588 22.2362 73.2208C22.6912 73.3168 23.1622 73.3688 23.6452 73.3688H56.8082C60.5592 73.3688 63.6112 70.3178 63.6112 66.5668V33.8228C63.6112 33.2648 63.3722 32.7638 62.9972 32.4078Z" fill="#534891"/>
</svg>
