<svg width="78" height="79" viewBox="0 0 78 79" fill="none" xmlns="http://www.w3.org/2000/svg">
<path fill-rule="evenodd" clip-rule="evenodd" d="M27.791 24.3676H51.496V21.3676H27.791V24.3676Z" fill="#534891"/>
<path fill-rule="evenodd" clip-rule="evenodd" d="M27.791 64.3475H51.496V61.3475H27.791V64.3475Z" fill="#534891"/>
<path fill-rule="evenodd" clip-rule="evenodd" d="M61.2245 69.177C61.2245 70.465 60.1765 71.512 58.8895 71.512H19.8345C18.5475 71.512 17.4995 70.465 17.4995 69.177V66.236L17.4615 66.287V14.194V12.112C17.4615 13.098 18.6615 14.122 19.9835 14.135H58.8895C60.1765 14.135 61.2245 15.182 61.2245 16.47V69.177ZM58.8895 11.635H56.4265L56.4585 8.10705C56.4715 5.89205 54.6875 4.08605 52.4725 4.07295C52.3185 4.07205 52.1645 4.07905 52.0125 4.09605L19.1395 7.68705L19.1415 7.69605C15.0615 8.17005 15.0275 11.157 15.0275 11.157V16.2C15.0225 16.292 14.9995 16.378 14.9995 16.47V69.177C14.9995 71.844 17.1685 74.012 19.8345 74.012H58.8895C61.5555 74.012 63.7245 71.844 63.7245 69.177V16.47C63.7245 13.804 61.5555 11.635 58.8895 11.635Z" fill="#534891"/>
<path fill-rule="evenodd" clip-rule="evenodd" d="M31.49 35.3401C32.16 35.5721 32.855 35.7771 33.568 35.9511C33.881 35.0121 34.339 33.8941 34.988 32.8621C33.68 33.4541 32.495 34.2931 31.49 35.3401ZM44.298 32.8621C44.947 33.8941 45.406 35.0121 45.718 35.9511C46.43 35.7771 47.126 35.5721 47.794 35.3401C46.79 34.2931 45.606 33.4551 44.298 32.8621ZM35.663 36.3661C36.623 36.5121 37.601 36.6071 38.585 36.6461V32.1401C37.752 32.5811 36.949 33.5321 36.278 34.8911C36.053 35.3471 35.847 35.8421 35.663 36.3661ZM40.701 32.1401V36.6461C41.684 36.6071 42.663 36.5121 43.623 36.3661C43.438 35.8411 43.232 35.3471 43.007 34.8911C42.337 33.5321 41.535 32.5811 40.701 32.1401ZM28.385 42.1081H32.505C32.561 40.6811 32.732 39.3011 33.013 37.9961C32.012 37.7481 31.04 37.4441 30.112 37.0901C29.143 38.6041 28.552 40.3221 28.385 42.1081ZM34.624 42.1081H38.585V38.7651C37.403 38.7211 36.23 38.6041 35.089 38.4191C34.835 39.5871 34.679 40.8241 34.624 42.1081ZM40.701 42.1081H44.661C44.607 40.8231 44.451 39.5861 44.197 38.4191C43.054 38.6041 41.883 38.7211 40.701 38.7651V42.1081ZM46.781 42.1081H50.901C50.733 40.3221 50.142 38.6041 49.174 37.0901C48.245 37.4451 47.272 37.7481 46.27 37.9961C46.553 39.3031 46.724 40.6831 46.781 42.1081ZM34.624 44.2261C34.679 45.5091 34.835 46.7461 35.089 47.9141C36.232 47.7281 37.406 47.6111 38.585 47.5691V44.2261H34.624ZM40.701 47.5691C41.881 47.6111 43.053 47.7281 44.197 47.9141C44.451 46.7471 44.607 45.5101 44.661 44.2261H40.701V47.5691ZM46.27 48.3371C47.271 48.5841 48.245 48.8871 49.174 49.2431C50.142 47.7301 50.733 46.0111 50.901 44.2261H46.781C46.724 45.6501 46.553 47.0291 46.27 48.3371ZM28.385 44.2261C28.552 46.0101 29.143 47.7291 30.112 49.2431C31.041 48.8871 32.013 48.5841 33.013 48.3371C32.732 47.0311 32.561 45.6521 32.505 44.2261H28.385ZM31.49 50.9931C32.495 52.0401 33.68 52.8791 34.988 53.4711C34.339 52.4391 33.881 51.3211 33.568 50.3821C32.856 50.5551 32.161 50.7601 31.49 50.9931ZM45.718 50.3821C45.406 51.3211 44.947 52.4391 44.298 53.4711C45.606 52.8791 46.79 52.0401 47.794 50.9931C47.125 50.7601 46.429 50.5551 45.718 50.3821ZM35.663 49.9681C35.848 50.4941 36.054 50.9881 36.278 51.4421C36.949 52.8001 37.752 53.7521 38.585 54.1941V49.6871C37.599 49.7271 36.621 49.8211 35.663 49.9681ZM40.701 49.6871V54.1941C41.535 53.7521 42.337 52.8001 43.007 51.4421C43.232 50.9861 43.439 50.4921 43.623 49.9681C42.665 49.8211 41.686 49.7271 40.701 49.6871ZM39.639 56.5901C36.14 56.5901 32.85 55.2681 30.328 52.8371C27.677 50.2831 26.219 46.8491 26.219 43.1671C26.219 37.1291 30.275 31.8031 36.085 30.2171C40.156 29.1001 44.421 29.9291 47.783 32.4931C51.141 35.0551 53.068 38.9451 53.068 43.1671C53.068 50.4181 47.395 56.3111 40.154 56.5801C39.982 56.5871 39.811 56.5901 39.639 56.5901Z" fill="#534891"/>
</svg>
