<svg width="78" height="79" viewBox="0 0 78 79" fill="none" xmlns="http://www.w3.org/2000/svg">
<path fill-rule="evenodd" clip-rule="evenodd" d="M14.432 12.5816C12.967 21.8516 15.41 26.7256 19.006 29.1996C27.36 34.9486 37.527 24.1596 31.293 16.1626C28.609 12.7186 23.601 10.5686 14.433 12.5816" fill="#534891"/>
<path fill-rule="evenodd" clip-rule="evenodd" d="M19.361 49.9556H56.058V45.3976H19.361V49.9556ZM51.658 52.7856L50.005 69.9056H25.415L23.73 52.4556H42.929L51.693 52.5116L51.658 52.7856ZM43.48 12.0346C45.525 9.06255 49.044 7.56855 53.972 7.56855C54.963 7.56855 56.028 7.64655 57.132 7.76655C54.934 9.42455 49.157 14.1446 44.086 21.4126C42.045 19.0616 41.136 15.4396 43.48 12.0346ZM58.364 9.96756C59.139 15.8756 57.922 20.1296 54.719 22.6266C51.741 24.9486 48.422 24.5706 45.988 23.0416C50.699 16.2206 56.106 11.6976 58.364 9.96756ZM57.218 42.8976H38.081C38.959 36.0726 41.513 30.1226 44.572 25.2016C45.218 25.5916 45.978 25.9286 46.808 26.2016C47.285 26.3726 47.774 26.5136 48.277 26.6126C49.771 26.9636 51.31 27.1396 52.539 27.1396C54.553 27.1396 56.666 26.4916 58.665 24.9336C63.203 21.3966 64.56 15.3016 62.698 6.81955C62.6444 6.57373 62.5177 6.34986 62.3346 6.17729C62.1515 6.00473 61.9205 5.89153 61.672 5.85255C60.4354 5.65161 59.1944 5.47857 57.95 5.33355C50.078 4.35555 44.523 6.12755 41.431 10.6166C38.141 15.3986 39.655 20.4816 42.672 23.5486C39.886 27.9546 37.46 33.1596 36.191 39.0826C34.908 34.4116 32.982 30.5816 30.884 27.5446C30.327 28.1976 29.612 28.7966 28.908 29.2856C31.69 33.3826 33.541 37.9406 34.468 42.8976H18.111C17.421 42.8976 16.861 43.4576 16.861 44.1476V51.2056C16.861 51.8956 17.421 52.4556 18.111 52.4556H21.219L23.035 71.2756C23.073 71.6646 23.297 71.9796 23.602 72.1816C23.916 72.4876 24.863 73.0716 27.528 73.0716H54.388C55.032 73.0716 55.571 72.5826 55.632 71.9416L57.461 53.0046L60.556 53.1216C61.247 53.1216 61.806 52.5616 61.806 51.8716V44.8136C61.806 44.3506 61.543 43.9626 61.168 43.7466C60.245 43.3146 58.692 42.8976 57.218 42.8976Z" fill="#534891"/>
</svg>
