<svg width="78" height="79" viewBox="0 0 78 79" fill="none" xmlns="http://www.w3.org/2000/svg">
<path fill-rule="evenodd" clip-rule="evenodd" d="M18.641 35.8716L18.514 34.6286C18.065 30.2486 18.994 26.6786 21.276 24.0186C24.84 19.8656 30.373 19.5416 30.607 19.5286L31.855 19.4666L31.981 21.9636L30.735 22.0256C30.631 22.0326 25.992 22.3456 23.159 25.6646C21.351 27.7816 20.625 30.7116 21.001 34.3726L21.128 35.6166L18.641 35.8716Z" fill="#534891"/>
<path fill-rule="evenodd" clip-rule="evenodd" d="M61.276 68.8166C60.6798 68.8182 60.0892 68.7016 59.5384 68.4735C58.9876 68.2453 58.4875 67.9102 58.067 67.4876L41.79 51.2106C41.6035 51.0235 41.3624 50.9004 41.1015 50.8591C40.8405 50.8178 40.5732 50.8603 40.338 50.9806C37.2653 52.5621 33.8588 53.3853 30.403 53.3816C18.326 53.3816 8.5 43.5546 8.5 31.4766C8.5 19.3986 18.326 9.57257 30.403 9.57257C42.483 9.57257 52.308 19.3986 52.308 31.4766C52.308 35.8646 51.015 40.0996 48.568 43.7226C48.4057 43.9631 48.3321 44.2525 48.3598 44.5414C48.3875 44.8302 48.5149 45.1004 48.72 45.3056L64.484 61.0696C64.907 61.4899 65.2424 61.9899 65.4707 62.5408C65.699 63.0916 65.8157 63.6823 65.814 64.2786C65.8157 64.8749 65.699 65.4655 65.4707 66.0164C65.2424 66.5672 64.907 67.0673 64.484 67.4876C64.0638 67.9103 63.5639 68.2454 63.0132 68.4736C62.4625 68.7017 61.8721 68.8183 61.276 68.8166ZM55 44.2516C57.3643 40.4104 58.6129 35.987 58.606 31.4766C58.606 17.1076 47.01 7.07257 30.403 7.07257C16.947 7.07257 6 18.0196 6 31.4766C6 44.9336 16.947 55.8816 30.403 55.8816C33.97 55.8816 37.414 55.1176 40.653 53.6086L56.299 69.2556C57.3537 70.3123 58.7197 71.0029 60.196 71.2256C61.712 71.4166 63.769 71.3786 65.212 71.3086C66.556 71.1606 68.522 70.7856 70.05 69.2556C70.7058 68.6036 71.2258 67.828 71.5797 66.9737C71.9337 66.1194 72.1146 65.2033 72.112 64.2786C72.1146 63.3538 71.9337 62.4378 71.5797 61.5834C71.2258 60.7291 70.7058 59.9535 70.05 59.3016L55 44.2516Z" fill="#534891"/>
<path fill-rule="evenodd" clip-rule="evenodd" d="M30.305 47.3155C21.625 47.3155 14.565 40.2555 14.565 31.5765C14.565 22.8975 21.625 15.8365 30.305 15.8365C38.984 15.8365 46.044 22.8975 46.044 31.5765C46.044 40.2545 38.984 47.3165 30.304 47.3165L30.305 47.3155ZM30.304 13.3365C20.248 13.3365 12.066 21.5185 12.066 31.5765C12.066 41.6335 20.248 49.8165 30.305 49.8165C40.362 49.8165 48.544 41.6335 48.544 31.5765C48.544 21.5185 40.362 13.3365 30.304 13.3365Z" fill="#534891"/>
</svg>
