<svg width="78" height="79" viewBox="0 0 78 79" fill="none" xmlns="http://www.w3.org/2000/svg">
<path fill-rule="evenodd" clip-rule="evenodd" d="M40.115 40.4156C40.1155 39.8746 39.9752 39.3428 39.7077 38.8725C39.4402 38.4023 39.0549 38.0098 38.5897 37.7337C38.1244 37.4576 37.5953 37.3075 37.0544 37.298C36.5134 37.2886 35.9794 37.4202 35.5048 37.6799C35.0302 37.9396 34.6314 38.3184 34.3477 38.779C34.064 39.2396 33.9051 39.7662 33.8868 40.3069C33.8685 40.8476 33.9912 41.3838 34.2431 41.8626C34.4949 42.3414 34.8671 42.7463 35.323 43.0376V45.6866C35.323 46.1315 35.4997 46.5582 35.8143 46.8728C36.1289 47.1874 36.5556 47.3641 37.0005 47.3641C37.4454 47.3641 37.8721 47.1874 38.1867 46.8728C38.5013 46.5582 38.678 46.1315 38.678 45.6866V43.0366C39.1185 42.7557 39.4811 42.3683 39.7323 41.9102C39.9834 41.4521 40.1151 40.938 40.115 40.4156Z" fill="#534891"/>
<path fill-rule="evenodd" clip-rule="evenodd" d="M31.061 30.9516C31.061 27.4906 33.725 24.6746 36.999 24.6746C40.275 24.6746 42.939 27.4906 42.939 30.9516V31.7376H31.062V30.9516H31.061ZM46.358 34.2376V46.1246C46.3566 47.2652 45.903 48.3588 45.0965 49.1654C44.2901 49.9721 43.1966 50.426 42.056 50.4276H31.946C30.8051 50.4262 29.7112 49.9725 28.9044 49.1658C28.0976 48.3592 27.6436 47.2655 27.642 46.1246V34.2376H46.358ZM28.562 31.7376H25.142V46.1246C25.1438 47.9283 25.8612 49.6576 27.1366 50.933C28.412 52.2084 30.1413 52.9257 31.945 52.9276H42.055C43.8587 52.9257 45.588 52.2084 46.8634 50.933C48.1388 49.6576 48.8561 47.9283 48.858 46.1246V31.7376H45.44V30.9516C45.44 26.1116 41.654 22.1746 37 22.1746C32.346 22.1746 28.561 26.1116 28.561 30.9516V31.7376H28.562Z" fill="#534891"/>
<path fill-rule="evenodd" clip-rule="evenodd" d="M61.126 35.5636C61.126 50.3496 50.694 64.0256 36.814 67.5076C22.932 64.0256 12.5 50.3486 12.5 35.5636V19.7556L36.814 8.81557L61.126 19.7556V35.5636ZM57.92 15.5706L36.814 6.07257L10 18.1386V35.5636C10 42.8376 12.358 49.8596 16.345 55.7016L16.392 55.7696C16.6587 56.1596 16.9331 56.5444 17.215 56.9236C20.374 61.1736 24.419 64.7186 29.052 67.1696C32.49 69.1141 36.1822 70.57 40.022 71.4956L40.313 71.5656L40.604 71.4956C55.724 67.8706 67.125 53.0606 67.125 37.0466V19.6236L57.92 15.5706Z" fill="#534891"/>
</svg>
