<svg width="78" height="79" viewBox="0 0 78 79" fill="none" xmlns="http://www.w3.org/2000/svg">
<path fill-rule="evenodd" clip-rule="evenodd" d="M25.435 22.4676C25.2728 22.4936 25.1174 22.5513 24.9776 22.6374C24.8378 22.7236 24.7163 22.8364 24.6201 22.9694C24.5239 23.1025 24.4548 23.2533 24.4169 23.413C24.3789 23.5728 24.3729 23.7385 24.399 23.9006L27.408 42.6286C27.4659 42.9509 27.6479 43.2377 27.915 43.4272C28.1822 43.6167 28.513 43.6938 28.8363 43.6419C29.1597 43.59 29.4498 43.4133 29.6442 43.1497C29.8386 42.8862 29.9218 42.5569 29.876 42.2326L26.868 23.5026C26.8152 23.1753 26.6345 22.8824 26.3658 22.6883C26.0971 22.4942 25.7622 22.4148 25.435 22.4676ZM37.066 23.2806C36.376 23.2806 35.816 23.8406 35.816 24.5306V42.4306C35.816 42.7621 35.9477 43.0801 36.1821 43.3145C36.4165 43.5489 36.7344 43.6806 37.066 43.6806C37.3975 43.6806 37.7154 43.5489 37.9498 43.3145C38.1843 43.0801 38.316 42.7621 38.316 42.4306V24.5306C38.316 23.8406 37.756 23.2806 37.066 23.2806ZM47.889 24.1876C47.7264 24.1635 47.5607 24.1718 47.4013 24.2121C47.242 24.2524 47.0923 24.324 46.9608 24.4225C46.8293 24.5211 46.7186 24.6448 46.6352 24.7864C46.5519 24.928 46.4974 25.0848 46.475 25.2476L44.047 42.2536C44.0237 42.416 44.0327 42.5815 44.0734 42.7405C44.1141 42.8994 44.1857 43.0488 44.2841 43.1801C44.3825 43.3114 44.5059 43.4221 44.6471 43.5057C44.7882 43.5893 44.9445 43.6444 45.107 43.6676C45.2694 43.6908 45.4348 43.6819 45.5938 43.6412C45.7528 43.6005 45.9022 43.5289 46.0335 43.4304C46.1648 43.332 46.2754 43.2087 46.3591 43.0675C46.4427 42.9263 46.4977 42.77 46.521 42.6076L48.95 25.6016C48.9731 25.4391 48.9641 25.2736 48.9233 25.1146C48.8825 24.9556 48.8108 24.8062 48.7123 24.6749C48.6138 24.5435 48.4904 24.4329 48.3491 24.3493C48.2078 24.2657 48.0515 24.2108 47.889 24.1876ZM57.986 25.2506C57.6647 25.1696 57.3244 25.2191 57.0395 25.3883C56.7547 25.5575 56.5485 25.8327 56.466 26.1536L52.308 42.4926C52.2675 42.6517 52.2588 42.8172 52.2823 42.9797C52.3058 43.1421 52.3611 43.2984 52.445 43.4395C52.5289 43.5806 52.6398 43.7038 52.7713 43.802C52.9028 43.9003 53.0524 43.9717 53.2115 44.0121C53.3706 44.0525 53.5361 44.0613 53.6985 44.0377C53.861 44.0142 54.0172 43.9589 54.1583 43.875C54.2994 43.7911 54.4226 43.6803 54.5209 43.5488C54.6191 43.4173 54.6905 43.2677 54.731 43.1086L58.889 26.7716C58.9295 26.6125 58.9383 26.447 58.9149 26.2845C58.8914 26.122 58.8362 25.9657 58.7523 25.8245C58.6685 25.6834 58.5576 25.5601 58.4261 25.4618C58.2946 25.3635 58.1451 25.2921 57.986 25.2516" fill="#534891"/>
<path fill-rule="evenodd" clip-rule="evenodd" d="M26.92 69.3556C25.796 69.3542 24.7184 68.9071 23.9237 68.1122C23.129 67.3173 22.6821 66.2396 22.681 65.1156C22.6823 63.9915 23.1295 62.9138 23.9243 62.1189C24.7192 61.324 25.7969 60.8769 26.921 60.8756C28.0448 60.8774 29.122 61.3248 29.9164 62.1196C30.7108 62.9144 31.1577 63.9918 31.159 65.1156C31.158 66.2396 30.711 67.3173 29.9163 68.1122C29.1216 68.9071 28.044 69.3542 26.92 69.3556ZM26.92 58.3756C25.1332 58.3777 23.4202 59.0885 22.1568 60.3521C20.8934 61.6156 20.1829 63.3288 20.181 65.1156C20.181 68.8146 23.177 71.8256 26.869 71.8536H28.413C32.091 71.8076 35.07 68.8036 35.07 65.1166C35.07 61.4456 32.118 58.4556 28.464 58.3836L26.92 58.3766V58.3756ZM50.86 65.1166C50.8613 63.9928 51.3082 62.9154 52.1026 62.1206C52.8971 61.3258 53.9742 60.8784 55.098 60.8766C56.2222 60.8776 57.3 61.3247 58.095 62.1196C58.8899 62.9145 59.337 63.9924 59.338 65.1166C59.3367 66.2406 58.8895 67.3182 58.0946 68.1129C57.2997 68.9076 56.222 69.3545 55.098 69.3556C53.974 69.3542 52.8964 68.9071 52.1017 68.1122C51.307 67.3173 50.8601 66.2396 50.859 65.1156L50.86 65.1166ZM55.098 58.3766C53.3112 58.3787 51.5982 59.0895 50.3348 60.3531C49.0714 61.6166 48.3609 63.3298 48.359 65.1166C48.359 68.8146 51.355 71.8256 55.047 71.8536H56.591V71.8516C60.269 71.8076 63.248 68.8046 63.248 65.1166C63.248 61.4456 60.296 58.4556 56.642 58.3836L55.098 58.3766ZM61.787 46.7706H21.757L21.755 46.7636H21.738L16.774 17.1696L18.033 17.3206L18.034 17.3256L67.474 23.2436L61.787 46.7706ZM73.027 20.8246C35.22 16.5376 16.302 14.3936 16.273 14.3926L14.993 7.96257C14.9452 7.72461 14.8295 7.50561 14.6598 7.33204C14.4901 7.15848 14.2738 7.03779 14.037 6.98457L5.52001 5.10257C5.19632 5.03096 4.85743 5.09088 4.57791 5.26913C4.29838 5.44738 4.10112 5.72938 4.02951 6.05307C3.9579 6.37677 4.01782 6.71565 4.19607 6.99518C4.37432 7.2747 4.65632 7.47196 4.98001 7.54357L12.7 9.24957C14.978 22.4146 19.356 47.5896 20.457 55.0076C20.5011 55.3041 20.6503 55.5748 20.8774 55.7705C21.1045 55.9662 21.3943 56.0737 21.694 56.0736H59.476C59.8075 56.0736 60.1255 55.9419 60.3599 55.7075C60.5943 55.473 60.726 55.1551 60.726 54.8236C60.726 54.4921 60.5943 54.1741 60.3599 53.9397C60.1255 53.7053 59.8075 53.5736 59.476 53.5736H22.771L22.145 49.3606H66.619C67.24 49.3606 67.781 48.9346 67.928 48.3306L74.176 22.4786C74.2209 22.2936 74.226 22.1013 74.1911 21.9142C74.1562 21.7271 74.082 21.5495 73.9734 21.3932C73.8648 21.2369 73.7243 21.1054 73.5612 21.0074C73.3981 20.9094 73.216 20.8471 73.027 20.8246Z" fill="#534891"/>
</svg>
