<svg width="78" height="79" viewBox="0 0 78 79" fill="none" xmlns="http://www.w3.org/2000/svg">
<path fill-rule="evenodd" clip-rule="evenodd" d="M68.999 32.7326C68.999 34.7016 67.13 36.3016 64.833 36.3016C62.535 36.3016 60.666 34.7016 60.666 32.7336V29.1636H68.999V32.7336V32.7326ZM36.267 64.8886L36.214 42.5176L15.246 42.5676L15.299 64.9476L9.159 65.0116L9.058 38.6166C9.58572 38.7384 10.1254 38.8008 10.667 38.8026C12.898 38.8026 14.873 37.7956 16.083 36.2586C17.294 37.7956 19.269 38.8026 21.5 38.8026C23.731 38.8026 25.706 37.7956 26.916 36.2586C28.127 37.7956 30.102 38.8026 32.333 38.8026C34.564 38.8026 36.539 37.7956 37.75 36.2586C38.96 37.7956 40.935 38.8026 43.166 38.8026C45.397 38.8026 47.372 37.7956 48.583 36.2586C49.793 37.7956 51.768 38.8026 53.999 38.8026C56.23 38.8026 58.205 37.7956 59.416 36.2576C60.537 37.6816 62.316 38.6396 64.345 38.7756L64.44 62.5686C64.4408 62.8706 64.3821 63.1698 64.2672 63.4492C64.1524 63.7285 63.9836 63.9825 63.7706 64.1967C63.5576 64.4108 63.3045 64.5809 63.0257 64.6972C62.747 64.8135 62.448 64.8738 62.146 64.8746L36.267 64.8886ZM6.5 29.1646H14.833V32.7336C14.833 34.7016 12.964 36.3016 10.667 36.3016C8.369 36.3016 6.5 34.7016 6.5 32.7336V29.1636V29.1646ZM25.666 29.1646V32.7336C25.666 34.7016 23.797 36.3016 21.5 36.3016C19.202 36.3016 17.333 34.7016 17.333 32.7336V29.1636H25.666V29.1646ZM36.5 29.1646V32.7336C36.5 34.7016 34.631 36.3016 32.334 36.3016C30.036 36.3016 28.167 34.7016 28.167 32.7336V29.1636H36.5V29.1646ZM47.333 29.1646V32.7336C47.333 34.7016 45.464 36.3016 43.167 36.3016C40.869 36.3016 39 34.7016 39 32.7336V29.1636H47.333V29.1646ZM58.166 29.1646V32.7336C58.166 34.7016 56.297 36.3016 54 36.3016C51.702 36.3016 49.833 34.7016 49.833 32.7336V29.1636H58.166V29.1646ZM12.131 13.5726H63.368L68.426 26.6646H7.073L12.131 13.5726ZM68.53 11.8726C68.4391 11.6371 68.2791 11.4346 68.071 11.2918C67.8629 11.1491 67.6164 11.0726 67.364 11.0726H11.273C10.757 11.0726 10.294 11.3906 10.107 11.8726L4.084 27.4626C4.0367 27.5924 4.01168 27.7294 4.01 27.8676L4 32.7326C4 34.6676 5.004 36.3906 6.56 37.5026L6.663 66.9296C6.66379 67.0853 6.72637 67.2344 6.83699 67.3441C6.9476 67.4538 7.09722 67.5151 7.253 67.5146L17.805 67.4746V67.4386L17.752 45.0586L33.72 45.0216L33.773 67.3936L64.384 67.3676C65.1536 67.3672 65.9155 67.215 66.6262 66.9197C67.3369 66.6245 67.9824 66.1919 68.5257 65.6468C69.069 65.1018 69.4995 64.4549 69.7924 63.7433C70.0854 63.0316 70.2351 62.2692 70.233 61.4996L70.158 38.4586C72.762 37.6316 74.639 35.3806 74.639 32.7326V31.9526C74.639 29.1196 74.12 26.3406 73.099 23.6926L68.53 11.8726Z" fill="#534891"/>
<path fill-rule="evenodd" clip-rule="evenodd" d="M44.416 54.9636H57.42V45.0796H44.416V54.9636ZM41.916 57.4636H59.92V42.5796H41.916V57.4636Z" fill="#534891"/>
<path fill-rule="evenodd" clip-rule="evenodd" d="M17.805 67.4755L30.903 73.4385V51.1075L17.75 45.0555L17.805 67.4755Z" fill="#534891"/>
</svg>
