<svg width="78" height="79" viewBox="0 0 78 79" fill="none" xmlns="http://www.w3.org/2000/svg">
<path fill-rule="evenodd" clip-rule="evenodd" d="M56.472 68.5056H16.087C15.1358 68.5042 14.224 68.1258 13.5514 67.4532C12.8788 66.7806 12.5003 65.8688 12.499 64.9176V9.65257H56.472V63.3926C56.624 66.5276 57.654 67.8126 59.452 68.5066H56.472V68.5056ZM58.972 56.5516V7.07257H10V64.8396C10.0021 66.4536 10.6442 68.0008 11.7855 69.1421C12.9267 70.2834 14.474 70.9255 16.088 70.9276L63.118 70.9176C64.2445 70.917 65.3247 70.4693 66.1212 69.6728C66.9177 68.8762 67.3655 67.796 67.366 66.6696V56.5526H58.973L58.972 56.5516Z" fill="#534891"/>
<path fill-rule="evenodd" clip-rule="evenodd" d="M18.655 42.9926H50.317V39.9926H18.655V42.9926Z" fill="#534891"/>
<path fill-rule="evenodd" clip-rule="evenodd" d="M18.655 51.2906H50.317V48.2906H18.655V51.2906Z" fill="#534891"/>
<path fill-rule="evenodd" clip-rule="evenodd" d="M18.655 59.5875H38.682V56.5875H18.655V59.5875Z" fill="#534891"/>
<path fill-rule="evenodd" clip-rule="evenodd" d="M15.8889 19.5886H19.7369V30.3616H22.8539V19.5886H26.6929V16.8956H15.8889V19.5886Z" fill="#534891"/>
<path fill-rule="evenodd" clip-rule="evenodd" d="M34.9641 24.7326H32.3271L33.6321 20.9326L34.9641 24.7326ZM35.1391 16.8956H32.1771L27.2251 30.3626H30.3851L31.3951 27.4176H35.9351L37.0041 30.3626H40.2301L35.1991 17.0576L35.1391 16.8976V16.8956Z" fill="#534891"/>
<path fill-rule="evenodd" clip-rule="evenodd" d="M49.0059 23.4406L52.9639 16.8956H49.5109L47.2479 20.8156L44.9379 16.8956H41.4589L45.4029 23.3456L41.0659 30.3616H44.6179L47.1999 26.1096L49.7739 30.3616H53.3479L49.0059 23.4406Z" fill="#534891"/>
</svg>
