<svg width="78" height="79" viewBox="0 0 78 79" fill="none" xmlns="http://www.w3.org/2000/svg">
<path fill-rule="evenodd" clip-rule="evenodd" d="M55.496 43.5026L52.496 43.4326C52.499 43.3126 52.5 43.1926 52.5 43.0726C52.5 33.9456 45.512 26.4496 36.595 25.6446L36.525 22.6286C47.135 23.4086 55.5 32.2626 55.5 43.0726C55.5 43.2166 55.499 43.3596 55.496 43.5026ZM73.49 43.9216L70.492 43.8516C70.497 43.5916 70.5 43.3326 70.5 43.0726C70.5 23.8596 55.237 8.21156 36.175 7.59256L36.105 4.58856C56.857 5.17256 73.5 22.1786 73.5 43.0726C73.5 43.3566 73.497 43.6386 73.49 43.9216Z" fill="#534891"/>
<path fill-rule="evenodd" clip-rule="evenodd" d="M64.4929 43.7126L61.4939 43.6426C61.4979 43.4526 61.4999 43.2626 61.4999 43.0726C61.4999 28.9016 50.3769 17.3286 36.3849 16.6086L36.3149 13.6016C51.9969 14.2886 64.4999 27.2216 64.4999 43.0726C64.4999 43.2866 64.4979 43.4996 64.4929 43.7126Z" fill="#534891"/>
<path fill-rule="evenodd" clip-rule="evenodd" d="M55.791 62.8016L53.533 64.9876C52.7305 65.7618 51.8876 66.4932 51.008 67.1786L50.889 67.2846C50.543 67.6326 49.326 68.3526 47.191 68.5936C42.922 69.0776 33.811 67.8346 20.932 54.0706C7.07598 39.2756 8.02198 29.9646 9.07198 26.6486C9.46007 25.4407 10.1886 24.3705 11.17 23.5666L14.797 20.0716C14.8584 20.0111 14.9312 19.9634 15.0112 19.9314C15.0912 19.8993 15.1767 19.8835 15.2629 19.8848C15.3491 19.8861 15.4341 19.9045 15.5131 19.939C15.5921 19.9734 15.6634 20.0233 15.723 20.0856L24.879 29.6206L24.877 29.6316L25.318 30.0926C25.553 30.3356 25.613 30.7616 25.311 31.0536L20.539 35.6336L20.535 35.6356C17.73 38.3416 20.631 42.0816 22.187 44.0896C24.627 47.2496 27.747 50.4996 30.967 53.2426C34.344 56.1146 36.543 57.8336 38.65 57.6036C39.404 57.5176 40.09 57.1796 40.668 56.6176L45.541 52.0996C45.6469 51.9968 45.7842 51.9324 45.931 51.9166C46.0292 51.9049 46.1288 51.9166 46.2217 51.9509C46.3145 51.9851 46.3979 52.0409 46.465 52.1136L55.803 61.8376C55.8657 61.9016 55.9152 61.9773 55.9485 62.0604C55.9819 62.1436 55.9985 62.2325 55.9973 62.3221C55.9962 62.4117 55.9774 62.5001 55.942 62.5824C55.9066 62.6647 55.8553 62.7392 55.791 62.8016ZM53.275 50.3876C52.7202 49.8045 51.9593 49.4617 51.155 49.4326L45.992 49.4246C45.8786 49.4197 45.7651 49.422 45.652 49.4316C44.967 49.5093 44.326 49.808 43.826 50.2826L40.306 53.5486C39.381 52.8536 38.418 52.0446 37.589 51.3396C34.495 48.7056 31.505 45.5886 29.166 42.5596C26.949 39.6996 26.418 38.2626 27.271 37.4366C30.313 34.4496 32.075 32.7096 32.557 32.2176C33.281 31.4786 33.167 29.9276 32.55 28.9136L22.523 18.3486C21.939 17.7486 21.163 17.4286 20.346 17.4056C16.78 17.3986 14.964 17.3986 14.9 17.4056C14.2063 17.4849 13.5583 17.7915 13.057 18.2776L9.58698 21.6336C8.31698 22.8916 7.21298 24.2416 6.68998 25.8936C3.13998 37.1076 14.191 50.5296 19.107 55.7786C31.237 68.7406 40.49 71.1736 45.724 71.1736H50.724C51.368 71.1736 51.954 71.1366 52.474 71.0776C54.666 70.8306 56.574 70.0956 57.602 69.1076C58.524 68.3856 61.474 65.7266 62.728 64.3906C63.1906 63.8492 63.4592 63.1688 63.4911 62.4573C63.523 61.7459 63.3164 61.0442 62.904 60.4636L53.275 50.3876Z" fill="#534891"/>
</svg>
