<svg width="78" height="79" viewBox="0 0 78 79" fill="none" xmlns="http://www.w3.org/2000/svg">
<path fill-rule="evenodd" clip-rule="evenodd" d="M9.16761 62.1344C9.16761 60.1404 10.7956 58.5244 12.8036 58.5244C14.8116 58.5244 16.4396 60.1404 16.4396 62.1344C16.4396 64.1284 14.8116 65.7444 12.8036 65.7444C10.7956 65.7444 9.16761 64.1284 9.16761 62.1344ZM6.00061 69.2244H19.5056V32.6194H6.00061V69.2244Z" fill="#534891"/>
<path fill-rule="evenodd" clip-rule="evenodd" d="M65.5964 43.4971L56.8314 63.9581C56.1314 65.6381 54.4904 66.7241 52.6504 66.7241H23.2634H22.0054V33.1711C22.0054 31.9511 22.4714 30.8131 23.3204 29.9671L41.5494 11.7331L41.6614 11.8441L43.7354 13.8991C44.2994 14.4631 44.6274 15.2411 44.6404 16.0401L42.5504 34.4211H61.3484C65.0054 34.4211 65.8984 35.3141 65.8984 38.9721C65.8984 40.6901 65.7304 43.0831 65.5964 43.4971ZM65.1064 31.9211H61.3484H49.1114L50.8094 17.1281L50.8934 16.2051L50.8994 16.0921C50.8994 14.6161 50.3014 13.1721 49.2564 12.1271L46.7854 9.68008C46.3964 9.29408 45.8924 9.09908 45.3824 9.08008V9.07208H41.5924V9.07808C41.0374 9.06708 40.4804 9.26708 40.0604 9.68608L21.5534 28.1971C20.2324 29.5161 19.5054 31.2831 19.5054 33.1711V69.2241H24.5874H52.6504H56.4084C59.2594 69.2241 61.8054 67.5351 62.8924 64.9311L71.6664 44.4451C72.1274 43.2691 72.1564 39.0141 72.1564 38.9721C72.1564 33.9641 70.1134 31.9211 65.1064 31.9211Z" fill="#534891"/>
</svg>
