<svg width="78" height="79" viewBox="0 0 78 79" fill="none" xmlns="http://www.w3.org/2000/svg">
<path fill-rule="evenodd" clip-rule="evenodd" d="M33.6215 46.1126L25.7985 40.6966C25.6605 40.6006 25.4705 40.6356 25.3745 40.7736L23.4445 43.5626C23.3495 43.7016 23.3835 43.8906 23.5215 43.9866L34.6565 51.6946C34.7955 51.7896 34.9845 51.7556 35.0805 51.6166L51.5555 27.8196C51.6505 27.6806 51.6165 27.4906 51.4775 27.3956L48.6675 25.4506C48.5285 25.3556 48.3395 25.3896 48.2435 25.5286L34.0455 46.0356C33.9495 46.1746 33.7595 46.2086 33.6215 46.1126Z" fill="#534891"/>
<path fill-rule="evenodd" clip-rule="evenodd" d="M37.7109 67.9847C21.2969 67.9847 7.94287 54.6307 7.94287 38.2167C7.94287 21.8027 21.2969 8.44969 37.7109 8.44969C54.1239 8.44969 67.4779 21.8027 67.4779 38.2167C67.4779 54.6307 54.1239 67.9847 37.7109 67.9847ZM64.8799 20.8427C59.1389 11.8947 49.1089 5.94769 37.7109 5.94769C19.9189 5.94769 5.44287 20.4227 5.44287 38.2157C5.44287 45.3487 7.77387 51.9457 11.7089 57.2937C17.4489 66.2477 27.4819 72.1977 38.8849 72.1977C56.6769 72.1977 71.1519 57.7227 71.1519 39.9307C71.1519 32.7927 68.8179 26.1927 64.8799 20.8427Z" fill="#534891"/>
</svg>
