<svg width="78" height="79" viewBox="0 0 78 79" fill="none" xmlns="http://www.w3.org/2000/svg">
<path fill-rule="evenodd" clip-rule="evenodd" d="M58.6119 32.6656C58.6119 33.0786 58.2929 33.4136 57.8979 33.4136H36.2619C35.7679 33.4136 35.4229 32.9006 35.5899 32.4136L39.7979 18.1356C39.844 17.9932 39.9335 17.8689 40.0539 17.7799C40.1742 17.691 40.3193 17.6419 40.4689 17.6396H57.8999C58.2939 17.6396 58.6129 17.9746 58.6129 18.3876V32.6656H58.6119Z" fill="#534891"/>
<path fill-rule="evenodd" clip-rule="evenodd" d="M52.153 50.1086C52.1546 48.753 52.6938 47.4535 53.6523 46.4949C54.6109 45.5364 55.9105 44.9972 57.266 44.9956C58.6212 44.9977 59.9201 45.5372 60.8781 46.4957C61.836 47.4542 62.3747 48.7535 62.376 50.1086C62.3747 51.4636 61.836 52.7628 60.878 53.7212C59.92 54.6795 58.6211 55.2188 57.266 55.2206C55.9106 55.2193 54.611 54.6803 53.6524 53.7219C52.6939 52.7636 52.1546 51.4641 52.153 50.1086ZM49.653 50.1086C49.653 54.3056 53.069 57.7206 57.266 57.7206C61.463 57.7206 64.876 54.3056 64.876 50.1086C64.876 45.9106 61.463 42.4956 57.266 42.4956C53.069 42.4956 49.653 45.9106 49.653 50.1086ZM8.53003 54.4116C8.53082 55.0487 8.78425 55.6594 9.23473 56.1099C9.68521 56.5604 10.296 56.8138 10.933 56.8146C11.5697 56.8133 12.1798 56.5596 12.6297 56.1091C13.0796 55.6587 13.3325 55.0482 13.333 54.4116C13.3322 53.7752 13.0792 53.1651 12.6293 52.7151C12.1794 52.265 11.5694 52.0117 10.933 52.0106C10.2963 52.0111 9.68582 52.2642 9.2355 52.7144C8.78518 53.1645 8.53182 53.7749 8.53103 54.4116H8.53003Z" fill="#534891"/>
<path fill-rule="evenodd" clip-rule="evenodd" d="M46.012 50.2796C46.012 44.0746 51.06 39.0256 57.265 39.0256C63.47 39.0256 68.519 44.0756 68.519 50.2796C68.519 56.4846 63.469 61.5326 57.265 61.5326C51.06 61.5326 46.012 56.4846 46.012 50.2796ZM31.142 47.2696V31.2746L35.988 16.1726C36.2282 15.4168 36.7031 14.7573 37.3436 14.2898C37.9841 13.8223 38.757 13.571 39.55 13.5726H63.006V37.7926C61.2071 36.9572 59.2474 36.5248 57.264 36.5256C50.714 36.5256 45.231 41.1306 43.853 47.2696H31.142ZM19.767 53.2556C19.5934 52.0166 19.1592 50.8285 18.493 49.7696H43.537C43.532 49.9406 43.512 50.1076 43.512 50.2796C43.512 51.3036 43.642 52.2956 43.859 53.2556H19.767ZM4.5 54.4556C4.50185 52.7508 5.17989 51.1164 6.38535 49.9109C7.59081 48.7055 9.22523 48.0274 10.93 48.0256C12.6347 48.0277 14.269 48.7058 15.4744 49.9112C16.6798 51.1166 17.3579 52.7509 17.36 54.4556C17.3581 56.1604 16.6801 57.7948 15.4747 59.0002C14.2692 60.2057 12.6348 60.8837 10.93 60.8856C9.22523 60.8837 7.59081 60.2057 6.38535 59.0002C5.17989 57.7948 4.50185 56.1604 4.5 54.4556ZM7.164 39.5566C7.16393 38.7648 7.42518 37.9951 7.90722 37.367C8.38927 36.7388 9.06515 36.2874 9.83 36.0826L28.64 32.9466V47.2706H16.15C14.6336 46.1688 12.8074 45.5751 10.933 45.5746C9.62948 45.5755 8.34221 45.864 7.163 46.4196V39.5576L7.164 39.5566ZM70.091 15.7566C70.091 14.8916 69.559 14.1806 68.9 13.6446L65.453 11.0726H39.55C38.2271 11.0695 36.9377 11.4882 35.8688 12.2677C34.8 13.0472 34.0074 14.147 33.606 15.4076L28.801 30.3846L16.454 32.4426V25.1956C16.454 24.7978 16.296 24.4162 16.0147 24.1349C15.7334 23.8536 15.3518 23.6956 14.954 23.6956H10.481V26.6956H13.454V32.9426L9.364 33.6246L9.262 33.6466C7.94666 33.9788 6.77986 34.7407 5.94658 35.8112C5.1133 36.8818 4.66122 38.1999 4.662 39.5566V48.1516C3.81831 48.9807 3.14835 49.9696 2.69128 51.0606C2.23421 52.1516 1.99921 53.3227 2 54.5056C2 55.5086 2.174 56.4696 2.48 57.3706C3.723 61.9926 10.807 65.4726 15.468 65.4726C19.978 65.4726 23.711 62.1286 24.344 57.7906H45.696C49.016 62.6556 56.156 66.0676 61.801 66.0676C69.411 66.0676 75.603 59.8776 75.603 52.2656C75.603 47.7656 73.435 43.7686 70.091 41.2506V15.7566Z" fill="#534891"/>
</svg>
