<svg width="78" height="79" viewBox="0 0 78 79" fill="none" xmlns="http://www.w3.org/2000/svg">
<path fill-rule="evenodd" clip-rule="evenodd" d="M38 27.0726H64V24.0726H38V27.0726Z" fill="#534891"/>
<path fill-rule="evenodd" clip-rule="evenodd" d="M46 34.0726H63V31.0726H46V34.0726Z" fill="#534891"/>
<path fill-rule="evenodd" clip-rule="evenodd" d="M67.4564 54.8681H63.9247C63.3146 51.1037 60.0691 48.2196 56.1567 48.2196C52.2474 48.2196 49.0009 51.1037 48.3908 54.8681H33.0438V19.8894C33.0438 19.2123 33.5909 18.6608 34.264 18.6608H66.4148C66.9894 18.6608 67.4564 19.1316 67.4564 19.7086V54.8681ZM59.7412 60.1022C59.591 60.2411 59.4347 60.3749 59.2682 60.4964C59.1666 60.5689 59.0631 60.6353 58.9565 60.7006C58.7464 60.8344 58.5302 60.957 58.3017 61.0591C58.2358 61.0887 58.1677 61.1112 58.0997 61.1388C57.8287 61.247 57.5485 61.3389 57.2572 61.4012C57.2297 61.4084 57.1993 61.4104 57.1698 61.4166C56.842 61.4809 56.5049 61.5197 56.1567 61.5197C55.8095 61.5197 55.4725 61.4809 55.1446 61.4166C55.1162 61.4104 55.0857 61.4084 55.0563 61.4012C54.766 61.3389 54.4868 61.247 54.2158 61.1388C54.1488 61.1112 54.0787 61.0887 54.0137 61.0591C53.7853 60.957 53.5681 60.8334 53.358 60.7017C53.2524 60.6353 53.1488 60.5689 53.0483 60.4964C52.8818 60.3749 52.7245 60.2411 52.5732 60.1022C52.4677 60.0051 52.3661 59.9092 52.2687 59.805V59.804C51.3754 58.844 50.817 57.5623 50.817 56.1458C50.817 54.8314 51.3074 53.6416 52.088 52.7071C52.1459 52.6377 52.1987 52.5652 52.2585 52.4998C52.3875 52.3609 52.5265 52.2353 52.6687 52.1107C52.7722 52.0198 52.8758 51.9309 52.9864 51.8472C53.1174 51.7492 53.2524 51.6583 53.3925 51.5714C53.5356 51.4826 53.6858 51.4029 53.8381 51.3284C53.967 51.2651 54.0939 51.2017 54.229 51.1486C54.4198 51.0731 54.6188 51.0169 54.8218 50.9638C54.9335 50.9342 55.0421 50.8964 55.1578 50.8739C55.4806 50.8116 55.8116 50.7728 56.1527 50.7728C56.1547 50.7728 56.1557 50.7728 56.1567 50.7728C56.1588 50.7728 56.1598 50.7728 56.1618 50.7728C56.5029 50.7728 56.8348 50.8116 57.1577 50.8739C57.2734 50.8964 57.381 50.9342 57.4937 50.9638C57.6957 51.0169 57.8947 51.0731 58.0875 51.1486C58.2205 51.2017 58.3474 51.2651 58.4763 51.3284C58.6307 51.4029 58.7789 51.4826 58.924 51.5714C59.0631 51.6583 59.1981 51.7492 59.3291 51.8472C59.4407 51.9309 59.5433 52.0198 59.6478 52.1107C59.7889 52.2353 59.928 52.3609 60.0569 52.4998C60.1178 52.5662 60.1696 52.6377 60.2275 52.7071C61.0081 53.6426 61.4985 54.8314 61.4985 56.1458C61.4985 57.7165 60.8132 59.1187 59.7412 60.1022ZM30.5059 54.8692H27.2889C26.6788 51.1047 23.4333 48.2196 19.5209 48.2196C15.6106 48.2196 12.3641 51.1047 11.755 54.8692H9.12374C8.80093 54.8692 8.538 54.6046 8.538 54.2799V39.8258C8.538 39.3692 8.70753 38.9332 9.01715 38.5972L19.5981 27.0874C19.9371 26.7187 20.4183 26.5073 20.9178 26.5073H30.5059V54.8692ZM23.41 59.804V59.805C23.3135 59.9092 23.211 60.0051 23.1064 60.1012C22.9542 60.2411 22.7978 60.3749 22.6303 60.4974C22.5298 60.5699 22.4263 60.6353 22.3207 60.7017C22.1106 60.8344 21.8944 60.957 21.6659 61.0591C21.6 61.0887 21.5319 61.1122 21.4629 61.1388C21.1929 61.247 20.9127 61.3389 20.6213 61.4012C20.5929 61.4084 20.5635 61.4104 20.534 61.4166C20.2062 61.4809 19.8681 61.5197 19.5209 61.5197C19.1737 61.5197 18.8357 61.4809 18.5088 61.4166C18.4794 61.4104 18.4499 61.4084 18.4205 61.4012C18.1302 61.3389 17.851 61.247 17.5789 61.1388C17.5119 61.1122 17.4429 61.0887 17.3769 61.0591C17.1485 60.957 16.9323 60.8334 16.7222 60.7017C16.6176 60.6353 16.513 60.5699 16.4135 60.4974C16.2471 60.3749 16.0887 60.2421 15.9374 60.1022C15.8319 60.0051 15.7293 59.9092 15.6329 59.805C15.6329 59.804 15.6319 59.804 15.6319 59.804C14.7385 58.844 14.1812 57.5623 14.1812 56.1458C14.1812 55.7035 14.2492 55.2807 14.3497 54.8692C14.3497 54.8681 14.3508 54.8681 14.3508 54.8681C14.5487 54.0572 14.9335 53.328 15.4512 52.7081C15.509 52.6387 15.5618 52.5662 15.6217 52.4998C15.7507 52.3609 15.8897 52.2363 16.0308 52.1117C16.1354 52.0198 16.24 51.9309 16.3496 51.8472C16.4816 51.7492 16.6156 51.6583 16.7557 51.5725C16.8998 51.4826 17.049 51.4029 17.2023 51.3284C17.3312 51.2651 17.4581 51.2017 17.5921 51.1486C17.783 51.0731 17.984 51.0169 18.186 50.9638C18.2977 50.9342 18.4063 50.8964 18.521 50.8739C18.8438 50.8116 19.1748 50.7728 19.5169 50.7728C19.5179 50.7728 19.5199 50.7728 19.5209 50.7728C19.5219 50.7728 19.524 50.7728 19.525 50.7728C19.8671 50.7728 20.198 50.8116 20.5219 50.8739C20.6366 50.8964 20.7442 50.9342 20.8579 50.9638C21.0589 51.0169 21.2589 51.0731 21.4517 51.1486C21.5847 51.2017 21.7116 51.2651 21.8405 51.3284C21.9949 51.4029 22.1431 51.4826 22.2872 51.5714C22.4273 51.6583 22.5613 51.7492 22.6923 51.8472C22.8039 51.9309 22.9085 52.0198 23.012 52.1117C23.1531 52.2363 23.2922 52.3609 23.4201 52.4998C23.482 52.5662 23.5338 52.6387 23.5917 52.7081C24.1104 53.328 24.4952 54.0572 24.6931 54.8681V54.8692C24.7946 55.2807 24.8627 55.7035 24.8627 56.1458C24.8627 57.5623 24.3043 58.844 23.41 59.804ZM71.5718 20.3745C71.5728 20.3643 71.5749 20.3592 71.5769 20.35C71.5464 20.304 71.521 20.2714 71.4916 20.2275C71.4266 20.1192 71.3556 20.0181 71.2805 19.918C69.4461 17.2269 68.2797 16.6377 68.2797 16.6377L68.2868 16.655C67.7406 16.3149 67.1031 16.1086 66.4148 16.1086H34.264C32.192 16.1086 30.5059 17.805 30.5059 19.8894V23.9541H20.9178C19.7128 23.9541 18.5525 24.4647 17.7353 25.3543L7.15333 36.864C6.40923 37.6729 6.00012 38.7248 6.00012 39.8258V54.2799C6.00012 54.8896 6.18082 55.4523 6.48029 55.9343L6.47014 55.9333C6.47014 55.9333 7.35738 57.6031 9.02629 58.9492C9.18668 59.1003 9.3623 59.23 9.55112 59.3444C9.57447 59.3607 9.59579 59.3801 9.62015 59.3965C9.62827 59.3975 9.63436 59.3944 9.64249 59.3944C10.0922 59.6477 10.6028 59.804 11.154 59.804H12.5387C13.8554 62.3367 16.4887 64.0729 19.5209 64.0729C22.5542 64.0729 25.1875 62.3367 26.5042 59.804H33.9878H35.0741H49.1755C50.4922 62.3367 53.1255 64.0729 56.1567 64.0729C59.19 64.0729 61.8233 62.3367 63.14 59.804H70.5719C71.3728 59.804 72.0246 59.1493 72.0246 58.3435V22.0923C72.0246 21.4663 71.851 20.8872 71.5718 20.3745Z" fill="#534891"/>
</svg>
