<svg width="78" height="79" viewBox="0 0 78 79" fill="none" xmlns="http://www.w3.org/2000/svg">
<path fill-rule="evenodd" clip-rule="evenodd" d="M33.4631 72.2166C28.1031 72.1186 26.1611 67.2416 26.1631 63.9866V63.9796C26.1631 62.7756 27.1411 61.7986 28.3451 61.7996H28.3621C28.6485 61.7997 28.932 61.8563 29.1965 61.966C29.461 62.0757 29.7013 62.2365 29.9036 62.4391C30.106 62.6418 30.2664 62.8823 30.3758 63.1469C30.4852 63.4116 30.5414 63.6952 30.5411 63.9816C30.5501 64.6286 30.7371 67.7876 33.5411 67.8386C34.4701 67.8476 35.1511 67.6276 35.6511 67.1436C36.5871 66.2366 36.8131 64.5486 36.8201 63.9736V55.3926H41.1991V63.9886C41.1991 64.3826 41.1291 67.9016 38.7311 70.2556C36.7811 72.1696 34.6441 72.2386 33.4631 72.2156V72.2166Z" fill="#534891"/>
<path fill-rule="evenodd" clip-rule="evenodd" d="M61.249 34.7866C59.116 34.7866 57.179 35.2646 55.643 36.0726V36.0716H55.639C54.743 22.2376 49.016 14.4746 44.958 10.6596C44.9605 10.6593 44.963 10.66 44.965 10.6616L44.962 10.6596C45.6781 10.8514 46.3863 11.0716 47.085 11.3196C47.211 11.3646 47.331 11.4196 47.456 11.4666C48.02 11.6746 48.581 11.8906 49.131 12.1326C49.35 12.2286 49.561 12.3416 49.777 12.4426C50.223 12.6526 50.668 12.8596 51.103 13.0906C51.369 13.2306 51.627 13.3906 51.89 13.5406C52.26 13.7506 52.633 13.9586 52.994 14.1856C53.291 14.3716 53.578 14.5746 53.868 14.7706C54.18 14.9806 54.494 15.1866 54.799 15.4086C55.117 15.6406 55.424 15.8886 55.733 16.1326C55.993 16.3376 56.257 16.5386 56.511 16.7516C56.843 17.0316 57.163 17.3256 57.484 17.6196C57.697 17.8146 57.914 18.0056 58.123 18.2076C58.464 18.5356 58.791 18.8776 59.117 19.2216C59.289 19.4016 59.465 19.5816 59.633 19.7676C59.975 20.1446 60.302 20.5346 60.626 20.9276C60.762 21.0936 60.9 21.2566 61.033 21.4246C61.37 21.8506 61.692 22.2886 62.009 22.7326C62.112 22.8786 62.218 23.0226 62.319 23.1716C62.645 23.6456 62.954 24.1296 63.255 24.6206C63.333 24.7496 63.412 24.8766 63.489 25.0056C63.796 25.5236 64.086 26.0516 64.363 26.5876L64.535 26.9196C64.816 27.4776 65.08 28.0446 65.329 28.6196L65.453 28.9116C65.9939 30.1965 66.4486 31.5161 66.814 32.8616L66.879 33.1056C67.048 33.7496 67.198 34.3996 67.327 35.0576L67.35 35.1556L67.345 35.1546C67.433 35.6126 67.531 36.0676 67.6 36.5326C65.963 35.4486 63.726 34.7866 61.249 34.7866ZM45.535 34.7866C43.528 34.7866 41.701 35.2166 40.212 35.9396V35.9376C40.211 35.9376 40.209 35.9376 40.207 35.9396V10.2726C40.207 10.1966 40.178 10.1306 40.164 10.0586L40.17 10.0616L40.169 10.0586C40.877 10.4946 42.341 11.5016 44.042 13.2486L44.072 13.2806C44.4115 13.6311 44.7413 13.9909 45.061 14.3596L45.155 14.4696C45.298 14.6346 45.44 14.8056 45.584 14.9796L45.702 15.1276C45.8895 15.3584 46.0725 15.5927 46.251 15.8306C46.382 16.0046 46.513 16.1826 46.645 16.3656L46.798 16.5806C46.924 16.7596 47.05 16.9426 47.176 17.1296L47.341 17.3776C47.462 17.5626 47.584 17.7526 47.704 17.9466C47.762 18.0366 47.819 18.1286 47.876 18.2216C47.993 18.4136 48.11 18.6116 48.227 18.8116L48.402 19.1166C48.5771 19.4297 48.7488 19.7447 48.917 20.0616C49.027 20.2716 49.136 20.4906 49.244 20.7096C49.302 20.8266 49.359 20.9396 49.416 21.0576C49.522 21.2806 49.628 21.5106 49.732 21.7416C49.787 21.8636 49.844 21.9836 49.898 22.1086C50.002 22.3466 50.103 22.5906 50.204 22.8356C50.256 22.9616 50.309 23.0846 50.359 23.2126C50.461 23.4676 50.559 23.7296 50.656 23.9926C50.703 24.1196 50.752 24.2446 50.798 24.3726C50.897 24.6516 50.993 24.9386 51.089 25.2266C51.129 25.3466 51.171 25.4656 51.21 25.5886C51.311 25.9036 51.406 26.2276 51.501 26.5536C51.531 26.6576 51.563 26.7576 51.594 26.8626C51.702 27.2486 51.806 27.6446 51.906 28.0466L51.944 28.1936C52.282 29.5706 52.566 31.0396 52.783 32.6056C52.792 32.6656 52.799 32.7316 52.807 32.7926C52.868 33.2506 52.926 33.7146 52.976 34.1896C52.988 34.3016 52.996 34.4186 53.007 34.5316C53.045 34.9116 53.083 35.2896 53.112 35.6806L53.107 35.6786C53.156 36.3206 53.196 36.9736 53.222 37.6436C51.621 35.9176 48.812 34.7866 45.535 34.7866ZM37.712 10.2726V35.8206L37.707 35.8186V37.7806C37.697 37.7906 37.686 37.8006 37.676 37.8126C36.106 35.9876 33.206 34.7866 29.819 34.7866C27.718 34.7866 25.806 35.2506 24.281 36.0366V36.0356H24.276C25.384 16.5746 37.182 10.3206 37.709 10.0526C37.728 10.0416 37.741 10.0226 37.761 10.0116L37.76 10.0156L37.765 10.0116C37.746 10.0986 37.712 10.1806 37.712 10.2736V10.2726ZM21.812 35.7396L21.809 35.7376C21.772 36.3416 21.728 36.9366 21.713 37.5646C20.1 35.8846 17.33 34.7876 14.104 34.7876C13.861 34.7876 13.621 34.7976 13.382 34.8116C13.326 34.8146 13.27 34.8136 13.215 34.8166C12.335 34.8746 11.493 35.0166 10.706 35.2316V35.2306C9.628 35.5236 8.652 35.9506 7.826 36.4866C9.801 23.0506 20.41 12.0766 33.366 10.0366C33.032 10.3146 32.678 10.6306 32.315 10.9666C32.3174 10.9664 32.3198 10.9657 32.322 10.9646C28.239 14.7446 22.618 22.3386 21.812 35.7396ZM33.696 7.45956C18.17 9.53756 5.591 23.4486 5.03 39.8646C5.01603 40.2428 5.00603 40.6211 5 40.9996C5 41.6896 5.56 42.2496 6.25 42.2496H8.789C10.119 42.2496 10.143 41.4366 10.168 40.9136C10.243 39.3396 12.631 37.0286 15.857 37.4336C18.442 37.8656 20.46 39.2066 20.672 40.7386V41.1766C20.672 41.8666 21.257 42.4266 21.978 42.4266H24.227C25.511 42.4266 25.871 41.7366 25.871 40.9996C25.871 39.4186 28.52 37.0996 31.573 37.4346C34.306 37.8906 36.43 39.3596 36.43 40.9996C36.43 41.3516 36.711 42.3066 37.712 42.4116V55.3916H40.212V42.3956C41.114 42.2486 41.587 41.6356 41.587 41.0006C41.587 39.4196 44.177 36.9706 47.288 37.4356C49.78 37.8506 52.074 39.3756 52.076 40.5756V41.1776C52.076 41.8676 52.685 42.4276 53.437 42.4276H55.778C56.898 42.4276 57.302 41.5896 57.302 41.0006C57.302 39.4156 60.197 37.0846 63.031 37.4336C65.901 37.9006 67.85 39.4296 67.85 40.9176C67.895 42.0876 68.457 42.4276 69.241 42.4276H71.472C72.736 42.4276 73.102 41.7856 73.082 40.6576C72.908 23.5426 59.608 8.92356 43.382 7.23556C39.009 6.86656 36.948 7.08956 33.696 7.45956Z" fill="#534891"/>
</svg>
