<svg width="24" height="24" fill="none" xmlns="http://www.w3.org/2000/svg"><path d="M2 20h4v2H2l-.204-.01A2 2 0 0 1 .01 20.203L0 20v-4h2v4ZM24 20l-.01.204a2 2 0 0 1-1.786 1.785L22 22h-4v-2h4v-4h2v4Z" fill="#00F"/><path fill-rule="evenodd" clip-rule="evenodd" d="M16.206 8.005A4 4 0 0 1 16 16H8l-.206-.005A4 4 0 0 1 8 8h8l.206.005ZM8 10a2 2 0 1 0 0 4h8a2 2 0 1 0 0-4H8Z" fill="#00F"/><path d="M6 4H2v4H0V4a2 2 0 0 1 1.796-1.99L2 2h4v2ZM22.204 2.01A2 2 0 0 1 24 4v4h-2V4h-4V2h4l.204.01Z" fill="#00F"/></svg>