<svg width="24" height="24" viewBox="0 0 24 24" fill="none" xmlns="http://www.w3.org/2000/svg">
<path d="M10 10H4V12H10V10Z" fill="#0000FF"/>
<path d="M10 14H4V16H10V14Z" fill="#0000FF"/>
<path d="M4 18H10V20H4V18Z" fill="#0000FF"/>
<path d="M20 10H16V12H20V10Z" fill="#0000FF"/>
<path d="M16 14H20V16H16V14Z" fill="#0000FF"/>
<path d="M20 18H16V20H20V18Z" fill="#0000FF"/>
<path fill-rule="evenodd" clip-rule="evenodd" d="M14 6V0L0 4V24H24V6H14ZM2 22V5.5086L12 2.65146V22H2ZM14 22V8H22V22H14Z" fill="#0000FF"/>
</svg>
