<svg width="24" height="24" viewBox="0 0 24 24" fill="none" xmlns="http://www.w3.org/2000/svg">
<path fill-rule="evenodd" clip-rule="evenodd" d="M19.7773 2C20.3885 2 20.9125 2.21716 21.3477 2.65234C21.7828 3.08753 22 3.61155 22 4.22266V19.7773C22 20.3885 21.7828 20.9125 21.3477 21.3477C20.9125 21.7828 20.3885 22 19.7773 22H4.22266C3.61155 22 3.08753 21.7828 2.65234 21.3477C2.21716 20.9125 2 20.3885 2 19.7773V4.22266C2 3.61155 2.21716 3.08753 2.65234 2.65234C3.08753 2.21716 3.61155 2 4.22266 2H19.7773ZM4 4V20H8V4H4ZM10 20H20V4H10V20Z" fill="#1F1C4F"/>
</svg>
