<svg width="24" height="24" viewBox="0 0 24 24" fill="none" xmlns="http://www.w3.org/2000/svg">
<path fill-rule="evenodd" clip-rule="evenodd" d="M20 8C22.2091 8 24 9.79086 24 12C24 13.6409 23.0112 15.0491 21.5977 15.666L23 17L21.3721 18.7666L23 20L20.0156 24L18 22V15.5C17.8007 15.3671 17.6375 15.2425 17.5029 15.124C16.5871 14.391 16 13.2643 16 12C16 9.79086 17.7909 8 20 8ZM20 10C18.8954 10 18 10.8954 18 12C18 13.1046 18.8954 14 20 14C21.1046 14 22 13.1046 22 12C22 10.8954 21.1046 10 20 10Z" fill="#0000FF"/>
<path d="M9.29688 14.002L9.2998 14.0039C10.8561 14.0462 13.0562 14.4082 14.8545 15.0869C15.1655 15.6043 15.5527 16.0702 16 16.4707V22H0V18C0 15.426 5.61543 14.0877 8.7002 14.0039L8.70312 14.002C8.76132 14.001 8.81885 14 8.875 14H9.125C9.18115 14 9.23868 14.001 9.29688 14.002Z" fill="#0000FF"/>
<path d="M9 2C11.7625 2 14 4.2375 14 7C14 9.7625 11.7625 12 9 12C6.23751 12 4 9.7625 4 7C4 4.2375 6.23751 2.00001 9 2Z" fill="#0000FF"/>
</svg>
