<svg width="24" height="24" viewBox="0 0 24 24" fill="none" xmlns="http://www.w3.org/2000/svg">
<path d="M2 24V0H20C20.55 0 21.0208 0.195833 21.4125 0.5875C21.8042 0.979167 22 1.45 22 2V22C22 22.55 21.8042 23.0208 21.4125 23.4125C21.0208 23.8042 20.55 24 20 24H2ZM4 22H20V2H4V22Z" fill="#0000FF"/>
<path d="M18 20H6V18H18V20Z" fill="#0000FF"/>
<path fill-rule="evenodd" clip-rule="evenodd" d="M12 4C12.402 4 12.7949 4.03887 13.1748 4.11426C14.3059 4.33877 15.3213 4.8831 16.1265 5.64648C17.2797 6.73991 18 8.28538 18 10C18 11.7135 17.2798 13.2573 16.1279 14.3506C15.4004 15.0411 14.5018 15.5532 13.5 15.811C13.0206 15.9344 12.5179 16 12 16C11.4821 16 10.9794 15.9344 10.5 15.811C9.49857 15.5533 8.59948 15.0422 7.87207 14.3521C6.71974 13.2587 6 11.7139 6 10C6 8.30849 6.70058 6.78111 7.82666 5.69043C8.56179 4.9784 9.47786 4.45204 10.5 4.18896C10.9794 4.06557 11.4821 4 12 4ZM7.56299 10.75C7.83575 12.3755 8.98116 13.7002 10.5 14.2378C10.563 14.2155 10.6259 14.1939 10.6875 14.1689C9.80731 13.2586 9.21319 12.0716 9.04834 10.75H7.56299ZM14.9517 10.75C14.7868 12.0719 14.1916 13.2585 13.311 14.1689C13.3731 14.1941 13.4366 14.2154 13.5 14.2378C15.0188 13.7002 16.1643 12.3755 16.437 10.75H14.9517ZM10.563 10.75C10.7352 11.7765 11.2578 12.6815 12 13.3472C12.7422 12.6815 13.2648 11.7765 13.437 10.75H10.563ZM10.5 5.76074C8.98093 6.29825 7.83577 7.62432 7.56299 9.25H9.04834C9.21324 7.92804 9.80691 6.73999 10.6875 5.82959C10.6259 5.80463 10.563 5.78302 10.5 5.76074ZM12 6.65137C11.2574 7.31712 10.7353 8.22312 10.563 9.25H13.437C13.2647 8.22312 12.7426 7.31712 12 6.65137ZM13.311 5.82959C14.192 6.74009 14.7867 7.92768 14.9517 9.25H16.437C16.1642 7.62432 15.0191 6.29825 13.5 5.76074C13.4366 5.78317 13.3731 5.80444 13.311 5.82959Z" fill="#0000FF"/>
</svg>
