<svg xmlns="http://www.w3.org/2000/svg" width="24" height="24" fill="none">
<path d="m17.797 12.446 1.57-1.57c.407.96.633 2.016.633 3.124a7.983 7.983 0 0 1-.526 2.857 1 1 0 1 1-1.868-.714A5.984 5.984 0 0 0 18 14a6.01 6.01 0 0 0-.203-1.554ZM12 6c1.108 0 2.164.225 3.124.633l-1.57 1.57a6 6 0 0 0-7.16 7.94 1 1 0 1 1-1.868.714A8 8 0 0 1 12 6ZM17.293 7.293a1 1 0 1 1 1.414 1.414l-4.775 4.775a2 2 0 1 1-1.414-1.414l4.775-4.775Z" fill="#0000FF"/>
<path fill-rule="evenodd" d="M24 14c0 3.073-1.155 5.877-3.056 8H3.056A11.955 11.955 0 0 1 0 14C0 7.373 5.373 2 12 2s12 5.373 12 12Zm-2 0a9.947 9.947 0 0 1-2 6H4a9.948 9.948 0 0 1-2-6C2 8.477 6.477 4 12 4s10 4.477 10 10Z" clip-rule="evenodd" fill="#0000FF"/>
</svg>