<svg width="24" height="24" viewBox="0 0 24 24" fill="none" xmlns="http://www.w3.org/2000/svg">
<path d="M22 11.9999C22 16.8378 18.5645 20.8733 14 21.7999V19.7479C17.4505 18.8598 20 15.7276 20 11.9999C20 8.27224 17.4505 5.14004 14 4.25195V2.19995C18.5645 3.12649 22 7.162 22 11.9999Z" fill="#0000FF"/>
<path d="M14 16.5839V7.41602C15.7659 8.18757 17 9.94965 17 12C17 14.0503 15.7659 15.8124 14 16.5839Z" fill="#0000FF"/>
<path fill-rule="evenodd" clip-rule="evenodd" d="M7 16H2V8H7L12 3V21L7 16ZM4 14V10H7.82843L10 7.82843V16.1716L7.82843 14H4Z" fill="#0000FF"/>
</svg>
