<svg width="24" height="24" viewBox="0 0 24 24" fill="none" xmlns="http://www.w3.org/2000/svg">
<path fill-rule="evenodd" clip-rule="evenodd" d="M15.5366 15.5341C15.5365 15.5342 15.5368 15.5339 15.5366 15.5341L17.6574 17.6558C17.6576 17.6557 17.6573 17.656 17.6574 17.6558L19.0721 19.0696C19.072 19.0697 19.0723 19.0694 19.0721 19.0696L21.6242 21.6226L20.21 23.0368L17.5156 20.3424C16.4657 21.0379 15.2769 21.5406 13.9997 21.7999V19.7479C14.7342 19.5588 15.4278 19.2681 16.0648 18.8916L11.9997 14.8265V21L6.99966 16H1.99966V8H5.17319L1.22266 4.04947L2.63687 2.63525L15.5366 15.5341ZM7.17319 10H3.99966V14H7.82809L9.99966 16.1716V12.8265L7.17319 10Z" fill="#0000FF"/>
<path d="M13.9997 11.1687L16.6561 13.8251C16.8779 13.2597 16.9997 12.6441 16.9997 12C16.9997 9.94965 15.7656 8.18757 13.9997 7.41602V11.1687Z" fill="#0000FF"/>
<path d="M18.8931 16.0621L20.344 17.513C21.3903 15.9325 21.9997 14.0374 21.9997 11.9999C21.9997 7.162 18.5641 3.12649 13.9997 2.19995V4.25195C17.4501 5.14004 19.9997 8.27224 19.9997 11.9999C19.9997 13.4828 19.5962 14.8715 18.8931 16.0621Z" fill="#0000FF"/>
<path d="M8.91531 6.08435L11.9997 9.1687V3L8.91531 6.08435Z" fill="#0000FF"/>
</svg>
