<svg width="79" height="79" viewBox="0 0 79 79" fill="none" xmlns="http://www.w3.org/2000/svg">
<path fill-rule="evenodd" clip-rule="evenodd" d="M24.982 43.0713C24.592 43.5313 24.106 43.8483 23.53 44.0353V38.2193C24.229 38.4773 24.759 38.8093 25.099 39.2273C25.511 39.7323 25.716 40.3343 25.716 41.0313C25.716 41.8133 25.471 42.4913 24.982 43.0713ZM19.294 31.7883C18.9694 31.3404 18.7944 30.8015 18.794 30.2483C18.794 29.6443 18.976 29.0923 19.34 28.5923C19.665 28.1505 20.1085 27.8097 20.619 27.6093V32.8433C20.041 32.5633 19.594 32.2153 19.294 31.7883ZM28.186 36.3213C27.336 35.3103 25.779 34.4793 23.53 33.8203V27.8443C24.267 28.3193 24.75 29.0523 24.95 30.0773L28.904 29.5613C28.633 27.9993 28.009 26.7513 27.029 25.8193C26.144 24.9763 24.968 24.4493 23.529 24.2073V22.5763H20.619V24.1563C18.919 24.3633 17.542 25.0133 16.504 26.1323C15.424 27.2923 14.887 28.7283 14.887 30.4363C14.887 32.1243 15.363 33.5603 16.316 34.7413C17.239 35.8873 18.676 36.7473 20.619 37.3303V43.8303C20.132 43.5563 19.684 43.1603 19.278 42.6263C18.82 42.0213 18.507 41.3023 18.34 40.4693L14.26 40.9063C14.574 42.9593 15.293 44.5493 16.418 45.6743C17.502 46.7573 18.907 47.4093 20.618 47.6523V50.5323H23.53V47.5293C25.343 47.1893 26.78 46.4283 27.834 45.2363C28.974 43.9433 29.544 42.3553 29.544 40.4693C29.544 38.7813 29.091 37.3983 28.186 36.3213Z" fill="#00ADBD"/>
<path fill-rule="evenodd" clip-rule="evenodd" d="M37.045 29.5792H62.998V26.5792H37.045V29.5792Z" fill="#002F6C"/>
<path fill-rule="evenodd" clip-rule="evenodd" d="M37.045 38.6462H62.998V35.6462H37.045V38.6462Z" fill="#002F6C"/>
<path fill-rule="evenodd" clip-rule="evenodd" d="M37.045 47.7142H62.998V44.7142H37.045V47.7142Z" fill="#002F6C"/>
<path fill-rule="evenodd" clip-rule="evenodd" d="M69.43 55.3693C69.4292 55.9883 69.1829 56.5817 68.7452 57.0195C68.3075 57.4572 67.714 57.7035 67.095 57.7043H9.335C8.71596 57.7035 8.12251 57.4572 7.68478 57.0195C7.24706 56.5817 7.00079 55.9883 7 55.3693V18.8183C7.00079 18.1992 7.24706 17.6058 7.68478 17.168C8.12251 16.7303 8.71596 16.484 9.335 16.4833H67.095C67.714 16.484 68.3075 16.7303 68.7452 17.168C69.1829 17.6058 69.4292 18.1992 69.43 18.8183V55.3693ZM73.795 18.6313C73.025 17.6473 69.93 14.9133 69.273 14.5783C68.6004 14.2271 67.8537 14.0413 67.095 14.0363H9.335C8.05308 14.0376 6.82405 14.5474 5.9176 15.4539C5.01115 16.3603 4.50132 17.5893 4.5 18.8713V55.4223C4.5 56.1653 4.639 56.7333 4.888 57.3153C6.06 59.9643 9.278 61.9573 9.966 62.3353C10.656 62.7153 11.284 62.8383 12.125 62.8383H69.885C71.1671 62.8372 72.3964 62.3275 73.303 61.421C74.2097 60.5145 74.7197 59.2853 74.721 58.0033V21.4523C74.721 20.3973 74.564 19.6153 73.795 18.6313Z" fill="#002F6C"/>
</svg>
