<svg width="79" height="79" viewBox="0 0 79 79" fill="none" xmlns="http://www.w3.org/2000/svg">
<path fill-rule="evenodd" clip-rule="evenodd" d="M2.5 25.0613L4.52 27.2793L15.194 17.5603L13.174 15.3423L2.5 25.0613Z" fill="#00ADBD"/>
<path fill-rule="evenodd" clip-rule="evenodd" d="M12.673 26.4662L14.696 28.6812L21.629 22.3512L19.606 20.1362L12.673 26.4662Z" fill="#00ADBD"/>
<path fill-rule="evenodd" clip-rule="evenodd" d="M43.319 71.9773L45.346 74.1893L55.992 64.4393L53.965 62.2273L43.319 71.9773Z" fill="#00ADBD"/>
<path fill-rule="evenodd" clip-rule="evenodd" d="M44.788 63.9412L51.72 57.6122L49.697 55.3962L42.765 61.7252L44.788 63.9412Z" fill="#00ADBD"/>
<path fill-rule="evenodd" clip-rule="evenodd" d="M68.1466 13.1901L56.7406 23.2091C56.4346 23.4781 56.2786 23.8781 56.3226 24.2841L59.5926 54.2771L57.5426 56.0791L47.2976 33.6481C47.1326 33.2891 46.8086 33.0281 46.4216 32.9451C46.3346 32.9261 46.2476 32.9181 46.1606 32.9181C45.8596 32.9181 45.5656 33.0261 45.3346 33.2281L33.9296 43.2481C33.6516 43.4931 33.4956 43.8471 33.5046 44.2171L33.7316 53.4931L32.5836 54.5031L27.8106 44.0511C27.7086 43.8291 27.5426 43.6401 27.3346 43.5101L17.5866 37.4301L18.7356 36.4201L27.9046 37.8411C28.2716 37.8971 28.6426 37.7891 28.9206 37.5451L40.3266 27.5271C40.6236 27.2661 40.7796 26.8791 40.7476 26.4861C40.7156 26.0911 40.4986 25.7361 40.1636 25.5271L19.2406 12.4761L21.2906 10.6751L50.6126 17.7831C51.0086 17.8771 51.4256 17.7751 51.7316 17.5071L63.1376 7.48906C63.9026 6.81606 64.8726 6.47006 65.8966 6.54506C66.9096 6.60906 67.8356 7.06306 68.5046 7.82506C69.1726 8.58606 69.5036 9.56206 69.4376 10.5751C69.3696 11.5891 68.9116 12.5181 68.1466 13.1901ZM73.7536 8.85506C73.7456 8.84306 73.7476 8.83806 73.7386 8.82606C71.4326 5.78506 67.9566 4.46906 67.9566 4.46906V4.47206C67.3556 4.23806 66.7166 4.09206 66.0546 4.05006C64.3786 3.93806 62.7526 4.49906 61.4876 5.61006L50.5696 15.2001L21.2486 8.09206C20.8506 7.99806 20.4346 8.09906 20.1286 8.36806L16.3266 11.7081C16.0296 11.9691 15.8746 12.3551 15.9066 12.7491C15.9386 13.1431 16.1546 13.4991 16.4906 13.7081L35.2746 25.4241L37.3146 26.8451L27.7096 35.2821L18.5416 33.8611C18.1716 33.8031 17.8026 33.9131 17.5246 34.1571L14.6736 36.6621C14.3756 36.9231 14.2206 37.3091 14.2516 37.7031C14.2846 38.0971 14.5006 38.4531 14.8366 38.6621L25.6926 45.4321L31.0076 57.0711C31.0386 57.1381 31.0806 57.1991 31.1226 57.2591H31.1206C31.1206 57.2591 31.1276 57.2691 31.1316 57.2741C31.1506 57.3011 31.1696 57.3281 31.1916 57.3531C31.5546 57.8251 33.3426 60.0371 34.9436 60.0601C35.3286 60.1431 35.7326 60.0381 36.0296 59.7771L38.8806 57.2721C39.1586 57.0271 39.3146 56.6721 39.3056 56.3021L39.0786 47.0271L47.3426 39.7661L55.9666 58.6471C55.9926 58.7021 56.0276 58.7501 56.0596 58.8001L56.0566 58.8011L56.1046 58.8751C56.1116 58.8821 56.1166 58.8921 56.1236 58.9011C56.4316 59.3491 57.8146 61.1991 59.9016 61.6361C59.9886 61.6551 60.0766 61.6641 60.1636 61.6641C60.4646 61.6641 60.7586 61.5551 60.9886 61.3531L64.7906 58.0131C65.0966 57.7441 65.2516 57.3431 65.2086 56.9381L61.9386 26.9461L72.8556 17.3551C75.3416 15.1701 75.6966 11.4571 73.7536 8.85506Z" fill="#002F6C"/>
</svg>
