<svg width="79" height="79" viewBox="0 0 79 79" fill="none" xmlns="http://www.w3.org/2000/svg">
<path fill-rule="evenodd" clip-rule="evenodd" d="M38.768 68.0733C22.354 68.0733 9.00002 54.7193 9.00002 38.3063C9.00002 21.8933 22.354 8.53825 38.768 8.53825C55.181 8.53825 68.536 21.8913 68.536 38.3053C68.536 54.7193 55.18 68.0733 38.768 68.0733ZM65.937 20.9313C60.197 11.9833 50.166 6.03625 38.767 6.03625C20.977 6.03625 6.50002 20.5113 6.50002 38.3043C6.49325 45.1703 8.68955 51.8573 12.766 57.3823C18.506 66.3363 28.539 72.2863 39.943 72.2863C57.735 72.2863 72.209 57.8113 72.209 40.0193C72.2151 33.1493 70.0167 26.4587 65.937 20.9313Z" fill="#002F6C"/>
<path fill-rule="evenodd" clip-rule="evenodd" d="M56.6021 29.6313L49.0071 22.0363L46.8871 24.1573L51.9711 29.2433H21.8651V32.2433H51.9721L46.8861 37.3283L49.0071 39.4493L56.6011 31.8563C57.2151 31.2413 57.2151 30.2463 56.6021 29.6323V29.6313ZM56.6971 46.2313H26.5911L31.6761 41.1463L29.5541 39.0253L21.9611 46.6203C21.8149 46.7661 21.6989 46.9393 21.6198 47.1301C21.5406 47.3208 21.4999 47.5253 21.4999 47.7318C21.4999 47.9382 21.5406 48.1427 21.6198 48.3334C21.6989 48.5242 21.8149 48.6974 21.9611 48.8433L29.5541 56.4373L31.6761 54.3163L26.5911 49.2313H56.6971V46.2313Z" fill="#00ADBD"/>
</svg>
