<svg width="79" height="79" viewBox="0 0 79 79" fill="none" xmlns="http://www.w3.org/2000/svg">
<path fill-rule="evenodd" clip-rule="evenodd" d="M41.1362 46.5401C40.7872 46.9521 40.3512 47.2361 39.8372 47.4031V42.1951C40.4622 42.4261 40.9362 42.7251 41.2412 43.0981C41.6092 43.5511 41.7942 44.0891 41.7942 44.7141C41.7942 45.4131 41.5742 46.0211 41.1362 46.5401ZM36.0422 36.4361C35.7442 36.0131 35.5942 35.5531 35.5942 35.0581C35.5942 34.5171 35.7582 34.0221 36.0842 33.5741C36.3752 33.1761 36.7612 32.8861 37.2292 32.6941V37.3811C36.7112 37.1311 36.3112 36.8181 36.0422 36.4361ZM44.0052 40.4951C43.2442 39.5901 41.8492 38.8461 39.8372 38.2561V32.9041C40.4962 33.3291 40.9292 33.9861 41.1082 34.9041L44.6492 34.4421C44.4062 33.0431 43.8462 31.9261 42.9692 31.0911C42.1772 30.3371 41.1242 29.8651 39.8372 29.6471V28.1871H39.4292H37.4002H37.2292V29.6031C35.7072 29.7871 34.4742 30.3691 33.5442 31.3711C32.5782 32.4111 32.0962 33.6961 32.0962 35.2261C32.0962 36.7371 32.5232 38.0221 33.3762 39.0811C34.2022 40.1061 35.4902 40.8771 37.2292 41.3991V47.2201C36.7932 46.9751 36.3912 46.6201 36.0292 46.1421C35.6182 45.6001 35.3382 44.9561 35.1892 44.2101L31.5362 44.6021C31.8162 46.4391 32.4602 47.8621 33.4682 48.8701C34.4382 49.8411 35.6972 50.4251 37.2292 50.6431V53.2221H37.4002H39.4292H39.8372V50.5321C41.4592 50.2281 42.7462 49.5461 43.6902 48.4781C44.7112 47.3211 45.2222 45.8981 45.2222 44.2101C45.2222 42.6981 44.8172 41.4601 44.0052 40.4951Z" fill="#00ADBD"/>
<path fill-rule="evenodd" clip-rule="evenodd" d="M67.7153 27.8536C67.7153 28.4116 67.2623 28.8646 66.7053 28.8646H59.8163L59.2013 24.7686H62.5753C63.2653 24.7686 63.8253 24.2086 63.8253 23.5186V15.5396C63.8253 14.8486 63.2653 14.2896 62.5753 14.2896H14.9613C14.2713 14.2896 13.7113 14.8486 13.7113 15.5396V23.5186C13.7113 24.2086 14.2713 24.7686 14.9613 24.7686H17.5573L16.9433 28.8646H11.0103C10.4533 28.8646 10.0003 28.4116 10.0003 27.8536V11.5456C10.0003 10.9896 10.4533 10.5366 11.0103 10.5366H66.7053C67.2623 10.5366 67.7153 10.9896 67.7153 11.5456V27.8536ZM62.0103 60.3056H14.7493L21.0613 18.2736H55.6973L62.0103 60.3056ZM16.6323 66.3746L17.1683 62.8056H59.5903L60.1263 66.3746H16.6323ZM66.9733 8.03662L66.9883 8.06462C66.8933 8.05662 66.8023 8.03662 66.7053 8.03662H11.0103C9.0743 8.03662 7.50031 9.61062 7.50031 11.5456V27.8536C7.50031 27.8556 7.51631 33.9306 12.0473 33.9566C12.2153 33.9576 12.3633 33.9516 12.5013 33.9416C12.5503 33.9436 12.5963 33.9566 12.6463 33.9566H16.1783L12.0613 61.3706C12.0073 61.7296 12.1123 62.0956 12.3503 62.3716C12.5873 62.6476 12.9333 62.8056 13.2973 62.8056H14.6403L13.9443 67.4386C13.8903 67.7976 13.9963 68.1646 14.2333 68.4396C14.4703 68.7156 14.8173 68.8746 15.1803 68.8746H61.5783C61.9423 68.8746 62.2883 68.7156 62.5253 68.4396C62.7623 68.1646 62.8683 67.7976 62.8143 67.4386L62.1193 62.8056H63.4623C63.8253 62.8056 64.1723 62.6476 64.4093 62.3716C64.6463 62.0956 64.7523 61.7296 64.6983 61.3706L60.5813 33.9566H68.3413C70.2773 33.9566 71.8513 32.3816 71.8513 30.4466V14.1386C71.8513 8.03662 66.9733 8.03662 66.9733 8.03662Z" fill="#002F6C"/>
</svg>
