<svg width="79" height="79" viewBox="0 0 79 79" fill="none" xmlns="http://www.w3.org/2000/svg">
<path fill-rule="evenodd" clip-rule="evenodd" d="M9.00002 38.3053C9.00002 21.8913 22.354 8.53828 38.768 8.53828C55.181 8.53828 68.535 21.8913 68.535 38.3053C68.535 54.7193 55.18 68.0733 38.768 68.0733C22.354 68.0733 9.00002 54.7193 9.00002 38.3053ZM38.768 6.03528C20.976 6.03628 6.50002 20.5123 6.50002 38.3053C6.49325 45.1713 8.68955 51.8584 12.766 57.3833C18.506 66.3363 28.539 72.2863 39.942 72.2863C57.734 72.2863 72.209 57.8113 72.209 40.0193C72.2151 33.1493 70.0167 26.4587 65.937 20.9313C60.196 11.9833 50.166 6.03628 38.767 6.03628L38.768 6.03528Z" fill="#002F6C"/>
<path fill-rule="evenodd" clip-rule="evenodd" d="M55.431 38.3333L55.5 40.4133L54.003 44.2383L53.189 44.7083L51.421 48.6683L48.496 49.8763L47.748 49.0033L46.321 49.4733L43.531 47.5953L43.057 46.1193L41.423 45.7813L42.24 43.7043L40.812 45.5803L40.062 45.1123L39.382 43.2363L37.003 42.3623L32.856 43.2363L31.496 44.0393L31.02 44.9103L28.095 45.2453L26.802 46.4533L24.354 45.9833L24.628 43.7043L23.675 41.5553L21.772 38.8043L21.906 38.0673L21.569 37.0613L21.5 35.3153L21.906 34.5103L24.56 33.1003L28.64 30.2163L29.25 28.5393L30.34 28.4043L31.768 25.9893L32.651 25.7883L33.943 26.8613L35.167 26.9273L34.894 26.3263L37.071 23.3733L41.085 24.1773L41.763 23.9773L42.105 24.3773L40.609 26.7273L45.434 29.2773L46.252 27.1303L46.387 24.7133L47.407 23.0363L48.089 24.3123L48.426 26.6603L49.787 27.2643L50.332 31.0223L52.509 32.8323L52.915 34.5103L53.799 34.5783L55.431 38.3333ZM47.816 53.9703L47.339 52.4923L47.069 51.1513L48.291 51.6863L49.651 51.4183V53.0283L49.311 53.8333L48.902 53.5643L48.496 54.0363L47.816 53.9703Z" fill="#00ADBD"/>
</svg>
