<svg width="79" height="79" viewBox="0 0 79 79" fill="none" xmlns="http://www.w3.org/2000/svg">
<path fill-rule="evenodd" clip-rule="evenodd" d="M10.622 51.0363H23.744V30.3683H10.622V51.0363Z" fill="#00ADBD"/>
<path fill-rule="evenodd" clip-rule="evenodd" d="M47.219 47.0152C47.335 47.1316 47.4727 47.2239 47.6244 47.2869C47.7761 47.3499 47.9388 47.3823 48.103 47.3823C48.2673 47.3823 48.4299 47.3499 48.5816 47.2869C48.7333 47.2239 48.8711 47.1316 48.987 47.0152L54.756 41.2462C54.9838 41.0105 55.1099 40.6948 55.1071 40.3671C55.1044 40.0393 54.973 39.7258 54.7413 39.4939C54.5096 39.2621 54.1961 39.1306 53.8684 39.1276C53.5406 39.1247 53.2248 39.2506 52.989 39.4782L47.219 45.2472C47.1029 45.3633 47.0108 45.5011 46.948 45.6528C46.8851 45.8045 46.8528 45.967 46.8528 46.1312C46.8528 46.2954 46.8851 46.458 46.948 46.6096C47.0108 46.7613 47.1029 46.8991 47.219 47.0152ZM53.174 45.3992L50.052 48.5222C49.9327 48.6376 49.8375 48.7755 49.772 48.928C49.7065 49.0806 49.6721 49.2446 49.6707 49.4106C49.6693 49.5765 49.701 49.7411 49.7639 49.8947C49.8268 50.0483 49.9196 50.1879 50.037 50.3052C50.1544 50.4225 50.294 50.5153 50.4477 50.5781C50.6013 50.6409 50.7659 50.6725 50.9319 50.671C51.0979 50.6695 51.2619 50.635 51.4143 50.5695C51.5668 50.5039 51.7047 50.4086 51.82 50.2892L54.942 47.1672C55.0581 47.0511 55.1502 46.9133 55.213 46.7616C55.2758 46.61 55.3082 46.4474 55.3082 46.2832C55.3082 46.119 55.2758 45.9565 55.213 45.8048C55.1502 45.6531 55.0581 45.5153 54.942 45.3992C54.8259 45.2831 54.6881 45.191 54.5364 45.1282C54.3848 45.0654 54.2222 45.033 54.058 45.033C53.8938 45.033 53.7313 45.0654 53.5796 45.1282C53.4279 45.191 53.2901 45.2831 53.174 45.3992Z" fill="#002F6C"/>
<path fill-rule="evenodd" clip-rule="evenodd" d="M72.705 14.0363C73.396 14.0363 73.955 14.5963 73.955 15.2863V55.3373C73.9526 57.166 73.2251 58.9191 71.932 60.2122C70.6389 61.5054 68.8857 62.2329 67.057 62.2353H5.75C5.06 62.2353 4.5 61.6753 4.5 60.9853V24.4733C4.5 24.4363 4.518 24.4053 4.521 24.3683C4.518 24.3323 4.5 24.3003 4.5 24.2633V15.2863C4.5 14.5963 5.06 14.0363 5.75 14.0363H72.705ZM65.211 25.7233H7V59.7363H27.401V31.5803C27.401 30.8903 27.961 30.3303 28.651 30.3303H58.896C59.586 30.3303 60.146 30.8903 60.146 31.5803V59.7363H65.211V25.7233ZM57.646 32.8303H45.087V59.7363H57.646V32.8303ZM42.587 32.8303H29.901V59.7363H42.587V32.8303ZM65.211 16.5363H7V23.0143H65.211V16.5363Z" fill="#002F6C"/>
</svg>
