<svg width="79" height="79" viewBox="0 0 79 79" fill="none" xmlns="http://www.w3.org/2000/svg">
<path fill-rule="evenodd" clip-rule="evenodd" d="M58.9887 67.2094H48.7197C48.5557 67.2094 48.4237 67.0763 48.4237 66.9123V61.2304C48.4237 61.0664 48.5557 60.9333 48.7197 60.9333H58.9887C59.1527 60.9333 59.2847 61.0664 59.2847 61.2304V66.9123C59.2847 67.0763 59.1527 67.2094 58.9887 67.2094Z" fill="#00ADBD"/>
<path fill-rule="evenodd" clip-rule="evenodd" d="M9.371 70.163L10.771 61.103L10.794 60.972C11.255 58.314 13.069 56.029 15.646 54.858C17.27 54.122 20.338 52.721 23.28 51.334L32.883 60.938C33.275 61.33 33.91 61.33 34.302 60.938L37.753 57.486L41.212 60.945C41.6 61.332 42.228 61.332 42.617 60.945L52.184 51.376L52.52 51.533C55.273 52.806 58.051 54.055 59.57 54.734C62.154 55.889 63.981 58.164 64.459 60.825L65.933 70.002L9.371 70.163ZM31.071 46.219C31.657 45.163 31.979 43.985 32.129 42.825C33.803 43.959 35.7 44.677 37.838 44.677C39.802 44.677 41.542 44.124 43.081 43.223C43.346 44.767 43.89 46.051 44.685 47.061C44.685 47.061 45.035 47.478 45.776 48.044L37.753 56.067L29.546 47.859C30.674 46.917 31.071 46.219 31.071 46.219ZM25.104 27.36C38.366 23.97 42.905 13.778 42.905 13.778C44.96 19.202 48.373 23.144 50.514 25.247C50.485 26.514 50.266 27.772 49.86 28.978C48.379 33.387 44.579 42.177 37.838 42.177C30.465 42.177 26.137 30.507 25.104 27.36ZM69.721 60.077L69.691 59.906C69.035 56.189 66.517 53.012 62.955 51.408C60.3 50.212 53.524 47.994 50.11 46.257C48.484 45.43 47.37 44.363 46.663 43.4C51.528 44.772 54.675 44.385 56.099 42.233C58.665 38.354 58.999 31.847 57.099 22.712C55.695 12.371 47.748 4.03699 37.447 4.03699C27.146 4.03699 19.248 13.432 17.795 22.712C15.993 31.746 16.327 38.253 18.795 42.233C20.261 44.596 23.885 44.748 29.666 42.693C29.46 44.05 28.955 45.475 27.789 46.314C27.636 46.425 27.47 46.526 27.293 46.617C23.856 48.376 17.313 51.367 14.66 52.571C11.328 54.083 8.979 57.06 8.38 60.522L6.5 72.66L55.945 72.52H71.727L69.721 60.077Z" fill="#002F6C"/>
</svg>
