<svg width="79" height="79" viewBox="0 0 79 79" fill="none" xmlns="http://www.w3.org/2000/svg">
<path fill-rule="evenodd" clip-rule="evenodd" d="M21.8561 24.7633H13.272C13.0412 24.7633 12.8166 24.8388 12.6325 24.9781C12.4484 25.1174 12.3148 25.3131 12.252 25.5353L9.89605 33.9553C9.35188 35.9 9.07599 37.9099 9.07605 39.9293V43.8623C9.07605 44.7003 10.009 45.2123 10.708 44.7493C13.1311 43.1383 16.098 40.4473 22.564 40.1593C23.136 40.1343 23.594 39.6833 23.594 39.1113V25.8163C23.594 25.2323 23.121 24.7633 22.5371 24.7633" fill="#00ADBD"/>
<path fill-rule="evenodd" clip-rule="evenodd" d="M28.852 37.5663H37.424V27.3033H28.852V37.5663ZM39.924 37.5663H48.348V27.3033H39.924V37.5663ZM50.848 37.5663H59.207V27.3033H50.848V37.5663ZM68.515 51.6963C67.604 49.3023 65.291 47.5933 62.581 47.5933C59.871 47.5933 57.558 49.3033 56.647 51.6963H21.961C21.05 49.3023 18.738 47.5933 16.028 47.5933C13.318 47.5933 11.005 49.3033 10.094 51.6963H6V38.9823C6 36.2263 6.462 33.5103 7.375 30.9083L9.324 25.3483C9.7154 24.2346 10.4427 23.2699 11.4056 22.5871C12.3685 21.9043 13.5196 21.5372 14.7 21.5363H68.47C69.474 21.5363 70.291 22.3523 70.291 23.3563V24.8043H27.631L26.352 24.8343V38.7853L26.381 40.0653H70.291V51.6963H68.515ZM58.728 53.9463C58.7293 52.9248 59.1357 51.9455 59.858 51.2232C60.5803 50.5009 61.5595 50.0946 62.581 50.0933C63.6026 50.0943 64.582 50.5006 65.3043 51.2229C66.0267 51.9453 66.4329 52.9247 66.434 53.9463C66.4329 54.9679 66.0267 55.9474 65.3044 56.6699C64.5821 57.3924 63.6026 57.7989 62.581 57.8003C61.5594 57.7989 60.5799 57.3924 59.8576 56.6699C59.1353 55.9474 58.7291 54.9679 58.728 53.9463ZM12.175 53.9463C12.1761 52.9247 12.5823 51.9453 13.3047 51.2229C14.027 50.5006 15.0064 50.0943 16.028 50.0933C17.0495 50.0946 18.0287 50.5009 18.751 51.2232C19.4733 51.9455 19.8797 52.9248 19.881 53.9463C19.8799 54.9679 19.4737 55.9474 18.7514 56.6699C18.0291 57.3924 17.0496 57.7989 16.028 57.8003C15.0064 57.7989 14.0269 57.3924 13.3046 56.6699C12.5823 55.9474 12.1761 54.9679 12.175 53.9463ZM61.708 37.5663H70.291V27.3033H61.708V37.5663ZM67.471 19.0363H14.7C13.0015 19.0376 11.3452 19.5659 9.95959 20.5483C8.574 21.5307 7.52735 22.9189 6.964 24.5213L5.015 30.0813C4.01129 32.9415 3.49905 35.951 3.5 38.9823V53.8293H3.517C3.5262 53.9655 3.56901 54.0974 3.6416 54.2131C3.71419 54.3288 3.81431 54.4247 3.933 54.4923L6.444 55.9153C6.709 56.0663 7.01 56.1453 7.315 56.1453H10.075C10.972 58.5673 13.298 60.3003 16.028 60.3003C18.757 60.3003 21.083 58.5673 21.98 56.1453H56.628C57.526 58.5673 59.852 60.3003 62.581 60.3003C65.311 60.3003 67.636 58.5673 68.534 56.1453H75.731C75.7846 56.1454 75.8377 56.1349 75.8873 56.1145C75.9369 56.094 75.9819 56.064 76.0198 56.026C76.0577 55.9881 76.0878 55.9431 76.1082 55.8935C76.1287 55.844 76.1391 55.7909 76.139 55.7373V25.3063C76.139 23.0323 71.898 19.4773 69.44 19.1563C68.7854 19.0917 68.1286 19.0517 67.471 19.0363Z" fill="#002F6C"/>
</svg>
