<svg width="79" height="79" viewBox="0 0 79 79" fill="none" xmlns="http://www.w3.org/2000/svg">
<path fill-rule="evenodd" clip-rule="evenodd" d="M32.7896 38.1438H26.2016C26.0346 38.1438 25.8996 38.0088 25.8996 37.8418V31.4338C25.8996 31.2678 26.0346 31.1318 26.2016 31.1318H32.7896C32.9566 31.1318 33.0916 31.2678 33.0916 31.4338V37.8418C33.0916 38.0088 32.9566 38.1438 32.7896 38.1438ZM44.5454 38.1438H37.9574C37.7904 38.1438 37.6554 38.0088 37.6554 37.8418V31.4338C37.6554 31.2678 37.7904 31.1318 37.9574 31.1318H44.5454C44.7124 31.1318 44.8474 31.2678 44.8474 31.4338V37.8418C44.8474 38.0088 44.7124 38.1438 44.5454 38.1438ZM56.3013 38.1438H49.7133C49.5473 38.1438 49.4113 38.0088 49.4113 37.8418V31.4338C49.4113 31.2678 49.5473 31.1318 49.7133 31.1318H56.3013C56.4683 31.1318 56.6033 31.2678 56.6033 31.4338V37.8418C56.6033 38.0088 56.4683 38.1438 56.3013 38.1438ZM21.0332 49.5706H14.4452C14.2792 49.5706 14.1432 49.4356 14.1432 49.2686V42.8606C14.1432 42.6946 14.2792 42.5586 14.4452 42.5586H21.0332C21.2002 42.5586 21.3352 42.6946 21.3352 42.8606V49.2686C21.3352 49.4356 21.2002 49.5706 21.0332 49.5706ZM32.7896 49.5706H26.2016C26.0346 49.5706 25.8996 49.4356 25.8996 49.2686V42.8606C25.8996 42.6946 26.0346 42.5586 26.2016 42.5586H32.7896C32.9566 42.5586 33.0916 42.6946 33.0916 42.8606V49.2686C33.0916 49.4356 32.9566 49.5706 32.7896 49.5706ZM44.5454 49.5706H37.9574C37.7904 49.5706 37.6554 49.4356 37.6554 49.2686V42.8606C37.6554 42.6946 37.7904 42.5586 37.9574 42.5586H44.5454C44.7124 42.5586 44.8474 42.6946 44.8474 42.8606V49.2686C44.8474 49.4356 44.7124 49.5706 44.5454 49.5706ZM56.3013 49.5706H49.7133C49.5473 49.5706 49.4113 49.4356 49.4113 49.2686V42.8606C49.4113 42.6946 49.5473 42.5586 49.7133 42.5586H56.3013C56.4683 42.5586 56.6033 42.6946 56.6033 42.8606V49.2686C56.6033 49.4356 56.4683 49.5706 56.3013 49.5706ZM21.0332 60.7176H14.4452C14.2792 60.7176 14.1432 60.5826 14.1432 60.4156V54.0076C14.1432 53.8416 14.2792 53.7056 14.4452 53.7056H21.0332C21.2002 53.7056 21.3352 53.8416 21.3352 54.0076V60.4156C21.3352 60.5826 21.2002 60.7176 21.0332 60.7176ZM32.7896 60.7176H26.2016C26.0346 60.7176 25.8996 60.5826 25.8996 60.4156V54.0076C25.8996 53.8416 26.0346 53.7056 26.2016 53.7056H32.7896C32.9566 53.7056 33.0916 53.8416 33.0916 54.0076V60.4156C33.0916 60.5826 32.9566 60.7176 32.7896 60.7176Z" fill="#00ADBD"/>
<path fill-rule="evenodd" clip-rule="evenodd" d="M61.6548 65.7084V65.7164H12.5888C10.6098 65.7164 8.99982 64.1074 8.99982 62.1284V26.1334H61.6548V60.9654C61.6798 64.4074 62.6378 65.7084 64.6338 65.7084H61.6548ZM8.99982 16.8334H13.3098V19.0544C13.3098 20.2994 14.3188 21.3094 15.5638 21.3094C16.8098 21.3094 17.8188 20.2994 17.8188 19.0544V16.8334H53.0078V19.0544C53.0078 20.2994 54.0168 21.3094 55.2618 21.3094C56.5068 21.3094 57.5168 20.2994 57.5168 19.0544V16.8334H61.6548V23.6334H8.99982V16.8334ZM64.1548 56.3304V14.3334H57.5168V12.2914C57.5168 11.0454 56.5068 10.0364 55.2618 10.0364C54.0168 10.0364 53.0078 11.0454 53.0078 12.2914V14.3334H17.8188V12.2914C17.8188 11.0454 16.8098 10.0364 15.5638 10.0364C14.3188 10.0364 13.3098 11.0454 13.3098 12.2914V14.3334H6.49982V62.1284C6.49982 65.4854 9.23182 68.2164 12.5888 68.2164H64.1548V68.2064H68.2998C71.1558 68.2064 73.4708 65.8914 73.4708 63.0354V56.3304H64.1548Z" fill="#002F6C"/>
</svg>
