<svg width="79" height="79" viewBox="0 0 79 79" fill="none" xmlns="http://www.w3.org/2000/svg">
<path fill-rule="evenodd" clip-rule="evenodd" d="M6.999 54.3184H68.43V20.5364H6.999V54.3184ZM73.893 22.8514L73.895 22.8354C73.895 21.6324 70.83 18.0354 68.75 18.0354H6.68C5.478 18.0354 4.5 19.0144 4.5 20.2164V54.7794C4.5 55.8354 6.948 59.3564 9.126 59.7764C9.26 59.8034 9.398 59.8184 9.54 59.8184H71.89C73.015 59.8184 73.93 58.9034 73.93 57.7794V23.2164C73.93 23.0914 73.914 22.9704 73.893 22.8514Z" fill="#002F6C"/>
<path fill-rule="evenodd" clip-rule="evenodd" d="M11.6311 43.4714C16.2171 43.4714 17.1801 46.5694 17.1801 49.1674C17.1801 49.8584 17.7401 50.4174 18.4301 50.4174H31.5671C30.6851 49.7184 29.8801 48.8804 29.1701 47.9174H19.6141C19.1861 44.0124 16.7181 41.4894 12.8891 41.0424L12.9401 33.8664C16.7771 33.4244 19.2521 30.9004 19.6801 26.9894H29.1341C29.8361 26.0294 30.6311 25.1904 31.5031 24.4894H18.4971C17.8061 24.4894 17.2471 25.0484 17.2471 25.7394C17.2471 28.3374 16.2841 31.4354 11.6981 31.4354C11.0111 31.4354 10.4531 31.9904 10.4481 32.6764L10.3811 42.2124C10.3791 42.5454 10.5091 42.8664 10.7441 43.1024C10.9791 43.3384 11.2981 43.4714 11.6311 43.4714ZM55.6902 47.9176H46.3452C45.6362 48.8806 44.8312 49.7186 43.9482 50.4176H56.8742C57.5642 50.4176 58.1242 49.8576 58.1242 49.1676C58.1242 46.5686 59.0862 43.4716 63.6732 43.4716C64.3602 43.4716 64.9182 42.9166 64.9232 42.2306L64.9892 32.6936C64.9922 32.3606 64.8612 32.0406 64.6262 31.8046C64.3922 31.5676 64.0722 31.4356 63.7392 31.4356C59.1532 31.4356 58.1902 28.3376 58.1902 25.7386C58.1902 25.0486 57.6312 24.4886 56.9402 24.4886H44.0122C44.8852 25.1896 45.6802 26.0286 46.3812 26.9886H55.7572C56.1852 30.8946 58.6532 33.4176 62.4812 33.8636L62.4312 41.0406C58.5932 41.4816 56.1182 44.0066 55.6902 47.9176Z" fill="#002F6C"/>
<path fill-rule="evenodd" clip-rule="evenodd" d="M40.4719 43.2887C40.1229 43.7007 39.6869 43.9847 39.1719 44.1517V38.9437C39.7979 39.1747 40.2719 39.4727 40.5759 39.8467C40.9449 40.2987 41.1299 40.8377 41.1299 41.4627C41.1299 42.1617 40.9099 42.7697 40.4719 43.2887ZM35.3779 33.1847C35.0789 32.7617 34.9299 32.3017 34.9299 31.8067C34.9299 31.2657 35.0939 30.7707 35.4199 30.3227C35.7109 29.9247 36.0969 29.6347 36.5649 29.4427V34.1297C36.0469 33.8797 35.6469 33.5667 35.3779 33.1847ZM43.3409 37.2437C42.5799 36.3387 41.1849 35.5937 39.1719 35.0047V29.6527C39.8309 30.0777 40.2649 30.7347 40.4439 31.6527L43.9839 31.1907C43.7419 29.7917 43.1819 28.6747 42.3049 27.8397C41.5129 27.0857 40.4599 26.6137 39.1719 26.3957V24.9347H38.7649H36.7359H36.5649V26.3517C35.0429 26.5357 33.8089 27.1177 32.8799 28.1197C31.9139 29.1597 31.4319 30.4447 31.4319 31.9747C31.4319 33.4857 31.8579 34.7707 32.7119 35.8297C33.5379 36.8547 34.8259 37.6257 36.5649 38.1477V43.9687C36.1289 43.7237 35.7269 43.3687 35.3639 42.8907C34.9539 42.3487 34.6739 41.7047 34.5249 40.9587L30.8719 41.3507C31.1519 43.1877 31.7959 44.6107 32.8039 45.6187C33.7739 46.5887 35.0329 47.1737 36.5649 47.3917V49.9707H36.7359H38.7649H39.1719V47.2807C40.7949 46.9767 42.0819 46.2947 43.0259 45.2267C44.0469 44.0697 44.5579 42.6467 44.5579 40.9587C44.5579 39.4467 44.1519 38.2087 43.3409 37.2437Z" fill="#00ADBD"/>
</svg>
