<svg width="79" height="79" viewBox="0 0 79 79" fill="none" xmlns="http://www.w3.org/2000/svg">
<path fill-rule="evenodd" clip-rule="evenodd" d="M56.725 51.2543C53.093 52.2083 48.833 48.1453 47.24 42.1973C45.986 37.5193 45.245 32.9303 44.8 29.3993H57.417C58.815 33.0573 59.865 36.1833 60.545 38.7213C61.541 42.4373 61.254 46.1733 59.776 48.7173C58.998 50.0573 57.943 50.9343 56.726 51.2543H56.725ZM44.25 24.0973L54.218 21.4983C54.9801 23.29 55.7215 25.0905 56.442 26.8993H44.512C44.4152 25.9662 44.3278 25.0322 44.25 24.0973ZM67.536 68.8973C65.756 69.3713 64.624 69.0383 64.098 68.7933L59.863 52.9833C61.66 52.4583 63.18 51.2083 64.263 49.3443C66.069 46.2383 66.45 41.7893 65.286 37.4443C64.114 33.0723 61.911 27.0823 58.738 19.6403C58.578 19.2663 58.474 19.0243 58.444 18.9423L58.041 17.8933L41.528 22.2363L41.676 23.3333C41.688 23.4253 41.706 23.6513 41.734 23.9933C41.952 26.6133 42.612 34.5813 44.825 42.8383C46.585 49.4023 51.119 53.8883 55.647 53.8883C56.086 53.8883 56.525 53.8303 56.962 53.7433L61.202 69.5693C60.87 70.0453 60.059 70.9003 58.28 71.3773C58.0896 71.4281 57.9111 71.5158 57.7546 71.6356C57.5981 71.7554 57.4667 71.9048 57.3679 72.0753C57.2692 72.2458 57.205 72.4341 57.179 72.6295C57.153 72.8248 57.1658 73.0234 57.2165 73.2138C57.2673 73.4042 57.355 73.5828 57.4748 73.7393C57.5946 73.8958 57.744 74.0272 57.9145 74.1259C58.0851 74.2247 58.2734 74.2889 58.4687 74.3148C58.6641 74.3408 58.8626 74.3281 59.053 74.2773L68.313 71.7953C68.6973 71.6924 69.025 71.4411 69.224 71.0965C69.423 70.752 69.4769 70.3426 69.374 69.9583C69.2711 69.574 69.0198 69.2463 68.6753 69.0474C68.3308 68.8484 67.9213 68.7944 67.537 68.8973H67.536ZM31.392 26.8993H19.242C20.0714 24.8677 20.9527 22.8577 21.885 20.8713L31.815 23.6053C31.6803 24.7041 31.539 25.8022 31.391 26.8993H31.392ZM28.683 41.6833C27.689 45.3993 25.572 48.4913 23.02 49.9563C21.677 50.7263 20.323 50.9593 19.11 50.6263C15.483 49.6343 13.83 43.9883 15.422 38.0423C16.159 35.2923 17.108 32.4023 18.252 29.3993H31.042C30.303 34.4623 29.515 38.5853 28.683 41.6833ZM20.457 17.9033L20.035 18.9233C20 19.0093 19.905 19.2083 19.764 19.5093C16.754 25.8823 14.482 31.8993 13.008 37.3953C11.08 44.5953 13.303 51.2843 18.067 52.9033L13.825 68.7323C13.303 68.9763 12.175 69.3113 10.4 68.8393L10.389 68.8363C10.1988 68.7854 10.0004 68.7724 9.80518 68.7981C9.60994 68.8238 9.42168 68.8877 9.25114 68.9862C9.08061 69.0847 8.93114 69.2158 8.81127 69.372C8.6914 69.5283 8.60348 69.7066 8.55253 69.8968C8.50158 70.087 8.48859 70.2854 8.51431 70.4807C8.54003 70.6759 8.60395 70.8642 8.70243 71.0347C8.80091 71.2052 8.93201 71.3547 9.08825 71.4746C9.24449 71.5944 9.42281 71.6824 9.61303 71.7333H9.61703L18.86 74.2123C18.9906 74.2485 19.1255 74.2666 19.261 74.2663C19.6256 74.267 19.9779 74.135 20.2522 73.8948C20.5264 73.6547 20.7038 73.3229 20.7512 72.9614C20.7987 72.6 20.7128 72.2336 20.5098 71.9309C20.3068 71.6281 20.0004 71.4096 19.648 71.3163L19.638 71.3143C17.866 70.8373 17.055 69.9843 16.722 69.5103L20.959 53.6983C21.4821 53.8289 22.0189 53.896 22.558 53.8983C23.892 53.8983 25.259 53.5113 26.59 52.7483C29.706 50.9603 32.262 47.2983 33.426 42.9543C34.596 38.5863 35.684 32.2993 36.657 24.2663C36.706 23.8603 36.737 23.5983 36.751 23.5113L36.928 22.4013L20.458 17.9033H20.457Z" fill="#002F6C"/>
<path fill-rule="evenodd" clip-rule="evenodd" d="M37.712 16.0673H40.212V4.03625H37.712V16.0673Z" fill="#00ADBD"/>
<path fill-rule="evenodd" clip-rule="evenodd" d="M24.5681 7.83922L31.9611 17.3312L33.9331 15.7962L26.5411 6.30322L24.5681 7.83922Z" fill="#00ADBD"/>
<path fill-rule="evenodd" clip-rule="evenodd" d="M53.357 7.83922L45.964 17.3312L43.992 15.7962L51.384 6.30322L53.357 7.83922Z" fill="#00ADBD"/>
</svg>
