<svg width="79" height="79" viewBox="0 0 79 79" fill="none" xmlns="http://www.w3.org/2000/svg">
<path fill-rule="evenodd" clip-rule="evenodd" d="M12.65 19.0673H43.864V16.0673H12.65V19.0673Z" fill="#00ADBD"/>
<path fill-rule="evenodd" clip-rule="evenodd" d="M12.65 26.0463H43.864V23.0463H12.65V26.0463Z" fill="#00ADBD"/>
<path fill-rule="evenodd" clip-rule="evenodd" d="M12.65 33.0243H33.526V30.0243H12.65V33.0243Z" fill="#00ADBD"/>
<path fill-rule="evenodd" clip-rule="evenodd" d="M71.7813 26.4835H59.0752C58.4582 26.4835 57.9572 26.9835 57.9572 27.6015V44.7025C57.9572 45.3205 57.4562 45.8205 56.8392 45.8205H30.0513C29.4323 45.8205 28.9323 46.3215 28.9323 46.9395V48.1845V56.2725C28.9323 56.7815 29.3442 57.1945 29.8542 57.1945L50.7663 57.1885C50.9463 57.1825 62.6862 56.8085 67.7733 61.6495C69.5553 63.3465 70.5202 65.4545 70.7082 68.0735C70.7432 68.5695 71.1353 68.9625 71.6343 68.9605H71.6822C72.1902 68.9575 72.5992 68.5455 72.5992 68.0385V27.3015C72.5992 26.8495 72.2333 26.4835 71.7813 26.4835Z" fill="#002F6C"/>
<path fill-rule="evenodd" clip-rule="evenodd" d="M10.7139 44.546C9.44588 45.753 8.54688 47.134 7.99988 48.722V11.536H49.1669V39.747L28.6239 39.741C28.1169 39.72 16.1279 39.395 10.7139 44.546ZM49.4949 42.247C49.4979 42.247 49.5009 42.246 49.5049 42.246L52.4949 42.247C53.6929 42.247 54.6669 41.273 54.6669 40.075V11.105C54.6669 9.96401 53.7389 9.03601 52.5989 9.03601H49.5989H10.5679H7.56788C6.42788 9.03601 5.49988 9.96401 5.49988 11.104V51.841C5.49988 53.012 6.43888 53.969 7.64888 54.007V54.01H7.68488C7.69288 54.01 7.69988 54.013 7.70788 54.013H7.72088C7.72988 54.013 7.73688 54.01 7.74488 54.01H10.6849C10.6929 54.01 10.6999 54.013 10.7079 54.013H10.7209C10.7299 54.013 10.7369 54.01 10.7449 54.01H10.7959V54.005C11.8979 53.966 12.8089 53.089 12.8889 51.965C13.0529 49.668 13.8869 47.834 15.4379 46.357C19.1519 42.822 27.0889 42.303 30.2459 42.241L49.4949 42.247Z" fill="#002F6C"/>
</svg>
