<svg width="79" height="79" viewBox="0 0 79 79" fill="none" xmlns="http://www.w3.org/2000/svg">
<path fill-rule="evenodd" clip-rule="evenodd" d="M38.768 68.0734C22.354 68.0734 9 54.7194 9 38.3044C9 21.8914 22.354 8.53838 38.768 8.53838C55.181 8.53838 68.535 21.8914 68.535 38.3044C68.535 54.7194 55.181 68.0734 38.768 68.0734ZM65.937 20.9304C60.196 11.9834 50.166 6.03638 38.768 6.03638C20.976 6.03638 6.5 20.5104 6.5 38.3034C6.5 45.4374 8.831 52.0344 12.766 57.3824C18.506 66.3364 28.539 72.2864 39.942 72.2864C57.734 72.2864 72.209 57.8114 72.209 40.0194C72.209 32.8814 69.875 26.2814 65.937 20.9304Z" fill="#002F6C"/>
<path fill-rule="evenodd" clip-rule="evenodd" d="M40.3571 18.9413H37.3571V38.8833H38.8571L37.7721 39.9203L53.9401 56.8503L56.1101 54.7783L40.3571 38.2823V18.9413Z" fill="#002F6C"/>
<path fill-rule="evenodd" clip-rule="evenodd" d="M38.8568 34.3937C36.3768 34.3937 34.3658 36.4037 34.3658 38.8837C34.3658 41.3647 36.3768 43.3737 38.8568 43.3737C41.3368 43.3737 43.3478 41.3647 43.3478 38.8837C43.3478 36.4037 41.3368 34.3937 38.8568 34.3937Z" fill="#00ADBD"/>
</svg>
