<svg width="79" height="79" viewBox="0 0 79 79" fill="none" xmlns="http://www.w3.org/2000/svg">
<path fill-rule="evenodd" clip-rule="evenodd" d="M53.327 52.0363H20.663L19.5 39.0363H54.5L53.327 52.0363Z" fill="#00ADBD"/>
<path fill-rule="evenodd" clip-rule="evenodd" d="M14.094 22.4023H59.894V18.4943H14.094V22.4023ZM51.504 71.4603H22.484L18.42 24.9783H55.568L51.505 71.4603H51.504ZM19.012 9.04326L55.102 12.7183L56.291 15.9183H17.377L19.011 9.04326H19.012ZM62.502 15.9193L59.242 11.1263C59.1331 10.9687 58.9906 10.8373 58.8247 10.7415C58.6589 10.6457 58.4739 10.5879 58.283 10.5723L58.287 10.5683L56.171 10.2933L18.145 6.42126C17.8322 6.38608 17.5173 6.46695 17.2602 6.64851C17.003 6.83008 16.8215 7.09971 16.75 7.40626L14.724 15.9193H12.798C12.082 15.9193 11.501 16.4953 11.501 17.2073V23.6903C11.501 24.4013 12.082 24.9783 12.798 24.9783H15.816L20 72.8593C20.058 73.5253 20.62 74.0363 21.293 74.0363H52.692C55.443 74.0363 58.044 71.2343 58.272 68.4483L62.094 24.9783H65.114C65.83 24.9783 66.411 24.4013 66.411 23.6903V17.2073C66.411 16.4953 65.83 15.9193 65.114 15.9193H62.5H62.502Z" fill="#002F6C"/>
</svg>
