<svg width="79" height="79" viewBox="0 0 79 79" fill="none" xmlns="http://www.w3.org/2000/svg">
<path fill-rule="evenodd" clip-rule="evenodd" d="M37.514 35.3122C37.7557 35.0705 38.0426 34.8788 38.3584 34.748C38.6742 34.6172 39.0126 34.5498 39.3545 34.5498C39.6963 34.5498 40.0347 34.6172 40.3505 34.748C40.6663 34.8788 40.9533 35.0705 41.195 35.3122C41.4367 35.5539 41.6284 35.8408 41.7592 36.1566C41.89 36.4724 41.9573 36.8109 41.9573 37.1527C41.9573 37.4945 41.89 37.833 41.7592 38.1488C41.6284 38.4646 41.4367 38.7515 41.195 38.9932L44.072 41.8712C44.093 41.8512 44.119 41.8352 44.133 41.8112L54.597 22.3092C54.6269 22.2533 54.638 22.1893 54.6287 22.1266C54.6194 22.0638 54.5902 22.0058 54.5453 21.961C54.5004 21.9162 54.4423 21.8871 54.3795 21.878C54.3168 21.8688 54.2528 21.8801 54.197 21.9102L34.697 32.3742C34.671 32.3872 34.657 32.4142 34.637 32.4342L37.514 35.3122Z" fill="#00ADBD"/>
<path fill-rule="evenodd" clip-rule="evenodd" d="M38.768 68.0733C22.354 68.0733 9 54.7193 9 38.3053C9 21.8913 22.354 8.53825 38.768 8.53825C55.181 8.53825 68.535 21.8913 68.535 38.3053C68.535 54.7193 55.181 68.0733 38.768 68.0733ZM65.938 20.9313C60.195 11.9833 50.165 6.03625 38.767 6.03625C20.976 6.03625 6.5 20.5113 6.5 38.3043C6.5 45.4373 8.831 52.0343 12.766 57.3823C18.506 66.3363 28.54 72.2863 39.942 72.2863C57.734 72.2863 72.209 57.8113 72.209 40.0193C72.2151 33.1493 70.0167 26.4587 65.937 20.9313" fill="#002F6C"/>
<path fill-rule="evenodd" clip-rule="evenodd" d="M41.106 14.3112C41.1125 13.9899 41.0548 13.6705 40.9363 13.3717C40.8177 13.0729 40.6408 12.8008 40.4158 12.5713C40.1908 12.3418 39.9223 12.1594 39.6259 12.035C39.3296 11.9106 39.0114 11.8465 38.69 11.8466C38.3686 11.8466 38.0504 11.9108 37.7541 12.0354C37.4578 12.16 37.1894 12.3424 36.9645 12.572C36.7396 12.8016 36.5628 13.0738 36.4444 13.3726C36.326 13.6714 36.2684 13.9909 36.275 14.3122C36.2879 14.9443 36.548 15.5462 36.9996 15.9887C37.4512 16.4312 38.0583 16.6791 38.6905 16.6791C39.3228 16.6791 39.9298 16.4312 40.3814 15.9887C40.833 15.5462 41.0931 14.9443 41.106 14.3122V14.3112ZM38.69 59.4322C38.3687 59.4257 38.0492 59.4833 37.7505 59.6018C37.4517 59.7202 37.1795 59.8971 36.95 60.122C36.7204 60.347 36.538 60.6155 36.4135 60.9118C36.289 61.2081 36.2249 61.5263 36.2249 61.8477C36.2249 62.1691 36.289 62.4873 36.4135 62.7836C36.538 63.0799 36.7204 63.3484 36.95 63.5734C37.1795 63.7983 37.4517 63.9752 37.7505 64.0936C38.0492 64.2121 38.3687 64.2697 38.69 64.2632C39.3185 64.2451 39.9151 63.9827 40.3533 63.5318C40.7914 63.0809 41.0365 62.4769 41.0365 61.8482C41.0365 61.2195 40.7914 60.6155 40.3533 60.1646C39.9151 59.7137 39.3185 59.4513 38.69 59.4332V59.4322ZM62.553 35.8902C61.9125 35.8902 61.2982 36.1446 60.8453 36.5975C60.3924 37.0504 60.138 37.6647 60.138 38.3052C60.138 38.9457 60.3924 39.56 60.8453 40.0129C61.2982 40.4658 61.9125 40.7202 62.553 40.7202C63.1935 40.7202 63.8078 40.4658 64.2607 40.0129C64.7136 39.56 64.968 38.9457 64.968 38.3052C64.968 37.6647 64.7136 37.0504 64.2607 36.5975C63.8078 36.1446 63.1935 35.8902 62.553 35.8902ZM14.774 35.8902C14.1335 35.8902 13.5192 36.1446 13.0663 36.5975C12.6134 37.0504 12.359 37.6647 12.359 38.3052C12.359 38.9457 12.6134 39.56 13.0663 40.0129C13.5192 40.4658 14.1335 40.7202 14.774 40.7202C15.4145 40.7202 16.0288 40.4658 16.4817 40.0129C16.9346 39.56 17.189 38.9457 17.189 38.3052C17.189 37.6647 16.9346 37.0504 16.4817 36.5975C16.0288 36.1446 15.4145 35.8902 14.774 35.8902ZM37.514 38.9932C37.0262 38.5049 36.7521 37.8429 36.7521 37.1527C36.7521 36.4625 37.0262 35.8005 37.514 35.3122L34.636 32.4342C34.616 32.4542 34.59 32.4702 34.576 32.4942L24.112 51.9942C24.0817 52.0501 24.0702 52.1143 24.0793 52.1773C24.0885 52.2402 24.1177 52.2986 24.1627 52.3435C24.2077 52.3885 24.266 52.4178 24.3289 52.4269C24.3919 52.436 24.4561 52.4246 24.512 52.3942L44.012 41.9312C44.037 41.9172 44.052 41.8902 44.073 41.8712L41.195 38.9932C40.7068 39.4808 40.045 39.7546 39.355 39.7546C38.665 39.7546 38.0032 39.4808 37.515 38.9932" fill="#002F6C"/>
</svg>
