<svg width="79" height="79" viewBox="0 0 79 79" fill="none" xmlns="http://www.w3.org/2000/svg">
<path fill-rule="evenodd" clip-rule="evenodd" d="M38.768 68.0733C22.354 68.0733 9 54.7193 9 38.3053C9 21.8913 22.354 8.53825 38.768 8.53825C55.181 8.53825 68.535 21.8913 68.535 38.3053C68.535 54.7193 55.181 68.0733 38.768 68.0733ZM65.937 20.9313C60.196 11.9833 50.166 6.03625 38.768 6.03625C20.976 6.03625 6.5 20.5113 6.5 38.3043C6.5 45.4373 8.831 52.0343 12.766 57.3833C18.506 66.3363 28.539 72.2863 39.942 72.2863C57.734 72.2863 72.209 57.8113 72.209 40.0193C72.2151 33.1493 70.0167 26.4587 65.937 20.9313Z" fill="#002F6C"/>
<path d="M44.204 41.0663C48.705 41.0663 52.406 44.3263 52.542 48.3483L52.546 48.5763V51.8293C52.546 52.4893 51.981 53.0023 51.296 53.0613L51.166 53.0663H26.84C26.146 53.0663 25.617 52.5943 25.553 51.9583L25.547 51.8293V48.5763C25.547 44.5263 29.164 41.1923 33.634 41.0703L33.888 41.0663H44.205H44.204ZM39.046 21.0663C37.9297 21.0662 36.8244 21.2859 35.793 21.713C34.7617 22.1402 33.8246 22.7663 33.0353 23.5556C32.246 24.3449 31.6199 25.282 31.1928 26.3133C30.7656 27.3446 30.5459 28.45 30.546 29.5663C30.546 31.9323 31.518 34.1453 33.202 35.7393C34.21 36.6934 35.4363 37.3863 36.7738 37.7572C38.1113 38.1281 39.5193 38.1658 40.8748 37.8671C42.2302 37.5683 43.4919 36.9422 44.5496 36.0434C45.6072 35.1446 46.4287 34.0004 46.9422 32.7109C47.4557 31.4214 47.6456 30.0258 47.4953 28.646C47.345 27.2662 46.8592 25.9441 46.0801 24.7954C45.3011 23.6467 44.2526 22.7062 43.0262 22.0561C41.7999 21.4061 40.433 21.0662 39.045 21.0663H39.046Z" fill="#00ADBD"/>
</svg>
