<svg width="79" height="79" viewBox="0 0 79 79" fill="none" xmlns="http://www.w3.org/2000/svg">
<path fill-rule="evenodd" clip-rule="evenodd" d="M16.155 20.0353H47.817V17.0353H16.155V20.0353Z" fill="#00ADBD"/>
<path fill-rule="evenodd" clip-rule="evenodd" d="M16.155 28.3342H47.817V25.3342H16.155V28.3342Z" fill="#00ADBD"/>
<path fill-rule="evenodd" clip-rule="evenodd" d="M16.155 36.6302H36.182V33.6302H16.155V36.6302Z" fill="#00ADBD"/>
<path fill-rule="evenodd" clip-rule="evenodd" d="M42.056 57.2763L35.852 51.0733L61.674 25.2523L67.878 31.4553L42.056 57.2763ZM35.593 59.3203L33.702 57.4283L34.879 53.6353L39.452 58.2083L35.592 59.3203H35.593ZM13.588 68.4693C12.6368 68.4679 11.725 68.0895 11.0524 67.4169C10.3798 66.7443 10.0013 65.8324 10 64.8813V9.61526H53.972V29.3413L33.685 49.6283C33.445 49.8703 33.264 50.1683 33.16 50.4953L29.03 63.7913L42.564 59.8903C42.887 59.7873 43.184 59.6063 43.426 59.3643L53.972 48.8183V63.3543C54.125 66.4903 55.155 67.7743 56.952 68.4693H13.588ZM69.862 32.9293C70.675 32.1163 70.692 30.8123 69.902 30.0223L63.03 23.1493C62.8345 22.9559 62.6014 22.8046 62.3451 22.7049C62.0888 22.6051 61.8148 22.559 61.54 22.5693C61.0057 22.5887 60.4989 22.8111 60.123 23.1913L56.472 26.8413V7.03625H7.5V64.8033C7.50185 66.4173 8.14386 67.9648 9.28518 69.1061C10.4265 70.2474 11.9739 70.8894 13.588 70.8913H56.472L60.618 70.8813C61.7445 70.8807 62.8247 70.433 63.6212 69.6365C64.4177 68.8399 64.8655 67.7597 64.866 66.6333V56.5153H56.472V46.3193L69.862 32.9293Z" fill="#002F6C"/>
</svg>
