<svg width="79" height="79" viewBox="0 0 79 79" fill="none" xmlns="http://www.w3.org/2000/svg">
<path d="M56.5127 42.0664C60.8477 42.0664 64.4115 45.3258 64.542 49.3481L64.5457 49.5766V52.8295C64.5457 53.4884 64.0016 54.0027 63.3425 54.0609L63.2177 54.0664H39.7907C39.1229 54.0664 38.613 53.5941 38.5519 52.9587L38.5457 52.8295V49.5766C38.5457 45.5265 42.0291 42.192 46.3332 42.0699L46.5777 42.0664H56.5127ZM51.5459 23.0664C47.1268 23.0664 43.5459 26.6473 43.5459 31.0664C43.5459 33.2934 44.461 35.3754 46.0462 36.8765C47.5217 38.2736 49.4721 39.0664 51.5459 39.0664C55.9641 39.0664 59.5459 35.4845 59.5459 31.0664C59.5459 26.6476 55.9644 23.0664 51.5459 23.0664Z" fill="#00ADBD"/>
<path fill-rule="evenodd" clip-rule="evenodd" d="M13.08 26.8132H35.522V23.8132H13.08V26.8132Z" fill="#002F6C"/>
<path fill-rule="evenodd" clip-rule="evenodd" d="M13.08 34.2052H35.522V31.2052H13.08V34.2052Z" fill="#002F6C"/>
<path fill-rule="evenodd" clip-rule="evenodd" d="M13.08 41.5973H35.522V38.5973H13.08V41.5973Z" fill="#002F6C"/>
<path fill-rule="evenodd" clip-rule="evenodd" d="M69.4297 56.3693C69.4297 57.6573 68.3817 58.7043 67.0947 58.7043H9.33469C8.04769 58.7043 6.99969 57.6573 6.99969 56.3693V19.8183C6.99969 18.5313 8.04769 17.4833 9.33469 17.4833H67.0947C68.3817 17.4833 69.4297 18.5313 69.4297 19.8183V56.3693ZM73.7947 19.6313C72.0487 17.0713 69.2837 15.5493 69.2837 15.5493C69.2837 15.5493 69.2767 15.5693 69.2727 15.5783C68.6157 15.2433 67.8817 15.0363 67.0947 15.0363H9.33469C6.66869 15.0363 4.49969 17.2053 4.49969 19.8713V56.4223C4.49969 57.0943 4.63869 57.7333 4.88769 58.3153C4.91669 58.5083 5.02869 58.7663 5.27169 59.1273C7.01569 61.7083 9.80669 63.2433 9.80669 63.2433C9.80669 63.2433 9.8127 63.2283 9.81469 63.2243C10.5037 63.6033 11.2837 63.8383 12.1247 63.8383H69.8847C72.5517 63.8383 74.7207 61.6693 74.7207 59.0033V22.4523C74.7207 21.3973 74.3707 20.4273 73.7947 19.6313Z" fill="#002F6C"/>
</svg>
