<svg width="79" height="79" viewBox="0 0 79 79" fill="none" xmlns="http://www.w3.org/2000/svg">
<path fill-rule="evenodd" clip-rule="evenodd" d="M63.14 22.6202C57.55 22.2002 49.61 22.3362 43.02 25.2692V22.2692C49.61 19.3362 57.55 19.2002 63.14 19.6202V22.6202ZM63.14 31.5032C57.55 31.0822 49.61 31.2182 43.02 34.1522V31.1522C49.61 28.2182 57.55 28.0822 63.14 28.5022V31.5022V31.5032ZM63.14 40.3862C57.55 39.9662 49.61 40.1012 43.02 43.0342V40.0342C49.61 37.1012 57.55 36.9652 63.14 37.3852V40.3852V40.3862ZM63.14 49.2672C57.55 48.8472 49.61 48.9832 43.02 51.9162V48.9162C49.61 45.9832 57.55 45.8472 63.14 46.2672V49.2672Z" fill="#00ADBD"/>
<path fill-rule="evenodd" clip-rule="evenodd" d="M68.053 56.2052C63.33 55.3952 48.795 53.5982 38.765 59.7872V19.5432C48.2 12.6092 63.975 14.7832 68.053 15.4932V56.2062V56.2052ZM36.265 59.7862C30.546 56.2592 23.367 55.3262 17.376 55.3262C13.8914 55.332 10.4132 55.626 6.977 56.2052V15.4922C11.053 14.7802 26.828 12.6072 36.265 19.5422V59.7862ZM70.77 13.7452C70.621 13.5592 70.424 13.3452 69.584 13.1622C68.744 12.9782 49.304 8.9422 37.521 17.3702C25.74 8.9552 6.323 13.0632 5.483 13.2462L4.5 13.4602V58.7802L4.513 58.7822C4.516 59.0522 4.595 59.3152 4.761 59.5302L6.391 61.6412C6.684 62.0212 7.172 62.2002 7.642 62.0982L8.388 61.9352C8.582 61.8922 27.856 57.8152 38.693 65.8212C38.967 66.0262 39.376 66.1312 39.618 66.1312C39.86 66.1312 40.098 66.1312 40.329 66.1242C40.562 66.1172 40.889 66.0012 41.129 65.8242C51.97 57.8192 71.237 61.8942 71.431 61.9372L72.948 62.2672V16.8962C72.948 16.6092 72.85 16.3322 72.671 16.1092L70.771 13.7452H70.77Z" fill="#002F6C"/>
</svg>
