<svg width="79" height="79" viewBox="0 0 79 79" fill="none" xmlns="http://www.w3.org/2000/svg">
<path fill-rule="evenodd" clip-rule="evenodd" d="M55.9406 6.53674C57.2616 6.53674 58.3356 7.58374 58.3356 8.87174V65.3597C58.3356 66.6477 57.2616 67.6947 55.9406 67.6947H55.8756V6.53674H55.9406ZM26.2214 63.0062C26.9114 63.0062 27.4714 63.5662 27.4714 64.2562C27.4714 64.9462 26.9114 65.5062 26.2214 65.5062H19.7764C19.0864 65.5062 18.5264 64.9462 18.5264 64.2562C18.5264 63.5662 19.0864 63.0062 19.7764 63.0062H26.2214ZM37.7761 63.0062C38.4661 63.0062 39.0261 63.5662 39.0261 64.2562C39.0261 64.9462 38.4661 65.5062 37.7761 65.5062H31.3311C30.6411 65.5062 30.0811 64.9462 30.0811 64.2562C30.0811 63.5662 30.6411 63.0062 31.3311 63.0062H37.7761ZM49.3312 63.0062C50.0212 63.0062 50.5812 63.5662 50.5812 64.2562C50.5812 64.9462 50.0212 65.5062 49.3312 65.5062H42.8862C42.1962 65.5062 41.6362 64.9462 41.6362 64.2562C41.6362 63.5662 42.1962 63.0062 42.8862 63.0062H49.3312ZM26.2214 58.3553C26.9114 58.3553 27.4714 58.9153 27.4714 59.6053C27.4714 60.2953 26.9114 60.8553 26.2214 60.8553H19.7764C19.0864 60.8553 18.5264 60.2953 18.5264 59.6053C18.5264 58.9153 19.0864 58.3553 19.7764 58.3553H26.2214ZM37.7761 58.3553C38.4661 58.3553 39.0261 58.9153 39.0261 59.6053C39.0261 60.2953 38.4661 60.8553 37.7761 60.8553H31.3311C30.6411 60.8553 30.0811 60.2953 30.0811 59.6053C30.0811 58.9153 30.6411 58.3553 31.3311 58.3553H37.7761ZM49.3312 58.3553C50.0212 58.3553 50.5812 58.9153 50.5812 59.6053C50.5812 60.2953 50.0212 60.8553 49.3312 60.8553H42.8862C42.1962 60.8553 41.6362 60.2953 41.6362 59.6053C41.6362 58.9153 42.1962 58.3553 42.8862 58.3553H49.3312ZM26.2214 53.7039C26.9114 53.7039 27.4714 54.2639 27.4714 54.9539C27.4714 55.6439 26.9114 56.2039 26.2214 56.2039H19.7764C19.0864 56.2039 18.5264 55.6439 18.5264 54.9539C18.5264 54.2639 19.0864 53.7039 19.7764 53.7039H26.2214ZM37.7761 53.7039C38.4661 53.7039 39.0261 54.2639 39.0261 54.9539C39.0261 55.6439 38.4661 56.2039 37.7761 56.2039H31.3311C30.6411 56.2039 30.0811 55.6439 30.0811 54.9539C30.0811 54.2639 30.6411 53.7039 31.3311 53.7039H37.7761ZM49.3312 53.7039C50.0212 53.7039 50.5812 54.2639 50.5812 54.9539C50.5812 55.6439 50.0212 56.2039 49.3312 56.2039H42.8862C42.1962 56.2039 41.6362 55.6439 41.6362 54.9539C41.6362 54.2639 42.1962 53.7039 42.8862 53.7039H49.3312ZM49.031 9.08524C49.886 9.08524 50.581 9.79624 50.581 10.6712V49.6882C50.581 50.5622 49.886 51.2742 49.031 51.2742H20.076C19.221 51.2742 18.527 50.5622 18.527 49.6882V10.6712C18.527 9.79624 19.221 9.08524 20.076 9.08524H49.031ZM48.081 11.5862H21.026V48.7742H48.081V11.5862ZM18.4586 67.6947C17.1386 67.6947 16.0636 66.6477 16.0636 65.3597V8.87174C16.0636 7.58374 17.1386 6.53674 18.4586 6.53674H53.3756V67.6947H18.4586ZM62.9836 9.41674C62.9896 9.41374 63.0076 9.40674 63.0076 9.40674C63.0076 9.40674 62.9086 9.23174 62.7186 8.94074C62.7056 8.92174 62.6936 8.90274 62.6806 8.88374C62.0916 7.99374 60.7306 6.15274 58.7866 4.87174C58.4536 4.65274 58.1996 4.53274 58.0076 4.48974C57.3766 4.20574 56.6806 4.03674 55.9406 4.03674H18.4586C15.7246 4.03674 13.5006 6.20574 13.5006 8.87174V65.3597C13.5006 66.1297 13.7016 66.8467 14.0306 67.4927L14.0256 67.4947C14.0256 67.4947 14.0606 67.5557 14.1216 67.6557C14.2406 67.8687 14.3706 68.0727 14.5206 68.2647C15.1736 69.2117 16.4526 70.8357 18.2126 72.0057C19.0286 72.5817 20.0226 72.9307 21.1056 72.9307H58.5876C61.3226 72.9307 63.5466 70.7617 63.5466 68.0957V11.6067C63.5466 10.8147 63.3316 10.0767 62.9836 9.41674Z" fill="#002F6C"/>
<path fill-rule="evenodd" clip-rule="evenodd" d="M28.8039 30.6208C32.0419 27.3348 37.3479 27.3348 40.6109 30.6208L42.3149 28.9168C38.1029 24.7058 31.2869 24.7058 27.0999 28.9168L28.8039 30.6208Z" fill="#00ADBD"/>
<path fill-rule="evenodd" clip-rule="evenodd" d="M25.4449 27.2129C30.5569 22.0999 38.8579 22.0999 43.9699 27.2129L45.6739 25.5579C39.5879 19.4959 29.8259 19.4959 23.7649 25.5579L25.4449 27.2129ZM32.2119 33.9559C33.5749 32.5189 35.8879 32.5189 37.2759 33.9559L38.9549 32.2519C36.5939 29.9389 32.8209 29.9389 30.5079 32.2519L32.2119 33.9559ZM34.7199 35.0519C33.7699 35.0519 32.9669 35.8309 32.9669 36.8049C32.9669 37.7289 33.7699 38.5089 34.7199 38.5089C35.6689 38.5089 36.4479 37.7049 36.4479 36.8049C36.4479 35.8309 35.6689 35.0519 34.7199 35.0519Z" fill="#00ADBD"/>
</svg>
