<svg width="79" height="79" viewBox="0 0 79 79" fill="none" xmlns="http://www.w3.org/2000/svg">
<path fill-rule="evenodd" clip-rule="evenodd" d="M33.5814 34.7751C33.5814 35.7781 33.7844 36.5151 34.1914 36.9891C34.5974 37.4631 35.1014 37.7001 35.7014 37.7001C36.1504 37.7001 36.5734 37.5891 36.9684 37.3681C37.2684 37.2111 37.5634 36.9621 37.8554 36.6231C38.2744 36.1401 38.6354 35.4381 38.9394 34.5141C39.2434 33.5901 39.3954 32.7301 39.3954 31.9331C39.3954 31.0411 39.1884 30.3561 38.7734 29.8791C38.3594 29.4011 37.8364 29.1621 37.2054 29.1621C36.5254 29.1621 35.8984 29.4241 35.3224 29.9501C34.7454 30.4741 34.3114 31.2221 34.0194 32.1941C33.7274 33.1651 33.5814 34.0251 33.5814 34.7751ZM46.3814 39.6421H48.9044C48.1144 41.2451 46.9024 42.5001 45.2694 43.4081C43.3974 44.4501 41.1164 44.9701 38.4244 44.9701C35.8194 44.9701 33.5694 44.5301 31.6744 43.6501C29.7804 42.7701 28.3714 41.4711 27.4474 39.7541C26.5234 38.0381 26.0614 36.1691 26.0614 34.1471C26.0614 31.9291 26.5864 29.8631 27.6374 27.9491C28.6864 26.0341 30.1234 24.5971 31.9474 23.6381C33.7704 22.6791 35.8544 22.2001 38.1994 22.2001C40.1884 22.2001 41.9564 22.5871 43.5044 23.3601C45.0514 24.1331 46.2334 25.2331 47.0514 26.6581C47.8684 28.0831 48.2764 29.6391 48.2764 31.3291C48.2764 33.3421 47.6564 35.1621 46.4174 36.7881C44.8624 38.8401 42.8694 39.8671 40.4374 39.8671C39.7824 39.8671 39.2894 39.7531 38.9574 39.5231C38.6254 39.2951 38.4044 38.9591 38.2944 38.5171C37.3624 39.4171 36.2894 39.8671 35.0734 39.8671C33.7634 39.8671 32.6754 39.4151 31.8104 38.5111C30.9464 37.6071 30.5144 36.4051 30.5144 34.9051C30.5144 33.0501 31.0354 31.3571 32.0774 29.8251C33.3404 27.9631 34.9584 27.0311 36.9324 27.0311C38.3374 27.0311 39.3754 27.5681 40.0464 28.6411L40.3424 27.3271H43.4694L41.6814 35.8171C41.5704 36.3541 41.5154 36.7011 41.5154 36.8591C41.5154 37.0561 41.5604 37.2051 41.6514 37.3031C41.7424 37.4021 41.8504 37.4511 41.9774 37.4511C42.3554 37.4511 42.8454 37.2221 43.4454 36.7641C44.2504 36.1651 44.9014 35.3591 45.3984 34.3481C45.8964 33.3381 46.1444 32.2931 46.1444 31.2111C46.1444 29.2691 45.4424 27.6441 44.0374 26.3371C42.6324 25.0321 40.6704 24.3791 38.1524 24.3791C36.0124 24.3791 34.1994 24.8141 32.7104 25.6871C31.2234 26.5591 30.1024 27.7871 29.3484 29.3701C28.5944 30.9521 28.2174 32.6001 28.2174 34.3131C28.2174 35.9791 28.6374 37.4951 29.4784 38.8601C30.3194 40.2261 31.4994 41.2221 33.0194 41.8501C34.5384 42.4781 36.2774 42.7921 38.2344 42.7921C40.1224 42.7921 41.7444 42.5291 43.1024 42.0041C44.4594 41.4791 45.5534 40.6921 46.3814 39.6421Z" fill="#00ADBD"/>
<path fill-rule="evenodd" clip-rule="evenodd" d="M63.1138 64.3678C63.1138 64.3918 63.1078 64.4158 63.1068 64.4398L48.2048 50.9628C48.6738 50.5488 49.1508 50.1268 49.6668 49.6668C52.8278 46.8518 55.0078 44.8448 56.5128 43.3918L63.1138 37.5418V64.3678ZM61.3008 66.1798H13.8128C13.7228 66.1798 13.6368 66.1668 13.5508 66.1538L28.3488 52.7688C31.4018 55.5948 33.1108 57.0398 34.0868 57.7628C34.2808 57.9128 34.4768 58.0548 34.6828 58.1738C34.9408 58.3368 35.1168 58.4208 35.2428 58.4618C35.8648 58.7268 36.5148 58.8708 37.1688 58.8708C37.6038 58.8708 38.0348 58.7908 38.4618 58.6728C38.5278 58.6628 38.6108 58.6398 38.7128 58.6008C39.3628 58.3838 39.9888 58.0408 40.5518 57.5408L41.7278 56.4988C42.8288 55.6138 44.3088 54.3708 46.3148 52.6228L61.3038 66.1798C61.3028 66.1798 61.3018 66.1798 61.3008 66.1798ZM11.9998 37.4388L20.5068 45.2888C21.6568 46.4238 23.0388 47.7618 24.7328 49.3728C25.3658 49.9748 25.9558 50.5328 26.5148 51.0578L11.9998 64.1868V37.4388ZM12.5418 33.4158L15.0938 30.9038V36.8918L12.1028 34.1328C12.1938 33.8648 12.3378 33.6158 12.5418 33.4158ZM17.5938 17.7788C17.5938 17.4508 17.8598 17.1838 18.1888 17.1838H56.7778C57.1068 17.1838 57.3728 17.4508 57.3728 17.7788V38.9378C55.7708 40.9778 43.2668 52.1878 39.0748 55.4298C38.4518 55.9118 37.6748 56.1428 36.8878 56.0928C36.2138 56.0498 35.5738 55.8028 35.0498 55.3758C31.2298 52.2648 19.0938 40.6598 17.5938 38.6008V17.7788ZM36.2858 10.0518C36.6358 9.70676 37.0958 9.53476 37.5568 9.53476C38.0178 9.53476 38.4778 9.70676 38.8278 10.0518L43.5368 14.6838H31.5768L36.2858 10.0518ZM59.8728 30.7598L62.5728 33.4168C62.8078 33.6468 62.9678 33.9418 63.0498 34.2588L59.8728 37.0738V30.7598ZM67.1638 34.4598L64.4848 31.8238C64.4288 31.7628 64.3858 31.6908 64.3258 31.6328L59.8728 27.2498V17.7788C59.8728 16.0728 58.4848 14.6838 56.7778 14.6838H47.1028L40.5818 8.26776C38.9138 6.62675 36.1998 6.62476 34.5318 8.26776L28.0108 14.6838H18.1888C16.4818 14.6838 15.0938 16.0728 15.0938 17.7788V27.3948L10.7878 31.6318C9.96976 32.4368 9.49976 33.5568 9.49976 34.7058V64.3658C9.49976 65.1308 9.71676 65.8398 10.0678 66.4638L10.0068 66.4208C10.0068 66.4208 11.6808 69.6798 14.9598 71.2138C14.9598 71.2138 14.9428 71.1818 14.9188 71.1378C15.4488 71.3718 16.0328 71.5068 16.6498 71.5068H64.1378C66.5168 71.5068 68.4508 69.5718 68.4508 67.1928V37.5328C68.4508 36.3848 67.9818 35.2638 67.1638 34.4598Z" fill="#002F6C"/>
</svg>
