<svg width="79" height="79" viewBox="0 0 79 79" fill="none" xmlns="http://www.w3.org/2000/svg">
<path fill-rule="evenodd" clip-rule="evenodd" d="M38.768 68.0733C22.354 68.0733 9.00002 54.7193 9.00002 38.3063C9.00002 21.8933 22.354 8.53825 38.768 8.53825C55.181 8.53825 68.536 21.8913 68.536 38.3053C68.536 54.7193 55.18 68.0733 38.768 68.0733ZM65.937 20.9313C60.197 11.9833 50.166 6.03625 38.767 6.03625C20.977 6.03625 6.50002 20.5113 6.50002 38.3043C6.49325 45.1703 8.68955 51.8573 12.766 57.3823C18.506 66.3363 28.539 72.2863 39.943 72.2863C57.735 72.2863 72.209 57.8103 72.209 40.0193C72.2151 33.1493 70.0167 26.4587 65.937 20.9313Z" fill="#002F6C"/>
<path fill-rule="evenodd" clip-rule="evenodd" d="M25.014 53.9953L22.5 52.3583C22.72 52.0213 27.983 44.1013 38.83 44.0363C49.693 44.1013 54.956 52.0213 55.175 52.3583L52.66 53.9913C52.476 53.7143 48.013 47.0923 38.83 47.0363C29.662 47.0923 25.2 53.7143 25.014 53.9953Z" fill="#00ADBD"/>
<path fill-rule="evenodd" clip-rule="evenodd" d="M29.724 31.7062C29.724 32.5231 29.3995 33.3065 28.8219 33.8841C28.2442 34.4617 27.4608 34.7862 26.644 34.7862C25.8271 34.7862 25.0437 34.4617 24.4661 33.8841C23.8885 33.3065 23.564 32.5231 23.564 31.7062C23.564 30.8894 23.8885 30.106 24.4661 29.5284C25.0437 28.9507 25.8271 28.6262 26.644 28.6262C27.4608 28.6262 28.2442 28.9507 28.8219 29.5284C29.3995 30.106 29.724 30.8894 29.724 31.7062ZM53.722 31.7062C53.722 32.5234 53.3974 33.307 52.8196 33.8848C52.2418 34.4626 51.4581 34.7872 50.641 34.7872C49.8238 34.7872 49.0402 34.4626 48.4624 33.8848C47.8846 33.307 47.56 32.5234 47.56 31.7062C47.56 30.8891 47.8846 30.1054 48.4624 29.5276C49.0402 28.9498 49.8238 28.6252 50.641 28.6252C51.4581 28.6252 52.2418 28.9498 52.8196 29.5276C53.3974 30.1054 53.722 30.8891 53.722 31.7062Z" fill="#002F6C"/>
</svg>
