<svg width="79" height="79" viewBox="0 0 79 79" fill="none" xmlns="http://www.w3.org/2000/svg">
<path fill-rule="evenodd" clip-rule="evenodd" d="M53.549 70.8663C51.721 70.8663 50.236 69.3723 50.236 67.5293C50.236 65.6853 51.721 64.1923 53.549 64.1923C55.379 64.1923 56.862 65.6853 56.862 67.5293C56.862 69.3723 55.379 70.8663 53.549 70.8663ZM26.67 73.7723H60.007V61.3793H26.671V73.7723H26.67Z" fill="#00ADBD"/>
<path fill-rule="evenodd" clip-rule="evenodd" d="M56.828 39.2403C56.828 42.3213 55.873 48.8703 53.963 58.8903H27.896L12.7 39.7163L12.613 39.6173C12.2195 39.2172 11.9993 38.6784 12 38.1173C12.0008 37.326 12.3154 36.5674 12.8748 36.0078C13.4342 35.4482 14.1927 35.1333 14.984 35.1323H17.348C17.64 35.1323 17.915 35.2493 18.12 35.4583L28.542 46.1923V5.71126C28.542 5.61526 28.622 5.53625 28.718 5.53625H31.558C32.3567 5.53758 33.1222 5.85564 33.6867 6.42068C34.2512 6.98571 34.5685 7.75157 34.569 8.55025V28.9003H49.437C53.513 28.9003 56.828 32.2163 56.828 36.2923V39.2403ZM40.95 26.4003V8.55025C40.9484 7.08834 40.367 5.68675 39.3332 4.65302C38.2995 3.61929 36.8979 3.03784 35.436 3.03625H28.718C28.0086 3.03678 27.3284 3.31875 26.8267 3.82027C26.325 4.32178 26.0428 5.00187 26.042 5.71126V40.0293L19.912 33.7153C19.5776 33.374 19.1788 33.1026 18.7386 32.9169C18.2984 32.7311 17.8258 32.6347 17.348 32.6333H14.984C13.5299 32.6348 12.1358 33.2133 11.1076 34.2416C10.0795 35.2699 9.50132 36.6641 9.5 38.1183C9.5 39.3163 9.953 40.4493 10.78 41.3183L26.687 61.3893H60.004C62.131 50.0813 63.195 42.7883 63.195 39.5113C63.195 38.0013 63.199 36.9283 63.208 36.2923C63.208 30.8383 58.771 26.4003 53.318 26.4003H40.948H40.95Z" fill="#002F6C"/>
</svg>
