<svg width="79" height="79" viewBox="0 0 79 79" fill="none" xmlns="http://www.w3.org/2000/svg">
<path fill-rule="evenodd" clip-rule="evenodd" d="M43.032 54.4433C40.522 53.7483 38.863 52.8113 37.13 51.1093C36.0312 50.0244 35.1599 48.7311 34.5672 47.3052C33.9744 45.8793 33.6721 44.3495 33.678 42.8053C33.678 40.1473 35.938 37.9883 38.714 37.9883C41.489 37.9883 43.749 40.1483 43.749 42.8053C43.749 44.3423 45.093 45.5963 46.759 45.5963C48.424 45.5963 49.766 44.3423 49.766 42.8063C49.766 37.0613 44.808 32.3913 38.698 32.3913C34.354 32.3913 30.386 34.8083 28.603 38.5423C28.011 39.7723 27.707 41.2173 27.707 42.8053C27.707 44.5973 27.967 46.2993 28.735 48.3493C28.7843 48.4729 28.8082 48.6052 28.8053 48.7382C28.8023 48.8713 28.7727 49.0024 28.718 49.1237C28.6633 49.245 28.5847 49.3541 28.487 49.4444C28.3892 49.5347 28.2743 49.6044 28.149 49.6493C28.025 49.6963 27.893 49.7184 27.7605 49.7143C27.628 49.7101 27.4977 49.6799 27.3769 49.6253C27.2561 49.5706 27.1473 49.4927 27.0567 49.3959C26.9661 49.2991 26.8955 49.1854 26.849 49.0613C26.074 46.9923 25.695 44.9373 25.695 42.8053C25.695 40.9053 26.06 39.1703 26.778 37.6533C28.892 33.2193 33.576 30.3493 38.698 30.3493C45.919 30.3493 51.794 35.9243 51.794 42.7903C51.794 45.4503 49.534 47.6073 46.758 47.6073C43.982 47.6073 41.722 45.4493 41.722 42.7903C41.722 41.2543 40.379 40.0003 38.714 40.0003C37.048 40.0003 35.705 41.2543 35.705 42.7903C35.705 45.3983 36.712 47.8323 38.551 49.6553C40.011 51.0993 41.397 51.8853 43.543 52.4793C44.085 52.6193 44.4 53.1803 44.259 53.7063C44.2096 53.9252 44.0877 54.1209 43.9131 54.2618C43.7385 54.4027 43.5213 54.4804 43.297 54.4823C43.219 54.4823 43.133 54.4683 43.032 54.4433ZM41.467 49.8433C39.079 48.2253 37.653 45.5953 37.653 42.8053C37.653 42.2403 38.1 41.7923 38.667 41.7923C39.232 41.7923 39.679 42.2403 39.679 42.8053C39.679 44.9303 40.767 46.9293 42.601 48.1623C43.665 48.8823 44.912 49.2283 46.431 49.2283C46.844 49.2283 47.457 49.1733 48.011 49.0783C48.1424 49.0546 48.2772 49.0572 48.4076 49.0859C48.5379 49.1147 48.6613 49.169 48.7706 49.2457C48.8799 49.3224 48.9728 49.42 49.0441 49.5329C49.1154 49.6458 49.1637 49.7717 49.186 49.9033C49.21 50.0349 49.2076 50.1698 49.179 50.3005C49.1504 50.4311 49.0962 50.5547 49.0194 50.6642C48.9427 50.7737 48.845 50.8669 48.7319 50.9383C48.6189 51.0097 48.4928 51.058 48.361 51.0803C47.643 51.2183 46.951 51.2713 46.431 51.2713C44.526 51.2713 42.845 50.7893 41.467 49.8433ZM35.253 54.1553C35.1198 54.1573 34.9877 54.1314 34.8651 54.0794C34.7425 54.0274 34.6321 53.9504 34.541 53.8533C33.046 52.3573 32.354 51.4643 31.369 49.6863C30.276 47.7373 29.702 45.3613 29.702 42.8063C29.702 38.0433 33.77 34.1693 38.762 34.1693C43.75 34.1693 47.818 38.0433 47.818 42.8053C47.818 43.3713 47.37 43.8193 46.804 43.8193C46.6706 43.8202 46.5384 43.7946 46.415 43.744C46.2916 43.6934 46.1795 43.6187 46.0853 43.5243C45.991 43.43 45.9164 43.3178 45.8659 43.1944C45.8154 43.0709 45.7899 42.9387 45.791 42.8053C45.791 39.1653 42.641 36.1953 38.761 36.1953C34.881 36.1953 31.729 39.1653 31.729 42.8053C31.729 45.0153 32.219 47.0473 33.149 48.6953C34.033 50.2833 34.6 51.0033 35.999 52.4203C36.1842 52.6151 36.2864 52.8742 36.284 53.1429C36.2816 53.4117 36.1747 53.669 35.986 53.8603C35.776 54.0523 35.518 54.1553 35.253 54.1553ZM24.923 35.1553C24.813 35.079 24.7193 34.9815 24.6473 34.8686C24.5753 34.7556 24.5265 34.6295 24.5037 34.4976C24.4809 34.3656 24.4846 34.2305 24.5145 34.1C24.5444 33.9694 24.6 33.8462 24.678 33.7373C26.245 31.5223 28.238 29.7833 30.608 28.5673C35.578 26.0033 41.925 25.9943 46.896 28.5503C49.2581 29.7588 51.2922 31.5218 52.824 33.6883C52.9022 33.7972 52.958 33.9206 52.9882 34.0512C53.0184 34.1819 53.0224 34.3172 52.9999 34.4494C52.9774 34.5816 52.9288 34.708 52.8571 34.8212C52.7854 34.9345 52.6919 35.0324 52.582 35.1093C52.4734 35.1869 52.3504 35.2423 52.2203 35.2721C52.0901 35.3019 51.9554 35.3056 51.8238 35.283C51.6922 35.2604 51.5664 35.212 51.4537 35.1404C51.3409 35.0689 51.2435 34.9757 51.167 34.8663C49.784 32.9293 48.034 31.4123 45.967 30.3543C41.553 28.0953 35.912 28.0993 31.524 30.3703C29.4517 31.4392 27.6666 32.9904 26.319 34.8933C26.156 35.1793 25.849 35.3383 25.509 35.3383C25.303 35.3383 25.103 35.2763 24.923 35.1553ZM47.818 27.1533C47.6549 27.154 47.4945 27.1126 47.352 27.0333C44.392 25.5073 41.842 24.8613 38.775 24.8613C35.715 24.8613 32.825 25.5913 30.203 27.0313C29.9658 27.1561 29.6892 27.1835 29.4321 27.1077C29.175 27.0319 28.9576 26.8589 28.826 26.6253C28.6993 26.3884 28.6709 26.1113 28.7469 25.8536C28.8229 25.596 28.9971 25.3786 29.232 25.2483C32.1594 23.6542 35.4417 22.8243 38.775 22.8353C42.132 22.8353 45.068 23.5753 48.285 25.2313C48.4031 25.2912 48.5081 25.374 48.5938 25.475C48.6795 25.576 48.7442 25.693 48.784 25.8193C48.8239 25.9456 48.8381 26.0786 48.8259 26.2105C48.8137 26.3424 48.7753 26.4705 48.713 26.5873C48.632 26.7562 48.5051 26.8989 48.3468 26.999C48.1886 27.0991 48.0053 27.1526 47.818 27.1533Z" fill="#00ADBD"/>
<path fill-rule="evenodd" clip-rule="evenodd" d="M38.768 68.0733C22.354 68.0733 9.00002 54.7193 9.00002 38.3063C9.00002 21.8933 22.354 8.53825 38.768 8.53825C55.181 8.53825 68.536 21.8913 68.536 38.3053C68.536 54.7193 55.18 68.0733 38.768 68.0733ZM65.937 20.9313C60.197 11.9833 50.166 6.03625 38.767 6.03625C20.977 6.03625 6.50002 20.5113 6.50002 38.3043C6.49325 45.1703 8.68955 51.8573 12.766 57.3823C18.506 66.3363 28.539 72.2863 39.943 72.2863C57.735 72.2863 72.209 57.8113 72.209 40.0193C72.2151 33.1493 70.0167 26.4587 65.937 20.9313Z" fill="#002F6C"/>
</svg>
