<svg width="79" height="79" viewBox="0 0 79 79" fill="none" xmlns="http://www.w3.org/2000/svg">
<path fill-rule="evenodd" clip-rule="evenodd" d="M31.263 51.6333L24.188 44.5583L26.309 42.4373L33.384 49.5123L31.263 51.6333Z" fill="#00ADBD"/>
<path fill-rule="evenodd" clip-rule="evenodd" d="M35.942 46.9553L28.867 39.8803L30.988 37.7593L38.063 44.8343L35.942 46.9553Z" fill="#00ADBD"/>
<path fill-rule="evenodd" clip-rule="evenodd" d="M40.621 42.2763L33.546 35.2013L35.667 33.0803L42.742 40.1553L40.621 42.2763Z" fill="#00ADBD"/>
<path fill-rule="evenodd" clip-rule="evenodd" d="M45.3 37.5983L38.224 30.5233L40.346 28.4023L47.42 35.4773L45.3 37.5983Z" fill="#00ADBD"/>
<path fill-rule="evenodd" clip-rule="evenodd" d="M49.978 32.9193L42.903 25.8443L45.024 23.7233L52.099 30.7983L49.978 32.9193Z" fill="#00ADBD"/>
<path fill-rule="evenodd" clip-rule="evenodd" d="M66.341 30.1703C64.445 37.8303 59.661 45.7883 52.872 52.5783C46.082 59.3683 38.124 64.1513 30.465 66.0473C23.595 67.7473 17.761 66.9173 13.861 63.7293L25.707 51.8833L23.939 50.1153L12.094 61.9613C8.914 58.0603 8.087 52.2323 9.785 45.3683C11.681 37.7083 16.465 29.7513 23.255 22.9603C32.474 13.7403 43.489 8.60628 52.236 8.60628C55.931 8.60628 59.213 9.53728 61.791 11.4503L50.085 23.1573L51.852 24.9243L63.647 13.1303C67.143 17.0253 68.106 23.0383 66.341 30.1703ZM59.962 7.42928C55.873 5.75428 50.799 5.57428 45.142 6.97428C37.047 8.97728 28.674 13.9943 21.568 21.1023C14.46 28.2093 9.443 36.5823 7.439 44.6773C5.38 52.9963 6.732 60.0633 11.246 64.5763C11.468 64.7983 11.71 64.9953 11.945 65.2023C11.957 65.2153 16.217 68.9513 20.303 70.4363C22.438 71.2123 24.807 71.5893 27.332 71.5893C36.81 71.5883 48.477 66.2543 58.153 56.5783C65.261 49.4713 70.279 41.0983 72.281 33.0033C74.334 24.7073 72.994 17.6573 68.511 13.1423C65.365 9.97328 63.265 8.78228 59.962 7.42928Z" fill="#002F6C"/>
</svg>
