<svg width="79" height="79" viewBox="0 0 79 79" fill="none" xmlns="http://www.w3.org/2000/svg">
<path fill-rule="evenodd" clip-rule="evenodd" d="M25.698 32.7722L27.986 71.8562C28.012 72.2182 27.759 72.3232 27.426 72.3322L20.779 72.4542C20.468 72.4632 20.203 72.3132 20.216 71.9972L22.666 32.9162C22.704 31.9262 22.063 31.0222 20.993 30.5542C19.141 29.6982 18.186 28.8912 17.311 27.8272C16.475 26.8112 16.012 25.2102 16.003 24.6302C16 24.4879 15.9983 24.3456 15.998 24.2032L16 6.84521C16.002 6.74421 16.037 6.63521 16.072 6.53721C16.394 5.80621 17.168 5.53621 17.812 5.53621C18.786 5.53621 19.61 6.13521 19.61 6.84521V24.2032C19.61 24.5347 19.7417 24.8527 19.9761 25.0871C20.2105 25.3215 20.5284 25.4532 20.86 25.4532C21.1915 25.4532 21.5094 25.3215 21.7438 25.0871C21.9783 24.8527 22.11 24.5347 22.11 24.2032V6.84521C22.11 6.13521 22.933 5.53521 23.907 5.53521C24.882 5.53521 25.705 6.13521 25.705 6.84521V24.2032C25.705 24.5347 25.8367 24.8527 26.0711 25.0871C26.3055 25.3215 26.6234 25.4532 26.955 25.4532C27.2865 25.4532 27.6044 25.3215 27.8388 25.0871C28.0733 24.8527 28.205 24.5347 28.205 24.2032V6.84521C28.205 6.13521 29.029 5.53521 30.003 5.53521C30.978 5.53521 31.801 6.13521 31.801 6.83321L31.638 24.1722H31.643C31.381 27.6582 28.756 29.5522 27.133 30.3972C26.166 30.9012 25.616 31.8122 25.698 32.7722ZM36.21 6.84521C36.21 5.18121 34.669 3.04121 32.352 3.03721H30.01L30.003 3.03621H29.98C28.799 3.04421 27.729 3.47321 26.955 4.16421C26.175 3.46821 25.098 3.03621 23.907 3.03621C22.717 3.03621 21.639 3.46821 20.86 4.16421C20.08 3.46821 19.002 3.03621 17.812 3.03621C15.442 3.03621 13.514 4.74521 13.514 6.84521V23.8752C13.472 24.3652 13.167 29.8582 19.991 32.8442C20.0521 32.8701 20.1099 32.9034 20.163 32.9432L17.695 72.3162C17.672 72.9452 17.915 73.5532 18.382 74.0282C18.961 74.6182 19.822 74.9542 20.754 74.9542L29.528 74.9562C30.492 74.9372 31.373 74.4412 31.945 73.8062C32.394 73.3102 32.612 72.6892 32.559 72.0592L30.253 32.6712C30.2809 32.6499 30.3107 32.6312 30.342 32.6152C32.171 31.6622 36.402 28.8432 36.211 23.2422L36.21 6.84521ZM51.39 72.0252L53.673 37.6752C53.752 36.4692 52.729 35.4532 51.346 35.3632C49.095 35.2162 47.41 34.5732 46.601 33.5532C46.003 32.8002 45.817 31.7962 46.034 30.4852L48.908 13.0952L48.939 12.9322C49.246 11.0442 50.718 6.54621 57.721 5.54221C57.779 5.53417 57.8379 5.53417 57.896 5.54221L59.18 71.9722C59.182 72.2572 59.01 72.3442 58.807 72.3472L51.81 72.4492C51.475 72.4532 51.374 72.2192 51.39 72.0252ZM62.17 5.19321C62.158 4.61321 61.894 4.07521 61.423 3.67521C60.975 3.29321 59.153 2.81321 57.36 3.06821C48.476 4.34121 46.775 10.6322 46.471 12.5192L43.563 30.0792C43.229 32.0972 43.591 33.7892 44.638 35.1092C46.237 37.1242 49.057 37.7162 51.15 37.8562L48.84 72.6382C48.8232 72.9215 48.867 73.205 48.9684 73.4701C49.0698 73.7351 49.2264 73.9755 49.428 74.1752C49.914 74.6752 50.624 74.9552 51.364 74.9552H61.055C62.432 74.9012 63.494 73.8132 63.474 72.6252L62.171 5.19321H62.17Z" fill="#002F6C"/>
<path fill-rule="evenodd" clip-rule="evenodd" d="M27.9849 71.8563C28.0109 72.2183 27.7579 72.3233 27.4259 72.3323L20.7779 72.4543C20.4679 72.4633 20.2019 72.3133 20.2149 71.9973L20.9019 61.0363H27.3519L27.9849 71.8563ZM59.1819 71.9733C59.1839 72.2573 59.0119 72.3443 58.8089 72.3473L51.8119 72.4493C51.5139 72.4533 51.4019 72.2693 51.3909 72.0913L52.1219 61.0363H58.9709L59.1819 71.9723V71.9733Z" fill="#00ADBD"/>
</svg>
