<svg width="79" height="79" viewBox="0 0 79 79" fill="none" xmlns="http://www.w3.org/2000/svg">
<path fill-rule="evenodd" clip-rule="evenodd" d="M56.9719 68.4686H53.4119H16.5879C14.6099 68.4686 12.9999 66.8596 12.9999 64.8806V9.61464H56.9719V63.3536C57.1249 66.4896 58.1539 67.7736 59.9509 68.4686H56.9719ZM59.4719 56.5146V7.03564H10.4999V64.8026C10.4999 68.1596 13.2319 70.8906 16.5879 70.8906H59.4719V70.8806H63.6169C65.9619 70.8806 67.8649 68.9786 67.8649 66.6326V56.5146H59.4719Z" fill="#002F6C"/>
<path fill-rule="evenodd" clip-rule="evenodd" d="M19.155 18.9082H50.817V15.9072H19.155V18.9082Z" fill="#00ADBD"/>
<path fill-rule="evenodd" clip-rule="evenodd" d="M19.155 27.2052H50.817V24.2052H19.155V27.2052Z" fill="#00ADBD"/>
<path fill-rule="evenodd" clip-rule="evenodd" d="M19.155 35.5033H50.817V32.5033H19.155V35.5033Z" fill="#00ADBD"/>
<path fill-rule="evenodd" clip-rule="evenodd" d="M19.1539 43.8003H40.3299V40.8003H19.1539V43.8003Z" fill="#00ADBD"/>
</svg>
