<svg width="79" height="79" viewBox="0 0 79 79" fill="none" xmlns="http://www.w3.org/2000/svg">
<path fill-rule="evenodd" clip-rule="evenodd" d="M65.7891 34.4777C65.7891 34.9937 65.4411 35.4297 65.0291 35.4297H62.5211V35.4337H13.2851V35.4297H10.7601C10.3481 35.4297 10.0001 34.9937 10.0001 34.4777V22.3697C10.0001 21.8537 10.3481 21.4177 10.7601 21.4177H65.0291C65.4411 21.4177 65.7891 21.8537 65.7891 22.3697V34.4777ZM58.8181 66.9007H16.9881C14.9461 66.9007 13.2851 65.2387 13.2851 63.1967V37.9337H62.5211V63.1967C62.5211 65.2387 60.8601 66.9007 58.8181 66.9007ZM71.6361 23.5177C69.8581 20.6477 66.5021 19.2857 66.3841 19.2387C65.9701 19.0377 65.5141 18.9177 65.0291 18.9177H10.7601C8.96212 18.9177 7.50012 20.4657 7.50012 22.3697V34.4777C7.50012 36.3807 8.96212 37.9297 10.7601 37.9297H10.7851V63.1967C10.7851 64.1467 11.0061 65.0447 11.3901 65.8507L11.3731 65.8477C13.7311 71.0397 19.4751 72.4577 19.4751 72.4577L19.4671 72.4497C20.0201 72.6117 20.6041 72.7027 21.2091 72.7027H63.0391C66.4601 72.7027 69.2421 69.9197 69.2421 66.4997V41.2177C70.9771 41.1417 72.3691 39.6347 72.3691 37.7807V25.6717C72.3691 24.8527 72.0871 24.1097 71.6361 23.5177Z" fill="#002F6C"/>
<path fill-rule="evenodd" clip-rule="evenodd" d="M52.5859 13.0841C52.2119 14.2541 51.0719 15.6561 48.9989 16.0771L42.1659 17.4661L44.6569 11.7831C45.2569 10.4161 46.6429 9.3941 48.2739 9.1171C48.5619 9.0681 48.8449 9.0431 49.1209 9.0431C50.2589 9.0431 51.2879 9.4471 51.9759 10.1861C52.9719 11.2561 52.7859 12.4601 52.5859 13.0841ZM26.9239 16.0771C24.8509 15.6571 23.7119 14.2551 23.3369 13.0841C23.1379 12.4611 22.9519 11.2561 23.9479 10.1861C24.6339 9.4471 25.6639 9.0431 26.8019 9.0431C27.0789 9.0431 27.3619 9.0681 27.6489 9.1171C29.2809 9.3941 30.6669 10.4161 31.2659 11.7831L33.7569 17.4661L26.9239 16.0771ZM54.9009 7.4541C53.1279 5.5451 50.4049 4.6901 47.6059 5.1651C44.6179 5.6721 42.1469 7.5441 40.9949 10.1701L37.9609 17.0901L34.9279 10.1701C33.7769 7.5441 31.3059 5.6721 28.3169 5.1651C25.5229 4.6901 22.7949 5.5451 21.0209 7.4541C19.3039 9.3001 18.7459 11.8631 19.5279 14.3081C20.4479 17.1821 22.9779 19.3651 26.1289 20.0051L35.6759 21.9451V66.9001H40.1309V21.9691L49.7939 20.0051C52.9459 19.3651 55.4759 17.1821 56.3959 14.3071C57.1779 11.8631 56.6189 9.3001 54.9009 7.4541Z" fill="#00ADBD"/>
</svg>
