<svg width="79" height="79" viewBox="0 0 79 79" fill="none" xmlns="http://www.w3.org/2000/svg">
<path fill-rule="evenodd" clip-rule="evenodd" d="M39.218 5.93628C50.616 5.93628 60.647 11.8833 66.388 20.8313C70.4667 26.3591 72.6647 33.0495 72.659 39.9193C72.659 57.7113 58.185 72.1863 40.393 72.1863C28.989 72.1863 18.956 66.2363 13.216 57.2833C9.14012 51.7577 6.9439 45.0705 6.94996 38.2043C6.94996 20.4113 21.426 5.93628 39.218 5.93628ZM39.218 8.43828C38.0668 8.43802 36.9165 8.50413 35.773 8.63628C37.031 11.0313 36.331 12.0063 33.676 11.5623C29.297 10.8293 35.106 16.8053 28.794 17.0423C22.482 17.2803 24.918 26.2023 21.291 26.2023C18.948 26.2023 16.899 24.3743 15.143 20.7173C11.4368 25.7944 9.44293 31.9194 9.44996 38.2053C9.44996 50.4203 16.847 60.9413 27.396 65.5253C28.228 65.5083 29.051 65.5753 29.251 65.6953C30.087 66.2013 29.331 62.6723 30.731 62.6723C32.129 62.6723 39.351 60.5323 41.399 61.6023C43.447 62.6723 47.644 65.1293 45.956 65.4123C44.45 65.6653 43.357 66.0293 45.593 67.2853C58.953 64.3593 68.986 52.4313 68.986 38.2053C68.986 21.7913 55.631 8.43828 39.218 8.43828Z" fill="#002F6C"/>
<path fill-rule="evenodd" clip-rule="evenodd" d="M48.9129 58.1363C47.8699 58.8343 45.7379 58.1233 44.6549 56.3453C43.5729 54.5663 43.8679 53.5783 43.2769 53.1833C42.6869 52.7883 42.8839 52.7883 42.2929 53.1833C41.7029 53.5783 41.3089 53.4793 40.4229 52.5903C39.5369 51.7013 38.8479 51.3063 37.6669 51.3063C36.4869 51.3063 36.0929 51.0093 34.5179 51.8003C32.9429 52.5903 32.3529 53.8753 31.3679 53.8753C30.3839 53.8753 29.2029 53.7753 28.5139 54.2703C27.8249 54.7643 28.3179 55.0603 27.3339 55.0603C26.3489 55.0603 25.4639 53.7763 25.6599 52.3933C25.8569 51.0093 24.3799 49.1333 23.6919 48.2433C23.0019 47.3533 21.8219 44.3903 23.8889 42.7103C25.9549 41.0303 28.7109 40.7343 29.2029 39.8453C29.6949 38.9553 29.6949 40.0853 29.8929 38.3633C30.0889 36.6403 31.3689 37.4733 31.8609 36.4853C32.3529 35.4973 33.4349 33.9163 34.1239 34.3123C34.8139 34.7073 35.3049 35.3983 35.6989 35.2013C36.0929 35.0033 36.0929 34.8063 36.3879 34.3113C36.6829 33.8183 37.4709 32.7313 38.9469 32.5333C40.3509 32.3453 41.3089 32.3363 42.3389 32.7873C43.3689 33.2383 42.7849 33.5213 42.0959 34.5093C41.4069 35.4973 42.2929 36.0903 42.9819 36.2883C43.6719 36.4853 45.3439 38.4613 46.0329 38.0663C46.7229 37.6713 47.5089 36.4863 47.5089 35.5963C47.5089 34.7063 47.9029 32.4343 47.9029 32.1383C47.9029 31.8423 48.3949 31.0513 49.0839 33.6203C49.7739 36.1893 50.3079 35.3043 50.7569 36.2883C51.2069 37.2723 51.2489 37.2763 51.2489 38.3633C51.2489 39.4493 53.4149 42.2163 53.9069 42.7103C54.3989 43.2043 57.3519 47.2553 56.3669 49.4293C55.3829 51.6023 53.9069 53.5793 52.9229 55.5543C51.9379 57.5303 49.9559 57.4383 48.9129 58.1363ZM49.3119 60.3913C49.7989 60.1593 50.1919 60.5543 49.9959 60.9283C49.7989 61.3023 49.4619 61.9623 49.3119 61.9623C49.1619 61.9623 48.9829 62.0923 48.9829 62.3823C48.9829 62.6723 48.5669 62.6743 48.3959 62.5283C48.2249 62.3823 47.8249 61.3683 47.9189 61.0543C47.9669 60.8943 47.5419 60.4693 47.7909 60.1963C48.0409 59.9223 48.8239 60.6233 49.3109 60.3913H49.3119Z" fill="#00ADBD"/>
<path fill-rule="evenodd" clip-rule="evenodd" d="M31.7019 21.8762C30.0599 20.7782 25.4599 24.3392 25.4599 26.1462C25.4599 27.9532 27.7909 29.5462 28.7859 28.7752C29.7799 28.0052 33.3459 22.9722 31.7019 21.8752V21.8762ZM30.0179 33.3742C30.8199 32.8192 24.4359 31.5142 22.0479 28.9472C20.1899 26.9492 20.1619 26.9372 19.1199 27.6592C18.1599 28.3232 22.2479 35.2692 30.0179 33.3742ZM53.1459 24.4072C56.2259 24.4072 55.3129 28.6372 54.9899 28.9862C54.6669 29.3362 49.8129 29.6432 48.6639 28.9862C47.5139 28.3292 47.0139 26.2142 45.6859 26.2142C44.3569 26.2142 39.5279 23.8552 38.4789 22.1072C37.4289 20.3592 50.0669 24.4072 53.1459 24.4072ZM63.0649 49.7522C63.0549 50.6402 62.8929 52.6282 61.7559 52.9402C60.9619 53.1572 61.9009 54.6602 62.3049 54.2362C63.0489 53.4552 64.1469 53.1562 63.7099 51.0792C63.2719 49.0022 63.0689 49.3212 63.0649 49.7522ZM60.5099 53.8662C60.2129 54.1702 59.7359 54.7682 59.4299 54.8932C58.8599 55.1262 57.8899 55.5722 57.4259 55.5722C56.9619 55.5722 56.4169 56.1152 56.1099 56.4802C55.8029 56.8462 56.2039 57.3802 56.5829 57.3802C56.9629 57.3802 58.2149 57.2562 58.3149 56.6932C58.4149 56.1302 59.1649 55.7992 59.4309 55.7992C59.6969 55.7992 60.5809 54.8232 60.9219 54.6142C61.2639 54.4042 60.5809 53.7912 60.5089 53.8652L60.5099 53.8662ZM32.9799 25.5212C33.3229 24.4422 34.4599 26.4362 35.0959 27.2222C35.7319 28.0092 35.0959 28.0092 33.6119 28.0092C32.7279 28.0092 32.3439 27.8812 32.1519 27.8312C31.6419 27.6992 32.6359 26.5992 32.9799 25.5212Z" fill="#002F6C"/>
</svg>
