<svg width="79" height="79" viewBox="0 0 79 79" fill="none" xmlns="http://www.w3.org/2000/svg">
<path fill-rule="evenodd" clip-rule="evenodd" d="M8.5 37.7032L27.112 19.1762C27.4804 18.8095 27.9765 18.5999 28.4962 18.5913C29.0159 18.5827 29.5187 18.7759 29.899 19.1302L40.685 29.1862C40.8431 29.3331 41.0517 29.4135 41.2675 29.4107C41.4833 29.4079 41.6897 29.3221 41.844 29.1712L63.768 7.72723H50.943L50.898 4.03723H68.25C69.205 4.03723 69.978 4.80923 69.978 5.76323V22.9362H66.338L66.376 10.0242L42.512 33.3662C42.1936 33.6785 41.767 33.8559 41.321 33.8615C40.8751 33.8671 40.4442 33.7004 40.118 33.3962L28.996 23.0262C28.8794 22.9173 28.725 22.858 28.5655 22.8608C28.4059 22.8636 28.2537 22.9283 28.141 23.0412L10.946 40.1592L8.5 37.7032Z" fill="#00ADBD"/>
<path fill-rule="evenodd" clip-rule="evenodd" d="M52.114 68.9372H63.169V34.7072H52.114V68.9362V68.9372ZM38.56 68.9372H49.615V42.5562H38.56V68.9382V68.9372ZM25.006 68.9372H36.06V50.9622H25.006V68.9372ZM11.451 68.9372H22.506V58.8132H11.451V68.9372ZM63.911 32.2072C63.542 32.1992 59.343 32.1992 51.313 32.2072C50.375 32.2072 49.615 32.9672 49.615 33.9042V40.0552H37.758C36.82 40.0552 36.06 40.8152 36.06 41.7532V48.4632H24.203C23.266 48.4632 22.506 49.2232 22.506 50.1602V56.3132H10.649C9.71099 56.3132 8.95099 57.0732 8.95099 58.0112C8.94399 66.7722 8.94399 71.2402 8.95099 71.4142C8.96099 71.6762 9.14699 71.7472 9.47099 71.9072C10.661 72.4922 13.497 73.0392 14.064 73.0392H69.475V35.5062C69.475 34.7722 66.733 33.1392 65.099 32.4692C64.651 32.2852 64.464 32.2172 63.911 32.2062V32.2072Z" fill="#002F6C"/>
</svg>
