<svg width="79" height="79" viewBox="0 0 79 79" fill="none" xmlns="http://www.w3.org/2000/svg">
<path fill-rule="evenodd" clip-rule="evenodd" d="M25.355 57.2003V40.3643H28.581V49.2993L32.36 45.0043H36.334L32.166 49.4603L36.633 57.2003H33.153L30.085 51.7223L28.581 53.2963V57.2003H25.355Z" fill="#00ADBD"/>
<path fill-rule="evenodd" clip-rule="evenodd" d="M41.075 50.8493C41.075 52.1433 41.325 53.0903 41.827 53.6923C42.327 54.2923 42.947 54.5933 43.682 54.5933C44.471 54.5933 45.137 54.2853 45.68 53.6683C46.224 53.0533 46.496 52.1393 46.496 50.9303C46.496 49.6663 46.236 48.7293 45.715 48.1173C45.194 47.5033 44.535 47.1973 43.74 47.1973C42.966 47.1973 42.328 47.4973 41.827 48.0993C41.326 48.7003 41.075 49.6173 41.075 50.8493ZM38.192 58.0043L41.879 58.4523C41.939 58.8803 42.082 59.1763 42.304 59.3373C42.61 59.5673 43.092 59.6813 43.751 59.6813C44.593 59.6813 45.225 59.5543 45.646 59.3023C45.929 59.1333 46.144 58.8623 46.289 58.4863C46.388 58.2193 46.438 57.7243 46.438 57.0063V55.2243C45.473 56.5433 44.256 57.2003 42.786 57.2003C41.148 57.2003 39.85 56.5073 38.893 55.1223C38.142 54.0283 37.767 52.6633 37.767 51.0343C37.767 48.9893 38.26 47.4283 39.243 46.3483C40.227 45.2683 41.45 44.7283 42.912 44.7283C44.421 44.7283 45.665 45.3913 46.645 46.7143V45.0043H49.665V55.9483C49.665 57.3883 49.547 58.4643 49.309 59.1753C49.072 59.8873 48.739 60.4473 48.309 60.8523C47.881 61.2573 47.309 61.5763 46.593 61.8053C45.877 62.0353 44.972 62.1513 43.877 62.1513C41.81 62.1513 40.344 61.7963 39.479 61.0873C38.613 60.3793 38.181 59.4823 38.181 58.3943C38.181 58.2883 38.185 58.1583 38.191 58.0043" fill="#00ADBD"/>
<path fill-rule="evenodd" clip-rule="evenodd" d="M47.212 18.3302L44.923 26.7202C41.9635 25.7772 38.8533 25.3983 35.754 25.6032C35.2534 25.6355 34.7538 25.6828 34.256 25.7452L32.233 18.3302C32.046 17.6442 32.157 16.9442 32.53 16.4582C32.663 16.2832 32.765 16.2292 32.781 16.2252H46.661C46.681 16.2312 46.782 16.2832 46.916 16.4582C47.288 16.9462 47.399 17.6462 47.212 18.3302ZM46.664 13.7262H28.054C27.209 13.7262 26.414 14.1562 25.816 14.9392C24.973 16.0422 24.704 17.5562 25.094 18.9872L28.099 30.0012L29.386 29.5132C31.4776 28.717 33.6774 28.2406 35.911 28.1002C39.1159 27.8862 42.3292 28.3671 45.331 29.5102L46.62 30.0012L49.624 18.9892C50.015 17.5562 49.745 16.0422 48.902 14.9412C48.304 14.1572 47.509 13.7262 46.664 13.7262Z" fill="#002F6C"/>
<path fill-rule="evenodd" clip-rule="evenodd" d="M46.569 69.8833H28.137C27.1744 69.8815 26.2222 69.6855 25.3371 69.3072C24.452 68.9288 23.6524 68.3758 22.986 67.6813C18.771 63.2713 14.68 55.5103 15.013 49.2083C15.1796 46.1693 15.9629 43.196 17.315 40.4692C18.6671 37.7425 20.5598 35.3194 22.878 33.3473L23.485 32.8323L20.081 20.3543C19.269 17.3713 19.868 14.1703 21.686 11.7893C23.266 9.72226 25.584 8.53625 28.048 8.53625H46.658C49.122 8.53625 51.44 9.72226 53.02 11.7893C54.838 14.1693 55.438 17.3713 54.625 20.3543L51.218 32.8463L51.821 33.3603C54.2936 35.4644 56.2806 38.0796 57.6451 41.0256C59.0096 43.9717 59.7192 47.1786 59.725 50.4253C59.725 56.2343 55.713 63.4873 51.75 67.6493C51.0815 68.3516 50.278 68.9115 49.3877 69.2954C48.4973 69.6794 47.5386 69.8793 46.569 69.8833ZM58.777 31.9853L61.771 21.0113C62.787 17.2813 62.028 13.2673 59.74 10.2713C57.685 7.58125 54.642 6.03625 51.392 6.03625H28.054C24.804 6.03625 21.762 7.58026 19.706 10.2723C17.418 13.2683 16.659 17.2823 17.676 21.0113L20.665 31.9693C15.8076 36.3795 12.8825 42.5253 12.523 49.0763C12.135 56.4133 16.741 64.7593 21.186 69.4093C22.0863 70.3473 23.1665 71.0941 24.362 71.6051C25.5575 72.1161 26.8438 72.3808 28.144 72.3833H51.303C52.6111 72.3786 53.9048 72.1096 55.1064 71.5923C56.3079 71.0751 57.3925 70.3203 58.295 69.3733C62.601 64.8513 66.959 56.8903 66.959 50.4253C66.9531 46.9515 66.2224 43.5172 64.8135 40.342C63.4047 37.1668 61.3487 34.3205 58.777 31.9853Z" fill="#002F6C"/>
</svg>
