<svg width="79" height="79" viewBox="0 0 79 79" fill="none" xmlns="http://www.w3.org/2000/svg">
<path fill-rule="evenodd" clip-rule="evenodd" d="M27.343 67.9993L42.063 74.0213V51.6903L27.329 45.6383L27.343 67.9993Z" fill="#00ADBD"/>
<path fill-rule="evenodd" clip-rule="evenodd" d="M57.9766 36.5933V63.2093C57.9766 64.4793 56.9466 65.5093 55.6766 65.5093L47.7976 65.5103V43.1393H24.8536V65.5193L14.6716 65.5213V36.5933H7.90763L36.3246 10.4333L64.7446 36.5933H57.9766ZM41.6836 7.03625H36.3246L1.49963 39.0933H12.1716V68.0223L17.5306 68.0213V68.0223L23.0286 68.0193L27.3536 68.0183V45.6393H45.2976V68.0113L51.6566 68.0103V68.0113L59.3446 68.0103C62.9296 68.0093 65.8356 65.1023 65.8356 61.5163V39.0933H71.1516H76.5106L41.6836 7.03625Z" fill="#002F6C"/>
</svg>
