<svg width="79" height="79" viewBox="0 0 79 79" fill="none" xmlns="http://www.w3.org/2000/svg">
<path fill-rule="evenodd" clip-rule="evenodd" d="M38.768 68.0733C22.354 68.0733 9 54.7193 9 38.3053C9 21.8913 22.354 8.53825 38.768 8.53825C55.181 8.53825 68.535 21.8913 68.535 38.3053C68.535 54.7193 55.181 68.0733 38.768 68.0733ZM65.937 20.9313C60.196 11.9833 50.166 6.03625 38.768 6.03625C20.976 6.03625 6.5 20.5113 6.5 38.3043C6.5 45.4373 8.831 52.0343 12.766 57.3823C18.506 66.3363 28.539 72.2863 39.942 72.2863C57.734 72.2863 72.209 57.8113 72.209 40.0193C72.2151 33.1493 70.0167 26.4587 65.937 20.9313Z" fill="#002F6C"/>
<path d="M39.5 19.0363C49.717 19.0363 58 27.3193 58 37.5363C58 40.1003 57.477 42.5933 56.478 44.8943L56.038 45.8823L62.781 43.1583L63.917 45.9713L53.846 50.0393C53.478 50.1877 53.0679 50.1932 52.696 50.0548C52.3242 49.9165 52.0174 49.6441 51.836 49.2913L51.776 49.1593L47.708 39.0903L50.521 37.9543L53.245 44.6983C53.349 44.5083 53.453 44.3043 53.557 44.0863C54.5104 42.0344 55.0029 39.7988 55 37.5363C55 28.9763 48.06 22.0363 39.5 22.0363C37.844 22.0363 36.228 22.2963 34.699 22.7933L33.523 20.0233C35.4475 19.368 37.467 19.0345 39.5 19.0363ZM26.581 27.4003L26.641 27.5313L30.709 37.6013L27.897 38.7373L25.173 31.9933C25.069 32.1833 24.964 32.3863 24.861 32.6053C23.9073 34.657 23.4144 36.8927 23.417 39.1553C23.417 47.7153 30.357 54.6553 38.917 54.6553C40.6041 54.6571 42.2801 54.3835 43.879 53.8453L45.054 56.6123C43.082 57.3043 41.0069 57.6569 38.917 57.6553C28.7 57.6553 20.417 49.3723 20.417 39.1553C20.417 36.5913 20.94 34.0983 21.939 31.7963L22.379 30.8093L15.636 33.5333L14.5 30.7203L24.572 26.6523C24.9171 26.5135 25.2998 26.5 25.6538 26.614C26.0078 26.7279 26.3107 26.9623 26.51 27.2763L26.581 27.4003Z" fill="#00ADBD"/>
</svg>
