<svg width="79" height="79" viewBox="0 0 79 79" fill="none" xmlns="http://www.w3.org/2000/svg">
<path fill-rule="evenodd" clip-rule="evenodd" d="M42.3565 62.8498C42.3565 65.1698 40.4755 67.0518 38.1555 67.0518C35.8355 67.0518 33.9545 65.1698 33.9545 62.8498C33.9545 60.5298 35.8355 58.6488 38.1555 58.6488C40.4755 58.6488 42.3565 60.5298 42.3565 62.8498Z" fill="#00ADBD"/>
<path fill-rule="evenodd" clip-rule="evenodd" d="M57.7051 67.7893C57.7051 69.0773 56.6571 70.1243 55.3701 70.1243H21.2571C19.9701 70.1243 18.9221 69.0773 18.9221 67.7893V6.87225C18.9221 5.58425 19.9701 4.53625 21.2571 4.53625H55.3701C56.6571 4.53625 57.7051 5.58425 57.7051 6.87225V67.7893ZM62.1581 7.58225C62.1651 7.58026 62.1841 7.57225 62.1841 7.57225C62.1841 7.57225 60.7381 4.73425 58.2131 2.91025C58.2011 2.90125 58.1921 2.89725 58.1811 2.88925C58.1511 2.86825 58.1201 2.85125 58.0901 2.83125C57.8791 2.68825 57.7021 2.59325 57.5581 2.54125C56.9171 2.22826 56.2081 2.03625 55.4481 2.03625H21.3351C18.6691 2.03625 16.5001 4.20525 16.5001 6.87225V67.7893C16.5001 68.6023 16.7141 69.3603 17.0711 70.0293C17.0671 70.0312 17.0521 70.0373 17.0521 70.0373C17.0521 70.0373 18.3271 72.4903 20.5561 74.2853C21.4071 75.0633 22.5271 75.5503 23.7721 75.5503H57.8861C60.5521 75.5503 62.7211 73.3813 62.7211 70.7153V9.79825C62.7211 8.99525 62.5051 8.24925 62.1581 7.58225Z" fill="#002F6C"/>
<path fill-rule="evenodd" clip-rule="evenodd" d="M24.877 53.2924H51.907V10.6124H24.877V53.2924ZM52.524 8.11243H24.103C23.108 8.11243 22.298 8.92243 22.298 9.91643V53.9884C22.298 54.9824 23.108 55.7924 24.103 55.7924H52.524C53.519 55.7924 54.329 54.9824 54.329 53.9884V9.91643C54.329 8.92243 53.519 8.11243 52.524 8.11243Z" fill="#002F6C"/>
</svg>
