<svg width="79" height="79" viewBox="0 0 79 79" fill="none" xmlns="http://www.w3.org/2000/svg">
<path fill-rule="evenodd" clip-rule="evenodd" d="M64 54.6364C58.66 62.6534 49.543 67.9484 39.211 67.9484C22.797 67.9484 9.44299 54.5944 9.44299 38.1804C9.44299 21.7664 22.797 8.41338 39.211 8.41338C51.342 8.41338 61.795 15.7114 66.427 26.1454L68.958 24.9314C68.199 23.4904 67.34 22.1094 66.38 20.8064C60.639 11.8584 50.609 5.91138 39.211 5.91138C21.419 5.91138 6.94299 20.3864 6.94299 38.1794C6.94299 45.3124 9.27299 51.9094 13.209 57.2574C18.949 66.2114 28.981 72.1614 40.385 72.1614C51.847 72.1614 61.925 66.1494 67.65 57.1174L64 54.6364Z" fill="#002F6C"/>
<path fill-rule="evenodd" clip-rule="evenodd" d="M54.6396 23.9382V53.9752C54.6396 54.2372 54.7437 54.4862 54.9267 54.6692C55.3087 55.0562 55.9266 55.0562 56.3076 54.6692L71.2136 39.6512C71.5956 39.2682 71.5956 38.6452 71.2136 38.2602L56.3076 23.2412C56.1236 23.0562 55.8766 22.9542 55.6176 22.9542C55.0776 22.9542 54.6396 23.3952 54.6396 23.9382Z" fill="#002F6C"/>
<path fill-rule="evenodd" clip-rule="evenodd" d="M40.3428 46.6642C39.8658 47.2262 39.2718 47.6142 38.5698 47.8412V40.7342C39.4228 41.0492 40.0708 41.4562 40.4858 41.9662C40.9888 42.5832 41.2398 43.3182 41.2398 44.1712C41.2398 45.1262 40.9418 45.9562 40.3428 46.6642ZM33.3908 32.8752C32.9838 32.2962 32.7798 31.6682 32.7798 30.9942C32.7798 30.2552 33.0028 29.5802 33.4478 28.9692C33.8458 28.4242 34.3708 28.0292 35.0108 27.7682V34.1632C34.3038 33.8222 33.7578 33.3962 33.3908 32.8752ZM44.2578 38.4142C43.2198 37.1782 41.3168 36.1622 38.5698 35.3582V28.0542C39.4688 28.6342 40.0608 29.5302 40.3048 30.7832L45.1358 30.1532C44.8048 28.2432 44.0408 26.7192 42.8448 25.5802C41.7628 24.5502 40.3248 23.9072 38.5698 23.6102V21.6162H38.0128H35.2428H35.0108V23.5482C32.9338 23.8002 31.2498 24.5952 29.9818 25.9612C28.6638 27.3812 28.0048 29.1352 28.0048 31.2232C28.0048 33.2852 28.5868 35.0392 29.7518 36.4842C30.8798 37.8832 32.6368 38.9352 35.0108 39.6482V47.5912C34.4158 47.2572 33.8668 46.7722 33.3718 46.1192C32.8118 45.3812 32.4298 44.5022 32.2258 43.4832L27.2408 44.0182C27.6228 46.5262 28.5018 48.4682 29.8768 49.8432C31.2008 51.1672 32.9188 51.9652 35.0108 52.2622V55.7832H35.2428H38.0128H38.5698V52.1122C40.7838 51.6962 42.5398 50.7662 43.8268 49.3092C45.2218 47.7292 45.9188 45.7882 45.9188 43.4832C45.9188 41.4212 45.3648 39.7302 44.2578 38.4142Z" fill="#00ADBD"/>
</svg>
