<svg width="79" height="79" viewBox="0 0 79 79" fill="none" xmlns="http://www.w3.org/2000/svg">
<path fill-rule="evenodd" clip-rule="evenodd" d="M41.092 37.3014C40.6803 37.7882 40.1385 38.1479 39.53 38.3384V32.0784C40.282 32.3564 40.852 32.7144 41.218 33.1634C41.661 33.7064 41.882 34.3534 41.882 35.1054C41.882 35.9474 41.619 36.6774 41.092 37.3014ZM34.97 25.1564C34.6209 24.6743 34.4326 24.0945 34.432 23.4994C34.432 22.8484 34.629 22.2554 35.02 21.7164C35.37 21.2364 35.833 20.8894 36.397 20.6584V26.2914C35.774 25.9914 35.293 25.6164 34.97 25.1564ZM44.542 30.0344C43.627 28.9474 41.952 28.0524 39.532 27.3434V20.9114C40.323 21.4214 40.844 22.2114 41.059 23.3144L45.314 22.7594C45.024 21.0774 44.351 19.7354 43.297 18.7314C42.344 17.8244 41.078 17.2584 39.531 16.9964V15.2404H36.396V16.9404C34.567 17.1634 33.084 17.8644 31.967 19.0684C30.807 20.3174 30.227 21.8624 30.227 23.7014C30.227 25.5184 30.739 27.0634 31.765 28.3354C32.758 29.5684 34.305 30.4934 36.396 31.1214V38.1174C35.872 37.8234 35.389 37.3974 34.952 36.8224C34.459 36.1714 34.123 35.3974 33.943 34.5004L29.553 34.9704C29.89 37.1804 30.663 38.8904 31.874 40.1024C33.04 41.2684 34.554 41.9704 36.396 42.2324V45.3324H39.531V42.0994C41.481 41.7334 43.028 40.9144 44.162 39.6294C45.389 38.2394 46.005 36.5294 46.005 34.4994C46.005 32.6834 45.515 31.1954 44.541 30.0344" fill="#00ADBD"/>
<path fill-rule="evenodd" clip-rule="evenodd" d="M50.056 64.3603C52.074 64.3603 53.941 64.2853 55.652 64.1683C48.976 67.8203 35.178 72.6313 20.342 61.6033C22.921 61.5473 25.375 61.4383 27.72 61.2873C36.027 63.6343 43.735 64.3603 50.056 64.3603ZM18.886 37.7983C18.886 22.1543 27.508 9.42631 38.105 9.42631C48.702 9.42631 57.324 22.1543 57.324 37.7983C57.324 41.0153 56.929 43.9593 56.224 46.6243C47.211 48.2053 34.693 48.8063 19.679 45.3943C19.167 43.0593 18.887 40.5263 18.887 37.7983H18.886ZM71.58 56.9763L70.98 54.5483C70.838 54.5843 64.655 56.0503 55.815 56.2793C65.961 52.9063 70.045 49.1373 70.353 48.8413L68.622 47.0393C68.534 47.1233 62.698 52.5053 47.077 56.0653C38.487 55.4053 28.732 53.2553 19.835 48.0193C27.857 49.8103 35.154 50.4903 41.595 50.4903C60.732 50.4903 72.332 44.5283 73.058 44.1443L71.888 41.9343C71.802 41.9803 68.833 43.4923 63.508 44.9813C63.707 43.4143 63.814 41.8263 63.814 40.2393C63.814 23.1613 51.914 8.04031 40.013 7.07531C38.147 6.95531 36.126 7.05331 32.756 8.15731C23.359 11.5513 16.386 23.6753 16.386 38.0753C16.386 40.3233 16.596 42.5703 17.001 44.7563C13.3997 43.8364 9.846 42.739 6.353 41.4683L5.5 43.8183C7.949 44.7083 10.343 45.4863 12.687 46.1733C20.909 52.6513 30.289 55.9833 39.114 57.5583C35.734 58.0683 32.01 58.4793 27.928 58.7563C21.5473 56.909 15.435 54.2367 9.746 50.8073L8.456 52.9483C12.468 55.3631 16.6878 57.4146 21.065 59.0783C17.908 59.1613 14.582 59.1733 11.043 59.0853L10.98 61.5853C12.772 61.6303 14.513 61.6513 16.208 61.6513C24.132 68.1933 32.705 70.8263 39.504 70.8263C50.988 70.8263 59.594 64.7643 61.143 63.5983C64.511 63.1203 66.485 62.5903 66.559 62.5703L65.886 60.1623C65.696 60.2143 52.746 63.6823 35.653 60.5693C40.071 60.0443 43.985 59.3573 47.447 58.5803C49.57 58.7283 51.627 58.8003 53.575 58.8003C63.952 58.8003 71.422 57.0153 71.581 56.9763H71.58Z" fill="#002F6C"/>
</svg>
