<svg width="79" height="79" viewBox="0 0 79 79" fill="none" xmlns="http://www.w3.org/2000/svg">
<path fill-rule="evenodd" clip-rule="evenodd" d="M39.175 41.5493V32.0093L32.758 41.5493H39.175ZM39.175 51.8693V46.2533H27.75V41.5683L39.862 23.8383H44.356V41.5483H47.822V46.2533H44.356V51.8703H39.176L39.175 51.8693Z" fill="#00ADBD"/>
<path fill-rule="evenodd" clip-rule="evenodd" d="M38.768 68.0733C22.355 68.0733 9 54.7193 9 38.3053C9 21.8913 22.355 8.53825 38.768 8.53825C55.181 8.53825 68.536 21.8913 68.536 38.3053C68.536 54.7193 55.181 68.0733 38.768 68.0733ZM65.938 20.9313C60.197 11.9833 50.166 6.03625 38.768 6.03625C20.976 6.03625 6.5 20.5113 6.5 38.3043C6.5 45.4373 8.831 52.0343 12.766 57.3833C18.506 66.3363 28.539 72.2863 39.943 72.2863C57.735 72.2863 72.209 57.8113 72.209 40.0193C72.2148 33.1495 70.0168 26.4591 65.938 20.9313Z" fill="#002F6C"/>
</svg>
