<svg width="79" height="79" viewBox="0 0 79 79" fill="none" xmlns="http://www.w3.org/2000/svg">
<path fill-rule="evenodd" clip-rule="evenodd" d="M43.262 52.1963H37.912V32.0303C35.956 33.8583 33.652 35.2103 30.998 36.0863V31.2293C32.395 30.7723 33.912 29.9063 35.55 28.6313C37.188 27.3543 38.311 25.8663 38.92 24.1653H43.262V52.1963Z" fill="#00ADBD"/>
<path fill-rule="evenodd" clip-rule="evenodd" d="M38.768 68.0733C22.355 68.0733 9 54.7193 9 38.3053C9 21.8913 22.355 8.53825 38.768 8.53825C55.181 8.53825 68.536 21.8913 68.536 38.3053C68.536 54.7193 55.181 68.0733 38.768 68.0733ZM65.938 20.9313C60.197 11.9833 50.166 6.03625 38.768 6.03625C20.976 6.03625 6.5 20.5113 6.5 38.3043C6.5 45.4373 8.831 52.0343 12.766 57.3823C18.506 66.3363 28.539 72.2863 39.943 72.2863C57.735 72.2863 72.209 57.8113 72.209 40.0193C72.215 33.1495 70.0169 26.459 65.938 20.9313Z" fill="#002F6C"/>
</svg>
