<svg width="79" height="79" viewBox="0 0 79 79" fill="none" xmlns="http://www.w3.org/2000/svg">
<path fill-rule="evenodd" clip-rule="evenodd" d="M43.8735 46.0099C43.8735 42.4199 40.9635 39.5099 37.3735 39.5099C33.7835 39.5099 30.8735 42.4199 30.8735 46.0099C30.8735 48.3099 32.0705 50.3259 33.8735 51.4809V57.0099C33.8735 58.9429 35.4405 60.5099 37.3735 60.5099C39.3065 60.5099 40.8735 58.9429 40.8735 57.0099V51.4809C42.6755 50.3259 43.8735 48.3099 43.8735 46.0099Z" fill="#00ADBD"/>
<path fill-rule="evenodd" clip-rule="evenodd" d="M57.7681 63.504C57.7681 65.877 55.8381 67.807 53.4661 67.807H20.3031C17.9301 67.807 16.0001 65.877 16.0001 63.504V31.307H57.7681V63.504ZM63.4971 32.644L63.4991 32.64L59.6861 29.371L59.6851 29.372C59.3331 29.023 58.8491 28.807 58.3151 28.807H54.3401V21.203C54.3401 11.737 46.9461 4.03601 37.8571 4.03601C28.7681 4.03601 21.3731 11.737 21.3731 21.203V21.62H25.3731V21.203C25.3731 13.943 30.9741 8.03601 37.8571 8.03601C44.7401 8.03601 50.3401 13.943 50.3401 21.203V28.807H15.4391C14.3701 28.807 13.5001 29.676 13.5001 30.746V63.504C13.5001 63.638 13.5121 63.768 13.5201 63.9C13.5191 63.9 13.5131 63.897 13.5131 63.897C13.5131 63.897 13.5171 64.007 13.5351 64.194C13.5351 64.197 13.5361 64.2 13.5361 64.202C13.6831 65.696 14.7891 72.295 22.7371 73.456C23.1911 73.552 23.6621 73.605 24.1451 73.605H57.3081C61.0591 73.605 64.1111 70.553 64.1111 66.802V34.058C64.1111 33.501 63.8731 33 63.4971 32.644Z" fill="#002F6C"/>
</svg>
