<svg width="79" height="79" viewBox="0 0 79 79" fill="none" xmlns="http://www.w3.org/2000/svg">
<path fill-rule="evenodd" clip-rule="evenodd" d="M43.8733 45.7374C43.8733 42.1474 40.9633 39.2374 37.3733 39.2374C33.7833 39.2374 30.8733 42.1474 30.8733 45.7374C30.8733 48.0374 32.0713 50.0534 33.8733 51.2094V56.7374C33.8733 58.6704 35.4403 60.2374 37.3733 60.2374C39.3063 60.2374 40.8733 58.6704 40.8733 56.7374V51.2094C42.6763 50.0534 43.8733 48.0374 43.8733 45.7374Z" fill="#00ADBD"/>
<path fill-rule="evenodd" clip-rule="evenodd" d="M57.7682 63.2315C57.7682 65.6045 55.8382 67.5345 53.4662 67.5345H20.3032C17.9302 67.5345 16.0002 65.6045 16.0002 63.2315V31.0345H57.7682V63.2315ZM24.8842 22.7445C24.8842 15.1855 30.7152 9.0365 37.8842 9.0365C45.0522 9.0365 50.8842 15.1855 50.8842 22.7445V28.5345H24.8842V22.7445ZM63.4972 32.3715L63.4982 32.3675L59.6862 29.0985L59.6852 29.0995C59.3322 28.7515 58.8492 28.5345 58.3152 28.5345H54.8842V22.7445C54.8842 12.9805 47.2582 5.0365 37.8842 5.0365C28.5102 5.0365 20.8842 12.9805 20.8842 22.7445V28.5345H15.4392C14.3702 28.5345 13.5002 29.4045 13.5002 30.4735V63.2315C13.5002 63.3655 13.5122 63.4965 13.5202 63.6275C13.5192 63.6275 13.5122 63.6255 13.5122 63.6255C13.5122 63.6255 13.5172 63.7345 13.5352 63.9225C13.5352 63.9245 13.5352 63.9275 13.5362 63.9305C13.6832 65.4245 14.7892 72.0225 22.7362 73.1845C23.1912 73.2805 23.6622 73.3325 24.1452 73.3325H57.3082C61.0592 73.3325 64.1112 70.2815 64.1112 66.5305V33.7865C64.1112 33.2285 63.8722 32.7275 63.4972 32.3715Z" fill="#002F6C"/>
</svg>
