<svg width="79" height="79" viewBox="0 0 79 79" fill="none" xmlns="http://www.w3.org/2000/svg">
<path fill-rule="evenodd" clip-rule="evenodd" d="M28.291 24.3313H51.996V21.3313H28.291V24.3313Z" fill="#002F6C"/>
<path fill-rule="evenodd" clip-rule="evenodd" d="M28.291 64.3113H51.996V61.3113H28.291V64.3113Z" fill="#002F6C"/>
<path fill-rule="evenodd" clip-rule="evenodd" d="M61.7246 69.1408C61.7246 70.4288 60.6766 71.4758 59.3896 71.4758H20.3346C19.0476 71.4758 17.9996 70.4288 17.9996 69.1408V66.1998L17.9616 66.2508V14.1578V12.0758C17.9616 13.0618 19.1616 14.0858 20.4836 14.0988H59.3896C60.6766 14.0988 61.7246 15.1458 61.7246 16.4338V69.1408ZM59.3896 11.5988H56.9266L56.9586 8.07079C56.9716 5.85579 55.1876 4.04979 52.9726 4.0367C52.8186 4.03579 52.6646 4.04279 52.5126 4.05979L19.6396 7.65079L19.6416 7.65979C15.5616 8.13379 15.5276 11.1208 15.5276 11.1208V16.1638C15.5226 16.2558 15.4996 16.3418 15.4996 16.4338V69.1408C15.4996 71.8078 17.6686 73.9758 20.3346 73.9758H59.3896C62.0556 73.9758 64.2246 71.8078 64.2246 69.1408V16.4338C64.2246 13.7678 62.0556 11.5988 59.3896 11.5988Z" fill="#002F6C"/>
<path fill-rule="evenodd" clip-rule="evenodd" d="M31.9902 35.3038C32.6602 35.5358 33.3552 35.7408 34.0682 35.9148C34.3812 34.9758 34.8392 33.8578 35.4882 32.8258C34.1802 33.4178 32.9952 34.2568 31.9902 35.3038ZM44.7982 32.8258C45.4472 33.8578 45.9062 34.9758 46.2182 35.9148C46.9302 35.7408 47.6262 35.5358 48.2942 35.3038C47.2902 34.2568 46.1062 33.4188 44.7982 32.8258ZM36.1632 36.3298C37.1232 36.4758 38.1012 36.5708 39.0852 36.6098V32.1038C38.2522 32.5448 37.4492 33.4958 36.7782 34.8548C36.5532 35.3108 36.3472 35.8058 36.1632 36.3298ZM41.2012 32.1038V36.6098C42.1842 36.5708 43.1632 36.4758 44.1232 36.3298C43.9382 35.8048 43.7322 35.3108 43.5072 34.8548C42.8372 33.4958 42.0352 32.5448 41.2012 32.1038ZM28.8852 42.0718H33.0052C33.0612 40.6448 33.2322 39.2648 33.5132 37.9598C32.5122 37.7118 31.5402 37.4078 30.6122 37.0538C29.6432 38.5678 29.0522 40.2858 28.8852 42.0718ZM35.1242 42.0718H39.0852V38.7288C37.9032 38.6848 36.7302 38.5678 35.5892 38.3828C35.3352 39.5508 35.1792 40.7878 35.1242 42.0718ZM41.2012 42.0718H45.1612C45.1072 40.7868 44.9512 39.5498 44.6972 38.3828C43.5542 38.5678 42.3832 38.6848 41.2012 38.7288V42.0718ZM47.2812 42.0718H51.4012C51.2332 40.2858 50.6422 38.5678 49.6742 37.0538C48.7452 37.4088 47.7722 37.7118 46.7702 37.9598C47.0532 39.2668 47.2242 40.6468 47.2812 42.0718ZM35.1242 44.1898C35.1792 45.4728 35.3352 46.7098 35.5892 47.8778C36.7322 47.6918 37.9062 47.5748 39.0852 47.5328V44.1898H35.1242ZM41.2012 47.5328C42.3812 47.5748 43.5532 47.6918 44.6972 47.8778C44.9512 46.7108 45.1072 45.4738 45.1612 44.1898H41.2012V47.5328ZM46.7702 48.3008C47.7712 48.5478 48.7452 48.8508 49.6742 49.2068C50.6422 47.6938 51.2332 45.9748 51.4012 44.1898H47.2812C47.2242 45.6138 47.0532 46.9928 46.7702 48.3008ZM28.8852 44.1898C29.0522 45.9738 29.6432 47.6928 30.6122 49.2068C31.5412 48.8508 32.5132 48.5478 33.5132 48.3008C33.2322 46.9948 33.0612 45.6158 33.0052 44.1898H28.8852ZM31.9902 50.9568C32.9952 52.0038 34.1802 52.8428 35.4882 53.4348C34.8392 52.4028 34.3812 51.2848 34.0682 50.3458C33.3562 50.5188 32.6612 50.7238 31.9902 50.9568ZM46.2182 50.3458C45.9062 51.2848 45.4472 52.4028 44.7982 53.4348C46.1062 52.8428 47.2902 52.0038 48.2942 50.9568C47.6252 50.7238 46.9292 50.5188 46.2182 50.3458ZM36.1632 49.9318C36.3482 50.4578 36.5542 50.9518 36.7782 51.4058C37.4492 52.7638 38.2522 53.7158 39.0852 54.1578V49.6508C38.0992 49.6908 37.1212 49.7848 36.1632 49.9318ZM41.2012 49.6508V54.1578C42.0352 53.7158 42.8372 52.7638 43.5072 51.4058C43.7322 50.9498 43.9392 50.4558 44.1232 49.9318C43.1652 49.7848 42.1862 49.6908 41.2012 49.6508ZM40.1392 56.5538C36.6402 56.5538 33.3502 55.2318 30.8282 52.8008C28.1772 50.2468 26.7192 46.8128 26.7192 43.1308C26.7192 37.0928 30.7752 31.7668 36.5852 30.1808C40.6562 29.0638 44.9212 29.8928 48.2832 32.4568C51.6412 35.0188 53.5682 38.9088 53.5682 43.1308C53.5682 50.3818 47.8952 56.2748 40.6542 56.5438C40.4822 56.5508 40.3112 56.5538 40.1392 56.5538Z" fill="#00ADBD"/>
</svg>
