<svg width="79" height="79" viewBox="0 0 79 79" fill="none" xmlns="http://www.w3.org/2000/svg">
<path fill-rule="evenodd" clip-rule="evenodd" d="M11.5083 70.6501L12.9083 61.5901L12.9313 61.4591C13.3923 58.8011 15.2063 56.5161 17.7833 55.3451C19.4823 54.5751 22.7633 53.0771 25.8243 51.6291L28.2163 50.4851C28.6483 50.2751 29.0623 50.0731 29.4533 49.8781C30.6843 51.0821 34.6093 54.4801 39.8113 54.5541C39.8693 54.5551 39.9273 54.5551 39.9863 54.5551C43.5623 54.5551 46.9453 52.9601 50.0573 49.8431C50.7323 50.1731 51.4683 50.5261 52.2473 50.8951L54.6573 52.0201C57.4103 53.2931 60.1883 54.5421 61.7073 55.2211C64.2913 56.3761 66.1183 58.6511 66.5963 61.3121L68.0703 70.4891L11.5083 70.6501ZM33.2083 46.7061C33.7943 45.6501 34.1163 44.4721 34.2663 43.3121C35.9403 44.4461 37.8373 45.1641 39.9753 45.1641C41.9393 45.1641 43.6793 44.6111 45.2183 43.7101C45.4833 45.2541 46.0273 46.5381 46.8223 47.5481C47.1353 47.9441 47.4953 48.2761 47.8193 48.5371C45.3033 50.8971 42.6693 52.0801 39.8653 52.0541C36.1313 52.0081 33.0743 49.7551 31.6953 48.5421C32.9263 47.4871 33.2083 46.7061 33.2083 46.7061ZM27.0493 27.2411C27.4343 25.3331 29.5463 22.8861 31.6973 22.4011C34.5273 21.6321 40.4333 23.0611 43.8033 17.8171C46.0773 18.5861 48.4683 16.9091 50.6283 20.5671C51.3863 22.2541 51.5023 24.0271 51.8233 26.0681C51.7953 26.5481 52.1523 27.3851 52.5393 27.7171C51.6763 30.7771 47.8153 42.6641 39.9753 42.6641C31.9863 42.6641 27.5683 28.9531 27.0493 27.2411ZM71.8583 60.5641L71.8283 60.3931C71.1723 56.6761 68.6543 53.4991 65.0923 51.8951C62.4373 50.6991 55.6613 48.4811 52.2473 46.7441C49.0563 45.1211 47.8163 42.5671 47.8173 41.7081C50.5043 39.0941 52.3623 35.4731 53.5373 32.5441C53.6073 32.6101 53.6893 32.6541 53.7943 32.6541C56.2723 32.6541 57.5083 29.0161 57.5083 27.6571C57.5083 26.3551 56.7123 25.3001 55.7103 25.2141C56.5643 23.8611 56.7823 22.5491 56.7823 22.5491C57.5993 18.1721 56.5553 15.2901 54.8063 12.6881C52.9393 9.8501 50.1613 7.8521 46.5443 8.2661C45.6813 6.7051 44.2953 5.7491 42.6253 5.2621C41.7893 5.0191 40.9173 4.9381 40.0463 4.9281C38.9133 4.9141 37.7183 4.9821 36.5393 5.0721C30.9173 5.5001 26.4773 8.4131 24.3483 12.5831C22.7433 15.7181 21.9873 19.3841 22.9183 22.5791C23.2043 23.5601 23.6263 24.4421 24.0783 25.2081C23.0523 25.2641 22.2333 26.3341 22.2333 27.6571C22.2333 29.0161 23.4693 32.6541 25.9463 32.6541C26.1073 32.6541 26.2183 32.5641 26.2983 32.4191C27.5073 35.2171 29.3683 38.7181 31.9333 41.3451C31.9463 43.0301 31.6533 45.5581 29.9263 46.8011C29.7733 46.9121 29.6073 47.0131 29.4303 47.1041C25.9933 48.8631 19.4503 51.8541 16.7973 53.0581C13.4653 54.5701 11.1163 57.5471 10.5173 61.0091L8.63733 73.1471L58.0823 73.0071H73.8643L71.8583 60.5641Z" fill="#002F6C"/>
<path fill-rule="evenodd" clip-rule="evenodd" d="M47.804 73.0483H58.665V60.4973H47.804V73.0483Z" fill="#00ADBD"/>
</svg>
