<svg width="79" height="79" viewBox="0 0 79 79" fill="none" xmlns="http://www.w3.org/2000/svg">
<path fill-rule="evenodd" clip-rule="evenodd" d="M51.9654 34.9308C50.2334 34.9308 48.8274 36.3338 48.8274 38.0688C48.8274 39.8038 50.2334 41.2058 51.9654 41.2058C53.6964 41.2058 55.1024 39.8038 55.1024 38.0688C55.1024 36.3338 53.6964 34.9308 51.9654 34.9308Z" fill="#002F6C"/>
<path fill-rule="evenodd" clip-rule="evenodd" d="M68.6178 51.1883L60.6428 55.3043C60.2488 55.5083 59.9918 55.9063 59.9688 56.3493L59.3648 67.8133C59.3418 68.2473 59.1818 68.6573 58.9168 68.9653C58.8418 69.0523 58.7588 69.1423 58.6698 69.2313C58.2288 69.6693 57.6188 69.8493 56.9908 69.7253C56.3348 69.5943 55.7898 69.1513 55.5318 68.5403L52.6948 61.7913C52.5598 61.4713 52.2978 61.2213 51.9718 61.1023C51.6428 60.9813 51.2818 61.0043 50.9728 61.1633C50.8338 61.2333 36.8148 68.2213 22.6948 61.3383C22.3828 61.1863 22.0208 61.1703 21.6968 61.2953C21.3728 61.4203 21.1158 61.6753 20.9868 61.9973L18.2088 68.9403C18.0288 69.3923 17.6648 69.7513 17.1508 69.9503C16.5768 70.1713 15.9508 70.1063 15.4348 69.7713C14.9178 69.4373 14.6038 68.8923 14.5738 68.2773L13.9078 55.0883C13.8948 54.8353 13.8038 54.5903 13.6498 54.3893C13.2458 53.8623 3.97678 41.4153 17.6968 28.9813L17.9298 28.9153C19.2038 30.0743 20.6978 30.9933 22.3348 31.6133C21.1628 32.3043 19.9808 33.0893 18.7998 34.0033C18.2538 34.4263 18.1538 35.2103 18.5758 35.7573C18.8228 36.0753 19.1928 36.2423 19.5658 36.2423C19.8328 36.2423 20.1018 36.1563 20.3298 35.9803C30.5638 28.0623 41.2208 29.8463 41.3778 29.8723C42.0618 29.9993 42.7078 29.5473 42.8328 28.8693C42.9578 28.1903 42.5088 27.5393 41.8298 27.4133C41.6668 27.3833 40.2358 27.1363 37.9838 27.1633C39.0088 25.8453 39.8068 24.3433 40.2988 22.7063L43.1428 23.5383C44.8868 24.0483 46.7918 23.7213 48.2388 22.6633C49.4488 21.7773 51.7298 20.1083 53.3238 17.5423C54.2288 19.0513 55.2648 21.8283 54.4008 25.9463C54.1918 26.9493 54.5318 28.0013 55.4128 29.0753L61.8088 36.8723C62.2828 37.4503 62.8468 37.9413 63.4818 38.3323L68.6178 41.4863V51.1883ZM15.9178 18.7673C15.9178 12.8673 20.7178 8.06625 26.6178 8.06625C32.5188 8.06625 37.3188 12.8673 37.3188 18.7673C37.3188 24.6673 32.5188 29.4683 26.6178 29.4683C20.7178 29.4683 15.9178 24.6673 15.9178 18.7673ZM73.5218 40.7223L67.7908 37.2023C67.3918 36.9573 67.0388 36.6483 66.7418 36.2863L60.3468 28.4893C59.9268 27.9793 59.8138 27.6223 59.8478 27.4593C61.5238 19.4673 54.2958 14.4703 54.1068 14.3043C53.8538 14.0823 53.5248 13.9793 53.1958 14.0013C53.0688 13.9923 52.9408 13.9953 52.8148 14.0243C52.4208 14.1173 52.0958 14.3963 51.9428 14.7713C50.7398 17.7353 48.1528 19.6283 46.7628 20.6453C45.9388 21.2483 44.8498 21.4313 43.8458 21.1393L40.7978 20.2473C40.8498 19.7603 40.8808 19.2683 40.8808 18.7683C40.8808 11.1963 34.7208 5.03625 27.1488 5.03625C19.5768 5.03625 13.4168 11.1963 13.4168 18.7683C13.4168 21.8533 14.4518 24.6943 16.1768 26.9893C13.9098 29.0213 12.2018 31.0653 10.9388 33.0783C9.40077 32.1703 7.36577 30.6693 6.91877 29.4943C6.67477 28.8483 5.95077 28.5243 5.30677 28.7693C4.66077 29.0143 4.33677 29.7363 4.58177 30.3813C5.39377 32.5183 8.32378 34.4413 9.72678 35.2653C4.98678 45.1233 10.2098 53.7763 11.4288 55.5743L12.0758 68.4033C12.1478 69.8283 12.8758 71.0913 14.0738 71.8693C14.1238 71.9023 14.1938 71.9393 14.2738 71.9803C14.6188 72.1803 14.9808 72.3323 15.3568 72.4303C16.7788 72.9593 18.8528 73.5783 19.4438 73.5783C19.9958 73.5783 20.5588 73.4733 21.1128 73.2593C22.2118 72.8343 23.0928 71.9623 23.5308 70.8693L25.7748 65.2593C26.2758 65.4223 26.7758 65.5843 27.2728 65.7213C37.3538 69.5732 46.7878 67.4753 51.6658 65.7943L53.2268 69.5093C53.8068 70.8883 55.0328 71.8853 56.5048 72.1773C56.6428 72.2053 56.7818 72.2193 56.9208 72.2343C56.9298 72.2363 56.9378 72.2393 56.9478 72.2413C58.3858 72.5263 62.4038 73.0233 63.4298 72.0063C63.5668 71.8713 63.6928 71.7333 63.8098 71.5973C64.4358 70.8713 64.8088 69.9293 64.8608 68.9453L65.4278 58.1973L73.4408 54.0613C73.8568 53.8463 74.1178 53.4173 74.1178 52.9503V41.7873C74.1178 41.3533 73.8918 40.9493 73.5218 40.7223Z" fill="#002F6C"/>
<path fill-rule="evenodd" clip-rule="evenodd" d="M28.3458 22.4246C28.1268 22.6826 27.8538 22.8606 27.5318 22.9656V19.7016C27.9238 19.8466 28.2208 20.0326 28.4108 20.2676C28.6418 20.5506 28.7578 20.8886 28.7578 21.2796C28.7578 21.7186 28.6208 22.0996 28.3458 22.4246ZM25.1538 16.0926C24.9668 15.8266 24.8728 15.5386 24.8728 15.2296C24.8728 14.8896 24.9748 14.5806 25.1798 14.2996C25.3628 14.0496 25.6038 13.8676 25.8978 13.7476V16.6846C25.5728 16.5286 25.3218 16.3326 25.1538 16.0926ZM30.1438 18.6366C29.6668 18.0696 28.7928 17.6026 27.5318 17.2336V13.8796C27.9448 14.1456 28.2158 14.5576 28.3278 15.1326L30.5468 14.8426C30.3948 13.9666 30.0438 13.2666 29.4948 12.7426C28.9978 12.2706 28.3378 11.9746 27.5318 11.8386V10.9236H27.2758H26.0048H25.8978V11.8106C24.9438 11.9256 24.1708 12.2906 23.5878 12.9186C22.9828 13.5706 22.6808 14.3756 22.6808 15.3346C22.6808 16.2816 22.9478 17.0876 23.4828 17.7506C24.0008 18.3926 24.8068 18.8756 25.8978 19.2036V22.8506C25.6238 22.6966 25.3728 22.4746 25.1448 22.1746C24.8878 21.8356 24.7118 21.4316 24.6188 20.9646L22.3298 21.2096C22.5058 22.3616 22.9088 23.2536 23.5398 23.8846C24.1478 24.4926 24.9368 24.8586 25.8978 24.9956V26.6116H26.0048H27.2758H27.5318V24.9256C28.5488 24.7356 29.3548 24.3086 29.9458 23.6386C30.5858 22.9146 30.9068 22.0226 30.9068 20.9646C30.9068 20.0176 30.6518 19.2406 30.1438 18.6366Z" fill="#00ADBD"/>
</svg>
