<svg width="79" height="79" viewBox="0 0 79 79" fill="none" xmlns="http://www.w3.org/2000/svg">
<path fill-rule="evenodd" clip-rule="evenodd" d="M36.081 29.2482C36.081 30.7182 35.4971 32.128 34.4576 33.1674C33.4182 34.2068 32.0085 34.7908 30.5385 34.7908C29.0685 34.7908 27.6588 34.2068 26.6194 33.1674C25.5799 32.128 24.996 30.7182 24.996 29.2482C24.996 27.7783 25.5799 26.3685 26.6194 25.3291C27.6588 24.2897 29.0685 23.7057 30.5385 23.7057C32.0085 23.7057 33.4182 24.2897 34.4576 25.3291C35.4971 26.3685 36.081 27.7783 36.081 29.2482ZM29.906 49.6082C29.6607 51.0482 28.8534 52.3318 27.6617 53.1766C26.47 54.0213 24.9915 54.3581 23.5515 54.1127C22.1115 53.8674 20.828 53.0601 19.9832 51.8684C19.1384 50.6767 18.8017 49.1982 19.047 47.7582C19.2923 46.3183 20.0996 45.0347 21.2913 44.1899C22.483 43.3452 23.9615 43.0084 25.4015 43.2537C26.8415 43.4991 28.1251 44.3064 28.9698 45.4981C29.8146 46.6898 30.1513 48.1683 29.906 49.6082ZM48.4 40.4212C48.7616 41.0477 48.9963 41.7391 49.0906 42.4562C49.185 43.1733 49.1372 43.902 48.9499 44.6006C48.7627 45.2993 48.4397 45.9542 47.9993 46.5279C47.559 47.1017 47.0099 47.5832 46.3835 47.9447C45.7571 48.3063 45.0656 48.541 44.3485 48.6354C43.6314 48.7297 42.9027 48.6819 42.2041 48.4947C40.7932 48.1165 39.5903 47.1933 38.86 45.9282C38.1297 44.6632 37.9319 43.1598 38.3101 41.7489C38.6883 40.3379 39.6114 39.135 40.8765 38.4047C42.1416 37.6745 43.645 37.4767 45.0559 37.8548C46.4668 38.233 47.6697 39.1562 48.4 40.4212Z" fill="#00ADBD"/>
<path fill-rule="evenodd" clip-rule="evenodd" d="M64.4339 50.1793C64.1826 50.506 63.869 50.7797 63.5113 50.9846C63.1536 51.1895 62.7589 51.3216 62.3499 51.3733C62.1581 51.3952 61.9646 51.3992 61.7719 51.3853C61.7139 51.3813 61.6589 51.3733 61.6019 51.3663C61.4671 51.3515 61.3335 51.3275 61.2019 51.2943C61.1459 51.2813 61.0899 51.2683 61.0369 51.2513C60.8727 51.2023 60.7128 51.1397 60.5589 51.0643C60.1819 50.8778 59.846 50.6177 59.5712 50.2993C59.2964 49.9808 59.0882 49.6105 58.9589 49.2103C58.8997 49.0298 58.8568 48.8444 58.8309 48.6563C58.7382 47.9401 58.6269 47.2266 58.4969 46.5163C57.6925 42.0041 56.125 37.6619 53.8619 33.6763C51.5859 29.6749 48.6281 26.1022 45.1219 23.1193C44.3577 22.4691 43.568 21.8493 42.7549 21.2613C42.1092 20.7955 41.4489 20.3503 40.7749 19.9263C40.7389 19.9033 40.7019 19.8773 40.6629 19.8543C40.0143 19.4493 39.3534 19.0644 38.6809 18.7003L38.4729 18.5903C37.1683 17.8944 35.821 17.2818 34.4389 16.7563C34.3369 16.7183 34.2339 16.6783 34.1309 16.6413C33.4764 16.3996 32.814 16.1795 32.1449 15.9813C32.0719 15.9583 31.9969 15.9413 31.9239 15.9183C31.3129 15.7432 30.6966 15.5871 30.0759 15.4503C29.9789 15.4303 29.8829 15.4053 29.7879 15.3843C28.3795 15.0906 26.9513 14.9017 25.5149 14.8193C24.8594 14.7836 24.2316 14.5431 23.7199 14.1317C23.2083 13.7204 22.8386 13.1588 22.6629 12.5263C22.6159 12.3739 22.5824 12.2176 22.5629 12.0593C22.5368 11.8812 22.5278 11.7011 22.5359 11.5213C22.5546 11.107 22.6554 10.7005 22.8325 10.3256C23.0097 9.95065 23.2597 9.61469 23.5679 9.33727C23.8738 9.06107 24.2316 8.84852 24.6205 8.71203C25.0094 8.57554 25.4215 8.51783 25.8329 8.54227C47.3859 9.63627 62.7049 29.3923 65.0649 47.8593C65.1185 48.2685 65.0903 48.6843 64.982 49.0825C64.8737 49.4808 64.6874 49.8535 64.4339 50.1793ZM10.4279 62.6533L23.4479 16.8573C24.0479 17.1173 24.6979 17.2793 25.3879 17.3143C38.7059 17.9913 53.9279 30.0183 56.3509 48.9713C56.4289 49.5793 56.6139 50.1493 56.8679 50.6773L10.4279 62.6533ZM48.9139 14.8733C46.4599 12.9463 37.5899 6.63727 25.9629 6.04627C25.2234 6.00465 24.4829 6.11005 23.7843 6.35635C23.0857 6.60266 22.4429 6.985 21.8929 7.48127C21.3401 7.97846 20.8915 8.58044 20.5731 9.25231C20.2547 9.92418 20.0728 10.6526 20.0379 11.3953C19.9675 12.8132 20.4367 14.2052 21.3509 15.2913L7.53995 63.8603C7.44495 64.2103 7.44195 64.5993 7.80795 65.0323L11.0039 68.6303C11.1565 68.8022 11.3536 68.9287 11.5734 68.9957C11.7933 69.0628 12.0274 69.0678 12.2499 69.0103L61.6079 56.2823C61.6229 56.2783 61.6329 56.2663 61.6479 56.2623C62.6129 57.0333 64.3009 57.6493 65.8569 57.4523C66.5924 57.3602 67.3024 57.1232 67.9457 56.755C68.589 56.3868 69.153 55.8948 69.6049 55.3073C70.0603 54.7222 70.395 54.0527 70.5898 53.3375C70.7847 52.6222 70.8357 51.8754 70.7399 51.1403C69.1339 38.5763 60.7729 23.9783 48.9129 14.8733H48.9139Z" fill="#002F6C"/>
</svg>
