<svg width="79" height="79" viewBox="0 0 79 79" fill="none" xmlns="http://www.w3.org/2000/svg">
<path fill-rule="evenodd" clip-rule="evenodd" d="M14.932 12.5453C13.467 21.8153 15.91 26.6893 19.506 29.1633C27.86 34.9123 38.027 24.1233 31.793 16.1263C29.109 12.6823 24.101 10.5323 14.933 12.5453" fill="#00ADBD"/>
<path fill-rule="evenodd" clip-rule="evenodd" d="M19.861 49.9192H56.558V45.3612H19.861V49.9192ZM52.158 52.7492L50.505 69.8692H25.915L24.23 52.4192H43.429L52.193 52.4752L52.158 52.7492ZM43.98 11.9982C46.025 9.02624 49.544 7.53224 54.472 7.53224C55.463 7.53224 56.528 7.61024 57.632 7.73024C55.434 9.38824 49.657 14.1082 44.586 21.3762C42.545 19.0252 41.636 15.4032 43.98 11.9982ZM58.864 9.93124C59.639 15.8392 58.422 20.0932 55.219 22.5902C52.241 24.9122 48.922 24.5342 46.488 23.0052C51.199 16.1842 56.606 11.6612 58.864 9.93124ZM57.718 42.8612H38.581C39.459 36.0362 42.013 30.0862 45.072 25.1652C45.718 25.5552 46.478 25.8922 47.308 26.1652C47.785 26.3362 48.274 26.4772 48.777 26.5762C50.271 26.9272 51.81 27.1032 53.039 27.1032C55.053 27.1032 57.166 26.4552 59.165 24.8972C63.703 21.3602 65.06 15.2652 63.198 6.78324C63.1444 6.53742 63.0177 6.31354 62.8346 6.14098C62.6515 5.96841 62.4205 5.85522 62.172 5.81624C60.9354 5.6153 59.6944 5.44225 58.45 5.29724C50.578 4.31924 45.023 6.09124 41.931 10.5802C38.641 15.3622 40.155 20.4452 43.172 23.5122C40.386 27.9182 37.96 33.1232 36.691 39.0462C35.408 34.3752 33.482 30.5452 31.384 27.5082C30.827 28.1612 30.112 28.7602 29.408 29.2492C32.19 33.3462 34.041 37.9042 34.968 42.8612H18.611C17.921 42.8612 17.361 43.4212 17.361 44.1112V51.1692C17.361 51.8592 17.921 52.4192 18.611 52.4192H21.719L23.535 71.2392C23.573 71.6282 23.797 71.9432 24.102 72.1452C24.416 72.4512 25.363 73.0352 28.028 73.0352H54.888C55.532 73.0352 56.071 72.5462 56.132 71.9052L57.961 52.9682L61.056 53.0852C61.747 53.0852 62.306 52.5252 62.306 51.8352V44.7772C62.306 44.3142 62.043 43.9262 61.668 43.7102C60.745 43.2782 59.192 42.8612 57.718 42.8612Z" fill="#002F6C"/>
</svg>
