<svg width="79" height="79" viewBox="0 0 79 79" fill="none" xmlns="http://www.w3.org/2000/svg">
<path fill-rule="evenodd" clip-rule="evenodd" d="M19.141 35.8352L19.014 34.5922C18.565 30.2122 19.494 26.6422 21.776 23.9822C25.34 19.8292 30.873 19.5052 31.107 19.4922L32.355 19.4302L32.481 21.9272L31.235 21.9892C31.131 21.9962 26.492 22.3092 23.659 25.6282C21.851 27.7452 21.125 30.6752 21.501 34.3362L21.628 35.5802L19.141 35.8352Z" fill="#00ADBD"/>
<path fill-rule="evenodd" clip-rule="evenodd" d="M61.776 68.7803C61.1798 68.7819 60.5892 68.6653 60.0384 68.4371C59.4876 68.209 58.9875 67.8739 58.567 67.4513L42.29 51.1743C42.1035 50.9872 41.8624 50.8641 41.6015 50.8228C41.3405 50.7814 41.0732 50.824 40.838 50.9443C37.7653 52.5258 34.3588 53.349 30.903 53.3453C18.826 53.3453 9 43.5183 9 31.4403C9 19.3623 18.826 9.53625 30.903 9.53625C42.983 9.53625 52.808 19.3623 52.808 31.4403C52.808 35.8283 51.515 40.0633 49.068 43.6863C48.9057 43.9268 48.8321 44.2162 48.8598 44.505C48.8875 44.7939 49.0149 45.064 49.22 45.2693L64.984 61.0333C65.407 61.4535 65.7424 61.9536 65.9707 62.5044C66.199 63.0553 66.3157 63.646 66.314 64.2423C66.3157 64.8385 66.199 65.4292 65.9707 65.9801C65.7424 66.5309 65.407 67.031 64.984 67.4513C64.5638 67.874 64.0639 68.2091 63.5132 68.4373C62.9625 68.6654 62.3721 68.782 61.776 68.7803ZM55.5 44.2153C57.8643 40.3741 59.1129 35.9507 59.106 31.4403C59.106 17.0713 47.51 7.03625 30.903 7.03625C17.447 7.03625 6.5 17.9833 6.5 31.4403C6.5 44.8973 17.447 55.8453 30.903 55.8453C34.47 55.8453 37.914 55.0813 41.153 53.5723L56.799 69.2193C57.8537 70.276 59.2197 70.9665 60.696 71.1893C62.212 71.3803 64.269 71.3423 65.712 71.2723C67.056 71.1243 69.022 70.7493 70.55 69.2193C71.2058 68.5673 71.7258 67.7917 72.0797 66.9374C72.4337 66.0831 72.6146 65.167 72.612 64.2423C72.6146 63.3175 72.4337 62.4015 72.0797 61.5471C71.7258 60.6928 71.2058 59.9172 70.55 59.2653L55.5 44.2153Z" fill="#002F6C"/>
<path fill-rule="evenodd" clip-rule="evenodd" d="M30.805 47.2792C22.125 47.2792 15.065 40.2192 15.065 31.5402C15.065 22.8612 22.125 15.8002 30.805 15.8002C39.484 15.8002 46.544 22.8612 46.544 31.5402C46.544 40.2182 39.484 47.2802 30.804 47.2802L30.805 47.2792ZM30.804 13.3002C20.748 13.3002 12.566 21.4822 12.566 31.5402C12.566 41.5972 20.748 49.7802 30.805 49.7802C40.862 49.7802 49.044 41.5972 49.044 31.5402C49.044 21.4822 40.862 13.3002 30.804 13.3002Z" fill="#002F6C"/>
</svg>
