<svg width="79" height="79" viewBox="0 0 79 79" fill="none" xmlns="http://www.w3.org/2000/svg">
<path fill-rule="evenodd" clip-rule="evenodd" d="M40.615 40.3793C40.6155 39.8383 40.4752 39.3065 40.2077 38.8362C39.9402 38.366 39.5549 37.9735 39.0897 37.6974C38.6244 37.4213 38.0953 37.2711 37.5544 37.2617C37.0134 37.2523 36.4794 37.3839 36.0048 37.6436C35.5302 37.9032 35.1314 38.282 34.8477 38.7427C34.564 39.2033 34.4051 39.7299 34.3868 40.2706C34.3685 40.8113 34.4912 41.3474 34.7431 41.8262C34.9949 42.3051 35.3671 42.71 35.823 43.0013V45.6503C35.823 46.0952 35.9997 46.5219 36.3143 46.8365C36.6289 47.151 37.0556 47.3278 37.5005 47.3278C37.9454 47.3278 38.3721 47.151 38.6867 46.8365C39.0013 46.5219 39.178 46.0952 39.178 45.6503V43.0003C39.6185 42.7194 39.9811 42.332 40.2323 41.8739C40.4834 41.4158 40.6151 40.9017 40.615 40.3793Z" fill="#00ADBD"/>
<path fill-rule="evenodd" clip-rule="evenodd" d="M31.561 30.9152C31.561 27.4542 34.225 24.6382 37.499 24.6382C40.775 24.6382 43.439 27.4542 43.439 30.9152V31.7012H31.562V30.9152H31.561ZM46.858 34.2012V46.0882C46.8566 47.2289 46.403 48.3225 45.5965 49.1291C44.7901 49.9358 43.6966 50.3897 42.556 50.3912H32.446C31.3051 50.3899 30.2112 49.9362 29.4044 49.1295C28.5976 48.3229 28.1436 47.2292 28.142 46.0882V34.2012H46.858ZM29.062 31.7012H25.642V46.0882C25.6438 47.8919 26.3612 49.6212 27.6366 50.8966C28.912 52.1721 30.6413 52.8894 32.445 52.8912H42.555C44.3587 52.8894 46.088 52.1721 47.3634 50.8966C48.6388 49.6212 49.3561 47.8919 49.358 46.0882V31.7012H45.94V30.9152C45.94 26.0752 42.154 22.1382 37.5 22.1382C32.846 22.1382 29.061 26.0752 29.061 30.9152V31.7012H29.062Z" fill="#002F6C"/>
<path fill-rule="evenodd" clip-rule="evenodd" d="M61.626 35.5273C61.626 50.3133 51.194 63.9893 37.314 67.4713C23.432 63.9893 13 50.3123 13 35.5273V19.7193L37.314 8.77925L61.626 19.7193V35.5273ZM58.42 15.5343L37.314 6.03625L10.5 18.1023V35.5273C10.5 42.8013 12.858 49.8233 16.845 55.6653L16.892 55.7333C17.1587 56.1233 17.4331 56.5081 17.715 56.8873C20.874 61.1373 24.919 64.6823 29.552 67.1333C32.99 69.0777 36.6822 70.5337 40.522 71.4593L40.813 71.5293L41.104 71.4593C56.224 67.8343 67.625 53.0243 67.625 37.0103V19.5873L58.42 15.5343Z" fill="#002F6C"/>
</svg>
