<svg width="79" height="79" viewBox="0 0 79 79" fill="none" xmlns="http://www.w3.org/2000/svg">
<path fill-rule="evenodd" clip-rule="evenodd" d="M30.923 24.3882L28.204 25.6562L37.502 45.5942L38.795 44.9912H54.713V41.9912H39.131L30.923 24.3882Z" fill="#002F6C"/>
<path fill-rule="evenodd" clip-rule="evenodd" d="M39.3218 68.6816C24.8338 68.6816 13.0468 56.8946 13.0468 42.4066C13.0468 27.9176 24.8338 16.1306 39.3218 16.1306C53.8098 16.1306 65.5968 27.9176 65.5968 42.4066C65.5968 56.8946 53.8098 68.6816 39.3218 68.6816ZM63.5038 26.9116C61.7048 24.1086 59.4258 21.6466 56.7968 19.6186L58.3908 16.7416L61.4528 18.4386L63.8768 14.0656L53.3818 8.24756L50.9568 12.6206L54.0178 14.3176L52.5788 16.9146C48.5968 14.8256 44.0758 13.6306 39.2758 13.6306C23.4088 13.6306 10.4998 26.5396 10.4998 42.4066C10.4998 48.7686 12.5798 54.6526 16.0898 59.4226C21.2098 67.4006 30.1538 72.7026 40.3178 72.7026C56.1838 72.7026 69.0928 59.7946 69.0928 43.9276C69.0928 37.5656 67.0128 31.6816 63.5038 26.9116Z" fill="#002F6C"/>
<path fill-rule="evenodd" clip-rule="evenodd" d="M33.2046 4.03607V9.03607H36.7046V13.7491C38.3716 13.6021 40.0436 13.5901 41.7046 13.7211V9.03607H45.2046V4.03607H33.2046ZM39.2124 37.9912C36.4504 37.9912 34.2124 40.2302 34.2124 42.9912C34.2124 45.7522 36.4504 47.9912 39.2124 47.9912C41.9734 47.9912 44.2124 45.7522 44.2124 42.9912C44.2124 40.2302 41.9734 37.9912 39.2124 37.9912Z" fill="#00ADBD"/>
</svg>
