<svg width="78" height="78" viewBox="0 0 78 78" fill="none" xmlns="http://www.w3.org/2000/svg">
<path fill-rule="evenodd" clip-rule="evenodd" d="M68.2174 38C68.2174 34.0195 67.4202 30.2226 65.9746 26.761C65.6783 26.0529 66.0135 25.2376 66.7217 24.9412C67.4313 24.6463 68.2466 24.9802 68.543 25.6897C70.1249 29.481 71.1901 32.0453 72 36.5C74 47.5 66.7217 70.5 40.3333 72C22.6721 72 7 57 7 38C7 20.3388 21.3388 6 39 6C43.3603 6 47.5189 6.87514 51.3103 8.45705C52.0198 8.7534 52.3537 9.56869 52.0588 10.2783C51.7624 10.9864 50.9471 11.3217 50.239 11.0254C46.7774 9.57983 42.9805 8.78261 39 8.78261C22.8748 8.78261 9.78261 21.8748 9.78261 38C9.78261 54.1252 22.8748 67.2174 39 67.2174C55.1252 67.2174 68.2174 54.1252 68.2174 38ZM57.2 39C57.2 35.8682 56.4076 32.9184 55.0118 30.3452C54.6436 29.6662 54.8956 28.815 55.5746 28.4468C56.2536 28.0786 57.1048 28.3306 57.473 29.0096C59.0844 31.9804 60 35.3838 60 39C60 50.5906 50.5906 60 39 60C27.4094 60 18 50.5906 18 39C18 27.4094 27.4094 18 39 18C42.6162 18 46.0196 18.9156 48.9904 20.527C49.6694 20.8952 49.9214 21.7464 49.5532 22.4254C49.185 23.1044 48.3338 23.3564 47.6548 22.9882C45.0816 21.5924 42.1318 20.8 39 20.8C28.955 20.8 20.8 28.955 20.8 39C20.8 49.045 28.955 57.2 39 57.2C49.045 57.2 57.2 49.045 57.2 39Z" fill="#002F6C"/>
<path fill-rule="evenodd" clip-rule="evenodd" d="M58.99 22.4659L41.2427 40.2131C40.4617 40.9942 39.1953 40.9942 38.4143 40.2131C37.6332 39.4321 37.6332 38.1658 38.4143 37.3847L55.9954 19.8036L54.8491 16.4269C54.6043 15.7058 54.7902 14.9082 55.3287 14.3697L62.5564 7.14207C63.064 6.63438 63.9254 6.81126 64.192 7.47793L66 11.9999L70.7379 13.9797C71.3943 14.254 71.5625 15.1065 71.0595 15.6095L63.7982 22.8707C63.268 23.401 62.4856 23.5901 61.7717 23.3605L58.99 22.4659ZM45.4286 38.9999C45.4286 42.5485 42.5486 45.4285 39 45.4285C35.4514 45.4285 32.5714 42.5485 32.5714 38.9999C32.5714 35.4514 35.4514 32.5714 39 32.5714C39.7097 32.5714 40.2857 31.9954 40.2857 31.2857C40.2857 30.5759 39.7097 29.9999 39 29.9999C34.0333 29.9999 30 34.0332 30 38.9999C30 43.9667 34.0333 47.9999 39 47.9999C43.9667 47.9999 48 43.9667 48 38.9999C48 38.2902 47.424 37.7142 46.7143 37.7142C46.0046 37.7142 45.4286 38.2902 45.4286 38.9999Z" fill="#00ADBD"/>
</svg>
