<svg width="79" height="79" viewBox="0 0 79 79" fill="none" xmlns="http://www.w3.org/2000/svg">
<path fill-rule="evenodd" clip-rule="evenodd" d="M55.996 43.4662L52.996 43.3962C52.999 43.2762 53 43.1562 53 43.0362C53 33.9092 46.012 26.4132 37.095 25.6082L37.025 22.5922C47.635 23.3722 56 32.2262 56 43.0362C56 43.1802 55.999 43.3232 55.996 43.4662ZM73.99 43.8852L70.992 43.8152C70.997 43.5552 71 43.2962 71 43.0362C71 23.8232 55.737 8.17525 36.675 7.55625L36.605 4.55225C57.357 5.13625 74 22.1422 74 43.0362C74 43.3202 73.997 43.6022 73.99 43.8852Z" fill="#00ADBD"/>
<path fill-rule="evenodd" clip-rule="evenodd" d="M64.9929 43.6762L61.9939 43.6062C61.9979 43.4162 61.9999 43.2262 61.9999 43.0362C61.9999 28.8652 50.8769 17.2922 36.8849 16.5722L36.8149 13.5652C52.4969 14.2522 64.9999 27.1852 64.9999 43.0362C64.9999 43.2502 64.9979 43.4632 64.9929 43.6762Z" fill="#00ADBD"/>
<path fill-rule="evenodd" clip-rule="evenodd" d="M56.291 62.7653L54.033 64.9513C53.2305 65.7255 52.3876 66.4569 51.508 67.1423L51.389 67.2483C51.043 67.5963 49.826 68.3163 47.691 68.5573C43.422 69.0413 34.311 67.7983 21.432 54.0343C7.57598 39.2393 8.52198 29.9283 9.57198 26.6123C9.96007 25.4044 10.6886 24.3342 11.67 23.5303L15.297 20.0353C15.3584 19.9748 15.4312 19.9271 15.5112 19.8951C15.5912 19.863 15.6767 19.8471 15.7629 19.8484C15.8491 19.8497 15.9341 19.8682 16.0131 19.9026C16.0921 19.9371 16.1634 19.987 16.223 20.0493L25.379 29.5843L25.377 29.5953L25.818 30.0563C26.053 30.2993 26.113 30.7253 25.811 31.0173L21.039 35.5973L21.035 35.5993C18.23 38.3053 21.131 42.0453 22.687 44.0533C25.127 47.2133 28.247 50.4633 31.467 53.2063C34.844 56.0783 37.043 57.7973 39.15 57.5673C39.904 57.4813 40.59 57.1433 41.168 56.5813L46.041 52.0633C46.1469 51.9605 46.2842 51.8961 46.431 51.8803C46.5292 51.8686 46.6288 51.8803 46.7217 51.9146C46.8145 51.9488 46.8979 52.0046 46.965 52.0773L56.303 61.8013C56.3657 61.8652 56.4152 61.941 56.4485 62.0241C56.4819 62.1073 56.4985 62.1962 56.4973 62.2858C56.4962 62.3753 56.4774 62.4638 56.442 62.5461C56.4066 62.6284 56.3553 62.7029 56.291 62.7653ZM53.775 50.3513C53.2202 49.7682 52.4593 49.4254 51.655 49.3963L46.492 49.3883C46.3786 49.3834 46.2651 49.3857 46.152 49.3953C45.467 49.473 44.826 49.7717 44.326 50.2463L40.806 53.5123C39.881 52.8173 38.918 52.0083 38.089 51.3033C34.995 48.6693 32.005 45.5523 29.666 42.5233C27.449 39.6633 26.918 38.2263 27.771 37.4003C30.813 34.4133 32.575 32.6733 33.057 32.1813C33.781 31.4423 33.667 29.8913 33.05 28.8773L23.023 18.3123C22.439 17.7123 21.663 17.3923 20.846 17.3693C17.28 17.3623 15.464 17.3623 15.4 17.3693C14.7063 17.4486 14.0583 17.7552 13.557 18.2413L10.087 21.5973C8.81698 22.8553 7.71298 24.2053 7.18998 25.8573C3.63998 37.0713 14.691 50.4933 19.607 55.7423C31.737 68.7043 40.99 71.1373 46.224 71.1373H51.224C51.868 71.1373 52.454 71.1003 52.974 71.0413C55.166 70.7943 57.074 70.0593 58.102 69.0713C59.024 68.3493 61.974 65.6903 63.228 64.3543C63.6906 63.8129 63.9592 63.1325 63.9911 62.421C64.023 61.7096 63.8164 61.0079 63.404 60.4273L53.775 50.3513Z" fill="#002F6C"/>
</svg>
