<svg width="79" height="79" viewBox="0 0 79 79" fill="none" xmlns="http://www.w3.org/2000/svg">
<path fill-rule="evenodd" clip-rule="evenodd" d="M9.66761 62.0981C9.66761 60.1041 11.2956 58.4881 13.3036 58.4881C15.3116 58.4881 16.9396 60.1041 16.9396 62.0981C16.9396 64.0921 15.3116 65.7081 13.3036 65.7081C11.2956 65.7081 9.66761 64.0921 9.66761 62.0981ZM6.50061 69.1881H20.0056V32.5831H6.50061V69.1881Z" fill="#00ADBD"/>
<path fill-rule="evenodd" clip-rule="evenodd" d="M66.0964 43.4608L57.3314 63.9218C56.6314 65.6018 54.9904 66.6878 53.1504 66.6878H23.7634H22.5054V33.1348C22.5054 31.9148 22.9714 30.7768 23.8204 29.9308L42.0494 11.6968L42.1614 11.8078L44.2354 13.8628C44.7994 14.4268 45.1274 15.2048 45.1404 16.0038L43.0504 34.3848H61.8484C65.5054 34.3848 66.3984 35.2778 66.3984 38.9358C66.3984 40.6538 66.2304 43.0468 66.0964 43.4608ZM65.6064 31.8848H61.8484H49.6114L51.3094 17.0918L51.3934 16.1688L51.3994 16.0558C51.3994 14.5798 50.8014 13.1358 49.7564 12.0908L47.2854 9.64377C46.8964 9.25777 46.3924 9.06277 45.8824 9.04377V9.03577H42.0924V9.04177C41.5374 9.03077 40.9804 9.23077 40.5604 9.64977L22.0534 28.1608C20.7324 29.4798 20.0054 31.2468 20.0054 33.1348V69.1878H25.0874H53.1504H56.9084C59.7594 69.1878 62.3054 67.4988 63.3924 64.8948L72.1664 44.4088C72.6274 43.2328 72.6564 38.9778 72.6564 38.9358C72.6564 33.9278 70.6134 31.8848 65.6064 31.8848Z" fill="#002F6C"/>
</svg>
