<svg width="79" height="79" viewBox="0 0 79 79" fill="none" xmlns="http://www.w3.org/2000/svg">
<path fill-rule="evenodd" clip-rule="evenodd" d="M38.5 27.0363H64.5V24.0363H38.5V27.0363Z" fill="#00ADBD"/>
<path fill-rule="evenodd" clip-rule="evenodd" d="M46.5 34.0363H63.5V31.0363H46.5V34.0363Z" fill="#00ADBD"/>
<path fill-rule="evenodd" clip-rule="evenodd" d="M67.9564 54.8318H64.4247C63.8146 51.0674 60.5691 48.1833 56.6567 48.1833C52.7474 48.1833 49.5009 51.0674 48.8908 54.8318H33.5438V19.8531C33.5438 19.176 34.0909 18.6245 34.764 18.6245H66.9148C67.4894 18.6245 67.9564 19.0953 67.9564 19.6723V54.8318ZM60.2412 60.0659C60.091 60.2048 59.9347 60.3385 59.7682 60.4601C59.6666 60.5326 59.5631 60.599 59.4565 60.6643C59.2464 60.7981 59.0302 60.9207 58.8017 61.0228C58.7358 61.0524 58.6677 61.0749 58.5997 61.1025C58.3287 61.2107 58.0485 61.3026 57.7572 61.3649C57.7297 61.3721 57.6993 61.3741 57.6698 61.3802C57.342 61.4446 57.0049 61.4834 56.6567 61.4834C56.3095 61.4834 55.9725 61.4446 55.6446 61.3802C55.6162 61.3741 55.5857 61.3721 55.5563 61.3649C55.266 61.3026 54.9868 61.2107 54.7158 61.1025C54.6488 61.0749 54.5787 61.0524 54.5137 61.0228C54.2853 60.9207 54.0681 60.7971 53.858 60.6654C53.7524 60.599 53.6488 60.5326 53.5483 60.4601C53.3818 60.3385 53.2245 60.2048 53.0732 60.0659C52.9677 59.9688 52.8661 59.8728 52.7687 59.7687V59.7676C51.8754 58.8076 51.317 57.5259 51.317 56.1094C51.317 54.7951 51.8074 53.6053 52.588 52.6708C52.6459 52.6013 52.6987 52.5288 52.7585 52.4635C52.8875 52.3246 53.0265 52.199 53.1687 52.0744C53.2722 51.9835 53.3758 51.8946 53.4864 51.8109C53.6174 51.7128 53.7524 51.6219 53.8925 51.5351C54.0356 51.4463 54.1858 51.3666 54.3381 51.2921C54.467 51.2287 54.5939 51.1654 54.729 51.1123C54.9198 51.0368 55.1188 50.9806 55.3218 50.9275C55.4335 50.8979 55.5421 50.8601 55.6578 50.8376C55.9806 50.7753 56.3116 50.7365 56.6527 50.7365C56.6547 50.7365 56.6557 50.7365 56.6567 50.7365C56.6588 50.7365 56.6598 50.7365 56.6618 50.7365C57.0029 50.7365 57.3348 50.7753 57.6577 50.8376C57.7734 50.8601 57.881 50.8979 57.9937 50.9275C58.1957 50.9806 58.3947 51.0368 58.5875 51.1123C58.7205 51.1654 58.8474 51.2287 58.9763 51.2921C59.1307 51.3666 59.2789 51.4463 59.424 51.5351C59.5631 51.6219 59.6981 51.7128 59.8291 51.8109C59.9407 51.8946 60.0433 51.9835 60.1478 52.0744C60.2889 52.199 60.428 52.3246 60.5569 52.4635C60.6178 52.5299 60.6696 52.6013 60.7275 52.6708C61.5081 53.6063 61.9985 54.7951 61.9985 56.1094C61.9985 57.6802 61.3132 59.0824 60.2412 60.0659ZM31.0059 54.8328H27.7889C27.1788 51.0684 23.9333 48.1833 20.0209 48.1833C16.1106 48.1833 12.8641 51.0684 12.255 54.8328H9.62374C9.30093 54.8328 9.038 54.5683 9.038 54.2436V39.7894C9.038 39.3329 9.20753 38.8968 9.51715 38.5608L20.0981 27.0511C20.4371 26.6824 20.9183 26.471 21.4178 26.471H31.0059V54.8328ZM23.91 59.7676V59.7687C23.8135 59.8728 23.711 59.9688 23.6064 60.0648C23.4542 60.2048 23.2978 60.3385 23.1303 60.4611C23.0298 60.5336 22.9263 60.599 22.8207 60.6654C22.6106 60.7981 22.3944 60.9207 22.1659 61.0228C22.1 61.0524 22.0319 61.0759 21.9629 61.1025C21.6929 61.2107 21.4127 61.3026 21.1213 61.3649C21.0929 61.3721 21.0635 61.3741 21.034 61.3802C20.7062 61.4446 20.3681 61.4834 20.0209 61.4834C19.6737 61.4834 19.3357 61.4446 19.0088 61.3802C18.9794 61.3741 18.9499 61.3721 18.9205 61.3649C18.6302 61.3026 18.351 61.2107 18.0789 61.1025C18.0119 61.0759 17.9429 61.0524 17.8769 61.0228C17.6485 60.9207 17.4323 60.7971 17.2222 60.6654C17.1176 60.599 17.013 60.5336 16.9135 60.4611C16.7471 60.3385 16.5887 60.2058 16.4374 60.0659C16.3319 59.9688 16.2293 59.8728 16.1329 59.7687C16.1329 59.7676 16.1319 59.7676 16.1319 59.7676C15.2385 58.8076 14.6812 57.5259 14.6812 56.1094C14.6812 55.6672 14.7492 55.2444 14.8497 54.8328C14.8497 54.8318 14.8508 54.8318 14.8508 54.8318C15.0487 54.0209 15.4335 53.2917 15.9512 52.6718C16.009 52.6024 16.0618 52.5299 16.1217 52.4635C16.2507 52.3246 16.3897 52.2 16.5308 52.0754C16.6354 51.9835 16.74 51.8946 16.8496 51.8109C16.9816 51.7128 17.1156 51.6219 17.2557 51.5362C17.3998 51.4463 17.549 51.3666 17.7023 51.2921C17.8312 51.2287 17.9581 51.1654 18.0921 51.1123C18.283 51.0368 18.484 50.9806 18.686 50.9275C18.7977 50.8979 18.9063 50.8601 19.021 50.8376C19.3438 50.7753 19.6748 50.7365 20.0169 50.7365C20.0179 50.7365 20.0199 50.7365 20.0209 50.7365C20.0219 50.7365 20.024 50.7365 20.025 50.7365C20.3671 50.7365 20.698 50.7753 21.0219 50.8376C21.1366 50.8601 21.2442 50.8979 21.3579 50.9275C21.5589 50.9806 21.7589 51.0368 21.9517 51.1123C22.0847 51.1654 22.2116 51.2287 22.3405 51.2921C22.4949 51.3666 22.6431 51.4463 22.7872 51.5351C22.9273 51.6219 23.0613 51.7128 23.1923 51.8109C23.3039 51.8946 23.4085 51.9835 23.512 52.0754C23.6531 52.2 23.7922 52.3246 23.9201 52.4635C23.982 52.5299 24.0338 52.6024 24.0917 52.6718C24.6104 53.2917 24.9952 54.0209 25.1931 54.8318V54.8328C25.2946 55.2444 25.3627 55.6672 25.3627 56.1094C25.3627 57.5259 24.8043 58.8076 23.91 59.7676ZM72.0718 20.3382C72.0728 20.328 72.0749 20.3229 72.0769 20.3137C72.0464 20.2677 72.021 20.2351 71.9916 20.1911C71.9266 20.0829 71.8556 19.9818 71.7805 19.8817C69.9461 17.1906 68.7797 16.6013 68.7797 16.6013L68.7868 16.6187C68.2406 16.2786 67.6031 16.0723 66.9148 16.0723H34.764C32.692 16.0723 31.0059 17.7687 31.0059 19.8531V23.9178H21.4178C20.2128 23.9178 19.0525 24.4284 18.2353 25.3179L7.65333 36.8277C6.90923 37.6366 6.50012 38.6885 6.50012 39.7894V54.2436C6.50012 54.8533 6.68082 55.416 6.98029 55.898L6.97014 55.897C6.97014 55.897 7.85738 57.5668 9.52629 58.9128C9.68668 59.064 9.8623 59.1937 10.0511 59.3081C10.0745 59.3244 10.0958 59.3438 10.1202 59.3602C10.1283 59.3612 10.1344 59.3581 10.1425 59.3581C10.5922 59.6114 11.1028 59.7676 11.654 59.7676H13.0387C14.3554 62.3004 16.9887 64.0366 20.0209 64.0366C23.0542 64.0366 25.6875 62.3004 27.0042 59.7676H34.4878H35.5741H49.6755C50.9922 62.3004 53.6255 64.0366 56.6567 64.0366C59.69 64.0366 62.3233 62.3004 63.64 59.7676H71.0719C71.8728 59.7676 72.5246 59.113 72.5246 58.3072V22.056C72.5246 21.4299 72.351 20.8509 72.0718 20.3382Z" fill="#002F6C"/>
</svg>
