<svg width="79" height="79" viewBox="0 0 79 79" fill="none" xmlns="http://www.w3.org/2000/svg">
<path fill-rule="evenodd" clip-rule="evenodd" d="M47.482 30.0452L45.393 27.9562L37.313 36.0362L29.233 27.9562L27.144 30.0452L35.224 38.1252L27.144 46.2052L29.233 48.2942L37.313 40.2142L45.393 48.2942L47.482 46.2052L39.402 38.1252L47.482 30.0452Z" fill="#00ADBD"/>
<path fill-rule="evenodd" clip-rule="evenodd" d="M61.626 35.5272C61.626 50.3132 51.194 63.9892 37.314 67.4712C23.432 63.9892 13 50.3122 13 35.5272V19.7192L37.313 8.77923L61.625 19.7192V35.5272H61.626ZM37.314 6.03723L10.5 18.1012V35.5262C10.5 42.8002 12.669 50.0752 17.66 56.8132C17.68 56.8382 17.697 56.8632 17.716 56.8862C20.874 61.1362 24.92 64.6812 29.552 67.1322C32.9901 69.0765 36.6822 70.5325 40.522 71.4582L40.812 71.5282L41.104 71.4582C56.224 67.8332 67.624 53.0232 67.624 37.0092V19.5872L37.314 6.03723Z" fill="#002F6C"/>
</svg>
