<svg width="79" height="79" viewBox="0 0 79 79" fill="none" xmlns="http://www.w3.org/2000/svg">
<path fill-rule="evenodd" clip-rule="evenodd" d="M69.3052 65.9013H11.5882C9.61018 65.9013 8.00018 64.2913 8.00018 62.3133V25.5233V21.9293V18.9853C8.67118 20.7183 10.0088 21.9293 11.9362 21.9293H69.3052V65.9013ZM53.8662 19.4293V11.0363H9.74818C7.40218 11.0363 5.50018 12.9383 5.50018 15.2843V19.4293V21.3833V62.3133C5.50018 65.6703 8.23118 68.4013 11.5882 68.4013H71.8052V19.4293H53.8662Z" fill="#002F6C"/>
<path fill-rule="evenodd" clip-rule="evenodd" d="M73.6484 32.6791C74.2014 32.6791 74.6484 33.1271 74.6484 33.6791V53.6791C74.6484 54.2311 74.2014 54.6791 73.6484 54.6791H56.6484C56.5014 54.6791 56.3604 54.6471 56.2344 54.5901C50.8274 53.8951 46.6484 49.2751 46.6484 43.6791C46.6484 38.0831 50.8274 33.4631 56.2344 32.7691C56.3604 32.7111 56.5014 32.6791 56.6484 32.6791H73.6484ZM57.1484 39.1791C54.6634 39.1791 52.6484 41.1941 52.6484 43.6791C52.6484 46.1641 54.6634 48.1791 57.1484 48.1791C59.6334 48.1791 61.6484 46.1641 61.6484 43.6791C61.6484 41.1941 59.6334 39.1791 57.1484 39.1791Z" fill="#00ADBD"/>
</svg>
