<svg width="79" height="79" viewBox="0 0 79 79" fill="none" xmlns="http://www.w3.org/2000/svg">
<path fill-rule="evenodd" clip-rule="evenodd" d="M47.936 52.4063H27.236C26.7232 52.4052 26.2317 52.2012 25.8689 51.8388C25.5061 51.4764 25.3016 50.9851 25.3 50.4723V24.5763C25.3016 24.0637 25.506 23.5725 25.8685 23.2101C26.2311 22.8477 26.7224 22.6436 27.235 22.6423H47.936C48.4484 22.6439 48.9394 22.8481 49.3018 23.2105C49.6641 23.5728 49.8684 24.0638 49.87 24.5763V50.4723C49.8684 50.9847 49.6641 51.4757 49.3018 51.8381C48.9394 52.2004 48.4484 52.4047 47.936 52.4063Z" fill="#00ADBD"/>
<path fill-rule="evenodd" clip-rule="evenodd" d="M53.174 51.9943C53.1727 52.9781 52.7813 53.9212 52.0856 54.6169C51.39 55.3125 50.4468 55.7039 49.463 55.7053H25.713C24.333 55.7053 23.14 54.9373 22.5 53.8153V53.8193C22.49 53.8023 22.484 53.7833 22.474 53.7663C22.374 53.5863 22.289 53.3963 22.221 53.1983C22.1791 53.084 22.1424 52.9679 22.111 52.8503C22.0949 52.7814 22.0809 52.712 22.069 52.6423C22.0248 52.429 22.0014 52.212 21.999 51.9943V23.0673C22.0006 22.0834 22.3922 21.1404 23.0881 20.4449C23.7839 19.7495 24.7272 19.3583 25.711 19.3573H49.463C50.4465 19.3588 51.3892 19.7502 52.0846 20.4456C52.78 21.1411 53.1714 22.0838 53.173 23.0673V51.9943H53.174ZM45.644 64.3993C45.5327 64.9871 45.4153 65.5738 45.292 66.1593C44.998 67.5293 43.755 68.5253 42.336 68.5253H33.009C31.589 68.5253 30.347 67.5293 30.053 66.1583C29.933 65.6043 29.819 65.0103 29.7 64.3993C29.28 62.2293 28.829 59.9043 28.01 58.2053H47.334C46.516 59.9053 46.064 62.2283 45.644 64.3993ZM29.698 10.6613C29.817 10.0513 29.932 9.45725 30.051 8.90325C30.345 7.53125 31.588 6.53625 33.007 6.53625H42.334C42.496 6.53625 42.654 6.55225 42.81 6.57725C42.902 6.59225 42.988 6.61725 43.077 6.64025C43.131 6.65325 43.186 6.66525 43.237 6.68125C43.359 6.72125 43.473 6.76625 43.586 6.81726L43.621 6.83425C44.0405 7.02692 44.4097 7.31405 44.6998 7.67315C44.9898 8.03226 45.1929 8.45362 45.293 8.90425C45.412 9.45725 45.528 10.0513 45.646 10.6613C46.066 12.8323 46.516 15.1573 47.335 16.8563H28.008C28.827 15.1573 29.278 12.8323 29.697 10.6613H29.698ZM57.275 22.1933C55.275 19.3603 53.345 18.0803 52.092 17.4733C51.652 16.0473 50.857 11.9483 50.736 11.3793C50.5658 10.615 50.2311 9.89694 49.755 9.27526C48.994 8.33626 46.321 5.30125 44.547 4.52126C43.8508 4.20735 43.0967 4.04216 42.333 4.03625H32.983C30.403 4.04725 28.143 5.87026 27.605 8.37926C27.4787 8.98044 27.358 9.5828 27.243 10.1863C26.935 11.7763 26.381 14.6313 25.643 16.0333C25.376 16.5393 25.214 16.8503 24.773 16.9353C21.793 17.3903 19.5 19.9633 19.5 23.0673V51.9943C19.5 53.3363 19.743 54.2643 20.63 55.5213C22.63 58.3543 25.089 60.0213 25.089 60.0213L25.082 60.0063C25.452 60.2763 25.852 60.5003 26.278 60.6823C26.703 62.0893 27.484 66.1123 27.605 66.6823C27.7249 67.2153 27.9248 67.7271 28.198 68.2003C28.198 68.2003 30.07 71.8553 33.575 73.4423C34.33 73.8193 35.1611 74.0187 36.005 74.0253H45.333C47.923 74.0253 50.195 72.1993 50.735 69.6823C50.855 69.1133 51.838 61.4663 53.567 61.1063C54.9979 60.8453 56.2921 60.0911 57.2246 58.9748C58.1571 57.8585 58.6689 56.4508 58.671 54.9963V26.0663C58.671 24.7163 57.779 22.9083 57.274 22.1923L57.275 22.1933Z" fill="#002F6C"/>
</svg>
