<svg width="80" height="70" viewBox="0 0 80 70" fill="none" xmlns="http://www.w3.org/2000/svg">
<g clip-path="url(#clip0_2_447)">
<path d="M78.7078 0H9.00781V70H78.7078V46.9C79.0078 46.5 79.1078 46 79.1078 45.4C79.1078 44.7 79.0078 44.2 78.7078 43.9V0Z" fill="#007CC3"/>
<path d="M9.00781 35.4H12.4078L13.2078 33.6H14.9078L15.7078 35.4H22.3078V34L22.9078 35.4H26.3078L26.9078 34V35.4H43.3078V32.4H43.6078C43.8078 32.4 43.9078 32.4 43.9078 32.8V35.4H52.4078V34.7C53.1078 35.1 54.1078 35.4 55.5078 35.4H59.1078L59.9078 33.6H61.6078L62.3078 35.4H69.0078V33.7L70.0078 35.4H75.5078V24H70.0078V25.4L69.3078 24H63.7078V25.4L63.0078 24H55.5078C54.2078 24 53.1078 24.2 52.2078 24.7V24H47.0078V24.7C46.4078 24.2 45.6078 24 44.8078 24H25.8078L24.5078 27L23.2078 24H17.2078V25.4L16.5078 24H11.4078L9.00781 29.4V35.4ZM73.7078 33.8H71.0078L67.3078 27.7V33.8H63.3078L62.5078 32H58.4078L57.7078 33.8H55.4078C54.4078 33.8 53.2078 33.6 52.6078 32.9C51.9078 32.2 51.6078 31.3 51.6078 29.8C51.6078 28.6 51.8078 27.5 52.7078 26.6C53.3078 25.9 54.3078 25.6 55.7078 25.6H57.6078V27.4H55.7078C55.0078 27.4 54.6078 27.5 54.2078 27.9C53.9078 28.2 53.6078 28.9 53.6078 29.8C53.6078 30.7 53.8078 31.3 54.1078 31.7C54.4078 32 54.9078 32.1 55.5078 32.1H56.4078L59.2078 25.6H62.0078L65.3078 33.4V25.6H68.3078L71.7078 31.3V25.6H73.7078V33.8ZM50.5078 33.8H48.5078V25.6H50.5078V33.8ZM47.4078 27.8C47.4078 29.1 46.5078 29.8 46.0078 30C46.4078 30.2 46.8078 30.4 47.0078 30.7C47.3078 31.1 47.3078 31.5 47.3078 32.2V33.8H45.3078V32.8C45.3078 32.3 45.3078 31.6 45.0078 31.2C44.7078 30.9 44.3078 30.8 43.6078 30.8H41.5078V33.8H39.5078V25.6H44.0078C45.0078 25.6 45.7078 25.6 46.4078 26C47.0078 26.4 47.4078 26.9 47.4078 27.8ZM38.2078 33.8H31.7078V25.6H38.2078V27.3H33.6078V28.8H38.1078V30.5H33.6078V32.1H38.2078V33.8ZM30.2078 33.8H28.2078V27.4L25.4078 33.8H23.7078L20.8078 27.4V33.8H16.8078L16.0078 32H11.9078L11.1078 33.8H9.00781L12.5078 25.6H15.4078L18.7078 33.4V25.6H22.0078L24.6078 31.2L27.0078 25.6H30.3078V33.8H30.2078ZM61.8078 30.3L60.5078 27L59.2078 30.3H61.8078ZM44.8078 29C44.5078 29.2 44.2078 29.2 43.8078 29.2H41.4078V27.4H43.8078C44.1078 27.4 44.5078 27.4 44.7078 27.5C45.0078 27.6 45.1078 27.9 45.1078 28.2C45.2078 28.6 45.1078 28.9 44.8078 29ZM15.3078 30.3L13.9078 27L12.6078 30.3H15.3078Z" fill="white"/>
<path d="M47.0078 42.4C47.0078 44.7 45.3078 45.1 43.6078 45.1H41.2078V47.9H37.4078L35.0078 45.2L32.5078 47.9H24.7078V39.7H32.6078L35.0078 42.4L37.5078 39.7H43.8078C45.2078 39.7 47.0078 40.2 47.0078 42.4ZM31.4078 46.2H26.6078V44.6H30.9078V42.9H26.6078V41.4H31.5078L33.6078 43.8L31.4078 46.2ZM39.2078 47.2L36.2078 43.9L39.2078 40.7V47.2ZM43.7078 43.5H41.2078V41.4H43.8078C44.5078 41.4 45.0078 41.7 45.0078 42.4C44.9078 43.2 44.4078 43.5 43.7078 43.5ZM56.9078 39.7H63.4078V41.4H58.8078V42.9H63.3078V44.6H58.8078V46.2H63.4078V47.9H56.9078V39.7ZM54.4078 44.1C54.8078 44.3 55.2078 44.5 55.4078 44.8C55.7078 45.2 55.7078 45.6 55.7078 46.3V47.9H53.7078V46.9C53.7078 46.4 53.7078 45.7 53.4078 45.3C53.1078 45 52.7078 44.9 52.0078 44.9H49.9078V47.9H47.9078V39.7H52.4078C53.4078 39.7 54.1078 39.7 54.8078 40.1C55.4078 40.5 55.8078 41 55.8078 41.9C55.8078 43.3 54.9078 43.9 54.4078 44.1ZM53.2078 43.1C52.9078 43.3 52.6078 43.3 52.2078 43.3H49.8078V41.5H52.2078C52.5078 41.5 52.9078 41.5 53.1078 41.6C53.4078 41.7 53.5078 42 53.5078 42.3C53.6078 42.7 53.5078 43 53.2078 43.1ZM70.9078 43.6C71.3078 44 71.5078 44.5 71.5078 45.3C71.5078 47.1 70.4078 47.9 68.4078 47.9H64.6078V46.1H68.4078C68.8078 46.1 69.0078 46.1 69.2078 45.9C69.3078 45.8 69.4078 45.6 69.4078 45.4C69.4078 45.2 69.3078 45 69.2078 44.9C69.1078 44.8 68.8078 44.7 68.5078 44.7C66.7078 44.6 64.4078 44.8 64.4078 42.2C64.4078 41 65.1078 39.8 67.2078 39.8H71.1078V41.5H67.5078C67.1078 41.5 66.9078 41.5 66.7078 41.6C66.5078 41.7 66.4078 41.9 66.4078 42.2C66.4078 42.5 66.6078 42.7 66.8078 42.8C67.0078 42.9 67.2078 42.9 67.6078 42.9H68.7078C69.8078 43 70.5078 43.2 70.9078 43.6ZM78.7078 46.9C78.2078 47.6 77.3078 48 76.0078 48H72.2078V46.2H76.0078C76.4078 46.2 76.6078 46.2 76.8078 46C76.9078 45.9 77.0078 45.7 77.0078 45.5C77.0078 45.3 76.9078 45.1 76.8078 45C76.7078 44.9 76.4078 44.8 76.1078 44.8C74.3078 44.7 72.0078 44.9 72.0078 42.3C72.0078 41.1 72.8078 39.9 74.8078 39.9H78.7078V38.3H75.1078C74.0078 38.3 73.2078 38.6 72.6078 39V38.3H67.2078C66.3078 38.3 65.3078 38.5 64.9078 39V38.3H55.3078V39C54.5078 38.5 53.3078 38.3 52.7078 38.3H46.4078V39C45.8078 38.4 44.5078 38.3 43.6078 38.3H36.5078L35.0078 39.9L33.5078 38.1H22.9078V49.5H33.3078L35.0078 47.7L36.6078 49.5H43.0078V46.8H43.6078C44.4078 46.8 45.4078 46.8 46.3078 46.4V49.5H51.6078V46.5H51.9078C52.2078 46.5 52.3078 46.5 52.3078 46.8V49.4H68.3078C69.3078 49.4 70.4078 49.1 71.0078 48.7V49.4H76.1078C77.2078 49.4 78.2078 49.3 79.0078 48.9V46.9H78.7078ZM78.7078 41.5H75.1078C74.7078 41.5 74.5078 41.5 74.3078 41.6C74.1078 41.7 74.0078 41.9 74.0078 42.2C74.0078 42.5 74.2078 42.7 74.4078 42.8C74.6078 42.9 74.8078 42.9 75.2078 42.9H76.3078C77.4078 42.9 78.1078 43.1 78.5078 43.6C78.6078 43.7 78.6078 43.7 78.7078 43.8V41.5Z" fill="white"/>
<path d="M5.00781 68.1H4.40781C4.30781 67.8 4.30781 67.4 4.30781 67.2C4.30781 67 4.30781 66.7 3.80781 66.7H2.90781V68H2.30781V64.7H3.80781C4.30781 64.7 4.90781 64.9 4.90781 65.6C4.90781 66 4.70781 66.2 4.50781 66.3C4.60781 66.4 4.80781 66.5 4.80781 66.9V67.5C4.80781 67.7 4.80781 67.7 5.00781 67.8V68.1ZM4.30781 65.8C4.30781 65.4 4.00781 65.3 3.80781 65.3H2.80781V66.2H3.70781C4.10781 66.3 4.30781 66.2 4.30781 65.8ZM7.00781 66.5C7.00781 64.6 5.40781 63 3.50781 63C1.60781 63 0.0078125 64.6 0.0078125 66.5C0.0078125 68.4 1.60781 70 3.50781 70C5.40781 70 7.00781 68.4 7.00781 66.5ZM6.50781 66.5C6.50781 68.1 5.20781 69.5 3.50781 69.5C1.80781 69.5 0.507812 68.2 0.507812 66.5C0.507812 64.9 1.80781 63.5 3.50781 63.5C5.20781 63.5 6.50781 64.9 6.50781 66.5Z" fill="#007CC3"/>
</g>
<defs>
<clipPath id="clip0_2_447">
<rect width="80" height="70" fill="white" transform="translate(0.0078125)"/>
</clipPath>
</defs>
</svg>
