<svg width="170" height="58" viewBox="0 0 170 58" fill="none" xmlns="http://www.w3.org/2000/svg">
<g clip-path="url(#clip0_2_445)">
<path d="M10 0H160C165.523 0 170 4.47715 170 10V48C170 53.5228 165.523 58 160 58H10C4.47715 58 0 53.5228 0 48V10C0 4.47715 4.47715 0 10 0Z" fill="#A6A6A6"/>
<path fill-rule="evenodd" clip-rule="evenodd" d="M10 1C5.02944 1 1 5.02944 1 10V48C1 52.9706 5.02944 57 10 57H160C164.971 57 169 52.9706 169 48V10C169 5.02944 164.971 1 160 1H10Z" fill="black"/>
<path d="M53.5871 12.4417C54.7048 12.361 55.7995 12.7887 56.57 13.6071C57.3405 14.4255 57.7055 15.5484 57.5646 16.6666C57.5646 19.383 56.105 20.9444 53.5871 20.9444H50.5338V12.4417H53.5871ZM51.8467 19.7419H53.4404C54.2392 19.79 55.0169 19.4734 55.5577 18.8802C56.0985 18.2869 56.3448 17.4802 56.2281 16.6839C56.3363 15.8909 56.0865 15.0908 55.547 14.5024C55.0076 13.914 54.2349 13.5989 53.4404 13.6432H51.8467V19.7419ZM59.0476 17.7332C58.9382 16.583 59.4865 15.47 60.4625 14.8607C61.4385 14.2515 62.6734 14.2515 63.6494 14.8607C64.6254 15.47 65.1737 16.583 65.0643 17.7332C65.1758 18.8846 64.628 19.9998 63.6511 20.6103C62.6743 21.2208 61.4376 21.2208 60.4608 20.6103C59.4839 19.9998 58.9362 18.8846 59.0476 17.7332ZM63.7694 17.7332C63.7694 16.3423 63.1482 15.5289 62.058 15.5289C60.9637 15.5289 60.3481 16.3423 60.3481 17.7332C60.3481 19.1352 60.9638 19.9424 62.058 19.9424C63.1482 19.9423 63.7694 19.1296 63.7694 17.7332H63.7694Z" fill="white"/>
<path d="M73.062 20.944H71.756L70.438 16.218H70.338L69.025 20.944H67.732L65.973 14.528H67.25L68.393 19.424H68.487L69.799 14.528H71.006L72.318 19.424H72.417L73.555 14.528H74.814L73.062 20.944Z" fill="white"/>
<path d="M76.2925 14.5276H77.5044V15.547H77.5985C77.9257 14.7965 78.6901 14.3374 79.5022 14.4038C80.1309 14.3562 80.747 14.5988 81.1766 15.0631C81.6061 15.5274 81.8024 16.1629 81.7102 16.7903V20.9442H80.4512V17.1083C80.4512 16.0772 80.0057 15.5644 79.0747 15.5644C78.6482 15.5444 78.2343 15.7127 77.9415 16.0253C77.6488 16.3378 77.5063 16.7634 77.5515 17.1904V20.9443H76.2925L76.2925 14.5276Z" fill="white"/>
<path d="M83.716 12.023H84.975V20.944H83.716V12.023Z" fill="white"/>
<path d="M86.7252 17.7332C86.6159 16.583 87.1643 15.4699 88.1403 14.8606C89.1164 14.2514 90.3514 14.2514 91.3275 14.8606C92.3035 15.4699 92.8519 16.583 92.7426 17.7332C92.8539 18.8846 92.306 19.9998 91.3291 20.6103C90.3522 21.2208 89.1155 21.2208 88.1386 20.6103C87.1618 19.9998 86.6139 18.8846 86.7252 17.7332ZM91.447 17.7332C91.447 16.3423 90.8258 15.5289 89.7356 15.5289C88.6413 15.5289 88.0257 16.3423 88.0257 17.7332C88.0257 19.1353 88.6413 19.9424 89.7356 19.9424C90.8258 19.9424 91.447 19.1297 91.447 17.7332H91.447ZM94.0679 19.1297C94.0679 17.9746 94.9229 17.3088 96.4406 17.2141L98.1685 17.1139V16.5601C98.1685 15.8824 97.7231 15.4997 96.8625 15.4997C96.1597 15.4997 95.6728 15.7592 95.533 16.2129H94.3142C94.4429 15.1107 95.4735 14.4038 96.9206 14.4038C98.5199 14.4038 99.422 15.2046 99.422 16.5601V20.9443H98.21V20.0426H98.1104C97.6988 20.7011 96.9668 21.086 96.1943 21.05C95.6528 21.1067 95.1127 20.9303 94.7076 20.5644C94.3024 20.1985 94.0701 19.6773 94.0679 19.1297ZM98.1685 18.5814V18.0449L96.6107 18.1451C95.7322 18.2042 95.3338 18.5048 95.3338 19.0705C95.3338 19.648 95.8318 19.9841 96.5167 19.9841C96.9222 20.0254 97.3269 19.8994 97.6383 19.635C97.9496 19.3705 98.141 18.9903 98.1685 18.5814ZM101.077 17.7332C101.077 15.7056 102.113 14.4212 103.725 14.4212C104.538 14.3835 105.301 14.8221 105.681 15.5469H105.775V12.0227H107.034V20.9443H105.827V19.9305H105.728C105.319 20.6493 104.547 21.0805 103.725 21.05C102.102 21.0501 101.077 19.7656 101.077 17.7332ZM102.377 17.7332C102.377 19.0942 103.015 19.9131 104.081 19.9131C105.143 19.9131 105.798 19.0824 105.798 17.7388C105.798 16.4014 105.136 15.5588 104.081 15.5588C103.022 15.5588 102.377 16.3833 102.377 17.7332H102.377ZM112.243 17.7332C112.133 16.5831 112.681 15.47 113.657 14.8608C114.633 14.2516 115.868 14.2516 116.844 14.8608C117.82 15.47 118.369 16.5831 118.259 17.7332C118.371 18.8846 117.823 19.9998 116.846 20.6103C115.869 21.2209 114.633 21.2209 113.656 20.6103C112.679 19.9998 112.131 18.8846 112.243 17.7332ZM116.964 17.7332C116.964 16.3423 116.343 15.5289 115.253 15.5289C114.159 15.5289 113.543 16.3423 113.543 17.7332C113.543 19.1353 114.159 19.9424 115.253 19.9424C116.343 19.9424 116.964 19.1297 116.964 17.7332ZM119.948 14.5276H121.16V15.547H121.254C121.582 14.7965 122.346 14.3374 123.158 14.4038C123.787 14.3562 124.403 14.5988 124.832 15.0631C125.262 15.5274 125.458 16.163 125.366 16.7904V20.9442H124.107V17.1084C124.107 16.0772 123.662 15.5644 122.731 15.5644C122.304 15.5444 121.89 15.7127 121.597 16.0253C121.305 16.3379 121.162 16.7634 121.207 17.1905V20.9443H119.948V14.5276ZM132.48 12.9301V14.5569H133.862V15.6235H132.48V18.923C132.48 19.5952 132.755 19.8895 133.382 19.8895C133.542 19.889 133.703 19.8792 133.862 19.8602V20.9151C133.636 20.9558 133.407 20.9774 133.177 20.9798C131.777 20.9798 131.219 20.4844 131.219 19.2472V15.6235H130.207V14.5568H131.219V12.9301H132.48ZM135.582 12.0227H136.829V15.5588H136.929C137.272 14.8017 138.05 14.342 138.874 14.4093C139.499 14.3751 140.107 14.6231 140.532 15.0857C140.957 15.5483 141.154 16.1773 141.071 16.8015V20.9443H139.811V17.1139C139.811 16.089 139.336 15.5699 138.447 15.5699C138.009 15.5338 137.577 15.6939 137.268 16.0076C136.958 16.3212 136.802 16.7564 136.841 17.1967V20.9443H135.582L135.582 12.0227ZM148.412 19.2118C148.059 20.4221 146.894 21.2042 145.648 21.0682C144.797 21.0907 143.979 20.7361 143.412 20.0983C142.845 19.4605 142.585 18.604 142.701 17.7562C142.588 16.9059 142.847 16.0481 143.411 15.4049C143.975 14.7617 144.789 14.3965 145.642 14.4038C147.417 14.4038 148.488 15.6236 148.488 17.6385V18.0804H143.983V18.1514C143.943 18.6275 144.105 19.0985 144.429 19.4485C144.752 19.7984 145.207 19.9949 145.682 19.9896C146.298 20.064 146.898 19.7567 147.2 19.2117L148.412 19.2118ZM143.983 17.1438H147.205C147.237 16.7084 147.085 16.2795 146.786 15.9629C146.487 15.6464 146.069 15.4716 145.635 15.4816C145.195 15.476 144.772 15.6494 144.461 15.9624C144.15 16.2753 143.978 16.7014 143.983 17.1438H143.983ZM59.9282 38.674H53.2226L51.6122 43.457H48.772L55.1234 25.7613H58.0744L64.4258 43.457H61.5372L59.9282 38.674ZM53.9171 36.4669H59.2324L56.6121 28.7046H56.5388L53.9171 36.4669ZM78.1429 37.0069C78.1429 41.0161 76.0096 43.5919 72.7903 43.5919C71.1262 43.6795 69.5588 42.8028 68.7547 41.3347H68.6938V47.725H66.0611V30.5554H68.6095V32.7013H68.6579C69.4977 31.2424 71.0668 30.3661 72.7419 30.4204C75.9971 30.4204 78.1429 33.0088 78.1429 37.0069ZM75.4368 37.0069C75.4368 34.3949 74.0949 32.6776 72.0473 32.6776C70.0358 32.6776 68.6828 34.431 68.6828 37.0069C68.6828 39.6064 70.0358 41.3473 72.0473 41.3473C74.0949 41.3473 75.4368 39.6426 75.4368 37.0069ZM92.2598 37.0069C92.2598 41.0161 90.1264 43.5919 86.9071 43.5919C85.2431 43.6795 83.6757 42.8028 82.8716 41.3347H82.8107V47.725H80.1779V30.5554H82.7262V32.7013H82.7747C83.6145 31.2424 85.1836 30.3661 86.8587 30.4204C90.114 30.4204 92.2598 33.0088 92.2598 37.0069ZM89.5537 37.0069C89.5537 34.3949 88.2117 32.6776 86.1642 32.6776C84.1526 32.6776 82.7996 34.431 82.7996 37.0069C82.7996 39.6064 84.1526 41.3473 86.1642 41.3473C88.2117 41.3473 89.5537 39.6426 89.5537 37.0069H89.5537ZM101.59 38.5265C101.785 40.2813 103.48 41.4335 105.796 41.4335C108.015 41.4335 109.611 40.2813 109.611 38.699C109.611 37.3255 108.648 36.5031 106.368 35.9395L104.088 35.387C100.858 34.6021 99.3583 33.0825 99.3583 30.6166C99.3583 27.5634 102.003 25.4662 105.76 25.4662C109.477 25.4662 112.025 27.5634 112.111 30.6166H109.453C109.294 28.8506 107.843 27.7847 105.722 27.7847C103.601 27.7847 102.15 28.8632 102.15 30.4329C102.15 31.6839 103.077 32.4201 105.345 32.9836L107.283 33.4623C110.892 34.321 112.392 35.7794 112.392 38.3677C112.392 41.6784 109.77 43.7518 105.6 43.7518C101.699 43.7518 99.065 41.7271 98.8948 38.5264L101.59 38.5265ZM118.074 27.5022V30.5554H120.513V32.6525H118.074V39.765C118.074 40.87 118.562 41.3848 119.634 41.3848C119.924 41.3798 120.213 41.3593 120.5 41.3236V43.4082C120.018 43.4988 119.528 43.5398 119.038 43.5307C116.441 43.5307 115.429 42.5496 115.429 40.0475V32.6525H113.564V30.5554H115.429V27.5022H118.074ZM121.925 37.0069C121.925 32.9476 124.302 30.3968 128.009 30.3968C131.727 30.3968 134.093 32.9475 134.093 37.0069C134.093 41.0773 131.74 43.617 128.009 43.617C124.279 43.617 121.925 41.0773 121.925 37.0069ZM131.41 37.0069C131.41 34.2223 130.142 32.5788 128.008 32.5788C125.875 32.5788 124.608 34.2348 124.608 37.0069C124.608 39.8026 125.875 41.4336 128.008 41.4336C130.142 41.4336 131.41 39.8026 131.41 37.0069H131.41ZM136.264 30.5554H138.775V32.7513H138.835C139.186 31.3377 140.473 30.3648 141.921 30.4204C142.224 30.4193 142.527 30.4525 142.823 30.5192V32.9963C142.44 32.8785 142.04 32.8245 141.64 32.8362C140.866 32.8046 140.117 33.1149 139.589 33.6856C139.062 34.2563 138.809 35.0303 138.896 35.8045V43.4569H136.264L136.264 30.5554ZM154.961 39.6676C154.607 42.0097 152.339 43.617 149.438 43.617C145.707 43.617 143.391 41.1023 143.391 37.0681C143.391 33.0213 145.72 30.3968 149.328 30.3968C152.876 30.3968 155.108 32.8488 155.108 36.7606V37.6679H146.049V37.8279C145.964 38.7884 146.294 39.7392 146.954 40.4383C147.614 41.1375 148.541 41.5177 149.499 41.4822C150.777 41.6027 151.981 40.8647 152.461 39.6676L154.961 39.6676ZM146.061 35.817H152.474C152.521 34.954 152.209 34.11 151.612 33.4884C151.015 32.8668 150.187 32.524 149.328 32.5426C148.462 32.5374 147.63 32.8804 147.016 33.4953C146.403 34.1101 146.059 34.946 146.061 35.8171V35.817ZM35.0892 28.9285C35.1202 26.511 36.3802 24.278 38.4277 23.0118C37.1301 21.1477 35.0347 20.0083 32.7736 19.9371C30.3946 19.6859 28.0884 21.369 26.8761 21.369C25.6404 21.369 23.7739 19.962 21.7641 20.0036C19.1196 20.0896 16.714 21.5653 15.4274 23.8908C12.6876 28.6623 14.7313 35.6748 17.3558 39.5318C18.6689 41.4204 20.2036 43.53 22.2116 43.4552C24.1766 43.3732 24.9105 42.1948 27.2824 42.1948C29.6323 42.1948 30.3209 43.4552 32.3697 43.4076C34.4782 43.3732 35.8067 41.5106 37.0737 39.6041C38.0172 38.2584 38.7432 36.7711 39.2248 35.1973C36.7205 34.1319 35.0922 31.6636 35.0892 28.9285ZM31.2194 17.4005C32.3691 16.0123 32.9355 14.2279 32.7983 12.4264C31.0419 12.612 29.4195 13.4564 28.2543 14.7913C27.1037 16.1085 26.5208 17.8317 26.634 19.5813C28.414 19.5998 30.104 18.796 31.2194 17.4005Z" fill="white"/>
</g>
<defs>
<clipPath id="clip0_2_445">
<rect width="170" height="58" fill="white"/>
</clipPath>
</defs>
</svg>
