<svg width="95" height="60" viewBox="0 0 95 60" fill="none" xmlns="http://www.w3.org/2000/svg">
<g clip-path="url(#clip0_822_848)">
<path d="M86.2788 0H9.3432C9.02277 0 8.70178 0 8.38193 0.00186854C8.11155 0.0037937 7.8418 0.00679469 7.57205 0.0141556C6.98374 0.0300665 6.3904 0.064776 5.80945 0.169188C5.21922 0.275411 4.66998 0.448676 4.13416 0.721483C3.60741 0.989363 3.12515 1.33974 2.70723 1.75784C2.28912 2.17594 1.93874 2.6574 1.67092 3.18473C1.39805 3.72055 1.22468 4.26995 1.11919 4.86064C1.01422 5.44175 0.979276 6.03499 0.963421 6.62267C0.956174 6.89242 0.953065 7.16217 0.951304 7.43186C0.949436 7.7524 0.950058 8.07271 0.950058 8.39382V51.6068C0.950058 51.9279 0.949436 52.2477 0.951304 52.5688C0.953065 52.8385 0.956174 53.1083 0.963421 53.378C0.979276 53.9652 1.01422 54.5584 1.11919 55.1394C1.22468 55.7303 1.39805 56.2795 1.67092 56.8153C1.93874 57.3427 2.28912 57.8247 2.70723 58.2422C3.12515 58.661 3.60741 59.0113 4.13416 59.2785C4.66998 59.5521 5.21922 59.7254 5.80945 59.8316C6.3904 59.9353 6.98374 59.9706 7.57205 59.9865C7.8418 59.9926 8.11155 59.9963 8.38193 59.9975C8.70178 60 9.02277 60 9.3432 60H86.2788C86.5987 60 86.9197 60 87.2395 59.9975C87.5092 59.9963 87.779 59.9926 88.05 59.9865C88.6371 59.9706 89.2303 59.9353 89.8127 59.8316C90.4021 59.7254 90.9514 59.5521 91.4873 59.2785C92.0146 59.0113 92.4955 58.661 92.9143 58.2422C93.3317 57.8247 93.6821 57.3427 93.9506 56.8153C94.224 56.2795 94.3973 55.7303 94.5022 55.1394C94.6073 54.5584 94.6414 53.9652 94.6573 53.378C94.6646 53.1083 94.6683 52.8385 94.6695 52.5688C94.672 52.2477 94.672 51.9279 94.672 51.6068V8.39382C94.672 8.07271 94.672 7.7524 94.6695 7.43186C94.6683 7.16217 94.6646 6.89242 94.6573 6.62267C94.6413 6.03499 94.6073 5.44175 94.5022 4.86064C94.3973 4.26995 94.224 3.72055 93.9506 3.18473C93.6821 2.6574 93.3317 2.17594 92.9143 1.75784C92.4955 1.33974 92.0146 0.989363 91.4873 0.721483C90.9514 0.448676 90.4021 0.275411 89.8127 0.169188C89.2303 0.064776 88.6371 0.0300665 88.05 0.0141556C87.779 0.00679469 87.5092 0.0037937 87.2395 0.00186854C86.9197 0 86.5987 0 86.2788 0Z" fill="black"/>
<path d="M86.2788 1.9999L87.2253 2.00172C87.4817 2.00353 87.7381 2.0063 87.9959 2.01332C88.4443 2.02544 88.9689 2.04973 89.4579 2.13738C89.883 2.21394 90.2395 2.33035 90.5816 2.50452C90.9193 2.67615 91.2288 2.90105 91.499 3.17086C91.7702 3.44247 91.9954 3.75242 92.1693 4.09391C92.3425 4.43337 92.4582 4.78816 92.5343 5.21634C92.6217 5.70001 92.6459 6.22603 92.6581 6.67726C92.6651 6.93194 92.6684 7.18663 92.6697 7.44738C92.6721 7.76271 92.6721 8.07787 92.6721 8.39382V51.6068C92.6721 51.9228 92.6721 52.2374 92.6696 52.5594C92.6684 52.8141 92.6651 53.0687 92.6581 53.3239C92.6459 53.7744 92.6217 54.3002 92.5332 54.7896C92.4582 55.2118 92.3425 55.5667 92.1684 55.9078C91.995 56.2485 91.7701 56.5581 91.5001 56.828C91.2284 57.0998 90.92 57.324 90.5782 57.4972C90.2386 57.6706 89.8827 57.7869 89.4619 57.8626C88.963 57.9515 88.4164 57.976 88.0047 57.9871C87.7458 57.993 87.488 57.9965 87.224 57.9977C86.9093 58.0002 86.5936 58.0001 86.2788 58.0001H9.34319C9.339 58.0001 9.33492 58.0001 9.33068 58.0001C9.01959 58.0001 8.70789 58.0001 8.39114 57.9977C8.13289 57.9965 7.8752 57.993 7.62606 57.9874C7.20502 57.976 6.6581 57.9516 6.16328 57.8632C5.73878 57.7869 5.38291 57.6706 5.03887 57.495C4.70033 57.3233 4.39213 57.0993 4.12028 56.827C3.85053 56.5577 3.62637 56.2491 3.45304 55.9079C3.27955 55.5671 3.16348 55.2112 3.08716 54.7838C2.99893 54.2954 2.9747 53.7718 2.96259 53.3243C2.95567 53.0681 2.95279 52.8119 2.95114 52.5572L2.9499 51.8053L2.94995 51.6068V8.39382L2.9499 8.1953L2.95109 7.445C2.95279 7.18878 2.95567 6.93262 2.96259 6.67663C2.9747 6.22869 2.99893 5.70482 3.08789 5.21232C3.16353 4.78884 3.27955 4.43291 3.45395 4.0904C3.62591 3.75186 3.85048 3.44281 4.12165 3.17171C4.39174 2.9015 4.70095 2.67688 5.04164 2.50362C5.382 2.3303 5.73855 2.21394 6.16305 2.13755C6.65215 2.04968 7.1771 2.02544 7.62668 2.01327C7.88296 2.0063 8.13923 2.00353 8.39358 2.00177L9.34319 1.9999H86.2788Z" fill="white"/>
<path d="M26.5355 20.1805C27.3379 19.1768 27.8825 17.8291 27.7389 16.4519C26.5642 16.5103 25.1307 17.2269 24.3007 18.2314C23.5555 19.0916 22.896 20.4958 23.0679 21.8152C24.3866 21.9296 25.7041 21.1561 26.5355 20.1805Z" fill="black"/>
<path d="M27.7239 22.0728C25.8089 21.9588 24.1806 23.1597 23.2661 23.1597C22.3511 23.1597 20.9506 22.1303 19.4359 22.1581C17.4645 22.187 15.6352 23.3017 14.6348 25.0746C12.577 28.6212 14.0917 33.882 16.0927 36.7705C17.0645 38.1996 18.2356 39.773 19.7787 39.7165C21.2367 39.6593 21.8082 38.7724 23.5804 38.7724C25.3514 38.7724 25.8662 39.7165 27.4095 39.6879C29.0101 39.6593 30.0107 38.2582 30.9824 36.8277C32.0972 35.1987 32.5535 33.6258 32.5822 33.5394C32.5535 33.5108 29.496 32.3379 29.4676 28.8207C29.4388 25.8758 31.8681 24.475 31.9825 24.3882C30.6106 22.3591 28.467 22.1303 27.7239 22.0728Z" fill="black"/>
<path d="M44.3985 18.0874C48.5608 18.0874 51.4592 20.9565 51.4592 25.1337C51.4592 29.3258 48.5012 32.2098 44.2941 32.2098H39.6857V39.5385H36.3561V18.0874H44.3985V18.0874ZM39.6857 29.4149H43.5062C46.4051 29.4149 48.055 27.8542 48.055 25.1486C48.055 22.4432 46.4051 20.8971 43.5211 20.8971H39.6857V29.4149Z" fill="black"/>
<path d="M52.3291 35.0938C52.3291 32.3583 54.4252 30.6786 58.1419 30.4704L62.4229 30.2178V29.0138C62.4229 27.2744 61.2484 26.2339 59.2865 26.2339C57.4279 26.2339 56.2683 27.1256 55.9862 28.5232H52.9536C53.132 25.6985 55.54 23.6174 59.4052 23.6174C63.1959 23.6174 65.6189 25.6243 65.6189 28.7609V39.5385H62.5416V36.9668H62.4676C61.5609 38.7061 59.5836 39.8061 57.5323 39.8061C54.4699 39.8061 52.3291 37.9033 52.3291 35.0938ZM62.4229 33.6816V32.4478L58.5726 32.6855C56.6549 32.8194 55.5698 33.6667 55.5698 35.0046C55.5698 36.3721 56.6996 37.2641 58.424 37.2641C60.6686 37.2641 62.4229 35.718 62.4229 33.6816Z" fill="black"/>
<path d="M68.5241 45.2916V42.6901C68.7615 42.7494 69.2966 42.7494 69.5644 42.7494C71.0508 42.7494 71.8537 42.1252 72.344 40.5198C72.344 40.4899 72.6267 39.5684 72.6267 39.5534L66.978 23.8998H70.4561L74.4108 36.625H74.4699L78.4246 23.8998H81.8138L75.9563 40.356C74.619 44.147 73.0729 45.3659 69.8322 45.3659C69.5644 45.3659 68.7615 45.3361 68.5241 45.2916Z" fill="black"/>
</g>
<defs>
<clipPath id="clip0_822_848">
<rect width="93.722" height="60" fill="white" transform="translate(0.949951)"/>
</clipPath>
</defs>
</svg>
