<svg width="150" height="39" viewBox="0 0 150 39" fill="none" xmlns="http://www.w3.org/2000/svg">
<g clip-path="url(#clip0_1_287)">
<path d="M0 0V13L6.5 6.5L0 0Z" fill="#685AC0"/>
<path d="M13 0H0L6.5 6.5L13 0Z" fill="#A094FC"/>
<path d="M13 13V0L6.5 6.5L13 13Z" fill="#685AC0"/>
<path d="M0 13H13L6.5 6.5L0 13Z" fill="#20024E"/>
<path d="M13 0V13L19.5 6.5L13 0Z" fill="#C2BFEB"/>
<path d="M26 0H13L19.5 6.5L26 0Z" fill="#685AC0"/>
<path d="M26 13V0L19.5 6.5L26 13Z" fill="#20024E"/>
<path d="M13 13H26L19.5 6.5L13 13Z" fill="#685AC0"/>
<path d="M13 13V26L19.5 19.5L13 13Z" fill="#C2BFEB"/>
<path d="M26 13H13L19.5 19.5L26 13Z" fill="#A094FC"/>
<path d="M26 26V13L19.5 19.5L26 26Z" fill="#685AC0"/>
<path d="M13 26H26L19.5 19.5L13 26Z" fill="#20024E"/>
<path d="M0 13V26L6.5 19.5L0 13Z" fill="#685AC0"/>
<path d="M13 13H0L6.5 19.5L13 13Z" fill="#C2BFEB"/>
<path d="M13 26V13L6.5 19.5L13 26Z" fill="#20024E"/>
<path d="M0 26H13L6.5 19.5L0 26Z" fill="#A094FC"/>
<path d="M13 26V39L19.5 32.5L13 26Z" fill="#C2BFEB"/>
<path d="M26 26H13L19.5 32.5L26 26Z" fill="#685AC0"/>
<path d="M13 26H0L6.5 32.5L13 26Z" fill="#C2BFEB"/>
<path d="M13 39V26L6.5 32.5L13 39Z" fill="#20024E"/>
<path d="M33 15.5H34C34.4 15.5 34.7 15.1 34.7 14.7V2.50001C34.7 2.10001 34.3 1.70001 34 1.70001H33V0.200012H39.7C43.5 0.200012 45.8 1.40001 45.8 4.50001C45.8 6.70001 44.5 7.70001 42.4 8.20001V8.30001C44.9 8.60001 46.5 9.90001 46.5 12.4C46.5 15.7 43.9 17.2 40 17.2H33V15.5ZM39.6 7.40001C41.8 7.40001 43 6.60001 43 4.60001C43 2.60001 41.9 1.90001 39.7 1.90001H37.6V7.40001H39.6ZM39.9 15.4C42.5 15.4 43.6 14.3 43.6 12.2C43.6 10.1 42.6 9.10001 39.8 9.10001H37.5V15.4H39.9Z" fill="#20024E"/>
<path d="M47.6 13.5C47.6 10.9 49.7 9.69999 52.6 9.69999C53.7 9.69999 54.6 9.79999 55.5 9.99999V8.29999C55.5 6.69999 54.6 6.09999 52.9 6.09999C51.2 6.09999 50.3 6.69999 49.6 7.29999H48.4V5.29999C49.5 4.79999 51 4.29999 53.3 4.29999C56.3 4.29999 58 5.19999 58 7.99999V14.7C58 15.2 58.3 15.5 58.8 15.5H59.5V16.8C59.2 17 58.6 17.2 57.8 17.2C56.4 17.2 55.7 16.6 55.5 15.5C54.6 16.7 53.3 17.2 51.6 17.2C49.3 17.2 47.6 16 47.6 13.5ZM55.5 14.2V11.5C54.8 11.4 54 11.3 53.1 11.3C51.3 11.3 50.2 12 50.2 13.5C50.2 15 51.1 15.7 52.5 15.7C53.9 15.5 54.7 15 55.5 14.2Z" fill="#20024E"/>
<path d="M60.4001 15.5H61.3C61.6 15.5 62 15.2 62 14.8V6.70001C62 6.40001 61.7 6.00001 61.3 6.00001H60.3V4.40001H64C64.4 4.40001 64.6 4.70001 64.6 5.90001V6.20001C65.9 5.00001 67.6 4.20001 69.6 4.20001C71.4 4.20001 72.9001 4.90001 72.9001 7.30001V14.7C72.9001 15 73.2 15.4 73.5 15.4H74.3001V16.9H68.5V15.4H70.2V8.30001C70.2 6.70001 69.5 6.30001 68.2 6.30001C66.9 6.30001 65.6 6.90001 64.5 7.50001V15.5H66.3001V17H60.3V15.5H60.4001Z" fill="#20024E"/>
<path d="M75.1 15.5H76C76.3 15.5 76.7 15.2 76.7 14.8V2.50001C76.7 2.20001 76.4 1.80001 76 1.80001H75V0.200012H78.8C79.1 0.200012 79.3 0.400012 79.3 0.900012V11L83.3 6.90001C83.7 6.50001 83.5 6.00001 83.1 6.00001H82.5V4.40001H87.7V6.00001H87.1C86.8 6.00001 86.3 6.20001 86 6.50001L82.9 9.60001L86.4 14.7C86.7 15.2 87.1 15.4 87.5 15.4H87.9V16.9H85L81.2 11.3L79.4 13.1V15.4H81V16.9H75.2V15.5H75.1Z" fill="#20024E"/>
<path d="M93.2 10.8C93.2 6.79999 96 4.29999 99.6 4.29999C103.2 4.29999 106 6.79999 106 10.8C106 14.8 103.2 17.2 99.6 17.2C96 17.2 93.2 14.8 93.2 10.8ZM103.3 10.8C103.3 7.69999 101.8 5.99999 99.6 5.99999C97.4 5.99999 95.9 7.59999 95.9 10.8C95.9 13.9 97.4 15.5 99.6 15.5C101.8 15.5 103.3 13.9 103.3 10.8Z" fill="#20024E"/>
<path d="M106.6 15.5H107.5C107.8 15.5 108.2 15.2 108.2 14.8V6.1H106.5V4.4H108.2V3.4C108.2 1 109.6 0 111.9 0C112.9 0 113.5 0.1 113.9 0.3V1.8H112.7C111.6 1.8 110.8 2 110.8 3.4V4.4H113.5V6H110.8V14.8C110.8 15.1 111.1 15.5 111.5 15.5H112.7V17H106.6V15.5Z" fill="#20024E"/>
<path d="M33 36.3H34C34.4 36.3 34.7 35.9 34.7 35.5V23.3C34.7 22.9 34.3 22.5 34 22.5H33V20.9H39.1L43.1 33.5H43.2L47.2 20.9H53.3V22.5H52.3C51.9 22.5 51.6 22.9 51.6 23.3V35.5C51.6 35.8 52 36.3 52.3 36.3H53.3V37.8H46.9V36.3H48.8V22.8H48.6L43.8 37.8H41.8L37 22.8H36.9V36.3H38.8V37.8H33V36.3Z" fill="#20024E"/>
<path d="M53.4 31.5C53.4 27.5 55.9 25 59.5 25C63 25 65.1 26.9 65.1 31.1C65.1 31.5 65.1 31.8 65.1 31.9H56.1C56.2 34.8 57.5 36.3 60 36.3C61.8 36.3 62.6 35.7 63.3 34.9H64.8V36.7C63.8 37.4 62.4 38 59.9 38C55.6 38 53.4 35.5 53.4 31.5ZM62.6 30.3C62.5 27.6 61.5 26.6 59.6 26.6C57.7 26.6 56.5 27.8 56.2 30.3H62.6Z" fill="#20024E"/>
<path d="M65.9 36.3H66.8C67.1 36.3 67.5 36 67.5 35.6V23.2C67.5 22.9 67.2 22.5 66.8 22.5H65.8V20.9H69.6C69.9 20.9 70.1 21.1 70.1 21.6V35.6C70.1 35.9 70.4 36.3 70.8 36.3H71.7V37.8H65.9V36.3Z" fill="#20024E"/>
<path d="M75.4 36.5C75.2 37.3 74.7 37.8 74.4 37.8H73V23.2C73 22.9 72.7 22.5 72.3 22.5H71.3V20.9H75.1C75.4 20.9 75.6 21.1 75.6 21.6V27.1C76.6 26 77.9 25.1 80 25.1C82.4 25.1 84.8 26.6 84.8 31.4C84.8 36.3 82 38 79.3 38C77.3 38 76.2 37.4 75.4 36.5ZM82.2 31.5C82.2 27.8 80.6 26.9 78.9 26.9C77.7 26.9 76.5 27.6 75.7 28.3V35.2C76.4 35.9 77.3 36.4 78.7 36.4C80.3 36.4 82.2 35.5 82.2 31.5Z" fill="#20024E"/>
<path d="M86 31.5C86 27.5 88.8 25 92.4 25C96 25 98.8 27.5 98.8 31.5C98.8 35.5 96 37.9 92.4 37.9C88.8 38 86 35.6 86 31.5ZM96.2 31.6C96.2 28.5 94.7 26.8 92.5 26.8C90.3 26.8 88.8 28.4 88.8 31.6C88.8 34.7 90.3 36.3 92.5 36.3C94.7 36.3 96.2 34.7 96.2 31.6Z" fill="#20024E"/>
<path d="M100.8 34.9V27.5C100.8 27.2 100.5 26.8 100.1 26.8H99.2V25.2H103.4V34C103.4 35.6 104.2 36 105.4 36C106.7 36 108 35.4 109 34.7V26.7H107.2V25.1H111.6V35.5C111.6 35.8 111.9 36.2 112.3 36.2H113.3V37.7H109.7C109.4 37.7 109.1 37.4 109.1 36.2V36C107.8 37.2 106.3 38 104.2 38C102.4 38 100.8 37.3 100.8 34.9Z" fill="#20024E"/>
<path d="M114.1 36.3H115C115.3 36.3 115.7 36 115.7 35.6V27.5C115.7 27.2 115.4 26.8 115 26.8H114V25.2H117.7C118.1 25.2 118.3 25.5 118.3 26.9V27.3C119.2 26.2 120.3 25.1 122.1 25.1C122.4 25.1 122.6 25.1 122.8 25.2V27.3H122.3C120.4 27.3 119.3 27.8 118.3 28.6V36.3H120.3V37.8H114.1V36.3Z" fill="#20024E"/>
<path d="M123.7 36.3H124.6C124.9 36.3 125.3 36 125.3 35.6V27.5C125.3 27.2 125 26.8 124.6 26.8H123.6V25.2H127.3C127.7 25.2 127.9 25.5 127.9 26.7V27C129.2 25.8 130.9 25 132.9 25C134.7 25 136.2 25.7 136.2 28.1V35.5C136.2 35.8 136.5 36.2 136.8 36.2H137.6V37.7H131.8V36.2H133.5V29C133.5 27.4 132.8 27 131.5 27C130.1 27 128.9 27.6 127.8 28.2V36.2H129.6V37.7H123.6V36.3H123.7Z" fill="#20024E"/>
<path d="M137.6 31.5C137.6 27.5 140.1 25 143.7 25C147.2 25 149.3 26.9 149.3 31.1C149.3 31.5 149.3 31.8 149.3 31.9H140.3C140.4 34.8 141.7 36.3 144.2 36.3C146 36.3 146.8 35.7 147.5 34.9H149V36.7C148 37.4 146.6 38 144.1 38C139.8 38 137.6 35.5 137.6 31.5ZM146.8 30.3C146.7 27.6 145.7 26.6 143.8 26.6C141.9 26.6 140.7 27.8 140.4 30.3H146.8Z" fill="#20024E"/>
</g>
<defs>
<clipPath id="clip0_1_287">
<rect width="150" height="39" fill="white"/>
</clipPath>
</defs>
</svg>
