<svg width="122" height="44" viewBox="0 0 122 44" fill="none" xmlns="http://www.w3.org/2000/svg">
<path d="M0 16.001L6.5 9.50098L0 3.00098V16.001Z" fill="#685AC0"/>
<path d="M0.000976562 3.00098L6.50098 9.50098L13 3.00098H0.000976562Z" fill="#A094FC"/>
<path d="M13 16.001V3.00098L6.5 9.50198L13 16.001Z" fill="#685AC0"/>
<path d="M0.000976562 16.001H13L6.49998 9.50098L0.000976562 16.001Z" fill="#20024E"/>
<path d="M13 3.00098V16.001L19.5 9.50098L13 3.00098Z" fill="#C2BFEB"/>
<path d="M26 3.00098H13L19.5 9.50098L26 3.00098Z" fill="#685AC0"/>
<path d="M26 16V3L19.5 9.502L26 16Z" fill="#20024E"/>
<path d="M13.001 16.001H26L19.5 9.50098L13.001 16.001Z" fill="#685AC0"/>
<path d="M13 16.001V29.001L19.5 22.501L13 16.001Z" fill="#C2BFEB"/>
<path d="M26 16L13 16.001L19.5 22.501L26 16Z" fill="#A094FC"/>
<path d="M26 29V16L19.5 22.502L26 29Z" fill="#685AC0"/>
<path d="M13.001 29.001L26 29L19.5 22.501L13.001 29.001Z" fill="#20024E"/>
<path d="M0 29.001L6.5 22.5L0 16V29.001Z" fill="#685AC0"/>
<path d="M0.000976562 16.001L6.50098 22.501L13 16.001H0.000976562Z" fill="#C2BFEB"/>
<path d="M13 29.001V16.001L6.5 22.502L13 29.001Z" fill="#20024E"/>
<path d="M0.000976562 29.001H13L6.49998 22.5L0.000976562 29.001Z" fill="#A094FC"/>
<path d="M13 42L19.501 35.501L13 29.001V42Z" fill="#C2BFEB"/>
<path d="M26 29H13L19.5 35.501L26 29Z" fill="#685AC0"/>
<path d="M0 29L6.501 35.501L13 29H0Z" fill="#C2BFEB"/>
<path d="M6.5 35.502L13 42V29.001L6.5 35.502Z" fill="#20024E"/>
</svg>
