<svg width="180" height="65" viewBox="0 0 180 65" fill="none" xmlns="http://www.w3.org/2000/svg">
<path d="M54.9185 27.3795C57.4985 27.3795 58.5825 26.2945 58.5825 24.1495C58.5825 22.0035 57.5455 21.0875 54.8225 21.0875H52.5565V27.3795H54.9185ZM54.6285 19.4475C56.8715 19.4475 57.9805 18.6285 57.9805 16.6515C57.9805 14.6035 56.8715 13.9035 54.6535 13.9035H52.5565V19.4475H54.6285ZM48.0005 27.4755H49.0125C49.3745 27.4755 49.7595 27.0415 49.7595 26.7035V14.5305C49.7595 14.1685 49.3745 13.7345 49.0125 13.7345H48.0005V12.1915H54.7255C58.4855 12.1915 60.7755 13.4215 60.7755 16.4585C60.7755 18.6285 59.4745 19.6895 57.3765 20.1235V20.1955C59.8845 20.5325 61.4995 21.7865 61.4995 24.2695C61.4995 27.5485 58.8965 29.0665 54.9905 29.0665H48.0005V27.4755ZM70.4897 26.15V23.402C69.7667 23.257 68.9707 23.161 68.1267 23.161C66.2957 23.161 65.1857 23.811 65.1857 25.379C65.1857 26.921 66.0537 27.548 67.5247 27.548C68.8497 27.548 69.7187 26.969 70.4897 26.15ZM62.6067 25.451C62.6067 22.847 64.6797 21.618 67.5967 21.618C68.7297 21.618 69.5977 21.738 70.4897 21.956V20.292C70.4897 18.676 69.5497 18.098 67.9347 18.098C66.2707 18.098 65.3307 18.676 64.6557 19.28H63.4507V17.279C64.5347 16.749 66.0777 16.291 68.3917 16.291C71.3577 16.291 73.0927 17.23 73.0927 20.027V26.753C73.0927 27.235 73.4067 27.524 73.8647 27.524H74.5147V28.826C74.1777 29.043 73.5747 29.212 72.8517 29.212C71.4777 29.212 70.7547 28.657 70.5617 27.5C69.6217 28.657 68.3917 29.212 66.7047 29.212C64.2947 29.212 62.6067 27.958 62.6067 25.451ZM75.3818 27.524H76.3218C76.6358 27.524 76.9728 27.186 76.9728 26.873V18.75C76.9728 18.46 76.6358 18.075 76.3218 18.075H75.2858V16.435H78.9738C79.3358 16.435 79.6008 16.772 79.5768 17.978V18.315C80.8298 17.158 82.5898 16.291 84.5428 16.291C86.3498 16.291 87.8448 16.941 87.8448 19.424V26.873C87.8448 27.211 88.1818 27.524 88.4718 27.524H89.2678V29.067H83.5058V27.524H85.2408V20.292C85.2408 18.725 84.5428 18.339 83.2648 18.339C81.9148 18.339 80.6618 18.894 79.5768 19.545V27.524H81.3368V29.067H75.3818V27.524ZM90.1455 27.524H91.0855C91.3985 27.524 91.7365 27.186 91.7365 26.873V14.459C91.7365 14.169 91.3985 13.783 91.0855 13.783H90.0735V12.192H93.8575C94.1715 12.192 94.3405 12.41 94.3405 12.843V23.04L98.3415 18.966C98.7035 18.581 98.5585 18.075 98.1005 18.075H97.5215V16.435H102.754V18.075H102.127C101.813 18.075 101.354 18.292 101.065 18.581L97.9315 21.714L101.451 26.777C101.79 27.258 102.174 27.524 102.512 27.524H102.873V29.067H99.9805L96.1725 23.45L94.3405 25.257V27.524H95.9315V29.067H90.1455V27.524ZM118.324 22.8229C118.324 19.6889 116.781 18.0509 114.588 18.0509C112.394 18.0509 110.851 19.6889 110.851 22.8229C110.851 25.9089 112.394 27.5239 114.588 27.5239C116.781 27.5239 118.324 25.9089 118.324 22.8229ZM108.151 22.7999C108.151 18.7499 110.972 16.2909 114.588 16.2909C118.227 16.2909 121.024 18.7499 121.024 22.7999C121.024 26.8009 118.227 29.2119 114.588 29.2119C110.972 29.2119 108.151 26.8009 108.151 22.7999ZM121.604 27.524H122.495C122.832 27.524 123.171 27.186 123.171 26.873V18.075H121.507V16.435H123.171V15.35C123.171 12.988 124.617 12 126.858 12C127.822 12 128.426 12.144 128.835 12.289V13.783H127.63C126.521 13.783 125.773 14.024 125.773 15.422V16.435H128.425V18.075H125.773V26.873C125.773 27.211 126.111 27.524 126.424 27.524H127.654V29.067H121.604V27.524ZM48 48.274H48.988C49.374 48.274 49.736 47.84 49.736 47.503V35.33C49.736 34.968 49.374 34.534 48.988 34.534H48V32.943H54.123L58.101 45.55H58.172L62.198 32.943H68.249V34.534H67.236C66.851 34.534 66.489 34.968 66.489 35.33V47.503C66.489 47.84 66.851 48.274 67.236 48.274H68.249V49.817H61.813V48.274H63.693V34.799H63.524L58.727 49.817H56.774L52.001 34.799H51.857V48.274H53.761V49.817H48V48.274ZM77.5522 42.3444C77.4562 39.6684 76.4192 38.6564 74.5872 38.6564C72.6832 38.6564 71.4532 39.8624 71.2132 42.3444H77.5522ZM68.4402 43.5494C68.4402 39.5484 70.9232 37.0404 74.5872 37.0404C78.1312 37.0404 80.1802 38.8974 80.1802 43.1154C80.1802 43.4774 80.1562 43.8154 80.1562 43.9104H71.1642C71.2602 46.8524 72.5382 48.2984 75.0452 48.2984C76.8292 48.2984 77.6492 47.6714 78.3002 46.8754H79.7942V48.6594C78.8052 49.3114 77.3842 49.9614 74.8522 49.9614C70.6102 49.9614 68.4402 47.5024 68.4402 43.5494ZM80.9097 48.274H81.8257C82.1627 48.274 82.5007 47.937 82.5007 47.624V35.209C82.5007 34.92 82.1627 34.534 81.8257 34.534H80.8377V32.943H84.6217C84.9587 32.943 85.1037 33.16 85.1037 33.593V47.624C85.1037 47.961 85.4417 48.274 85.7547 48.274H86.6947V49.817H80.9097V48.274ZM97.166 43.5494C97.166 39.8374 95.599 38.9454 93.839 38.9454C92.61 38.9454 91.477 39.6194 90.609 40.3204V47.2134C91.333 47.9374 92.224 48.3954 93.623 48.3954C95.334 48.3954 97.166 47.4544 97.166 43.5494ZM90.392 48.4914C90.175 49.2864 89.693 49.8174 89.404 49.8174H88.005V35.2084C88.005 34.9194 87.668 34.5334 87.355 34.5334H86.343V32.9434H90.127C90.44 32.9434 90.609 33.1594 90.609 33.5934V39.0904C91.597 38.0054 92.947 37.0404 95.02 37.0404C97.407 37.0404 99.866 38.5354 99.866 43.3324C99.866 48.2744 97.022 49.9614 94.346 49.9614C92.32 49.9614 91.236 49.3594 90.392 48.4914ZM111.202 43.5738C111.202 40.4398 109.66 38.8008 107.466 38.8008C105.272 38.8008 103.729 40.4398 103.729 43.5738C103.729 46.6588 105.272 48.2738 107.466 48.2738C109.66 48.2738 111.202 46.6588 111.202 43.5738ZM101.029 43.5498C101.029 39.4998 103.85 37.0408 107.466 37.0408C111.105 37.0408 113.902 39.4998 113.902 43.5498C113.902 47.5518 111.105 49.9618 107.466 49.9618C103.85 49.9618 101.029 47.5518 101.029 43.5498ZM115.757 46.8522V39.4752C115.757 39.1622 115.419 38.8252 115.106 38.8252H114.166V37.1862H118.361V46.0332C118.361 47.6712 119.204 48.0812 120.385 48.0812C121.687 48.0812 122.965 47.5022 123.977 46.8282V38.8252H122.169V37.1862H126.581V47.5992C126.581 47.9132 126.918 48.2742 127.255 48.2742H128.22V49.8172H124.579C124.242 49.8172 124.001 49.5282 124.001 48.3462V48.0342C122.699 49.1902 121.18 49.9862 119.132 49.9862C117.372 49.9862 115.757 49.2872 115.757 46.8522ZM129.098 48.274H130.038C130.351 48.274 130.689 47.937 130.689 47.624V39.5C130.689 39.211 130.351 38.825 130.038 38.825H129.002V37.186H132.69C133.051 37.186 133.293 37.5 133.293 38.873V39.283C134.184 38.15 135.293 37.088 137.053 37.088C137.342 37.088 137.583 37.137 137.776 37.186V39.331H137.27C135.342 39.331 134.233 39.789 133.293 40.609V48.274H135.293V49.817H129.098V48.274ZM138.715 48.274H139.655C139.969 48.274 140.307 47.937 140.307 47.624V39.5C140.307 39.211 139.969 38.825 139.655 38.825H138.619V37.186H142.307C142.669 37.186 142.934 37.523 142.909 38.728V39.066C144.163 37.909 145.923 37.041 147.876 37.041C149.683 37.041 151.178 37.692 151.178 40.174V47.624C151.178 47.961 151.516 48.274 151.805 48.274H152.6V49.817H146.839V48.274H148.574V41.043C148.574 39.475 147.876 39.09 146.597 39.09C145.248 39.09 143.995 39.644 142.909 40.295V48.274H144.669V49.817H138.715V48.274ZM161.759 42.3444C161.662 39.6684 160.626 38.6564 158.794 38.6564C156.89 38.6564 155.661 39.8624 155.419 42.3444H161.759ZM152.647 43.5494C152.647 39.5484 155.13 37.0404 158.794 37.0404C162.338 37.0404 164.387 38.8974 164.387 43.1154C164.387 43.4774 164.363 43.8154 164.363 43.9104H155.371C155.467 46.8524 156.745 48.2984 159.252 48.2984C161.035 48.2984 161.855 47.6714 162.507 46.8754H164.001V48.6594C163.012 49.3114 161.591 49.9614 159.059 49.9614C154.817 49.9614 152.647 47.5024 152.647 43.5494Z" fill="#20024E"/>
<path d="M15 25.0099L21.5 18.5099L15 12.0099V25.0099Z" fill="#685AC0"/>
<path d="M15.001 12.0099L21.501 18.5099L28 12.0099H15.001Z" fill="#A094FC"/>
<path d="M28 25.0099V12.0099L21.5 18.5109L28 25.0099Z" fill="#685AC0"/>
<path d="M28 12.0099V25.0099L34.5 18.5099L28 12.0099Z" fill="#C2BFEB"/>
<path d="M41 12.0099H28L34.5 18.5099L41 12.0099Z" fill="#685AC0"/>
<path d="M28.001 25.0099H41L34.5 18.5099L28.001 25.0099Z" fill="#685AC0"/>
<path d="M28 25.0099V38.0099L34.5 31.5099L28 25.0099Z" fill="#C2BFEB"/>
<path d="M41 25.0089L28 25.0098L34.5 31.5098L41 25.0089Z" fill="#A094FC"/>
<path d="M41 38.0089V25.0089L34.5 31.5108L41 38.0089Z" fill="#685AC0"/>
<path d="M15 38.0098L21.5 31.5089L15 25.0089V38.0098Z" fill="#685AC0"/>
<path d="M15.001 25.0099L21.501 31.5099L28 25.0099H15.001Z" fill="#C2BFEB"/>
<path d="M15.001 38.0098H28L21.5 31.5089L15.001 38.0098Z" fill="#A094FC"/>
<path d="M28 51.0089L34.501 44.5099L28 38.0099V51.0089Z" fill="#C2BFEB"/>
<path d="M41 38.0089H28L34.5 44.5098L41 38.0089Z" fill="#685AC0"/>
<path d="M15 38.0089L21.501 44.5098L28 38.0089H15Z" fill="#C2BFEB"/>
<path d="M15.001 25.0099H28L21.5 18.5099L15.001 25.0099Z" fill="#20024E"/>
<path d="M41 25.0089V12.0089L34.5 18.5109L41 25.0089Z" fill="#20024E"/>
<path d="M28 38.0099V25.0099L21.5 31.5109L28 38.0099Z" fill="#20024E"/>
<path d="M28.001 38.0099L41 38.0089L34.5 31.5099L28.001 38.0099Z" fill="#20024E"/>
<path d="M21.5 44.5109L28 51.0089V38.0099L21.5 44.5109Z" fill="#20024E"/>
</svg>
