<svg width="180" height="65" viewBox="0 0 180 65" fill="none" xmlns="http://www.w3.org/2000/svg">
<path d="M39.9185 29.3706C42.4985 29.3706 43.5825 28.2856 43.5825 26.1406C43.5825 23.9946 42.5455 23.0786 39.8225 23.0786H37.5565V29.3706H39.9185ZM39.6285 21.4386C41.8715 21.4386 42.9805 20.6196 42.9805 18.6426C42.9805 16.5946 41.8715 15.8946 39.6535 15.8946H37.5565V21.4386H39.6285ZM33.0005 29.4666H34.0125C34.3745 29.4666 34.7595 29.0326 34.7595 28.6946V16.5216C34.7595 16.1596 34.3745 15.7256 34.0125 15.7256H33.0005V14.1826H39.7255C43.4855 14.1826 45.7755 15.4126 45.7755 18.4496C45.7755 20.6196 44.4745 21.6806 42.3765 22.1146V22.1866C44.8845 22.5236 46.4995 23.7776 46.4995 26.2606C46.4995 29.5396 43.8965 31.0576 39.9905 31.0576H33.0005V29.4666ZM55.4897 28.1411V25.3931C54.7667 25.2481 53.9707 25.1521 53.1267 25.1521C51.2957 25.1521 50.1857 25.8021 50.1857 27.3701C50.1857 28.9121 51.0537 29.5391 52.5247 29.5391C53.8497 29.5391 54.7187 28.9601 55.4897 28.1411ZM47.6067 27.4421C47.6067 24.8381 49.6797 23.6091 52.5967 23.6091C53.7297 23.6091 54.5977 23.7291 55.4897 23.9471V22.2831C55.4897 20.6671 54.5497 20.0891 52.9347 20.0891C51.2707 20.0891 50.3307 20.6671 49.6557 21.2711H48.4507V19.2701C49.5347 18.7401 51.0777 18.2821 53.3917 18.2821C56.3577 18.2821 58.0927 19.2211 58.0927 22.0181V28.7441C58.0927 29.2261 58.4067 29.5151 58.8647 29.5151H59.5147V30.8171C59.1777 31.0341 58.5747 31.2031 57.8517 31.2031C56.4777 31.2031 55.7547 30.6481 55.5617 29.4911C54.6217 30.6481 53.3917 31.2031 51.7047 31.2031C49.2947 31.2031 47.6067 29.9491 47.6067 27.4421ZM60.3818 29.5151H61.3218C61.6358 29.5151 61.9728 29.1771 61.9728 28.8641V20.7411C61.9728 20.4511 61.6358 20.0661 61.3218 20.0661H60.2858V18.4261H63.9738C64.3358 18.4261 64.6008 18.7631 64.5768 19.9691V20.3061C65.8298 19.1491 67.5898 18.2821 69.5428 18.2821C71.3498 18.2821 72.8448 18.9321 72.8448 21.4151V28.8641C72.8448 29.2021 73.1818 29.5151 73.4718 29.5151H74.2678V31.0581H68.5058V29.5151H70.2408V22.2831C70.2408 20.7161 69.5428 20.3301 68.2648 20.3301C66.9148 20.3301 65.6618 20.8851 64.5768 21.5361V29.5151H66.3368V31.0581H60.3818V29.5151ZM75.1455 29.5151H76.0855C76.3985 29.5151 76.7365 29.1771 76.7365 28.8641V16.4501C76.7365 16.1601 76.3985 15.7741 76.0855 15.7741H75.0735V14.1831H78.8575C79.1715 14.1831 79.3405 14.4011 79.3405 14.8341V25.0311L83.3415 20.9571C83.7035 20.5721 83.5585 20.0661 83.1005 20.0661H82.5215V18.4261H87.7535V20.0661H87.1265C86.8125 20.0661 86.3545 20.2831 86.0655 20.5721L82.9315 23.7051L86.4515 28.7681C86.7895 29.2491 87.1745 29.5151 87.5125 29.5151H87.8735V31.0581H84.9805L81.1725 25.4411L79.3405 27.2481V29.5151H80.9315V31.0581H75.1455V29.5151ZM103.324 24.814C103.324 21.68 101.781 20.042 99.5877 20.042C97.3937 20.042 95.8507 21.68 95.8507 24.814C95.8507 27.9 97.3937 29.515 99.5877 29.515C101.781 29.515 103.324 27.9 103.324 24.814ZM93.1507 24.791C93.1507 20.741 95.9717 18.282 99.5877 18.282C103.227 18.282 106.024 20.741 106.024 24.791C106.024 28.792 103.227 31.203 99.5877 31.203C95.9717 31.203 93.1507 28.792 93.1507 24.791ZM106.604 29.5151H107.495C107.832 29.5151 108.171 29.1771 108.171 28.8641V20.0661H106.507V18.4261H108.171V17.3411C108.171 14.9791 109.617 13.9911 111.858 13.9911C112.822 13.9911 113.426 14.1351 113.835 14.2801V15.7741H112.63C111.521 15.7741 110.773 16.0151 110.773 17.4131V18.4261H113.425V20.0661H110.773V28.8641C110.773 29.2021 111.111 29.5151 111.424 29.5151H112.654V31.0581H106.604V29.5151ZM33 50.2651H33.988C34.374 50.2651 34.736 49.8311 34.736 49.4941V37.3211C34.736 36.9591 34.374 36.5251 33.988 36.5251H33V34.9341H39.123L43.101 47.5411H43.172L47.198 34.9341H53.249V36.5251H52.236C51.851 36.5251 51.489 36.9591 51.489 37.3211V49.4941C51.489 49.8311 51.851 50.2651 52.236 50.2651H53.249V51.8081H46.813V50.2651H48.693V36.7901H48.524L43.727 51.8081H41.774L37.001 36.7901H36.857V50.2651H38.761V51.8081H33V50.2651ZM62.5522 44.3355C62.4562 41.6595 61.4192 40.6475 59.5872 40.6475C57.6832 40.6475 56.4532 41.8535 56.2132 44.3355H62.5522ZM53.4402 45.5405C53.4402 41.5395 55.9232 39.0315 59.5872 39.0315C63.1312 39.0315 65.1802 40.8885 65.1802 45.1065C65.1802 45.4685 65.1562 45.8065 65.1562 45.9015H56.1642C56.2602 48.8435 57.5382 50.2895 60.0452 50.2895C61.8292 50.2895 62.6492 49.6625 63.3002 48.8665H64.7942V50.6505C63.8052 51.3025 62.3842 51.9525 59.8522 51.9525C55.6102 51.9525 53.4402 49.4935 53.4402 45.5405ZM65.9097 50.2651H66.8257C67.1627 50.2651 67.5007 49.9281 67.5007 49.6151V37.2001C67.5007 36.9111 67.1627 36.5251 66.8257 36.5251H65.8377V34.9341H69.6217C69.9587 34.9341 70.1037 35.1511 70.1037 35.5841V49.6151C70.1037 49.9521 70.4417 50.2651 70.7547 50.2651H71.6947V51.8081H65.9097V50.2651ZM82.166 45.5405C82.166 41.8285 80.599 40.9365 78.839 40.9365C77.61 40.9365 76.477 41.6105 75.609 42.3115V49.2045C76.333 49.9285 77.224 50.3865 78.623 50.3865C80.334 50.3865 82.166 49.4455 82.166 45.5405ZM75.392 50.4825C75.175 51.2775 74.693 51.8085 74.404 51.8085H73.005V37.1995C73.005 36.9105 72.668 36.5245 72.355 36.5245H71.343V34.9345H75.127C75.44 34.9345 75.609 35.1505 75.609 35.5845V41.0815C76.597 39.9965 77.947 39.0315 80.02 39.0315C82.407 39.0315 84.866 40.5265 84.866 45.3235C84.866 50.2655 82.022 51.9525 79.346 51.9525C77.32 51.9525 76.236 51.3505 75.392 50.4825ZM96.2017 45.5649C96.2017 42.4309 94.6597 40.7919 92.4657 40.7919C90.2717 40.7919 88.7287 42.4309 88.7287 45.5649C88.7287 48.6499 90.2717 50.2649 92.4657 50.2649C94.6597 50.2649 96.2017 48.6499 96.2017 45.5649ZM86.0287 45.5409C86.0287 41.4909 88.8497 39.0319 92.4657 39.0319C96.1047 39.0319 98.9017 41.4909 98.9017 45.5409C98.9017 49.5429 96.1047 51.9529 92.4657 51.9529C88.8497 51.9529 86.0287 49.5429 86.0287 45.5409ZM100.757 48.8433V41.4663C100.757 41.1533 100.419 40.8163 100.106 40.8163H99.1658V39.1773H103.361V48.0243C103.361 49.6623 104.204 50.0723 105.385 50.0723C106.687 50.0723 107.965 49.4933 108.977 48.8193V40.8163H107.169V39.1773H111.581V49.5903C111.581 49.9043 111.918 50.2653 112.255 50.2653H113.22V51.8083H109.579C109.242 51.8083 109.001 51.5193 109.001 50.3373V50.0253C107.699 51.1813 106.18 51.9773 104.132 51.9773C102.372 51.9773 100.757 51.2783 100.757 48.8433ZM114.098 50.2651H115.038C115.351 50.2651 115.689 49.9281 115.689 49.6151V41.4911C115.689 41.2021 115.351 40.8161 115.038 40.8161H114.002V39.1771H117.69C118.051 39.1771 118.293 39.4911 118.293 40.8641V41.2741C119.184 40.1411 120.293 39.0791 122.053 39.0791C122.342 39.0791 122.583 39.1281 122.776 39.1771V41.3221H122.27C120.342 41.3221 119.233 41.7801 118.293 42.6001V50.2651H120.293V51.8081H114.098V50.2651ZM123.715 50.2651H124.655C124.969 50.2651 125.307 49.9281 125.307 49.6151V41.4911C125.307 41.2021 124.969 40.8161 124.655 40.8161H123.619V39.1771H127.307C127.669 39.1771 127.934 39.5141 127.909 40.7191V41.0571C129.163 39.9001 130.923 39.0321 132.876 39.0321C134.683 39.0321 136.178 39.6831 136.178 42.1651V49.6151C136.178 49.9521 136.516 50.2651 136.805 50.2651H137.6V51.8081H131.839V50.2651H133.574V43.0341C133.574 41.4661 132.876 41.0811 131.597 41.0811C130.248 41.0811 128.995 41.6351 127.909 42.2861V50.2651H129.669V51.8081H123.715V50.2651ZM146.759 44.3355C146.662 41.6595 145.626 40.6475 143.794 40.6475C141.89 40.6475 140.661 41.8535 140.419 44.3355H146.759ZM137.647 45.5405C137.647 41.5395 140.13 39.0315 143.794 39.0315C147.338 39.0315 149.387 40.8885 149.387 45.1065C149.387 45.4685 149.363 45.8065 149.363 45.9015H140.371C140.467 48.8435 141.745 50.2895 144.252 50.2895C146.035 50.2895 146.855 49.6625 147.507 48.8665H149.001V50.6505C148.012 51.3025 146.591 51.9525 144.059 51.9525C139.817 51.9525 137.647 49.4935 137.647 45.5405Z" fill="#20024E"/>
<path d="M0 27.001L6.5 20.501L0 14.001V27.001Z" fill="#685AC0"/>
<path d="M0.000976562 14.001L6.50098 20.501L13 14.001H0.000976562Z" fill="#A094FC"/>
<path d="M13 27.001V14.001L6.5 20.502L13 27.001Z" fill="#685AC0"/>
<path d="M13 14.001V27.001L19.5 20.501L13 14.001Z" fill="#C2BFEB"/>
<path d="M26 14.001H13L19.5 20.501L26 14.001Z" fill="#685AC0"/>
<path d="M13.001 27.001H26L19.5 20.501L13.001 27.001Z" fill="#685AC0"/>
<path d="M13 27.001V40.001L19.5 33.501L13 27.001Z" fill="#C2BFEB"/>
<path d="M26 27L13 27.001L19.5 33.501L26 27Z" fill="#A094FC"/>
<path d="M26 40V27L19.5 33.502L26 40Z" fill="#685AC0"/>
<path d="M0 40.001L6.5 33.5L0 27V40.001Z" fill="#685AC0"/>
<path d="M0.000976562 27.001L6.50098 33.501L13 27.001H0.000976562Z" fill="#C2BFEB"/>
<path d="M0.000976562 40.001H13L6.49998 33.5L0.000976562 40.001Z" fill="#A094FC"/>
<path d="M13 53L19.501 46.501L13 40.001V53Z" fill="#C2BFEB"/>
<path d="M26 40H13L19.5 46.501L26 40Z" fill="#685AC0"/>
<path d="M0 40L6.501 46.501L13 40H0Z" fill="#C2BFEB"/>
<path d="M0.000976562 27.001H13L6.49998 20.501L0.000976562 27.001Z" fill="#20024E"/>
<path d="M26 27V14L19.5 20.502L26 27Z" fill="#20024E"/>
<path d="M13 40.001V27.001L6.5 33.502L13 40.001Z" fill="#20024E"/>
<path d="M13.001 40.001L26 40L19.5 33.501L13.001 40.001Z" fill="#20024E"/>
<path d="M6.5 46.502L13 53V40.001L6.5 46.502Z" fill="#20024E"/>
</svg>
