<svg width="180" height="65" viewBox="0 0 180 65" fill="none" xmlns="http://www.w3.org/2000/svg">
<g clip-path="url(#clip0_110_539)">
<path d="M70.9185 29.3706C73.4985 29.3706 74.5825 28.2857 74.5825 26.1406C74.5825 23.9946 73.5455 23.0786 70.8225 23.0786H68.5565V29.3706H70.9185ZM70.6285 21.4387C72.8715 21.4387 73.9805 20.6197 73.9805 18.6427C73.9805 16.5947 72.8715 15.8947 70.6535 15.8947H68.5565V21.4387H70.6285ZM64.0005 29.4667H65.0125C65.3745 29.4667 65.7595 29.0327 65.7595 28.6947V16.5217C65.7595 16.1597 65.3745 15.7256 65.0125 15.7256H64.0005V14.1826H70.7255C74.4855 14.1826 76.7755 15.4126 76.7755 18.4496C76.7755 20.6196 75.4745 21.6807 73.3765 22.1147V22.1866C75.8845 22.5236 77.4995 23.7777 77.4995 26.2607C77.4995 29.5397 74.8965 31.0576 70.9905 31.0576H64.0005V29.4667ZM86.4897 28.1411V25.3932C85.7667 25.2481 84.9707 25.1521 84.1267 25.1521C82.2957 25.1521 81.1857 25.8021 81.1857 27.3701C81.1857 28.9121 82.0537 29.5392 83.5247 29.5392C84.8497 29.5392 85.7187 28.9601 86.4897 28.1411ZM78.6067 27.4422C78.6067 24.8382 80.6797 23.6091 83.5967 23.6091C84.7297 23.6091 85.5977 23.7291 86.4897 23.9471V22.2831C86.4897 20.6671 85.5497 20.0891 83.9347 20.0891C82.2707 20.0891 81.3307 20.6672 80.6557 21.2712H79.4507V19.2701C80.5347 18.7401 82.0777 18.2822 84.3917 18.2822C87.3577 18.2822 89.0927 19.2212 89.0927 22.0182V28.7442C89.0927 29.2262 89.4067 29.5152 89.8647 29.5152H90.5147V30.8172C90.1777 31.0341 89.5747 31.2031 88.8517 31.2031C87.4777 31.2031 86.7547 30.6481 86.5617 29.4911C85.6217 30.6481 84.3917 31.2031 82.7047 31.2031C80.2947 31.2031 78.6067 29.9492 78.6067 27.4422ZM91.3818 29.5152H92.3218C92.6358 29.5152 92.9728 29.1772 92.9728 28.8642V20.7411C92.9728 20.4511 92.6358 20.0662 92.3218 20.0662H91.2858V18.4261H94.9738C95.3358 18.4261 95.6008 18.7632 95.5768 19.9692V20.3062C96.8298 19.1492 98.5898 18.2822 100.543 18.2822C102.35 18.2822 103.845 18.9321 103.845 21.4151V28.8642C103.845 29.2022 104.182 29.5152 104.472 29.5152H105.268V31.0581H99.5058V29.5152H101.241V22.2831C101.241 20.7161 100.543 20.3302 99.2648 20.3302C97.9148 20.3302 96.6618 20.8851 95.5768 21.5361V29.5152H97.3368V31.0581H91.3818V29.5152ZM106.146 29.5152H107.086C107.399 29.5152 107.737 29.1772 107.737 28.8642V16.4501C107.737 16.1601 107.399 15.7741 107.086 15.7741H106.074V14.1832H109.857C110.171 14.1832 110.34 14.4012 110.34 14.8342V25.0312L114.341 20.9571C114.703 20.5721 114.559 20.0662 114.101 20.0662H113.521V18.4261H118.754V20.0662H118.127C117.813 20.0662 117.354 20.2831 117.065 20.5721L113.932 23.7052L117.451 28.7682C117.79 29.2492 118.174 29.5152 118.512 29.5152H118.873V31.0581H115.98L112.173 25.4412L110.34 27.2481V29.5152H111.932V31.0581H106.146V29.5152ZM134.324 24.8141C134.324 21.6801 132.781 20.042 130.588 20.042C128.394 20.042 126.851 21.6801 126.851 24.8141C126.851 27.9001 128.394 29.5151 130.588 29.5151C132.781 29.5151 134.324 27.9001 134.324 24.8141ZM124.151 24.791C124.151 20.741 126.972 18.282 130.588 18.282C134.227 18.282 137.024 20.741 137.024 24.791C137.024 28.792 134.227 31.2031 130.588 31.2031C126.972 31.2031 124.151 28.792 124.151 24.791ZM137.604 29.5152H138.495C138.832 29.5152 139.171 29.1772 139.171 28.8642V20.0662H137.507V18.4261H139.171V17.3412C139.171 14.9792 140.617 13.9911 142.858 13.9911C143.822 13.9911 144.426 14.1352 144.835 14.2802V15.7741H143.63C142.521 15.7741 141.773 16.0152 141.773 17.4132V18.4261H144.425V20.0662H141.773V28.8642C141.773 29.2022 142.111 29.5152 142.424 29.5152H143.654V31.0581H137.604V29.5152ZM64 50.2652H64.988C65.374 50.2652 65.736 49.8312 65.736 49.4941V37.3211C65.736 36.9592 65.374 36.5251 64.988 36.5251H64V34.9341H70.123L74.101 47.5412H74.172L78.198 34.9341H84.249V36.5251H83.236C82.851 36.5251 82.489 36.9592 82.489 37.3211V49.4941C82.489 49.8312 82.851 50.2652 83.236 50.2652H84.249V51.8082H77.813V50.2652H79.693V36.7902H79.524L74.727 51.8082H72.774L68.001 36.7902H67.857V50.2652H69.761V51.8082H64V50.2652ZM93.5522 44.3356C93.4562 41.6595 92.4192 40.6476 90.5872 40.6476C88.6832 40.6476 87.4532 41.8535 87.2132 44.3356H93.5522ZM84.4402 45.5405C84.4402 41.5395 86.9232 39.0315 90.5872 39.0315C94.1312 39.0315 96.1802 40.8885 96.1802 45.1066C96.1802 45.4685 96.1562 45.8065 96.1562 45.9015H87.1642C87.2602 48.8435 88.5382 50.2896 91.0452 50.2896C92.8292 50.2896 93.6492 49.6625 94.3002 48.8665H95.7942V50.6506C94.8052 51.3026 93.3842 51.9526 90.8522 51.9526C86.6102 51.9526 84.4402 49.4935 84.4402 45.5405ZM96.9097 50.2652H97.8257C98.1627 50.2652 98.5007 49.9282 98.5007 49.6152V37.2002C98.5007 36.9112 98.1627 36.5251 97.8257 36.5251H96.8377V34.9341H100.622C100.959 34.9341 101.104 35.1511 101.104 35.5842V49.6152C101.104 49.9522 101.442 50.2652 101.755 50.2652H102.695V51.8082H96.9097V50.2652ZM113.166 45.5405C113.166 41.8285 111.599 40.9365 109.839 40.9365C108.61 40.9365 107.477 41.6105 106.609 42.3115V49.2046C107.333 49.9286 108.224 50.3866 109.623 50.3866C111.334 50.3866 113.166 49.4455 113.166 45.5405ZM106.392 50.4826C106.175 51.2775 105.693 51.8085 105.404 51.8085H104.005V37.1995C104.005 36.9105 103.668 36.5245 103.355 36.5245H102.343V34.9345H106.127C106.44 34.9345 106.609 35.1506 106.609 35.5846V41.0815C107.597 39.9965 108.947 39.0315 111.02 39.0315C113.407 39.0315 115.866 40.5266 115.866 45.3235C115.866 50.2655 113.022 51.9526 110.346 51.9526C108.32 51.9526 107.236 51.3506 106.392 50.4826ZM127.202 45.565C127.202 42.431 125.66 40.7919 123.466 40.7919C121.272 40.7919 119.729 42.431 119.729 45.565C119.729 48.65 121.272 50.265 123.466 50.265C125.66 50.265 127.202 48.65 127.202 45.565ZM117.029 45.5409C117.029 41.4909 119.85 39.0319 123.466 39.0319C127.105 39.0319 129.902 41.4909 129.902 45.5409C129.902 49.5429 127.105 51.9529 123.466 51.9529C119.85 51.9529 117.029 49.5429 117.029 45.5409ZM131.757 48.8434V41.4663C131.757 41.1533 131.419 40.8164 131.106 40.8164H130.166V39.1774H134.361V48.0244C134.361 49.6624 135.204 50.0723 136.385 50.0723C137.687 50.0723 138.965 49.4934 139.977 48.8194V40.8164H138.169V39.1774H142.581V49.5903C142.581 49.9043 142.918 50.2654 143.255 50.2654H144.22V51.8083H140.579C140.242 51.8083 140.001 51.5193 140.001 50.3373V50.0254C138.699 51.1814 137.18 51.9773 135.132 51.9773C133.372 51.9773 131.757 51.2784 131.757 48.8434ZM145.098 50.2652H146.038C146.351 50.2652 146.689 49.9282 146.689 49.6152V41.4912C146.689 41.2022 146.351 40.8161 146.038 40.8161H145.002V39.1771H148.69C149.051 39.1771 149.293 39.4911 149.293 40.8641V41.2741C150.184 40.1411 151.293 39.0791 153.053 39.0791C153.342 39.0791 153.583 39.1281 153.776 39.1771V41.3221H153.27C151.342 41.3221 150.233 41.7801 149.293 42.6001V50.2652H151.293V51.8082H145.098V50.2652ZM154.715 50.2652H155.655C155.969 50.2652 156.307 49.9282 156.307 49.6152V41.4912C156.307 41.2022 155.969 40.8161 155.655 40.8161H154.619V39.1771H158.307C158.669 39.1771 158.934 39.5141 158.909 40.7191V41.0571C160.163 39.9002 161.923 39.0321 163.876 39.0321C165.683 39.0321 167.178 39.6832 167.178 42.1652V49.6152C167.178 49.9522 167.516 50.2652 167.805 50.2652H168.6V51.8082H162.839V50.2652H164.574V43.0342C164.574 41.4662 163.876 41.0811 162.597 41.0811C161.248 41.0811 159.995 41.6352 158.909 42.2861V50.2652H160.669V51.8082H154.715V50.2652ZM177.759 44.3356C177.662 41.6595 176.626 40.6476 174.794 40.6476C172.89 40.6476 171.661 41.8535 171.419 44.3356H177.759ZM168.647 45.5405C168.647 41.5395 171.13 39.0315 174.794 39.0315C178.338 39.0315 180.387 40.8885 180.387 45.1066C180.387 45.4685 180.363 45.8065 180.363 45.9015H171.371C171.467 48.8435 172.745 50.2896 175.252 50.2896C177.035 50.2896 177.855 49.6625 178.507 48.8665H180.001V50.6506C179.012 51.3026 177.591 51.9526 175.059 51.9526C170.817 51.9526 168.647 49.4935 168.647 45.5405Z" fill="#20024E"/>
<path d="M31 27.001L37.5 20.501L31 14.001V27.001Z" fill="#685AC0"/>
<path d="M31.001 14.001L37.501 20.501L44 14.001H31.001Z" fill="#A094FC"/>
<path d="M44 27.001V14.001L37.5 20.502L44 27.001Z" fill="#685AC0"/>
<path d="M44 14.001V27.001L50.5 20.501L44 14.001Z" fill="#C2BFEB"/>
<path d="M57 14.001H44L50.5 20.501L57 14.001Z" fill="#685AC0"/>
<path d="M44.001 27.001H57L50.5 20.501L44.001 27.001Z" fill="#685AC0"/>
<path d="M44 27.001V40.001L50.5 33.501L44 27.001Z" fill="#C2BFEB"/>
<path d="M57 27L44 27.001L50.5 33.501L57 27Z" fill="#A094FC"/>
<path d="M57 40V27L50.5 33.502L57 40Z" fill="#685AC0"/>
<path d="M31 40.001L37.5 33.5L31 27V40.001Z" fill="#685AC0"/>
<path d="M31.001 27.001L37.501 33.501L44 27.001H31.001Z" fill="#C2BFEB"/>
<path d="M31.001 40.001H44L37.5 33.5L31.001 40.001Z" fill="#A094FC"/>
<path d="M44 53L50.501 46.501L44 40.001V53Z" fill="#C2BFEB"/>
<path d="M57 40H44L50.5 46.501L57 40Z" fill="#685AC0"/>
<path d="M31 40L37.501 46.501L44 40H31Z" fill="#C2BFEB"/>
<path d="M31.001 27.001H44L37.5 20.501L31.001 27.001Z" fill="#20024E"/>
<path d="M57 27V14L50.5 20.502L57 27Z" fill="#20024E"/>
<path d="M44 40.001V27.001L37.5 33.502L44 40.001Z" fill="#20024E"/>
<path d="M44.001 40.001L57 40L50.5 33.501L44.001 40.001Z" fill="#20024E"/>
<path d="M37.5 46.502L44 53V40.001L37.5 46.502Z" fill="#20024E"/>
</g>
<defs>
<clipPath id="clip0_110_539">
<rect width="180" height="65" fill="white"/>
</clipPath>
</defs>
</svg>
