<svg width="122" height="44" viewBox="0 0 122 44" fill="none" xmlns="http://www.w3.org/2000/svg">
<path d="M48 16.001L54.5 9.50098L48 3.00098V16.001Z" fill="#685AC0"/>
<path d="M48.001 3.00098L54.501 9.50098L61 3.00098H48.001Z" fill="#A094FC"/>
<path d="M61 16.001V3.00098L54.5 9.50198L61 16.001Z" fill="#685AC0"/>
<path d="M48.001 16.001H61L54.5 9.50098L48.001 16.001Z" fill="#20024E"/>
<path d="M61 3.00098V16.001L67.5 9.50098L61 3.00098Z" fill="#C2BFEB"/>
<path d="M74 3.00098H61L67.5 9.50098L74 3.00098Z" fill="#685AC0"/>
<path d="M74 16V3L67.5 9.502L74 16Z" fill="#20024E"/>
<path d="M61.001 16.001H74L67.5 9.50098L61.001 16.001Z" fill="#685AC0"/>
<path d="M61 16.001V29.001L67.5 22.501L61 16.001Z" fill="#C2BFEB"/>
<path d="M74 16L61 16.001L67.5 22.501L74 16Z" fill="#A094FC"/>
<path d="M74 29V16L67.5 22.502L74 29Z" fill="#685AC0"/>
<path d="M61.001 29.001L74 29L67.5 22.501L61.001 29.001Z" fill="#20024E"/>
<path d="M48 29.001L54.5 22.5L48 16V29.001Z" fill="#685AC0"/>
<path d="M48.001 16.001L54.501 22.501L61 16.001H48.001Z" fill="#C2BFEB"/>
<path d="M61 29.001V16.001L54.5 22.502L61 29.001Z" fill="#20024E"/>
<path d="M48.001 29.001H61L54.5 22.5L48.001 29.001Z" fill="#A094FC"/>
<path d="M61 42L67.501 35.501L61 29.001V42Z" fill="#C2BFEB"/>
<path d="M74 29H61L67.5 35.501L74 29Z" fill="#685AC0"/>
<path d="M48 29L54.501 35.501L61 29H48Z" fill="#C2BFEB"/>
<path d="M54.5 35.502L61 42V29.001L54.5 35.502Z" fill="#20024E"/>
</svg>
