<svg width="122" height="44" viewBox="0 0 122 44" fill="none" xmlns="http://www.w3.org/2000/svg">
<path d="M96 16.001L102.5 9.50098L96 3.00098V16.001Z" fill="#685AC0"/>
<path d="M96.001 3.00098L102.501 9.50098L109 3.00098H96.001Z" fill="#A094FC"/>
<path d="M109 16.001V3.00098L102.5 9.50198L109 16.001Z" fill="#685AC0"/>
<path d="M96.001 16.001H109L102.5 9.50098L96.001 16.001Z" fill="#20024E"/>
<path d="M109 3.00098V16.001L115.5 9.50098L109 3.00098Z" fill="#C2BFEB"/>
<path d="M122 3.00098H109L115.5 9.50098L122 3.00098Z" fill="#685AC0"/>
<path d="M122 16V3L115.5 9.502L122 16Z" fill="#20024E"/>
<path d="M109.001 16.001H122L115.5 9.50098L109.001 16.001Z" fill="#685AC0"/>
<path d="M109 16.001V29.001L115.5 22.501L109 16.001Z" fill="#C2BFEB"/>
<path d="M122 16L109 16.001L115.5 22.501L122 16Z" fill="#A094FC"/>
<path d="M122 29V16L115.5 22.502L122 29Z" fill="#685AC0"/>
<path d="M109.001 29.001L122 29L115.5 22.501L109.001 29.001Z" fill="#20024E"/>
<path d="M96 29.001L102.5 22.5L96 16V29.001Z" fill="#685AC0"/>
<path d="M96.001 16.001L102.501 22.501L109 16.001H96.001Z" fill="#C2BFEB"/>
<path d="M109 29.001V16.001L102.5 22.502L109 29.001Z" fill="#20024E"/>
<path d="M96.001 29.001H109L102.5 22.5L96.001 29.001Z" fill="#A094FC"/>
<path d="M109 42L115.501 35.501L109 29.001V42Z" fill="#C2BFEB"/>
<path d="M122 29H109L115.5 35.501L122 29Z" fill="#685AC0"/>
<path d="M96 29L102.501 35.501L109 29H96Z" fill="#C2BFEB"/>
<path d="M102.5 35.502L109 42V29.001L102.5 35.502Z" fill="#20024E"/>
</svg>
