<svg width="116" height="54" viewBox="0 0 116 54" fill="none" xmlns="http://www.w3.org/2000/svg">
<g clip-path="url(#clip0_2_444)">
<path d="M113.742 2.73399H2.74182V51.734H113.742V2.73399Z" fill="#0A2652"/>
<path fill-rule="evenodd" clip-rule="evenodd" d="M112.937 49.8256C112.937 50.3741 112.659 50.906 111.851 50.9221H4.10197C4.07307 50.9221 4.05014 50.9166 4.02674 50.9166C3.49972 50.8862 3.07682 50.4514 3.07682 49.9121C3.07682 49.9121 3.08049 30.1688 3.08049 16.6001H14.3754L9.82076 18.2607V43.2796C9.82076 43.9767 10.2116 44.3435 10.7991 44.3991H26.1364C31.3749 44.2284 35.5695 39.9256 35.5695 34.6303C35.5695 31.1595 33.7651 28.1165 31.0451 26.38C32.7473 24.8702 34.0302 22.4112 34.0302 19.9757C34.0302 13.5052 29.4508 9.83462 22.9146 9.83462H16.5541V3.07789C44.9816 3.07789 111.851 3.07789 111.851 3.07789C112.69 3.07789 112.937 3.62638 112.937 4.16935V49.8256ZM3.08049 4.09205V4.0902C3.08049 3.55644 3.49101 3.1193 4.01069 3.07789C4.01069 3.07789 6.14996 3.07789 9.82076 3.07789V9.83462H3.08049C3.08049 6.3403 3.08049 4.09205 3.08049 4.09205ZM16.4537 16.4151H23.7746C25.6901 16.4151 27.2473 18.0578 27.2473 19.9812C27.2473 21.9078 25.6901 23.4719 23.7746 23.4719L22.5082 23.5363C21.8308 23.5671 21.4707 23.9679 21.4547 24.5895L21.4565 28.8748C21.4959 29.5526 21.9152 29.9083 22.5601 29.9083H25.7098C27.7917 29.9083 29.4797 31.6017 29.4797 33.6921C29.4797 35.6656 27.9637 37.2798 26.0359 37.4413L17.5288 37.4487C16.8945 37.4358 16.4826 37.0709 16.4537 36.3701V16.4151ZM113.858 0H2.15259C0.970118 0 0.0078125 0.965379 0.0078125 2.15715V51.8452C0.0078125 53.0351 0.970118 54 2.15259 54H113.858C115.04 54 116.008 53.0351 116.008 51.8452V2.15715C116.008 0.965379 115.04 0 113.858 0ZM52.2911 26.4554H45.6485V17.4251L52.2911 17.4196C54.7776 17.4196 56.7962 19.4415 56.7962 21.9387C56.7962 24.434 54.7776 26.4554 52.2911 26.4554ZM52.3695 12.7423H42.0153C41.1154 12.7423 40.9861 13.4872 40.9861 13.9501C40.9861 14.4181 40.9897 40.2473 40.9897 40.2473C40.9897 41.3291 41.9837 41.2844 42.0933 41.2844H44.738C45.1729 41.2844 45.654 40.932 45.654 40.4322L45.6485 31.0048H52.3695C57.3957 31.0048 61.4724 26.9183 61.4724 21.8724C61.4724 16.8292 57.3957 12.7423 52.3695 12.7423ZM68.4842 30.6938L73.1554 17.4196L78.1087 30.6938H68.4842ZM76.7207 13.9409C76.368 13.2185 76.112 12.7478 74.8346 12.7478H71.4762C70.2001 12.7478 69.9465 13.2185 69.5915 13.9409C69.2686 14.6532 59.8749 40.1824 59.8749 40.1824C59.8749 40.1824 59.3231 41.2844 60.7358 41.2844C62.1802 41.2844 62.4925 41.3024 63.1062 41.3024C63.7525 41.3024 64.4997 41.18 64.8492 40.1644C65.1584 39.2764 66.5638 35.3601 66.5638 35.3601H79.7484C79.7484 35.3601 81.1557 39.2764 81.4611 40.1644C81.8134 41.18 82.5601 41.3024 83.2046 41.3024C83.8183 41.3024 84.1325 41.2844 85.575 41.2844C86.9914 41.2844 86.4378 40.1824 86.4378 40.1824C86.4378 40.1824 77.0436 14.6532 76.7207 13.9409ZM105.346 12.717C103.901 12.717 103.254 12.6981 102.642 12.6981C101.996 12.6981 101.247 12.8186 100.897 13.8365L99.6083 16.1574L94.4403 25.3285L89.2738 16.1574L87.9858 13.8365C87.6345 12.8186 86.8873 12.6981 86.2406 12.6981C85.6287 12.6981 84.9792 12.717 83.5357 12.717C82.1198 12.717 82.6734 13.8176 82.6734 13.8176C82.6734 13.8176 87.9184 23.1438 92.1387 30.6814C92.1387 30.6814 92.0653 39.6413 92.0653 40.2652C92.0653 40.8887 92.3979 41.2844 93.0721 41.2844H95.5334C95.976 41.2844 96.7631 41.2467 96.7631 40.2937L96.7443 30.6814C100.966 23.1438 106.209 13.8176 106.209 13.8176C106.209 13.8176 106.761 12.717 105.346 12.717Z" fill="#FFFFFE"/>
</g>
<defs>
<clipPath id="clip0_2_444">
<rect width="116" height="54" fill="white" transform="translate(0.0078125)"/>
</clipPath>
</defs>
</svg>
