<svg width="60" height="88" viewBox="0 0 60 88" fill="none" xmlns="http://www.w3.org/2000/svg">
<g clip-path="url(#clip0_2_443)">
<path d="M56.0078 4H4.00781V84H56.0078V4Z" fill="#0A2652"/>
<path fill-rule="evenodd" clip-rule="evenodd" d="M55.9459 82.4647C55.9459 83.1989 55.5772 83.8952 54.5075 83.9166H5.42978C5.40123 83.9166 5.36782 83.9166 5.33259 83.9093C4.63222 83.869 4.07216 83.2898 4.07216 82.5746C4.07216 82.5746 4.07702 44.6832 4.07702 22.0111H19.0309L13.0087 24.2191V57.3948C13.0087 58.3243 13.5214 58.8107 14.3044 58.8821H34.6116C41.5521 58.6581 47.1041 52.9507 47.1041 45.9276C47.1041 41.3218 44.715 37.2835 41.1227 34.9827C43.3671 32.9822 45.0661 29.7117 45.0661 26.4882C45.0661 17.9064 39.0057 13.0357 30.3443 13.0357H21.9259V4.08342C36.2061 4.08342 54.5075 4.0883 54.5075 4.0883C55.6179 4.0883 55.9459 4.8182 55.9459 5.53772V82.4647ZM4.07702 5.43275V5.42848C4.07702 4.71323 4.62736 4.14078 5.31558 4.08342C5.31558 4.08342 8.39102 4.08342 13.0087 4.08342V13.0406H4.07702C4.07702 8.34869 4.07702 5.43275 4.07702 5.43275ZM21.7929 21.7682H31.4833C34.0327 21.7682 36.0852 23.9567 36.0852 26.5004C36.0852 29.0532 34.0327 31.1227 31.4833 31.1227L29.8086 31.2112C28.909 31.2466 28.4418 31.7781 28.4109 32.6081V38.2868C28.4753 39.1907 29.0232 39.66 29.8845 39.66H34.0466C36.8111 39.66 39.0483 41.9131 39.0483 44.6783C39.0483 47.3007 37.0316 49.4416 34.4883 49.6558L23.2118 49.6656C22.3742 49.6442 21.8263 49.1578 21.7929 48.2351V21.7682ZM57.1632 0H2.84818C1.28221 0 0.0078125 1.28038 0.0078125 2.85613V85.1396C0.0078125 86.7178 1.28221 88 2.84818 88H57.1632C58.734 88 60.0078 86.7178 60.0078 85.1396V2.85613C60.0078 1.28038 58.734 0 57.1632 0ZM27.1571 72.7118L29.5607 65.8723L32.1095 72.7118H27.1571ZM31.3952 64.0793C31.2124 63.7076 31.0818 63.4641 30.4245 63.4641H28.6976C28.0403 63.4641 27.9097 63.7076 27.7269 64.0793C27.5605 64.4467 22.7271 77.6007 22.7271 77.6007C22.7271 77.6007 22.4428 78.1683 23.1711 78.1683C23.914 78.1683 24.075 78.1781 24.3909 78.1781C24.7231 78.1781 25.107 78.1158 25.2874 77.5916C25.446 77.1339 26.1688 75.1169 26.1688 75.1169H32.9527C32.9527 75.1169 33.6767 77.1339 33.8347 77.5916C34.0151 78.1158 34.3996 78.1781 34.7318 78.1781C35.0477 78.1781 35.2087 78.1683 35.9516 78.1683C36.6799 78.1683 36.395 77.6007 36.395 77.6007C36.395 77.6007 31.561 64.4467 31.3952 64.0793ZM18.8255 70.5275H15.4075V65.8741L18.8255 65.8723C20.1054 65.8723 21.1429 66.914 21.1429 68.1999C21.1429 69.4858 20.1054 70.5275 18.8255 70.5275ZM18.8662 63.4617H13.5378C13.075 63.4617 13.0087 63.8455 13.0087 64.0842C13.0087 64.3246 13.0112 77.6343 13.0112 77.6343C13.0112 78.1921 13.5214 78.1683 13.5779 78.1683H14.9404C15.1633 78.1683 15.4099 77.9871 15.4099 77.7295L15.4075 72.8723H18.8662C21.4527 72.8723 23.5496 70.7662 23.5496 68.1664C23.5496 65.5678 21.4527 63.4617 18.8662 63.4617ZM46.1231 63.4489C45.3802 63.4489 45.0467 63.4391 44.7314 63.4391C44.3992 63.4391 44.0147 63.5013 43.8342 64.0256L43.1715 65.2211L40.5128 69.9472L37.854 65.2211L37.1907 64.0256C37.0103 63.5013 36.6258 63.4391 36.2935 63.4391C35.9783 63.4391 35.6448 63.4489 34.9019 63.4489C34.1736 63.4489 34.4585 64.0164 34.4585 64.0164C34.4585 64.0164 37.1561 68.8224 39.3271 72.7057C39.3271 72.7057 39.2906 77.3219 39.2906 77.6441C39.2906 77.9657 39.4613 78.1683 39.8076 78.1683H41.0747C41.3025 78.1683 41.7082 78.1494 41.7082 77.6581L41.6979 72.7057C43.8689 68.8224 46.5665 64.0164 46.5665 64.0164C46.5665 64.0164 46.8514 63.4489 46.1231 63.4489Z" fill="#FFFFFE"/>
</g>
<defs>
<clipPath id="clip0_2_443">
<rect width="60" height="88" fill="white" transform="translate(0.0078125)"/>
</clipPath>
</defs>
</svg>
