<svg width="122" height="44" viewBox="0 0 122 44" fill="none" xmlns="http://www.w3.org/2000/svg">
<path d="M70.5 30C69.525 30 69 29.528 69 28.5V11.5C69 10.548 69.526 10 70.5 10H94.5C95.46 10 96 10.516 96 11.5V41.344C96 41.695 95.663 42 95.248 42C95.248 42 95.504 42 95.248 42C94.789 42 94.616 41.59 94.495 41.392C87.391 29.694 70.5 30 70.5 30Z" fill="#D81B2B"/>
<path d="M89.7041 12.1471C89.9961 12.1471 90.2141 12.3221 90.2621 12.5401L93.9281 26.8061C93.9761 26.9811 94.0011 27.1561 94.0011 27.1781C94.0011 27.4181 93.7821 27.6361 93.4671 27.6361H91.6701C91.3791 27.6361 91.2091 27.4181 91.1361 27.1561L90.4171 24.4371C90.4121 24.4171 90.3941 24.4031 90.3731 24.4031H85.7831C85.7621 24.4031 85.7441 24.4171 85.7391 24.4371L85.0191 27.1561C84.9471 27.4181 84.7771 27.6361 84.4851 27.6361H82.6891C82.3731 27.6361 82.1551 27.4181 82.1551 27.1781C82.1551 27.1561 82.1791 26.9801 82.2271 26.8061L85.8931 12.5401C85.9421 12.3221 86.1601 12.1471 86.4511 12.1471H89.7041ZM87.9401 15.4411L86.3191 22.0741C86.3121 22.1041 86.3341 22.1311 86.3641 22.1311H89.7921C89.8221 22.1311 89.8431 22.1041 89.8361 22.0741L88.2161 15.4411C88.1401 15.1321 88.0161 15.1321 87.9401 15.4411ZM74.1606 15.8233C74.1606 16.8803 74.7196 17.3243 75.9326 18.0233L78.6536 19.6033C80.4986 20.6743 81.2486 21.8473 81.2486 23.8803C81.2496 26.6333 79.1856 27.9783 76.2006 27.9783C73.3356 27.9783 71.1996 26.6093 71.1996 23.8133L71.2136 22.9173C71.2136 22.5893 71.5296 22.3053 71.9176 22.3053H73.4566C73.8456 22.3053 74.1606 22.5903 74.1606 22.9173V23.8133C74.1606 24.9273 74.9866 25.6343 76.2006 25.6343C77.5356 25.6343 78.2376 25.0973 78.2376 23.8963H78.2386C78.2386 22.5103 77.0566 21.9033 76.2066 21.4003L73.1586 19.6123C71.7716 18.8133 71.1996 17.3023 71.1996 16.0573C71.1996 13.3043 73.1896 11.6663 76.2486 11.6663C79.1376 11.6663 81.2486 13.1083 81.2486 15.9273L81.2346 16.4073C81.2346 16.7343 80.9186 17.0183 80.5306 17.0183H78.9916C78.6026 17.0183 78.2876 16.7343 78.2876 16.4073V15.9273C78.2876 14.8123 77.5836 13.9143 76.2486 13.9143C74.9136 13.9143 74.1606 14.6213 74.1606 15.8233Z" fill="white"/>
<path d="M36.1494 24.9238C36.1494 23.1128 37.0704 22.1308 38.5254 21.5858L41.4834 20.4938C42.4044 20.1458 42.7194 19.9048 42.7194 19.2728C42.7194 18.4868 42.0894 17.9418 41.0224 17.9418C40.0284 17.9418 39.3494 18.5088 39.3494 19.3598V19.3848C39.3494 19.7118 39.0344 19.9948 38.6704 19.9948H37.3854C36.9984 19.9948 36.7074 19.7118 36.7074 19.3848V19.3598C36.7074 17.3088 38.5254 15.7598 41.1684 15.7598C44.0534 15.7598 45.4354 17.4608 45.4354 19.5568V27.1938C45.4354 27.5208 45.1204 27.8048 44.7324 27.8048H43.4224C43.0344 27.8048 42.7194 27.5208 42.7194 27.1938V27.0848C42.7194 26.8898 42.6144 26.8508 42.4774 26.9888C41.7864 27.6828 40.7614 28.0448 39.6414 28.0448C38.1624 28.0448 36.1494 27.2798 36.1494 24.9238ZM42.7194 22.1778C42.7194 22.1458 42.6864 22.1228 42.6564 22.1358L39.9554 23.2878C39.1804 23.6138 39.0344 24.1818 39.0344 24.5968C39.0344 25.3388 39.2764 26.0808 40.8284 26.0808C41.9194 26.0808 42.7194 25.2738 42.7194 24.3788V22.1778ZM58 12.9443C58 12.6173 58.315 12.3333 58.703 12.3333H60.037C60.424 12.3333 60.74 12.6173 60.74 12.9443V20.3923C60.74 20.6043 60.852 20.6453 60.989 20.4843L64.013 16.9163C64.279 16.6103 64.425 16.4353 64.813 16.4353H66.438C66.801 16.4353 67.092 16.5893 67.092 16.8503C67.092 16.9603 67.043 17.1333 66.946 17.2653L63.502 21.3273C63.46 21.3763 63.458 21.4483 63.495 21.5013L67.359 26.9103C67.456 27.0413 67.456 27.1723 67.456 27.2583C67.456 27.5863 67.165 27.8043 66.728 27.8043H65.225C64.837 27.8043 64.57 27.4993 64.376 27.1933L60.997 22.3673C60.855 22.1653 60.74 22.2023 60.74 22.4483V27.1933C60.74 27.5203 60.425 27.8043 60.037 27.8043H58.703C58.315 27.8043 58 27.5203 58 27.1933V12.9443ZM56.1899 18.9893C56.1899 17.3083 54.8569 15.7603 52.9889 15.7603C51.7929 15.7603 50.8059 16.2503 50.2399 17.0143C50.0929 17.2143 49.9829 17.1813 49.9829 16.9333V16.7413C49.9829 16.4143 49.6679 16.1313 49.2799 16.1313H47.9469C47.5589 16.1313 47.2439 16.4143 47.2439 16.7413V20.5923V26.7273V27.1933C47.2439 27.5203 47.5589 27.8043 47.9469 27.8043H49.2799C49.6689 27.8043 49.9829 27.5203 49.9829 27.1933V26.6753V18.9703C50.2119 18.5443 50.7069 18.1113 51.2829 17.9973C51.4229 17.9623 51.5709 17.9413 51.7289 17.9413C52.2419 17.9413 52.6509 18.0973 52.9419 18.3693C52.9489 18.3753 52.9549 18.3813 52.9609 18.3863C52.9749 18.4003 52.9899 18.4133 53.0039 18.4273C53.2429 18.6593 53.3909 18.9573 53.4159 19.2863C53.4379 19.4133 53.4499 19.5473 53.4499 19.6863V27.1933C53.4499 27.5203 53.7659 27.8043 54.1529 27.8043H55.4869C55.8749 27.8043 56.1899 27.5203 56.1899 27.1933V18.9893ZM32.207 24.248C32.207 25.295 31.577 25.993 30.485 25.993C29.798 25.993 29.027 25.564 28.74 24.939V19.181C29.019 18.567 29.762 18.159 30.485 18.159C31.576 18.159 32.207 18.88 32.207 19.905C32.207 19.905 32.235 20.497 32.235 21.937C32.235 23.378 32.207 24.248 32.207 24.248ZM34.917 18.77C34.917 17.112 33.467 15.76 31.746 15.76C30.549 15.76 29.563 16.25 28.997 17.015C28.849 17.214 28.74 17.182 28.74 16.935V12.944C28.74 12.617 28.425 12.333 28.037 12.333H26.703C26.315 12.333 26 12.617 26 12.944V27.193C26 27.52 26.315 27.805 26.703 27.805H28.037C28.425 27.805 28.74 27.52 28.74 27.193V27.001C28.74 26.753 28.85 26.721 28.997 26.92C29.563 27.686 30.549 28.045 31.746 28.045C33.54 28.045 34.918 26.779 34.918 24.946C34.918 24.946 34.975 23.763 34.975 21.941C34.975 20.121 34.917 18.77 34.917 18.77Z" fill="#002F6C"/>
</svg>
