<svg width="180" height="65" viewBox="0 0 180 65" fill="none" xmlns="http://www.w3.org/2000/svg">
<path d="M103 43.5002C102.063 43.5002 101 43.0002 101 42.0002V20.0002C101 19.0162 102.028 17.9972 103 18.0002H133C133.984 17.9842 135 19.0312 135 20.0002V58.1592C135 58.6092 134.576 59.0002 134.053 59.0002C134.053 59.0002 134.375 59.0002 134.053 59.0002C133.475 59.0002 133.252 58.4782 133.105 58.2212C124.685 43.4862 103.937 43.5002 103 43.5002Z" fill="#D81B2B"/>
<path d="M127.291 20.7609C127.666 20.7609 127.946 20.9859 128.008 21.2659L132.721 39.6079C132.784 39.8329 132.815 40.0579 132.815 40.0849C132.815 40.3949 132.534 40.6749 132.128 40.6749H129.819C129.444 40.6749 129.226 40.3949 129.132 40.0579L128.208 36.5619C128.201 36.5359 128.178 36.5189 128.151 36.5189H122.249C122.223 36.5189 122.199 36.5359 122.192 36.5619L121.268 40.0579C121.174 40.3949 120.956 40.6749 120.581 40.6749H118.271C117.865 40.6749 117.584 40.3949 117.584 40.0849C117.584 40.0579 117.616 39.8329 117.678 39.6079L122.391 21.2659C122.454 20.9859 122.734 20.7609 123.108 20.7609H127.291ZM125.022 24.9969L122.939 33.5249C122.93 33.5619 122.958 33.5969 122.996 33.5969H127.404C127.442 33.5969 127.47 33.5619 127.461 33.5249L125.377 24.9969C125.279 24.5979 125.12 24.5979 125.022 24.9969ZM107.307 25.4875C107.307 26.8445 108.025 27.4175 109.585 28.3155L113.084 30.3475C115.455 31.7235 116.421 33.2325 116.421 35.8455C116.421 39.3845 113.768 41.1155 109.929 41.1155C106.246 41.1155 103.499 39.3545 103.499 35.7595L103.518 34.6075C103.518 34.1865 103.924 33.8215 104.423 33.8215H106.402C106.901 33.8215 107.307 34.1865 107.307 34.6085V35.7595C107.307 37.1925 108.369 38.1015 109.929 38.1015C111.645 38.1015 112.549 37.4115 112.549 35.8665H112.55C112.55 34.0845 111.031 33.3045 109.938 32.6585L106.019 30.3585C104.235 29.3315 103.499 27.3885 103.499 25.7885C103.499 22.2495 106.059 20.1425 109.991 20.1425C113.705 20.1425 116.42 21.9965 116.42 25.6205L116.402 26.2385C116.402 26.6595 115.996 27.0245 115.497 27.0245H113.518C113.018 27.0245 112.614 26.6595 112.613 26.2385V25.6205C112.613 24.1865 111.707 23.0325 109.991 23.0325C108.275 23.0325 107.307 23.9415 107.307 25.4875Z" fill="white"/>
<path d="M58.0488 37.1887C58.0488 34.8597 59.2338 33.5967 61.1038 32.8967L64.9068 31.4927C66.0908 31.0437 66.4958 30.7357 66.4958 29.9217C66.4958 28.9127 65.6858 28.2107 64.3148 28.2107C63.0358 28.2107 62.1638 28.9397 62.1638 30.0347V30.0667C62.1638 30.4867 61.7578 30.8517 61.2908 30.8517H59.6388C59.1398 30.8517 58.7658 30.4867 58.7658 30.0667V30.0347C58.7658 27.3967 61.1038 25.4057 64.5008 25.4057C68.2108 25.4057 69.9878 27.5927 69.9878 30.2877V40.1057C69.9878 40.5267 69.5828 40.8917 69.0838 40.8917H67.4008C66.9018 40.8917 66.4968 40.5267 66.4968 40.1057V39.9667C66.4968 39.7157 66.3618 39.6657 66.1838 39.8427C65.2958 40.7347 63.9788 41.2007 62.5378 41.2007C60.6358 41.2007 58.0488 40.2177 58.0488 37.1887ZM66.4958 33.6577C66.4958 33.6157 66.4538 33.5867 66.4148 33.6037L62.9428 35.0847C61.9458 35.5037 61.7578 36.2347 61.7578 36.7667C61.7578 37.7217 62.0698 38.6747 64.0648 38.6747C65.4668 38.6747 66.4968 37.6367 66.4968 36.4877L66.4958 33.6577ZM86.063 21.7863C86.063 21.3653 86.468 21.0003 86.967 21.0003H88.682C89.18 21.0003 89.585 21.3653 89.585 21.7863V31.3623C89.585 31.6353 89.73 31.6873 89.906 31.4793L93.794 26.8923C94.137 26.4993 94.324 26.2743 94.823 26.2743H96.911C97.378 26.2743 97.753 26.4713 97.753 26.8073C97.753 26.9483 97.69 27.1723 97.566 27.3413L93.138 32.5633C93.084 32.6273 93.08 32.7193 93.128 32.7873L98.096 39.7413C98.22 39.9103 98.22 40.0783 98.22 40.1903C98.22 40.6103 97.847 40.8913 97.285 40.8913H95.353C94.855 40.8913 94.511 40.4993 94.262 40.1053L89.916 33.9003C89.734 33.6403 89.585 33.6873 89.585 34.0053L89.586 40.1053C89.586 40.5263 89.181 40.8913 88.682 40.8913H86.967C86.468 40.8913 86.063 40.5263 86.063 40.1053V21.7863ZM83.8149 29.5578C83.8149 27.3978 82.1009 25.4058 79.6999 25.4058C78.1619 25.4058 76.8939 26.0358 76.1659 27.0188C75.9759 27.2758 75.8349 27.2348 75.8349 26.9148V26.6668C75.8349 26.2458 75.4299 25.8818 74.9309 25.8818H73.2159C72.7179 25.8818 72.3129 26.2458 72.3129 26.6668V31.6188V39.5068V40.1058C72.3129 40.5268 72.7179 40.8918 73.2169 40.8918H74.9309C75.4299 40.8918 75.8349 40.5268 75.8349 40.1058V39.4398V29.5348C76.1289 28.9858 76.7649 28.4288 77.5059 28.2818C77.6859 28.2378 77.8769 28.2108 78.0799 28.2108C78.7389 28.2108 79.2649 28.4118 79.6399 28.7608C79.6479 28.7678 79.6549 28.7758 79.6629 28.7828C79.6819 28.7998 79.7009 28.8178 79.7189 28.8358C80.0259 29.1328 80.2159 29.5168 80.2489 29.9398C80.2769 30.1028 80.2929 30.2748 80.2929 30.4548V40.1058C80.2929 40.5268 80.6979 40.8918 81.1969 40.8918H82.9109C83.4099 40.8918 83.8149 40.5268 83.8149 40.1058V29.5578ZM52.98 36.3186C52.98 37.6656 52.169 38.5626 50.767 38.5626C49.883 38.5626 48.892 38.0116 48.522 37.2086V29.8036C48.881 29.0156 49.836 28.4916 50.767 28.4916C52.169 28.4916 52.98 29.4176 52.98 30.7356C52.98 30.7356 53.017 31.4966 53.017 33.3476C53.017 35.2006 52.98 36.3186 52.98 36.3186ZM56.465 29.2766C56.465 27.1446 54.601 25.4056 52.387 25.4056C50.849 25.4056 49.581 26.0356 48.853 27.0186C48.663 27.2756 48.522 27.2346 48.522 26.9156V21.7866C48.522 21.3656 48.117 21.0006 47.618 21.0006H45.903C45.405 21.0006 45 21.3656 45 21.7866V40.1056C45 40.5266 45.405 40.8916 45.904 40.8916H47.619C48.117 40.8916 48.522 40.5266 48.522 40.1056V39.8586C48.522 39.5396 48.663 39.4986 48.853 39.7556C49.581 40.7386 50.849 41.2016 52.388 41.2016C54.694 41.2016 56.465 39.5736 56.465 37.2156C56.465 37.2156 56.539 35.6946 56.539 33.3536C56.539 31.0126 56.465 29.2766 56.465 29.2766Z" fill="#002F6C"/>
</svg>
