<svg width="180" height="65" viewBox="0 0 180 65" fill="none" xmlns="http://www.w3.org/2000/svg">
<path d="M148 43.5002C147.063 43.5002 146 43.0002 146 42.0002V20.0002C146 19.0162 147.028 17.9972 148 18.0002H178C178.984 17.9842 180 19.0312 180 20.0002V58.1592C180 58.6092 179.576 59.0002 179.053 59.0002C179.053 59.0002 179.375 59.0002 179.053 59.0002C178.475 59.0002 178.252 58.4782 178.105 58.2212C169.685 43.4862 148.937 43.5002 148 43.5002Z" fill="#D81B2B"/>
<path d="M172.291 20.7609C172.666 20.7609 172.946 20.9859 173.008 21.2659L177.721 39.6079C177.784 39.8329 177.815 40.0579 177.815 40.0849C177.815 40.3949 177.534 40.6749 177.128 40.6749H174.819C174.444 40.6749 174.226 40.3949 174.132 40.0579L173.208 36.5619C173.201 36.5359 173.178 36.5189 173.151 36.5189H167.249C167.223 36.5189 167.199 36.5359 167.192 36.5619L166.268 40.0579C166.174 40.3949 165.956 40.6749 165.581 40.6749H163.271C162.865 40.6749 162.584 40.3949 162.584 40.0849C162.584 40.0579 162.616 39.8329 162.678 39.6079L167.391 21.2659C167.454 20.9859 167.734 20.7609 168.108 20.7609H172.291ZM170.022 24.9969L167.939 33.5249C167.93 33.5619 167.958 33.5969 167.996 33.5969H172.404C172.442 33.5969 172.47 33.5619 172.461 33.5249L170.377 24.9969C170.279 24.5979 170.12 24.5979 170.022 24.9969ZM152.307 25.4875C152.307 26.8445 153.025 27.4175 154.585 28.3155L158.084 30.3475C160.455 31.7235 161.421 33.2325 161.421 35.8455C161.421 39.3845 158.768 41.1155 154.929 41.1155C151.246 41.1155 148.499 39.3545 148.499 35.7595L148.518 34.6075C148.518 34.1865 148.924 33.8215 149.423 33.8215H151.402C151.901 33.8215 152.307 34.1865 152.307 34.6085V35.7595C152.307 37.1925 153.369 38.1015 154.929 38.1015C156.645 38.1015 157.549 37.4115 157.549 35.8665H157.55C157.55 34.0845 156.031 33.3045 154.938 32.6585L151.019 30.3585C149.235 29.3315 148.499 27.3885 148.499 25.7885C148.499 22.2495 151.059 20.1425 154.991 20.1425C158.705 20.1425 161.42 21.9965 161.42 25.6205L161.402 26.2385C161.402 26.6595 160.996 27.0245 160.497 27.0245H158.518C158.018 27.0245 157.614 26.6595 157.613 26.2385V25.6205C157.613 24.1865 156.707 23.0325 154.991 23.0325C153.275 23.0325 152.307 23.9415 152.307 25.4875Z" fill="white"/>
<path d="M103.049 37.1887C103.049 34.8597 104.234 33.5967 106.104 32.8967L109.907 31.4927C111.091 31.0437 111.496 30.7357 111.496 29.9217C111.496 28.9127 110.686 28.2107 109.315 28.2107C108.036 28.2107 107.164 28.9397 107.164 30.0347V30.0667C107.164 30.4867 106.758 30.8517 106.291 30.8517H104.639C104.14 30.8517 103.766 30.4867 103.766 30.0667V30.0347C103.766 27.3967 106.104 25.4057 109.501 25.4057C113.211 25.4057 114.988 27.5927 114.988 30.2877V40.1057C114.988 40.5267 114.583 40.8917 114.084 40.8917H112.401C111.902 40.8917 111.497 40.5267 111.497 40.1057V39.9667C111.497 39.7157 111.362 39.6657 111.184 39.8427C110.296 40.7347 108.979 41.2007 107.538 41.2007C105.636 41.2007 103.049 40.2177 103.049 37.1887ZM111.496 33.6577C111.496 33.6157 111.454 33.5867 111.415 33.6037L107.943 35.0847C106.946 35.5037 106.758 36.2347 106.758 36.7667C106.758 37.7217 107.07 38.6747 109.065 38.6747C110.467 38.6747 111.497 37.6367 111.497 36.4877L111.496 33.6577ZM131.063 21.7863C131.063 21.3653 131.468 21.0003 131.967 21.0003H133.682C134.18 21.0003 134.585 21.3653 134.585 21.7863V31.3623C134.585 31.6353 134.73 31.6873 134.906 31.4793L138.794 26.8923C139.137 26.4993 139.324 26.2743 139.823 26.2743H141.911C142.378 26.2743 142.753 26.4713 142.753 26.8073C142.753 26.9483 142.69 27.1723 142.566 27.3413L138.138 32.5633C138.084 32.6273 138.08 32.7193 138.128 32.7873L143.096 39.7413C143.22 39.9103 143.22 40.0783 143.22 40.1903C143.22 40.6103 142.847 40.8913 142.285 40.8913H140.353C139.855 40.8913 139.511 40.4993 139.262 40.1053L134.916 33.9003C134.734 33.6403 134.585 33.6873 134.585 34.0053L134.586 40.1053C134.586 40.5263 134.181 40.8913 133.682 40.8913H131.967C131.468 40.8913 131.063 40.5263 131.063 40.1053V21.7863ZM128.815 29.5578C128.815 27.3978 127.101 25.4058 124.7 25.4058C123.162 25.4058 121.894 26.0358 121.166 27.0188C120.976 27.2758 120.835 27.2348 120.835 26.9148V26.6668C120.835 26.2458 120.43 25.8818 119.931 25.8818H118.216C117.718 25.8818 117.313 26.2458 117.313 26.6668V31.6188V39.5068V40.1058C117.313 40.5268 117.718 40.8918 118.217 40.8918H119.931C120.43 40.8918 120.835 40.5268 120.835 40.1058V39.4398V29.5348C121.129 28.9858 121.765 28.4288 122.506 28.2818C122.686 28.2378 122.877 28.2108 123.08 28.2108C123.739 28.2108 124.265 28.4118 124.64 28.7608C124.648 28.7678 124.655 28.7758 124.663 28.7828C124.682 28.7998 124.701 28.8178 124.719 28.8358C125.026 29.1328 125.216 29.5168 125.249 29.9398C125.277 30.1028 125.293 30.2748 125.293 30.4548V40.1058C125.293 40.5268 125.698 40.8918 126.197 40.8918H127.911C128.41 40.8918 128.815 40.5268 128.815 40.1058V29.5578ZM97.98 36.3186C97.98 37.6656 97.169 38.5626 95.767 38.5626C94.883 38.5626 93.892 38.0116 93.522 37.2086V29.8036C93.881 29.0156 94.836 28.4916 95.767 28.4916C97.169 28.4916 97.98 29.4176 97.98 30.7356C97.98 30.7356 98.017 31.4966 98.017 33.3476C98.017 35.2006 97.98 36.3186 97.98 36.3186ZM101.465 29.2766C101.465 27.1446 99.601 25.4056 97.387 25.4056C95.849 25.4056 94.581 26.0356 93.853 27.0186C93.663 27.2756 93.522 27.2346 93.522 26.9156V21.7866C93.522 21.3656 93.117 21.0006 92.618 21.0006H90.903C90.405 21.0006 90 21.3656 90 21.7866V40.1056C90 40.5266 90.405 40.8916 90.904 40.8916H92.619C93.117 40.8916 93.522 40.5266 93.522 40.1056V39.8586C93.522 39.5396 93.663 39.4986 93.853 39.7556C94.581 40.7386 95.849 41.2016 97.388 41.2016C99.694 41.2016 101.465 39.5736 101.465 37.2156C101.465 37.2156 101.539 35.6946 101.539 33.3536C101.539 31.0126 101.465 29.2766 101.465 29.2766Z" fill="#002F6C"/>
</svg>
