<svg width="122" height="44" viewBox="0 0 122 44" fill="none" xmlns="http://www.w3.org/2000/svg">
<path d="M44.5 30C43.525 30 43 29.528 43 28.5V11.5C43 10.548 43.526 10 44.5 10H68.5C69.46 10 70 10.516 70 11.5V41.344C70 41.695 69.663 42 69.248 42C69.248 42 69.504 42 69.248 42C68.789 42 68.616 41.59 68.495 41.392C61.391 29.694 44.5 30 44.5 30Z" fill="#D81B2B"/>
<path d="M63.7041 12.1471C63.9961 12.1471 64.2141 12.3221 64.2621 12.5401L67.9281 26.8061C67.9761 26.9811 68.0011 27.1561 68.0011 27.1781C68.0011 27.4181 67.7821 27.6361 67.4671 27.6361H65.6701C65.3791 27.6361 65.2091 27.4181 65.1361 27.1561L64.4171 24.4371C64.4121 24.4171 64.3941 24.4031 64.3731 24.4031H59.7831C59.7621 24.4031 59.7441 24.4171 59.7391 24.4371L59.0191 27.1561C58.9471 27.4181 58.7771 27.6361 58.4851 27.6361H56.6891C56.3731 27.6361 56.1551 27.4181 56.1551 27.1781C56.1551 27.1561 56.1791 26.9801 56.2271 26.8061L59.8931 12.5401C59.9421 12.3221 60.1601 12.1471 60.4511 12.1471H63.7041ZM61.9401 15.4411L60.3191 22.0741C60.3121 22.1041 60.3341 22.1311 60.3641 22.1311H63.7921C63.8221 22.1311 63.8431 22.1041 63.8361 22.0741L62.2161 15.4411C62.1401 15.1321 62.0161 15.1321 61.9401 15.4411ZM48.1606 15.8233C48.1606 16.8803 48.7196 17.3243 49.9326 18.0233L52.6536 19.6033C54.4986 20.6743 55.2486 21.8473 55.2486 23.8803C55.2496 26.6333 53.1856 27.9783 50.2006 27.9783C47.3356 27.9783 45.1996 26.6093 45.1996 23.8133L45.2136 22.9173C45.2136 22.5893 45.5296 22.3053 45.9176 22.3053H47.4566C47.8456 22.3053 48.1606 22.5903 48.1606 22.9173V23.8133C48.1606 24.9273 48.9866 25.6343 50.2006 25.6343C51.5356 25.6343 52.2376 25.0973 52.2376 23.8963H52.2386C52.2386 22.5103 51.0566 21.9033 50.2066 21.4003L47.1586 19.6123C45.7716 18.8133 45.1996 17.3023 45.1996 16.0573C45.1996 13.3043 47.1896 11.6663 50.2486 11.6663C53.1376 11.6663 55.2486 13.1083 55.2486 15.9273L55.2346 16.4073C55.2346 16.7343 54.9186 17.0183 54.5306 17.0183H52.9916C52.6026 17.0183 52.2876 16.7343 52.2876 16.4073V15.9273C52.2876 14.8123 51.5836 13.9143 50.2486 13.9143C48.9136 13.9143 48.1606 14.6213 48.1606 15.8233Z" fill="white"/>
<path d="M10.1494 24.9238C10.1494 23.1128 11.0704 22.1308 12.5254 21.5858L15.4834 20.4938C16.4044 20.1458 16.7194 19.9048 16.7194 19.2728C16.7194 18.4868 16.0894 17.9418 15.0224 17.9418C14.0284 17.9418 13.3494 18.5088 13.3494 19.3598V19.3848C13.3494 19.7118 13.0344 19.9948 12.6704 19.9948H11.3854C10.9984 19.9948 10.7074 19.7118 10.7074 19.3848V19.3598C10.7074 17.3088 12.5254 15.7598 15.1684 15.7598C18.0534 15.7598 19.4354 17.4608 19.4354 19.5568V27.1938C19.4354 27.5208 19.1204 27.8048 18.7324 27.8048H17.4224C17.0344 27.8048 16.7194 27.5208 16.7194 27.1938V27.0848C16.7194 26.8898 16.6144 26.8508 16.4774 26.9888C15.7864 27.6828 14.7614 28.0448 13.6414 28.0448C12.1624 28.0448 10.1494 27.2798 10.1494 24.9238ZM16.7194 22.1778C16.7194 22.1458 16.6864 22.1228 16.6564 22.1358L13.9554 23.2878C13.1804 23.6138 13.0344 24.1818 13.0344 24.5968C13.0344 25.3388 13.2764 26.0808 14.8284 26.0808C15.9194 26.0808 16.7194 25.2738 16.7194 24.3788V22.1778ZM32 12.9443C32 12.6173 32.315 12.3333 32.703 12.3333H34.037C34.424 12.3333 34.74 12.6173 34.74 12.9443V20.3923C34.74 20.6043 34.852 20.6453 34.989 20.4843L38.013 16.9163C38.279 16.6103 38.425 16.4353 38.813 16.4353H40.438C40.801 16.4353 41.092 16.5893 41.092 16.8503C41.092 16.9603 41.043 17.1333 40.946 17.2653L37.502 21.3273C37.46 21.3763 37.458 21.4483 37.495 21.5013L41.359 26.9103C41.456 27.0413 41.456 27.1723 41.456 27.2583C41.456 27.5863 41.165 27.8043 40.728 27.8043H39.225C38.837 27.8043 38.57 27.4993 38.376 27.1933L34.997 22.3673C34.855 22.1653 34.74 22.2023 34.74 22.4483V27.1933C34.74 27.5203 34.425 27.8043 34.037 27.8043H32.703C32.315 27.8043 32 27.5203 32 27.1933V12.9443ZM30.1899 18.9893C30.1899 17.3083 28.8569 15.7603 26.9889 15.7603C25.7929 15.7603 24.8059 16.2503 24.2399 17.0143C24.0929 17.2143 23.9829 17.1813 23.9829 16.9333V16.7413C23.9829 16.4143 23.6679 16.1313 23.2799 16.1313H21.9469C21.5589 16.1313 21.2439 16.4143 21.2439 16.7413V20.5923V26.7273V27.1933C21.2439 27.5203 21.5589 27.8043 21.9469 27.8043H23.2799C23.6689 27.8043 23.9829 27.5203 23.9829 27.1933V26.6753V18.9703C24.2119 18.5443 24.7069 18.1113 25.2829 17.9973C25.4229 17.9623 25.5709 17.9413 25.7289 17.9413C26.2419 17.9413 26.6509 18.0973 26.9419 18.3693C26.9489 18.3753 26.9549 18.3813 26.9609 18.3863C26.9749 18.4003 26.9899 18.4133 27.0039 18.4273C27.2429 18.6593 27.3909 18.9573 27.4159 19.2863C27.4379 19.4133 27.4499 19.5473 27.4499 19.6863V27.1933C27.4499 27.5203 27.7659 27.8043 28.1529 27.8043H29.4869C29.8749 27.8043 30.1899 27.5203 30.1899 27.1933V18.9893ZM6.207 24.248C6.207 25.295 5.577 25.993 4.485 25.993C3.798 25.993 3.027 25.564 2.74 24.939V19.181C3.019 18.567 3.762 18.159 4.485 18.159C5.576 18.159 6.207 18.88 6.207 19.905C6.207 19.905 6.235 20.497 6.235 21.937C6.235 23.378 6.207 24.248 6.207 24.248ZM8.917 18.77C8.917 17.112 7.467 15.76 5.746 15.76C4.549 15.76 3.563 16.25 2.997 17.015C2.849 17.214 2.74 17.182 2.74 16.935V12.944C2.74 12.617 2.425 12.333 2.037 12.333H0.703C0.315 12.333 0 12.617 0 12.944V27.193C0 27.52 0.315 27.805 0.703 27.805H2.037C2.425 27.805 2.74 27.52 2.74 27.193V27.001C2.74 26.753 2.85 26.721 2.997 26.92C3.563 27.686 4.549 28.045 5.746 28.045C7.54 28.045 8.918 26.779 8.918 24.946C8.918 24.946 8.975 23.763 8.975 21.941C8.975 20.121 8.917 18.77 8.917 18.77Z" fill="#002F6C"/>
</svg>
