<svg width="122" height="44" viewBox="0 0 122 44" fill="none" xmlns="http://www.w3.org/2000/svg">
<path d="M96.5 30C95.525 30 95 29.528 95 28.5V11.5C95 10.548 95.526 10 96.5 10H120.5C121.46 10 122 10.516 122 11.5V41.344C122 41.695 121.663 42 121.248 42C121.248 42 121.504 42 121.248 42C120.789 42 120.616 41.59 120.495 41.392C113.391 29.694 96.5 30 96.5 30Z" fill="#D81B2B"/>
<path d="M115.704 12.1471C115.996 12.1471 116.214 12.3221 116.262 12.5401L119.928 26.8061C119.976 26.9811 120.001 27.1561 120.001 27.1781C120.001 27.4181 119.782 27.6361 119.467 27.6361H117.67C117.379 27.6361 117.209 27.4181 117.136 27.1561L116.417 24.4371C116.412 24.4171 116.394 24.4031 116.373 24.4031H111.783C111.762 24.4031 111.744 24.4171 111.739 24.4371L111.019 27.1561C110.947 27.4181 110.777 27.6361 110.485 27.6361H108.689C108.373 27.6361 108.155 27.4181 108.155 27.1781C108.155 27.1561 108.179 26.9801 108.227 26.8061L111.893 12.5401C111.942 12.3221 112.16 12.1471 112.451 12.1471H115.704ZM113.94 15.4411L112.319 22.0741C112.312 22.1041 112.334 22.1311 112.364 22.1311H115.792C115.822 22.1311 115.843 22.1041 115.836 22.0741L114.216 15.4411C114.14 15.1321 114.016 15.1321 113.94 15.4411ZM100.161 15.8233C100.161 16.8803 100.72 17.3243 101.933 18.0233L104.654 19.6033C106.499 20.6743 107.249 21.8473 107.249 23.8803C107.25 26.6333 105.186 27.9783 102.201 27.9783C99.3356 27.9783 97.1996 26.6093 97.1996 23.8133L97.2136 22.9173C97.2136 22.5893 97.5296 22.3053 97.9176 22.3053H99.4566C99.8456 22.3053 100.161 22.5903 100.161 22.9173V23.8133C100.161 24.9273 100.987 25.6343 102.201 25.6343C103.536 25.6343 104.238 25.0973 104.238 23.8963H104.239C104.239 22.5103 103.057 21.9033 102.207 21.4003L99.1586 19.6123C97.7716 18.8133 97.1996 17.3023 97.1996 16.0573C97.1996 13.3043 99.1896 11.6663 102.249 11.6663C105.138 11.6663 107.249 13.1083 107.249 15.9273L107.235 16.4073C107.235 16.7343 106.919 17.0183 106.531 17.0183H104.992C104.603 17.0183 104.288 16.7343 104.288 16.4073V15.9273C104.288 14.8123 103.584 13.9143 102.249 13.9143C100.914 13.9143 100.161 14.6213 100.161 15.8233Z" fill="white"/>
<path d="M62.1494 24.9238C62.1494 23.1128 63.0704 22.1308 64.5254 21.5858L67.4834 20.4938C68.4044 20.1458 68.7194 19.9048 68.7194 19.2728C68.7194 18.4868 68.0894 17.9418 67.0224 17.9418C66.0284 17.9418 65.3494 18.5088 65.3494 19.3598V19.3848C65.3494 19.7118 65.0344 19.9948 64.6704 19.9948H63.3854C62.9984 19.9948 62.7074 19.7118 62.7074 19.3848V19.3598C62.7074 17.3088 64.5254 15.7598 67.1684 15.7598C70.0534 15.7598 71.4354 17.4608 71.4354 19.5568V27.1938C71.4354 27.5208 71.1204 27.8048 70.7324 27.8048H69.4224C69.0344 27.8048 68.7194 27.5208 68.7194 27.1938V27.0848C68.7194 26.8898 68.6144 26.8508 68.4774 26.9888C67.7864 27.6828 66.7614 28.0448 65.6414 28.0448C64.1624 28.0448 62.1494 27.2798 62.1494 24.9238ZM68.7194 22.1778C68.7194 22.1458 68.6864 22.1228 68.6564 22.1358L65.9554 23.2878C65.1804 23.6138 65.0344 24.1818 65.0344 24.5968C65.0344 25.3388 65.2764 26.0808 66.8284 26.0808C67.9194 26.0808 68.7194 25.2738 68.7194 24.3788V22.1778ZM84 12.9443C84 12.6173 84.315 12.3333 84.703 12.3333H86.037C86.424 12.3333 86.74 12.6173 86.74 12.9443V20.3923C86.74 20.6043 86.852 20.6453 86.989 20.4843L90.013 16.9163C90.279 16.6103 90.425 16.4353 90.813 16.4353H92.438C92.801 16.4353 93.092 16.5893 93.092 16.8503C93.092 16.9603 93.043 17.1333 92.946 17.2653L89.502 21.3273C89.46 21.3763 89.458 21.4483 89.495 21.5013L93.359 26.9103C93.456 27.0413 93.456 27.1723 93.456 27.2583C93.456 27.5863 93.165 27.8043 92.728 27.8043H91.225C90.837 27.8043 90.57 27.4993 90.376 27.1933L86.997 22.3673C86.855 22.1653 86.74 22.2023 86.74 22.4483V27.1933C86.74 27.5203 86.425 27.8043 86.037 27.8043H84.703C84.315 27.8043 84 27.5203 84 27.1933V12.9443ZM82.1899 18.9893C82.1899 17.3083 80.8569 15.7603 78.9889 15.7603C77.7929 15.7603 76.8059 16.2503 76.2399 17.0143C76.0929 17.2143 75.9829 17.1813 75.9829 16.9333V16.7413C75.9829 16.4143 75.6679 16.1313 75.2799 16.1313H73.9469C73.5589 16.1313 73.2439 16.4143 73.2439 16.7413V20.5923V26.7273V27.1933C73.2439 27.5203 73.5589 27.8043 73.9469 27.8043H75.2799C75.6689 27.8043 75.9829 27.5203 75.9829 27.1933V26.6753V18.9703C76.2119 18.5443 76.7069 18.1113 77.2829 17.9973C77.4229 17.9623 77.5709 17.9413 77.7289 17.9413C78.2419 17.9413 78.6509 18.0973 78.9419 18.3693C78.9489 18.3753 78.9549 18.3813 78.9609 18.3863C78.9749 18.4003 78.9899 18.4133 79.0039 18.4273C79.2429 18.6593 79.3909 18.9573 79.4159 19.2863C79.4379 19.4133 79.4499 19.5473 79.4499 19.6863V27.1933C79.4499 27.5203 79.7659 27.8043 80.1529 27.8043H81.4869C81.8749 27.8043 82.1899 27.5203 82.1899 27.1933V18.9893ZM58.207 24.248C58.207 25.295 57.577 25.993 56.485 25.993C55.798 25.993 55.027 25.564 54.74 24.939V19.181C55.019 18.567 55.762 18.159 56.485 18.159C57.576 18.159 58.207 18.88 58.207 19.905C58.207 19.905 58.235 20.497 58.235 21.937C58.235 23.378 58.207 24.248 58.207 24.248ZM60.917 18.77C60.917 17.112 59.467 15.76 57.746 15.76C56.549 15.76 55.563 16.25 54.997 17.015C54.849 17.214 54.74 17.182 54.74 16.935V12.944C54.74 12.617 54.425 12.333 54.037 12.333H52.703C52.315 12.333 52 12.617 52 12.944V27.193C52 27.52 52.315 27.805 52.703 27.805H54.037C54.425 27.805 54.74 27.52 54.74 27.193V27.001C54.74 26.753 54.85 26.721 54.997 26.92C55.563 27.686 56.549 28.045 57.746 28.045C59.54 28.045 60.918 26.779 60.918 24.946C60.918 24.946 60.975 23.763 60.975 21.941C60.975 20.121 60.917 18.77 60.917 18.77Z" fill="#002F6C"/>
</svg>
