<svg width="180" height="65" viewBox="0 0 180 65" fill="none" xmlns="http://www.w3.org/2000/svg">
<path d="M58 43.5002C57.063 43.5002 56 43.0002 56 42.0002V20.0002C56 19.0162 57.028 17.9972 58 18.0002H88C88.984 17.9842 90 19.0312 90 20.0002V58.1592C90 58.6092 89.576 59.0002 89.053 59.0002C89.053 59.0002 89.375 59.0002 89.053 59.0002C88.475 59.0002 88.252 58.4782 88.105 58.2212C79.685 43.4862 58.937 43.5002 58 43.5002Z" fill="#D81B2B"/>
<path d="M82.292 20.7609C82.667 20.7609 82.947 20.9859 83.009 21.2659L87.722 39.6079C87.785 39.8329 87.816 40.0579 87.816 40.0849C87.816 40.3949 87.535 40.6749 87.129 40.6749H84.82C84.445 40.6749 84.227 40.3949 84.133 40.0579L83.209 36.5619C83.202 36.5359 83.179 36.5189 83.152 36.5189H77.25C77.224 36.5189 77.2 36.5359 77.193 36.5619L76.269 40.0579C76.175 40.3949 75.957 40.6749 75.582 40.6749H73.272C72.866 40.6749 72.585 40.3949 72.585 40.0849C72.585 40.0579 72.617 39.8329 72.679 39.6079L77.392 21.2659C77.455 20.9859 77.735 20.7609 78.109 20.7609H82.292ZM80.023 24.9969L77.94 33.5249C77.931 33.5619 77.959 33.5969 77.997 33.5969H82.405C82.443 33.5969 82.471 33.5619 82.462 33.5249L80.378 24.9969C80.28 24.5979 80.121 24.5979 80.023 24.9969ZM62.3076 25.4875C62.3076 26.8445 63.0256 27.4175 64.5856 28.3155L68.0846 30.3475C70.4556 31.7235 71.4216 33.2325 71.4216 35.8455C71.4216 39.3845 68.7686 41.1155 64.9296 41.1155C61.2466 41.1155 58.4996 39.3545 58.4996 35.7595L58.5186 34.6075C58.5186 34.1865 58.9246 33.8215 59.4236 33.8215H61.4026C61.9016 33.8215 62.3076 34.1865 62.3076 34.6085V35.7595C62.3076 37.1925 63.3696 38.1015 64.9296 38.1015C66.6456 38.1015 67.5496 37.4115 67.5496 35.8665H67.5506C67.5506 34.0845 66.0316 33.3045 64.9386 32.6585L61.0196 30.3585C59.2356 29.3315 58.4996 27.3885 58.4996 25.7885C58.4996 22.2495 61.0596 20.1425 64.9916 20.1425C68.7056 20.1425 71.4206 21.9965 71.4206 25.6205L71.4026 26.2385C71.4026 26.6595 70.9966 27.0245 70.4976 27.0245H68.5186C68.0186 27.0245 67.6146 26.6595 67.6136 26.2385V25.6205C67.6136 24.1865 66.7076 23.0325 64.9916 23.0325C63.2756 23.0325 62.3076 23.9415 62.3076 25.4875Z" fill="white"/>
<path d="M13.0493 37.1886C13.0493 34.8596 14.2343 33.5966 16.1043 32.8966L19.9073 31.4926C21.0913 31.0436 21.4963 30.7356 21.4963 29.9216C21.4963 28.9126 20.6863 28.2106 19.3153 28.2106C18.0363 28.2106 17.1643 28.9396 17.1643 30.0346V30.0666C17.1643 30.4866 16.7583 30.8516 16.2913 30.8516H14.6393C14.1403 30.8516 13.7663 30.4866 13.7663 30.0666V30.0346C13.7663 27.3966 16.1043 25.4056 19.5013 25.4056C23.2113 25.4056 24.9883 27.5926 24.9883 30.2876V40.1056C24.9883 40.5266 24.5833 40.8916 24.0843 40.8916H22.4013C21.9023 40.8916 21.4973 40.5266 21.4973 40.1056V39.9666C21.4973 39.7156 21.3623 39.6656 21.1843 39.8426C20.2963 40.7346 18.9793 41.2006 17.5383 41.2006C15.6363 41.2006 13.0493 40.2176 13.0493 37.1886ZM21.4963 33.6576C21.4963 33.6156 21.4543 33.5866 21.4153 33.6036L17.9433 35.0846C16.9463 35.5036 16.7583 36.2346 16.7583 36.7666C16.7583 37.7216 17.0703 38.6746 19.0653 38.6746C20.4673 38.6746 21.4973 37.6366 21.4973 36.4876L21.4963 33.6576ZM41.0635 21.7862C41.0635 21.3652 41.4685 21.0002 41.9675 21.0002H43.6825C44.1805 21.0002 44.5855 21.3652 44.5855 21.7862V31.3622C44.5855 31.6352 44.7305 31.6872 44.9065 31.4792L48.7945 26.8922C49.1375 26.4992 49.3245 26.2742 49.8235 26.2742H51.9115C52.3785 26.2742 52.7535 26.4712 52.7535 26.8072C52.7535 26.9482 52.6905 27.1722 52.5665 27.3412L48.1385 32.5632C48.0845 32.6272 48.0805 32.7192 48.1285 32.7872L53.0965 39.7412C53.2205 39.9102 53.2205 40.0782 53.2205 40.1902C53.2205 40.6102 52.8475 40.8912 52.2855 40.8912H50.3535C49.8555 40.8912 49.5115 40.4992 49.2625 40.1052L44.9165 33.9002C44.7345 33.6402 44.5855 33.6872 44.5855 34.0052L44.5865 40.1052C44.5865 40.5262 44.1815 40.8912 43.6825 40.8912H41.9675C41.4685 40.8912 41.0635 40.5262 41.0635 40.1052V21.7862ZM38.8154 29.5577C38.8154 27.3977 37.1014 25.4057 34.7004 25.4057C33.1624 25.4057 31.8944 26.0357 31.1664 27.0187C30.9764 27.2757 30.8354 27.2347 30.8354 26.9147V26.6667C30.8354 26.2457 30.4304 25.8817 29.9314 25.8817H28.2164C27.7184 25.8817 27.3134 26.2457 27.3134 26.6667V31.6187V39.5067V40.1057C27.3134 40.5267 27.7184 40.8917 28.2174 40.8917H29.9314C30.4304 40.8917 30.8354 40.5267 30.8354 40.1057V39.4397V29.5347C31.1294 28.9857 31.7654 28.4287 32.5064 28.2817C32.6864 28.2377 32.8774 28.2107 33.0804 28.2107C33.7394 28.2107 34.2654 28.4117 34.6404 28.7607C34.6484 28.7677 34.6554 28.7757 34.6634 28.7827C34.6824 28.7997 34.7014 28.8177 34.7194 28.8357C35.0264 29.1327 35.2164 29.5167 35.2494 29.9397C35.2774 30.1027 35.2934 30.2747 35.2934 30.4547V40.1057C35.2934 40.5267 35.6984 40.8917 36.1974 40.8917H37.9114C38.4104 40.8917 38.8154 40.5267 38.8154 40.1057V29.5577ZM7.98049 36.3185C7.98049 37.6655 7.16949 38.5625 5.76749 38.5625C4.88349 38.5625 3.89249 38.0115 3.52249 37.2085V29.8035C3.88149 29.0155 4.83649 28.4915 5.76749 28.4915C7.16949 28.4915 7.98049 29.4175 7.98049 30.7355C7.98049 30.7355 8.01749 31.4965 8.01749 33.3475C8.01749 35.2005 7.98049 36.3185 7.98049 36.3185ZM11.4655 29.2765C11.4655 27.1445 9.60149 25.4055 7.38749 25.4055C5.84949 25.4055 4.58149 26.0355 3.85349 27.0185C3.66349 27.2755 3.52249 27.2345 3.52249 26.9155V21.7865C3.52249 21.3655 3.11749 21.0005 2.61849 21.0005H0.903488C0.405488 21.0005 0.000488281 21.3655 0.000488281 21.7865V40.1055C0.000488281 40.5265 0.405488 40.8915 0.904488 40.8915H2.61949C3.11749 40.8915 3.52249 40.5265 3.52249 40.1055V39.8585C3.52249 39.5395 3.66349 39.4985 3.85349 39.7555C4.58149 40.7385 5.84949 41.2015 7.38849 41.2015C9.69449 41.2015 11.4655 39.5735 11.4655 37.2155C11.4655 37.2155 11.5395 35.6945 11.5395 33.3535C11.5395 31.0125 11.4655 29.2765 11.4655 29.2765Z" fill="#002F6C"/>
</svg>
