<svg width="32" height="54" viewBox="0 0 32 54" fill="none" xmlns="http://www.w3.org/2000/svg">
<g clip-path="url(#clip0_1_281)">
<path d="M0.9 39.4C0.4 39.4 0 39 0 38.6V15.8C0 15.4 0.4 15 0.9 15H31.1C31.6 15 32 15.4 32 15.8V53.2C32 53.6 31.8 54 31.1 54C30.5 54 30.3 53.5 30.2 53.3C21.6 38.6 0.9 39.4 0.9 39.4Z" fill="#E91B2B"/>
<path d="M22.6 21.7L20.6 29.9C20.6 29.9 20.6 30 20.7 30H24.9C24.9 30 25 30 25 29.9L23 21.7C22.9 21.3 22.7 21.3 22.6 21.7ZM24.8 17.6C25.2 17.6 25.4 17.8 25.5 18.1L30 35.7C30.1 35.9 30.1 36.1 30.1 36.2C30.1 36.5 29.8 36.8 29.4 36.8H27.2C26.8 36.8 26.6 36.5 26.5 36.2L25.6 32.9C25.6 32.9 25.6 32.9 25.5 32.9H19.8C19.8 32.9 19.8 32.9 19.7 32.9L19 36.1C18.9 36.4 18.7 36.7 18.3 36.7H16.1C15.7 36.7 15.4 36.4 15.4 36.1C15.4 36.1 15.4 35.9 15.5 35.6L20 18C20.1 17.7 20.3 17.5 20.7 17.5L24.8 17.6Z" fill="white"/>
<path d="M5.7 22.2C5.7 23.5 6.4 24 7.9 24.9L11.3 26.8C13.6 28.1 14.5 29.6 14.5 32.1C14.5 35.5 12 37.1 8.3 37.1C4.7 37.1 2 35.5 2 32V30.9C2 30.5 2.4 30.1 2.9 30.1H4.8C5.3 30.1 5.7 30.4 5.7 30.9V32C5.7 33.4 6.7 34.2 8.2 34.2C9.8 34.2 10.7 33.5 10.7 32.1C10.7 30.4 9.2 29.6 8.2 29L4.4 26.8C2.7 25.9 2 24 2 22.5C2 19.1 4.5 17.1 8.2 17.1C11.8 17.1 14.4 18.9 14.4 22.3V22.9C14.4 23.3 14 23.7 13.5 23.7H11.6C11.1 23.7 10.7 23.4 10.7 22.9V22.3C10.7 20.9 9.8 19.8 8.2 19.8C6.6 19.8 5.7 20.7 5.7 22.2Z" fill="white"/>
<path d="M12.9 7.6L10.8 8.5C10.2 8.8 10.1 9.2 10.1 9.5C10.1 10.1 10.3 10.6 11.5 10.6C12.3 10.6 13 10 13 9.3L12.9 7.6ZM7.79999 9.7C7.79999 8.29999 8.49999 7.5 9.59999 7.1L12 6.3C12.7 6 13 5.8 13 5.4C13 4.8 12.5 4.4 11.7 4.4C10.9 4.4 10.4 4.8 10.4 5.5C10.4 5.8 10.2 6 9.89999 6H8.89999C8.59999 6 8.39999 5.8 8.39999 5.5C8.39999 3.9 9.79999 2.7 11.8 2.7C14 2.6 15 4 15 5.6V11.5C15 11.8 14.8 12 14.5 12H13.5C13.2 12 13 11.8 13 11.5V11.4C13 11.2 12.9 11.2 12.8 11.3C12.3 11.8 11.5 12.1 10.6 12.1C9.39999 12.1 7.79999 11.6 7.79999 9.7Z" fill="#002F6C"/>
<path d="M24.7 0.5C24.7 0.2 24.9 0 25.2 0H26.2C26.5 0 26.7 0.2 26.7 0.5V6.3C26.7 6.5 26.8 6.5 26.9 6.4L29.2 3.6C29.4 3.4 29.5 3.2 29.8 3.2H31.1C31.4 3.2 31.6 3.3 31.6 3.5C31.6 3.6 31.6 3.7 31.5 3.8L28.9 7V7.1L31.9 11.3C32 11.4 32 11.5 32 11.6C32 11.9 31.8 12 31.4 12H30.2C29.9 12 29.7 11.8 29.5 11.5L27 7.8C26.9 7.6 26.8 7.7 26.8 7.9V11.6C26.8 11.9 26.6 12.1 26.3 12.1H25.3C25 12.1 24.8 11.9 24.8 11.6L24.7 0.5Z" fill="#002F6C"/>
<path d="M23.3 5.10001C23.3 3.80001 22.3 2.60001 20.8 2.60001C19.9 2.60001 19.1 3.00001 18.7 3.60001C18.6 3.80001 18.5 3.70001 18.5 3.50001V3.40001C18.5 3.10001 18.3 2.90001 18 2.90001H17C16.7 2.90001 16.5 3.10001 16.5 3.40001V6.40001V11.1V11.5C16.5 11.8 16.7 12 17 12H18C18.3 12 18.5 11.8 18.5 11.5V11.1V5.10001C18.7 4.80001 19.1 4.40001 19.5 4.30001C19.6 4.30001 19.7 4.30001 19.8 4.30001C20.2 4.30001 20.5 4.40001 20.7 4.60001C20.9 4.80001 21 5.00001 21 5.30001C21 5.40001 21 5.50001 21 5.60001V11.4C21 11.7 21.2 11.9 21.5 11.9H22.5C22.8 11.9 23 11.7 23 11.4L23.3 5.10001Z" fill="#002F6C"/>
<path d="M6.9 5C6.9 3.7 5.8 2.7 4.4 2.7C3.5 2.7 2.7 3.1 2.3 3.7C2.2 3.8 2.1 3.7 2.1 3.6V0.5C2.1 0.2 1.9 0 1.6 0H0.6C0.2 0 0 0.2 0 0.5V11.5C0 11.7 0.2 12 0.5 12H1.5C1.8 12 2 11.8 2 11.5V11.4C2 11.2 2.1 11.2 2.2 11.3C2.6 11.9 3.4 12.2 4.3 12.2C5.7 12.2 6.8 11.2 6.8 9.8C6.8 9.8 6.8 8.9 6.8 7.5C6.8 6.1 6.9 5 6.9 5ZM4.8 9.2C4.8 10 4.3 10.5 3.5 10.5C3 10.5 2.4 10.2 2.2 9.7V5.3C2.4 4.8 3 4.5 3.5 4.5C4.3 4.5 4.8 5.1 4.8 5.8C4.8 5.8 4.8 6.3 4.8 7.4C4.8 8.5 4.8 9.2 4.8 9.2Z" fill="#002F6C"/>
</g>
<defs>
<clipPath id="clip0_1_281">
<rect width="32" height="54" fill="white"/>
</clipPath>
</defs>
</svg>
