<svg width="105" height="43" viewBox="0 0 105 43" fill="none" xmlns="http://www.w3.org/2000/svg">
<path d="M14.2593 22.8258C13.8282 22.8258 13.4147 22.6549 13.1099 22.3508C12.8051 22.0467 12.6339 21.6342 12.6339 21.2041C12.6339 20.7741 12.8051 20.3616 13.1099 20.0575C13.4147 19.7534 13.8282 19.5825 14.2593 19.5825H37.175C36.8325 16.9135 35.6262 14.429 33.7395 12.5062C33.7036 12.4767 33.6706 12.4437 33.641 12.408L30.8212 9.57011L30.7103 9.47182L21.2288 0L0 21.2041L21.2288 42.3714L30.6734 32.9119L30.8212 32.7767L33.641 29.9635L33.7764 29.8038C35.6422 27.8953 36.835 25.4332 37.175 22.7889L14.2593 22.8258Z" fill="#007BC6"/>
<path d="M103.521 1.41278H74.1775V9.02954H84.9027V41.88H93.0543V9.02954H103.78V1.41278H103.521Z" fill="white"/>
<path d="M68.8335 20.2828C70.0116 19.3585 70.9585 18.1739 71.5996 16.8223C72.2407 15.4706 72.5583 13.989 72.5276 12.494C72.6137 10.9994 72.3805 9.50369 71.8434 8.10581C71.3064 6.70796 70.4776 5.43995 69.4122 4.38579C67.2942 2.40788 64.1912 1.41278 60.2016 1.41278H41.4971V17.5063L46.127 21.1919L41.4971 24.8774V41.88H61.2852C69.092 41.88 74.1283 37.1625 74.1283 29.8775C74.2329 27.9442 73.7921 26.0205 72.8563 24.3246C71.9203 22.6287 70.5267 21.2284 68.8335 20.2828ZM49.6487 8.85762H60.2262C62.9475 8.85762 64.6345 10.4301 64.6345 12.9608C64.6371 13.5284 64.5232 14.0906 64.2995 14.6126C64.0759 15.1345 63.7473 15.6052 63.3342 15.9955C62.9211 16.3858 62.4322 16.6874 61.8976 16.8818C61.363 17.0761 60.7942 17.1591 60.2262 17.1254H49.6487V8.85762ZM60.2262 34.3861H49.6487V24.558H60.0538C63.7479 24.558 65.7796 26.3271 65.7796 29.472C65.7796 33.5507 62.7628 34.3861 60.2262 34.3861Z" fill="white"/>
</svg>
