<svg width="122" height="44" viewBox="0 0 122 44" fill="none" xmlns="http://www.w3.org/2000/svg">
<g clip-path="url(#clip0_2154_4)">
<path d="M79.6322 22.6166C79.4317 22.6166 79.2394 22.5372 79.0976 22.3957C78.9559 22.2543 78.8762 22.0624 78.8762 21.8624C78.8762 21.6624 78.9559 21.4705 79.0976 21.3291C79.2394 21.1876 79.4317 21.1081 79.6322 21.1081H90.2907C90.1314 19.8668 89.5703 18.7112 88.6928 17.8169C88.6761 17.8031 88.6608 17.7878 88.647 17.7711L87.3354 16.4512L87.2839 16.4055L82.8739 12L73 21.8624L82.8739 31.7076L87.2667 27.3079L87.3354 27.245L88.647 25.9365L88.71 25.8622C89.5778 24.9746 90.1326 23.8294 90.2907 22.5995L79.6322 22.6166Z" fill="#007BC6"/>
<path d="M121.149 12.6571H107.501V16.1998H112.49V31.4791H116.281V16.1998H121.27V12.6571H121.149Z" fill="#020202"/>
<path d="M105.016 21.4339C105.564 21.004 106.004 20.453 106.302 19.8243C106.6 19.1956 106.748 18.5065 106.734 17.8111C106.774 17.116 106.665 16.4203 106.416 15.7701C106.166 15.12 105.78 14.5302 105.285 14.0399C104.3 13.1199 102.856 12.6571 101.001 12.6571H92.301V20.1425L94.4545 21.8567L92.301 23.5709V31.4791H101.505C105.136 31.4791 107.478 29.2849 107.478 25.8965C107.527 24.9973 107.322 24.1026 106.887 23.3138C106.451 22.525 105.803 21.8737 105.016 21.4339ZM96.0925 16.1198H101.012C102.278 16.1198 103.063 16.8512 103.063 18.0283C103.064 18.2923 103.011 18.5538 102.907 18.7965C102.803 19.0393 102.65 19.2582 102.458 19.4397C102.266 19.6213 102.038 19.7616 101.79 19.852C101.541 19.9424 101.276 19.981 101.012 19.9653H96.0925V16.1198ZM101.012 27.9935H96.0925V23.4223H100.932C102.65 23.4223 103.595 24.2451 103.595 25.7079C103.595 27.605 102.192 27.9935 101.012 27.9935Z" fill="#020202"/>
</g>
<defs>
<clipPath id="clip0_2154_4">
<rect width="48.5714" height="20" fill="white" transform="translate(73 12)"/>
</clipPath>
</defs>
</svg>
