<svg width="122" height="44" viewBox="0 0 122 44" fill="none" xmlns="http://www.w3.org/2000/svg">
<g clip-path="url(#clip0_2154_26)">
<path d="M42.6322 22.6166C42.4317 22.6166 42.2394 22.5372 42.0976 22.3957C41.9559 22.2543 41.8762 22.0624 41.8762 21.8624C41.8762 21.6624 41.9559 21.4705 42.0976 21.3291C42.2394 21.1876 42.4317 21.1081 42.6322 21.1081H53.2907C53.1314 19.8668 52.5703 18.7112 51.6928 17.8169C51.6761 17.8031 51.6608 17.7878 51.647 17.7711L50.3354 16.4512L50.2839 16.4055L45.8739 12L36 21.8624L45.8739 31.7076L50.2667 27.3079L50.3354 27.245L51.647 25.9365L51.71 25.8622C52.5778 24.9746 53.1326 23.8294 53.2907 22.5995L42.6322 22.6166Z" fill="#007BC6"/>
<path d="M84.1493 12.6571H70.5012V16.1998H75.4897V31.4791H79.2811V16.1998H84.2697V12.6571H84.1493Z" fill="#020202"/>
<path d="M68.0156 21.4339C68.5636 21.004 69.004 20.453 69.3022 19.8243C69.6004 19.1956 69.7481 18.5065 69.7338 17.8111C69.7739 17.116 69.6654 16.4203 69.4156 15.7701C69.1658 15.12 68.7803 14.5302 68.2848 14.0399C67.2997 13.1199 65.8565 12.6571 64.0008 12.6571H55.301V20.1425L57.4545 21.8567L55.301 23.5709V31.4791H64.5048C68.1359 31.4791 70.4783 29.2849 70.4783 25.8965C70.527 24.9973 70.322 24.1026 69.8867 23.3138C69.4514 22.525 68.8032 21.8737 68.0156 21.4339ZM59.0925 16.1198H64.0122C65.278 16.1198 66.0626 16.8512 66.0626 18.0283C66.0638 18.2923 66.0108 18.5538 65.9068 18.7965C65.8028 19.0393 65.65 19.2582 65.4578 19.4397C65.2657 19.6213 65.0383 19.7616 64.7896 19.852C64.541 19.9424 64.2764 19.981 64.0122 19.9653H59.0925V16.1198ZM64.0122 27.9935H59.0925V23.4223H63.9321C65.6502 23.4223 66.5952 24.2451 66.5952 25.7079C66.5952 27.605 65.1921 27.9935 64.0122 27.9935Z" fill="#020202"/>
</g>
<defs>
<clipPath id="clip0_2154_26">
<rect width="48.5714" height="20" fill="white" transform="translate(36 12)"/>
</clipPath>
</defs>
</svg>
