<svg width="180" height="65" viewBox="0 0 180 65" fill="none" xmlns="http://www.w3.org/2000/svg">
<path d="M56.2799 33.4558C55.9692 33.4558 55.6711 33.3326 55.4513 33.1134C55.2316 32.8941 55.1081 32.5968 55.1081 32.2867C55.1081 31.9767 55.2316 31.6793 55.4513 31.4601C55.6711 31.2408 55.9692 31.1176 56.2799 31.1176H72.8006C72.5537 29.1935 71.684 27.4023 70.3238 26.0161C70.298 25.9948 70.2742 25.9711 70.2528 25.9453L68.2199 23.8994L68.14 23.8285L61.3045 17L46 32.2867L61.3045 47.5468L68.1134 40.7272L68.2199 40.6297L70.2528 38.6016L70.3504 38.4864C71.6955 37.1106 72.5555 35.3356 72.8006 33.4292L56.2799 33.4558Z" fill="#007BC6"/>
<path d="M120.631 18.0185H99.4768V23.5096H107.209V47.1925H113.086V23.5096H120.818V18.0185H120.631Z" fill="#020202"/>
<path d="M95.6241 31.6225C96.4735 30.9561 97.1562 30.1021 97.6183 29.1277C98.0805 28.1532 98.3095 27.0851 98.2873 26.0072C98.3494 24.9298 98.1813 23.8515 97.7941 22.8437C97.4069 21.836 96.8095 20.9218 96.0414 20.1618C94.5145 18.7359 92.2774 18.0185 89.4012 18.0185H75.9165V29.6208L79.2544 32.2778L75.9165 34.9349V47.1925H90.1824C95.8105 47.1925 99.4414 43.7916 99.4414 38.5396C99.5167 37.1458 99.199 35.759 98.5243 34.5363C97.8496 33.3137 96.8448 32.3042 95.6241 31.6225ZM81.7933 23.3857H89.4189C91.3808 23.3857 92.597 24.5194 92.597 26.3438C92.5989 26.753 92.5167 27.1583 92.3555 27.5346C92.1943 27.9109 91.9574 28.2502 91.6596 28.5316C91.3618 28.813 91.0092 29.0304 90.6238 29.1706C90.2384 29.3107 89.8284 29.3705 89.4189 29.3462H81.7933V23.3857ZM89.4189 41.79H81.7933V34.7046H89.2946C91.9578 34.7046 93.4225 35.9799 93.4225 38.2473C93.4225 41.1877 91.2476 41.79 89.4189 41.79Z" fill="#020202"/>
</svg>
