<svg width="180" height="65" viewBox="0 0 180 65" fill="none" xmlns="http://www.w3.org/2000/svg">
<g clip-path="url(#clip0_2154_117)">
<path d="M115.28 33.4558C114.969 33.4558 114.671 33.3326 114.451 33.1134C114.232 32.8941 114.108 32.5968 114.108 32.2867C114.108 31.9767 114.232 31.6793 114.451 31.4601C114.671 31.2408 114.969 31.1176 115.28 31.1176H131.801C131.554 29.1935 130.684 27.4023 129.324 26.0161C129.298 25.9948 129.274 25.9711 129.253 25.9453L127.22 23.8994L127.14 23.8285L120.304 17L105 32.2867L120.304 47.5468L127.113 40.7272L127.22 40.6297L129.253 38.6016L129.35 38.4864C130.696 37.1106 131.555 35.3356 131.801 33.4292L115.28 33.4558Z" fill="#007BC6"/>
<path d="M179.631 18.0185H158.477V23.5096H166.209V47.1925H172.086V23.5096H179.818V18.0185H179.631Z" fill="#020202"/>
<path d="M154.624 31.6225C155.473 30.9561 156.156 30.1021 156.618 29.1277C157.081 28.1532 157.31 27.0851 157.287 26.0072C157.349 24.9298 157.181 23.8515 156.794 22.8437C156.407 21.836 155.809 20.9218 155.041 20.1618C153.514 18.7359 151.277 18.0185 148.401 18.0185H134.917V29.6208L138.254 32.2778L134.917 34.9349V47.1925H149.182C154.811 47.1925 158.441 43.7916 158.441 38.5396C158.517 37.1458 158.199 35.759 157.524 34.5363C156.85 33.3137 155.845 32.3042 154.624 31.6225ZM140.793 23.3857H148.419C150.381 23.3857 151.597 24.5194 151.597 26.3438C151.599 26.753 151.517 27.1583 151.355 27.5346C151.194 27.9109 150.957 28.2502 150.66 28.5316C150.362 28.813 150.009 29.0304 149.624 29.1706C149.238 29.3107 148.828 29.3705 148.419 29.3462H140.793V23.3857ZM148.419 41.79H140.793V34.7046H148.295C150.958 34.7046 152.423 35.9799 152.423 38.2473C152.423 41.1877 150.248 41.79 148.419 41.79Z" fill="#020202"/>
</g>
<defs>
<clipPath id="clip0_2154_117">
<rect width="180" height="65" fill="white"/>
</clipPath>
</defs>
</svg>
