<svg width="122" height="44" viewBox="0 0 122 44" fill="none" xmlns="http://www.w3.org/2000/svg">
<g clip-path="url(#clip0_2155_221)">
<path d="M27.9387 15.4558V17.9212H31.4091V28.5197H34.0336V17.9212H37.4959V15.4558H27.9387Z" fill="black"/>
<path fill-rule="evenodd" clip-rule="evenodd" d="M26.2195 21.5478C26.9829 20.9379 27.4222 20.0109 27.4107 19.0349C27.4107 17.9212 27.097 17.0333 26.4061 16.419C25.7152 15.8046 24.7266 15.4558 23.4441 15.4558H17.381V20.3667L19.2908 21.8372L17.381 23.3116V28.5197H23.7696C26.291 28.5197 27.907 27.0017 27.907 24.6394C27.9801 23.3722 27.3258 22.1736 26.2195 21.5478ZM20.0254 17.8577H23.4441C24.3096 17.8577 24.8536 18.3532 24.8536 19.1736C24.8597 19.5437 24.7113 19.8996 24.4439 20.1561C24.1765 20.4125 23.8142 20.5462 23.4441 20.5252H20.0293L20.0254 17.8577ZM20.0293 26.098H23.4441V26.102C24.2541 26.102 25.2348 25.8285 25.2348 24.5126C25.2348 23.4939 24.5757 22.9272 23.3845 22.9272H20.0293V26.098Z" fill="black"/>
<path d="M8.74487 22.4991C8.4649 22.4974 8.21652 22.3195 8.12545 22.0552C8.09713 21.9873 8.0823 21.9146 8.08178 21.8412C8.08058 21.77 8.09552 21.6996 8.12545 21.635C8.21157 21.3683 8.46015 21.1874 8.7409 21.1871H15.9753C15.8449 20.3777 15.4661 19.6285 14.8914 19.0429L14.8596 19.0072L13.9503 18.0916L13.9146 18.0638L10.8533 15L4 21.8372L10.8493 28.6783L13.8987 25.6224L13.9503 25.5748L14.8596 24.6632L14.9033 24.6156C15.4679 24.0311 15.8405 23.2886 15.9713 22.4872L8.74487 22.4991Z" fill="#007BC6"/>
<path d="M42.3788 15.4241H48.0195C48.3906 15.4241 48.7988 15.4674 49.2441 15.554C49.7018 15.6406 50.1224 15.8201 50.5058 16.0924C50.9017 16.3522 51.2295 16.7297 51.4893 17.2247C51.749 17.7074 51.8789 18.3447 51.8789 19.1368C51.8789 20.3001 51.5202 21.1973 50.8028 21.8285C50.0853 22.4596 49.0586 22.7752 47.7226 22.7752H43.1952V28.6783H42.3788V15.4241ZM43.1952 22.0698H47.8525C48.4463 22.0698 48.9473 21.9832 49.3555 21.8099C49.7761 21.6243 50.11 21.3891 50.3574 21.1045C50.6049 20.8198 50.7842 20.5043 50.8956 20.1577C51.0069 19.8112 51.0625 19.4647 51.0625 19.1182C51.0625 18.8707 51.0254 18.5799 50.9512 18.2457C50.877 17.8992 50.7285 17.5712 50.5058 17.2618C50.2832 16.9401 49.9678 16.674 49.5596 16.4636C49.1638 16.2409 48.6318 16.1295 47.9638 16.1295H43.1952V22.0698Z" fill="black"/>
<path d="M58.9772 26.785H58.9401C58.8288 27.0696 58.6679 27.3419 58.4576 27.6017C58.2473 27.8492 57.9875 28.072 57.6783 28.27C57.3814 28.468 57.0413 28.6227 56.6578 28.7341C56.2743 28.8455 55.8538 28.9012 55.396 28.9012C54.3817 28.9012 53.5962 28.6846 53.0396 28.2515C52.4829 27.806 52.2046 27.1253 52.2046 26.2095C52.2046 25.6526 52.3159 25.2009 52.5386 24.8544C52.7612 24.4955 53.0396 24.217 53.3735 24.019C53.7199 23.8086 54.0972 23.6601 54.5054 23.5735C54.926 23.4868 55.328 23.425 55.7115 23.3878L56.8062 23.295C57.3134 23.2579 57.7093 23.2022 57.9937 23.128C58.2906 23.0413 58.5133 22.9299 58.6617 22.7938C58.8102 22.6453 58.903 22.4597 58.9401 22.2369C58.9772 22.0142 58.9957 21.7357 58.9957 21.4015C58.9957 21.1417 58.9462 20.9003 58.8473 20.6776C58.7483 20.4548 58.5937 20.2568 58.3834 20.0836C58.1731 19.9103 57.901 19.7742 57.567 19.6752C57.233 19.5762 56.8248 19.5267 56.3424 19.5267C55.4888 19.5267 54.7961 19.737 54.2642 20.1578C53.7447 20.5786 53.4601 21.2159 53.4106 22.0698H52.7055C52.755 21.0179 53.089 20.2321 53.7076 19.7123C54.3384 19.1801 55.229 18.9141 56.3795 18.9141C57.5299 18.9141 58.3648 19.143 58.8844 19.6009C59.4163 20.0464 59.6822 20.6343 59.6822 21.3644V26.9149C59.6822 27.051 59.6822 27.1872 59.6822 27.3233C59.6947 27.4594 59.7193 27.5832 59.7564 27.6945C59.7936 27.806 59.8555 27.8987 59.942 27.973C60.0286 28.0349 60.1523 28.0658 60.3131 28.0658C60.4368 28.0658 60.61 28.0473 60.8327 28.0101V28.6041C60.6471 28.6537 60.4554 28.6784 60.2575 28.6784C59.9729 28.6784 59.7441 28.6413 59.5709 28.567C59.4101 28.4928 59.2864 28.3938 59.1998 28.27C59.1132 28.1463 59.0514 28.0039 59.0143 27.8431C58.9896 27.6698 58.9772 27.4842 58.9772 27.2862V26.785ZM58.9772 23.2579C58.804 23.4683 58.538 23.6106 58.1793 23.6849C57.8329 23.7591 57.4433 23.8148 57.0103 23.8519L55.8228 23.9633C55.4765 24.0004 55.1301 24.0561 54.7837 24.1304C54.4373 24.1922 54.122 24.3037 53.8374 24.4645C53.5653 24.6254 53.3426 24.8481 53.1694 25.1328C52.9962 25.4051 52.9097 25.7639 52.9097 26.2095C52.9097 26.9149 53.1323 27.4409 53.5777 27.7874C54.0229 28.1215 54.6353 28.2886 55.4146 28.2886C56.2186 28.2886 56.8557 28.1463 57.3258 27.8616C57.7958 27.5646 58.1546 27.2305 58.4019 26.8592C58.6494 26.4756 58.804 26.1105 58.8659 25.7639C58.9401 25.4051 58.9772 25.1637 58.9772 25.04V23.2579Z" fill="black"/>
<path d="M61.9274 19.1368H62.6325V21.1788H62.6696C62.7933 20.8199 62.9665 20.5043 63.1891 20.2321C63.4242 19.9474 63.6901 19.7061 63.987 19.5081C64.2962 19.3101 64.6303 19.1616 64.989 19.0626C65.3477 18.9636 65.7127 18.9141 66.0837 18.9141C66.6404 18.9141 67.1104 18.9821 67.4939 19.1183C67.8896 19.2544 68.2116 19.4338 68.4585 19.6566C68.706 19.8794 68.8976 20.1331 69.0338 20.4177C69.1827 20.69 69.2877 20.9684 69.3494 21.253C69.4111 21.5377 69.4487 21.8161 69.4608 22.0884C69.4729 22.3483 69.4792 22.5772 69.4792 22.7752V28.6784H68.7741V22.6453C68.7741 22.4102 68.7557 22.1132 68.7188 21.7543C68.6812 21.3954 68.5699 21.055 68.3847 20.7333C68.2116 20.3991 67.9392 20.1145 67.5681 19.8794C67.2094 19.6442 66.7084 19.5267 66.0652 19.5267C65.5209 19.5267 65.0384 19.6257 64.6178 19.8237C64.1973 20.0217 63.8386 20.3001 63.5417 20.659C63.2448 21.0055 63.0159 21.4263 62.8551 21.9213C62.7067 22.404 62.6325 22.9361 62.6325 23.5178V28.6784H61.9274V19.1368Z" fill="black"/>
<path d="M71.1039 23.9076C71.1039 23.2269 71.1968 22.5896 71.382 21.9956C71.5799 21.3892 71.865 20.857 72.236 20.3991C72.607 19.9412 73.0645 19.5823 73.6086 19.3225C74.1533 19.0502 74.7776 18.9141 75.4827 18.9141C76.1878 18.9141 76.8127 19.0502 77.3568 19.3225C77.9015 19.5823 78.3591 19.9412 78.7301 20.3991C79.1011 20.857 79.3792 21.3892 79.565 21.9956C79.7629 22.5896 79.8622 23.2269 79.8622 23.9076C79.8622 24.5882 79.7629 25.2318 79.565 25.8382C79.3792 26.4447 79.1011 26.9768 78.7301 27.4346C78.3591 27.8802 77.9015 28.2391 77.3568 28.5114C76.8127 28.7713 76.1878 28.9012 75.4827 28.9012C74.7776 28.9012 74.1533 28.7713 73.6086 28.5114C73.0645 28.2391 72.607 27.8802 72.236 27.4346C71.865 26.9768 71.5799 26.4447 71.382 25.8382C71.1968 25.2318 71.1039 24.5882 71.1039 23.9076ZM71.809 23.9076C71.809 24.4769 71.8892 25.0276 72.0502 25.5598C72.2112 26.0796 72.446 26.5436 72.7552 26.952C73.0645 27.3604 73.4482 27.6884 73.9058 27.9359C74.3633 28.171 74.889 28.2886 75.4827 28.2886C76.0764 28.2886 76.6027 28.171 77.0602 27.9359C77.5178 27.6884 77.9015 27.3604 78.2108 26.952C78.5194 26.5436 78.7549 26.0796 78.9159 25.5598C79.0763 25.0276 79.1571 24.4769 79.1571 23.9076C79.1571 23.3384 79.0763 22.7938 78.9159 22.274C78.7549 21.7419 78.5194 21.2716 78.2108 20.8632C77.9015 20.4548 77.5178 20.1331 77.0602 19.8979C76.6027 19.6504 76.0764 19.5267 75.4827 19.5267C74.889 19.5267 74.3633 19.6504 73.9058 19.8979C73.4482 20.1331 73.0645 20.4548 72.7552 20.8632C72.446 21.2716 72.2112 21.7419 72.0502 22.274C71.8892 22.7938 71.809 23.3384 71.809 23.9076Z" fill="black"/>
<path d="M82.2206 21.253H82.276C82.3625 20.9436 82.5171 20.6528 82.7399 20.3805C82.9753 20.1083 83.2534 19.8731 83.5748 19.6751C83.9089 19.4771 84.2741 19.3286 84.67 19.2296C85.0779 19.1182 85.4985 19.0687 85.9312 19.0811V19.7865C85.5602 19.737 85.1339 19.7741 84.6515 19.8979C84.1812 20.0216 83.7294 20.2939 83.2967 20.7147C83.1236 20.9003 82.969 21.0797 82.8328 21.253C82.7093 21.4262 82.6037 21.6181 82.5171 21.8285C82.4306 22.0389 82.3625 22.274 82.3135 22.5339C82.2639 22.7938 82.2327 23.1032 82.2206 23.462V28.6784H81.5155V19.1368H82.2206V21.253Z" fill="black"/>
<path d="M92.6442 26.785H92.6073C92.496 27.0696 92.335 27.3419 92.125 27.6017C91.915 27.8492 91.6547 28.072 91.3454 28.27C91.0489 28.468 90.7084 28.6227 90.3253 28.7341C89.9416 28.8455 89.521 28.9012 89.0634 28.9012C88.0491 28.9012 87.2638 28.6846 86.707 28.2515C86.1502 27.806 85.8721 27.1253 85.8721 26.2095C85.8721 25.6526 85.9834 25.2009 86.2062 24.8544C86.4289 24.4955 86.707 24.217 87.0411 24.019C87.3872 23.8086 87.7646 23.6601 88.1725 23.5735C88.5932 23.4868 88.9953 23.425 89.3791 23.3878L90.4736 23.295C90.9808 23.2579 91.3766 23.2022 91.6611 23.128C91.9583 23.0413 92.181 22.9299 92.3292 22.7938C92.4775 22.6453 92.5704 22.4597 92.6073 22.2369C92.6443 22.0142 92.6633 21.7357 92.6633 21.4015C92.6633 21.1417 92.6137 20.9003 92.5144 20.6776C92.4158 20.4548 92.2612 20.2568 92.0505 20.0836C91.8405 19.9103 91.5682 19.7742 91.2341 19.6752C90.9006 19.5762 90.4921 19.5267 90.0097 19.5267C89.1563 19.5267 88.4633 19.737 87.9313 20.1578C87.4121 20.5786 87.1276 21.2159 87.078 22.0698H86.3729C86.4225 21.0179 86.7566 20.2321 87.3752 19.7123C88.0058 19.1801 88.8967 18.9141 90.0466 18.9141C91.1972 18.9141 92.0321 19.143 92.552 19.6009C93.084 20.0464 93.3493 20.6343 93.3493 21.3644V26.9149C93.3493 27.051 93.3493 27.1872 93.3493 27.3233C93.3621 27.4594 93.3869 27.5832 93.4238 27.6945C93.4607 27.806 93.5231 27.8987 93.6096 27.973C93.6962 28.0349 93.8196 28.0658 93.9806 28.0658C94.1041 28.0658 94.2772 28.0473 94.4999 28.0101V28.6041C94.3147 28.6537 94.1225 28.6784 93.9246 28.6784C93.6402 28.6784 93.4117 28.6413 93.2386 28.567C93.0776 28.4928 92.9535 28.3938 92.867 28.27C92.7804 28.1463 92.7187 28.0039 92.6818 27.8431C92.657 27.6698 92.6442 27.4842 92.6442 27.2862V26.785ZM92.6442 23.2579C92.4712 23.4683 92.2052 23.6106 91.8469 23.6849C91.5001 23.7591 91.1106 23.8148 90.6779 23.8519L89.4904 23.9633C89.1436 24.0004 88.7974 24.0561 88.4512 24.1304C88.1044 24.1922 87.7894 24.3037 87.505 24.4645C87.2326 24.6254 87.0099 24.8481 86.8368 25.1328C86.6637 25.4051 86.5772 25.7639 86.5772 26.2095C86.5772 26.9149 86.7999 27.4409 87.2447 27.7874C87.6902 28.1215 88.3023 28.2886 89.0819 28.2886C89.8862 28.2886 90.5232 28.1463 90.9929 27.8616C91.4632 27.5646 91.8221 27.2305 92.0696 26.8592C92.3165 26.4756 92.4712 26.1105 92.5335 25.7639C92.6073 25.4051 92.6442 25.1637 92.6442 25.04V23.2579Z" fill="black"/>
<path d="M95.6135 19.1368H96.3186V21.086H96.3555C96.43 20.789 96.5598 20.5105 96.745 20.2506C96.9308 19.9784 97.1535 19.7432 97.4132 19.5452C97.6855 19.3472 97.9821 19.1925 98.3041 19.0811C98.6375 18.9698 98.9843 18.9141 99.3426 18.9141C99.8008 18.9141 100.197 18.9759 100.531 19.0997C100.864 19.2111 101.149 19.3658 101.384 19.5638C101.619 19.7494 101.805 19.966 101.941 20.2135C102.076 20.4486 102.169 20.69 102.219 20.9375H102.256C102.54 20.2692 102.918 19.768 103.388 19.4338C103.87 19.0873 104.501 18.9141 105.281 18.9141C105.713 18.9141 106.109 18.9821 106.468 19.1183C106.839 19.242 107.155 19.44 107.414 19.7123C107.687 19.9722 107.897 20.3063 108.046 20.7147C108.194 21.1231 108.268 21.6057 108.268 22.1627V28.6784H107.563V22.1441C107.563 21.5377 107.47 21.0612 107.284 20.7147C107.099 20.3682 106.877 20.1083 106.616 19.9351C106.369 19.7494 106.115 19.638 105.856 19.6009C105.608 19.5514 105.417 19.5267 105.281 19.5267C104.848 19.5267 104.446 19.6009 104.075 19.7494C103.716 19.8979 103.4 20.1207 103.128 20.4177C102.868 20.7147 102.664 21.086 102.516 21.5315C102.367 21.9646 102.293 22.4658 102.293 23.0351V28.6784H101.588V22.1441C101.588 21.5501 101.495 21.0798 101.31 20.7333C101.137 20.3744 100.927 20.1083 100.679 19.9351C100.444 19.7618 100.197 19.6504 99.937 19.6009C99.6894 19.5514 99.4915 19.5267 99.3426 19.5267C99.0092 19.5267 98.6623 19.5947 98.3041 19.7309C97.9452 19.867 97.6174 20.0774 97.3202 20.362C97.0237 20.6466 96.7825 21.0117 96.5967 21.4573C96.4115 21.9028 96.3186 22.4287 96.3186 23.0351V28.6784H95.6135V19.1368Z" fill="black"/>
<path d="M116.69 26.785H116.653C116.542 27.0696 116.381 27.3419 116.171 27.6017C115.96 27.8492 115.7 28.072 115.391 28.27C115.094 28.468 114.754 28.6227 114.37 28.7341C113.987 28.8455 113.567 28.9012 113.109 28.9012C112.095 28.9012 111.309 28.6846 110.753 28.2515C110.196 27.806 109.918 27.1253 109.918 26.2095C109.918 25.6526 110.028 25.2009 110.251 24.8544C110.474 24.4955 110.753 24.217 111.086 24.019C111.433 23.8086 111.81 23.6601 112.218 23.5735C112.639 23.4868 113.041 23.425 113.424 23.3878L114.519 23.295C115.026 23.2579 115.422 23.2022 115.707 23.128C116.003 23.0413 116.226 22.9299 116.375 22.7938C116.523 22.6453 116.616 22.4597 116.653 22.2369C116.69 22.0142 116.708 21.7357 116.708 21.4015C116.708 21.1417 116.659 20.9003 116.56 20.6776C116.461 20.4548 116.307 20.2568 116.096 20.0836C115.886 19.9103 115.614 19.7742 115.28 19.6752C114.946 19.5762 114.538 19.5267 114.055 19.5267C113.202 19.5267 112.509 19.737 111.977 20.1578C111.458 20.5786 111.173 21.2159 111.124 22.0698H110.418C110.468 21.0179 110.802 20.2321 111.42 19.7123C112.051 19.1801 112.942 18.9141 114.092 18.9141C115.243 18.9141 116.078 19.143 116.597 19.6009C117.129 20.0464 117.395 20.6343 117.395 21.3644V26.9149C117.395 27.051 117.395 27.1872 117.395 27.3233C117.408 27.4594 117.432 27.5832 117.469 27.6945C117.506 27.806 117.568 27.8987 117.655 27.973C117.741 28.0349 117.865 28.0658 118.026 28.0658C118.15 28.0658 118.323 28.0473 118.545 28.0101V28.6041C118.36 28.6537 118.168 28.6784 117.97 28.6784C117.686 28.6784 117.457 28.6413 117.284 28.567C117.123 28.4928 116.999 28.3938 116.913 28.27C116.826 28.1463 116.764 28.0039 116.727 27.8431C116.703 27.6698 116.69 27.4842 116.69 27.2862V26.785ZM116.69 23.2579C116.517 23.4683 116.251 23.6106 115.892 23.6849C115.546 23.7591 115.156 23.8148 114.723 23.8519L113.535 23.9633C113.189 24.0004 112.843 24.0561 112.497 24.1304C112.15 24.1922 111.835 24.3037 111.55 24.4645C111.278 24.6254 111.055 24.8481 110.882 25.1328C110.709 25.4051 110.623 25.7639 110.623 26.2095C110.623 26.9149 110.845 27.4409 111.29 27.7874C111.736 28.1215 112.348 28.2886 113.127 28.2886C113.931 28.2886 114.568 28.1463 115.038 27.8616C115.509 27.5646 115.868 27.2305 116.115 26.8592C116.362 26.4756 116.517 26.1105 116.578 25.7639C116.653 25.4051 116.69 25.1637 116.69 25.04V23.2579Z" fill="black"/>
</g>
<defs>
<clipPath id="clip0_2155_221">
<rect width="114.545" height="14" fill="white" transform="translate(4 15)"/>
</clipPath>
</defs>
</svg>
