<svg width="122" height="44" viewBox="0 0 122 44" fill="none" xmlns="http://www.w3.org/2000/svg">
<g clip-path="url(#clip0_2155_219)">
<path d="M30.9387 15.4558V17.9212H34.4091V28.5197H37.0336V17.9212H40.4959V15.4558H30.9387Z" fill="black"/>
<path fill-rule="evenodd" clip-rule="evenodd" d="M29.2195 21.5478C29.9829 20.9379 30.4222 20.0109 30.4107 19.0349C30.4107 17.9212 30.097 17.0333 29.4061 16.419C28.7152 15.8046 27.7266 15.4558 26.4441 15.4558H20.381V20.3667L22.2908 21.8372L20.381 23.3116V28.5197H26.7696C29.291 28.5197 30.907 27.0017 30.907 24.6394C30.9801 23.3722 30.3258 22.1736 29.2195 21.5478ZM23.0254 17.8577H26.4441C27.3096 17.8577 27.8536 18.3532 27.8536 19.1736C27.8597 19.5437 27.7113 19.8996 27.4439 20.1561C27.1765 20.4125 26.8142 20.5462 26.4441 20.5252H23.0293L23.0254 17.8577ZM23.0293 26.098H26.4441V26.102C27.2541 26.102 28.2348 25.8285 28.2348 24.5126C28.2348 23.4939 27.5757 22.9272 26.3845 22.9272H23.0293V26.098Z" fill="black"/>
<path d="M11.7449 22.4991C11.4649 22.4974 11.2165 22.3195 11.1255 22.0552C11.0971 21.9873 11.0823 21.9146 11.0818 21.8412C11.0806 21.77 11.0955 21.6996 11.1255 21.635C11.2116 21.3683 11.4601 21.1874 11.7409 21.1871H18.9753C18.8449 20.3777 18.4661 19.6285 17.8914 19.0429L17.8596 19.0072L16.9503 18.0916L16.9146 18.0638L13.8533 15L7 21.8372L13.8493 28.6783L16.8987 25.6224L16.9503 25.5748L17.8596 24.6632L17.9033 24.6156C18.4679 24.0311 18.8405 23.2886 18.9713 22.4872L11.7449 22.4991Z" fill="#007BC6"/>
<path d="M45.3788 15.4241H51.0195C51.3906 15.4241 51.7988 15.4674 52.2441 15.554C52.7018 15.6406 53.1224 15.8201 53.5058 16.0924C53.9017 16.3522 54.2295 16.7297 54.4893 17.2247C54.749 17.7074 54.8789 18.3447 54.8789 19.1368C54.8789 20.3001 54.5202 21.1973 53.8028 21.8285C53.0853 22.4596 52.0586 22.7752 50.7226 22.7752H46.1952V28.6783H45.3788V15.4241ZM46.1952 22.0698H50.8525C51.4463 22.0698 51.9473 21.9832 52.3555 21.8099C52.7761 21.6243 53.11 21.3891 53.3574 21.1045C53.6049 20.8198 53.7842 20.5043 53.8956 20.1577C54.0069 19.8112 54.0625 19.4647 54.0625 19.1182C54.0625 18.8707 54.0254 18.5799 53.9512 18.2457C53.877 17.8992 53.7285 17.5712 53.5058 17.2618C53.2832 16.9401 52.9678 16.674 52.5596 16.4636C52.1638 16.2409 51.6318 16.1295 50.9638 16.1295H46.1952V22.0698Z" fill="black"/>
<path d="M61.9772 26.785H61.9401C61.8288 27.0696 61.6679 27.3419 61.4576 27.6017C61.2473 27.8492 60.9875 28.072 60.6783 28.27C60.3814 28.468 60.0413 28.6227 59.6578 28.7341C59.2743 28.8455 58.8538 28.9012 58.396 28.9012C57.3817 28.9012 56.5962 28.6846 56.0396 28.2515C55.4829 27.806 55.2046 27.1253 55.2046 26.2095C55.2046 25.6526 55.3159 25.2009 55.5386 24.8544C55.7612 24.4955 56.0396 24.217 56.3735 24.019C56.7199 23.8086 57.0972 23.6601 57.5054 23.5735C57.926 23.4868 58.328 23.425 58.7115 23.3878L59.8062 23.295C60.3134 23.2579 60.7093 23.2022 60.9937 23.128C61.2906 23.0413 61.5133 22.9299 61.6617 22.7938C61.8102 22.6453 61.903 22.4597 61.9401 22.2369C61.9772 22.0142 61.9957 21.7357 61.9957 21.4015C61.9957 21.1417 61.9462 20.9003 61.8473 20.6776C61.7483 20.4548 61.5937 20.2568 61.3834 20.0836C61.1731 19.9103 60.901 19.7742 60.567 19.6752C60.233 19.5762 59.8248 19.5267 59.3424 19.5267C58.4888 19.5267 57.7961 19.737 57.2642 20.1578C56.7447 20.5786 56.4601 21.2159 56.4106 22.0698H55.7055C55.755 21.0179 56.089 20.2321 56.7076 19.7123C57.3384 19.1801 58.229 18.9141 59.3795 18.9141C60.5299 18.9141 61.3648 19.143 61.8844 19.6009C62.4163 20.0464 62.6822 20.6343 62.6822 21.3644V26.9149C62.6822 27.051 62.6822 27.1872 62.6822 27.3233C62.6947 27.4594 62.7193 27.5832 62.7564 27.6945C62.7936 27.806 62.8555 27.8987 62.942 27.973C63.0286 28.0349 63.1523 28.0658 63.3131 28.0658C63.4368 28.0658 63.61 28.0473 63.8327 28.0101V28.6041C63.6471 28.6537 63.4554 28.6784 63.2575 28.6784C62.9729 28.6784 62.7441 28.6413 62.5709 28.567C62.4101 28.4928 62.2864 28.3938 62.1998 28.27C62.1132 28.1463 62.0514 28.0039 62.0143 27.8431C61.9896 27.6698 61.9772 27.4842 61.9772 27.2862V26.785ZM61.9772 23.2579C61.804 23.4683 61.538 23.6106 61.1793 23.6849C60.8329 23.7591 60.4433 23.8148 60.0103 23.8519L58.8228 23.9633C58.4765 24.0004 58.1301 24.0561 57.7837 24.1304C57.4373 24.1922 57.122 24.3037 56.8374 24.4645C56.5653 24.6254 56.3426 24.8481 56.1694 25.1328C55.9962 25.4051 55.9097 25.7639 55.9097 26.2095C55.9097 26.9149 56.1323 27.4409 56.5777 27.7874C57.0229 28.1215 57.6353 28.2886 58.4146 28.2886C59.2186 28.2886 59.8557 28.1463 60.3258 27.8616C60.7958 27.5646 61.1546 27.2305 61.4019 26.8592C61.6494 26.4756 61.804 26.1105 61.8659 25.7639C61.9401 25.4051 61.9772 25.1637 61.9772 25.04V23.2579Z" fill="black"/>
<path d="M64.9274 19.1368H65.6325V21.1788H65.6696C65.7933 20.8199 65.9665 20.5043 66.1891 20.2321C66.4242 19.9474 66.6901 19.7061 66.987 19.5081C67.2962 19.3101 67.6303 19.1616 67.989 19.0626C68.3477 18.9636 68.7127 18.9141 69.0837 18.9141C69.6404 18.9141 70.1104 18.9821 70.4939 19.1183C70.8896 19.2544 71.2116 19.4338 71.4585 19.6566C71.706 19.8794 71.8976 20.1331 72.0338 20.4177C72.1827 20.69 72.2877 20.9684 72.3494 21.253C72.4111 21.5377 72.4487 21.8161 72.4608 22.0884C72.4729 22.3483 72.4792 22.5772 72.4792 22.7752V28.6784H71.7741V22.6453C71.7741 22.4102 71.7557 22.1132 71.7188 21.7543C71.6812 21.3954 71.5699 21.055 71.3847 20.7333C71.2116 20.3991 70.9392 20.1145 70.5681 19.8794C70.2094 19.6442 69.7084 19.5267 69.0652 19.5267C68.5209 19.5267 68.0384 19.6257 67.6178 19.8237C67.1973 20.0217 66.8386 20.3001 66.5417 20.659C66.2448 21.0055 66.0159 21.4263 65.8551 21.9213C65.7067 22.404 65.6325 22.9361 65.6325 23.5178V28.6784H64.9274V19.1368Z" fill="black"/>
<path d="M74.1039 23.9076C74.1039 23.2269 74.1968 22.5896 74.382 21.9956C74.5799 21.3892 74.865 20.857 75.236 20.3991C75.607 19.9412 76.0645 19.5823 76.6086 19.3225C77.1533 19.0502 77.7776 18.9141 78.4827 18.9141C79.1878 18.9141 79.8127 19.0502 80.3568 19.3225C80.9015 19.5823 81.3591 19.9412 81.7301 20.3991C82.1011 20.857 82.3792 21.3892 82.565 21.9956C82.7629 22.5896 82.8622 23.2269 82.8622 23.9076C82.8622 24.5882 82.7629 25.2318 82.565 25.8382C82.3792 26.4447 82.1011 26.9768 81.7301 27.4346C81.3591 27.8802 80.9015 28.2391 80.3568 28.5114C79.8127 28.7713 79.1878 28.9012 78.4827 28.9012C77.7776 28.9012 77.1533 28.7713 76.6086 28.5114C76.0645 28.2391 75.607 27.8802 75.236 27.4346C74.865 26.9768 74.5799 26.4447 74.382 25.8382C74.1968 25.2318 74.1039 24.5882 74.1039 23.9076ZM74.809 23.9076C74.809 24.4769 74.8892 25.0276 75.0502 25.5598C75.2112 26.0796 75.446 26.5436 75.7552 26.952C76.0645 27.3604 76.4482 27.6884 76.9058 27.9359C77.3633 28.171 77.889 28.2886 78.4827 28.2886C79.0764 28.2886 79.6027 28.171 80.0602 27.9359C80.5178 27.6884 80.9015 27.3604 81.2108 26.952C81.5194 26.5436 81.7549 26.0796 81.9159 25.5598C82.0763 25.0276 82.1571 24.4769 82.1571 23.9076C82.1571 23.3384 82.0763 22.7938 81.9159 22.274C81.7549 21.7419 81.5194 21.2716 81.2108 20.8632C80.9015 20.4548 80.5178 20.1331 80.0602 19.8979C79.6027 19.6504 79.0764 19.5267 78.4827 19.5267C77.889 19.5267 77.3633 19.6504 76.9058 19.8979C76.4482 20.1331 76.0645 20.4548 75.7552 20.8632C75.446 21.2716 75.2112 21.7419 75.0502 22.274C74.8892 22.7938 74.809 23.3384 74.809 23.9076Z" fill="black"/>
<path d="M85.2206 21.253H85.276C85.3625 20.9436 85.5171 20.6528 85.7399 20.3805C85.9753 20.1083 86.2534 19.8731 86.5748 19.6751C86.9089 19.4771 87.2741 19.3286 87.67 19.2296C88.0779 19.1182 88.4985 19.0687 88.9312 19.0811V19.7865C88.5602 19.737 88.1339 19.7741 87.6515 19.8979C87.1812 20.0216 86.7294 20.2939 86.2967 20.7147C86.1236 20.9003 85.969 21.0797 85.8328 21.253C85.7093 21.4262 85.6037 21.6181 85.5171 21.8285C85.4306 22.0389 85.3625 22.274 85.3135 22.5339C85.2639 22.7938 85.2327 23.1032 85.2206 23.462V28.6784H84.5155V19.1368H85.2206V21.253Z" fill="black"/>
<path d="M95.6442 26.785H95.6073C95.496 27.0696 95.335 27.3419 95.125 27.6017C94.915 27.8492 94.6547 28.072 94.3454 28.27C94.0489 28.468 93.7084 28.6227 93.3253 28.7341C92.9416 28.8455 92.521 28.9012 92.0634 28.9012C91.0491 28.9012 90.2638 28.6846 89.707 28.2515C89.1502 27.806 88.8721 27.1253 88.8721 26.2095C88.8721 25.6526 88.9834 25.2009 89.2062 24.8544C89.4289 24.4955 89.707 24.217 90.0411 24.019C90.3872 23.8086 90.7646 23.6601 91.1725 23.5735C91.5932 23.4868 91.9953 23.425 92.3791 23.3878L93.4736 23.295C93.9808 23.2579 94.3766 23.2022 94.6611 23.128C94.9583 23.0413 95.181 22.9299 95.3292 22.7938C95.4775 22.6453 95.5704 22.4597 95.6073 22.2369C95.6443 22.0142 95.6633 21.7357 95.6633 21.4015C95.6633 21.1417 95.6137 20.9003 95.5144 20.6776C95.4158 20.4548 95.2612 20.2568 95.0505 20.0836C94.8405 19.9103 94.5682 19.7742 94.2341 19.6752C93.9006 19.5762 93.4921 19.5267 93.0097 19.5267C92.1563 19.5267 91.4633 19.737 90.9313 20.1578C90.4121 20.5786 90.1276 21.2159 90.078 22.0698H89.3729C89.4225 21.0179 89.7566 20.2321 90.3752 19.7123C91.0058 19.1801 91.8967 18.9141 93.0466 18.9141C94.1972 18.9141 95.0321 19.143 95.552 19.6009C96.084 20.0464 96.3493 20.6343 96.3493 21.3644V26.9149C96.3493 27.051 96.3493 27.1872 96.3493 27.3233C96.3621 27.4594 96.3869 27.5832 96.4238 27.6945C96.4607 27.806 96.5231 27.8987 96.6096 27.973C96.6962 28.0349 96.8196 28.0658 96.9806 28.0658C97.1041 28.0658 97.2772 28.0473 97.4999 28.0101V28.6041C97.3147 28.6537 97.1225 28.6784 96.9246 28.6784C96.6402 28.6784 96.4117 28.6413 96.2386 28.567C96.0776 28.4928 95.9535 28.3938 95.867 28.27C95.7804 28.1463 95.7187 28.0039 95.6818 27.8431C95.657 27.6698 95.6442 27.4842 95.6442 27.2862V26.785ZM95.6442 23.2579C95.4712 23.4683 95.2052 23.6106 94.8469 23.6849C94.5001 23.7591 94.1106 23.8148 93.6779 23.8519L92.4904 23.9633C92.1436 24.0004 91.7974 24.0561 91.4512 24.1304C91.1044 24.1922 90.7894 24.3037 90.505 24.4645C90.2326 24.6254 90.0099 24.8481 89.8368 25.1328C89.6637 25.4051 89.5772 25.7639 89.5772 26.2095C89.5772 26.9149 89.7999 27.4409 90.2447 27.7874C90.6902 28.1215 91.3023 28.2886 92.0819 28.2886C92.8862 28.2886 93.5232 28.1463 93.9929 27.8616C94.4632 27.5646 94.8221 27.2305 95.0696 26.8592C95.3165 26.4756 95.4712 26.1105 95.5335 25.7639C95.6073 25.4051 95.6442 25.1637 95.6442 25.04V23.2579Z" fill="black"/>
<path d="M98.6135 19.1368H99.3186V21.086H99.3555C99.43 20.789 99.5598 20.5105 99.745 20.2506C99.9308 19.9784 100.154 19.7432 100.413 19.5452C100.686 19.3472 100.982 19.1925 101.304 19.0811C101.638 18.9698 101.984 18.9141 102.343 18.9141C102.801 18.9141 103.197 18.9759 103.531 19.0997C103.864 19.2111 104.149 19.3658 104.384 19.5638C104.619 19.7494 104.805 19.966 104.941 20.2135C105.076 20.4486 105.169 20.69 105.219 20.9375H105.256C105.54 20.2692 105.918 19.768 106.388 19.4338C106.87 19.0873 107.501 18.9141 108.281 18.9141C108.713 18.9141 109.109 18.9821 109.468 19.1183C109.839 19.242 110.155 19.44 110.414 19.7123C110.687 19.9722 110.897 20.3063 111.046 20.7147C111.194 21.1231 111.268 21.6057 111.268 22.1627V28.6784H110.563V22.1441C110.563 21.5377 110.47 21.0612 110.284 20.7147C110.099 20.3682 109.877 20.1083 109.616 19.9351C109.369 19.7494 109.115 19.638 108.856 19.6009C108.608 19.5514 108.417 19.5267 108.281 19.5267C107.848 19.5267 107.446 19.6009 107.075 19.7494C106.716 19.8979 106.4 20.1207 106.128 20.4177C105.868 20.7147 105.664 21.086 105.516 21.5315C105.367 21.9646 105.293 22.4658 105.293 23.0351V28.6784H104.588V22.1441C104.588 21.5501 104.495 21.0798 104.31 20.7333C104.137 20.3744 103.927 20.1083 103.679 19.9351C103.444 19.7618 103.197 19.6504 102.937 19.6009C102.689 19.5514 102.492 19.5267 102.343 19.5267C102.009 19.5267 101.662 19.5947 101.304 19.7309C100.945 19.867 100.617 20.0774 100.32 20.362C100.024 20.6466 99.7825 21.0117 99.5967 21.4573C99.4115 21.9028 99.3186 22.4287 99.3186 23.0351V28.6784H98.6135V19.1368Z" fill="black"/>
<path d="M119.69 26.785H119.653C119.542 27.0696 119.381 27.3419 119.171 27.6017C118.96 27.8492 118.7 28.072 118.391 28.27C118.094 28.468 117.754 28.6227 117.37 28.7341C116.987 28.8455 116.567 28.9012 116.109 28.9012C115.095 28.9012 114.309 28.6846 113.753 28.2515C113.196 27.806 112.918 27.1253 112.918 26.2095C112.918 25.6526 113.028 25.2009 113.251 24.8544C113.474 24.4955 113.753 24.217 114.086 24.019C114.433 23.8086 114.81 23.6601 115.218 23.5735C115.639 23.4868 116.041 23.425 116.424 23.3878L117.519 23.295C118.026 23.2579 118.422 23.2022 118.707 23.128C119.003 23.0413 119.226 22.9299 119.375 22.7938C119.523 22.6453 119.616 22.4597 119.653 22.2369C119.69 22.0142 119.708 21.7357 119.708 21.4015C119.708 21.1417 119.659 20.9003 119.56 20.6776C119.461 20.4548 119.307 20.2568 119.096 20.0836C118.886 19.9103 118.614 19.7742 118.28 19.6752C117.946 19.5762 117.538 19.5267 117.055 19.5267C116.202 19.5267 115.509 19.737 114.977 20.1578C114.458 20.5786 114.173 21.2159 114.124 22.0698H113.418C113.468 21.0179 113.802 20.2321 114.42 19.7123C115.051 19.1801 115.942 18.9141 117.092 18.9141C118.243 18.9141 119.078 19.143 119.597 19.6009C120.129 20.0464 120.395 20.6343 120.395 21.3644V26.9149C120.395 27.051 120.395 27.1872 120.395 27.3233C120.408 27.4594 120.432 27.5832 120.469 27.6945C120.506 27.806 120.568 27.8987 120.655 27.973C120.741 28.0349 120.865 28.0658 121.026 28.0658C121.15 28.0658 121.323 28.0473 121.545 28.0101V28.6041C121.36 28.6537 121.168 28.6784 120.97 28.6784C120.686 28.6784 120.457 28.6413 120.284 28.567C120.123 28.4928 119.999 28.3938 119.913 28.27C119.826 28.1463 119.764 28.0039 119.727 27.8431C119.703 27.6698 119.69 27.4842 119.69 27.2862V26.785ZM119.69 23.2579C119.517 23.4683 119.251 23.6106 118.892 23.6849C118.546 23.7591 118.156 23.8148 117.723 23.8519L116.535 23.9633C116.189 24.0004 115.843 24.0561 115.497 24.1304C115.15 24.1922 114.835 24.3037 114.55 24.4645C114.278 24.6254 114.055 24.8481 113.882 25.1328C113.709 25.4051 113.623 25.7639 113.623 26.2095C113.623 26.9149 113.845 27.4409 114.29 27.7874C114.736 28.1215 115.348 28.2886 116.127 28.2886C116.931 28.2886 117.568 28.1463 118.038 27.8616C118.509 27.5646 118.868 27.2305 119.115 26.8592C119.362 26.4756 119.517 26.1105 119.578 25.7639C119.653 25.4051 119.69 25.1637 119.69 25.04V23.2579Z" fill="black"/>
</g>
<defs>
<clipPath id="clip0_2155_219">
<rect width="114.545" height="14" fill="white" transform="translate(7 15)"/>
</clipPath>
</defs>
</svg>
