<svg width="180" height="65" viewBox="0 0 180 65" fill="none" xmlns="http://www.w3.org/2000/svg">
<g clip-path="url(#clip0_2155_216)">
<path d="M43.9081 22.6837V26.3817H49.1136V42.2796H53.0504V26.3817H58.2439V22.6837H43.9081Z" fill="black"/>
<path fill-rule="evenodd" clip-rule="evenodd" d="M41.3292 31.8217C42.4743 30.9068 43.1333 29.5164 43.116 28.0524C43.116 26.3817 42.6454 25.05 41.6092 24.1284C40.5728 23.2069 39.0898 22.6837 37.166 22.6837H28.0714V30.05L30.9362 32.2557L28.0714 34.4674V42.2796H37.6544C41.4364 42.2796 43.8605 40.0025 43.8605 36.4592C43.97 34.5583 42.9887 32.7604 41.3292 31.8217ZM32.038 26.2866H37.166C38.4644 26.2866 39.2804 27.0298 39.2804 28.2605C39.2895 28.8156 39.0669 29.3495 38.6658 29.7341C38.2646 30.1187 37.7213 30.3193 37.166 30.2878H32.0439L32.038 26.2866ZM32.0439 38.647H37.166V38.653C38.3811 38.653 39.8521 38.2427 39.8521 36.2688C39.8521 34.7409 38.8635 33.8908 37.0767 33.8908H32.0439V38.647Z" fill="black"/>
<path d="M15.1173 33.2487C14.6973 33.2462 14.3248 32.9792 14.1882 32.5828C14.1457 32.481 14.1234 32.3719 14.1227 32.2617C14.1209 32.155 14.1433 32.0494 14.1882 31.9526C14.3174 31.5524 14.6902 31.2811 15.1113 31.2807H25.963C25.7673 30.0665 25.1992 28.9427 24.337 28.0643L24.2894 28.0108L22.9255 26.6374L22.8719 26.5958L18.2799 22L8 32.2557L18.274 42.5175L22.8481 37.9336L22.9255 37.8623L24.2894 36.4948L24.3549 36.4235C25.2019 35.5467 25.7608 34.433 25.957 33.2308L15.1173 33.2487Z" fill="#007BC6"/>
<path d="M65.5682 22.6362H74.0293C74.5859 22.6362 75.1983 22.7011 75.8663 22.8311C76.5528 22.961 77.1836 23.2302 77.7588 23.6386C78.3527 24.0284 78.8443 24.5946 79.234 25.3371C79.6236 26.0611 79.8185 27.0171 79.8185 28.2052C79.8185 29.9502 79.2804 31.296 78.2042 32.2428C77.128 33.1895 75.5879 33.6628 73.584 33.6628H66.7928V42.5176H65.5682V22.6362ZM66.7928 32.6047H73.7789C74.6694 32.6047 75.421 32.4748 76.0333 32.2149C76.6642 31.9364 77.1651 31.5837 77.5362 31.1568C77.9074 30.7298 78.1764 30.2565 78.3434 29.7367C78.5103 29.2169 78.5939 28.6971 78.5939 28.1773C78.5939 27.8061 78.5382 27.3698 78.4268 26.8686C78.3155 26.3489 78.0928 25.8569 77.7588 25.3928C77.4249 24.9102 76.9518 24.5111 76.3394 24.1955C75.7457 23.8614 74.9478 23.6943 73.9458 23.6943H66.7928V32.6047Z" fill="black"/>
<path d="M90.4657 39.6774H90.4101C90.2431 40.1043 90.0018 40.5127 89.6864 40.9026C89.371 41.2738 88.9813 41.608 88.5175 41.9049C88.0721 42.202 87.5619 42.434 86.9867 42.6011C86.4115 42.7681 85.7806 42.8517 85.094 42.8517C83.5726 42.8517 82.3943 42.5268 81.5593 41.8772C80.7243 41.2089 80.3069 40.1879 80.3069 38.8142C80.3069 37.9788 80.4738 37.3013 80.8078 36.7815C81.1418 36.2431 81.5593 35.8254 82.0603 35.5285C82.5798 35.2129 83.1458 34.9901 83.7581 34.8602C84.389 34.7302 84.992 34.6374 85.5672 34.5817L87.2093 34.4425C87.9701 34.3868 88.5639 34.3032 88.9906 34.1919C89.436 34.0619 89.77 33.8949 89.9926 33.6907C90.2153 33.4679 90.3544 33.1895 90.4101 32.8553C90.4657 32.5212 90.4936 32.1035 90.4936 31.6022C90.4936 31.2124 90.4193 30.8505 90.2709 30.5163C90.1225 30.1822 89.8905 29.8852 89.5751 29.6253C89.2597 29.3654 88.8515 29.1612 88.3505 29.0127C87.8495 28.8642 87.2372 28.7899 86.5135 28.7899C85.2332 28.7899 84.1942 29.1055 83.3963 29.7367C82.617 30.3678 82.1902 31.3238 82.1159 32.6047H81.0583C81.1326 31.0268 81.6335 29.848 82.5613 29.0684C83.5076 28.2701 84.8436 27.871 86.5692 27.871C88.2948 27.871 89.5473 28.2145 90.3266 28.9013C91.1245 29.5696 91.5234 30.4514 91.5234 31.5466V39.8723C91.5234 40.0765 91.5234 40.2807 91.5234 40.4849C91.542 40.689 91.579 40.8747 91.6347 41.0417C91.6904 41.2089 91.7832 41.3481 91.913 41.4594C92.0429 41.5522 92.2285 41.5987 92.4697 41.5987C92.6553 41.5987 92.915 41.5708 93.249 41.5151V42.4062C92.9707 42.4804 92.6831 42.5176 92.3862 42.5176C91.9594 42.5176 91.6162 42.4619 91.3564 42.3505C91.1152 42.2391 90.9296 42.0906 90.7997 41.9049C90.6698 41.7194 90.577 41.5058 90.5214 41.2645C90.4843 41.0046 90.4657 40.7262 90.4657 40.4292V39.6774ZM90.4657 34.3868C90.206 34.7024 89.807 34.9158 89.2689 35.0272C88.7494 35.1386 88.1649 35.2222 87.5155 35.2778L85.7342 35.445C85.2147 35.5006 84.6951 35.5841 84.1756 35.6955C83.656 35.7883 83.1829 35.9554 82.7562 36.1967C82.3479 36.4381 82.0139 36.7721 81.7542 37.1991C81.4943 37.6076 81.3645 38.1458 81.3645 38.8142C81.3645 39.8723 81.6985 40.6613 82.3665 41.181C83.0344 41.6822 83.953 41.9328 85.1219 41.9328C86.328 41.9328 87.2836 41.7194 87.9887 41.2924C88.6937 40.8468 89.2319 40.3457 89.6029 39.7887C89.974 39.2133 90.206 38.6657 90.2988 38.1458C90.4101 37.6076 90.4657 37.2455 90.4657 37.0599V34.3868Z" fill="black"/>
<path d="M94.8911 28.2052H95.9488V31.2681H96.0045C96.19 30.7298 96.4498 30.2564 96.7838 29.848C97.1363 29.4211 97.5352 29.0591 97.9806 28.7621C98.4444 28.4651 98.9454 28.2423 99.4835 28.0938C100.022 27.9453 100.569 27.871 101.126 27.871C101.961 27.871 102.666 27.9731 103.241 28.1773C103.834 28.3815 104.317 28.6507 104.688 28.9848C105.059 29.319 105.346 29.6995 105.551 30.1265C105.774 30.5349 105.932 30.9526 106.024 31.3795C106.117 31.8065 106.173 32.2241 106.191 32.6326C106.209 33.0224 106.219 33.3658 106.219 33.6628V42.5176H105.161V33.4679C105.161 33.1152 105.134 32.6697 105.078 32.1313C105.022 31.593 104.855 31.0825 104.577 30.5998C104.317 30.0986 103.909 29.6717 103.352 29.319C102.814 28.9663 102.063 28.7899 101.098 28.7899C100.281 28.7899 99.5577 28.9384 98.9268 29.2354C98.296 29.5325 97.7579 29.9501 97.3126 30.4885C96.8672 31.0083 96.524 31.6394 96.2827 32.3819C96.0601 33.1059 95.9488 33.9041 95.9488 34.7766V42.5176H94.8911V28.2052Z" fill="black"/>
<path d="M108.656 35.3613C108.656 34.3403 108.795 33.3844 109.073 32.4933C109.37 31.5837 109.798 30.7855 110.354 30.0986C110.911 29.4118 111.597 28.8735 112.413 28.4836C113.23 28.0752 114.166 27.871 115.224 27.871C116.282 27.871 117.219 28.0752 118.035 28.4836C118.852 28.8735 119.539 29.4118 120.095 30.0986C120.652 30.7855 121.069 31.5837 121.348 32.4933C121.644 33.3844 121.793 34.3403 121.793 35.3613C121.793 36.3823 121.644 37.3476 121.348 38.2572C121.069 39.1669 120.652 39.9651 120.095 40.6519C119.539 41.3202 118.852 41.8585 118.035 42.267C117.219 42.6568 116.282 42.8517 115.224 42.8517C114.166 42.8517 113.23 42.6568 112.413 42.267C111.597 41.8585 110.911 41.3202 110.354 40.6519C109.798 39.9651 109.37 39.1669 109.073 38.2572C108.795 37.3476 108.656 36.3823 108.656 35.3613ZM109.714 35.3613C109.714 36.2153 109.834 37.0413 110.075 37.8396C110.317 38.6193 110.669 39.3153 111.133 39.928C111.597 40.5406 112.172 41.0325 112.859 41.4038C113.545 41.7565 114.334 41.9328 115.224 41.9328C116.115 41.9328 116.904 41.7565 117.59 41.4038C118.277 41.0325 118.852 40.5406 119.316 39.928C119.779 39.3153 120.132 38.6193 120.374 37.8396C120.614 37.0413 120.736 36.2153 120.736 35.3613C120.736 34.5075 120.614 33.6907 120.374 32.911C120.132 32.1127 119.779 31.4074 119.316 30.7948C118.852 30.1822 118.277 29.6995 117.59 29.3468C116.904 28.9756 116.115 28.7899 115.224 28.7899C114.334 28.7899 113.545 28.9756 112.859 29.3468C112.172 29.6995 111.597 30.1822 111.133 30.7948C110.669 31.4074 110.317 32.1127 110.075 32.911C109.834 33.6907 109.714 34.5075 109.714 35.3613Z" fill="black"/>
<path d="M125.331 31.3796H125.414C125.544 30.9155 125.776 30.4792 126.11 30.0708C126.463 29.6624 126.88 29.3097 127.362 29.0127C127.863 28.7157 128.411 28.493 129.005 28.3444C129.617 28.1774 130.248 28.1031 130.897 28.1217V29.1798C130.34 29.1055 129.701 29.1612 128.977 29.3469C128.272 29.5325 127.594 29.9409 126.945 30.572C126.685 30.8505 126.453 31.1197 126.249 31.3796C126.064 31.6394 125.905 31.9272 125.776 32.2428C125.646 32.5584 125.544 32.9111 125.47 33.3009C125.396 33.6907 125.349 34.1548 125.331 34.6931V42.5176H124.273V28.2052H125.331V31.3796Z" fill="black"/>
<path d="M140.966 39.6774H140.911C140.744 40.1043 140.502 40.5127 140.187 40.9026C139.872 41.2738 139.482 41.608 139.018 41.9049C138.573 42.202 138.063 42.434 137.488 42.6011C136.912 42.7681 136.281 42.8517 135.595 42.8517C134.073 42.8517 132.896 42.5268 132.06 41.8772C131.225 41.2089 130.808 40.1879 130.808 38.8142C130.808 37.9788 130.975 37.3013 131.309 36.7815C131.643 36.2431 132.06 35.8254 132.561 35.5285C133.081 35.2129 133.647 34.9901 134.259 34.8602C134.89 34.7302 135.493 34.6374 136.068 34.5817L137.71 34.4425C138.471 34.3868 139.065 34.3032 139.491 34.1919C139.937 34.0619 140.271 33.8949 140.494 33.6907C140.716 33.4679 140.856 33.1895 140.911 32.8553C140.966 32.5212 140.995 32.1035 140.995 31.6022C140.995 31.2124 140.92 30.8505 140.772 30.5163C140.624 30.1822 140.392 29.8852 140.076 29.6253C139.761 29.3654 139.352 29.1612 138.851 29.0127C138.351 28.8642 137.738 28.7899 137.014 28.7899C135.734 28.7899 134.695 29.1055 133.897 29.7367C133.118 30.3678 132.691 31.3238 132.617 32.6047H131.559C131.634 31.0268 132.135 29.848 133.063 29.0684C134.009 28.2701 135.345 27.871 137.07 27.871C138.796 27.871 140.048 28.2145 140.828 28.9013C141.626 29.5696 142.024 30.4514 142.024 31.5466V39.8723C142.024 40.0765 142.024 40.2807 142.024 40.4849C142.043 40.689 142.08 40.8747 142.136 41.0417C142.191 41.2089 142.284 41.3481 142.414 41.4594C142.544 41.5522 142.729 41.5987 142.971 41.5987C143.156 41.5987 143.416 41.5708 143.75 41.5151V42.4062C143.472 42.4804 143.184 42.5176 142.887 42.5176C142.46 42.5176 142.117 42.4619 141.858 42.3505C141.616 42.2391 141.43 42.0906 141.3 41.9049C141.171 41.7194 141.078 41.5058 141.023 41.2645C140.985 41.0046 140.966 40.7262 140.966 40.4292V39.6774ZM140.966 34.3868C140.707 34.7024 140.308 34.9158 139.77 35.0272C139.25 35.1386 138.666 35.2222 138.017 35.2778L136.236 35.445C135.715 35.5006 135.196 35.5841 134.677 35.6955C134.157 35.7883 133.684 35.9554 133.257 36.1967C132.849 36.4381 132.515 36.7721 132.255 37.1991C131.995 37.6076 131.866 38.1458 131.866 38.8142C131.866 39.8723 132.2 40.6613 132.867 41.181C133.535 41.6822 134.453 41.9328 135.623 41.9328C136.829 41.9328 137.785 41.7194 138.489 41.2924C139.195 40.8468 139.733 40.3457 140.104 39.7887C140.475 39.2133 140.707 38.6657 140.8 38.1458C140.911 37.6076 140.966 37.2455 140.966 37.0599V34.3868Z" fill="black"/>
<path d="M145.42 28.2052H146.478V31.1289H146.533C146.645 30.6834 146.84 30.2657 147.117 29.8759C147.396 29.4675 147.73 29.1148 148.12 28.8178C148.528 28.5208 148.973 28.2887 149.456 28.1216C149.956 27.9546 150.476 27.871 151.014 27.871C151.701 27.871 152.295 27.9638 152.796 28.1495C153.296 28.3165 153.724 28.5486 154.076 28.8456C154.428 29.1241 154.707 29.4489 154.911 29.8202C155.115 30.1729 155.254 30.5349 155.328 30.9062H155.384C155.81 29.9037 156.376 29.1519 157.082 28.6507C157.805 28.1309 158.751 27.871 159.921 27.871C160.57 27.871 161.163 27.9731 161.702 28.1773C162.258 28.363 162.732 28.66 163.121 29.0684C163.53 29.4582 163.845 29.9594 164.068 30.572C164.291 31.1846 164.401 31.9086 164.401 32.744V42.5176H163.344V32.7161C163.344 31.8065 163.205 31.0918 162.927 30.572C162.649 30.0522 162.315 29.6624 161.924 29.4025C161.554 29.1241 161.173 28.957 160.784 28.9013C160.412 28.827 160.125 28.7899 159.921 28.7899C159.272 28.7899 158.668 28.9013 158.112 29.1241C157.573 29.3468 157.1 29.681 156.692 30.1265C156.302 30.572 155.997 31.1289 155.773 31.7972C155.551 32.4469 155.44 33.1987 155.44 34.0527V42.5176H154.382V32.7161C154.382 31.825 154.243 31.1196 153.964 30.5998C153.705 30.0615 153.39 29.6624 153.018 29.4025C152.666 29.1426 152.295 28.9756 151.905 28.9013C151.534 28.827 151.237 28.7899 151.014 28.7899C150.514 28.7899 149.993 28.892 149.456 29.0962C148.918 29.3004 148.426 29.616 147.98 30.0429C147.535 30.4699 147.174 31.0175 146.895 31.6859C146.617 32.3541 146.478 33.1431 146.478 34.0527V42.5176H145.42V28.2052Z" fill="black"/>
<path d="M177.035 39.6774H176.979C176.812 40.1043 176.571 40.5127 176.256 40.9026C175.94 41.2738 175.55 41.608 175.087 41.9049C174.642 42.202 174.131 42.434 173.555 42.6011C172.981 42.7681 172.35 42.8517 171.664 42.8517C170.142 42.8517 168.963 42.5268 168.129 41.8772C167.294 41.2089 166.876 40.1879 166.876 38.8142C166.876 37.9788 167.043 37.3013 167.377 36.7815C167.711 36.2431 168.129 35.8254 168.629 35.5285C169.149 35.2129 169.715 34.9901 170.327 34.8602C170.958 34.7302 171.561 34.6374 172.136 34.5817L173.779 34.4425C174.54 34.3868 175.133 34.3032 175.56 34.1919C176.005 34.0619 176.339 33.8949 176.562 33.6907C176.785 33.4679 176.924 33.1895 176.979 32.8553C177.035 32.5212 177.062 32.1035 177.062 31.6022C177.062 31.2124 176.989 30.8505 176.84 30.5163C176.692 30.1822 176.46 29.8852 176.144 29.6253C175.829 29.3654 175.421 29.1612 174.919 29.0127C174.418 28.8642 173.806 28.7899 173.083 28.7899C171.803 28.7899 170.763 29.1055 169.965 29.7367C169.186 30.3678 168.76 31.3238 168.685 32.6047H167.628C167.702 31.0268 168.202 29.848 169.13 29.0684C170.077 28.2701 171.412 27.871 173.138 27.871C174.864 27.871 176.116 28.2145 176.895 28.9013C177.693 29.5696 178.092 30.4514 178.092 31.5466V39.8723C178.092 40.0765 178.092 40.2807 178.092 40.4849C178.111 40.689 178.149 40.8747 178.204 41.0417C178.259 41.2089 178.352 41.3481 178.482 41.4594C178.612 41.5522 178.798 41.5987 179.039 41.5987C179.224 41.5987 179.484 41.5708 179.818 41.5151V42.4062C179.539 42.4804 179.252 42.5176 178.955 42.5176C178.529 42.5176 178.185 42.4619 177.925 42.3505C177.685 42.2391 177.499 42.0906 177.369 41.9049C177.239 41.7194 177.146 41.5058 177.091 41.2645C177.054 41.0046 177.035 40.7262 177.035 40.4292V39.6774ZM177.035 34.3868C176.775 34.7024 176.376 34.9158 175.838 35.0272C175.318 35.1386 174.734 35.2222 174.084 35.2778L172.303 35.445C171.784 35.5006 171.265 35.5841 170.745 35.6955C170.225 35.7883 169.753 35.9554 169.325 36.1967C168.917 36.4381 168.583 36.7721 168.324 37.1991C168.064 37.6076 167.934 38.1458 167.934 38.8142C167.934 39.8723 168.267 40.6613 168.935 41.181C169.604 41.6822 170.522 41.9328 171.691 41.9328C172.897 41.9328 173.852 41.7194 174.558 41.2924C175.263 40.8468 175.801 40.3457 176.172 39.7887C176.543 39.2133 176.775 38.6657 176.868 38.1458C176.979 37.6076 177.035 37.2455 177.035 37.0599V34.3868Z" fill="black"/>
</g>
<defs>
<clipPath id="clip0_2155_216">
<rect width="171.818" height="21" fill="white" transform="translate(8 22)"/>
</clipPath>
</defs>
</svg>
