<svg width="180" height="65" viewBox="0 0 180 65" fill="none" xmlns="http://www.w3.org/2000/svg">
<g clip-path="url(#clip0_2155_214)">
<path d="M38.9081 22.6837V26.3817H44.1136V42.2796H48.0504V26.3817H53.2439V22.6837H38.9081Z" fill="black"/>
<path fill-rule="evenodd" clip-rule="evenodd" d="M36.3292 31.8217C37.4743 30.9068 38.1333 29.5164 38.116 28.0524C38.116 26.3817 37.6454 25.05 36.6092 24.1284C35.5728 23.2069 34.0898 22.6837 32.166 22.6837H23.0714V30.05L25.9362 32.2557L23.0714 34.4674V42.2796H32.6544C36.4364 42.2796 38.8605 40.0025 38.8605 36.4592C38.97 34.5583 37.9887 32.7604 36.3292 31.8217ZM27.038 26.2866H32.166C33.4644 26.2866 34.2804 27.0298 34.2804 28.2605C34.2895 28.8156 34.0669 29.3495 33.6658 29.7341C33.2646 30.1187 32.7213 30.3193 32.166 30.2878H27.0439L27.038 26.2866ZM27.0439 38.647H32.166V38.653C33.3811 38.653 34.8521 38.2427 34.8521 36.2688C34.8521 34.7409 33.8635 33.8908 32.0767 33.8908H27.0439V38.647Z" fill="black"/>
<path d="M10.1173 33.2487C9.69735 33.2462 9.32478 32.9792 9.18818 32.5828C9.1457 32.481 9.12345 32.3719 9.12266 32.2617C9.12087 32.155 9.14327 32.0494 9.18818 31.9526C9.31735 31.5524 9.69022 31.2811 10.1113 31.2807H20.963C20.7673 30.0665 20.1992 28.9427 19.337 28.0643L19.2894 28.0108L17.9255 26.6374L17.8719 26.5958L13.2799 22L3 32.2557L13.274 42.5175L17.8481 37.9336L17.9255 37.8623L19.2894 36.4948L19.3549 36.4235C20.2019 35.5467 20.7608 34.433 20.957 33.2308L10.1173 33.2487Z" fill="#007BC6"/>
<path d="M60.5682 22.6362H69.0293C69.5859 22.6362 70.1983 22.7011 70.8663 22.8311C71.5528 22.961 72.1836 23.2302 72.7588 23.6386C73.3527 24.0284 73.8443 24.5946 74.234 25.3371C74.6236 26.0611 74.8185 27.0171 74.8185 28.2052C74.8185 29.9502 74.2804 31.296 73.2042 32.2428C72.128 33.1895 70.5879 33.6628 68.584 33.6628H61.7928V42.5176H60.5682V22.6362ZM61.7928 32.6047H68.7789C69.6694 32.6047 70.421 32.4748 71.0333 32.2149C71.6642 31.9364 72.1651 31.5837 72.5362 31.1568C72.9074 30.7298 73.1764 30.2565 73.3434 29.7367C73.5103 29.2169 73.5939 28.6971 73.5939 28.1773C73.5939 27.8061 73.5382 27.3698 73.4268 26.8686C73.3155 26.3489 73.0928 25.8569 72.7588 25.3928C72.4249 24.9102 71.9518 24.5111 71.3394 24.1955C70.7457 23.8614 69.9478 23.6943 68.9458 23.6943H61.7928V32.6047Z" fill="black"/>
<path d="M85.4657 39.6774H85.4101C85.2431 40.1043 85.0018 40.5127 84.6864 40.9026C84.371 41.2738 83.9813 41.608 83.5175 41.9049C83.0721 42.202 82.5619 42.434 81.9867 42.6011C81.4115 42.7681 80.7806 42.8517 80.094 42.8517C78.5726 42.8517 77.3943 42.5268 76.5593 41.8772C75.7243 41.2089 75.3069 40.1879 75.3069 38.8142C75.3069 37.9788 75.4738 37.3013 75.8078 36.7815C76.1418 36.2431 76.5593 35.8254 77.0603 35.5285C77.5798 35.2129 78.1458 34.9901 78.7581 34.8602C79.389 34.7302 79.992 34.6374 80.5672 34.5817L82.2093 34.4425C82.9701 34.3868 83.5639 34.3032 83.9906 34.1919C84.436 34.0619 84.77 33.8949 84.9926 33.6907C85.2153 33.4679 85.3544 33.1895 85.4101 32.8553C85.4657 32.5212 85.4936 32.1035 85.4936 31.6022C85.4936 31.2124 85.4193 30.8505 85.2709 30.5163C85.1225 30.1822 84.8905 29.8852 84.5751 29.6253C84.2597 29.3654 83.8515 29.1612 83.3505 29.0127C82.8495 28.8642 82.2372 28.7899 81.5135 28.7899C80.2332 28.7899 79.1942 29.1055 78.3963 29.7367C77.617 30.3678 77.1902 31.3238 77.1159 32.6047H76.0583C76.1326 31.0268 76.6335 29.848 77.5613 29.0684C78.5076 28.2701 79.8436 27.871 81.5692 27.871C83.2948 27.871 84.5473 28.2145 85.3266 28.9013C86.1245 29.5696 86.5234 30.4514 86.5234 31.5466V39.8723C86.5234 40.0765 86.5234 40.2807 86.5234 40.4849C86.542 40.689 86.579 40.8747 86.6347 41.0417C86.6904 41.2089 86.7832 41.3481 86.913 41.4594C87.0429 41.5522 87.2285 41.5987 87.4697 41.5987C87.6553 41.5987 87.915 41.5708 88.249 41.5151V42.4062C87.9707 42.4804 87.6831 42.5176 87.3862 42.5176C86.9594 42.5176 86.6162 42.4619 86.3564 42.3505C86.1152 42.2391 85.9296 42.0906 85.7997 41.9049C85.6698 41.7194 85.577 41.5058 85.5214 41.2645C85.4843 41.0046 85.4657 40.7262 85.4657 40.4292V39.6774ZM85.4657 34.3868C85.206 34.7024 84.807 34.9158 84.2689 35.0272C83.7494 35.1386 83.1649 35.2222 82.5155 35.2778L80.7342 35.445C80.2147 35.5006 79.6951 35.5841 79.1756 35.6955C78.656 35.7883 78.1829 35.9554 77.7562 36.1967C77.3479 36.4381 77.0139 36.7721 76.7542 37.1991C76.4943 37.6076 76.3645 38.1458 76.3645 38.8142C76.3645 39.8723 76.6985 40.6613 77.3665 41.181C78.0344 41.6822 78.953 41.9328 80.1219 41.9328C81.328 41.9328 82.2836 41.7194 82.9887 41.2924C83.6937 40.8468 84.2319 40.3457 84.6029 39.7887C84.974 39.2133 85.206 38.6657 85.2988 38.1458C85.4101 37.6076 85.4657 37.2455 85.4657 37.0599V34.3868Z" fill="black"/>
<path d="M89.8911 28.2052H90.9488V31.2681H91.0045C91.19 30.7298 91.4498 30.2564 91.7838 29.848C92.1363 29.4211 92.5352 29.0591 92.9806 28.7621C93.4444 28.4651 93.9454 28.2423 94.4835 28.0938C95.0216 27.9453 95.569 27.871 96.1256 27.871C96.9607 27.871 97.6657 27.9731 98.2409 28.1773C98.8344 28.3815 99.3174 28.6507 99.6878 28.9848C100.059 29.319 100.346 29.6995 100.551 30.1265C100.774 30.5349 100.932 30.9526 101.024 31.3795C101.117 31.8065 101.173 32.2241 101.191 32.6326C101.209 33.0224 101.219 33.3658 101.219 33.6628V42.5176H100.161V33.4679C100.161 33.1152 100.134 32.6697 100.078 32.1313C100.022 31.593 99.8548 31.0825 99.5771 30.5998C99.3174 30.0986 98.9089 29.6717 98.3522 29.319C97.8141 28.9663 97.0627 28.7899 96.0978 28.7899C95.2814 28.7899 94.5577 28.9384 93.9268 29.2354C93.296 29.5325 92.7579 29.9501 92.3126 30.4885C91.8672 31.0083 91.524 31.6394 91.2827 32.3819C91.0601 33.1059 90.9488 33.9041 90.9488 34.7766V42.5176H89.8911V28.2052Z" fill="black"/>
<path d="M103.656 35.3613C103.656 34.3403 103.795 33.3844 104.073 32.4933C104.37 31.5837 104.798 30.7855 105.354 30.0986C105.911 29.4118 106.597 28.8735 107.413 28.4836C108.23 28.0752 109.166 27.871 110.224 27.871C111.282 27.871 112.219 28.0752 113.035 28.4836C113.852 28.8735 114.539 29.4118 115.095 30.0986C115.652 30.7855 116.069 31.5837 116.348 32.4933C116.644 33.3844 116.793 34.3403 116.793 35.3613C116.793 36.3823 116.644 37.3476 116.348 38.2572C116.069 39.1669 115.652 39.9651 115.095 40.6519C114.539 41.3202 113.852 41.8585 113.035 42.267C112.219 42.6568 111.282 42.8517 110.224 42.8517C109.166 42.8517 108.23 42.6568 107.413 42.267C106.597 41.8585 105.911 41.3202 105.354 40.6519C104.798 39.9651 104.37 39.1669 104.073 38.2572C103.795 37.3476 103.656 36.3823 103.656 35.3613ZM104.714 35.3613C104.714 36.2153 104.834 37.0413 105.075 37.8396C105.317 38.6193 105.669 39.3153 106.133 39.928C106.597 40.5406 107.172 41.0325 107.859 41.4038C108.545 41.7565 109.334 41.9328 110.224 41.9328C111.115 41.9328 111.904 41.7565 112.59 41.4038C113.277 41.0325 113.852 40.5406 114.316 39.928C114.779 39.3153 115.132 38.6193 115.374 37.8396C115.614 37.0413 115.736 36.2153 115.736 35.3613C115.736 34.5075 115.614 33.6907 115.374 32.911C115.132 32.1127 114.779 31.4074 114.316 30.7948C113.852 30.1822 113.277 29.6995 112.59 29.3468C111.904 28.9756 111.115 28.7899 110.224 28.7899C109.334 28.7899 108.545 28.9756 107.859 29.3468C107.172 29.6995 106.597 30.1822 106.133 30.7948C105.669 31.4074 105.317 32.1127 105.075 32.911C104.834 33.6907 104.714 34.5075 104.714 35.3613Z" fill="black"/>
<path d="M120.331 31.3796H120.414C120.544 30.9155 120.776 30.4792 121.11 30.0708C121.463 29.6624 121.88 29.3097 122.362 29.0127C122.863 28.7157 123.411 28.493 124.005 28.3444C124.617 28.1774 125.248 28.1031 125.897 28.1217V29.1798C125.34 29.1055 124.701 29.1612 123.977 29.3469C123.272 29.5325 122.594 29.9409 121.945 30.572C121.685 30.8505 121.453 31.1197 121.249 31.3796C121.064 31.6394 120.905 31.9272 120.776 32.2428C120.646 32.5584 120.544 32.9111 120.47 33.3009C120.396 33.6907 120.349 34.1548 120.331 34.6931V42.5176H119.273V28.2052H120.331V31.3796Z" fill="black"/>
<path d="M135.966 39.6774H135.911C135.744 40.1043 135.502 40.5127 135.187 40.9026C134.872 41.2738 134.482 41.608 134.018 41.9049C133.573 42.202 133.063 42.434 132.488 42.6011C131.912 42.7681 131.281 42.8517 130.595 42.8517C129.073 42.8517 127.896 42.5268 127.06 41.8772C126.225 41.2089 125.808 40.1879 125.808 38.8142C125.808 37.9788 125.975 37.3013 126.309 36.7815C126.643 36.2431 127.06 35.8254 127.561 35.5285C128.081 35.2129 128.647 34.9901 129.259 34.8602C129.89 34.7302 130.493 34.6374 131.068 34.5817L132.71 34.4425C133.471 34.3868 134.065 34.3032 134.491 34.1919C134.937 34.0619 135.271 33.8949 135.494 33.6907C135.716 33.4679 135.856 33.1895 135.911 32.8553C135.966 32.5212 135.995 32.1035 135.995 31.6022C135.995 31.2124 135.92 30.8505 135.772 30.5163C135.624 30.1822 135.392 29.8852 135.076 29.6253C134.761 29.3654 134.352 29.1612 133.851 29.0127C133.351 28.8642 132.738 28.7899 132.014 28.7899C130.734 28.7899 129.695 29.1055 128.897 29.7367C128.118 30.3678 127.691 31.3238 127.617 32.6047H126.559C126.634 31.0268 127.135 29.848 128.063 29.0684C129.009 28.2701 130.345 27.871 132.07 27.871C133.796 27.871 135.048 28.2145 135.828 28.9013C136.626 29.5696 137.024 30.4514 137.024 31.5466V39.8723C137.024 40.0765 137.024 40.2807 137.024 40.4849C137.043 40.689 137.08 40.8747 137.136 41.0417C137.191 41.2089 137.284 41.3481 137.414 41.4594C137.544 41.5522 137.729 41.5987 137.971 41.5987C138.156 41.5987 138.416 41.5708 138.75 41.5151V42.4062C138.472 42.4804 138.184 42.5176 137.887 42.5176C137.46 42.5176 137.117 42.4619 136.858 42.3505C136.616 42.2391 136.43 42.0906 136.3 41.9049C136.171 41.7194 136.078 41.5058 136.023 41.2645C135.985 41.0046 135.966 40.7262 135.966 40.4292V39.6774ZM135.966 34.3868C135.707 34.7024 135.308 34.9158 134.77 35.0272C134.25 35.1386 133.666 35.2222 133.017 35.2778L131.236 35.445C130.715 35.5006 130.196 35.5841 129.677 35.6955C129.157 35.7883 128.684 35.9554 128.257 36.1967C127.849 36.4381 127.515 36.7721 127.255 37.1991C126.995 37.6076 126.866 38.1458 126.866 38.8142C126.866 39.8723 127.2 40.6613 127.867 41.181C128.535 41.6822 129.453 41.9328 130.623 41.9328C131.829 41.9328 132.785 41.7194 133.489 41.2924C134.195 40.8468 134.733 40.3457 135.104 39.7887C135.475 39.2133 135.707 38.6657 135.8 38.1458C135.911 37.6076 135.966 37.2455 135.966 37.0599V34.3868Z" fill="black"/>
<path d="M140.42 28.2052H141.478V31.1289H141.533C141.645 30.6834 141.84 30.2657 142.117 29.8759C142.396 29.4675 142.73 29.1148 143.12 28.8178C143.528 28.5208 143.973 28.2887 144.456 28.1216C144.956 27.9546 145.476 27.871 146.014 27.871C146.701 27.871 147.295 27.9638 147.796 28.1495C148.296 28.3165 148.724 28.5486 149.076 28.8456C149.428 29.1241 149.707 29.4489 149.911 29.8202C150.115 30.1729 150.254 30.5349 150.328 30.9062H150.384C150.81 29.9037 151.376 29.1519 152.082 28.6507C152.805 28.1309 153.751 27.871 154.921 27.871C155.57 27.871 156.163 27.9731 156.702 28.1773C157.258 28.363 157.732 28.66 158.121 29.0684C158.53 29.4582 158.845 29.9594 159.068 30.572C159.291 31.1846 159.401 31.9086 159.401 32.744V42.5176H158.344V32.7161C158.344 31.8065 158.205 31.0918 157.927 30.572C157.649 30.0522 157.315 29.6624 156.924 29.4025C156.554 29.1241 156.173 28.957 155.784 28.9013C155.412 28.827 155.125 28.7899 154.921 28.7899C154.272 28.7899 153.668 28.9013 153.112 29.1241C152.573 29.3468 152.1 29.681 151.692 30.1265C151.302 30.572 150.997 31.1289 150.773 31.7972C150.551 32.4469 150.44 33.1987 150.44 34.0527V42.5176H149.382V32.7161C149.382 31.825 149.243 31.1196 148.964 30.5998C148.705 30.0615 148.39 29.6624 148.018 29.4025C147.666 29.1426 147.295 28.9756 146.905 28.9013C146.534 28.827 146.237 28.7899 146.014 28.7899C145.514 28.7899 144.993 28.892 144.456 29.0962C143.918 29.3004 143.426 29.616 142.98 30.0429C142.535 30.4699 142.174 31.0175 141.895 31.6859C141.617 32.3541 141.478 33.1431 141.478 34.0527V42.5176H140.42V28.2052Z" fill="black"/>
<path d="M172.035 39.6774H171.979C171.812 40.1043 171.571 40.5127 171.256 40.9026C170.94 41.2738 170.55 41.608 170.087 41.9049C169.642 42.202 169.131 42.434 168.555 42.6011C167.981 42.7681 167.35 42.8517 166.664 42.8517C165.142 42.8517 163.963 42.5268 163.129 41.8772C162.294 41.2089 161.876 40.1879 161.876 38.8142C161.876 37.9788 162.043 37.3013 162.377 36.7815C162.711 36.2431 163.129 35.8254 163.629 35.5285C164.149 35.2129 164.715 34.9901 165.327 34.8602C165.958 34.7302 166.561 34.6374 167.136 34.5817L168.779 34.4425C169.54 34.3868 170.133 34.3032 170.56 34.1919C171.005 34.0619 171.339 33.8949 171.562 33.6907C171.785 33.4679 171.924 33.1895 171.979 32.8553C172.035 32.5212 172.062 32.1035 172.062 31.6022C172.062 31.2124 171.989 30.8505 171.84 30.5163C171.692 30.1822 171.46 29.8852 171.144 29.6253C170.829 29.3654 170.421 29.1612 169.919 29.0127C169.418 28.8642 168.806 28.7899 168.083 28.7899C166.803 28.7899 165.763 29.1055 164.965 29.7367C164.186 30.3678 163.76 31.3238 163.685 32.6047H162.628C162.702 31.0268 163.202 29.848 164.13 29.0684C165.077 28.2701 166.412 27.871 168.138 27.871C169.864 27.871 171.116 28.2145 171.895 28.9013C172.693 29.5696 173.092 30.4514 173.092 31.5466V39.8723C173.092 40.0765 173.092 40.2807 173.092 40.4849C173.111 40.689 173.149 40.8747 173.204 41.0417C173.259 41.2089 173.352 41.3481 173.482 41.4594C173.612 41.5522 173.798 41.5987 174.039 41.5987C174.224 41.5987 174.484 41.5708 174.818 41.5151V42.4062C174.539 42.4804 174.252 42.5176 173.955 42.5176C173.529 42.5176 173.185 42.4619 172.925 42.3505C172.685 42.2391 172.499 42.0906 172.369 41.9049C172.239 41.7194 172.146 41.5058 172.091 41.2645C172.054 41.0046 172.035 40.7262 172.035 40.4292V39.6774ZM172.035 34.3868C171.775 34.7024 171.376 34.9158 170.838 35.0272C170.318 35.1386 169.734 35.2222 169.084 35.2778L167.303 35.445C166.784 35.5006 166.265 35.5841 165.745 35.6955C165.225 35.7883 164.753 35.9554 164.325 36.1967C163.917 36.4381 163.583 36.7721 163.324 37.1991C163.064 37.6076 162.934 38.1458 162.934 38.8142C162.934 39.8723 163.267 40.6613 163.935 41.181C164.604 41.6822 165.522 41.9328 166.691 41.9328C167.897 41.9328 168.852 41.7194 169.558 41.2924C170.263 40.8468 170.801 40.3457 171.172 39.7887C171.543 39.2133 171.775 38.6657 171.868 38.1458C171.979 37.6076 172.035 37.2455 172.035 37.0599V34.3868Z" fill="black"/>
</g>
<defs>
<clipPath id="clip0_2155_214">
<rect width="171.818" height="21" fill="white" transform="translate(3 22)"/>
</clipPath>
</defs>
</svg>
