<svg width="59" height="60" viewBox="0 0 59 60" fill="none" xmlns="http://www.w3.org/2000/svg">
<g clip-path="url(#clip0_822_248)">
<path d="M32.1152 6.85128C26.289 9.51202 22.3497 14.6063 22.3497 20.4555C22.3497 27.8366 29.1487 33.8209 37.5351 33.8209C41.3843 33.8209 44.0911 32.9319 47.2555 31.0282C47.5916 30.8272 47.9707 30.6754 48.2188 30.9905C48.3612 31.1707 48.3016 31.3895 48.1927 31.5895C44.7361 37.9309 37.7026 42.3403 29.8094 42.3403C18.1466 42.3403 8.69214 32.8858 8.69214 21.223C8.69214 14.5633 11.7749 8.62406 16.5916 4.75286C20.2105 1.845 29.2796 1.44395 32.1152 6.85128Z" fill="url(#paint0_linear_822_248)"/>
<path d="M47.9487 15.0282C47.9487 22.0429 41.2492 27.7288 32.9853 27.7288C31.7832 27.7288 28.5267 27.5633 26.1968 26.4785C25.534 26.1696 25.6021 25.7822 26.0576 25.5937C27.1162 25.157 35.4209 23.5633 35.4209 15.0272C35.4209 6.49107 26.6073 0.250235 16.5916 4.75076C20.2094 1.84291 24.8063 0.103638 29.8094 0.103638C39.6167 0.105732 47.9487 6.78636 47.9487 15.0282Z" fill="#E50056"/>
<path d="M5.27434 47.8241C1.83978 47.8241 0.0010376 49.8911 0.0010376 52.5655V52.6419C0.0010376 55.332 1.45968 57.0953 5.1225 57.0953C7.76648 57.0953 9.54554 56.244 10.3047 54.2377H7.75182C7.37172 54.8911 6.65758 55.2566 5.29004 55.2566C3.42093 55.2566 2.49318 54.5728 2.25025 53.3267H10.4272V52.4C10.4272 49.7539 8.64816 47.8241 5.27434 47.8241ZM2.28062 51.5937C2.58428 50.3623 3.58742 49.6482 5.32041 49.6482C7.00732 49.6482 7.87329 50.2712 8.10156 51.5937H2.28062Z" fill="#1F0038"/>
<path d="M20.7466 45.7267H18.7707C18.7707 46.1215 18.756 46.7602 18.6796 47.1707C18.5424 47.9005 18.3602 48.0545 17.7068 48.1152C17.2963 48.1456 16.8408 48.1455 16.4 48.1455H14.8503V47.7791C14.8503 46.4565 15.1089 46.2136 16.2639 46.2136H17.0293V44.3288H16.0052C13.4827 44.3288 12.6157 45.1801 12.6157 47.688V48.1455H10.5644V50.1194H12.6157V56.8366H14.8345L14.8492 50.1194H18.5267V52.8555C18.5267 55.8189 19.3173 56.8377 22.2199 56.8377H23.8764V54.756H22.8272C21.0335 54.756 20.7455 54.4974 20.7455 52.4764V50.1204H23.8764V48.1466H20.7455V45.7267H20.7466Z" fill="#1F0038"/>
<path d="M30.823 47.8544C29.1204 47.8544 27.8136 48.5539 27.1445 49.7539L26.9508 48.1445H24.956V59.9214H27.2513V55.4534C27.8743 56.4869 29.0146 57.0639 30.7623 57.0639C33.2241 57.0639 35.2607 55.5748 35.2607 52.5801V52.5036C35.2607 49.4806 33.5592 47.8544 30.823 47.8544ZM32.8743 52.5665C32.8743 54.223 32.0084 55.1351 30.0325 55.1351C28.1633 55.1351 27.2052 54.2084 27.2052 52.5518V52.4911C27.2052 50.7738 28.2848 49.755 30.0628 49.755C31.9319 49.755 32.8743 50.6974 32.8743 52.5057V52.5665Z" fill="#1F0038"/>
<path d="M41.3864 47.8241C38.2712 47.8241 36.1581 49.5717 36.1581 52.4901V52.5812C36.1581 55.4231 37.7236 57.0953 41.3403 57.0953C44.8513 57.0953 46.6293 55.3477 46.6293 52.5812V52.4901C46.6293 49.5414 44.5623 47.8241 41.3864 47.8241ZM44.2429 52.5665C44.2429 54.2231 43.377 55.1351 41.3853 55.1351C39.4702 55.1351 38.5435 54.2388 38.5435 52.5665V52.4901C38.5435 50.6964 39.577 49.7539 41.4157 49.7539C43.3005 49.7539 44.2429 50.7267 44.2429 52.4901V52.5665Z" fill="#1F0038"/>
<path d="M52.6785 51.5173C50.4136 51.3654 49.7906 51.2136 49.7906 50.5749C49.7906 50.0429 50.2314 49.5874 51.8576 49.5874C53.2859 49.5874 54.1675 49.9215 54.3654 50.7885H56.8576C56.3864 48.8283 54.8366 47.8251 51.888 47.8251C48.9393 47.8251 47.511 49.0712 47.511 50.7581C47.511 52.5665 49.0304 53.1445 51.7361 53.2963C53.9853 53.4178 54.6848 53.555 54.6848 54.2084C54.6848 54.8471 54.1382 55.2419 52.4963 55.2419C50.8094 55.2419 50.0492 54.8775 49.8063 53.9497H47.1613C47.5414 56.0471 49.1822 57.0953 52.4042 57.0953C55.4586 57.0953 56.9937 55.8492 56.9937 54.1162C56.9948 52.2471 55.688 51.6995 52.6785 51.5173Z" fill="#1F0038"/>
<path d="M57.955 49.7539C57.6785 49.7539 57.4492 49.6743 57.267 49.5162C57.0848 49.3581 56.9948 49.1267 56.9948 48.824V48.779C56.9948 48.6827 57.0052 48.5916 57.0272 48.5068C57.0492 48.4219 57.0796 48.3445 57.1194 48.2743C57.2031 48.1308 57.3162 48.0199 57.4597 47.9413C57.6031 47.8628 57.7644 47.824 57.9445 47.824C58.0345 47.824 58.1194 47.8335 58.2 47.8513C58.2796 47.8691 58.3571 47.8973 58.4304 47.934C58.5738 48.0104 58.689 48.1193 58.7749 48.2617C58.8618 48.4031 58.9047 48.5738 58.9047 48.7738V48.824C58.9047 48.9235 58.8942 49.0167 58.8722 49.1015C58.8502 49.1863 58.8178 49.2628 58.7749 49.3288C58.6911 49.4691 58.578 49.5748 58.4345 49.646C58.2911 49.7183 58.1319 49.7539 57.955 49.7539ZM57.955 49.5947C58.1811 49.5947 58.3675 49.5277 58.512 49.3947C58.6565 49.2617 58.7298 49.068 58.7298 48.8146V48.7842C58.7298 48.5308 58.6555 48.335 58.5078 48.1968C58.3592 48.0586 58.1717 47.9895 57.9455 47.9895C57.7225 47.9895 57.5372 48.0607 57.3906 48.2041C57.244 48.3476 57.1707 48.5424 57.1707 48.7895V48.8146C57.1707 49.0649 57.244 49.2575 57.3906 49.3926C57.5361 49.5267 57.7246 49.5947 57.955 49.5947ZM57.9644 48.9047H57.7591V49.2701H57.5895V48.2848H57.9843C58.1215 48.2848 58.2188 48.311 58.2764 48.3644C58.3351 48.4178 58.3644 48.4879 58.3644 48.5748C58.3644 48.645 58.3476 48.7005 58.3141 48.7424C58.2806 48.7842 58.2304 48.8136 58.1644 48.8303C58.2272 48.8439 58.2722 48.8691 58.2995 48.9057C58.3267 48.9424 58.3393 48.9989 58.3393 49.0753V49.2198C58.3393 49.2303 58.3413 49.2387 58.3445 49.2471C58.3476 49.2555 58.3508 49.2628 58.355 49.2691H58.1801C58.177 49.2659 58.1738 49.2596 58.1728 49.2513C58.1707 49.2429 58.1707 49.2324 58.1707 49.2188V49.0743C58.1707 49.0104 58.1592 48.9664 58.1361 48.9413C58.111 48.9162 58.0544 48.9047 57.9644 48.9047ZM57.9644 48.7591C58.0513 48.7623 58.112 48.7486 58.1466 48.7162C58.1811 48.6848 58.1989 48.6387 58.1989 48.579C58.1989 48.5287 58.1801 48.4911 58.1434 48.467C58.1068 48.4418 58.0503 48.4293 57.9738 48.4293H57.7591V48.7591H57.9644Z" fill="#1F0038"/>
</g>
<defs>
<linearGradient id="paint0_linear_822_248" x1="28.6821" y1="28.1823" x2="20.6012" y2="-13.3906" gradientUnits="userSpaceOnUse">
<stop offset="0.1411" stop-color="#E50056"/>
<stop offset="0.75" stop-color="#1F0038"/>
</linearGradient>
<clipPath id="clip0_822_248">
<rect width="58.9529" height="60" fill="white"/>
</clipPath>
</defs>
</svg>
