<svg width="60" height="61" viewBox="0 0 60 61" fill="none" xmlns="http://www.w3.org/2000/svg">
<g clip-path="url(#clip0_822_246)">
<path d="M32.2136 6.92372C26.3696 9.59255 22.4184 14.7023 22.4184 20.5693C22.4184 27.973 29.238 33.9755 37.65 33.9755C41.5109 33.9755 44.226 33.0838 47.4 31.1743C47.7371 30.9727 48.1174 30.8204 48.3663 31.1365C48.5091 31.3172 48.4493 31.5367 48.34 31.7373C44.873 38.098 37.818 42.5208 29.9008 42.5208C18.2024 42.5208 8.71919 33.0376 8.71919 21.3392C8.71919 14.6592 11.8113 8.70189 16.6427 4.81995C20.2726 1.90218 29.3693 1.49992 32.2136 6.92372Z" fill="url(#paint0_linear_822_246)"/>
<path d="M48.0952 15.1256C48.0952 22.1616 41.3754 27.8648 33.0863 27.8648C31.8806 27.8648 28.6141 27.6988 26.2772 26.6107C25.6123 26.3009 25.6806 25.9123 26.1375 25.7232C27.1993 25.2852 35.5293 23.6867 35.5293 15.1245C35.5293 6.56241 26.6889 0.302562 16.6427 4.81679C20.2715 1.90008 24.8823 0.155518 29.9007 0.155518C39.7379 0.157618 48.0952 6.8586 48.0952 15.1256Z" fill="white"/>
<path d="M5.29093 48.0213C1.84591 48.0213 0.00157118 50.0946 0.00157118 52.7771V52.8538C0.00157118 55.552 1.46465 57.3207 5.13864 57.3207C7.79067 57.3207 9.57515 56.4668 10.3366 54.4544H7.77596C7.3947 55.1098 6.67839 55.4764 5.30669 55.4764C3.43188 55.4764 2.50131 54.7906 2.25764 53.5407H10.4595V52.6112C10.4595 49.957 8.67503 48.0213 5.29093 48.0213ZM2.2881 51.8024C2.59269 50.5673 3.59888 49.8509 5.33714 49.8509C7.02919 49.8509 7.8978 50.4759 8.12677 51.8024H2.2881Z" fill="white"/>
<path d="M20.8104 45.9175H18.8284C18.8284 46.3135 18.8137 46.9542 18.737 47.3659C18.5995 48.098 18.4167 48.2524 17.7613 48.3133C17.3496 48.3438 16.8927 48.3438 16.4505 48.3438H14.8961V47.9762C14.8961 46.6496 15.1555 46.4059 16.314 46.4059H17.0818V44.5154H16.0546C13.5244 44.5154 12.6547 45.3693 12.6547 47.8848V48.3438H10.5971V50.3236H12.6547V57.0613H14.8803L14.895 50.3236H18.5837V53.0681C18.5837 56.0404 19.3767 57.0624 22.2881 57.0624H23.9497V54.9744H22.8973C21.0981 54.9744 20.8093 54.7149 20.8093 52.6878V50.3246H23.9497V48.3448H20.8093V45.9175H20.8104Z" fill="white"/>
<path d="M30.9175 48.0518C29.2097 48.0518 27.8989 48.7534 27.2277 49.957L27.0334 48.3427H25.0326V60.1555H27.3349V55.6739C27.9598 56.7105 29.1036 57.2892 30.8565 57.2892C33.3258 57.2892 35.3687 55.7957 35.3687 52.7918V52.7151C35.3687 49.6829 33.6619 48.0518 30.9175 48.0518ZM32.975 52.7782C32.975 54.4397 32.1064 55.3546 30.1245 55.3546C28.2497 55.3546 27.2886 54.425 27.2886 52.7634V52.7025C27.2886 50.98 28.3715 49.9581 30.1549 49.9581C32.0297 49.9581 32.975 50.9033 32.975 52.7172V52.7782Z" fill="white"/>
<path d="M41.513 48.0213C38.3884 48.0213 36.2688 49.7743 36.2688 52.7015V52.7929C36.2688 55.6434 37.8391 57.3207 41.4668 57.3207C44.9885 57.3207 46.7719 55.5678 46.7719 52.7929V52.7015C46.7719 49.7438 44.6986 48.0213 41.513 48.0213ZM44.3783 52.7782C44.3783 54.4397 43.5097 55.3546 41.512 55.3546C39.591 55.3546 38.6615 54.4555 38.6615 52.7782V52.7015C38.6615 50.9023 39.6981 49.957 41.5425 49.957C43.433 49.957 44.3783 50.9328 44.3783 52.7015V52.7782Z" fill="white"/>
<path d="M52.8395 51.7257C50.5677 51.5734 49.9428 51.4211 49.9428 50.7805C49.9428 50.2469 50.385 49.79 52.0161 49.79C53.4487 49.79 54.3331 50.1251 54.5316 50.9947H57.0313C56.5587 49.0285 55.0042 48.0223 52.0466 48.0223C49.0889 48.0223 47.6563 49.2722 47.6563 50.9643C47.6563 52.7781 49.1803 53.3579 51.8943 53.5102C54.1503 53.632 54.8519 53.7696 54.8519 54.425C54.8519 55.0657 54.3037 55.4617 52.6568 55.4617C50.9647 55.4617 50.2022 55.0962 49.9585 54.1656H47.3055C47.6867 56.2694 49.3326 57.3207 52.5644 57.3207C55.6281 57.3207 57.1679 56.0709 57.1679 54.3326C57.1689 52.4578 55.8581 51.9085 52.8395 51.7257Z" fill="white"/>
<path d="M58.132 49.957C57.8548 49.957 57.6247 49.8772 57.442 49.7186C57.2592 49.56 57.1689 49.3279 57.1689 49.0244V48.9792C57.1689 48.8826 57.1794 48.7912 57.2015 48.7061C57.2235 48.621 57.254 48.5433 57.2939 48.4729C57.3779 48.329 57.4913 48.2177 57.6352 48.1389C57.7791 48.0602 57.9409 48.0213 58.1215 48.0213C58.2119 48.0213 58.2969 48.0308 58.3778 48.0486C58.4576 48.0665 58.5354 48.0948 58.6089 48.1316C58.7528 48.2083 58.8683 48.3175 58.9544 48.4603C59.0416 48.6021 59.0847 48.7733 59.0847 48.9739V49.0244C59.0847 49.1241 59.0742 49.2176 59.0521 49.3027C59.0301 49.3878 58.9975 49.4644 58.9544 49.5306C58.8704 49.6713 58.757 49.7774 58.6131 49.8488C58.4692 49.9213 58.3095 49.957 58.132 49.957ZM58.132 49.7974C58.3589 49.7974 58.5459 49.7302 58.6908 49.5968C58.8357 49.4634 58.9093 49.2691 58.9093 49.0149V48.9844C58.9093 48.7303 58.8347 48.5339 58.6866 48.3952C58.5375 48.2566 58.3495 48.1873 58.1226 48.1873C57.8989 48.1873 57.713 48.2587 57.5659 48.4026C57.4189 48.5465 57.3454 48.7418 57.3454 48.9897V49.0149C57.3454 49.2659 57.4189 49.4592 57.5659 49.5947C57.7119 49.7291 57.901 49.7974 58.132 49.7974ZM58.1415 49.1052H57.9356V49.4718H57.7655V48.4834H58.1614C58.299 48.4834 58.3967 48.5097 58.4545 48.5633C58.5133 48.6168 58.5427 48.6872 58.5427 48.7744C58.5427 48.8447 58.5259 48.9004 58.4923 48.9424C58.4587 48.9844 58.4083 49.0138 58.3421 49.0307C58.4051 49.0443 58.4503 49.0695 58.4776 49.1063C58.5049 49.143 58.5175 49.1998 58.5175 49.2764V49.4214C58.5175 49.4319 58.5196 49.4403 58.5228 49.4487C58.5259 49.4571 58.5291 49.4644 58.5333 49.4707H58.3579C58.3547 49.4676 58.3516 49.4613 58.3505 49.4529C58.3484 49.4445 58.3484 49.434 58.3484 49.4203V49.2754C58.3484 49.2113 58.3369 49.1672 58.3137 49.142C58.2885 49.1168 58.2318 49.1052 58.1415 49.1052ZM58.1415 48.9592C58.2287 48.9624 58.2896 48.9487 58.3242 48.9162C58.3589 48.8847 58.3768 48.8384 58.3768 48.7786C58.3768 48.7282 58.3579 48.6904 58.3211 48.6662C58.2843 48.641 58.2276 48.6284 58.1509 48.6284H57.9356V48.9592H58.1415Z" fill="white"/>
</g>
<defs>
<linearGradient id="paint0_linear_822_246" x1="28.7701" y1="28.3197" x2="20.6646" y2="-13.3798" gradientUnits="userSpaceOnUse">
<stop offset="0.1411" stop-color="white"/>
<stop offset="0.75" stop-color="white" stop-opacity="0"/>
</linearGradient>
<clipPath id="clip0_822_246">
<rect width="60" height="61" fill="white"/>
</clipPath>
</defs>
</svg>
