<svg width="180" height="60" viewBox="0 0 180 60" fill="none" xmlns="http://www.w3.org/2000/svg">
<path d="M33.6225 9.58554C25.2597 13.3654 19.6048 20.6037 19.6048 28.9122C19.6048 39.3983 29.3635 47.8999 41.402 47.8999C46.9274 47.8999 50.8121 46.6367 55.3539 43.9309C55.8378 43.6452 56.3794 43.4304 56.7378 43.8777C56.9429 44.1339 56.8573 44.4453 56.7 44.7291C51.738 53.7391 41.6429 60.002 30.3132 60.002C13.5736 60.002 0.00195312 46.5697 0.00195312 30.002C0.00195312 20.5407 4.42629 12.1021 11.3396 6.60387C16.5345 2.47328 29.5526 1.90177 33.6225 9.58554Z" fill="url(#paint0_linear_822_207)"/>
<path d="M56.3495 21.2028C56.3495 31.1687 46.7343 39.2466 34.871 39.2466C33.1447 39.2466 28.4714 39.0121 25.1263 37.471C24.1745 37.0335 24.2721 36.4817 24.9272 36.2137C26.4464 35.5929 38.3674 33.3286 38.3674 21.2028C38.3674 9.0771 25.7177 0.210909 11.3396 6.60387C16.5325 2.47328 23.1312 0.00201416 30.3132 0.00201416C44.3907 0.00201416 56.3495 9.49292 56.3495 21.2028Z" fill="white"/>
<path d="M77.9276 21.8985C71.3966 21.8985 67.9002 25.7887 67.9002 30.8218V30.9657C67.9002 36.0284 70.6739 39.3471 77.6389 39.3471C82.6665 39.3471 86.0495 37.7449 87.4931 33.9691H82.6387C81.9159 35.1988 80.5579 35.8865 77.9575 35.8865C74.4033 35.8865 72.6391 34.5997 72.1772 32.2545H87.7261V30.5105C87.7241 25.5305 84.3431 21.8985 77.9276 21.8985ZM72.2329 28.9911C72.8103 26.6735 74.7179 25.3295 78.0132 25.3295C81.221 25.3295 82.8676 26.5021 83.3017 28.9911H72.2329Z" fill="white"/>
<path d="M107.347 17.9512H103.59C103.59 18.6942 103.562 19.8963 103.416 20.6688C103.155 22.0424 102.809 22.3321 101.567 22.4464C100.786 22.5035 99.9199 22.5035 99.0816 22.5035H96.1347V21.8138C96.1347 19.3248 96.6265 18.8676 98.8228 18.8676H100.278V15.3203H98.3309C93.5343 15.3203 91.8856 16.9225 91.8856 21.6423V22.5035H87.9849V26.2183H91.8856V38.8603H96.1048L96.1327 26.2183H103.126V31.3677C103.126 36.9448 104.629 38.8623 110.148 38.8623H113.298V34.9406H111.303C107.892 34.9406 107.345 34.4539 107.345 30.6504V26.2163H113.298V22.5015H107.345V17.9512H107.347Z" fill="white"/>
<path d="M126.508 21.9557C123.27 21.9557 120.785 23.2721 119.513 25.5305L119.144 22.5016H115.351V44.6661H119.716V36.2571C120.901 38.2022 123.069 39.288 126.392 39.288C131.073 39.288 134.946 36.4857 134.946 30.8495V30.7056C134.948 25.0162 131.711 21.9557 126.508 21.9557ZM130.41 30.8219C130.41 33.9395 128.764 35.656 125.006 35.656C121.452 35.656 119.63 33.9119 119.63 30.7943V30.68C119.63 27.448 121.683 25.5305 125.064 25.5305C128.618 25.5305 130.41 27.3042 130.41 30.7076V30.8219Z" fill="white"/>
<path d="M146.594 21.8985C140.671 21.8985 136.653 25.1876 136.653 30.6799V30.8514C136.653 36.1999 139.629 39.3471 146.507 39.3471C153.183 39.3471 156.564 36.058 156.564 30.8514V30.6799C156.564 25.1305 152.634 21.8985 146.594 21.8985ZM152.028 30.8218C152.028 33.9395 150.382 35.656 146.594 35.656C142.953 35.656 141.19 33.9691 141.19 30.8218V30.678C141.19 27.3022 143.156 25.5285 146.652 25.5285C150.236 25.5285 152.028 27.3593 152.028 30.678V30.8218Z" fill="white"/>
<path d="M168.067 28.8492C163.76 28.5635 162.575 28.2777 162.575 27.0756C162.575 26.0745 163.414 25.2172 166.506 25.2172C169.222 25.2172 170.898 25.8459 171.275 27.4776H176.014C175.118 23.7884 172.171 21.9005 166.564 21.9005C160.957 21.9005 158.241 24.2456 158.241 27.4204C158.241 30.8239 161.13 31.9117 166.275 32.1974C170.552 32.426 171.882 32.6842 171.882 33.9139C171.882 35.116 170.843 35.859 167.721 35.859C164.513 35.859 163.067 35.1732 162.605 33.4271H157.576C158.298 37.3745 161.419 39.3471 167.545 39.3471C173.353 39.3471 176.273 37.002 176.273 33.7405C176.275 30.2208 173.79 29.1921 168.067 28.8492Z" fill="white"/>
<path d="M178.144 25.493C177.619 25.493 177.182 25.3433 176.836 25.0457C176.49 24.7481 176.318 24.3126 176.318 23.743V23.6583C176.318 23.477 176.338 23.3055 176.38 23.1459C176.422 22.9863 176.48 22.8405 176.555 22.7084C176.715 22.4384 176.93 22.2295 177.202 22.0817C177.475 21.9339 177.782 21.861 178.124 21.861C178.296 21.861 178.457 21.8788 178.61 21.9123C178.761 21.9458 178.909 21.999 179.048 22.0679C179.321 22.2118 179.54 22.4168 179.703 22.6848C179.869 22.9508 179.95 23.272 179.95 23.6485V23.743C179.95 23.9303 179.93 24.1057 179.888 24.2653C179.847 24.4249 179.785 24.5688 179.703 24.6929C179.544 24.957 179.329 25.156 179.056 25.29C178.785 25.4241 178.481 25.493 178.144 25.493ZM178.144 25.1915C178.574 25.1915 178.929 25.0654 179.204 24.8151C179.478 24.5648 179.618 24.2002 179.618 23.7233V23.6662C179.618 23.1893 179.476 22.8208 179.196 22.5606C178.913 22.3005 178.556 22.1704 178.126 22.1704C177.702 22.1704 177.35 22.3044 177.071 22.5744C176.792 22.8444 176.653 23.211 176.653 23.676V23.7233C176.653 24.1943 176.792 24.5569 177.071 24.8112C177.35 25.0634 177.706 25.1915 178.144 25.1915ZM178.164 23.8928H177.774V24.5806H177.451V22.7262H178.202C178.463 22.7262 178.648 22.7754 178.757 22.8759C178.869 22.9764 178.925 23.1085 178.925 23.272C178.925 23.4041 178.893 23.5085 178.829 23.5874C178.765 23.6662 178.67 23.7214 178.544 23.7529C178.664 23.7785 178.75 23.8258 178.801 23.8948C178.851 23.9638 178.877 24.0702 178.877 24.214V24.486C178.877 24.5057 178.881 24.5215 178.887 24.5372C178.893 24.553 178.899 24.5668 178.907 24.5786H178.574C178.568 24.5727 178.562 24.5609 178.56 24.5451C178.556 24.5294 178.556 24.5096 178.556 24.484V24.2121C178.556 24.0919 178.534 24.0091 178.491 23.9618C178.443 23.9165 178.335 23.8928 178.164 23.8928ZM178.164 23.6189C178.329 23.6248 178.445 23.5992 178.511 23.5381C178.576 23.479 178.61 23.3923 178.61 23.2799C178.61 23.1853 178.574 23.1144 178.505 23.0691C178.435 23.0218 178.327 22.9981 178.182 22.9981H177.774V23.6189H178.164Z" fill="white"/>
<defs>
<linearGradient id="paint0_linear_822_207" x1="28.6944" y1="39.8891" x2="17.3235" y2="-19.2159" gradientUnits="userSpaceOnUse">
<stop offset="0.1411" stop-color="white"/>
<stop offset="0.75" stop-color="white" stop-opacity="0"/>
</linearGradient>
</defs>
</svg>
