<svg width="170" height="50" viewBox="0 0 170 50" fill="none" xmlns="http://www.w3.org/2000/svg">
<g clip-path="url(#clip0_2_440)">
<path d="M164 0H6C4.4087 0 2.88258 0.632141 1.75736 1.75736C0.632141 2.88258 0 4.4087 0 6L0 44C0 45.5913 0.632141 47.1174 1.75736 48.2426C2.88258 49.3679 4.4087 50 6 50H164C165.591 50 167.117 49.3679 168.243 48.2426C169.368 47.1174 170 45.5913 170 44V6C170 4.4087 169.368 2.88258 168.243 1.75736C167.117 0.632141 165.591 0 164 0V0Z" fill="#A6A6A6"/>
<path d="M164 1C164.657 1 165.307 1.12933 165.913 1.3806C166.52 1.63188 167.071 2.00017 167.536 2.46447C168 2.92876 168.368 3.47995 168.619 4.08658C168.871 4.69321 169 5.34339 169 6V44C169 45.3261 168.473 46.5979 167.536 47.5355C166.598 48.4732 165.326 49 164 49H6C5.34339 49 4.69321 48.8707 4.08658 48.6194C3.47995 48.3681 2.92876 47.9998 2.46447 47.5355C1.52678 46.5979 1 45.3261 1 44V6C1 4.67392 1.52678 3.40215 2.46447 2.46447C3.40215 1.52678 4.67392 1 6 1H164Z" fill="black"/>
<path d="M59.7 12.9C59.7296 13.3562 59.665 13.8135 59.5102 14.2437C59.3553 14.6738 59.1136 15.0674 58.8 15.4C58.4341 15.7662 57.9966 16.0529 57.5148 16.2422C57.033 16.4315 56.5173 16.5193 56 16.5C54.9612 16.5004 53.9608 16.1073 53.2 15.4C52.8303 15.0367 52.5412 14.5996 52.3517 14.1172C52.1622 13.6347 52.0764 13.1178 52.1 12.6C52.0905 12.0839 52.1827 11.571 52.3715 11.0906C52.5602 10.6102 52.8418 10.1716 53.2 9.8C53.5579 9.41668 53.9917 9.11204 54.4738 8.90545C54.9558 8.69886 55.4756 8.59483 56 8.6C56.5471 8.60256 57.0892 8.7042 57.6 8.9C58.0499 9.08299 58.4581 9.35512 58.8 9.7L58.1 10.4C57.8426 10.0988 57.5192 9.86095 57.1551 9.70487C56.7909 9.54879 56.3956 9.47869 56 9.5C55.2268 9.50671 54.4817 9.79057 53.9 10.3C53.6051 10.5839 53.3727 10.9262 53.2178 11.305C53.0628 11.6838 52.9886 12.0908 53 12.5C52.9886 12.9092 53.0628 13.3162 53.2178 13.695C53.3727 14.0738 53.6051 14.4161 53.9 14.7C54.1751 14.9722 54.504 15.1839 54.8656 15.3216C55.2272 15.4594 55.6136 15.5201 56 15.5C56.7732 15.4933 57.5183 15.2094 58.1 14.7C58.2988 14.5054 58.4549 14.2716 58.5582 14.0133C58.6615 13.755 58.7098 13.478 58.7 13.2H56V12.3H59.7V12.9ZM65.5 9.7H62.1V12.1H65.2V13H62.1V15.4H65.5V16.3H61.1V8.8H65.5V9.7ZM69.6 16.3H68.6V9.7H66.5V8.8H71.7V9.7H69.6V16.3ZM75.5 16.3V8.8H76.5V16.4H75.5V16.3ZM80.8 16.3H79.8V9.7H77.7V8.8H82.9V9.7H80.8V16.3ZM92.7 15.4C92.3423 15.7772 91.9061 16.0712 91.4223 16.2613C90.9385 16.4513 90.4188 16.5328 89.9 16.5C88.8612 16.5004 87.8608 16.1073 87.1 15.4C86.3922 14.6394 85.9987 13.639 85.9987 12.6C85.9987 11.561 86.3922 10.5606 87.1 9.8C87.4614 9.42123 87.8959 9.11972 88.3771 8.91372C88.8584 8.70771 89.3765 8.6015 89.9 8.6015C90.4235 8.6015 90.9416 8.70771 91.4229 8.91372C91.9041 9.11972 92.3386 9.42123 92.7 9.8C93.4078 10.5606 93.8013 11.561 93.8013 12.6C93.8013 13.639 93.4078 14.6394 92.7 15.4ZM87.9 14.7C88.17 14.9791 88.4981 15.1954 88.861 15.3336C89.2239 15.4719 89.6127 15.5287 90 15.5C90.7732 15.4933 91.5183 15.2094 92.1 14.7C92.381 14.4105 92.5975 14.0648 92.7354 13.6856C92.8733 13.3064 92.9294 12.9024 92.9 12.5C92.8763 11.7114 92.5547 10.961 92 10.4C91.73 10.1209 91.4019 9.90462 91.039 9.76638C90.6761 9.62813 90.2873 9.57133 89.9 9.6C89.1268 9.60671 88.3817 9.89057 87.8 10.4C87.2726 11.0105 86.9879 11.7934 87 12.6C86.9787 12.9956 87.0488 13.3909 87.2049 13.7551C87.361 14.1192 87.5988 14.4426 87.9 14.7ZM95.2 16.3V8.8H96.4L100.1 14.7V8.8H101.1V16.4H100.1L96.3 10.2V16.4H95.2V16.3Z" fill="white" stroke="white" stroke-width="0.2" stroke-miterlimit="10"/>
<path d="M85.8 27.4C84.732 27.4 83.6879 27.7167 82.7999 28.3101C81.9119 28.9034 81.2198 29.7468 80.8111 30.7335C80.4023 31.7202 80.2954 32.806 80.5038 33.8535C80.7121 34.901 81.2264 35.8632 81.9816 36.6184C82.7368 37.3736 83.699 37.8879 84.7465 38.0962C85.794 38.3046 86.8798 38.1977 87.8665 37.7889C88.8532 37.3802 89.6966 36.6881 90.2899 35.8001C90.8833 34.9121 91.2 33.868 91.2 32.8C91.2193 32.0856 91.0928 31.3748 90.8282 30.7109C90.5637 30.047 90.1666 29.444 89.6613 28.9387C89.156 28.4334 88.553 28.0363 87.8891 27.7718C87.2252 27.5072 86.5144 27.3807 85.8 27.4ZM85.8 36C85.1574 36.0421 84.517 35.89 83.962 35.5634C83.407 35.2368 82.9631 34.7509 82.6879 34.1687C82.4127 33.5865 82.319 32.9349 82.4189 32.2988C82.5188 31.6626 82.8078 31.0712 83.2482 30.6014C83.6886 30.1316 84.2602 29.8052 84.8886 29.6644C85.517 29.5237 86.1732 29.5753 86.7719 29.8124C87.3706 30.0495 87.8842 30.4612 88.2459 30.994C88.6076 31.5268 88.8006 32.156 88.8 32.8C88.8217 33.6208 88.5188 34.4171 87.9572 35.0162C87.3956 35.6152 86.6205 35.9687 85.8 36ZM74.1 27.4C73.032 27.4 71.988 27.7167 71.0999 28.3101C70.2119 28.9034 69.5198 29.7468 69.1111 30.7335C68.7023 31.7202 68.5954 32.806 68.8038 33.8535C69.0121 34.901 69.5264 35.8632 70.2816 36.6184C71.0368 37.3736 71.999 37.8879 73.0465 38.0962C74.094 38.3046 75.1798 38.1977 76.1665 37.7889C77.1532 37.3802 77.9966 36.6881 78.5899 35.8001C79.1833 34.9121 79.5 33.868 79.5 32.8C79.5026 32.0901 79.3648 31.3867 79.0943 30.7304C78.8239 30.074 78.4262 29.4777 77.9243 28.9757C77.4223 28.4738 76.826 28.0761 76.1696 27.8057C75.5133 27.5352 74.8099 27.3974 74.1 27.4ZM74.1 36C73.4574 36.0421 72.817 35.89 72.262 35.5634C71.707 35.2368 71.2631 34.7509 70.9879 34.1687C70.7127 33.5865 70.619 32.9349 70.7189 32.2988C70.8188 31.6626 71.1078 31.0712 71.5482 30.6014C71.9886 30.1316 72.5602 29.8052 73.1886 29.6644C73.817 29.5237 74.4732 29.5753 75.0719 29.8124C75.6706 30.0495 76.1842 30.4612 76.5459 30.994C76.9076 31.5268 77.1006 32.156 77.1 32.8C77.1217 33.6208 76.8188 34.4171 76.2572 35.0162C75.6956 35.6152 74.9205 35.9687 74.1 36ZM60.1 29V31.3H65.5C65.3873 32.362 64.9707 33.3689 64.3 34.2C63.7608 34.7654 63.1074 35.2095 62.3832 35.5026C61.659 35.7957 60.8807 35.9312 60.1 35.9C58.5087 35.9 56.9826 35.2679 55.8574 34.1426C54.7321 33.0174 54.1 31.4913 54.1 29.9C54.0962 28.7286 54.4354 27.5816 55.0758 26.6007C55.7162 25.6198 56.6297 24.8478 57.7036 24.3799C58.7776 23.9121 59.965 23.7688 61.1194 23.9679C62.2738 24.1669 63.3447 24.6995 64.2 25.5L65.8 23.9C64.2784 22.4105 62.2292 21.5837 60.1 21.6C59.01 21.6 57.9307 21.8147 56.9237 22.2318C55.9167 22.6489 55.0017 23.2603 54.231 24.031C53.4603 24.8017 52.8489 25.7167 52.4318 26.7237C52.0147 27.7307 51.8 28.81 51.8 29.9C51.8 30.99 52.0147 32.0693 52.4318 33.0763C52.8489 34.0833 53.4603 34.9983 54.231 35.769C55.0017 36.5397 55.9167 37.1511 56.9237 37.5682C57.9307 37.9853 59.01 38.2 60.1 38.2C61.1739 38.2438 62.245 38.0617 63.2441 37.6655C64.2432 37.2694 65.148 36.6679 65.9 35.9C67.232 34.4616 67.9497 32.5598 67.9 30.6C67.9202 30.131 67.8867 29.6613 67.8 29.2H60.1V29ZM117.2 30.8C116.885 29.8237 116.271 28.9708 115.446 28.361C114.621 27.7511 113.626 27.4151 112.6 27.4C111.906 27.4031 111.219 27.5472 110.582 27.8235C109.945 28.0998 109.37 28.5027 108.893 29.0076C108.416 29.5125 108.047 30.109 107.808 30.7608C107.568 31.4127 107.463 32.1065 107.5 32.8C107.486 33.9541 107.847 35.0817 108.528 36.0138C109.208 36.9458 110.173 37.6322 111.277 37.97C112.38 38.3079 113.564 38.279 114.65 37.8878C115.735 37.4966 116.665 36.7641 117.3 35.8L115.5 34.6C115.237 35.0563 114.858 35.4352 114.401 35.6986C113.945 35.9619 113.427 36.1003 112.9 36.1C112.356 36.124 111.818 35.9844 111.354 35.6992C110.891 35.4139 110.524 34.9962 110.3 34.5L117.5 31.5L117.2 30.8ZM109.9 32.6C109.869 32.21 109.917 31.8178 110.043 31.4473C110.169 31.0768 110.369 30.736 110.631 30.4456C110.893 30.1553 111.212 29.9217 111.568 29.759C111.924 29.5964 112.309 29.5083 112.7 29.5C113.101 29.4904 113.497 29.5871 113.848 29.7803C114.2 29.9736 114.493 30.2564 114.7 30.6L109.9 32.6ZM104.1 37.7H106.5V22H104.1V37.7ZM100.2 28.6C99.4301 27.8321 98.3874 27.4006 97.3 27.4C95.9376 27.4833 94.6584 28.0833 93.7232 29.0774C92.788 30.0716 92.2673 31.3851 92.2673 32.75C92.2673 34.1149 92.788 35.4284 93.7232 36.4226C94.6584 37.4167 95.9376 38.0167 97.3 38.1C97.8253 38.1115 98.347 38.0103 98.83 37.8033C99.313 37.5963 99.746 37.2883 100.1 36.9H100.2V37.6C100.2 39.6 99.1 40.7 97.3 40.7C96.7135 40.6821 96.145 40.4925 95.6651 40.1548C95.1852 39.8171 94.8149 39.3461 94.6 38.8L92.6 39.7C92.9892 40.6314 93.6406 41.4296 94.475 41.9977C95.3094 42.5658 96.2908 42.8792 97.3 42.9C100.1 42.9 102.4 41.3 102.4 37.3V27.7H100.2V28.6ZM97.5 36C96.6821 35.9358 95.9184 35.5655 95.3615 34.9631C94.8045 34.3607 94.4952 33.5704 94.4952 32.75C94.4952 31.9296 94.8045 31.1393 95.3615 30.5369C95.9184 29.9345 96.6821 29.5642 97.5 29.5C97.9088 29.5215 98.3091 29.6245 98.6775 29.8029C99.0459 29.9814 99.3748 30.2317 99.645 30.5392C99.9152 30.8467 100.121 31.2051 100.251 31.5934C100.381 31.9816 100.431 32.3919 100.4 32.8C100.427 33.2022 100.373 33.6057 100.24 33.9864C100.108 34.3672 99.9004 34.7173 99.6297 35.016C99.3591 35.3147 99.031 35.5558 98.665 35.7248C98.2991 35.8939 97.9029 35.9875 97.5 36ZM128.2 22H122.6V37.7H124.9V31.7H128.2C128.865 31.7267 129.528 31.6205 130.152 31.3875C130.775 31.1544 131.346 30.7993 131.83 30.343C132.314 29.8866 132.703 29.3382 132.972 28.7298C133.242 28.1214 133.387 27.4653 133.4 26.8C133.374 26.1432 133.219 25.498 132.944 24.9011C132.669 24.3043 132.278 23.7676 131.795 23.3218C131.312 22.876 130.746 22.5298 130.129 22.303C129.512 22.0762 128.857 21.9732 128.2 22ZM128.3 29.6H125V24.2H128.3C129.028 24.1919 129.73 24.4706 130.254 24.9759C130.778 25.4811 131.082 26.1723 131.1 26.9C131.046 27.6154 130.731 28.2861 130.215 28.7841C129.699 29.2821 129.017 29.5725 128.3 29.6ZM142.8 27.3C141.94 27.2353 141.081 27.4293 140.333 27.857C139.584 28.2847 138.981 28.9266 138.6 29.7L140.7 30.6C140.891 30.2141 141.193 29.894 141.567 29.6803C141.941 29.4666 142.37 29.369 142.8 29.4C143.396 29.3354 143.994 29.5095 144.463 29.8842C144.931 30.259 145.232 30.8039 145.3 31.4V31.6C144.524 31.2088 143.669 31.0034 142.8 31C140.6 31 138.3 32.2 138.3 34.5C138.318 34.9888 138.433 35.4691 138.641 35.9121C138.848 36.3551 139.142 36.7518 139.506 37.0785C139.87 37.4052 140.297 37.6552 140.759 37.8135C141.222 37.9718 141.712 38.0353 142.2 38C142.789 38.0431 143.378 37.9265 143.906 37.6625C144.434 37.3985 144.881 36.9969 145.2 36.5H145.3V37.7H147.6V31.7C147.6 28.9 145.5 27.3 142.8 27.3ZM142.5 36C141.7 36 140.7 35.6 140.7 34.7C140.7 33.5 142 33 143.2 33C143.932 32.9741 144.658 33.1469 145.3 33.5C145.207 34.1818 144.874 34.8082 144.361 35.2665C143.848 35.7247 143.188 35.9848 142.5 36ZM155.8 27.7L153.1 34.5H153L150.2 27.7H147.7L151.9 37.2L149.5 42.5H152L158.5 27.7H155.8ZM134.7 37.7H137V22H134.7V37.7Z" fill="white"/>
<path d="M13.1 9.5C12.8849 9.74476 12.7209 10.0301 12.6179 10.3393C12.5148 10.6484 12.4747 10.9751 12.5 11.3V39.1C12.4747 39.4249 12.5148 39.7516 12.6179 40.0607C12.7209 40.3699 12.8849 40.6552 13.1 40.9L13.2 41L28.8 25.4V25L13.1 9.5Z" fill="url(#paint0_linear_2_440)"/>
<path d="M34 30.5L28.8 25.3V24.9L34 19.7L34.1 19.8L40.3 23.3C42.1 24.3 42.1 25.9 40.3 26.9L34.1 30.4L34 30.5Z" fill="url(#paint1_linear_2_440)"/>
<path d="M34.2 30.5L28.9 25.2L13.1 40.9C13.4557 41.2132 13.9086 41.3942 14.3822 41.4124C14.8558 41.4307 15.3213 41.285 15.7 41L34.2 30.5Z" fill="url(#paint2_linear_2_440)"/>
<path d="M34.2 19.8L15.8 9.4C15.4213 9.11501 14.9558 8.96934 14.4822 8.98756C14.0086 9.00578 13.5557 9.18676 13.2 9.5L28.9 25.2L34.2 19.8Z" fill="url(#paint3_linear_2_440)"/>
<path opacity="0.2" d="M34 30.4L15.8 40.7C15.4396 40.971 15.0009 41.1175 14.55 41.1175C14.0991 41.1175 13.6604 40.971 13.3 40.7L13.2 40.8L13.3 40.9C13.6604 41.171 14.0991 41.3175 14.55 41.3175C15.0009 41.3175 15.4396 41.171 15.8 40.9L34.2 30.4H34Z" fill="black"/>
<path opacity="0.12" d="M13.1 40.7C12.8849 40.4552 12.7209 40.1699 12.6179 39.8607C12.5148 39.5516 12.4747 39.2249 12.5 38.9V39.1C12.4747 39.4249 12.5148 39.7516 12.6179 40.0607C12.7209 40.3699 12.8849 40.6552 13.1 40.9V40.7ZM40.3 26.8L34 30.4L34.1 30.5L40.3 27C40.6575 26.8431 40.9665 26.5934 41.195 26.277C41.4236 25.9605 41.5634 25.5887 41.6 25.2C41.5338 25.5539 41.3802 25.8857 41.1532 26.1651C40.9262 26.4445 40.6329 26.6628 40.3 26.8Z" fill="black"/>
<path opacity="0.25" d="M15.8 9.6L40.4 23.6C40.7215 23.7539 41.0049 23.9773 41.2297 24.254C41.4545 24.5307 41.6151 24.8538 41.7 25.2C41.6766 24.8075 41.542 24.4297 41.3118 24.111C41.0815 23.7922 40.7653 23.5456 40.4 23.4L15.8 9.4C14 8.4 12.6 9.2 12.6 11.2V11.4C12.6 9.4 14 8.6 15.8 9.6Z" fill="white"/>
</g>
<defs>
<linearGradient id="paint0_linear_2_440" x1="27.46" y1="10.94" x2="6.32" y2="32.08" gradientUnits="userSpaceOnUse">
<stop stop-color="#00A0FF"/>
<stop offset="0.01" stop-color="#00A1FF"/>
<stop offset="0.26" stop-color="#00BEFF"/>
<stop offset="0.51" stop-color="#00D2FF"/>
<stop offset="0.76" stop-color="#00DFFF"/>
<stop offset="1" stop-color="#00E3FF"/>
</linearGradient>
<linearGradient id="paint1_linear_2_440" x1="42.61" y1="25.1" x2="12.14" y2="25.1" gradientUnits="userSpaceOnUse">
<stop stop-color="#FFE000"/>
<stop offset="0.41" stop-color="#FFBD00"/>
<stop offset="0.78" stop-color="#FFA500"/>
<stop offset="1" stop-color="#FF9C00"/>
</linearGradient>
<linearGradient id="paint2_linear_2_440" x1="31.28" y1="28.07" x2="2.62" y2="56.73" gradientUnits="userSpaceOnUse">
<stop stop-color="#FF3A44"/>
<stop offset="1" stop-color="#C31162"/>
</linearGradient>
<linearGradient id="paint3_linear_2_440" x1="9.22" y1="0.170003" x2="22.01" y2="12.96" gradientUnits="userSpaceOnUse">
<stop stop-color="#32A071"/>
<stop offset="0.07" stop-color="#2DA771"/>
<stop offset="0.48" stop-color="#15CF74"/>
<stop offset="0.8" stop-color="#06E775"/>
<stop offset="1" stop-color="#00F076"/>
</linearGradient>
<clipPath id="clip0_2_440">
<rect width="170" height="50" fill="white"/>
</clipPath>
</defs>
</svg>
