<svg width="32" height="32" viewBox="0 0 32 32" fill="none" xmlns="http://www.w3.org/2000/svg">
<g clip-path="url(#clip0_2_441)">
<path d="M30 0H2C0.89543 0 0 0.89543 0 2V30C0 31.1046 0.89543 32 2 32H30C31.1046 32 32 31.1046 32 30V2C32 0.89543 31.1046 0 30 0Z" fill="#DC4E41"/>
<path fill-rule="evenodd" clip-rule="evenodd" d="M12 15V17.4H15.97C15.81 18.43 14.77 20.42 12 20.42C9.61 20.42 7.66 18.44 7.66 16C7.66 13.56 9.61 11.58 12 11.58C13.36 11.58 14.27 12.16 14.79 12.66L16.69 10.83C15.47 9.69 13.89 9 12 9C8.13 9 5 12.13 5 16C5 19.87 8.13 23 12 23C16.04 23 18.72 20.16 18.72 16.16C18.72 15.7 18.67 15.35 18.61 15H12Z" fill="white"/>
<path opacity="0.4" fill-rule="evenodd" clip-rule="evenodd" d="M12 15.12H18.61C18.68 15.45 18.72 15.8 18.72 16.22V16.15C18.72 15.69 18.67 15.34 18.61 14.99H12V15.12ZM12 9.12C13.85 9.12 15.41 9.79 16.61 10.89L16.68 10.82C15.47 9.69 13.89 9 12 9C8.13 9 5 12.13 5 16V16.06C5.04 12.23 8.16 9.12 12 9.12ZM12 20.54C14.77 20.54 15.81 18.56 15.97 17.52H15.94C15.72 18.58 14.67 20.41 12 20.41C9.63 20.41 7.7 18.46 7.67 16.06C7.67 16.08 7.66 16.1 7.66 16.12C7.66 18.56 9.61 20.54 12 20.54Z" fill="white"/>
<g opacity="0.1">
<path opacity="0.1" fill-rule="evenodd" clip-rule="evenodd" d="M12 11.58C9.61 11.58 7.66 13.56 7.66 16C7.66 16.02 7.67 16.04 7.67 16.06C7.7 13.65 9.63 11.71 12 11.71C13.36 11.71 14.27 12.29 14.79 12.79L16.69 10.96C16.67 10.94 16.64 10.92 16.62 10.9L14.79 12.67C14.27 12.17 13.36 11.58 12 11.58ZM12 17.4V17.52H15.94C15.95 17.48 15.96 17.43 15.97 17.4H12Z" fill="#3E2723"/>
<path opacity="0.1" fill-rule="evenodd" clip-rule="evenodd" d="M12 23C8.16 23 5.04 19.9 5 16.06V16.12C5 19.99 8.13 23.12 12 23.12C16.04 23.12 18.72 20.28 18.72 16.28V16.22C18.69 20.19 16.02 23 12 23Z" fill="#3E2723"/>
</g>
<path fill-rule="evenodd" clip-rule="evenodd" d="M27 15H25V13H23V15H21V17H23V19H25V17H27" fill="white"/>
<path opacity="0.4" fill-rule="evenodd" clip-rule="evenodd" d="M25 15H27V15.12H25V15ZM23 13H25V13.12H23V13ZM21 15H23V15.12H21V15Z" fill="white"/>
<path opacity="0.1" fill-rule="evenodd" clip-rule="evenodd" d="M21 17H23V17.12H21V17ZM25 17H27V17.12H25V17ZM23 19H25V19.12H23V19Z" fill="#3E2723"/>
</g>
<defs>
<clipPath id="clip0_2_441">
<rect width="32" height="32" fill="white"/>
</clipPath>
</defs>
</svg>
