<svg width="113" height="60" viewBox="0 0 113 60" fill="none" xmlns="http://www.w3.org/2000/svg">
<g clip-path="url(#clip0_818_25)">
<path d="M82.905 0H30.105C13.605 0 0.105011 13.5 0.105011 30C0.105011 46.5 13.605 60 30.105 60H82.905C99.405 60 112.905 46.5 112.905 30C112.905 13.5 99.405 0 82.905 0Z" fill="white"/>
<path d="M82.905 2.43C86.61 2.43 90.21 3.165 93.6 4.605C96.885 6 99.825 7.995 102.375 10.53C104.91 13.065 106.905 16.02 108.3 19.305C109.74 22.695 110.475 26.295 110.475 30C110.475 33.705 109.74 37.305 108.3 40.695C106.905 43.98 104.91 46.92 102.375 49.47C99.84 52.005 96.885 54 93.6 55.395C90.21 56.835 86.61 57.57 82.905 57.57H30.105C26.4 57.57 22.8 56.835 19.41 55.395C16.125 54 13.185 52.005 10.635 49.47C8.10001 46.935 6.10501 43.98 4.71001 40.695C3.27001 37.305 2.53501 33.705 2.53501 30C2.53501 26.295 3.27001 22.695 4.71001 19.305C6.10501 16.02 8.10001 13.08 10.635 10.53C13.17 7.995 16.125 6 19.41 4.605C22.8 3.165 26.4 2.43 30.105 2.43H82.905ZM82.905 0H30.105C13.605 0 0.105011 13.5 0.105011 30C0.105011 46.5 13.605 60 30.105 60H82.905C99.405 60 112.905 46.5 112.905 30C112.905 13.5 99.405 0 82.905 0Z" fill="#3C4043"/>
<path d="M53.895 32.13V41.205H51.015V18.795H58.65C60.585 18.795 62.235 19.44 63.585 20.73C64.965 22.02 65.655 23.595 65.655 25.455C65.655 27.36 64.965 28.935 63.585 30.21C62.25 31.485 60.6 32.115 58.65 32.115H53.895V32.13ZM53.895 21.555V29.37H58.71C59.85 29.37 60.81 28.98 61.56 28.215C62.325 27.45 62.715 26.52 62.715 25.47C62.715 24.435 62.325 23.52 61.56 22.755C60.81 21.96 59.865 21.57 58.71 21.57H53.895V21.555Z" fill="#3C4043"/>
<path d="M73.185 25.365C75.315 25.365 76.995 25.935 78.225 27.075C79.455 28.215 80.07 29.775 80.07 31.755V41.205H77.325V39.075H77.205C76.02 40.83 74.43 41.7 72.45 41.7C70.755 41.7 69.345 41.205 68.205 40.2C67.065 39.195 66.495 37.95 66.495 36.45C66.495 34.86 67.095 33.6 68.295 32.67C69.495 31.725 71.1 31.26 73.095 31.26C74.805 31.26 76.215 31.575 77.31 32.205V31.545C77.31 30.54 76.92 29.7 76.125 28.995C75.33 28.29 74.4 27.945 73.335 27.945C71.73 27.945 70.455 28.62 69.525 29.985L66.99 28.395C68.385 26.37 70.455 25.365 73.185 25.365ZM69.465 36.495C69.465 37.245 69.78 37.875 70.425 38.37C71.055 38.865 71.805 39.12 72.66 39.12C73.875 39.12 74.955 38.67 75.9 37.77C76.845 36.87 77.325 35.82 77.325 34.605C76.425 33.9 75.18 33.54 73.575 33.54C72.405 33.54 71.43 33.825 70.65 34.38C69.855 34.965 69.465 35.67 69.465 36.495Z" fill="#3C4043"/>
<path d="M95.73 25.86L86.13 47.94H83.16L86.73 40.215L80.4 25.86H83.535L88.095 36.87H88.155L92.595 25.86H95.73Z" fill="#3C4043"/>
<path d="M42.4395 30.3C42.4395 29.361 42.3555 28.4625 42.1995 27.5985H30.1275V32.5485L37.08 32.55C36.798 34.197 35.8905 35.601 34.5 36.537V39.7485H38.6385C41.055 37.512 42.4395 34.206 42.4395 30.3Z" fill="#4285F4"/>
<path d="M34.5015 36.537C33.3495 37.314 31.866 37.7685 30.1305 37.7685C26.778 37.7685 23.934 35.5095 22.9155 32.4645H18.6465V35.7765C20.7615 39.9735 25.1085 42.8535 30.1305 42.8535C33.6015 42.8535 36.5175 41.712 38.64 39.747L34.5015 36.537Z" fill="#34A853"/>
<path d="M22.5135 30.0075C22.5135 29.1525 22.656 28.326 22.9155 27.549V24.237H18.6465C17.772 25.9725 17.28 27.9315 17.28 30.0075C17.28 32.0835 17.7735 34.0425 18.6465 35.778L22.9155 32.466C22.656 31.689 22.5135 30.8625 22.5135 30.0075Z" fill="#FABB05"/>
<path d="M30.1305 22.245C32.025 22.245 33.7215 22.8975 35.061 24.1725L38.7285 20.508C36.501 18.4335 33.597 17.16 30.1305 17.16C25.11 17.16 20.7615 20.04 18.6465 24.237L22.9155 27.549C23.934 24.504 26.778 22.245 30.1305 22.245Z" fill="#E94235"/>
</g>
<defs>
<clipPath id="clip0_818_25">
<rect width="112.95" height="60" fill="white"/>
</clipPath>
</defs>
</svg>
