<svg width="32" height="32" viewBox="0 0 32 32" fill="none" xmlns="http://www.w3.org/2000/svg">
<g clip-path="url(#clip0_2_439)">
<path d="M30 0H2C0.89543 0 0 0.89543 0 2V30C0 31.1046 0.89543 32 2 32H30C31.1046 32 32 31.1046 32 30V2C32 0.89543 31.1046 0 30 0Z" fill="url(#paint0_radial_2_439)"/>
<path d="M12 16C12 13.79 13.79 12 16 12C18.21 12 20 13.79 20 16C20 18.21 18.21 20 16 20C13.79 20 12 18.21 12 16ZM9.84 16C9.84 19.402 12.598 22.16 16 22.16C19.402 22.16 22.16 19.402 22.16 16C22.16 12.598 19.402 9.84 16 9.84C12.598 9.84 9.84 12.598 9.84 16ZM21 9.59C21 10.385 21.645 11.03 22.44 11.03C23.235 11.03 23.88 10.385 23.88 9.59C23.88 8.795 23.235 8.15 22.44 8.15C22.058 8.15 21.692 8.302 21.422 8.572C21.152 8.842 21 9.208 21 9.59ZM11.15 25.77C10.39 25.762 9.634 25.624 8.92 25.36C7.874 24.954 7.046 24.126 6.64 23.08C6.376 22.366 6.238 21.61 6.23 20.85C6.17 19.58 6.16 19.2 6.16 16C6.16 12.8 6.16 12.42 6.23 11.15C6.238 10.39 6.376 9.634 6.64 8.92C7.05 7.878 7.876 7.054 8.92 6.65C9.634 6.386 10.39 6.248 11.15 6.24C12.42 6.18 12.79 6.17 16 6.17C19.21 6.17 19.58 6.17 20.85 6.24C21.61 6.248 22.366 6.386 23.08 6.65C24.126 7.056 24.954 7.884 25.36 8.93C25.624 9.644 25.762 10.4 25.77 11.16C25.83 12.43 25.84 12.8 25.84 16.01C25.84 19.22 25.84 19.59 25.77 20.86C25.762 21.62 25.624 22.376 25.36 23.09C24.954 24.136 24.126 24.964 23.08 25.37C22.366 25.634 21.61 25.772 20.85 25.78C19.58 25.84 19.21 25.85 16 25.85C12.79 25.85 12.42 25.85 11.15 25.78V25.77ZM11.05 4.08C10.055 4.1 9.07 4.29 8.14 4.64C6.53 5.262 5.256 6.532 4.63 8.14C4.28 9.07 4.09 10.055 4.07 11.05C4 12.33 4 12.74 4 16C4 19.26 4 19.67 4.07 20.95C4.09 21.945 4.28 22.93 4.63 23.86C5.254 25.472 6.528 26.746 8.14 27.37C9.07 27.72 10.055 27.91 11.05 27.93C12.33 28 12.74 28 16 28C19.26 28 19.67 28 20.95 27.93C21.945 27.91 22.93 27.72 23.86 27.37C25.472 26.746 26.746 25.472 27.37 23.86C27.72 22.93 27.91 21.945 27.93 20.95C28 19.67 28 19.26 28 16C28 12.74 28 12.33 27.93 11.05C27.91 10.055 27.72 9.07 27.37 8.14C26.746 6.528 25.472 5.254 23.86 4.63C22.93 4.28 21.945 4.09 20.95 4.07C19.67 4 19.26 4 16 4C12.74 4 12.33 4 11.05 4.07" fill="white"/>
</g>
<defs>
<radialGradient id="paint0_radial_2_439" cx="0" cy="0" r="1" gradientUnits="userSpaceOnUse" gradientTransform="translate(29.0847 -21.8201) rotate(-113.962) scale(49.7612 52.6853)">
<stop stop-color="#F9ED65"/>
<stop offset="0.08118" stop-color="#F8E462"/>
<stop offset="0.13824" stop-color="#F7CA59"/>
<stop offset="0.20219" stop-color="#F5A14C"/>
<stop offset="0.301" stop-color="#F16839"/>
<stop offset="0.38409" stop-color="#F0524E"/>
<stop offset="0.47577" stop-color="#EE2A7B"/>
<stop offset="1" stop-color="#002AFF"/>
</radialGradient>
<clipPath id="clip0_2_439">
<rect width="32" height="32" fill="white"/>
</clipPath>
</defs>
</svg>
