<svg width="80" height="50" viewBox="0 0 80 50" fill="none" xmlns="http://www.w3.org/2000/svg">
<g clip-path="url(#clip0_2_437)">
<path d="M0.0078125 50H80.0078V0H0.0078125" fill="black"/>
<path d="M66.8878 31.6V30.94H66.7148L66.5148 31.393L66.3178 30.939H66.1448V31.599H66.2668V31.099L66.4518 31.529H66.5788L66.7648 31.099V31.599H66.8868L66.8878 31.6ZM65.7938 31.6V31.05H66.0138V30.94H65.4518V31.05H65.6718V31.6H65.7938Z" fill="#F89E1B"/>
<path d="M61.0928 44.387C61.0928 45.24 61.6328 45.922 62.5058 45.922C63.3398 45.922 63.8888 45.268 63.8888 44.387C63.8888 43.505 63.3408 42.851 62.5068 42.851C61.6348 42.851 61.0938 43.535 61.0938 44.388L61.0928 44.387ZM64.7628 44.387V46.652H63.8508V46.102C63.5388 46.51 63.0268 46.766 62.3808 46.766C61.1108 46.766 60.1448 45.771 60.1448 44.386C60.1448 43.002 61.1118 42.008 62.3818 42.008C63.0268 42.008 63.5388 42.264 63.8518 42.671V40.3H64.7618V44.387H64.7628ZM51.9458 44.387C51.9458 45.24 52.4858 45.922 53.3588 45.922C54.1938 45.922 54.7428 45.268 54.7428 44.387C54.7428 43.505 54.1928 42.851 53.3598 42.851C52.4878 42.851 51.9478 43.535 51.9478 44.388L51.9458 44.387ZM55.6158 44.387V46.652H54.7038V46.102C54.3918 46.51 53.8798 46.766 53.2338 46.766C51.9638 46.766 50.9978 45.771 50.9978 44.386C50.9978 43.002 51.9648 42.008 53.2348 42.008C53.8798 42.008 54.3918 42.264 54.7048 42.671V42.123H55.6148V44.388L55.6158 44.387ZM66.3258 46.312V46.424H66.4288C66.4528 46.424 66.4718 46.419 66.4858 46.41C66.4998 46.4 66.5058 46.387 66.5058 46.368C66.5058 46.348 66.4998 46.335 66.4858 46.326C66.4718 46.316 66.4528 46.312 66.4298 46.312H66.3298H66.3258ZM66.4298 46.234C66.4838 46.234 66.5248 46.246 66.5538 46.27C66.5838 46.294 66.5968 46.326 66.5968 46.368C66.5968 46.402 66.5848 46.431 66.5618 46.453C66.5388 46.475 66.5058 46.489 66.4618 46.493L66.5998 46.653H66.4928L66.3658 46.495H66.3258V46.652H66.2358V46.234H66.4278H66.4298ZM66.4038 46.794C66.4518 46.794 66.4968 46.786 66.5388 46.768C66.5818 46.748 66.6188 46.724 66.6488 46.693C66.6818 46.661 66.7058 46.623 66.7248 46.583C66.7428 46.539 66.7518 46.493 66.7518 46.445C66.7518 46.395 66.7418 46.351 66.7248 46.308C66.7048 46.265 66.6818 46.228 66.6498 46.198C66.6198 46.165 66.5828 46.14 66.5398 46.122C66.4998 46.104 66.4538 46.095 66.4058 46.095C66.3558 46.095 66.3098 46.105 66.2678 46.122C66.2238 46.14 66.1878 46.165 66.1548 46.197C66.1248 46.227 66.0988 46.265 66.0808 46.307C66.0638 46.351 66.0548 46.397 66.0548 46.445C66.0548 46.493 66.0648 46.539 66.0818 46.582C66.1018 46.624 66.1258 46.662 66.1568 46.692C66.1888 46.724 66.2268 46.749 66.2698 46.768C66.3118 46.786 66.3578 46.795 66.4078 46.795L66.4038 46.794ZM66.4038 45.994C66.4668 45.994 66.5258 46.007 66.5818 46.031C66.6368 46.054 66.6848 46.087 66.7268 46.128C66.7668 46.168 66.7998 46.216 66.8238 46.271C66.8478 46.326 66.8608 46.384 66.8608 46.446C66.8608 46.508 66.8478 46.566 66.8238 46.62C66.7998 46.673 66.7668 46.72 66.7258 46.762C66.6828 46.802 66.6358 46.835 66.5798 46.859C66.5238 46.881 66.4648 46.894 66.4018 46.894C66.3368 46.894 66.2758 46.881 66.2198 46.858C66.1638 46.833 66.1148 46.801 66.0738 46.76C66.0338 46.72 65.9998 46.67 65.9768 46.617C65.9538 46.562 65.9418 46.504 65.9418 46.442C65.9418 46.38 65.9538 46.322 65.9778 46.267C66.0018 46.212 66.0348 46.165 66.0758 46.124C66.1158 46.084 66.1658 46.05 66.2218 46.028C66.2778 46.005 66.3388 45.993 66.4038 45.993V45.994ZM59.1018 42.008C58.5338 42.008 58.1258 42.273 57.8698 42.671V42.123H56.9698V46.653H57.8798V44.103C57.8798 43.353 58.2398 42.871 58.8848 42.871C59.0848 42.871 59.2918 42.899 59.5008 42.985L59.8038 42.132C59.5858 42.048 59.3018 42.01 59.1018 42.01V42.008ZM24.1258 44.388C24.1258 45.24 24.6658 45.922 25.5378 45.922C26.3728 45.922 26.9218 45.268 26.9218 44.387C26.9218 43.505 26.3718 42.851 25.5378 42.851C24.6658 42.851 24.1258 43.535 24.1258 44.388ZM27.7938 44.388V46.652H26.8838V46.102C26.5708 46.51 26.0598 46.766 25.4138 46.766C24.1438 46.766 23.1778 45.771 23.1778 44.386C23.1778 43.002 24.1448 42.008 25.4148 42.008C26.0598 42.008 26.5708 42.264 26.8848 42.671V42.123H27.7948V44.388H27.7938ZM40.0598 42.851C39.3298 42.851 38.8938 43.335 38.8098 43.999H41.2538C41.1878 43.289 40.7338 42.852 40.0598 42.852V42.851ZM40.0798 42.009C41.3498 42.009 42.2018 42.966 42.2098 44.379C42.2098 44.511 42.2018 44.634 42.1918 44.757H38.8078C38.9228 45.572 39.5678 45.933 40.2018 45.933C40.6568 45.933 41.1398 45.763 41.5188 45.459L42.0038 46.132C41.4538 46.597 40.8278 46.768 40.1458 46.768C38.7908 46.768 37.8418 45.82 37.8418 44.378C37.8418 42.968 38.7518 42.01 40.0798 42.01V42.009ZM46.4478 44.389C46.4478 45.762 47.3678 46.767 48.8278 46.767C49.5098 46.767 49.9648 46.615 50.4578 46.227L49.9838 45.517C49.6138 45.781 49.2258 45.923 48.7988 45.923C48.0128 45.913 47.3968 45.298 47.3968 44.388C47.3968 43.478 48.0128 42.861 48.7998 42.852C49.2278 42.852 49.6158 42.995 49.9858 43.262L50.4598 42.55C49.9668 42.16 49.5118 42.01 48.8298 42.01C47.3698 42.01 46.4498 43.014 46.4498 44.39L46.4478 44.389ZM32.7038 42.48C32.2298 42.166 31.5758 42.006 30.8558 42.006C29.7088 42.006 29.0058 42.546 29.0058 43.446C29.0058 44.186 29.5188 44.631 30.5328 44.773L30.9978 44.84C31.5378 44.915 31.8318 45.105 31.8318 45.36C31.8318 45.712 31.4338 45.94 30.7618 45.94C30.0498 45.94 29.5848 45.72 29.2538 45.465L28.7898 46.175C29.4618 46.669 30.2678 46.765 30.7518 46.765C32.0598 46.765 32.7798 46.157 32.7798 45.295C32.7798 44.498 32.2298 44.091 31.2348 43.949L30.7708 43.883C30.3438 43.826 29.9648 43.693 29.9648 43.39C29.9648 43.06 30.3248 42.832 30.8648 42.832C31.4428 42.832 32.0028 43.05 32.2768 43.222L32.7028 42.482L32.7038 42.48ZM45.4138 42.006C44.8468 42.006 44.4388 42.271 44.1838 42.669V42.121H43.2818V46.651H44.1918V44.101C44.1918 43.351 44.5518 42.869 45.1968 42.869C45.3948 42.869 45.6038 42.897 45.8118 42.983L46.1148 42.13C45.8978 42.046 45.6148 42.008 45.4148 42.008L45.4138 42.006ZM37.0078 42.122H35.3578V40.747H34.4378V42.122H33.4808V42.946H34.4388V45.088C34.4388 46.14 34.8088 46.766 35.9748 46.766C36.4018 46.766 36.8948 46.633 37.2078 46.416L36.9218 45.609C36.6278 45.779 36.3058 45.864 36.0498 45.864C35.5568 45.864 35.3578 45.561 35.3578 45.106V42.946H37.0078V42.121V42.122ZM22.2398 46.652V43.8C22.2398 42.728 21.5948 42.017 20.4958 42.008C19.9158 41.998 19.3198 42.178 18.9028 42.813C18.5898 42.311 18.0968 42.008 17.4048 42.008C16.9218 42.008 16.4098 42.14 16.0398 42.671V42.123H15.1298V46.653H16.0498V44.056C16.0498 43.269 16.5238 42.852 17.1968 42.852C17.8498 42.852 18.2198 43.279 18.2198 44.047V46.654H19.1398V44.057C19.1398 43.27 19.6318 42.853 20.2858 42.853C20.9578 42.853 21.3178 43.28 21.3178 44.048V46.655H22.2378L22.2398 46.652Z" fill="white"/>
<path d="M31.6448 34.438H48.0498V7.642H31.6448" fill="#FF5F00"/>
<path d="M33.3378 21.04C33.3378 15.604 35.8848 10.763 39.8478 7.642C36.9478 5.36 33.2918 4 29.3158 4C19.9058 4 12.2758 11.63 12.2758 21.04C12.2758 30.452 19.9058 38.082 29.3158 38.082C33.2918 38.082 36.9488 36.72 39.8478 34.438C35.8848 31.318 33.3378 26.476 33.3378 21.04Z" fill="#EC001B"/>
<path d="M67.4198 21.04C67.4198 30.452 59.7898 38.082 50.3798 38.082C46.4038 38.082 42.7468 36.72 39.8478 34.438C43.8118 31.318 46.3578 26.476 46.3578 21.04C46.3578 15.604 43.8118 10.763 39.8478 7.642C42.7478 5.36 46.4038 4 50.3778 4C59.7898 4 67.4198 11.63 67.4198 21.04Z" fill="#F89E1B"/>
</g>
<defs>
<clipPath id="clip0_2_437">
<rect width="80" height="50" fill="white" transform="translate(0.0078125)"/>
</clipPath>
</defs>
</svg>
