<svg width="160" height="28" viewBox="0 0 160 28" fill="none" xmlns="http://www.w3.org/2000/svg">
<g clip-path="url(#clip0_2_436)">
<path d="M73.4078 14.404C73.4078 12.766 74.4808 11.421 76.2348 11.421C77.9128 11.421 79.0428 12.709 79.0428 14.405C79.0428 16.101 77.9128 17.388 76.2348 17.388C74.4808 17.388 73.4078 16.043 73.4078 14.405V14.404ZM80.9548 14.404V9.744H78.9248V10.874C78.2828 10.036 77.3078 9.509 75.9818 9.509C73.3688 9.509 71.3218 11.556 71.3218 14.403C71.3218 17.25 73.3688 19.297 75.9818 19.297C77.3078 19.297 78.2818 18.77 78.9258 17.932V19.062H80.9558V14.402L80.9548 14.404ZM149.433 14.404C149.433 12.766 150.505 11.421 152.26 11.421C153.937 11.421 155.068 12.709 155.068 14.405C155.068 16.101 153.938 17.388 152.26 17.388C150.505 17.388 149.433 16.043 149.433 14.405V14.404ZM159.247 18.621V18.769H159.382C159.412 18.769 159.437 18.763 159.456 18.751C159.473 18.738 159.482 18.721 159.482 18.695C159.482 18.671 159.472 18.653 159.455 18.64C159.435 18.627 159.41 18.62 159.38 18.62H159.244L159.247 18.621ZM159.383 18.521C159.453 18.521 159.508 18.535 159.546 18.567C159.583 18.597 159.602 18.641 159.602 18.695C159.602 18.74 159.587 18.778 159.557 18.807C159.527 18.837 159.484 18.855 159.427 18.862L159.607 19.07H159.467L159.3 18.864H159.246V19.07H159.128V18.52H159.382L159.383 18.521ZM159.348 19.257C159.413 19.257 159.472 19.245 159.528 19.221C159.582 19.197 159.631 19.164 159.672 19.123C159.714 19.081 159.747 19.033 159.77 18.976C159.794 18.92 159.806 18.86 159.806 18.796C159.806 18.732 159.794 18.673 159.77 18.616C159.747 18.56 159.714 18.512 159.672 18.47C159.632 18.427 159.582 18.395 159.527 18.37C159.471 18.347 159.412 18.336 159.347 18.336C159.283 18.336 159.222 18.346 159.167 18.371C159.109 18.396 159.06 18.428 159.019 18.471C158.977 18.511 158.945 18.561 158.921 18.616C158.898 18.673 158.886 18.732 158.886 18.796C158.886 18.86 158.896 18.92 158.92 18.976C158.944 19.032 158.976 19.081 159.018 19.123C159.058 19.163 159.108 19.197 159.165 19.221C159.22 19.245 159.281 19.257 159.345 19.257H159.348ZM159.348 18.205C159.432 18.205 159.51 18.22 159.583 18.251C159.656 18.281 159.72 18.325 159.775 18.378C159.829 18.432 159.872 18.494 159.905 18.568C159.935 18.638 159.951 18.715 159.951 18.796C159.951 18.878 159.935 18.954 159.904 19.026C159.872 19.096 159.829 19.159 159.774 19.213C159.72 19.267 159.656 19.309 159.584 19.341C159.51 19.371 159.432 19.388 159.349 19.388C159.265 19.388 159.186 19.372 159.111 19.341C159.037 19.309 158.974 19.267 158.921 19.213C158.865 19.159 158.823 19.097 158.791 19.026C158.761 18.954 158.744 18.878 158.744 18.796C158.744 18.716 158.76 18.638 158.791 18.566C158.823 18.494 158.865 18.432 158.921 18.378C158.974 18.325 159.037 18.282 159.111 18.251C159.186 18.221 159.265 18.205 159.351 18.205H159.348ZM156.978 14.405V6H154.951V10.874C154.308 10.036 153.333 9.509 152.007 9.509C149.393 9.509 147.347 11.556 147.347 14.403C147.347 17.25 149.393 19.297 152.007 19.297C153.332 19.297 154.307 18.77 154.95 17.932V19.062H156.978V14.402V14.405ZM106.108 11.325C107.414 11.325 108.252 12.143 108.468 13.585H103.631C103.846 12.24 104.664 11.325 106.107 11.325H106.108ZM106.148 9.51C103.418 9.51 101.506 11.498 101.506 14.404C101.506 17.368 103.496 19.298 106.283 19.298C107.687 19.298 108.973 18.948 110.105 17.991L109.11 16.491C108.33 17.115 107.336 17.466 106.4 17.466C105.094 17.466 103.904 16.862 103.61 15.184H110.533C110.553 14.931 110.573 14.678 110.573 14.404C110.553 11.499 108.759 9.51 106.147 9.51H106.148ZM130.618 14.404C130.618 12.766 131.688 11.421 133.445 11.421C135.121 11.421 136.252 12.709 136.252 14.405C136.252 16.101 135.122 17.388 133.445 17.388C131.689 17.388 130.617 16.043 130.617 14.405L130.618 14.404ZM138.163 14.404V9.744H136.135V10.874C135.492 10.036 134.517 9.509 133.191 9.509C130.578 9.509 128.531 11.556 128.531 14.403C128.531 17.25 130.578 19.297 133.191 19.297C134.517 19.297 135.491 18.77 136.135 17.932V19.062H138.163V14.402V14.404ZM119.173 14.404C119.173 17.231 121.141 19.298 124.143 19.298C125.548 19.298 126.483 18.986 127.497 18.186L126.522 16.548C125.762 17.095 124.962 17.388 124.084 17.388C122.466 17.368 121.276 16.198 121.276 14.404C121.276 12.61 122.466 11.44 124.083 11.421C124.961 11.421 125.76 11.714 126.521 12.261L127.495 10.621C126.48 9.821 125.545 9.511 124.141 9.511C121.138 9.511 119.169 11.577 119.169 14.405L119.173 14.404ZM145.298 9.51C144.13 9.51 143.368 10.056 142.843 10.874V9.744H140.833V19.064H142.863V13.838C142.863 12.298 143.525 11.44 144.851 11.44C145.261 11.44 145.691 11.498 146.119 11.674L146.744 9.764C146.294 9.587 145.71 9.509 145.3 9.509L145.298 9.51ZM90.9778 10.485C90.0008 9.841 88.6558 9.509 87.1738 9.509C84.8138 9.509 83.2938 10.639 83.2938 12.492C83.2938 14.012 84.4238 14.949 86.5108 15.242L87.4668 15.377C88.5768 15.534 89.1028 15.827 89.1028 16.352C89.1028 17.074 88.3628 17.484 86.9778 17.484C85.5748 17.484 84.5608 17.034 83.8778 16.509L82.9238 18.089C84.0338 18.907 85.4388 19.297 86.9598 19.297C89.6498 19.297 91.2098 18.029 91.2098 16.255C91.2098 14.617 89.9818 13.759 87.9538 13.467L86.9988 13.33C86.1218 13.214 85.4208 13.04 85.4208 12.415C85.4208 11.732 86.0828 11.323 87.1948 11.323C88.3848 11.323 89.5348 11.773 90.0998 12.123L90.9798 10.485H90.9778ZM117.124 9.509C115.954 9.509 115.194 10.055 114.667 10.873V9.743H112.657V19.063H114.685V13.837C114.685 12.297 115.348 11.439 116.675 11.439C117.085 11.439 117.513 11.497 117.942 11.673L118.566 9.763C118.116 9.586 117.532 9.508 117.122 9.508L117.124 9.509ZM99.8288 9.742H96.5148V6.916H94.4678V9.743H92.5748V11.596H94.4668V15.846C94.4668 18.011 95.3038 19.298 97.7028 19.298C98.5798 19.298 99.5928 19.025 100.237 18.576L99.6528 16.841C99.0478 17.193 98.3848 17.369 97.8588 17.369C96.8448 17.369 96.5128 16.744 96.5128 15.809V11.597H99.8278V9.743L99.8288 9.742ZM69.5288 19.062V13.212C69.5288 11.01 68.1248 9.528 65.8628 9.508C64.6728 9.488 63.4448 9.858 62.5878 11.165C61.9428 10.132 60.9278 9.507 59.5058 9.507C58.5108 9.507 57.5358 9.799 56.7758 10.891V9.741H54.7478V19.061H56.7958V13.894C56.7958 12.276 57.6928 11.418 59.0758 11.418C60.4218 11.418 61.1058 12.296 61.1058 13.875V19.062H63.1518V13.895C63.1518 12.277 64.0878 11.419 65.4318 11.419C66.8178 11.419 67.4818 12.297 67.4818 13.876V19.063H69.5278L69.5288 19.062Z" fill="black"/>
<path d="M44.9198 22.7H44.8198V22.287L44.6658 22.642H44.5618L44.4088 22.289V22.699H44.3088V22.154H44.4518L44.6148 22.528L44.7778 22.153H44.9198V22.697V22.7ZM44.0198 22.7H43.9198V22.248H43.7398V22.156H44.2018V22.248H44.0198V22.698V22.7Z" fill="#F89E1B"/>
<path d="M16.5508 25.015H29.1708V2.995H16.5508" fill="#FF5F00"/>
<path d="M22.6578 2.993C20.2778 1.118 17.2738 0 14.0078 0C6.27481 0 0.0078125 6.268 0.0078125 14C0.0078125 21.732 6.27581 28 14.0078 28C17.2728 28 20.2778 26.882 22.6578 25.007C19.4028 22.443 17.3118 18.467 17.3118 14C17.3118 9.534 19.4018 5.557 22.6588 2.993H22.6578Z" fill="#EC001B"/>
<path d="M45.3178 14C45.3178 21.732 39.0508 28 31.3198 28C28.0538 28 25.0498 26.882 22.6678 25.007C25.9238 22.443 28.0148 18.467 28.0148 14C28.0148 9.534 25.9248 5.557 22.6678 2.993C25.0478 1.118 28.0538 0 31.3198 0C39.0498 0 45.3198 6.268 45.3198 14H45.3178Z" fill="#F89E1B"/>
</g>
<defs>
<clipPath id="clip0_2_436">
<rect width="160" height="28" fill="white" transform="translate(0.0078125)"/>
</clipPath>
</defs>
</svg>
