<svg width="170" height="62" viewBox="0 0 170 62" fill="none" xmlns="http://www.w3.org/2000/svg">
<g clip-path="url(#clip0_2_434)">
<path d="M0.460815 0.453003H169.576V60.956H0.460815V0.453003Z" fill="black"/>
<path d="M0.892812 0.885H169.123V60.503H0.892812V0.885ZM0.0078125 61.39H170.008V0H0.0078125V61.389V61.39Z" fill="#D2D2D2"/>
<path d="M13.8788 13.498H30.3678V29.986H13.8788V13.498Z" fill="#F25022"/>
<path d="M32.0798 13.498H48.5678V29.986H32.0798V13.498Z" fill="#7FBA00"/>
<path d="M13.8788 31.679H30.3678V48.167H13.8788V31.679Z" fill="#00A4EF"/>
<path d="M32.0798 31.679H48.5678V48.167H32.0798V31.679Z" fill="#FFB900"/>
<path d="M80.3448 32.072C80.3448 31.58 80.5218 31.186 80.8758 30.852C81.0427 30.6906 81.2401 30.564 81.4564 30.4795C81.6727 30.395 81.9036 30.3544 82.1358 30.36C82.6458 30.36 83.0798 30.537 83.4138 30.872C83.7488 31.206 83.9258 31.619 83.9258 32.072C83.9258 32.544 83.7488 32.957 83.3948 33.272C83.0398 33.606 82.6268 33.764 82.1148 33.764C81.6048 33.764 81.1908 33.606 80.8368 33.272C80.5218 32.938 80.3448 32.544 80.3448 32.072ZM83.5908 48.167H80.6598V35.672H83.5908V48.167ZM92.5238 46.022C92.9568 46.022 93.4488 45.924 93.9798 45.727C94.5011 45.5288 94.9914 45.257 95.4358 44.92V47.655C94.938 47.9371 94.4007 48.1427 93.8418 48.265C93.2518 48.403 92.5828 48.481 91.8748 48.481C90.0448 48.481 88.5498 47.891 87.3888 46.731C86.2278 45.569 85.6568 44.074 85.6568 42.284C85.6568 40.277 86.2468 38.624 87.4278 37.325C88.6078 36.027 90.2608 35.377 92.4258 35.377C92.9758 35.377 93.5278 35.456 94.0978 35.594C94.6678 35.731 95.1018 35.909 95.4358 36.086V38.899C95.0078 38.5799 94.5377 38.3218 94.0388 38.132C93.5739 37.9535 93.0807 37.86 92.5828 37.856C91.4228 37.856 90.4978 38.23 89.7698 38.978C89.0608 39.726 88.7068 40.748 88.7068 42.028C88.7068 43.287 89.0418 44.271 89.7298 44.979C90.4188 45.688 91.3438 46.022 92.5238 46.022ZM103.798 35.476C104.035 35.476 104.251 35.496 104.428 35.515C104.605 35.555 104.782 35.594 104.9 35.633V38.604C104.743 38.486 104.527 38.388 104.231 38.289C103.881 38.1787 103.516 38.1256 103.149 38.132C102.421 38.132 101.811 38.427 101.319 39.037C100.827 39.647 100.572 40.572 100.572 41.851V48.167H97.6398V35.672H100.572V37.64H100.611C100.886 36.951 101.28 36.42 101.831 36.046C102.381 35.672 103.031 35.476 103.799 35.476H103.798ZM105.058 42.106C105.058 40.041 105.648 38.407 106.808 37.188C107.97 35.988 109.603 35.378 111.668 35.378C113.617 35.378 115.152 35.968 116.253 37.128C117.355 38.289 117.906 39.863 117.906 41.831C117.906 43.858 117.316 45.471 116.155 46.671C114.995 47.871 113.4 48.461 111.393 48.461C109.465 48.461 107.911 47.891 106.789 46.75C105.629 45.628 105.058 44.074 105.058 42.106ZM108.128 42.008C108.128 43.307 108.422 44.31 109.013 44.998C109.603 45.688 110.449 46.022 111.551 46.022C112.613 46.022 113.44 45.688 113.991 44.999C114.541 44.31 114.837 43.287 114.837 41.929C114.837 40.591 114.542 39.569 113.971 38.879C113.401 38.191 112.574 37.856 111.531 37.856C110.449 37.856 109.623 38.211 109.013 38.939C108.423 39.667 108.127 40.67 108.127 42.009L108.128 42.008ZM122.274 38.958C122.274 39.372 122.412 39.706 122.668 39.942C122.943 40.178 123.533 40.473 124.438 40.847C125.619 41.319 126.445 41.851 126.918 42.441C127.39 43.031 127.626 43.74 127.626 44.566C127.626 45.746 127.174 46.691 126.268 47.399C125.363 48.108 124.143 48.462 122.608 48.462C122.032 48.458 121.458 48.3919 120.897 48.265C120.351 48.1624 119.817 48.0042 119.303 47.793V44.9C119.835 45.2762 120.418 45.5746 121.035 45.786C121.645 46.002 122.215 46.12 122.707 46.12C123.377 46.12 123.868 46.022 124.183 45.845C124.498 45.668 124.655 45.353 124.655 44.9C124.655 44.487 124.498 44.153 124.163 43.877C123.829 43.602 123.219 43.267 122.293 42.913C121.212 42.461 120.444 41.949 119.992 41.378C119.539 40.808 119.303 40.08 119.303 39.214C119.303 38.093 119.756 37.168 120.641 36.44C121.527 35.712 122.687 35.358 124.124 35.358C124.619 35.3602 125.112 35.406 125.599 35.495C126.15 35.594 126.603 35.712 126.957 35.869V38.663C126.529 38.3934 126.073 38.1692 125.599 37.994C125.106 37.8189 124.588 37.726 124.065 37.719C123.514 37.719 123.061 37.837 122.766 38.053C122.611 38.1472 122.484 38.2804 122.398 38.4394C122.312 38.5983 122.269 38.7772 122.274 38.958ZM128.925 42.106C128.925 40.041 129.515 38.407 130.675 37.188C131.837 35.988 133.47 35.378 135.535 35.378C137.484 35.378 139.018 35.968 140.12 37.128C141.222 38.289 141.773 39.863 141.773 41.831C141.773 43.858 141.183 45.471 140.022 46.671C138.861 47.871 137.267 48.461 135.26 48.461C133.332 48.461 131.778 47.891 130.656 46.75C129.496 45.628 128.925 44.074 128.925 42.106ZM131.975 42.008C131.975 43.307 132.27 44.31 132.86 44.998C133.45 45.688 134.296 46.022 135.398 46.022C136.461 46.022 137.287 45.688 137.838 44.999C138.388 44.31 138.684 43.287 138.684 41.929C138.684 40.591 138.389 39.569 137.818 38.879C137.248 38.191 136.421 37.856 135.378 37.856C134.296 37.856 133.47 38.211 132.86 38.939C132.27 39.667 131.974 40.67 131.974 42.009L131.975 42.008ZM151.473 38.093V44.507C151.473 45.845 151.788 46.829 152.398 47.497C153.008 48.167 153.952 48.481 155.192 48.481C155.605 48.481 156.038 48.442 156.471 48.344C156.904 48.245 157.219 48.167 157.396 48.049V45.609C157.2 45.7345 156.988 45.8336 156.766 45.904C156.57 45.9741 156.364 46.0139 156.156 46.022C155.566 46.022 155.113 45.865 154.838 45.55C154.562 45.235 154.425 44.684 154.425 43.917V38.073H157.415V35.673H154.445V31.973L151.493 32.878V35.692H147.105V34.177C147.105 33.429 147.263 32.859 147.597 32.465C147.932 32.072 148.404 31.895 149.014 31.895C149.329 31.895 149.604 31.934 149.86 32.013C150.096 32.091 150.273 32.17 150.371 32.229V29.691C150.134 29.6139 149.89 29.5613 149.643 29.534C149.33 29.4919 149.014 29.4719 148.699 29.474C147.361 29.474 146.259 29.888 145.413 30.734C144.567 31.58 144.134 32.642 144.134 33.961V35.692H142.049V38.092H144.134V48.186H147.105V38.093H151.473ZM77.8258 30.734V48.167H74.7958V34.512H74.7558L69.3458 48.167H67.3388L61.7898 34.512H61.7508V48.167H58.9578V30.734H63.2868L68.3038 43.661H68.3828L73.6758 30.734H77.8258ZM66.9058 23.198C65.8628 23.788 64.6828 24.083 63.3638 24.083C62.3608 24.083 61.4758 23.867 60.6888 23.414C59.9193 22.9828 59.2958 22.3321 58.8978 21.545C58.4848 20.738 58.2678 19.833 58.2678 18.83C58.2678 17.767 58.5048 16.803 58.9578 15.977C59.4055 15.1485 60.0811 14.4656 60.9048 14.009C61.7508 13.537 62.6948 13.301 63.7578 13.301C64.2928 13.3045 64.8263 13.3571 65.3518 13.458C65.8828 13.557 66.3158 13.694 66.6498 13.852V15.426C65.8628 14.895 64.8598 14.639 63.6398 14.639C62.9118 14.639 62.2628 14.816 61.6718 15.17C61.0911 15.5175 60.6206 16.0223 60.3148 16.626C59.9998 17.256 59.8418 17.964 59.8418 18.751C59.8418 19.991 60.1768 20.975 60.8258 21.703C61.4758 22.431 62.3808 22.785 63.5218 22.785C64.2498 22.785 64.8988 22.647 65.4498 22.352V19.656H63.2278V18.358H66.9078V23.198H66.9058ZM75.3858 20.581H70.2308C70.2508 21.329 70.4868 21.899 70.8808 22.313C71.2938 22.706 71.8248 22.923 72.4938 22.923C73.3798 22.923 74.1468 22.667 74.8158 22.155V23.415C74.4716 23.6398 74.0924 23.8058 73.6938 23.906C73.2375 24.0241 72.7681 24.0836 72.2968 24.083C71.1758 24.083 70.2898 23.749 69.6798 23.08C69.0698 22.41 68.7558 21.466 68.7558 20.247C68.7558 19.499 68.9128 18.81 69.2078 18.22C69.4848 17.6377 69.9218 17.1462 70.4678 16.803C71.0037 16.466 71.6247 16.2887 72.2578 16.292C73.2218 16.292 73.9888 16.606 74.5398 17.236C75.0908 17.866 75.3668 18.731 75.3668 19.853V20.581H75.3868H75.3858ZM73.9498 19.459C73.9498 18.81 73.7928 18.319 73.4978 17.984C73.2018 17.649 72.7888 17.472 72.2378 17.472C71.7458 17.472 71.3138 17.649 70.9398 18.003C70.5658 18.358 70.3498 18.85 70.2308 19.459H73.9508H73.9498ZM80.9738 23.828C80.7963 23.9217 80.6031 23.9817 80.4038 24.005C80.1678 24.044 79.9508 24.064 79.7538 24.064C78.3768 24.064 77.6888 23.296 77.6888 21.781V17.65H76.4288V16.47H77.6888V14.699L79.1248 14.246V16.45H80.9548V17.63H79.1248V21.526C79.1248 22.018 79.2038 22.373 79.3608 22.569C79.5178 22.766 79.7938 22.864 80.2068 22.864C80.4828 22.864 80.7378 22.786 80.9548 22.628V23.828H80.9748H80.9738ZM88.0978 13.832C88.0998 13.946 88.078 14.0591 88.0337 14.1642C87.9895 14.2692 87.9237 14.3639 87.8408 14.442C87.7559 14.5269 87.6545 14.5935 87.5429 14.6375C87.4312 14.6815 87.3117 14.7021 87.1918 14.698C87.0716 14.7023 86.9519 14.6817 86.8401 14.6377C86.7283 14.5936 86.6267 14.527 86.5418 14.442C86.3658 14.285 86.2868 14.068 86.2868 13.812C86.2868 13.557 86.3848 13.34 86.5618 13.182C86.733 13.0221 86.9575 12.9312 87.1918 12.927C87.4278 12.927 87.6448 13.006 87.8218 13.183C87.9115 13.2653 87.9825 13.366 88.0299 13.4781C88.0774 13.5903 88.1002 13.7113 88.0968 13.833L88.0978 13.832ZM87.8998 23.906H86.4638V16.47H87.8998V23.907V23.906ZM94.1378 23.828C93.96 23.9218 93.7664 23.9818 93.5668 24.005C93.3308 24.044 93.1138 24.064 92.9168 24.064C91.5398 24.064 90.8518 23.296 90.8518 21.781V17.65H89.5918V16.47H90.8518V14.699L92.2878 14.246V16.45H94.1178V17.63H92.2878V21.526C92.2878 22.018 92.3668 22.373 92.5238 22.569C92.6818 22.766 92.9568 22.864 93.3698 22.864C93.6458 22.864 93.9018 22.786 94.1178 22.628V23.828H94.1378ZM103.543 14.108C103.3 13.9807 103.03 13.9132 102.756 13.911C101.949 13.911 101.556 14.403 101.556 15.387V16.449H103.248V17.629H101.555V23.887H100.119V17.649H98.8588V16.469H100.119V15.328C100.119 14.541 100.336 13.911 100.789 13.438C101.241 12.966 101.851 12.73 102.638 12.73C103.031 12.73 103.326 12.77 103.562 12.868V14.108H103.542H103.543ZM108.836 17.905C108.756 17.846 108.599 17.787 108.403 17.728C108.206 17.688 108.029 17.649 107.891 17.649C107.38 17.649 106.966 17.885 106.651 18.338C106.337 18.791 106.179 19.381 106.179 20.108V23.906H104.743V16.47H106.179V17.965H106.219C106.376 17.454 106.632 17.06 106.966 16.765C107.285 16.4801 107.699 16.3255 108.127 16.332C108.422 16.332 108.658 16.372 108.816 16.43V17.906H108.836V17.905ZM117.04 20.148C117.04 21.348 116.686 22.313 115.998 23.021C115.308 23.729 114.384 24.083 113.243 24.083C112.121 24.083 111.216 23.729 110.547 23.041C109.878 22.351 109.544 21.427 109.544 20.266C109.544 19.026 109.898 18.063 110.587 17.354C111.275 16.646 112.22 16.292 113.42 16.292C114.542 16.292 115.427 16.626 116.057 17.315C116.726 18.003 117.04 18.948 117.04 20.148ZM115.565 20.188C115.565 19.302 115.368 18.633 114.995 18.181C114.601 17.728 114.069 17.491 113.361 17.491C112.653 17.491 112.082 17.728 111.669 18.22C111.256 18.692 111.059 19.38 111.059 20.247C111.059 21.093 111.256 21.742 111.669 22.214C112.082 22.686 112.633 22.922 113.361 22.922C114.089 22.922 114.64 22.686 115.014 22.234C115.368 21.742 115.564 21.073 115.564 20.188H115.565ZM129.888 23.906H128.452V19.676C128.452 18.909 128.334 18.358 128.098 18.003C127.862 17.649 127.449 17.492 126.878 17.492C126.406 17.492 125.993 17.708 125.678 18.142C125.344 18.574 125.186 19.105 125.186 19.696V23.906H123.75V19.538C123.75 18.181 123.219 17.492 122.176 17.492C121.684 17.492 121.271 17.708 120.956 18.122C120.641 18.535 120.484 19.066 120.484 19.715V23.925H119.047V16.47H120.484V17.63H120.504C121.034 16.726 121.822 16.293 122.825 16.293C123.297 16.293 123.73 16.43 124.124 16.686C124.498 16.942 124.773 17.316 124.95 17.788C125.245 17.276 125.58 16.903 125.993 16.647C126.43 16.3971 126.925 16.268 127.429 16.273C129.062 16.273 129.869 17.276 129.869 19.303V23.907H129.889L129.888 23.906Z" fill="white"/>
</g>
<defs>
<clipPath id="clip0_2_434">
<rect width="170" height="62" fill="white" transform="translate(0.0078125)"/>
</clipPath>
</defs>
</svg>
