<svg width="180" height="22" viewBox="0 0 180 22" fill="none" xmlns="http://www.w3.org/2000/svg">
<g clip-path="url(#clip0_2161_123)">
<path d="M37.618 0.716248V4.59036H43.0714V21.2453H47.1957V4.59036H52.6365V0.716248H37.618Z" fill="white"/>
<path fill-rule="evenodd" clip-rule="evenodd" d="M34.9163 10.2894C36.1159 9.33088 36.8063 7.87428 36.7882 6.34056C36.7882 4.59036 36.2952 3.19518 35.2096 2.22977C34.1239 1.26435 32.5703 0.716248 30.5549 0.716248H21.0272V8.43333L24.0284 10.7441L21.0272 13.0611V21.2453H31.0665C35.0286 21.2453 37.5681 18.8598 37.5681 15.1477C37.6829 13.1563 36.6548 11.2728 34.9163 10.2894ZM25.1827 4.4907H30.5549C31.9151 4.4907 32.7699 5.26926 32.7699 6.55856C32.7795 7.14011 32.5463 7.69942 32.1261 8.10234C31.7058 8.50526 31.1366 8.71544 30.5549 8.68247H25.1889L25.1827 4.4907ZM25.1889 17.4397H30.5549V17.446C31.8278 17.446 33.3689 17.0162 33.3689 14.9483C33.3689 13.3476 32.3332 12.457 30.4613 12.457H25.1889V17.4397Z" fill="white"/>
<path d="M7.45622 11.7843C7.01627 11.7817 6.62596 11.502 6.48285 11.0867C6.43835 10.9801 6.41504 10.8658 6.41422 10.7504C6.41234 10.6386 6.43581 10.5279 6.48285 10.4265C6.61818 10.0073 7.0088 9.72304 7.44998 9.72265H18.8184C18.6134 8.45062 18.0182 7.27335 17.115 6.35305L17.0651 6.29699L15.6362 4.85821L15.5801 4.81461L10.7694 0L0 10.7441L10.7632 21.4945L15.5551 16.6923L15.6362 16.6176L17.0651 15.185L17.1337 15.1103C18.021 14.1918 18.6065 13.025 18.8121 11.7656L7.45622 11.7843Z" fill="#007BC6"/>
<path d="M60.3096 0.666443H69.1736C69.7567 0.666443 70.3982 0.734509 71.098 0.870641C71.8172 1.00677 72.4781 1.28876 73.0807 1.7166C73.7028 2.125 74.2179 2.71814 74.6261 3.49604C75.0343 4.25449 75.2384 5.25603 75.2384 6.50066C75.2384 8.32872 74.6747 9.73865 73.5473 10.7305C72.4198 11.7223 70.8064 12.2182 68.7071 12.2182H61.5925V21.4946H60.3096V0.666443ZM61.5925 11.1097H68.9112C69.8442 11.1097 70.6315 10.9736 71.273 10.7013C71.9339 10.4096 72.4587 10.0401 72.8475 9.59279C73.2363 9.1455 73.5181 8.6496 73.6931 8.10507C73.868 7.56054 73.9555 7.01602 73.9555 6.47149C73.9555 6.08254 73.8972 5.62553 73.7805 5.10045C73.6639 4.55592 73.4306 4.04057 73.0807 3.55438C72.7309 3.04875 72.2352 2.63063 71.5937 2.30003C70.9717 1.94997 70.1358 1.77495 69.0861 1.77495H61.5925V11.1097Z" fill="white"/>
<path d="M86.3927 18.5192H86.3344C86.1595 18.9664 85.9067 19.3943 85.5763 19.8027C85.2458 20.1916 84.8376 20.5417 84.3517 20.8528C83.8851 21.164 83.3506 21.4071 82.748 21.5821C82.1454 21.7571 81.4845 21.8447 80.7652 21.8447C79.1713 21.8447 77.9369 21.5043 77.0622 20.8237C76.1874 20.1236 75.7501 19.054 75.7501 17.6149C75.7501 16.7397 75.925 16.0299 76.2749 15.4854C76.6248 14.9214 77.0622 14.4838 77.587 14.1727C78.1313 13.8421 78.7242 13.6087 79.3657 13.4726C80.0266 13.3364 80.6583 13.2392 81.2609 13.1808L82.9812 13.035C83.7782 12.9767 84.4003 12.8891 84.8473 12.7725C85.3139 12.6363 85.6638 12.4613 85.897 12.2474C86.1303 12.014 86.2761 11.7223 86.3344 11.3722C86.3927 11.0222 86.4219 10.5846 86.4219 10.0595C86.4219 9.65116 86.3441 9.27193 86.1886 8.92189C86.0331 8.57184 85.7901 8.26067 85.4597 7.9884C85.1292 7.71614 84.7016 7.50222 84.1767 7.34664C83.6519 7.19106 83.0104 7.11327 82.2523 7.11327C80.911 7.11327 79.8225 7.44388 78.9866 8.10509C78.1702 8.7663 77.7231 9.76785 77.6453 11.1097H76.5373C76.6151 9.45669 77.1399 8.22178 78.1119 7.40498C79.1032 6.56875 80.5028 6.15063 82.3106 6.15063C84.1184 6.15063 85.4305 6.51041 86.2469 7.22996C87.0828 7.93006 87.5007 8.85382 87.5007 10.0012V18.7234C87.5007 18.9373 87.5007 19.1512 87.5007 19.3651C87.5202 19.579 87.559 19.7735 87.6173 19.9485C87.6757 20.1236 87.7729 20.2694 87.9089 20.3861C88.045 20.4833 88.2394 20.532 88.4921 20.532C88.6865 20.532 88.9586 20.5028 89.3085 20.4444V21.3779C89.0169 21.4557 88.7156 21.4946 88.4046 21.4946C87.9575 21.4946 87.5979 21.4363 87.3258 21.3196C87.0731 21.2029 86.8787 21.0473 86.7426 20.8528C86.6065 20.6584 86.5093 20.4347 86.451 20.1819C86.4122 19.9096 86.3927 19.6179 86.3927 19.3068V18.5192ZM86.3927 12.9767C86.1206 13.3073 85.7026 13.5309 85.1389 13.6476C84.5946 13.7643 83.9823 13.8518 83.302 13.9101L81.4359 14.0852C80.8916 14.1435 80.3473 14.231 79.803 14.3477C79.2587 14.4449 78.7631 14.62 78.316 14.8728C77.8883 15.1256 77.5384 15.4756 77.2663 15.9229C76.9941 16.3508 76.8581 16.9147 76.8581 17.6149C76.8581 18.7234 77.208 19.5499 77.9078 20.0944C78.6075 20.6195 79.5698 20.882 80.7944 20.882C82.0579 20.882 83.059 20.6584 83.7977 20.2111C84.5363 19.7443 85.1001 19.2193 85.4888 18.6358C85.8776 18.033 86.1206 17.4593 86.2178 16.9147C86.3344 16.3508 86.3927 15.9715 86.3927 15.7771V12.9767Z" fill="white"/>
<path d="M91.0288 6.50068H92.1368V9.7095H92.1952C92.3895 9.14552 92.6617 8.64962 93.0116 8.22177C93.3809 7.77448 93.7988 7.39526 94.2654 7.08411C94.7513 6.77295 95.2762 6.53958 95.8399 6.384C96.4036 6.22842 96.9771 6.15063 97.5602 6.15063C98.435 6.15063 99.1736 6.25759 99.7762 6.47151C100.398 6.68543 100.904 6.96742 101.292 7.31747C101.681 7.66752 101.982 8.06619 102.196 8.51348C102.43 8.94133 102.595 9.37889 102.692 9.82618C102.789 10.2735 102.848 10.711 102.867 11.1389C102.886 11.5473 102.896 11.907 102.896 12.2182V21.4946H101.788V12.014C101.788 11.6445 101.759 11.1778 101.701 10.6138C101.642 10.0498 101.467 9.51504 101.176 9.0094C100.904 8.48432 100.476 8.03703 99.8928 7.66752C99.3291 7.29802 98.5419 7.11327 97.5311 7.11327C96.6758 7.11327 95.9176 7.26885 95.2567 7.58001C94.5958 7.89117 94.0321 8.32874 93.5656 8.89271C93.099 9.43724 92.7394 10.0984 92.4867 10.8763C92.2535 11.6348 92.1368 12.471 92.1368 13.385V21.4946H91.0288V6.50068Z" fill="white"/>
<path d="M105.449 13.9976C105.449 12.928 105.595 11.9265 105.886 10.993C106.197 10.0401 106.645 9.20387 107.228 8.48431C107.811 7.76476 108.53 7.20079 109.385 6.79239C110.241 6.36455 111.222 6.15063 112.33 6.15063C113.438 6.15063 114.42 6.36455 115.275 6.79239C116.131 7.20079 116.85 7.76476 117.433 8.48431C118.016 9.20387 118.453 10.0401 118.745 10.993C119.056 11.9265 119.212 12.928 119.212 13.9976C119.212 15.0672 119.056 16.0785 118.745 17.0314C118.453 17.9844 118.016 18.8206 117.433 19.5401C116.85 20.2402 116.131 20.8042 115.275 21.2321C114.42 21.6405 113.438 21.8447 112.33 21.8447C111.222 21.8447 110.241 21.6405 109.385 21.2321C108.53 20.8042 107.811 20.2402 107.228 19.5401C106.645 18.8206 106.197 17.9844 105.886 17.0314C105.595 16.0785 105.449 15.0672 105.449 13.9976ZM106.557 13.9976C106.557 14.8922 106.683 15.7576 106.936 16.5939C107.189 17.4107 107.558 18.1399 108.044 18.7817C108.53 19.4235 109.133 19.9388 109.852 20.3278C110.571 20.6973 111.397 20.882 112.33 20.882C113.263 20.882 114.09 20.6973 114.809 20.3278C115.528 19.9388 116.131 19.4235 116.617 18.7817C117.102 18.1399 117.472 17.4107 117.725 16.5939C117.977 15.7576 118.104 14.8922 118.104 13.9976C118.104 13.1031 117.977 12.2474 117.725 11.4306C117.472 10.5943 117.102 9.85536 116.617 9.21359C116.131 8.57184 115.528 8.0662 114.809 7.6967C114.09 7.30775 113.263 7.11327 112.33 7.11327C111.397 7.11327 110.571 7.30775 109.852 7.6967C109.133 8.0662 108.53 8.57184 108.044 9.21359C107.558 9.85536 107.189 10.5943 106.936 11.4306C106.683 12.2474 106.557 13.1031 106.557 13.9976Z" fill="white"/>
<path d="M122.918 9.82615H123.005C123.141 9.33997 123.384 8.88295 123.734 8.4551C124.104 8.02726 124.541 7.65777 125.046 7.34661C125.571 7.03545 126.145 6.80209 126.767 6.64651C127.408 6.47148 128.069 6.39369 128.749 6.41314V7.52164C128.166 7.44385 127.496 7.50219 126.738 7.69667C125.999 7.89114 125.289 8.31898 124.609 8.98019C124.337 9.2719 124.094 9.55389 123.88 9.82615C123.686 10.0984 123.52 10.3999 123.384 10.7305C123.248 11.0611 123.141 11.4306 123.064 11.839C122.986 12.2474 122.937 12.7336 122.918 13.2975V21.4946H121.81V6.50065H122.918V9.82615Z" fill="white"/>
<path d="M139.298 18.5192H139.24C139.065 18.9664 138.812 19.3943 138.482 19.8027C138.152 20.1916 137.743 20.5417 137.257 20.8528C136.791 21.164 136.256 21.4071 135.654 21.5821C135.051 21.7571 134.39 21.8447 133.671 21.8447C132.077 21.8447 130.843 21.5043 129.968 20.8237C129.093 20.1236 128.656 19.054 128.656 17.6149C128.656 16.7397 128.831 16.0299 129.181 15.4854C129.531 14.9214 129.968 14.4838 130.493 14.1727C131.037 13.8421 131.63 13.6087 132.271 13.4726C132.932 13.3364 133.564 13.2392 134.167 13.1808L135.887 13.035C136.684 12.9767 137.306 12.8891 137.753 12.7725C138.22 12.6363 138.57 12.4613 138.803 12.2474C139.036 12.014 139.182 11.7223 139.24 11.3722C139.298 11.0222 139.328 10.5846 139.328 10.0595C139.328 9.65116 139.25 9.27193 139.094 8.92189C138.939 8.57184 138.696 8.26067 138.365 7.9884C138.035 7.71614 137.607 7.50222 137.082 7.34664C136.558 7.19106 135.916 7.11327 135.158 7.11327C133.817 7.11327 132.728 7.44388 131.892 8.10509C131.076 8.7663 130.629 9.76785 130.551 11.1097H129.443C129.521 9.45669 130.046 8.22178 131.018 7.40498C132.009 6.56875 133.409 6.15063 135.216 6.15063C137.024 6.15063 138.336 6.51041 139.153 7.22996C139.989 7.93006 140.406 8.85382 140.406 10.0012V18.7234C140.406 18.9373 140.406 19.1512 140.406 19.3651C140.426 19.579 140.465 19.7735 140.523 19.9485C140.581 20.1236 140.679 20.2694 140.815 20.3861C140.951 20.4833 141.145 20.532 141.398 20.532C141.592 20.532 141.864 20.5028 142.214 20.4444V21.3779C141.923 21.4557 141.621 21.4946 141.31 21.4946C140.863 21.4946 140.504 21.4363 140.232 21.3196C139.979 21.2029 139.784 21.0473 139.648 20.8528C139.512 20.6584 139.415 20.4347 139.357 20.1819C139.318 19.9096 139.298 19.6179 139.298 19.3068V18.5192ZM139.298 12.9767C139.026 13.3073 138.608 13.5309 138.045 13.6476C137.5 13.7643 136.888 13.8518 136.208 13.9101L134.342 14.0852C133.797 14.1435 133.253 14.231 132.709 14.3477C132.164 14.4449 131.669 14.62 131.222 14.8728C130.794 15.1256 130.444 15.4756 130.172 15.9229C129.9 16.3508 129.764 16.9147 129.764 17.6149C129.764 18.7234 130.114 19.5499 130.813 20.0944C131.513 20.6195 132.475 20.882 133.7 20.882C134.964 20.882 135.965 20.6584 136.703 20.2111C137.442 19.7443 138.006 19.2193 138.395 18.6358C138.783 18.033 139.026 17.4593 139.124 16.9147C139.24 16.3508 139.298 15.9715 139.298 15.7771V12.9767Z" fill="white"/>
<path d="M143.964 6.50068H145.072V9.56364H145.13C145.247 9.09691 145.451 8.65935 145.742 8.25096C146.034 7.82311 146.384 7.4536 146.792 7.14245C147.22 6.83129 147.686 6.58819 148.192 6.41317C148.716 6.23814 149.261 6.15063 149.824 6.15063C150.544 6.15063 151.166 6.24786 151.691 6.44234C152.215 6.61736 152.663 6.86046 153.032 7.17162C153.401 7.46333 153.693 7.80366 153.907 8.1926C154.12 8.5621 154.266 8.94133 154.344 9.33028H154.402C154.849 8.28012 155.442 7.4925 156.181 6.96742C156.939 6.42289 157.93 6.15063 159.155 6.15063C159.835 6.15063 160.457 6.25759 161.021 6.47151C161.604 6.66598 162.1 6.97714 162.508 7.40498C162.936 7.81339 163.266 8.33847 163.5 8.98023C163.733 9.62199 163.849 10.3804 163.849 11.2556V21.4946H162.741V11.2264C162.741 10.2735 162.596 9.52476 162.304 8.98023C162.013 8.43571 161.663 8.0273 161.254 7.75504C160.866 7.46333 160.467 7.2883 160.059 7.22996C159.67 7.15217 159.369 7.11327 159.155 7.11327C158.475 7.11327 157.843 7.22996 157.26 7.46333C156.696 7.6967 156.2 8.04675 155.773 8.51348C155.364 8.98022 155.044 9.56364 154.81 10.2637C154.577 10.9444 154.461 11.732 154.461 12.6266V21.4946H153.353V11.2264C153.353 10.2929 153.207 9.55393 152.915 9.0094C152.643 8.44543 152.313 8.0273 151.924 7.75504C151.555 7.48277 151.166 7.30775 150.758 7.22996C150.369 7.15217 150.058 7.11327 149.824 7.11327C149.3 7.11327 148.755 7.22023 148.192 7.43417C147.628 7.64808 147.113 7.97868 146.646 8.42597C146.18 8.87326 145.801 9.44697 145.509 10.1471C145.218 10.8472 145.072 11.6737 145.072 12.6266V21.4946H143.964V6.50068Z" fill="white"/>
<path d="M177.084 18.5192H177.026C176.851 18.9664 176.598 19.3943 176.268 19.8027C175.937 20.1916 175.529 20.5417 175.043 20.8528C174.577 21.164 174.042 21.4071 173.439 21.5821C172.837 21.7571 172.176 21.8447 171.457 21.8447C169.863 21.8447 168.628 21.5043 167.754 20.8237C166.879 20.1236 166.442 19.054 166.442 17.6149C166.442 16.7397 166.616 16.0299 166.966 15.4854C167.316 14.9214 167.754 14.4838 168.278 14.1727C168.823 13.8421 169.416 13.6087 170.057 13.4726C170.718 13.3364 171.35 13.2392 171.952 13.1808L173.673 13.035C174.47 12.9767 175.092 12.8891 175.539 12.7725C176.005 12.6363 176.355 12.4613 176.589 12.2474C176.822 12.014 176.968 11.7223 177.026 11.3722C177.084 11.0222 177.113 10.5846 177.113 10.0595C177.113 9.65116 177.036 9.27193 176.88 8.92189C176.725 8.57184 176.482 8.26067 176.151 7.9884C175.821 7.71614 175.393 7.50222 174.868 7.34664C174.343 7.19106 173.702 7.11327 172.944 7.11327C171.603 7.11327 170.514 7.44388 169.678 8.10509C168.862 8.7663 168.415 9.76785 168.337 11.1097H167.229C167.307 9.45669 167.831 8.22178 168.803 7.40498C169.795 6.56875 171.194 6.15063 173.002 6.15063C174.81 6.15063 176.122 6.51041 176.938 7.22996C177.774 7.93006 178.192 8.85382 178.192 10.0012V18.7234C178.192 18.9373 178.192 19.1512 178.192 19.3651C178.212 19.579 178.251 19.7735 178.309 19.9485C178.367 20.1236 178.464 20.2694 178.6 20.3861C178.736 20.4833 178.931 20.532 179.184 20.532C179.378 20.532 179.65 20.5028 180 20.4444V21.3779C179.708 21.4557 179.407 21.4946 179.096 21.4946C178.649 21.4946 178.289 21.4363 178.017 21.3196C177.765 21.2029 177.57 21.0473 177.434 20.8528C177.298 20.6584 177.201 20.4347 177.143 20.1819C177.104 19.9096 177.084 19.6179 177.084 19.3068V18.5192ZM177.084 12.9767C176.812 13.3073 176.394 13.5309 175.83 13.6476C175.286 13.7643 174.674 13.8518 173.993 13.9101L172.127 14.0852C171.583 14.1435 171.039 14.231 170.495 14.3477C169.95 14.4449 169.455 14.62 169.007 14.8728C168.58 15.1256 168.23 15.4756 167.958 15.9229C167.686 16.3508 167.55 16.9147 167.55 17.6149C167.55 18.7234 167.899 19.5499 168.599 20.0944C169.299 20.6195 170.261 20.882 171.486 20.882C172.749 20.882 173.75 20.6584 174.489 20.2111C175.228 19.7443 175.792 19.2193 176.18 18.6358C176.569 18.033 176.812 17.4593 176.909 16.9147C177.026 16.3508 177.084 15.9715 177.084 15.7771V12.9767Z" fill="white"/>
</g>
<defs>
<clipPath id="clip0_2161_123">
<rect width="180" height="22" fill="white"/>
</clipPath>
</defs>
</svg>
