<svg width="90" height="42" viewBox="0 0 90 42" fill="none" xmlns="http://www.w3.org/2000/svg">
<g clip-path="url(#clip0_2_433)">
<path fill-rule="evenodd" clip-rule="evenodd" d="M24.5245 30.5143H24.4378C24.0898 31.1341 23.5294 31.6426 22.7568 32.0393C21.9838 32.4357 21.105 32.6344 20.1196 32.6344C19.5591 32.6344 18.9749 32.5621 18.3663 32.4168C17.7578 32.2713 17.1972 32.0295 16.6856 31.6906C16.1735 31.3521 15.7482 30.9064 15.4104 30.3546C15.0722 29.8028 14.9032 29.1202 14.9032 28.3068C14.9032 27.2613 15.1975 26.4289 15.7872 25.8091C16.3761 25.1896 17.1346 24.7153 18.0621 24.3859C18.9894 24.0569 20.0182 23.8389 21.1484 23.7323C22.2786 23.6261 23.3845 23.5726 24.4667 23.5726V23.2239C24.4667 22.3527 24.1524 21.7092 23.5249 21.2924C22.8967 20.8765 22.1483 20.668 21.2789 20.668C20.5443 20.668 19.8394 20.8234 19.1633 21.1327C18.4867 21.4427 17.9267 21.8204 17.4825 22.2656L15.6856 20.1451C16.4776 19.4096 17.3905 18.8577 18.4243 18.4897C19.4577 18.1222 20.5058 17.9379 21.5687 17.9379C22.8047 17.9379 23.8241 18.1121 24.626 18.4608C25.4274 18.8092 26.0606 19.2645 26.5241 19.8257C26.9878 20.3876 27.3112 21.0167 27.4951 21.7137C27.6784 22.4108 27.7704 23.1079 27.7704 23.805V32.2861H24.5245V30.5143ZM24.4667 25.9251V26.419C24.4667 27.5226 24.1574 28.394 23.5393 29.033C22.9207 29.672 22.0129 29.9915 20.8152 29.9915C20.5253 29.9915 20.2355 29.9625 19.9457 29.9044C19.6559 29.8462 19.3951 29.7497 19.1633 29.6139C18.9314 29.4787 18.743 29.2995 18.5982 29.0765C18.4534 28.8543 18.3809 28.5782 18.3809 28.2487C18.3809 27.726 18.5546 27.3149 18.9024 27.0145C19.2501 26.7146 19.6849 26.4821 20.2065 26.3172C20.7283 26.153 21.2978 26.0465 21.9165 25.998C22.5346 25.9498 23.1236 25.9251 23.6841 25.9251H24.4667ZM28.8047 18.3444H32.6588L36.5424 28.4812H36.6003L40.0491 18.3444H43.6715L37.0929 35.2778C36.8416 35.9166 36.5714 36.483 36.2816 36.9768C35.9918 37.4706 35.6438 37.8868 35.2383 38.2258C34.8325 38.5642 34.3545 38.8213 33.8036 38.9954C33.253 39.1696 32.5911 39.2567 31.8186 39.2567C31.5286 39.2567 31.2338 39.2423 30.9346 39.2133C30.6349 39.1842 30.3305 39.1306 30.0217 39.0536L30.3116 36.033C30.5434 36.1099 30.7703 36.1635 30.9926 36.1927C31.2145 36.2216 31.4224 36.2362 31.6156 36.2362C31.9824 36.2362 32.2917 36.1927 32.5431 36.1056C32.7939 36.0182 33.0068 35.8827 33.1805 35.6988C33.3545 35.5144 33.5089 35.2872 33.6444 35.0163C33.7793 34.745 33.9243 34.4252 34.079 34.0578L34.7746 32.2861L28.8047 18.3444ZM0.0078125 11.7222H6.70233C7.88042 11.7222 8.94324 11.8291 9.89014 12.0416C10.8364 12.2551 11.6479 12.6037 12.3244 13.0874C13.0005 13.5715 13.522 14.1912 13.8893 14.9462C14.2561 15.7015 14.4398 16.6117 14.4398 17.6766C14.4398 18.8193 14.2272 19.7777 13.8024 20.552C13.3772 21.3267 12.8027 21.9512 12.0781 22.4253C11.3536 22.9002 10.5083 23.2434 9.54236 23.4563C8.57598 23.6696 7.55212 23.776 6.47047 23.776H3.6595V32.2861H0.0078125V11.7222ZM6.20972 20.6969C6.80834 20.6969 7.37823 20.6536 7.91939 20.5664C8.46022 20.4793 8.94324 20.3244 9.36847 20.1018C9.79321 19.8795 10.1314 19.5743 10.3829 19.1869C10.6336 18.7997 10.7594 18.2964 10.7594 17.6766C10.7594 17.0765 10.6336 16.5874 10.3829 16.2096C10.1314 15.8322 9.79816 15.5371 9.38301 15.3238C8.96735 15.1109 8.49407 14.9707 7.96282 14.9027C7.43124 14.8352 6.88563 14.8009 6.32548 14.8009H3.6595V20.6969H6.20972ZM56.8745 0H80.8745C85.8451 0 89.8745 4.02944 89.8745 9V33C89.8745 37.9706 85.8451 42 80.8745 42H56.8745C51.904 42 47.8745 37.9706 47.8745 33V9C47.8745 4.02944 51.904 0 56.8745 0ZM65.677 10.2191V25.3042H68.3919V12.7102C70.709 12.6926 75.7586 13.1719 77.5414 17.4035L80.0433 16.3496C78.7347 13.2431 76.008 11.1736 72.1581 10.3646C69.3752 9.78005 66.9716 10.0618 66.8706 10.0739L65.677 10.2191ZM57.1068 11.9407C57.1068 13.0612 58.0153 13.9698 59.1359 13.9698C60.2566 13.9698 61.165 13.0612 61.165 11.9407C61.165 10.82 60.2566 9.91158 59.1359 9.91158C58.0153 9.91158 57.1068 10.82 57.1068 11.9407ZM80.709 23.4989L83.4632 23.5018L79.5804 18.6304L75.7059 23.4935L77.9565 23.4959C77.8516 24.0595 77.7158 24.5557 77.5562 24.9304C76.1834 28.1542 72.7364 29.7889 67.3117 29.7889H60.3989V17.5176H57.684V32.5038H67.3117C73.9274 32.5038 78.2146 30.3135 80.0541 25.9941C80.3393 25.3241 80.5624 24.4597 80.709 23.4989Z" fill="black"/>
</g>
<defs>
<clipPath id="clip0_2_433">
<rect width="90" height="42" fill="white" transform="translate(0.0078125)"/>
</clipPath>
</defs>
</svg>
