<svg width="181" height="65" viewBox="0 0 181 65" fill="none" xmlns="http://www.w3.org/2000/svg">
<path d="M0.404933 31.9079L10.4204 14.7562L20.4542 31.8974L0.404933 31.9079Z" fill="#3810DB"/>
<path d="M11.4018 14.1825L31.4511 14.172L21.4357 31.3237L11.4018 14.1825Z" fill="#9747FF"/>
<path d="M32.3343 14.7742L42.3589 31.9206H22.3096L32.3343 14.7742Z" fill="#DA1710"/>
<path d="M42.3128 33.0921L32.2974 50.2438L22.2636 33.1026L42.3128 33.0921Z" fill="#DC4E41"/>
<path d="M31.3159 50.8175L11.2667 50.828L21.2821 33.6763L31.3159 50.8175Z" fill="#FABB05"/>
<path d="M10.3835 50.287L0.358887 33.1406L20.4082 33.1406L10.3835 50.287Z" fill="#78C339"/>
<path d="M63.4309 37.074H59.1829L58.5529 39H54.3589L59.0209 26.256H63.6289L68.2729 39H64.0609L63.4309 37.074ZM62.4589 34.068L61.3069 30.522L60.1549 34.068H62.4589ZM77.7128 32.466C78.4808 32.646 79.0748 33.018 79.4948 33.582C79.9268 34.134 80.1428 34.776 80.1428 35.508C80.1428 36.624 79.7708 37.488 79.0268 38.1C78.2948 38.7 77.2388 39 75.8588 39H69.1808V26.256H75.6788C76.9748 26.256 77.9948 26.538 78.7388 27.102C79.4828 27.666 79.8548 28.488 79.8548 29.568C79.8548 30.312 79.6568 30.942 79.2608 31.458C78.8768 31.962 78.3608 32.298 77.7128 32.466ZM73.1768 31.224H74.7248C75.0848 31.224 75.3488 31.152 75.5168 31.008C75.6968 30.864 75.7868 30.642 75.7868 30.342C75.7868 30.03 75.6968 29.802 75.5168 29.658C75.3488 29.502 75.0848 29.424 74.7248 29.424H73.1768V31.224ZM74.9948 35.796C75.3548 35.796 75.6188 35.73 75.7868 35.598C75.9668 35.454 76.0568 35.226 76.0568 34.914C76.0568 34.302 75.7028 33.996 74.9948 33.996H73.1768V35.796H74.9948ZM81.1254 32.61C81.1254 31.35 81.3774 30.228 81.8814 29.244C82.3974 28.26 83.1294 27.498 84.0774 26.958C85.0254 26.406 86.1414 26.13 87.4254 26.13C88.5294 26.13 89.5134 26.34 90.3774 26.76C91.2534 27.168 91.9615 27.75 92.5015 28.506C93.0534 29.262 93.4194 30.144 93.5995 31.152H89.3874C89.1954 30.732 88.9194 30.408 88.5594 30.18C88.2114 29.94 87.8094 29.82 87.3534 29.82C86.6814 29.82 86.1474 30.072 85.7514 30.576C85.3674 31.08 85.1754 31.758 85.1754 32.61C85.1754 33.462 85.3674 34.14 85.7514 34.644C86.1474 35.148 86.6814 35.4 87.3534 35.4C87.8094 35.4 88.2114 35.286 88.5594 35.058C88.9194 34.818 89.1954 34.488 89.3874 34.068H93.5995C93.4194 35.076 93.0534 35.958 92.5015 36.714C91.9615 37.47 91.2534 38.058 90.3774 38.478C89.5134 38.886 88.5294 39.09 87.4254 39.09C86.1414 39.09 85.0254 38.82 84.0774 38.28C83.1294 37.728 82.3974 36.96 81.8814 35.976C81.3774 34.992 81.1254 33.87 81.1254 32.61ZM106.629 32.466C107.397 32.646 107.991 33.018 108.411 33.582C108.843 34.134 109.059 34.776 109.059 35.508C109.059 36.624 108.687 37.488 107.943 38.1C107.211 38.7 106.155 39 104.775 39H98.0968V26.256H104.595C105.891 26.256 106.911 26.538 107.655 27.102C108.399 27.666 108.771 28.488 108.771 29.568C108.771 30.312 108.573 30.942 108.177 31.458C107.793 31.962 107.277 32.298 106.629 32.466ZM102.093 31.224H103.641C104.001 31.224 104.265 31.152 104.433 31.008C104.613 30.864 104.703 30.642 104.703 30.342C104.703 30.03 104.613 29.802 104.433 29.658C104.265 29.502 104.001 29.424 103.641 29.424H102.093V31.224ZM103.911 35.796C104.271 35.796 104.535 35.73 104.703 35.598C104.883 35.454 104.973 35.226 104.973 34.914C104.973 34.302 104.619 33.996 103.911 33.996H102.093V35.796H103.911ZM118.573 37.074H114.325L113.695 39H109.501L114.163 26.256H118.771L123.415 39H119.203L118.573 37.074ZM117.601 34.068L116.449 30.522L115.297 34.068H117.601ZM136.545 39H132.549L128.319 32.592V39H124.323V26.256H128.319L132.549 32.772V26.256H136.545V39ZM146.055 39L142.347 33.474V39H138.351V26.256H142.347V31.62L146.001 26.256H150.519L146.127 32.358L150.807 39H146.055Z" fill="black"/>
</svg>
