<svg width="122" height="44" viewBox="0 0 122 44" fill="none" xmlns="http://www.w3.org/2000/svg">
<path d="M16.0395 21.4925L24.6241 6.79107L33.2246 21.4835L16.0395 21.4925Z" fill="#3810DB"/>
<path d="M25.4654 6.29927L42.6505 6.29028L34.0658 20.9917L25.4654 6.29927Z" fill="#9747FF"/>
<path d="M43.4075 6.80648L52 21.5034H34.8149L43.4075 6.80648Z" fill="#DA1710"/>
<path d="M51.9605 22.5075L43.3759 37.2089L34.7754 22.5165L51.9605 22.5075Z" fill="#DC4E41"/>
<path d="M42.5346 37.7007L25.3495 37.7097L33.9342 23.0083L42.5346 37.7007Z" fill="#FABB05"/>
<path d="M24.5925 37.246L16 22.549L33.1851 22.5491L24.5925 37.246Z" fill="#78C339"/>
<path d="M71.056 17.502H67.752L67.262 19H64L67.626 9.088H71.21L74.822 19H71.546L71.056 17.502ZM70.3 15.164L69.404 12.406L68.508 15.164H70.3ZM82.1641 13.918C82.7615 14.058 83.2235 14.3473 83.5501 14.786C83.8861 15.2153 84.0541 15.7147 84.0541 16.284C84.0541 17.152 83.7648 17.824 83.1861 18.3C82.6168 18.7667 81.7955 19 80.7221 19H75.5281V9.088H80.5821C81.5901 9.088 82.3835 9.30733 82.9621 9.746C83.5408 10.1847 83.8301 10.824 83.8301 11.664C83.8301 12.2427 83.6761 12.7327 83.3681 13.134C83.0695 13.526 82.6681 13.7873 82.1641 13.918ZM78.6361 12.952H79.8401C80.1201 12.952 80.3255 12.896 80.4561 12.784C80.5961 12.672 80.6661 12.4993 80.6661 12.266C80.6661 12.0233 80.5961 11.846 80.4561 11.734C80.3255 11.6127 80.1201 11.552 79.8401 11.552H78.6361V12.952ZM80.0501 16.508C80.3301 16.508 80.5355 16.4567 80.6661 16.354C80.8061 16.242 80.8761 16.0647 80.8761 15.822C80.8761 15.346 80.6008 15.108 80.0501 15.108H78.6361V16.508H80.0501ZM84.8184 14.03C84.8184 13.05 85.0144 12.1773 85.4064 11.412C85.8078 10.6467 86.3771 10.054 87.1144 9.634C87.8518 9.20467 88.7198 8.99 89.7184 8.99C90.5771 8.99 91.3424 9.15333 92.0144 9.48C92.6958 9.79733 93.2464 10.25 93.6664 10.838C94.0958 11.426 94.3804 12.112 94.5204 12.896H91.2444C91.0951 12.5693 90.8804 12.3173 90.6004 12.14C90.3298 11.9533 90.0171 11.86 89.6624 11.86C89.1398 11.86 88.7244 12.056 88.4164 12.448C88.1178 12.84 87.9684 13.3673 87.9684 14.03C87.9684 14.6927 88.1178 15.22 88.4164 15.612C88.7244 16.004 89.1398 16.2 89.6624 16.2C90.0171 16.2 90.3298 16.1113 90.6004 15.934C90.8804 15.7473 91.0951 15.4907 91.2444 15.164H94.5204C94.3804 15.948 94.0958 16.634 93.6664 17.222C93.2464 17.81 92.6958 18.2673 92.0144 18.594C91.3424 18.9113 90.5771 19.07 89.7184 19.07C88.7198 19.07 87.8518 18.86 87.1144 18.44C86.3771 18.0107 85.8078 17.4133 85.4064 16.648C85.0144 15.8827 84.8184 15.01 84.8184 14.03ZM71.336 28.918C71.9333 29.058 72.3953 29.3473 72.722 29.786C73.058 30.2153 73.226 30.7147 73.226 31.284C73.226 32.152 72.9367 32.824 72.358 33.3C71.7887 33.7667 70.9673 34 69.894 34H64.7V24.088H69.754C70.762 24.088 71.5553 24.3073 72.134 24.746C72.7127 25.1847 73.002 25.824 73.002 26.664C73.002 27.2427 72.848 27.7327 72.54 28.134C72.2413 28.526 71.84 28.7873 71.336 28.918ZM67.808 27.952H69.012C69.292 27.952 69.4973 27.896 69.628 27.784C69.768 27.672 69.838 27.4993 69.838 27.266C69.838 27.0233 69.768 26.846 69.628 26.734C69.4973 26.6127 69.292 26.552 69.012 26.552H67.808V27.952ZM69.222 31.508C69.502 31.508 69.7073 31.4567 69.838 31.354C69.978 31.242 70.048 31.0647 70.048 30.822C70.048 30.346 69.7727 30.108 69.222 30.108H67.808V31.508H69.222ZM80.6263 32.502H77.3223L76.8323 34H73.5703L77.1963 24.088H80.7803L84.3923 34H81.1163L80.6263 32.502ZM79.8703 30.164L78.9743 27.406L78.0783 30.164H79.8703ZM94.6044 34H91.4964L88.2064 29.016V34H85.0984V24.088H88.2064L91.4964 29.156V24.088H94.6044V34ZM102.001 34L99.1166 29.702V34H96.0086V24.088H99.1166V28.26L101.959 24.088H105.473L102.057 28.834L105.697 34H102.001Z" fill="black"/>
</svg>
