<svg width="123" height="44" viewBox="0 0 123 44" fill="none" xmlns="http://www.w3.org/2000/svg">
<path d="M0.398355 21.4925L8.98302 6.79107L17.5834 21.4835L0.398355 21.4925Z" fill="#3810DB"/>
<path d="M9.82427 6.29927L27.0094 6.29028L18.4247 20.9917L9.82427 6.29927Z" fill="#9747FF"/>
<path d="M27.7663 6.80648L36.3589 21.5034H19.1738L27.7663 6.80648Z" fill="#DA1710"/>
<path d="M36.3194 22.5075L27.7348 37.2089L19.1343 22.5165L36.3194 22.5075Z" fill="#DC4E41"/>
<path d="M26.8935 37.7007L9.70841 37.7097L18.2931 23.0083L26.8935 37.7007Z" fill="#FABB05"/>
<path d="M8.95143 37.246L0.358887 22.549L17.544 22.5491L8.95143 37.246Z" fill="#78C339"/>
<path d="M55.4149 17.502H52.1109L51.6209 19H48.3589L51.9849 9.088H55.5689L59.1809 19H55.9049L55.4149 17.502ZM54.6589 15.164L53.7629 12.406L52.8669 15.164H54.6589ZM66.523 13.918C67.1203 14.058 67.5823 14.3473 67.909 14.786C68.245 15.2153 68.413 15.7147 68.413 16.284C68.413 17.152 68.1237 17.824 67.545 18.3C66.9757 18.7667 66.1543 19 65.081 19H59.887V9.088H64.941C65.949 9.088 66.7423 9.30733 67.321 9.746C67.8997 10.1847 68.189 10.824 68.189 11.664C68.189 12.2427 68.035 12.7327 67.727 13.134C67.4283 13.526 67.027 13.7873 66.523 13.918ZM62.995 12.952H64.199C64.479 12.952 64.6843 12.896 64.815 12.784C64.955 12.672 65.025 12.4993 65.025 12.266C65.025 12.0233 64.955 11.846 64.815 11.734C64.6843 11.6127 64.479 11.552 64.199 11.552H62.995V12.952ZM64.409 16.508C64.689 16.508 64.8943 16.4567 65.025 16.354C65.165 16.242 65.235 16.0647 65.235 15.822C65.235 15.346 64.9597 15.108 64.409 15.108H62.995V16.508H64.409ZM69.1773 14.03C69.1773 13.05 69.3733 12.1773 69.7653 11.412C70.1667 10.6467 70.736 10.054 71.4733 9.634C72.2107 9.20467 73.0787 8.99 74.0773 8.99C74.936 8.99 75.7013 9.15333 76.3733 9.48C77.0547 9.79733 77.6053 10.25 78.0253 10.838C78.4547 11.426 78.7393 12.112 78.8793 12.896H75.6033C75.454 12.5693 75.2393 12.3173 74.9593 12.14C74.6887 11.9533 74.376 11.86 74.0213 11.86C73.4987 11.86 73.0833 12.056 72.7753 12.448C72.4767 12.84 72.3273 13.3673 72.3273 14.03C72.3273 14.6927 72.4767 15.22 72.7753 15.612C73.0833 16.004 73.4987 16.2 74.0213 16.2C74.376 16.2 74.6887 16.1113 74.9593 15.934C75.2393 15.7473 75.454 15.4907 75.6033 15.164H78.8793C78.7393 15.948 78.4547 16.634 78.0253 17.222C77.6053 17.81 77.0547 18.2673 76.3733 18.594C75.7013 18.9113 74.936 19.07 74.0773 19.07C73.0787 19.07 72.2107 18.86 71.4733 18.44C70.736 18.0107 70.1667 17.4133 69.7653 16.648C69.3733 15.8827 69.1773 15.01 69.1773 14.03ZM55.6949 28.918C56.2922 29.058 56.7542 29.3473 57.0809 29.786C57.4169 30.2153 57.5849 30.7147 57.5849 31.284C57.5849 32.152 57.2956 32.824 56.7169 33.3C56.1476 33.7667 55.3262 34 54.2529 34H49.0589V24.088H54.1129C55.1209 24.088 55.9142 24.3073 56.4929 24.746C57.0716 25.1847 57.3609 25.824 57.3609 26.664C57.3609 27.2427 57.2069 27.7327 56.8989 28.134C56.6002 28.526 56.1989 28.7873 55.6949 28.918ZM52.1669 27.952H53.3709C53.6509 27.952 53.8562 27.896 53.9869 27.784C54.1269 27.672 54.1969 27.4993 54.1969 27.266C54.1969 27.0233 54.1269 26.846 53.9869 26.734C53.8562 26.6127 53.6509 26.552 53.3709 26.552H52.1669V27.952ZM53.5809 31.508C53.8609 31.508 54.0662 31.4567 54.1969 31.354C54.3369 31.242 54.4069 31.0647 54.4069 30.822C54.4069 30.346 54.1316 30.108 53.5809 30.108H52.1669V31.508H53.5809ZM64.9852 32.502H61.6812L61.1912 34H57.9292L61.5552 24.088H65.1392L68.7512 34H65.4752L64.9852 32.502ZM64.2292 30.164L63.3332 27.406L62.4372 30.164H64.2292ZM78.9633 34H75.8553L72.5653 29.016V34H69.4573V24.088H72.5653L75.8553 29.156V24.088H78.9633V34ZM86.3595 34L83.4755 29.702V34H80.3675V24.088H83.4755V28.26L86.3175 24.088H89.8315L86.4155 28.834L90.0555 34H86.3595Z" fill="black"/>
</svg>
