<svg width="180" height="65" viewBox="0 0 180 65" fill="none" xmlns="http://www.w3.org/2000/svg">
<path d="M29.046 31.9079L39.0615 14.7562L49.0953 31.8974L29.046 31.9079Z" fill="#3810DB"/>
<path d="M40.043 14.1825L60.0922 14.172L50.0768 31.3237L40.043 14.1825Z" fill="#9747FF"/>
<path d="M60.9754 14.7742L71 31.9206H50.9507L60.9754 14.7742Z" fill="#DA1710"/>
<path d="M70.954 33.0921L60.9385 50.2438L50.9047 33.1026L70.954 33.0921Z" fill="#DC4E41"/>
<path d="M59.957 50.8175L39.9078 50.828L49.9232 33.6763L59.957 50.8175Z" fill="#FABB05"/>
<path d="M39.0246 50.287L29 33.1406L49.0493 33.1406L39.0246 50.287Z" fill="#78C339"/>
<path d="M92.072 37.074H87.824L87.194 39H83L87.662 26.256H92.27L96.914 39H92.702L92.072 37.074ZM91.1 34.068L89.948 30.522L88.796 34.068H91.1ZM106.354 32.466C107.122 32.646 107.716 33.018 108.136 33.582C108.568 34.134 108.784 34.776 108.784 35.508C108.784 36.624 108.412 37.488 107.668 38.1C106.936 38.7 105.88 39 104.5 39H97.8219V26.256H104.32C105.616 26.256 106.636 26.538 107.38 27.102C108.124 27.666 108.496 28.488 108.496 29.568C108.496 30.312 108.298 30.942 107.902 31.458C107.518 31.962 107.002 32.298 106.354 32.466ZM101.818 31.224H103.366C103.726 31.224 103.99 31.152 104.158 31.008C104.338 30.864 104.428 30.642 104.428 30.342C104.428 30.03 104.338 29.802 104.158 29.658C103.99 29.502 103.726 29.424 103.366 29.424H101.818V31.224ZM103.636 35.796C103.996 35.796 104.26 35.73 104.428 35.598C104.608 35.454 104.698 35.226 104.698 34.914C104.698 34.302 104.344 33.996 103.636 33.996H101.818V35.796H103.636ZM109.767 32.61C109.767 31.35 110.019 30.228 110.523 29.244C111.039 28.26 111.771 27.498 112.719 26.958C113.667 26.406 114.783 26.13 116.067 26.13C117.171 26.13 118.155 26.34 119.019 26.76C119.895 27.168 120.603 27.75 121.143 28.506C121.695 29.262 122.061 30.144 122.241 31.152H118.029C117.837 30.732 117.561 30.408 117.201 30.18C116.853 29.94 116.451 29.82 115.995 29.82C115.323 29.82 114.789 30.072 114.393 30.576C114.009 31.08 113.817 31.758 113.817 32.61C113.817 33.462 114.009 34.14 114.393 34.644C114.789 35.148 115.323 35.4 115.995 35.4C116.451 35.4 116.853 35.286 117.201 35.058C117.561 34.818 117.837 34.488 118.029 34.068H122.241C122.061 35.076 121.695 35.958 121.143 36.714C120.603 37.47 119.895 38.058 119.019 38.478C118.155 38.886 117.171 39.09 116.067 39.09C114.783 39.09 113.667 38.82 112.719 38.28C111.771 37.728 111.039 36.96 110.523 35.976C110.019 34.992 109.767 33.87 109.767 32.61ZM135.27 32.466C136.038 32.646 136.632 33.018 137.052 33.582C137.484 34.134 137.7 34.776 137.7 35.508C137.7 36.624 137.328 37.488 136.584 38.1C135.852 38.7 134.796 39 133.416 39H126.738V26.256H133.236C134.532 26.256 135.552 26.538 136.296 27.102C137.04 27.666 137.412 28.488 137.412 29.568C137.412 30.312 137.214 30.942 136.818 31.458C136.434 31.962 135.918 32.298 135.27 32.466ZM130.734 31.224H132.282C132.642 31.224 132.906 31.152 133.074 31.008C133.254 30.864 133.344 30.642 133.344 30.342C133.344 30.03 133.254 29.802 133.074 29.658C132.906 29.502 132.642 29.424 132.282 29.424H130.734V31.224ZM132.552 35.796C132.912 35.796 133.176 35.73 133.344 35.598C133.524 35.454 133.614 35.226 133.614 34.914C133.614 34.302 133.26 33.996 132.552 33.996H130.734V35.796H132.552ZM147.215 37.074H142.967L142.337 39H138.143L142.805 26.256H147.413L152.057 39H147.845L147.215 37.074ZM146.243 34.068L145.091 30.522L143.939 34.068H146.243ZM165.186 39H161.19L156.96 32.592V39H152.964V26.256H156.96L161.19 32.772V26.256H165.186V39ZM174.696 39L170.988 33.474V39H166.992V26.256H170.988V31.62L174.642 26.256H179.16L174.768 32.358L179.448 39H174.696Z" fill="black"/>
</svg>
