<svg width="180" height="65" viewBox="0 0 180 65" fill="none" xmlns="http://www.w3.org/2000/svg">
<path d="M14.546 31.9079L24.5615 14.7562L34.5953 31.8974L14.546 31.9079Z" fill="#3810DB"/>
<path d="M25.543 14.1825L45.5922 14.172L35.5768 31.3237L25.543 14.1825Z" fill="#9747FF"/>
<path d="M46.4754 14.7742L56.5 31.9206H36.4507L46.4754 14.7742Z" fill="#DA1710"/>
<path d="M56.454 33.0921L46.4385 50.2438L36.4047 33.1026L56.454 33.0921Z" fill="#DC4E41"/>
<path d="M45.457 50.8175L25.4078 50.828L35.4232 33.6763L45.457 50.8175Z" fill="#FABB05"/>
<path d="M24.5246 50.287L14.5 33.1406L34.5493 33.1406L24.5246 50.287Z" fill="#78C339"/>
<path d="M77.572 37.074H73.324L72.694 39H68.5L73.162 26.256H77.77L82.414 39H78.202L77.572 37.074ZM76.6 34.068L75.448 30.522L74.296 34.068H76.6ZM91.8539 32.466C92.6219 32.646 93.2159 33.018 93.6359 33.582C94.0679 34.134 94.2839 34.776 94.2839 35.508C94.2839 36.624 93.9119 37.488 93.1679 38.1C92.4359 38.7 91.3799 39 89.9999 39H83.3219V26.256H89.8199C91.1159 26.256 92.1359 26.538 92.8799 27.102C93.6239 27.666 93.9959 28.488 93.9959 29.568C93.9959 30.312 93.7979 30.942 93.4019 31.458C93.0179 31.962 92.5019 32.298 91.8539 32.466ZM87.3179 31.224H88.8659C89.2259 31.224 89.4899 31.152 89.6579 31.008C89.8379 30.864 89.9279 30.642 89.9279 30.342C89.9279 30.03 89.8379 29.802 89.6579 29.658C89.4899 29.502 89.2259 29.424 88.8659 29.424H87.3179V31.224ZM89.1359 35.796C89.4959 35.796 89.7599 35.73 89.9279 35.598C90.1079 35.454 90.1979 35.226 90.1979 34.914C90.1979 34.302 89.8439 33.996 89.1359 33.996H87.3179V35.796H89.1359ZM95.2666 32.61C95.2666 31.35 95.5186 30.228 96.0226 29.244C96.5386 28.26 97.2706 27.498 98.2186 26.958C99.1666 26.406 100.283 26.13 101.567 26.13C102.671 26.13 103.655 26.34 104.519 26.76C105.395 27.168 106.103 27.75 106.643 28.506C107.195 29.262 107.561 30.144 107.741 31.152H103.529C103.337 30.732 103.061 30.408 102.701 30.18C102.353 29.94 101.951 29.82 101.495 29.82C100.823 29.82 100.289 30.072 99.8926 30.576C99.5086 31.08 99.3166 31.758 99.3166 32.61C99.3166 33.462 99.5086 34.14 99.8926 34.644C100.289 35.148 100.823 35.4 101.495 35.4C101.951 35.4 102.353 35.286 102.701 35.058C103.061 34.818 103.337 34.488 103.529 34.068H107.741C107.561 35.076 107.195 35.958 106.643 36.714C106.103 37.47 105.395 38.058 104.519 38.478C103.655 38.886 102.671 39.09 101.567 39.09C100.283 39.09 99.1666 38.82 98.2186 38.28C97.2706 37.728 96.5386 36.96 96.0226 35.976C95.5186 34.992 95.2666 33.87 95.2666 32.61ZM120.77 32.466C121.538 32.646 122.132 33.018 122.552 33.582C122.984 34.134 123.2 34.776 123.2 35.508C123.2 36.624 122.828 37.488 122.084 38.1C121.352 38.7 120.296 39 118.916 39H112.238V26.256H118.736C120.032 26.256 121.052 26.538 121.796 27.102C122.54 27.666 122.912 28.488 122.912 29.568C122.912 30.312 122.714 30.942 122.318 31.458C121.934 31.962 121.418 32.298 120.77 32.466ZM116.234 31.224H117.782C118.142 31.224 118.406 31.152 118.574 31.008C118.754 30.864 118.844 30.642 118.844 30.342C118.844 30.03 118.754 29.802 118.574 29.658C118.406 29.502 118.142 29.424 117.782 29.424H116.234V31.224ZM118.052 35.796C118.412 35.796 118.676 35.73 118.844 35.598C119.024 35.454 119.114 35.226 119.114 34.914C119.114 34.302 118.76 33.996 118.052 33.996H116.234V35.796H118.052ZM132.715 37.074H128.467L127.837 39H123.643L128.305 26.256H132.913L137.557 39H133.345L132.715 37.074ZM131.743 34.068L130.591 30.522L129.439 34.068H131.743ZM150.686 39H146.69L142.46 32.592V39H138.464V26.256H142.46L146.69 32.772V26.256H150.686V39ZM160.196 39L156.488 33.474V39H152.492V26.256H156.488V31.62L160.142 26.256H164.66L160.268 32.358L164.948 39H160.196Z" fill="black"/>
</svg>
