<svg width="122" height="44" viewBox="0 0 122 44" fill="none" xmlns="http://www.w3.org/2000/svg">
<path d="M32.0395 21.4925L40.6241 6.79107L49.2246 21.4835L32.0395 21.4925Z" fill="#3810DB"/>
<path d="M41.4654 6.29927L58.6505 6.29028L50.0658 20.9917L41.4654 6.29927Z" fill="#9747FF"/>
<path d="M59.4075 6.80648L68 21.5034H50.8149L59.4075 6.80648Z" fill="#DA1710"/>
<path d="M67.9605 22.5075L59.3759 37.2089L50.7754 22.5165L67.9605 22.5075Z" fill="#DC4E41"/>
<path d="M58.5346 37.7007L41.3495 37.7097L49.9342 23.0083L58.5346 37.7007Z" fill="#FABB05"/>
<path d="M40.5925 37.246L32 22.549L49.1851 22.5491L40.5925 37.246Z" fill="#78C339"/>
<path d="M87.056 17.502H83.752L83.262 19H80L83.626 9.088H87.21L90.822 19H87.546L87.056 17.502ZM86.3 15.164L85.404 12.406L84.508 15.164H86.3ZM98.1641 13.918C98.7615 14.058 99.2235 14.3473 99.5501 14.786C99.8861 15.2153 100.054 15.7147 100.054 16.284C100.054 17.152 99.7648 17.824 99.1861 18.3C98.6168 18.7667 97.7955 19 96.7221 19H91.5281V9.088H96.5821C97.5901 9.088 98.3835 9.30733 98.9621 9.746C99.5408 10.1847 99.8301 10.824 99.8301 11.664C99.8301 12.2427 99.6761 12.7327 99.3681 13.134C99.0695 13.526 98.6681 13.7873 98.1641 13.918ZM94.6361 12.952H95.8401C96.1201 12.952 96.3255 12.896 96.4561 12.784C96.5961 12.672 96.6661 12.4993 96.6661 12.266C96.6661 12.0233 96.5961 11.846 96.4561 11.734C96.3255 11.6127 96.1201 11.552 95.8401 11.552H94.6361V12.952ZM96.0501 16.508C96.3301 16.508 96.5355 16.4567 96.6661 16.354C96.8061 16.242 96.8761 16.0647 96.8761 15.822C96.8761 15.346 96.6008 15.108 96.0501 15.108H94.6361V16.508H96.0501ZM100.818 14.03C100.818 13.05 101.014 12.1773 101.406 11.412C101.808 10.6467 102.377 10.054 103.114 9.634C103.852 9.20467 104.72 8.99 105.718 8.99C106.577 8.99 107.342 9.15333 108.014 9.48C108.696 9.79733 109.246 10.25 109.666 10.838C110.096 11.426 110.38 12.112 110.52 12.896H107.244C107.095 12.5693 106.88 12.3173 106.6 12.14C106.33 11.9533 106.017 11.86 105.662 11.86C105.14 11.86 104.724 12.056 104.416 12.448C104.118 12.84 103.968 13.3673 103.968 14.03C103.968 14.6927 104.118 15.22 104.416 15.612C104.724 16.004 105.14 16.2 105.662 16.2C106.017 16.2 106.33 16.1113 106.6 15.934C106.88 15.7473 107.095 15.4907 107.244 15.164H110.52C110.38 15.948 110.096 16.634 109.666 17.222C109.246 17.81 108.696 18.2673 108.014 18.594C107.342 18.9113 106.577 19.07 105.718 19.07C104.72 19.07 103.852 18.86 103.114 18.44C102.377 18.0107 101.808 17.4133 101.406 16.648C101.014 15.8827 100.818 15.01 100.818 14.03ZM87.336 28.918C87.9333 29.058 88.3953 29.3473 88.722 29.786C89.058 30.2153 89.226 30.7147 89.226 31.284C89.226 32.152 88.9367 32.824 88.358 33.3C87.7887 33.7667 86.9673 34 85.894 34H80.7V24.088H85.754C86.762 24.088 87.5553 24.3073 88.134 24.746C88.7127 25.1847 89.002 25.824 89.002 26.664C89.002 27.2427 88.848 27.7327 88.54 28.134C88.2413 28.526 87.84 28.7873 87.336 28.918ZM83.808 27.952H85.012C85.292 27.952 85.4973 27.896 85.628 27.784C85.768 27.672 85.838 27.4993 85.838 27.266C85.838 27.0233 85.768 26.846 85.628 26.734C85.4973 26.6127 85.292 26.552 85.012 26.552H83.808V27.952ZM85.222 31.508C85.502 31.508 85.7073 31.4567 85.838 31.354C85.978 31.242 86.048 31.0647 86.048 30.822C86.048 30.346 85.7727 30.108 85.222 30.108H83.808V31.508H85.222ZM96.6263 32.502H93.3223L92.8323 34H89.5703L93.1963 24.088H96.7803L100.392 34H97.1163L96.6263 32.502ZM95.8703 30.164L94.9743 27.406L94.0783 30.164H95.8703ZM110.604 34H107.496L104.206 29.016V34H101.098V24.088H104.206L107.496 29.156V24.088H110.604V34ZM118.001 34L115.117 29.702V34H112.009V24.088H115.117V28.26L117.959 24.088H121.473L118.057 28.834L121.697 34H118.001Z" fill="black"/>
</svg>
