<svg width="553" height="129" viewBox="0 0 553 129" fill="none" xmlns="http://www.w3.org/2000/svg">
<path d="M0.159118 62.0628L34.7684 2.04446L69.4411 62.0261L0.159118 62.0628Z" fill="#3810DB"/>
<path d="M38.1599 0.0366785L107.442 0L72.8327 60.0183L38.1599 0.0366785Z" fill="#9747FF"/>
<path d="M110.494 2.10738L145.135 62.1074H75.8527L110.494 2.10738Z" fill="#DA1710"/>
<path d="M144.976 66.2066L110.366 126.225L75.6936 66.2433L144.976 66.2066Z" fill="#DC4E41"/>
<path d="M106.975 128.233L37.6928 128.269L72.3021 68.2511L106.975 128.233Z" fill="#FABB05"/>
<path d="M34.641 126.376L0 66.3762L69.282 66.3762L34.641 126.376Z" fill="#78C339"/>
<path d="M198.256 79.5282H183.152L180.912 86.3762H166L182.576 41.0642H198.96L215.472 86.3762H200.496L198.256 79.5282ZM194.8 68.8402L190.704 56.2322L186.608 68.8402H194.8ZM249.036 63.1442C251.767 63.7842 253.879 65.1069 255.372 67.1122C256.908 69.0749 257.676 71.3576 257.676 73.9602C257.676 77.9282 256.353 81.0002 253.708 83.1762C251.105 85.3096 247.351 86.3762 242.444 86.3762H218.7V41.0642H241.804C246.412 41.0642 250.039 42.0669 252.684 44.0722C255.329 46.0776 256.652 49.0002 256.652 52.8402C256.652 55.4856 255.948 57.7256 254.54 59.5602C253.175 61.3522 251.34 62.5469 249.036 63.1442ZM232.908 58.7282H238.412C239.692 58.7282 240.631 58.4722 241.228 57.9602C241.868 57.4482 242.188 56.6589 242.188 55.5922C242.188 54.4829 241.868 53.6722 241.228 53.1602C240.631 52.6056 239.692 52.3282 238.412 52.3282H232.908V58.7282ZM239.372 74.9842C240.652 74.9842 241.591 74.7496 242.188 74.2802C242.828 73.7682 243.148 72.9576 243.148 71.8482C243.148 69.6722 241.889 68.5842 239.372 68.5842H232.908V74.9842H239.372ZM261.17 63.6562C261.17 59.1762 262.066 55.1869 263.858 51.6882C265.693 48.1896 268.295 45.4802 271.666 43.5602C275.037 41.5976 279.005 40.6162 283.57 40.6162C287.495 40.6162 290.994 41.3629 294.066 42.8562C297.181 44.3069 299.698 46.3762 301.618 49.0642C303.581 51.7522 304.882 54.8882 305.522 58.4722H290.546C289.863 56.9789 288.882 55.8269 287.602 55.0162C286.365 54.1629 284.935 53.7362 283.314 53.7362C280.925 53.7362 279.026 54.6322 277.618 56.4242C276.253 58.2162 275.57 60.6269 275.57 63.6562C275.57 66.6856 276.253 69.0962 277.618 70.8882C279.026 72.6802 280.925 73.5762 283.314 73.5762C284.935 73.5762 286.365 73.1709 287.602 72.3602C288.882 71.5069 289.863 70.3336 290.546 68.8402H305.522C304.882 72.4242 303.581 75.5602 301.618 78.2482C299.698 80.9362 297.181 83.0269 294.066 84.5202C290.994 85.9709 287.495 86.6962 283.57 86.6962C279.005 86.6962 275.037 85.7362 271.666 83.8162C268.295 81.8536 265.693 79.1229 263.858 75.6242C262.066 72.1256 261.17 68.1362 261.17 63.6562ZM351.849 63.1442C354.579 63.7842 356.691 65.1069 358.185 67.1122C359.721 69.0749 360.489 71.3576 360.489 73.9602C360.489 77.9282 359.166 81.0002 356.521 83.1762C353.918 85.3096 350.163 86.3762 345.257 86.3762H321.513V41.0642H344.617C349.225 41.0642 352.851 42.0669 355.497 44.0722C358.142 46.0776 359.465 49.0002 359.465 52.8402C359.465 55.4856 358.761 57.7256 357.353 59.5602C355.987 61.3522 354.153 62.5469 351.849 63.1442ZM335.721 58.7282H341.225C342.505 58.7282 343.443 58.4722 344.041 57.9602C344.681 57.4482 345.001 56.6589 345.001 55.5922C345.001 54.4829 344.681 53.6722 344.041 53.1602C343.443 52.6056 342.505 52.3282 341.225 52.3282H335.721V58.7282ZM342.185 74.9842C343.465 74.9842 344.403 74.7496 345.001 74.2802C345.641 73.7682 345.961 72.9576 345.961 71.8482C345.961 69.6722 344.702 68.5842 342.185 68.5842H335.721V74.9842H342.185ZM394.319 79.5282H379.215L376.975 86.3762H362.062L378.639 41.0642H395.023L411.535 86.3762H396.559L394.319 79.5282ZM390.863 68.8402L386.767 56.2322L382.671 68.8402H390.863ZM458.219 86.3762H444.011L428.971 63.5922V86.3762H414.763V41.0642H428.971L444.011 64.2322V41.0642H458.219V86.3762ZM492.03 86.3762L478.846 66.7282V86.3762H464.638V41.0642H478.846V60.1362L491.838 41.0642H507.902L492.286 62.7602L508.926 86.3762H492.03Z" fill="black"/>
</svg>
