<svg width="99" height="51" viewBox="0 0 99 51" fill="none" xmlns="http://www.w3.org/2000/svg">
<g clip-path="url(#clip0_1_284)">
<path d="M13.578 24.438C14.721 24.438 15.768 24.628 16.693 25C17.586 25.3515 18.4007 25.8763 19.09 26.544C19.7507 27.1915 20.2717 27.9674 20.621 28.824C20.9754 29.706 21.1544 30.6485 21.148 31.599C21.148 33.104 20.824 34.429 20.186 35.537C19.674 36.425 18.908 37.15 17.898 37.701C18.228 37.863 18.522 38.056 18.78 38.279C19.25 38.689 19.639 39.179 19.937 39.735C20.2371 40.3034 20.4527 40.9124 20.577 41.543C20.682 42.061 20.761 42.585 20.811 43.106H14.722C14.538 42.118 14.211 41.383 13.745 40.918C13.242 40.414 12.37 40.158 11.154 40.158H6.236V43.472H0V25.57C0.0166163 25.2645 0.149618 24.9769 0.371681 24.7664C0.593743 24.5558 0.888002 24.4383 1.194 24.438H13.578ZM34.311 24.438C34.5544 24.4385 34.7918 24.513 34.9918 24.6516C35.1919 24.7902 35.345 24.9864 35.431 25.214L42.121 43.106L22.039 42.971L28.782 25.12C28.8785 24.9167 29.0306 24.7447 29.2206 24.6241C29.4106 24.5034 29.6309 24.4389 29.856 24.438H34.311ZM50.049 24.438C50.579 24.438 51.02 24.785 51.18 25.262L56.308 40.336L61.154 25.282C61.2294 25.0383 61.3806 24.825 61.5857 24.6732C61.7907 24.5214 62.0389 24.439 62.294 24.438H68.533C68.8383 24.4393 69.1316 24.5568 69.3533 24.7668C69.5749 24.9767 69.7082 25.2632 69.726 25.568L69.716 37.94L63.831 39.424V34.392L61.997 39.685L50.951 41.527L48.499 34.538V42.028L42.605 42.387V25.64C42.605 24.978 43.147 24.438 43.811 24.438H50.049ZM32.037 32.124L29.457 39.39H34.532L32.037 32.124ZM80.02 23.864C81.266 23.864 82.489 24.025 83.641 24.306C84.8117 24.5807 85.9207 25.0718 86.911 25.754C87.504 26.1704 88.0341 26.6698 88.485 27.237C88.555 27.327 88.613 27.407 88.67 27.485C88.714 27.545 88.758 27.606 88.8 27.67C88.821 27.7 88.84 27.73 88.86 27.762C89.0477 28.0387 89.2148 28.3288 89.36 28.63C89.57 29.199 89.402 29.814 88.878 30.147C87.822 30.817 86.348 31.428 85.725 31.639C85.103 31.849 84.705 31.809 84.307 31.239C84.064 30.889 83.476 30.083 82.857 29.694C82.8086 29.6571 82.7585 29.6224 82.707 29.59C82.2956 29.3367 81.8415 29.1605 81.367 29.07C80.508 28.893 79.452 28.817 78.424 29.034C78.048 29.114 77.7 29.254 77.394 29.452C77.094 29.645 76.844 29.89 76.652 30.179C76.473 30.444 76.385 30.8 76.385 31.233C76.385 31.626 76.454 31.938 76.591 32.162C76.685 32.314 76.914 32.549 77.479 32.812C77.985 33.05 78.707 33.295 79.623 33.538C80.37 33.736 81.299 33.976 82.409 34.259L73.481 37.322C73.161 37.112 72.927 36.949 72.777 36.834C72.0414 36.2688 71.436 35.5519 71.002 34.732C70.548 33.888 70.319 32.859 70.319 31.675C70.319 30.351 70.609 29.18 71.18 28.197C71.7363 27.2325 72.495 26.4 73.404 25.757C74.3358 25.1015 75.3766 24.6166 76.478 24.325C77.6333 24.0165 78.8242 23.8619 80.02 23.865V23.864ZM11.666 29.486H6.236V35.467H11.666C12.777 35.467 13.609 35.23 14.138 34.759C14.652 34.303 14.91 33.517 14.91 32.427C14.91 31.382 14.652 30.627 14.14 30.181C13.611 29.721 12.779 29.486 11.666 29.486Z" fill="url(#paint0_linear_1_284)"/>
<path fill-rule="evenodd" clip-rule="evenodd" d="M80.796 33.844C81.524 34.032 82.366 34.248 83.321 34.49C83.767 34.579 84.418 34.748 85.231 34.99C86.075 35.239 86.923 35.641 87.753 36.186C88.595 36.741 89.331 37.488 89.943 38.408C90.568 39.353 90.885 40.565 90.885 42.012C90.885 43.183 90.655 44.289 90.199 45.299C89.731 46.3252 89.028 47.2268 88.147 47.931C87.257 48.658 86.137 49.231 84.827 49.631C83.527 50.029 82.009 50.231 80.312 50.231C78.941 50.231 77.589 50.059 76.295 49.721C74.985 49.38 73.811 48.833 72.804 48.098C71.782 47.3519 70.9485 46.3773 70.37 45.252C70.0685 44.657 69.8489 44.0239 69.717 43.37V48.48C69.717 49.144 69.179 49.682 68.517 49.682H65.023C64.361 49.682 63.823 49.144 63.823 48.481V38.746C65.823 38.324 67.79 37.86 69.717 37.354V41.273C69.8261 41.1056 69.9752 40.9681 70.1509 40.8729C70.3265 40.7777 70.5232 40.7279 70.723 40.728H74.46C75.124 40.728 75.555 41.242 75.607 41.928C75.632 42.24 75.747 42.633 75.959 43.038C76.226 43.541 76.573 43.956 77.003 44.268C77.446 44.586 77.977 44.825 78.581 44.982C79.625 45.252 80.71 45.296 81.99 45.109C82.4783 45.0391 82.9536 44.8969 83.4 44.687C83.8037 44.4969 84.1593 44.2179 84.44 43.871C84.697 43.551 84.82 43.143 84.82 42.626C84.82 42.086 84.658 41.664 84.323 41.337C83.945 40.97 83.436 40.656 82.811 40.407C82.151 40.143 81.391 39.909 80.552 39.71C79.682 39.504 78.792 39.272 77.908 39.023C76.9921 38.7939 76.0909 38.51 75.209 38.173C74.3375 37.8469 73.5182 37.3955 72.777 36.833C72.6767 36.7555 72.5787 36.6751 72.483 36.592C75.2895 35.7869 78.0627 34.8702 80.796 33.844ZM48.493 41.197V48.48C48.4931 48.6377 48.4622 48.7938 48.4019 48.9395C48.3417 49.0852 48.2533 49.2176 48.1419 49.3292C48.0304 49.4407 47.8981 49.5292 47.7525 49.5896C47.6068 49.6499 47.4507 49.681 47.293 49.681L46.558 49.685H38.914C38.6652 49.6803 38.4241 49.5979 38.2243 49.4495C38.0246 49.301 37.8762 49.0939 37.8 48.857L36.231 44.258H27.747L26.123 48.87C26.0437 49.107 25.8919 49.3132 25.6892 49.4594C25.4865 49.6056 25.243 49.6845 24.993 49.685H16.616C16.076 49.685 15.621 49.327 15.469 48.837C15.269 48.15 15.137 47.372 15.082 46.51C15.019 45.4936 14.918 44.4798 14.779 43.471C14.7592 43.3337 14.7359 43.197 14.709 43.061C16.7388 43.0412 18.7685 43.0092 20.798 42.965C20.815 43.128 20.826 43.284 20.838 43.447C20.861 43.842 20.884 44.3 20.907 44.825C20.921 45.142 20.943 45.468 20.969 45.796L22.054 42.931C28.396 42.769 35.028 42.459 41.665 41.886L42.6 44.386V41.805C44.567 41.627 46.534 41.425 48.493 41.197ZM0 43.105L1.52 43.108H2.362L2.802 43.109H3.722L6.236 43.106V48.518C6.22767 48.8301 6.09795 49.1266 5.87442 49.3445C5.65089 49.5624 5.35118 49.6846 5.039 49.685H1.203C0.539 49.685 0.003 49.147 0 48.484V43.105ZM62.2 39.098L58.818 48.858C58.74 49.0975 58.5884 49.3062 58.3847 49.4543C58.1811 49.6025 57.9358 49.6825 57.684 49.683H54.634C54.12 49.683 53.686 49.359 53.515 48.906L50.738 40.921C52.586 40.685 54.418 40.427 56.241 40.138L56.311 40.33L56.374 40.118C58.338 39.806 60.281 39.48 62.2 39.098Z" fill="#78C339"/>
<path d="M66.509 8.334C64.011 13.995 67.589 19.419 73.854 21.07C78.451 22.28 83.646 20.62 85.511 17.132L84.833 16.454C84.6272 16.247 84.5117 15.9669 84.5117 15.675C84.5117 15.3831 84.6272 15.103 84.833 14.896L86.166 13.562C86.173 13.556 86.179 13.552 86.185 13.545C85.818 11.268 83.835 9.765 81.8 9.207C78.555 8.317 75.58 9.414 74.125 11.411C73.931 11.675 74.326 11.846 74.326 11.846C74.326 11.846 75.733 12.496 75.945 12.611C76.158 12.729 76.359 12.516 76.472 12.423C77.324 11.721 78.607 11.203 80.032 11.629C82.024 12.226 82.784 13.836 81.98 15.48C80.908 17.674 77.797 18.203 75.522 17.629C71.816 16.695 70.521 13.502 71.772 10.476C73.228 6.956 78.809 4.956 83.668 6.381C89.203 8.13 91.794 12.761 89.54 17.87C89.05 18.978 88.273 20.11 87.233 21.188C87.132 21.295 87.027 21.399 86.92 21.503C86.89 21.531 86.864 21.559 86.835 21.587C86.6945 21.7221 86.5515 21.8544 86.406 21.984L86.392 21.997C86.2386 22.133 86.0829 22.2663 85.925 22.397C85.918 22.402 85.911 22.407 85.905 22.414C85.739 22.549 85.571 22.683 85.397 22.816C85.497 22.853 85.596 22.892 85.694 22.931L85.732 22.946C86.0619 23.0802 86.3856 23.2294 86.702 23.393C86.774 23.43 86.842 23.469 86.912 23.506L87.013 23.56C87.089 23.603 87.163 23.647 87.238 23.692L87.317 23.737C87.517 23.859 87.714 23.987 87.905 24.12C89.1787 25.0112 90.2084 26.2078 90.9 27.6L90.923 27.647C90.959 27.72 90.994 27.793 91.028 27.869L91.043 27.902C91.12 28.076 91.193 28.252 91.259 28.429C95.811 25.235 97.683 20.905 98.012 20.007L98.014 20.002C98.0179 19.9926 98.0213 19.9829 98.024 19.973C100.208 13.958 98.664 6.483 90.769 2.153C90.3261 1.91178 89.8759 1.68433 89.419 1.471L89.435 1.486C88.7703 1.19242 88.0855 0.946468 87.386 0.75C85.804 0.308 83.896 0.117 82.35 0.033C81.939 0.0109927 81.5275 -1.12338e-05 81.116 8.60572e-09C74.17 8.60573e-09 68.7 3.235 66.509 8.334Z" fill="url(#paint1_linear_1_284)"/>
<path d="M87.235 17.298C87.1576 17.3751 87.0528 17.4184 86.9435 17.4184C86.8342 17.4184 86.7294 17.3751 86.652 17.298L85.32 15.966C85.2429 15.8886 85.1996 15.7838 85.1996 15.6745C85.1996 15.5652 85.2429 15.4604 85.32 15.383L86.652 14.051C86.7296 13.9741 86.8343 13.931 86.9435 13.931C87.0527 13.931 87.1575 13.9741 87.235 14.051L88.566 15.383C88.6043 15.4212 88.6347 15.4665 88.6554 15.5165C88.6761 15.5664 88.6868 15.6199 88.6868 15.674C88.6868 15.7281 88.6761 15.7816 88.6554 15.8315C88.6347 15.8815 88.6043 15.9268 88.566 15.965L87.236 17.298H87.235Z" fill="#0083C2"/>
<path d="M91.618 14.18C91.301 15.318 89.396 19.179 87.285 21.119C86.6992 21.7314 86.0681 22.2986 85.397 22.816C86.293 23.151 87.117 23.581 87.883 24.122C89.0786 24.9545 90.0581 26.0605 90.74 27.348C90.927 27.703 91.129 28.074 91.26 28.428C95.816 25.221 97.694 20.903 98.012 20.008C100.365 13.648 98.51 5.65702 89.414 1.46002C92.534 4.50002 92.944 9.55502 91.618 14.18Z" fill="url(#paint2_linear_1_284)"/>
</g>
<defs>
<linearGradient id="paint0_linear_1_284" x1="44.088" y1="27.1517" x2="44.088" y2="43.9342" gradientUnits="userSpaceOnUse">
<stop stop-color="#00B6F1"/>
<stop offset="0.144" stop-color="#00AEEF"/>
<stop offset="0.316" stop-color="#00A0E0"/>
<stop offset="0.643" stop-color="#007DBA"/>
<stop offset="0.644" stop-color="#007DBA"/>
<stop offset="1" stop-color="#005282"/>
</linearGradient>
<linearGradient id="paint1_linear_1_284" x1="75.6365" y1="15.1075" x2="92.2237" y2="13.0208" gradientUnits="userSpaceOnUse">
<stop stop-color="#0083C2"/>
<stop offset="0.629" stop-color="#0081C0"/>
<stop offset="0.733" stop-color="#007CB9"/>
<stop offset="0.807" stop-color="#0072AE"/>
<stop offset="0.867" stop-color="#00659D"/>
<stop offset="0.918" stop-color="#005387"/>
<stop offset="1" stop-color="#004474"/>
</linearGradient>
<linearGradient id="paint2_linear_1_284" x1="93.6785" y1="1.20922" x2="80.5277" y2="29.6657" gradientUnits="userSpaceOnUse">
<stop stop-color="#6DCFF6"/>
<stop offset="0.431" stop-color="#00AEEF"/>
<stop offset="0.782" stop-color="#0088C7"/>
<stop offset="1" stop-color="#0072AA"/>
</linearGradient>
<clipPath id="clip0_1_284">
<rect width="99" height="51" fill="white"/>
</clipPath>
</defs>
</svg>
