<svg width="122" height="44" viewBox="0 0 122 44" fill="none" xmlns="http://www.w3.org/2000/svg">
<g clip-path="url(#clip0_110_230)">
<path d="M10.069 19.73C10.9 19.73 11.662 19.867 12.334 20.137C13.008 20.407 13.594 20.784 14.078 21.257C14.561 21.731 14.936 22.287 15.191 22.911C15.446 23.533 15.575 24.211 15.575 24.925C15.575 26.016 15.339 26.978 14.875 27.782C14.503 28.426 13.945 28.952 13.211 29.352C13.451 29.469 13.665 29.61 13.851 29.772C14.194 30.068 14.477 30.424 14.693 30.827C14.906 31.224 15.063 31.666 15.159 32.139C15.235 32.515 15.293 32.895 15.329 33.273H10.901C10.767 32.556 10.529 32.023 10.191 31.686C9.82397 31.32 9.19097 31.135 8.30597 31.135H4.72897V33.539H0.19397V20.55C0.206491 20.328 0.303514 20.1193 0.465119 19.9666C0.626724 19.8139 0.840648 19.7289 1.06297 19.729H10.069V19.73ZM25.148 19.73C25.521 19.73 25.836 19.965 25.962 20.293L30.828 33.273L16.223 33.175L21.126 20.224C21.1964 20.0765 21.3071 19.9518 21.4453 19.8644C21.5834 19.777 21.7435 19.7304 21.907 19.73H25.147H25.148ZM36.593 19.73C36.979 19.73 37.3 19.981 37.416 20.327L41.146 31.263L44.669 20.343C44.7239 20.1657 44.8341 20.0106 44.9834 19.9004C45.1327 19.7901 45.3134 19.7304 45.499 19.73H50.036C50.5 19.73 50.876 20.093 50.904 20.549L50.897 29.525L46.617 30.602V26.95L45.283 30.79L37.25 32.127L35.466 27.056V32.49L31.18 32.75V20.6C31.18 20.12 31.574 19.729 32.057 19.729H36.593V19.73ZM23.493 25.306L21.617 30.577H25.307L23.494 25.306H23.493ZM58.391 19.314C59.297 19.314 60.186 19.43 61.024 19.634C61.8754 19.833 62.6822 20.1891 63.403 20.684C63.8338 20.9861 64.2191 21.3484 64.547 21.76C64.598 21.826 64.64 21.883 64.681 21.94C64.713 21.984 64.745 22.028 64.776 22.074L64.82 22.141C64.9563 22.3418 65.0776 22.5524 65.183 22.771C65.336 23.183 65.213 23.631 64.833 23.871C64.064 24.358 62.993 24.801 62.54 24.954C62.087 25.107 61.797 25.077 61.508 24.664C61.331 24.41 60.904 23.825 60.454 23.543C60.4185 23.516 60.3818 23.4907 60.344 23.467C60.0448 23.2834 59.7148 23.1556 59.37 23.09C58.745 22.962 57.977 22.907 57.23 23.064C56.9634 23.1178 56.7091 23.2205 56.48 23.367C56.263 23.507 56.08 23.685 55.94 23.894C55.811 24.087 55.746 24.345 55.746 24.659C55.746 24.944 55.796 25.171 55.896 25.333C55.965 25.443 56.132 25.613 56.542 25.805C56.91 25.978 57.435 26.155 58.102 26.331C58.645 26.475 59.321 26.65 60.128 26.855L53.635 29.077C53.4604 28.9647 53.2897 28.8466 53.123 28.723C52.5882 28.3132 52.1478 27.7931 51.832 27.198C51.502 26.585 51.335 25.839 51.335 24.98C51.335 24.02 51.546 23.17 51.961 22.456C52.366 21.756 52.918 21.1521 53.579 20.686C54.2567 20.2103 55.0134 19.8585 55.814 19.647C56.6546 19.4234 57.5211 19.3114 58.391 19.314ZM8.67797 23.392H4.72797V27.731H8.67797C9.48597 27.731 10.092 27.559 10.476 27.217C10.85 26.887 11.038 26.317 11.038 25.525C11.038 24.767 10.85 24.22 10.478 23.896C10.093 23.562 9.48797 23.392 8.67797 23.392Z" fill="url(#paint0_linear_110_230)"/>
<path fill-rule="evenodd" clip-rule="evenodd" d="M58.954 26.553C59.484 26.69 60.096 26.847 60.791 27.022C61.115 27.086 61.589 27.21 62.181 27.385C62.794 27.565 63.411 27.857 64.014 28.253C64.6478 28.6776 65.1893 29.2259 65.606 29.865C66.061 30.55 66.292 31.43 66.292 32.479C66.292 33.329 66.125 34.132 65.792 34.864C65.4518 35.6089 64.941 36.2632 64.301 36.774C63.653 37.301 62.839 37.716 61.886 38.007C60.941 38.296 59.836 38.442 58.603 38.442C57.605 38.442 56.622 38.318 55.681 38.072C54.7679 37.8426 53.9062 37.4433 53.141 36.895C52.3981 36.354 51.7919 35.6469 51.371 34.83C51.152 34.3981 50.9925 33.9386 50.897 33.464V37.172C50.897 37.653 50.506 38.044 50.024 38.044H47.483C47.2517 38.044 47.0299 37.9521 46.8664 37.7886C46.7028 37.625 46.611 37.4032 46.611 37.172V30.11C48.0476 29.8082 49.4767 29.4714 50.897 29.1V31.943C50.9763 31.8214 51.0847 31.7215 51.2123 31.6524C51.3399 31.5832 51.4828 31.547 51.628 31.547H54.346C54.829 31.547 55.143 31.92 55.181 32.418C55.199 32.645 55.281 32.93 55.436 33.223C55.631 33.589 55.883 33.89 56.196 34.115C56.5429 34.3576 56.9318 34.5339 57.343 34.635C58.103 34.83 58.892 34.862 59.823 34.726C60.1779 34.6753 60.5233 34.5721 60.848 34.42C61.149 34.276 61.404 34.077 61.605 33.828C61.791 33.595 61.881 33.3 61.881 32.925C61.881 32.533 61.763 32.227 61.519 31.99C61.244 31.724 60.874 31.495 60.419 31.315C59.8847 31.1066 59.3359 30.9375 58.777 30.809C58.144 30.659 57.497 30.492 56.854 30.311C56.1879 30.145 55.5324 29.9393 54.891 29.695C54.2572 29.4582 53.6613 29.1305 53.122 28.722C53.049 28.6657 52.9776 28.6074 52.908 28.547C54.949 27.9629 56.9659 27.2977 58.954 26.553ZM35.462 31.888L35.461 37.172C35.461 37.654 35.071 38.043 34.588 38.043L34.054 38.046H28.495C28.3143 38.0427 28.1392 37.9832 27.9939 37.8756C27.8487 37.7681 27.7407 37.6179 27.685 37.446L26.544 34.109H20.374L19.192 37.455C19.1338 37.6269 19.0233 37.7763 18.8758 37.8821C18.7284 37.988 18.5515 38.0449 18.37 38.045H12.278C12.0917 38.0447 11.9104 37.985 11.7604 37.8746C11.6104 37.7642 11.4995 37.6088 11.444 37.431C11.2884 36.8803 11.1939 36.3143 11.162 35.743C11.1163 35.0055 11.0429 34.27 10.942 33.538C10.9279 33.4382 10.9112 33.3389 10.892 33.24C12.337 33.225 13.819 33.205 15.319 33.17C15.332 33.289 15.339 33.402 15.349 33.52C15.365 33.807 15.382 34.139 15.399 34.52C15.409 34.75 15.425 34.987 15.444 35.225L16.233 33.145C20.845 33.029 25.668 32.804 30.495 32.388L31.175 34.201V32.329C32.606 32.2 34.037 32.054 35.462 31.889V31.888ZM0.19397 33.272L1.24497 33.274H3.77097L4.72897 33.273V37.199C4.72272 37.4256 4.62834 37.6409 4.46589 37.7991C4.30343 37.9572 4.0857 38.0458 3.85897 38.046H1.06897C0.837597 38.046 0.615641 37.9543 0.451661 37.7911C0.287681 37.6279 0.195027 37.4063 0.19397 37.175V33.272ZM45.43 30.365L42.97 37.445C42.9133 37.619 42.8031 37.7707 42.6552 37.8785C42.5072 37.9862 42.329 38.0445 42.146 38.045H39.927C39.7502 38.0447 39.5777 37.9906 39.4325 37.8898C39.2872 37.7891 39.1761 37.6464 39.114 37.481L37.094 31.688C38.4308 31.5189 39.7649 31.3295 41.096 31.12L41.146 31.26L41.193 31.106C42.621 30.879 44.035 30.642 45.43 30.366V30.365Z" fill="#78C339"/>
<path d="M48.564 8.046C46.747 12.153 49.35 16.089 53.906 17.286C57.249 18.163 61.028 16.96 62.384 14.429L61.89 13.938C61.7401 13.788 61.6559 13.5846 61.6559 13.3725C61.6559 13.1604 61.7401 12.957 61.89 12.807L62.86 11.839L62.874 11.827C62.607 10.175 61.164 9.084 59.684 8.679C57.324 8.034 55.161 8.829 54.104 10.279C53.962 10.47 54.25 10.594 54.25 10.594C54.25 10.594 55.272 11.065 55.427 11.149C55.581 11.235 55.727 11.081 55.81 11.013C56.43 10.503 57.363 10.128 58.399 10.437C59.848 10.87 60.4 12.037 59.816 13.231C59.036 14.823 56.773 15.206 55.119 14.79C52.424 14.112 51.482 11.796 52.391 9.6C53.451 7.047 57.509 5.595 61.044 6.63C65.069 7.898 66.954 11.259 65.314 14.964C64.958 15.768 64.393 16.59 63.636 17.372C63.562 17.449 63.486 17.525 63.408 17.6L63.347 17.661C63.246 17.758 63.142 17.854 63.035 17.949L63.025 17.959C62.7908 18.1655 62.5493 18.3637 62.301 18.553C62.374 18.579 62.446 18.608 62.517 18.637C62.527 18.64 62.537 18.643 62.545 18.647C62.7848 18.7443 63.02 18.8524 63.25 18.971C63.302 18.998 63.352 19.026 63.403 19.054L63.476 19.093C63.531 19.123 63.586 19.155 63.639 19.188L63.697 19.221C64.8178 19.884 65.7229 20.8571 66.303 22.023L66.32 22.057C66.346 22.11 66.372 22.164 66.396 22.219L66.406 22.242C66.463 22.369 66.516 22.496 66.564 22.625C69.874 20.308 71.236 17.167 71.475 16.515L71.477 16.511C71.4797 16.5045 71.4821 16.4978 71.484 16.491C73.072 12.127 71.95 6.703 66.207 3.561C65.8852 3.38627 65.558 3.22152 65.226 3.067L65.237 3.077C64.759 2.867 64.262 2.688 63.747 2.545C62.597 2.223 61.209 2.085 60.084 2.024C59.7853 2.00802 59.4862 2.00002 59.187 2C54.137 2 50.157 4.347 48.564 8.046Z" fill="url(#paint1_linear_110_230)"/>
<path d="M63.637 14.55C63.5806 14.6059 63.5044 14.6373 63.425 14.6373C63.3456 14.6373 63.2694 14.6059 63.213 14.55L62.244 13.583C62.1882 13.5269 62.1569 13.4511 62.1569 13.372C62.1569 13.2929 62.1882 13.217 62.244 13.161L63.214 12.194C63.2705 12.1386 63.3464 12.1075 63.4255 12.1075C63.5046 12.1075 63.5806 12.1386 63.637 12.194L64.605 13.16C64.6329 13.1877 64.6551 13.2206 64.6702 13.2569C64.6853 13.2932 64.6931 13.3321 64.6931 13.3715C64.6931 13.4108 64.6853 13.4497 64.6702 13.486C64.6551 13.5223 64.6329 13.5553 64.605 13.583L63.637 14.55Z" fill="#0083C2"/>
<path d="M66.825 12.288C66.595 13.113 65.209 15.914 63.674 17.321C63.267 17.741 62.817 18.161 62.301 18.553C62.942 18.7894 63.5497 19.1077 64.109 19.5C64.9782 20.1033 65.6907 20.9056 66.187 21.84C66.323 22.098 66.469 22.368 66.564 22.625C69.879 20.297 71.244 17.165 71.475 16.515C73.187 11.901 71.838 6.10396 65.223 3.05896C67.491 5.26496 67.79 8.93196 66.825 12.288Z" fill="url(#paint2_linear_110_230)"/>
</g>
<defs>
<linearGradient id="paint0_linear_110_230" x1="32.0817" y1="21.8405" x2="32.0817" y2="34.1527" gradientUnits="userSpaceOnUse">
<stop stop-color="#00B6F1"/>
<stop offset="0.144" stop-color="#00AEEF"/>
<stop offset="0.316" stop-color="#00A0E0"/>
<stop offset="0.643" stop-color="#007DBA"/>
<stop offset="0.644" stop-color="#007DBA"/>
<stop offset="1" stop-color="#005282"/>
</linearGradient>
<linearGradient id="paint1_linear_110_230" x1="55.2021" y1="12.957" x2="67.2651" y2="11.4434" gradientUnits="userSpaceOnUse">
<stop stop-color="#0083C2"/>
<stop offset="0.629" stop-color="#0081C0"/>
<stop offset="0.733" stop-color="#007CB9"/>
<stop offset="0.807" stop-color="#0072AE"/>
<stop offset="0.867" stop-color="#00659D"/>
<stop offset="0.918" stop-color="#005387"/>
<stop offset="1" stop-color="#004474"/>
</linearGradient>
<linearGradient id="paint2_linear_110_230" x1="68.3293" y1="2.877" x2="58.7676" y2="23.515" gradientUnits="userSpaceOnUse">
<stop stop-color="#6DCFF6"/>
<stop offset="0.431" stop-color="#00AEEF"/>
<stop offset="0.782" stop-color="#0088C7"/>
<stop offset="1" stop-color="#0072AA"/>
</linearGradient>
<clipPath id="clip0_110_230">
<rect width="122" height="44" fill="white"/>
</clipPath>
</defs>
</svg>
