<svg width="122" height="44" viewBox="0 0 122 44" fill="none" xmlns="http://www.w3.org/2000/svg">
<g clip-path="url(#clip0_110_231)">
<path d="M34.875 19.73C35.706 19.73 36.468 19.867 37.14 20.137C37.814 20.407 38.4 20.784 38.884 21.257C39.367 21.731 39.742 22.287 39.997 22.911C40.252 23.533 40.381 24.211 40.381 24.925C40.381 26.016 40.145 26.978 39.681 27.782C39.309 28.426 38.751 28.952 38.017 29.352C38.257 29.469 38.471 29.61 38.657 29.772C39 30.068 39.283 30.424 39.499 30.827C39.712 31.224 39.869 31.666 39.965 32.139C40.041 32.515 40.099 32.895 40.135 33.273H35.707C35.573 32.556 35.335 32.023 34.997 31.686C34.63 31.32 33.997 31.135 33.112 31.135H29.535V33.539H25V20.55C25.0125 20.328 25.1095 20.1193 25.2711 19.9666C25.4328 19.8139 25.6467 19.7289 25.869 19.729H34.875V19.73ZM49.954 19.73C50.327 19.73 50.642 19.965 50.768 20.293L55.634 33.273L41.029 33.175L45.932 20.224C46.0024 20.0765 46.1131 19.9518 46.2513 19.8644C46.3895 19.777 46.5495 19.7304 46.713 19.73H49.953H49.954ZM61.399 19.73C61.785 19.73 62.106 19.981 62.222 20.327L65.952 31.263L69.475 20.343C69.53 20.1657 69.6402 20.0106 69.7895 19.9004C69.9388 19.7901 70.1194 19.7304 70.305 19.73H74.842C75.306 19.73 75.682 20.093 75.71 20.549L75.703 29.525L71.423 30.602V26.95L70.089 30.79L62.056 32.127L60.272 27.056V32.49L55.986 32.75V20.6C55.986 20.12 56.38 19.729 56.863 19.729H61.399V19.73ZM48.299 25.306L46.423 30.577H50.113L48.3 25.306H48.299ZM83.197 19.314C84.103 19.314 84.992 19.43 85.83 19.634C86.6814 19.833 87.4882 20.1891 88.209 20.684C88.6399 20.9861 89.0251 21.3484 89.353 21.76C89.404 21.826 89.446 21.883 89.487 21.94C89.519 21.984 89.551 22.028 89.582 22.074L89.626 22.141C89.7623 22.3418 89.8836 22.5524 89.989 22.771C90.142 23.183 90.019 23.631 89.639 23.871C88.87 24.358 87.799 24.801 87.346 24.954C86.893 25.107 86.603 25.077 86.314 24.664C86.137 24.41 85.71 23.825 85.26 23.543C85.2245 23.516 85.1878 23.4907 85.15 23.467C84.8509 23.2834 84.5208 23.1556 84.176 23.09C83.551 22.962 82.783 22.907 82.036 23.064C81.7694 23.1178 81.5151 23.2205 81.286 23.367C81.069 23.507 80.886 23.685 80.746 23.894C80.617 24.087 80.552 24.345 80.552 24.659C80.552 24.944 80.602 25.171 80.702 25.333C80.771 25.443 80.938 25.613 81.348 25.805C81.716 25.978 82.241 26.155 82.908 26.331C83.451 26.475 84.127 26.65 84.934 26.855L78.441 29.077C78.2665 28.9647 78.0957 28.8466 77.929 28.723C77.3942 28.3132 76.9539 27.7931 76.638 27.198C76.308 26.585 76.141 25.839 76.141 24.98C76.141 24.02 76.352 23.17 76.767 22.456C77.172 21.756 77.724 21.1521 78.385 20.686C79.0627 20.2103 79.8194 19.8585 80.62 19.647C81.4607 19.4234 82.3271 19.3114 83.197 19.314ZM33.484 23.392H29.534V27.731H33.484C34.292 27.731 34.898 27.559 35.282 27.217C35.656 26.887 35.844 26.317 35.844 25.525C35.844 24.767 35.656 24.22 35.284 23.896C34.899 23.562 34.294 23.392 33.484 23.392Z" fill="url(#paint0_linear_110_231)"/>
<path fill-rule="evenodd" clip-rule="evenodd" d="M83.76 26.553C84.29 26.69 84.902 26.847 85.597 27.022C85.921 27.086 86.395 27.21 86.987 27.385C87.6 27.565 88.217 27.857 88.82 28.253C89.4538 28.6776 89.9953 29.2259 90.412 29.865C90.867 30.55 91.098 31.43 91.098 32.479C91.098 33.329 90.931 34.132 90.598 34.864C90.2578 35.6089 89.747 36.2632 89.107 36.774C88.459 37.301 87.645 37.716 86.692 38.007C85.747 38.296 84.642 38.442 83.409 38.442C82.411 38.442 81.428 38.318 80.487 38.072C79.5739 37.8426 78.7122 37.4433 77.947 36.895C77.2041 36.354 76.598 35.6469 76.177 34.83C75.958 34.3981 75.7986 33.9386 75.703 33.464V37.172C75.703 37.653 75.312 38.044 74.83 38.044H72.289C72.0577 38.044 71.8359 37.9521 71.6724 37.7886C71.5089 37.625 71.417 37.4032 71.417 37.172V30.11C72.8537 29.8082 74.2827 29.4714 75.703 29.1V31.943C75.7823 31.8214 75.8907 31.7215 76.0183 31.6524C76.146 31.5832 76.2888 31.547 76.434 31.547H79.152C79.635 31.547 79.949 31.92 79.987 32.418C80.005 32.645 80.087 32.93 80.242 33.223C80.437 33.589 80.689 33.89 81.002 34.115C81.349 34.3576 81.7378 34.5339 82.149 34.635C82.909 34.83 83.698 34.862 84.629 34.726C84.9839 34.6753 85.3294 34.5721 85.654 34.42C85.955 34.276 86.21 34.077 86.411 33.828C86.597 33.595 86.687 33.3 86.687 32.925C86.687 32.533 86.569 32.227 86.325 31.99C86.05 31.724 85.68 31.495 85.225 31.315C84.6907 31.1066 84.1419 30.9375 83.583 30.809C82.95 30.659 82.303 30.492 81.66 30.311C80.994 30.145 80.3385 29.9393 79.697 29.695C79.0632 29.4582 78.4673 29.1305 77.928 28.722C77.855 28.6657 77.7836 28.6074 77.714 28.547C79.755 27.9629 81.7719 27.2977 83.76 26.553ZM60.268 31.888L60.267 37.172C60.267 37.654 59.877 38.043 59.394 38.043L58.86 38.046H53.301C53.1203 38.0427 52.9452 37.9832 52.8 37.8756C52.6548 37.7681 52.5468 37.6179 52.491 37.446L51.35 34.109H45.18L43.998 37.455C43.9399 37.6269 43.8293 37.7763 43.6819 37.8821C43.5344 37.988 43.3575 38.0449 43.176 38.045H37.084C36.8977 38.0447 36.7164 37.985 36.5664 37.8746C36.4164 37.7642 36.3056 37.6088 36.25 37.431C36.0944 36.8803 35.9999 36.3143 35.968 35.743C35.9223 35.0055 35.849 34.27 35.748 33.538C35.7339 33.4382 35.7172 33.3389 35.698 33.24C37.143 33.225 38.625 33.205 40.125 33.17C40.138 33.289 40.145 33.402 40.155 33.52C40.171 33.807 40.188 34.139 40.205 34.52C40.215 34.75 40.231 34.987 40.25 35.225L41.039 33.145C45.651 33.029 50.474 32.804 55.301 32.388L55.981 34.201V32.329C57.412 32.2 58.843 32.054 60.268 31.889V31.888ZM25 33.272L26.051 33.274H28.577L29.535 33.273V37.199C29.5288 37.4256 29.4344 37.6409 29.2719 37.7991C29.1095 37.9572 28.8917 38.0458 28.665 38.046H25.875C25.6436 38.046 25.4217 37.9543 25.2577 37.7911C25.0937 37.6279 25.0011 37.4063 25 37.175V33.272ZM70.236 30.365L67.776 37.445C67.7193 37.619 67.6092 37.7707 67.4612 37.8785C67.3132 37.9862 67.135 38.0445 66.952 38.045H64.733C64.5562 38.0447 64.3838 37.9906 64.2385 37.8898C64.0933 37.7891 63.9822 37.6464 63.92 37.481L61.9 31.688C63.2368 31.5189 64.5709 31.3295 65.902 31.12L65.952 31.26L65.999 31.106C67.427 30.879 68.841 30.642 70.236 30.366V30.365Z" fill="#78C339"/>
<path d="M73.37 8.046C71.553 12.153 74.156 16.089 78.712 17.286C82.055 18.163 85.834 16.96 87.19 14.429L86.696 13.938C86.5461 13.788 86.4619 13.5846 86.4619 13.3725C86.4619 13.1604 86.5461 12.957 86.696 12.807L87.666 11.839L87.68 11.827C87.413 10.175 85.97 9.084 84.49 8.679C82.13 8.034 79.967 8.829 78.91 10.279C78.768 10.47 79.056 10.594 79.056 10.594C79.056 10.594 80.078 11.065 80.233 11.149C80.387 11.235 80.533 11.081 80.616 11.013C81.236 10.503 82.169 10.128 83.205 10.437C84.654 10.87 85.206 12.037 84.622 13.231C83.842 14.823 81.579 15.206 79.925 14.79C77.23 14.112 76.288 11.796 77.197 9.6C78.257 7.047 82.315 5.595 85.85 6.63C89.875 7.898 91.76 11.259 90.12 14.964C89.764 15.768 89.199 16.59 88.442 17.372C88.368 17.449 88.292 17.525 88.214 17.6L88.153 17.661C88.052 17.758 87.948 17.854 87.841 17.949L87.831 17.959C87.5968 18.1655 87.3554 18.3637 87.107 18.553C87.18 18.579 87.252 18.608 87.323 18.637C87.333 18.64 87.343 18.643 87.351 18.647C87.5908 18.7443 87.8261 18.8524 88.056 18.971C88.108 18.998 88.158 19.026 88.209 19.054L88.282 19.093C88.337 19.123 88.392 19.155 88.445 19.188L88.503 19.221C89.6239 19.884 90.5289 20.8571 91.109 22.023L91.126 22.057C91.152 22.11 91.178 22.164 91.202 22.219L91.212 22.242C91.269 22.369 91.322 22.496 91.37 22.625C94.68 20.308 96.042 17.167 96.281 16.515L96.283 16.511C96.2858 16.5045 96.2881 16.4978 96.29 16.491C97.878 12.127 96.756 6.703 91.013 3.561C90.6912 3.38627 90.364 3.22152 90.032 3.067L90.043 3.077C89.565 2.867 89.068 2.688 88.553 2.545C87.403 2.223 86.015 2.085 84.89 2.024C84.5913 2.00802 84.2922 2.00002 83.993 2C78.943 2 74.963 4.347 73.37 8.046Z" fill="url(#paint1_linear_110_231)"/>
<path d="M88.443 14.55C88.3867 14.6059 88.3105 14.6373 88.231 14.6373C88.1516 14.6373 88.0754 14.6059 88.019 14.55L87.05 13.583C86.9942 13.5269 86.9629 13.4511 86.9629 13.372C86.9629 13.2929 86.9942 13.217 87.05 13.161L88.02 12.194C88.0765 12.1386 88.1524 12.1075 88.2315 12.1075C88.3106 12.1075 88.3866 12.1386 88.443 12.194L89.411 13.16C89.439 13.1877 89.4611 13.2206 89.4762 13.2569C89.4913 13.2932 89.4991 13.3321 89.4991 13.3715C89.4991 13.4108 89.4913 13.4497 89.4762 13.486C89.4611 13.5223 89.439 13.5553 89.411 13.583L88.443 14.55Z" fill="#0083C2"/>
<path d="M91.6311 12.288C91.4011 13.113 90.0151 15.914 88.4801 17.321C88.0731 17.741 87.6231 18.161 87.1071 18.553C87.748 18.7894 88.3557 19.1077 88.9151 19.5C89.7842 20.1033 90.4967 20.9056 90.9931 21.84C91.1291 22.098 91.2751 22.368 91.3701 22.625C94.6851 20.297 96.0501 17.165 96.2811 16.515C97.9931 11.901 96.6441 6.10396 90.0291 3.05896C92.2971 5.26496 92.5961 8.93196 91.6311 12.288Z" fill="url(#paint2_linear_110_231)"/>
</g>
<defs>
<linearGradient id="paint0_linear_110_231" x1="56.8877" y1="21.8405" x2="56.8877" y2="34.1527" gradientUnits="userSpaceOnUse">
<stop stop-color="#00B6F1"/>
<stop offset="0.144" stop-color="#00AEEF"/>
<stop offset="0.316" stop-color="#00A0E0"/>
<stop offset="0.643" stop-color="#007DBA"/>
<stop offset="0.644" stop-color="#007DBA"/>
<stop offset="1" stop-color="#005282"/>
</linearGradient>
<linearGradient id="paint1_linear_110_231" x1="80.0082" y1="12.957" x2="92.0712" y2="11.4434" gradientUnits="userSpaceOnUse">
<stop stop-color="#0083C2"/>
<stop offset="0.629" stop-color="#0081C0"/>
<stop offset="0.733" stop-color="#007CB9"/>
<stop offset="0.807" stop-color="#0072AE"/>
<stop offset="0.867" stop-color="#00659D"/>
<stop offset="0.918" stop-color="#005387"/>
<stop offset="1" stop-color="#004474"/>
</linearGradient>
<linearGradient id="paint2_linear_110_231" x1="93.1354" y1="2.877" x2="83.5736" y2="23.515" gradientUnits="userSpaceOnUse">
<stop stop-color="#6DCFF6"/>
<stop offset="0.431" stop-color="#00AEEF"/>
<stop offset="0.782" stop-color="#0088C7"/>
<stop offset="1" stop-color="#0072AA"/>
</linearGradient>
<clipPath id="clip0_110_231">
<rect width="122" height="44" fill="white"/>
</clipPath>
</defs>
</svg>
