<svg width="180" height="65" viewBox="0 0 180 65" fill="none" xmlns="http://www.w3.org/2000/svg">
<g clip-path="url(#clip0_110_544)">
<path d="M54.578 29.438C55.721 29.438 56.768 29.628 57.693 30C58.586 30.3515 59.4007 30.8763 60.09 31.544C60.7507 32.1915 61.2717 32.9674 61.621 33.824C61.9754 34.706 62.1544 35.6485 62.148 36.599C62.148 38.104 61.824 39.429 61.186 40.537C60.674 41.425 59.908 42.15 58.898 42.701C59.228 42.863 59.522 43.056 59.78 43.279C60.25 43.689 60.639 44.179 60.937 44.735C61.2371 45.3034 61.4527 45.9124 61.577 46.543C61.682 47.061 61.761 47.585 61.811 48.106H55.722C55.538 47.118 55.211 46.383 54.745 45.918C54.242 45.414 53.37 45.158 52.154 45.158H47.236V48.472H41V30.57C41.0166 30.2645 41.1496 29.9769 41.3717 29.7664C41.5937 29.5558 41.888 29.4383 42.194 29.438H54.578ZM75.311 29.438C75.5544 29.4385 75.7918 29.513 75.9918 29.6516C76.1919 29.7902 76.345 29.9864 76.431 30.214L83.121 48.106L63.039 47.971L69.782 30.12C69.8785 29.9167 70.0306 29.7447 70.2206 29.6241C70.4106 29.5034 70.6309 29.4389 70.856 29.438H75.311ZM91.049 29.438C91.579 29.438 92.02 29.785 92.18 30.262L97.308 45.336L102.154 30.282C102.229 30.0383 102.381 29.825 102.586 29.6732C102.791 29.5214 103.039 29.439 103.294 29.438H109.533C109.838 29.4393 110.132 29.5568 110.353 29.7668C110.575 29.9767 110.708 30.2632 110.726 30.568L110.716 42.94L104.831 44.424V39.392L102.997 44.685L91.951 46.527L89.499 39.538V47.028L83.605 47.387V30.64C83.605 29.978 84.147 29.438 84.811 29.438H91.049ZM73.037 37.124L70.457 44.39H75.532L73.037 37.124ZM121.02 28.864C122.266 28.864 123.489 29.025 124.641 29.306C125.812 29.5807 126.921 30.0718 127.911 30.754C128.504 31.1704 129.034 31.6698 129.485 32.237C129.555 32.327 129.613 32.407 129.67 32.485C129.714 32.545 129.758 32.606 129.8 32.67C129.821 32.7 129.84 32.73 129.86 32.762C130.048 33.0387 130.215 33.3288 130.36 33.63C130.57 34.199 130.402 34.814 129.878 35.147C128.822 35.817 127.348 36.428 126.725 36.639C126.103 36.849 125.705 36.809 125.307 36.239C125.064 35.889 124.476 35.083 123.857 34.694C123.809 34.6571 123.759 34.6224 123.707 34.59C123.296 34.3367 122.842 34.1605 122.367 34.07C121.508 33.893 120.452 33.817 119.424 34.034C119.048 34.114 118.7 34.254 118.394 34.452C118.094 34.645 117.844 34.89 117.652 35.179C117.473 35.444 117.385 35.8 117.385 36.233C117.385 36.626 117.454 36.938 117.591 37.162C117.685 37.314 117.914 37.549 118.479 37.812C118.985 38.05 119.707 38.295 120.623 38.538C121.37 38.736 122.299 38.976 123.409 39.259L114.481 42.322C114.161 42.112 113.927 41.949 113.777 41.834C113.041 41.2688 112.436 40.5519 112.002 39.732C111.548 38.888 111.319 37.859 111.319 36.675C111.319 35.351 111.609 34.18 112.18 33.197C112.736 32.2325 113.495 31.4 114.404 30.757C115.336 30.1015 116.377 29.6166 117.478 29.325C118.633 29.0165 119.824 28.8619 121.02 28.865V28.864ZM52.666 34.486H47.236V40.467H52.666C53.777 40.467 54.609 40.23 55.138 39.759C55.652 39.303 55.91 38.517 55.91 37.427C55.91 36.382 55.652 35.627 55.14 35.181C54.611 34.721 53.779 34.486 52.666 34.486Z" fill="url(#paint0_linear_110_544)"/>
<path fill-rule="evenodd" clip-rule="evenodd" d="M121.796 38.844C122.524 39.032 123.366 39.248 124.321 39.49C124.767 39.579 125.418 39.748 126.231 39.99C127.075 40.239 127.923 40.641 128.753 41.186C129.595 41.741 130.331 42.488 130.943 43.408C131.568 44.353 131.885 45.565 131.885 47.012C131.885 48.183 131.655 49.289 131.199 50.299C130.731 51.3252 130.028 52.2268 129.147 52.931C128.257 53.658 127.137 54.231 125.827 54.631C124.527 55.029 123.009 55.231 121.312 55.231C119.941 55.231 118.589 55.059 117.295 54.721C115.985 54.38 114.811 53.833 113.804 53.098C112.782 52.3519 111.949 51.3773 111.37 50.252C111.069 49.657 110.849 49.0239 110.717 48.37V53.48C110.717 54.144 110.179 54.682 109.517 54.682H106.023C105.361 54.682 104.823 54.144 104.823 53.481V43.746C106.823 43.324 108.79 42.86 110.717 42.354V46.273C110.826 46.1056 110.975 45.9681 111.151 45.8729C111.327 45.7777 111.523 45.7279 111.723 45.728H115.46C116.124 45.728 116.555 46.242 116.607 46.928C116.632 47.24 116.747 47.633 116.959 48.038C117.226 48.541 117.573 48.956 118.003 49.268C118.446 49.586 118.977 49.825 119.581 49.982C120.625 50.252 121.71 50.296 122.99 50.109C123.478 50.0391 123.954 49.8969 124.4 49.687C124.804 49.4969 125.159 49.2179 125.44 48.871C125.697 48.551 125.82 48.143 125.82 47.626C125.82 47.086 125.658 46.664 125.323 46.337C124.945 45.97 124.436 45.656 123.811 45.407C123.151 45.143 122.391 44.909 121.552 44.71C120.682 44.504 119.792 44.272 118.908 44.023C117.992 43.7939 117.091 43.51 116.209 43.173C115.338 42.8469 114.518 42.3955 113.777 41.833C113.677 41.7555 113.579 41.6751 113.483 41.592C116.289 40.7869 119.063 39.8702 121.796 38.844ZM89.493 46.197V53.48C89.4931 53.6377 89.4622 53.7938 89.4019 53.9395C89.3417 54.0852 89.2533 54.2176 89.1419 54.3292C89.0304 54.4407 88.8981 54.5292 88.7525 54.5896C88.6068 54.6499 88.4507 54.681 88.293 54.681L87.558 54.685H79.914C79.6652 54.6803 79.4241 54.5979 79.2243 54.4495C79.0246 54.301 78.8762 54.0939 78.8 53.857L77.231 49.258H68.747L67.123 53.87C67.0437 54.107 66.8919 54.3132 66.6892 54.4594C66.4865 54.6056 66.243 54.6845 65.993 54.685H57.616C57.076 54.685 56.621 54.327 56.469 53.837C56.269 53.15 56.137 52.372 56.082 51.51C56.019 50.4936 55.918 49.4798 55.779 48.471C55.7592 48.3337 55.7359 48.197 55.709 48.061C57.7388 48.0412 59.7685 48.0092 61.798 47.965C61.815 48.128 61.826 48.284 61.838 48.447C61.861 48.842 61.884 49.3 61.907 49.825C61.921 50.142 61.943 50.468 61.969 50.796L63.054 47.931C69.396 47.769 76.028 47.459 82.665 46.886L83.6 49.386V46.805C85.567 46.627 87.534 46.425 89.493 46.197ZM41 48.105L42.52 48.108H43.362L43.802 48.109H44.722L47.236 48.106V53.518C47.2277 53.8301 47.098 54.1266 46.8744 54.3445C46.6509 54.5624 46.3512 54.6846 46.039 54.685H42.203C41.539 54.685 41.003 54.147 41 53.484V48.105ZM103.2 44.098L99.818 53.858C99.74 54.0975 99.5884 54.3062 99.3847 54.4543C99.1811 54.6025 98.9358 54.6825 98.684 54.683H95.634C95.12 54.683 94.686 54.359 94.515 53.906L91.738 45.921C93.586 45.685 95.418 45.427 97.241 45.138L97.311 45.33L97.374 45.118C99.338 44.806 101.281 44.48 103.2 44.098Z" fill="#78C339"/>
<path d="M107.509 13.334C105.011 18.995 108.589 24.419 114.854 26.07C119.451 27.28 124.646 25.62 126.511 22.132L125.833 21.454C125.627 21.247 125.512 20.9669 125.512 20.675C125.512 20.3831 125.627 20.103 125.833 19.896L127.166 18.562C127.173 18.556 127.179 18.552 127.185 18.545C126.818 16.268 124.835 14.765 122.8 14.207C119.555 13.317 116.58 14.414 115.125 16.411C114.931 16.675 115.326 16.846 115.326 16.846C115.326 16.846 116.733 17.496 116.945 17.611C117.158 17.729 117.359 17.516 117.472 17.423C118.324 16.721 119.607 16.203 121.032 16.629C123.024 17.226 123.784 18.836 122.98 20.48C121.908 22.674 118.797 23.203 116.522 22.629C112.816 21.695 111.521 18.502 112.772 15.476C114.228 11.956 119.809 9.956 124.668 11.381C130.203 13.13 132.794 17.761 130.54 22.87C130.05 23.978 129.273 25.11 128.233 26.188C128.132 26.295 128.027 26.399 127.92 26.503C127.89 26.531 127.864 26.559 127.835 26.587C127.695 26.7221 127.551 26.8544 127.406 26.984L127.392 26.997C127.239 27.133 127.083 27.2663 126.925 27.397C126.918 27.402 126.911 27.407 126.905 27.414C126.739 27.549 126.571 27.683 126.397 27.816C126.497 27.853 126.596 27.892 126.694 27.931L126.732 27.946C127.062 28.0802 127.386 28.2294 127.702 28.393C127.774 28.43 127.842 28.469 127.912 28.506L128.013 28.56C128.089 28.603 128.163 28.647 128.238 28.692L128.317 28.737C128.517 28.859 128.714 28.987 128.905 29.12C130.179 30.0112 131.208 31.2078 131.9 32.6L131.923 32.647C131.959 32.72 131.994 32.793 132.028 32.869L132.043 32.902C132.12 33.076 132.193 33.252 132.259 33.429C136.811 30.235 138.683 25.905 139.012 25.007L139.014 25.002C139.018 24.9926 139.021 24.9829 139.024 24.973C141.208 18.958 139.664 11.483 131.769 7.153C131.326 6.91178 130.876 6.68433 130.419 6.471L130.435 6.486C129.77 6.19242 129.086 5.94647 128.386 5.75C126.804 5.308 124.896 5.117 123.35 5.033C122.939 5.01099 122.528 4.99999 122.116 5C115.17 5 109.7 8.235 107.509 13.334Z" fill="url(#paint1_linear_110_544)"/>
<path d="M128.235 22.298C128.158 22.3751 128.053 22.4184 127.944 22.4184C127.834 22.4184 127.729 22.3751 127.652 22.298L126.32 20.966C126.243 20.8886 126.2 20.7838 126.2 20.6745C126.2 20.5652 126.243 20.4604 126.32 20.383L127.652 19.051C127.73 18.9741 127.834 18.931 127.944 18.931C128.053 18.931 128.157 18.9741 128.235 19.051L129.566 20.383C129.604 20.4212 129.635 20.4665 129.655 20.5165C129.676 20.5664 129.687 20.6199 129.687 20.674C129.687 20.7281 129.676 20.7816 129.655 20.8315C129.635 20.8815 129.604 20.9268 129.566 20.965L128.236 22.298H128.235Z" fill="#0083C2"/>
<path d="M132.618 19.18C132.301 20.318 130.396 24.179 128.285 26.119C127.699 26.7314 127.068 27.2986 126.397 27.816C127.293 28.151 128.117 28.581 128.883 29.122C130.079 29.9545 131.058 31.0605 131.74 32.348C131.927 32.703 132.129 33.074 132.26 33.428C136.816 30.221 138.694 25.903 139.012 25.008C141.365 18.648 139.51 10.657 130.414 6.46002C133.534 9.50002 133.944 14.555 132.618 19.18Z" fill="url(#paint2_linear_110_544)"/>
</g>
<defs>
<linearGradient id="paint0_linear_110_544" x1="85.088" y1="32.1517" x2="85.088" y2="48.9342" gradientUnits="userSpaceOnUse">
<stop stop-color="#00B6F1"/>
<stop offset="0.144" stop-color="#00AEEF"/>
<stop offset="0.316" stop-color="#00A0E0"/>
<stop offset="0.643" stop-color="#007DBA"/>
<stop offset="0.644" stop-color="#007DBA"/>
<stop offset="1" stop-color="#005282"/>
</linearGradient>
<linearGradient id="paint1_linear_110_544" x1="116.636" y1="20.1075" x2="133.224" y2="18.0208" gradientUnits="userSpaceOnUse">
<stop stop-color="#0083C2"/>
<stop offset="0.629" stop-color="#0081C0"/>
<stop offset="0.733" stop-color="#007CB9"/>
<stop offset="0.807" stop-color="#0072AE"/>
<stop offset="0.867" stop-color="#00659D"/>
<stop offset="0.918" stop-color="#005387"/>
<stop offset="1" stop-color="#004474"/>
</linearGradient>
<linearGradient id="paint2_linear_110_544" x1="134.679" y1="6.20922" x2="121.528" y2="34.6657" gradientUnits="userSpaceOnUse">
<stop stop-color="#6DCFF6"/>
<stop offset="0.431" stop-color="#00AEEF"/>
<stop offset="0.782" stop-color="#0088C7"/>
<stop offset="1" stop-color="#0072AA"/>
</linearGradient>
<clipPath id="clip0_110_544">
<rect width="180" height="65" fill="white"/>
</clipPath>
</defs>
</svg>
