<svg width="180" height="65" viewBox="0 0 180 65" fill="none" xmlns="http://www.w3.org/2000/svg">
<g clip-path="url(#clip0_110_543)">
<path d="M94.578 29.438C95.721 29.438 96.768 29.628 97.693 30C98.586 30.3515 99.4007 30.8763 100.09 31.544C100.751 32.1915 101.272 32.9674 101.621 33.824C101.975 34.706 102.154 35.6485 102.148 36.599C102.148 38.104 101.824 39.429 101.186 40.537C100.674 41.425 99.908 42.15 98.898 42.701C99.228 42.863 99.522 43.056 99.78 43.279C100.25 43.689 100.639 44.179 100.937 44.735C101.237 45.3034 101.453 45.9124 101.577 46.543C101.682 47.061 101.761 47.585 101.811 48.106H95.722C95.538 47.118 95.211 46.383 94.745 45.918C94.242 45.414 93.37 45.158 92.154 45.158H87.236V48.472H81V30.57C81.0166 30.2645 81.1496 29.9769 81.3717 29.7664C81.5937 29.5558 81.888 29.4383 82.194 29.438H94.578ZM115.311 29.438C115.554 29.4385 115.792 29.513 115.992 29.6516C116.192 29.7902 116.345 29.9864 116.431 30.214L123.121 48.106L103.039 47.971L109.782 30.12C109.879 29.9167 110.031 29.7447 110.221 29.6241C110.411 29.5034 110.631 29.4389 110.856 29.438H115.311ZM131.049 29.438C131.579 29.438 132.02 29.785 132.18 30.262L137.308 45.336L142.154 30.282C142.229 30.0383 142.381 29.825 142.586 29.6732C142.791 29.5214 143.039 29.439 143.294 29.438H149.533C149.838 29.4393 150.132 29.5568 150.353 29.7668C150.575 29.9767 150.708 30.2632 150.726 30.568L150.716 42.94L144.831 44.424V39.392L142.997 44.685L131.951 46.527L129.499 39.538V47.028L123.605 47.387V30.64C123.605 29.978 124.147 29.438 124.811 29.438H131.049ZM113.037 37.124L110.457 44.39H115.532L113.037 37.124ZM161.02 28.864C162.266 28.864 163.489 29.025 164.641 29.306C165.812 29.5807 166.921 30.0718 167.911 30.754C168.504 31.1704 169.034 31.6698 169.485 32.237C169.555 32.327 169.613 32.407 169.67 32.485C169.714 32.545 169.758 32.606 169.8 32.67C169.821 32.7 169.84 32.73 169.86 32.762C170.048 33.0387 170.215 33.3288 170.36 33.63C170.57 34.199 170.402 34.814 169.878 35.147C168.822 35.817 167.348 36.428 166.725 36.639C166.103 36.849 165.705 36.809 165.307 36.239C165.064 35.889 164.476 35.083 163.857 34.694C163.809 34.6571 163.759 34.6224 163.707 34.59C163.296 34.3367 162.842 34.1605 162.367 34.07C161.508 33.893 160.452 33.817 159.424 34.034C159.048 34.114 158.7 34.254 158.394 34.452C158.094 34.645 157.844 34.89 157.652 35.179C157.473 35.444 157.385 35.8 157.385 36.233C157.385 36.626 157.454 36.938 157.591 37.162C157.685 37.314 157.914 37.549 158.479 37.812C158.985 38.05 159.707 38.295 160.623 38.538C161.37 38.736 162.299 38.976 163.409 39.259L154.481 42.322C154.161 42.112 153.927 41.949 153.777 41.834C153.041 41.2688 152.436 40.5519 152.002 39.732C151.548 38.888 151.319 37.859 151.319 36.675C151.319 35.351 151.609 34.18 152.18 33.197C152.736 32.2325 153.495 31.4 154.404 30.757C155.336 30.1015 156.377 29.6166 157.478 29.325C158.633 29.0165 159.824 28.8619 161.02 28.865V28.864ZM92.666 34.486H87.236V40.467H92.666C93.777 40.467 94.609 40.23 95.138 39.759C95.652 39.303 95.91 38.517 95.91 37.427C95.91 36.382 95.652 35.627 95.14 35.181C94.611 34.721 93.779 34.486 92.666 34.486Z" fill="url(#paint0_linear_110_543)"/>
<path fill-rule="evenodd" clip-rule="evenodd" d="M161.796 38.844C162.524 39.032 163.366 39.248 164.321 39.49C164.767 39.579 165.418 39.748 166.231 39.99C167.075 40.239 167.923 40.641 168.753 41.186C169.595 41.741 170.331 42.488 170.943 43.408C171.568 44.353 171.885 45.565 171.885 47.012C171.885 48.183 171.655 49.289 171.199 50.299C170.731 51.3252 170.028 52.2268 169.147 52.931C168.257 53.658 167.137 54.231 165.827 54.631C164.527 55.029 163.009 55.231 161.312 55.231C159.941 55.231 158.589 55.059 157.295 54.721C155.985 54.38 154.811 53.833 153.804 53.098C152.782 52.3519 151.949 51.3773 151.37 50.252C151.069 49.657 150.849 49.0239 150.717 48.37V53.48C150.717 54.144 150.179 54.682 149.517 54.682H146.023C145.361 54.682 144.823 54.144 144.823 53.481V43.746C146.823 43.324 148.79 42.86 150.717 42.354V46.273C150.826 46.1056 150.975 45.9681 151.151 45.8729C151.327 45.7777 151.523 45.7279 151.723 45.728H155.46C156.124 45.728 156.555 46.242 156.607 46.928C156.632 47.24 156.747 47.633 156.959 48.038C157.226 48.541 157.573 48.956 158.003 49.268C158.446 49.586 158.977 49.825 159.581 49.982C160.625 50.252 161.71 50.296 162.99 50.109C163.478 50.0391 163.954 49.8969 164.4 49.687C164.804 49.4969 165.159 49.2179 165.44 48.871C165.697 48.551 165.82 48.143 165.82 47.626C165.82 47.086 165.658 46.664 165.323 46.337C164.945 45.97 164.436 45.656 163.811 45.407C163.151 45.143 162.391 44.909 161.552 44.71C160.682 44.504 159.792 44.272 158.908 44.023C157.992 43.7939 157.091 43.51 156.209 43.173C155.338 42.8469 154.518 42.3955 153.777 41.833C153.677 41.7555 153.579 41.6751 153.483 41.592C156.289 40.7869 159.063 39.8702 161.796 38.844ZM129.493 46.197V53.48C129.493 53.6377 129.462 53.7938 129.402 53.9395C129.342 54.0852 129.253 54.2176 129.142 54.3292C129.03 54.4407 128.898 54.5292 128.752 54.5896C128.607 54.6499 128.451 54.681 128.293 54.681L127.558 54.685H119.914C119.665 54.6803 119.424 54.5979 119.224 54.4495C119.025 54.301 118.876 54.0939 118.8 53.857L117.231 49.258H108.747L107.123 53.87C107.044 54.107 106.892 54.3132 106.689 54.4594C106.486 54.6056 106.243 54.6845 105.993 54.685H97.616C97.076 54.685 96.621 54.327 96.469 53.837C96.269 53.15 96.137 52.372 96.082 51.51C96.019 50.4936 95.918 49.4798 95.779 48.471C95.7592 48.3337 95.7359 48.197 95.709 48.061C97.7388 48.0412 99.7685 48.0092 101.798 47.965C101.815 48.128 101.826 48.284 101.838 48.447C101.861 48.842 101.884 49.3 101.907 49.825C101.921 50.142 101.943 50.468 101.969 50.796L103.054 47.931C109.396 47.769 116.028 47.459 122.665 46.886L123.6 49.386V46.805C125.567 46.627 127.534 46.425 129.493 46.197ZM81 48.105L82.52 48.108H83.362L83.802 48.109H84.722L87.236 48.106V53.518C87.2277 53.8301 87.098 54.1266 86.8744 54.3445C86.6509 54.5624 86.3512 54.6846 86.039 54.685H82.203C81.539 54.685 81.003 54.147 81 53.484V48.105ZM143.2 44.098L139.818 53.858C139.74 54.0975 139.588 54.3062 139.385 54.4543C139.181 54.6025 138.936 54.6825 138.684 54.683H135.634C135.12 54.683 134.686 54.359 134.515 53.906L131.738 45.921C133.586 45.685 135.418 45.427 137.241 45.138L137.311 45.33L137.374 45.118C139.338 44.806 141.281 44.48 143.2 44.098Z" fill="#78C339"/>
<path d="M147.509 13.334C145.011 18.995 148.589 24.419 154.854 26.07C159.451 27.28 164.646 25.62 166.511 22.132L165.833 21.454C165.627 21.247 165.512 20.9669 165.512 20.675C165.512 20.3831 165.627 20.103 165.833 19.896L167.166 18.562C167.173 18.556 167.179 18.552 167.185 18.545C166.818 16.268 164.835 14.765 162.8 14.207C159.555 13.317 156.58 14.414 155.125 16.411C154.931 16.675 155.326 16.846 155.326 16.846C155.326 16.846 156.733 17.496 156.945 17.611C157.158 17.729 157.359 17.516 157.472 17.423C158.324 16.721 159.607 16.203 161.032 16.629C163.024 17.226 163.784 18.836 162.98 20.48C161.908 22.674 158.797 23.203 156.522 22.629C152.816 21.695 151.521 18.502 152.772 15.476C154.228 11.956 159.809 9.956 164.668 11.381C170.203 13.13 172.794 17.761 170.54 22.87C170.05 23.978 169.273 25.11 168.233 26.188C168.132 26.295 168.027 26.399 167.92 26.503C167.89 26.531 167.864 26.559 167.835 26.587C167.695 26.7221 167.551 26.8544 167.406 26.984L167.392 26.997C167.239 27.133 167.083 27.2663 166.925 27.397C166.918 27.402 166.911 27.407 166.905 27.414C166.739 27.549 166.571 27.683 166.397 27.816C166.497 27.853 166.596 27.892 166.694 27.931L166.732 27.946C167.062 28.0802 167.386 28.2294 167.702 28.393C167.774 28.43 167.842 28.469 167.912 28.506L168.013 28.56C168.089 28.603 168.163 28.647 168.238 28.692L168.317 28.737C168.517 28.859 168.714 28.987 168.905 29.12C170.179 30.0112 171.208 31.2078 171.9 32.6L171.923 32.647C171.959 32.72 171.994 32.793 172.028 32.869L172.043 32.902C172.12 33.076 172.193 33.252 172.259 33.429C176.811 30.235 178.683 25.905 179.012 25.007L179.014 25.002C179.018 24.9926 179.021 24.9829 179.024 24.973C181.208 18.958 179.664 11.483 171.769 7.153C171.326 6.91178 170.876 6.68433 170.419 6.471L170.435 6.486C169.77 6.19242 169.086 5.94647 168.386 5.75C166.804 5.308 164.896 5.117 163.35 5.033C162.939 5.01099 162.528 4.99999 162.116 5C155.17 5 149.7 8.235 147.509 13.334Z" fill="url(#paint1_linear_110_543)"/>
<path d="M168.235 22.298C168.158 22.3751 168.053 22.4184 167.944 22.4184C167.834 22.4184 167.729 22.3751 167.652 22.298L166.32 20.966C166.243 20.8886 166.2 20.7838 166.2 20.6745C166.2 20.5652 166.243 20.4604 166.32 20.383L167.652 19.051C167.73 18.9741 167.834 18.931 167.944 18.931C168.053 18.931 168.157 18.9741 168.235 19.051L169.566 20.383C169.604 20.4212 169.635 20.4665 169.655 20.5165C169.676 20.5664 169.687 20.6199 169.687 20.674C169.687 20.7281 169.676 20.7816 169.655 20.8315C169.635 20.8815 169.604 20.9268 169.566 20.965L168.236 22.298H168.235Z" fill="#0083C2"/>
<path d="M172.618 19.18C172.301 20.318 170.396 24.179 168.285 26.119C167.699 26.7314 167.068 27.2986 166.397 27.816C167.293 28.151 168.117 28.581 168.883 29.122C170.079 29.9545 171.058 31.0605 171.74 32.348C171.927 32.703 172.129 33.074 172.26 33.428C176.816 30.221 178.694 25.903 179.012 25.008C181.365 18.648 179.51 10.657 170.414 6.46002C173.534 9.50002 173.944 14.555 172.618 19.18Z" fill="url(#paint2_linear_110_543)"/>
</g>
<defs>
<linearGradient id="paint0_linear_110_543" x1="125.088" y1="32.1517" x2="125.088" y2="48.9342" gradientUnits="userSpaceOnUse">
<stop stop-color="#00B6F1"/>
<stop offset="0.144" stop-color="#00AEEF"/>
<stop offset="0.316" stop-color="#00A0E0"/>
<stop offset="0.643" stop-color="#007DBA"/>
<stop offset="0.644" stop-color="#007DBA"/>
<stop offset="1" stop-color="#005282"/>
</linearGradient>
<linearGradient id="paint1_linear_110_543" x1="156.636" y1="20.1075" x2="173.224" y2="18.0208" gradientUnits="userSpaceOnUse">
<stop stop-color="#0083C2"/>
<stop offset="0.629" stop-color="#0081C0"/>
<stop offset="0.733" stop-color="#007CB9"/>
<stop offset="0.807" stop-color="#0072AE"/>
<stop offset="0.867" stop-color="#00659D"/>
<stop offset="0.918" stop-color="#005387"/>
<stop offset="1" stop-color="#004474"/>
</linearGradient>
<linearGradient id="paint2_linear_110_543" x1="174.679" y1="6.20922" x2="161.528" y2="34.6657" gradientUnits="userSpaceOnUse">
<stop stop-color="#6DCFF6"/>
<stop offset="0.431" stop-color="#00AEEF"/>
<stop offset="0.782" stop-color="#0088C7"/>
<stop offset="1" stop-color="#0072AA"/>
</linearGradient>
<clipPath id="clip0_110_543">
<rect width="180" height="65" fill="white"/>
</clipPath>
</defs>
</svg>
