<svg width="180" height="65" viewBox="0 0 180 65" fill="none" xmlns="http://www.w3.org/2000/svg">
<g clip-path="url(#clip0_110_545)">
<path d="M13.578 29.438C14.721 29.438 15.768 29.628 16.693 30C17.586 30.3515 18.4007 30.8763 19.09 31.544C19.7507 32.1915 20.2717 32.9674 20.621 33.824C20.9754 34.706 21.1544 35.6485 21.148 36.599C21.148 38.104 20.824 39.429 20.186 40.537C19.674 41.425 18.908 42.15 17.898 42.701C18.228 42.863 18.522 43.056 18.78 43.279C19.25 43.689 19.639 44.179 19.937 44.735C20.2371 45.3034 20.4527 45.9124 20.577 46.543C20.682 47.061 20.761 47.585 20.811 48.106H14.722C14.538 47.118 14.211 46.383 13.745 45.918C13.242 45.414 12.37 45.158 11.154 45.158H6.236V48.472H0V30.57C0.0166163 30.2645 0.149618 29.9769 0.371681 29.7664C0.593743 29.5558 0.888002 29.4383 1.194 29.438H13.578ZM34.311 29.438C34.5544 29.4385 34.7918 29.513 34.9918 29.6516C35.1919 29.7902 35.345 29.9864 35.431 30.214L42.121 48.106L22.039 47.971L28.782 30.12C28.8785 29.9167 29.0306 29.7447 29.2206 29.6241C29.4106 29.5034 29.6309 29.4389 29.856 29.438H34.311ZM50.049 29.438C50.579 29.438 51.02 29.785 51.18 30.262L56.308 45.336L61.154 30.282C61.2294 30.0383 61.3806 29.825 61.5857 29.6732C61.7907 29.5214 62.0389 29.439 62.294 29.438H68.533C68.8383 29.4393 69.1316 29.5568 69.3533 29.7668C69.5749 29.9767 69.7082 30.2632 69.726 30.568L69.716 42.94L63.831 44.424V39.392L61.997 44.685L50.951 46.527L48.499 39.538V47.028L42.605 47.387V30.64C42.605 29.978 43.147 29.438 43.811 29.438H50.049ZM32.037 37.124L29.457 44.39H34.532L32.037 37.124ZM80.02 28.864C81.266 28.864 82.489 29.025 83.641 29.306C84.8117 29.5807 85.9207 30.0718 86.911 30.754C87.504 31.1704 88.0341 31.6698 88.485 32.237C88.555 32.327 88.613 32.407 88.67 32.485C88.714 32.545 88.758 32.606 88.8 32.67C88.821 32.7 88.84 32.73 88.86 32.762C89.0477 33.0387 89.2148 33.3288 89.36 33.63C89.57 34.199 89.402 34.814 88.878 35.147C87.822 35.817 86.348 36.428 85.725 36.639C85.103 36.849 84.705 36.809 84.307 36.239C84.064 35.889 83.476 35.083 82.857 34.694C82.8086 34.6571 82.7585 34.6224 82.707 34.59C82.2956 34.3367 81.8415 34.1605 81.367 34.07C80.508 33.893 79.452 33.817 78.424 34.034C78.048 34.114 77.7 34.254 77.394 34.452C77.094 34.645 76.844 34.89 76.652 35.179C76.473 35.444 76.385 35.8 76.385 36.233C76.385 36.626 76.454 36.938 76.591 37.162C76.685 37.314 76.914 37.549 77.479 37.812C77.985 38.05 78.707 38.295 79.623 38.538C80.37 38.736 81.299 38.976 82.409 39.259L73.481 42.322C73.161 42.112 72.927 41.949 72.777 41.834C72.0414 41.2688 71.436 40.5519 71.002 39.732C70.548 38.888 70.319 37.859 70.319 36.675C70.319 35.351 70.609 34.18 71.18 33.197C71.7363 32.2325 72.495 31.4 73.404 30.757C74.3358 30.1015 75.3766 29.6166 76.478 29.325C77.6333 29.0165 78.8242 28.8619 80.02 28.865V28.864ZM11.666 34.486H6.236V40.467H11.666C12.777 40.467 13.609 40.23 14.138 39.759C14.652 39.303 14.91 38.517 14.91 37.427C14.91 36.382 14.652 35.627 14.14 35.181C13.611 34.721 12.779 34.486 11.666 34.486Z" fill="url(#paint0_linear_110_545)"/>
<path fill-rule="evenodd" clip-rule="evenodd" d="M80.796 38.844C81.524 39.032 82.366 39.248 83.321 39.49C83.767 39.579 84.418 39.748 85.231 39.99C86.075 40.239 86.923 40.641 87.753 41.186C88.595 41.741 89.331 42.488 89.943 43.408C90.568 44.353 90.885 45.565 90.885 47.012C90.885 48.183 90.655 49.289 90.199 50.299C89.731 51.3252 89.028 52.2268 88.147 52.931C87.257 53.658 86.137 54.231 84.827 54.631C83.527 55.029 82.009 55.231 80.312 55.231C78.941 55.231 77.589 55.059 76.295 54.721C74.985 54.38 73.811 53.833 72.804 53.098C71.782 52.3519 70.9485 51.3773 70.37 50.252C70.0685 49.657 69.8489 49.0239 69.717 48.37V53.48C69.717 54.144 69.179 54.682 68.517 54.682H65.023C64.361 54.682 63.823 54.144 63.823 53.481V43.746C65.823 43.324 67.79 42.86 69.717 42.354V46.273C69.8261 46.1056 69.9752 45.9681 70.1509 45.8729C70.3265 45.7777 70.5232 45.7279 70.723 45.728H74.46C75.124 45.728 75.555 46.242 75.607 46.928C75.632 47.24 75.747 47.633 75.959 48.038C76.226 48.541 76.573 48.956 77.003 49.268C77.446 49.586 77.977 49.825 78.581 49.982C79.625 50.252 80.71 50.296 81.99 50.109C82.4783 50.0391 82.9536 49.8969 83.4 49.687C83.8037 49.4969 84.1593 49.2179 84.44 48.871C84.697 48.551 84.82 48.143 84.82 47.626C84.82 47.086 84.658 46.664 84.323 46.337C83.945 45.97 83.436 45.656 82.811 45.407C82.151 45.143 81.391 44.909 80.552 44.71C79.682 44.504 78.792 44.272 77.908 44.023C76.9921 43.7939 76.0909 43.51 75.209 43.173C74.3375 42.8469 73.5182 42.3955 72.777 41.833C72.6767 41.7555 72.5787 41.6751 72.483 41.592C75.2895 40.7869 78.0627 39.8702 80.796 38.844ZM48.493 46.197V53.48C48.4931 53.6377 48.4622 53.7938 48.4019 53.9395C48.3417 54.0852 48.2533 54.2176 48.1419 54.3292C48.0304 54.4407 47.8981 54.5292 47.7525 54.5896C47.6068 54.6499 47.4507 54.681 47.293 54.681L46.558 54.685H38.914C38.6652 54.6803 38.4241 54.5979 38.2243 54.4495C38.0246 54.301 37.8762 54.0939 37.8 53.857L36.231 49.258H27.747L26.123 53.87C26.0437 54.107 25.8919 54.3132 25.6892 54.4594C25.4865 54.6056 25.243 54.6845 24.993 54.685H16.616C16.076 54.685 15.621 54.327 15.469 53.837C15.269 53.15 15.137 52.372 15.082 51.51C15.019 50.4936 14.918 49.4798 14.779 48.471C14.7592 48.3337 14.7359 48.197 14.709 48.061C16.7388 48.0412 18.7685 48.0092 20.798 47.965C20.815 48.128 20.826 48.284 20.838 48.447C20.861 48.842 20.884 49.3 20.907 49.825C20.921 50.142 20.943 50.468 20.969 50.796L22.054 47.931C28.396 47.769 35.028 47.459 41.665 46.886L42.6 49.386V46.805C44.567 46.627 46.534 46.425 48.493 46.197ZM0 48.105L1.52 48.108H2.362L2.802 48.109H3.722L6.236 48.106V53.518C6.22767 53.8301 6.09795 54.1266 5.87442 54.3445C5.65089 54.5624 5.35118 54.6846 5.039 54.685H1.203C0.539 54.685 0.003 54.147 0 53.484V48.105ZM62.2 44.098L58.818 53.858C58.74 54.0975 58.5884 54.3062 58.3847 54.4543C58.1811 54.6025 57.9358 54.6825 57.684 54.683H54.634C54.12 54.683 53.686 54.359 53.515 53.906L50.738 45.921C52.586 45.685 54.418 45.427 56.241 45.138L56.311 45.33L56.374 45.118C58.338 44.806 60.281 44.48 62.2 44.098Z" fill="#78C339"/>
<path d="M66.509 13.334C64.011 18.995 67.589 24.419 73.854 26.07C78.451 27.28 83.646 25.62 85.511 22.132L84.833 21.454C84.6272 21.247 84.5117 20.9669 84.5117 20.675C84.5117 20.3831 84.6272 20.103 84.833 19.896L86.166 18.562C86.173 18.556 86.179 18.552 86.185 18.545C85.818 16.268 83.835 14.765 81.8 14.207C78.555 13.317 75.58 14.414 74.125 16.411C73.931 16.675 74.326 16.846 74.326 16.846C74.326 16.846 75.733 17.496 75.945 17.611C76.158 17.729 76.359 17.516 76.472 17.423C77.324 16.721 78.607 16.203 80.032 16.629C82.024 17.226 82.784 18.836 81.98 20.48C80.908 22.674 77.797 23.203 75.522 22.629C71.816 21.695 70.521 18.502 71.772 15.476C73.228 11.956 78.809 9.956 83.668 11.381C89.203 13.13 91.794 17.761 89.54 22.87C89.05 23.978 88.273 25.11 87.233 26.188C87.132 26.295 87.027 26.399 86.92 26.503C86.89 26.531 86.864 26.559 86.835 26.587C86.6945 26.7221 86.5515 26.8544 86.406 26.984L86.392 26.997C86.2386 27.133 86.0829 27.2663 85.925 27.397C85.918 27.402 85.911 27.407 85.905 27.414C85.739 27.549 85.571 27.683 85.397 27.816C85.497 27.853 85.596 27.892 85.694 27.931L85.732 27.946C86.0619 28.0802 86.3856 28.2294 86.702 28.393C86.774 28.43 86.842 28.469 86.912 28.506L87.013 28.56C87.089 28.603 87.163 28.647 87.238 28.692L87.317 28.737C87.517 28.859 87.714 28.987 87.905 29.12C89.1787 30.0112 90.2084 31.2078 90.9 32.6L90.923 32.647C90.959 32.72 90.994 32.793 91.028 32.869L91.043 32.902C91.12 33.076 91.193 33.252 91.259 33.429C95.811 30.235 97.683 25.905 98.012 25.007L98.014 25.002C98.0179 24.9926 98.0213 24.9829 98.024 24.973C100.208 18.958 98.664 11.483 90.769 7.153C90.3261 6.91178 89.8759 6.68433 89.419 6.471L89.435 6.486C88.7703 6.19242 88.0855 5.94647 87.386 5.75C85.804 5.308 83.896 5.117 82.35 5.033C81.939 5.01099 81.5275 4.99999 81.116 5C74.17 5 68.7 8.235 66.509 13.334Z" fill="url(#paint1_linear_110_545)"/>
<path d="M87.235 22.2981C87.1576 22.3752 87.0528 22.4185 86.9435 22.4185C86.8342 22.4185 86.7294 22.3752 86.652 22.2981L85.32 20.9661C85.2429 20.8886 85.1996 20.7838 85.1996 20.6746C85.1996 20.5653 85.2429 20.4605 85.32 20.3831L86.652 19.0511C86.7296 18.9742 86.8343 18.931 86.9435 18.931C87.0527 18.931 87.1575 18.9742 87.235 19.0511L88.566 20.3831C88.6043 20.4212 88.6347 20.4666 88.6554 20.5165C88.6761 20.5665 88.6868 20.62 88.6868 20.6741C88.6868 20.7281 88.6761 20.7816 88.6554 20.8316C88.6347 20.8815 88.6043 20.9269 88.566 20.9651L87.236 22.2981H87.235Z" fill="#0083C2"/>
<path d="M91.618 19.18C91.301 20.318 89.396 24.179 87.285 26.119C86.6992 26.7313 86.0681 27.2986 85.397 27.816C86.293 28.151 87.117 28.581 87.883 29.122C89.0786 29.9544 90.0581 31.0604 90.74 32.348C90.927 32.703 91.129 33.074 91.26 33.428C95.816 30.221 97.694 25.903 98.012 25.008C100.365 18.648 98.51 10.657 89.414 6.45996C92.534 9.49996 92.944 14.555 91.618 19.18Z" fill="url(#paint2_linear_110_545)"/>
</g>
<defs>
<linearGradient id="paint0_linear_110_545" x1="44.088" y1="32.1517" x2="44.088" y2="48.9342" gradientUnits="userSpaceOnUse">
<stop stop-color="#00B6F1"/>
<stop offset="0.144" stop-color="#00AEEF"/>
<stop offset="0.316" stop-color="#00A0E0"/>
<stop offset="0.643" stop-color="#007DBA"/>
<stop offset="0.644" stop-color="#007DBA"/>
<stop offset="1" stop-color="#005282"/>
</linearGradient>
<linearGradient id="paint1_linear_110_545" x1="75.6365" y1="20.1075" x2="92.2237" y2="18.0208" gradientUnits="userSpaceOnUse">
<stop stop-color="#0083C2"/>
<stop offset="0.629" stop-color="#0081C0"/>
<stop offset="0.733" stop-color="#007CB9"/>
<stop offset="0.807" stop-color="#0072AE"/>
<stop offset="0.867" stop-color="#00659D"/>
<stop offset="0.918" stop-color="#005387"/>
<stop offset="1" stop-color="#004474"/>
</linearGradient>
<linearGradient id="paint2_linear_110_545" x1="93.6785" y1="6.20916" x2="80.5277" y2="34.6656" gradientUnits="userSpaceOnUse">
<stop stop-color="#6DCFF6"/>
<stop offset="0.431" stop-color="#00AEEF"/>
<stop offset="0.782" stop-color="#0088C7"/>
<stop offset="1" stop-color="#0072AA"/>
</linearGradient>
<clipPath id="clip0_110_545">
<rect width="180" height="65" fill="white"/>
</clipPath>
</defs>
</svg>
