<svg width="122" height="44" viewBox="0 0 122 44" fill="none" xmlns="http://www.w3.org/2000/svg">
<g clip-path="url(#clip0_110_232)">
<path d="M59.875 19.73C60.706 19.73 61.468 19.867 62.14 20.137C62.814 20.407 63.4 20.784 63.884 21.257C64.367 21.731 64.742 22.287 64.997 22.911C65.252 23.533 65.381 24.211 65.381 24.925C65.381 26.016 65.145 26.978 64.681 27.782C64.309 28.426 63.751 28.952 63.017 29.352C63.257 29.469 63.471 29.61 63.657 29.772C64 30.068 64.283 30.424 64.499 30.827C64.712 31.224 64.869 31.666 64.965 32.139C65.041 32.515 65.099 32.895 65.135 33.273H60.707C60.573 32.556 60.335 32.023 59.997 31.686C59.63 31.32 58.997 31.135 58.112 31.135H54.535V33.539H50V20.55C50.0125 20.328 50.1095 20.1193 50.2711 19.9666C50.4328 19.8139 50.6467 19.7289 50.869 19.729H59.875V19.73ZM74.954 19.73C75.327 19.73 75.642 19.965 75.768 20.293L80.634 33.273L66.029 33.175L70.932 20.224C71.0024 20.0765 71.1131 19.9518 71.2513 19.8644C71.3895 19.777 71.5495 19.7304 71.713 19.73H74.953H74.954ZM86.399 19.73C86.785 19.73 87.106 19.981 87.222 20.327L90.952 31.263L94.475 20.343C94.53 20.1657 94.6402 20.0106 94.7895 19.9004C94.9388 19.7901 95.1194 19.7304 95.305 19.73H99.842C100.306 19.73 100.682 20.093 100.71 20.549L100.703 29.525L96.423 30.602V26.95L95.089 30.79L87.056 32.127L85.272 27.056V32.49L80.986 32.75V20.6C80.986 20.12 81.38 19.729 81.863 19.729H86.399V19.73ZM73.299 25.306L71.423 30.577H75.113L73.3 25.306H73.299ZM108.197 19.314C109.103 19.314 109.992 19.43 110.83 19.634C111.681 19.833 112.488 20.1891 113.209 20.684C113.64 20.9861 114.025 21.3484 114.353 21.76C114.404 21.826 114.446 21.883 114.487 21.94C114.519 21.984 114.551 22.028 114.582 22.074L114.626 22.141C114.762 22.3418 114.884 22.5524 114.989 22.771C115.142 23.183 115.019 23.631 114.639 23.871C113.87 24.358 112.799 24.801 112.346 24.954C111.893 25.107 111.603 25.077 111.314 24.664C111.137 24.41 110.71 23.825 110.26 23.543C110.225 23.516 110.188 23.4907 110.15 23.467C109.851 23.2834 109.521 23.1556 109.176 23.09C108.551 22.962 107.783 22.907 107.036 23.064C106.769 23.1178 106.515 23.2205 106.286 23.367C106.069 23.507 105.886 23.685 105.746 23.894C105.617 24.087 105.552 24.345 105.552 24.659C105.552 24.944 105.602 25.171 105.702 25.333C105.771 25.443 105.938 25.613 106.348 25.805C106.716 25.978 107.241 26.155 107.908 26.331C108.451 26.475 109.127 26.65 109.934 26.855L103.441 29.077C103.266 28.9647 103.096 28.8466 102.929 28.723C102.394 28.3132 101.954 27.7931 101.638 27.198C101.308 26.585 101.141 25.839 101.141 24.98C101.141 24.02 101.352 23.17 101.767 22.456C102.172 21.756 102.724 21.1521 103.385 20.686C104.063 20.2103 104.819 19.8585 105.62 19.647C106.461 19.4234 107.327 19.3114 108.197 19.314ZM58.484 23.392H54.534V27.731H58.484C59.292 27.731 59.898 27.559 60.282 27.217C60.656 26.887 60.844 26.317 60.844 25.525C60.844 24.767 60.656 24.22 60.284 23.896C59.899 23.562 59.294 23.392 58.484 23.392Z" fill="url(#paint0_linear_110_232)"/>
<path fill-rule="evenodd" clip-rule="evenodd" d="M108.76 26.553C109.29 26.69 109.902 26.847 110.597 27.022C110.921 27.086 111.395 27.21 111.987 27.385C112.6 27.565 113.217 27.857 113.82 28.253C114.454 28.6776 114.995 29.2259 115.412 29.865C115.867 30.55 116.098 31.43 116.098 32.479C116.098 33.329 115.931 34.132 115.598 34.864C115.258 35.6089 114.747 36.2632 114.107 36.774C113.459 37.301 112.645 37.716 111.692 38.007C110.747 38.296 109.642 38.442 108.409 38.442C107.411 38.442 106.428 38.318 105.487 38.072C104.574 37.8426 103.712 37.4433 102.947 36.895C102.204 36.354 101.598 35.6469 101.177 34.83C100.958 34.3981 100.799 33.9386 100.703 33.464V37.172C100.703 37.653 100.312 38.044 99.83 38.044H97.289C97.0577 38.044 96.8359 37.9521 96.6724 37.7886C96.5089 37.625 96.417 37.4032 96.417 37.172V30.11C97.8537 29.8082 99.2827 29.4714 100.703 29.1V31.943C100.782 31.8214 100.891 31.7215 101.018 31.6524C101.146 31.5832 101.289 31.547 101.434 31.547H104.152C104.635 31.547 104.949 31.92 104.987 32.418C105.005 32.645 105.087 32.93 105.242 33.223C105.437 33.589 105.689 33.89 106.002 34.115C106.349 34.3576 106.738 34.5339 107.149 34.635C107.909 34.83 108.698 34.862 109.629 34.726C109.984 34.6753 110.329 34.5721 110.654 34.42C110.955 34.276 111.21 34.077 111.411 33.828C111.597 33.595 111.687 33.3 111.687 32.925C111.687 32.533 111.569 32.227 111.325 31.99C111.05 31.724 110.68 31.495 110.225 31.315C109.691 31.1066 109.142 30.9375 108.583 30.809C107.95 30.659 107.303 30.492 106.66 30.311C105.994 30.145 105.338 29.9393 104.697 29.695C104.063 29.4582 103.467 29.1305 102.928 28.722C102.855 28.6657 102.784 28.6074 102.714 28.547C104.755 27.9629 106.772 27.2977 108.76 26.553ZM85.268 31.888L85.267 37.172C85.267 37.654 84.877 38.043 84.394 38.043L83.86 38.046H78.301C78.1203 38.0427 77.9452 37.9832 77.8 37.8756C77.6548 37.7681 77.5468 37.6179 77.491 37.446L76.35 34.109H70.18L68.998 37.455C68.9399 37.6269 68.8293 37.7763 68.6819 37.8821C68.5344 37.988 68.3575 38.0449 68.176 38.045H62.084C61.8977 38.0447 61.7164 37.985 61.5664 37.8746C61.4164 37.7642 61.3056 37.6088 61.25 37.431C61.0944 36.8803 60.9999 36.3143 60.968 35.743C60.9223 35.0055 60.849 34.27 60.748 33.538C60.7339 33.4382 60.7172 33.3389 60.698 33.24C62.143 33.225 63.625 33.205 65.125 33.17C65.138 33.289 65.145 33.402 65.155 33.52C65.171 33.807 65.188 34.139 65.205 34.52C65.215 34.75 65.231 34.987 65.25 35.225L66.039 33.145C70.651 33.029 75.474 32.804 80.301 32.388L80.981 34.201V32.329C82.412 32.2 83.843 32.054 85.268 31.889V31.888ZM50 33.272L51.051 33.274H53.577L54.535 33.273V37.199C54.5288 37.4256 54.4344 37.6409 54.2719 37.7991C54.1095 37.9572 53.8917 38.0458 53.665 38.046H50.875C50.6436 38.046 50.4217 37.9543 50.2577 37.7911C50.0937 37.6279 50.0011 37.4063 50 37.175V33.272ZM95.236 30.365L92.776 37.445C92.7193 37.619 92.6092 37.7707 92.4612 37.8785C92.3132 37.9862 92.135 38.0445 91.952 38.045H89.733C89.5562 38.0447 89.3838 37.9906 89.2385 37.8898C89.0933 37.7891 88.9822 37.6464 88.92 37.481L86.9 31.688C88.2368 31.5189 89.5709 31.3295 90.902 31.12L90.952 31.26L90.999 31.106C92.427 30.879 93.841 30.642 95.236 30.366V30.365Z" fill="#78C339"/>
<path d="M98.37 8.046C96.553 12.153 99.156 16.089 103.712 17.286C107.055 18.163 110.834 16.96 112.19 14.429L111.696 13.938C111.546 13.788 111.462 13.5846 111.462 13.3725C111.462 13.1604 111.546 12.957 111.696 12.807L112.666 11.839L112.68 11.827C112.413 10.175 110.97 9.084 109.49 8.679C107.13 8.034 104.967 8.829 103.91 10.279C103.768 10.47 104.056 10.594 104.056 10.594C104.056 10.594 105.078 11.065 105.233 11.149C105.387 11.235 105.533 11.081 105.616 11.013C106.236 10.503 107.169 10.128 108.205 10.437C109.654 10.87 110.206 12.037 109.622 13.231C108.842 14.823 106.579 15.206 104.925 14.79C102.23 14.112 101.288 11.796 102.197 9.6C103.257 7.047 107.315 5.595 110.85 6.63C114.875 7.898 116.76 11.259 115.12 14.964C114.764 15.768 114.199 16.59 113.442 17.372C113.368 17.449 113.292 17.525 113.214 17.6L113.153 17.661C113.052 17.758 112.948 17.854 112.841 17.949L112.831 17.959C112.597 18.1655 112.355 18.3637 112.107 18.553C112.18 18.579 112.252 18.608 112.323 18.637C112.333 18.64 112.343 18.643 112.351 18.647C112.591 18.7443 112.826 18.8524 113.056 18.971C113.108 18.998 113.158 19.026 113.209 19.054L113.282 19.093C113.337 19.123 113.392 19.155 113.445 19.188L113.503 19.221C114.624 19.884 115.529 20.8571 116.109 22.023L116.126 22.057C116.152 22.11 116.178 22.164 116.202 22.219L116.212 22.242C116.269 22.369 116.322 22.496 116.37 22.625C119.68 20.308 121.042 17.167 121.281 16.515L121.283 16.511C121.286 16.5045 121.288 16.4978 121.29 16.491C122.878 12.127 121.756 6.703 116.013 3.561C115.691 3.38627 115.364 3.22152 115.032 3.067L115.043 3.077C114.565 2.867 114.068 2.688 113.553 2.545C112.403 2.223 111.015 2.085 109.89 2.024C109.591 2.00802 109.292 2.00002 108.993 2C103.943 2 99.963 4.347 98.37 8.046Z" fill="url(#paint1_linear_110_232)"/>
<path d="M113.443 14.55C113.387 14.6059 113.31 14.6373 113.231 14.6373C113.152 14.6373 113.075 14.6059 113.019 14.55L112.05 13.583C111.994 13.5269 111.963 13.4511 111.963 13.372C111.963 13.2929 111.994 13.217 112.05 13.161L113.02 12.194C113.077 12.1386 113.152 12.1075 113.232 12.1075C113.311 12.1075 113.387 12.1386 113.443 12.194L114.411 13.16C114.439 13.1877 114.461 13.2206 114.476 13.2569C114.491 13.2932 114.499 13.3321 114.499 13.3715C114.499 13.4108 114.491 13.4497 114.476 13.486C114.461 13.5223 114.439 13.5553 114.411 13.583L113.443 14.55Z" fill="#0083C2"/>
<path d="M116.631 12.2881C116.401 13.1131 115.015 15.9141 113.48 17.3211C113.073 17.7411 112.623 18.1611 112.107 18.5531C112.748 18.7895 113.356 19.1078 113.915 19.5001C114.784 20.1034 115.497 20.9057 115.993 21.8401C116.129 22.0981 116.275 22.3681 116.37 22.6251C119.685 20.2971 121.05 17.1651 121.281 16.5151C122.993 11.9011 121.644 6.10408 115.029 3.05908C117.297 5.26508 117.596 8.93208 116.631 12.2881Z" fill="url(#paint2_linear_110_232)"/>
</g>
<defs>
<linearGradient id="paint0_linear_110_232" x1="81.8877" y1="21.8405" x2="81.8877" y2="34.1527" gradientUnits="userSpaceOnUse">
<stop stop-color="#00B6F1"/>
<stop offset="0.144" stop-color="#00AEEF"/>
<stop offset="0.316" stop-color="#00A0E0"/>
<stop offset="0.643" stop-color="#007DBA"/>
<stop offset="0.644" stop-color="#007DBA"/>
<stop offset="1" stop-color="#005282"/>
</linearGradient>
<linearGradient id="paint1_linear_110_232" x1="105.008" y1="12.957" x2="117.071" y2="11.4434" gradientUnits="userSpaceOnUse">
<stop stop-color="#0083C2"/>
<stop offset="0.629" stop-color="#0081C0"/>
<stop offset="0.733" stop-color="#007CB9"/>
<stop offset="0.807" stop-color="#0072AE"/>
<stop offset="0.867" stop-color="#00659D"/>
<stop offset="0.918" stop-color="#005387"/>
<stop offset="1" stop-color="#004474"/>
</linearGradient>
<linearGradient id="paint2_linear_110_232" x1="118.135" y1="2.87712" x2="108.574" y2="23.5151" gradientUnits="userSpaceOnUse">
<stop stop-color="#6DCFF6"/>
<stop offset="0.431" stop-color="#00AEEF"/>
<stop offset="0.782" stop-color="#0088C7"/>
<stop offset="1" stop-color="#0072AA"/>
</linearGradient>
<clipPath id="clip0_110_232">
<rect width="122" height="44" fill="white"/>
</clipPath>
</defs>
</svg>
