<svg width="64" height="64" viewBox="0 0 64 64" fill="none" xmlns="http://www.w3.org/2000/svg">
<g clip-path="url(#clip0_1_291)">
<path d="M32 64C49.6731 64 64 49.6731 64 32C64 14.3269 49.6731 0 32 0C14.3269 0 0 14.3269 0 32C0 49.6731 14.3269 64 32 64Z" fill="white"/>
<path fill-rule="evenodd" clip-rule="evenodd" d="M37.7648 41.6861H26.0903C21.3046 41.6861 17.4109 37.7935 17.4109 33.0078C17.4109 28.2221 21.3046 24.3272 26.0903 24.3272H37.7648C42.5505 24.3272 46.4431 28.2221 46.4431 33.0078C46.4431 37.7935 42.5505 41.6861 37.7648 41.6861ZM51.9663 24.4546C50.5827 24.4546 49.6637 24.9463 49.1089 26.6637C46.8807 22.6955 42.6306 20.0072 37.7648 20.0072H26.0903C21.2392 20.0072 17.0016 22.6786 14.7677 26.6264C14.2107 24.9384 13.295 24.4546 11.9227 24.4546H4.70916C5.27411 24.6869 5.64962 26.1483 5.64962 26.1483L9.13177 38.2423C9.53546 39.7612 10.7917 40.5596 12.2147 40.5596H15.5153C17.8755 43.8557 21.7365 46.0072 26.0903 46.0072H37.7648C42.1175 46.0072 45.9785 43.8557 48.3398 40.5596H51.6743C53.0973 40.5596 54.3535 39.7612 54.755 38.2423L58.2394 26.1483C58.2394 26.1483 58.6138 24.6869 59.1798 24.4546H51.9663Z" fill="#DA1710"/>
<path fill-rule="evenodd" clip-rule="evenodd" d="M39.7811 30.4487C38.3355 30.4487 37.165 31.6203 37.165 33.0648C37.165 34.5104 38.3355 35.6809 39.7811 35.6809C41.2257 35.6809 42.3961 34.5104 42.3961 33.0648C42.3961 31.6203 41.2257 30.4487 39.7811 30.4487ZM24.6594 30.4487C23.2137 30.4487 22.0433 31.6203 22.0433 33.0648C22.0433 34.5104 23.2137 35.6809 24.6594 35.6809C26.1039 35.6809 27.2755 34.5104 27.2755 33.0648C27.2755 31.6203 26.1039 30.4487 24.6594 30.4487Z" fill="#2A2E42"/>
</g>
<defs>
<clipPath id="clip0_1_291">
<rect width="64" height="64" fill="white"/>
</clipPath>
</defs>
</svg>
