<svg width="67" height="32" viewBox="0 0 67 32" fill="none" xmlns="http://www.w3.org/2000/svg">
<g clip-path="url(#clip0_1_289)">
<path fill-rule="evenodd" clip-rule="evenodd" d="M40.6591 26.6817H26.2993C20.4128 26.6817 15.6234 21.8908 15.6234 16.0007C15.6234 10.1106 20.4128 5.31691 26.2993 5.31691H40.6591C46.5456 5.31691 51.3336 10.1106 51.3336 16.0007C51.3336 21.8908 46.5456 26.6817 40.6591 26.6817ZM58.1272 5.47374C56.4254 5.47374 55.2949 6.07885 54.6125 8.19257C51.8718 3.30867 46.6441 0 40.6591 0H26.2993C20.3323 0 15.1199 3.28785 12.3722 8.14677C11.687 6.06913 10.5608 5.47374 8.87277 5.47374H0C0.694897 5.75964 1.15677 7.55831 1.15677 7.55831L5.43989 22.4432C5.93645 24.3126 7.48159 25.2952 9.23201 25.2952H13.2918C16.1948 29.352 20.944 32 26.2993 32H40.6591C46.013 32 50.7622 29.352 53.6666 25.2952H57.768C59.5184 25.2952 61.0636 24.3126 61.5573 22.4432L65.8432 7.55831C65.8432 7.55831 66.3037 5.75964 67 5.47374H58.1272Z" fill="#DA1710"/>
<path fill-rule="evenodd" clip-rule="evenodd" d="M24.5541 12.8511C22.7749 12.8511 21.3343 14.2931 21.3343 16.0709C21.3343 17.8502 22.7749 19.2908 24.5541 19.2908C26.332 19.2908 27.774 17.8502 27.774 16.0709C27.774 14.2931 26.332 12.8511 24.5541 12.8511ZM43.1655 12.8511C41.3863 12.8511 39.9457 14.2931 39.9457 16.0709C39.9457 17.8502 41.3863 19.2908 43.1655 19.2908C44.9434 19.2908 46.384 17.8502 46.384 16.0709C46.384 14.2931 44.9434 12.8511 43.1655 12.8511Z" fill="#2A2E42"/>
</g>
<defs>
<clipPath id="clip0_1_289">
<rect width="67" height="32" fill="white"/>
</clipPath>
</defs>
</svg>
