<svg width="64" height="64" viewBox="0 0 64 64" fill="none" xmlns="http://www.w3.org/2000/svg">
<g clip-path="url(#clip0_1_290)">
<path d="M32 64C49.6731 64 64 49.6731 64 32C64 14.3269 49.6731 0 32 0C14.3269 0 0 14.3269 0 32C0 49.6731 14.3269 64 32 64Z" fill="#DA1710"/>
<path fill-rule="evenodd" clip-rule="evenodd" d="M37.7648 41.6861C42.5505 41.6861 46.4431 37.7935 46.4431 33.0078C46.4431 28.2221 42.5505 24.3272 37.7648 24.3272H26.0904C21.3046 24.3272 17.4109 28.2221 17.4109 33.0078C17.4109 37.7935 21.3046 41.6861 26.0904 41.6861H37.7648ZM51.9663 24.4546H59.1798C58.6138 24.6869 58.2394 26.1483 58.2394 26.1483L54.755 38.2423C54.3535 39.7612 53.0973 40.5596 51.6743 40.5596H48.3398C45.9785 43.8557 42.1175 46.0072 37.7648 46.0072H26.0904C21.7365 46.0072 17.8755 43.8557 15.5153 40.5596H12.2147C10.7917 40.5596 9.53547 39.7612 9.13177 38.2423L5.64962 26.1483C5.64962 26.1483 5.27412 24.6869 4.70917 24.4546H11.9227C13.295 24.4546 14.2107 24.9384 14.7677 26.6264C17.0016 22.6786 21.2392 20.0072 26.0904 20.0072H37.7648C42.6306 20.0072 46.8807 22.6955 49.1089 26.6637C49.6637 24.9463 50.5827 24.4546 51.9663 24.4546ZM24.6594 30.4487C26.1039 30.4487 27.2755 31.6203 27.2755 33.0648C27.2755 34.5105 26.1039 35.681 24.6594 35.681C23.2137 35.681 22.0433 34.5105 22.0433 33.0648C22.0433 31.6203 23.2137 30.4487 24.6594 30.4487ZM39.7811 30.4487C41.2257 30.4487 42.3961 31.6203 42.3961 33.0648C42.3961 34.5105 41.2257 35.681 39.7811 35.681C38.3355 35.681 37.165 34.5105 37.165 33.0648C37.165 31.6203 38.3355 30.4487 39.7811 30.4487Z" fill="#FEFEFE"/>
</g>
<defs>
<clipPath id="clip0_1_290">
<rect width="64" height="64" fill="white"/>
</clipPath>
</defs>
</svg>
