<svg width="366" height="63" viewBox="0 0 366 63" fill="none" xmlns="http://www.w3.org/2000/svg">
<g clip-path="url(#clip0_822_743)">
<path d="M355.34 0.23999H10.63C4.88999 0.23999 0.23999 4.88999 0.23999 10.63V52.2C0.23999 57.94 4.88999 62.59 10.63 62.59H355.34C361.08 62.59 365.73 57.94 365.73 52.2V10.63C365.74 4.88999 361.09 0.23999 355.34 0.23999Z" fill="black"/>
<path d="M278.46 21.0599H271.35V41.8099H275.22V35.8699H278.43C282.75 35.8699 285.93 32.5699 285.93 28.4499C285.94 24.3499 282.75 21.0599 278.46 21.0599ZM278.18 32.2799H275.22V24.6299H278.18C280.48 24.6299 282.05 26.3399 282.05 28.4399C282.04 30.5799 280.48 32.2799 278.18 32.2799Z" fill="white"/>
<path d="M300.27 27.17C299.08 25.75 297.12 24.84 294.93 24.84C290.72 24.84 286.69 28 286.69 33.51C286.69 38.94 290.87 42.15 294.88 42.15C297.07 42.15 299.06 41.18 300.28 39.65V41.81H304.12V25.18H300.28V27.17H300.27ZM295.49 38.62C292.65 38.62 290.46 36.35 290.46 33.45C290.46 30.58 292.65 28.33 295.49 28.33C298.33 28.33 300.46 30.63 300.46 33.45C300.47 36.32 298.33 38.62 295.49 38.62Z" fill="white"/>
<path d="M314.08 36.3799L309.45 25.1799H305.36L312.18 40.9799L308.68 49.4799H312.58L322.5 25.1799H318.46L314.08 36.3799Z" fill="white"/>
<path d="M231.21 36.8699H231.1L226.64 21.6399H219.44V40.8499H224.21L223.94 25.0899H224.05L228.84 40.8499H235.75V21.6399H230.94L231.21 36.8699Z" fill="white"/>
<path d="M139.58 21.6399L135.98 41.0499H141.23L143.88 23.4399H143.99L146.58 41.0499H151.79L148.21 21.6399H139.58Z" fill="white"/>
<path d="M168.9 21.6399L166.51 36.4799H166.4L164.01 21.6399H156.09L155.67 41.0499H160.52L160.64 23.5999H160.75L163.99 41.0499H168.92L172.16 23.5999H172.27L172.39 41.0499H177.25L176.82 21.6399H168.9Z" fill="white"/>
<path d="M123.96 26.6399C123.87 26.2499 123.89 25.8399 123.94 25.6199C124.08 24.9999 124.5 24.3199 125.71 24.3199C126.85 24.3199 127.51 25.0199 127.51 26.0799V27.2799H132.35V25.9099C132.35 21.6799 128.55 21.0199 125.81 21.0199C122.36 21.0199 119.54 22.1599 119.02 25.3299C118.88 26.1999 118.86 26.9699 119.07 27.9499C119.91 31.9199 126.81 33.0599 127.81 35.5799C128 36.0499 127.94 36.6499 127.85 37.0199C127.69 37.6699 127.25 38.3299 125.96 38.3299C124.75 38.3299 124.01 37.6299 124.01 36.5699V34.6899H118.8V36.1899C118.8 40.5199 122.21 41.8299 125.85 41.8299C129.36 41.8299 132.25 40.6299 132.71 37.3899C132.95 35.7099 132.77 34.6199 132.69 34.2099C131.87 30.1199 124.51 28.9099 123.96 26.6399Z" fill="white"/>
<path d="M187.1 26.6899C187.01 26.2999 187.03 25.8999 187.08 25.6799C187.22 25.0599 187.64 24.3899 188.83 24.3899C189.96 24.3899 190.62 25.0799 190.62 26.1299V27.3199H195.41V25.9699C195.41 21.7799 191.65 21.1299 188.93 21.1299C185.52 21.1299 182.72 22.2599 182.21 25.3899C182.07 26.2499 182.05 27.0099 182.25 27.9799C183.08 31.9099 189.91 33.0399 190.9 35.5299C191.09 35.9999 191.03 36.5899 190.94 36.9499C190.78 37.5899 190.35 38.2399 189.07 38.2399C187.87 38.2399 187.14 37.5499 187.14 36.4999V34.6399H181.99V36.1199C181.99 40.4099 185.36 41.6999 188.98 41.6999C192.46 41.6999 195.32 40.5199 195.77 37.3099C196 35.6499 195.83 34.5699 195.75 34.1599C194.93 30.1399 187.64 28.9399 187.1 26.6899Z" fill="white"/>
<path d="M209.11 35.9899C209.11 36.2399 209.11 36.5199 209.06 36.7299C208.96 37.2099 208.55 38.1399 207.2 38.1399C205.85 38.1399 205.43 37.2099 205.34 36.7299C205.3 36.5199 205.29 36.2399 205.29 35.9899V21.6399H200.38V35.5599C200.37 35.9199 200.41 36.6499 200.42 36.8399C200.76 40.4599 203.62 41.6399 207.19 41.6399C210.76 41.6399 213.62 40.4699 213.96 36.8399C213.98 36.6499 214.02 35.9199 214.01 35.5599V21.6399H209.1V35.9899H209.11Z" fill="white"/>
<path d="M247.73 32.98H249.72V35.8C249.72 36.05 249.71 36.32 249.67 36.54C249.58 37.06 249.09 37.95 247.69 37.95C246.29 37.95 245.8 37.06 245.7 36.54C245.66 36.32 245.65 36.05 245.66 35.8V26.93C245.66 26.61 245.68 26.27 245.74 26.01C245.85 25.53 246.26 24.6 247.67 24.6C249.15 24.6 249.52 25.58 249.61 26.01C249.67 26.29 249.67 26.75 249.67 26.75V27.84H254.57V27.19C254.57 27.19 254.59 26.53 254.52 25.91C254.16 22.27 251.15 21.11 247.71 21.11C244.27 21.11 241.33 22.28 240.9 25.91C240.86 26.23 240.82 26.84 240.82 27.19V35.36C240.82 35.73 240.83 35.99 240.89 36.64C241.21 40.17 244.28 41.44 247.72 41.44C251.16 41.44 254.22 40.18 254.55 36.64C254.61 35.99 254.62 35.73 254.62 35.36V30.16H247.75V32.98H247.73Z" fill="white"/>
<path d="M28.34 21.35L21.37 41.63H24.9L26.36 36.92H33.98L35.44 41.63H39L32.03 21.35H28.34ZM27.25 33.98L30.13 24.65L33.04 33.98H27.25Z" fill="white"/>
<path d="M50.01 27.7299C49.56 27.1899 49.01 26.7699 48.34 26.4799C47.68 26.1899 46.95 26.0499 46.17 26.0499C44.38 26.0499 42.99 26.7499 42 28.1399C41.01 29.5299 40.52 31.4899 40.52 34.0099C40.52 36.5299 41 38.4899 41.98 39.8899C42.95 41.2899 44.31 41.9899 46.07 41.9899C47.92 41.9899 49.34 41.1599 50.33 39.4999V41.6299H53.33V20.0599H50.02V27.7299H50.01ZM50.01 37.4499C49.54 37.9499 49.08 38.3199 48.62 38.5399C48.16 38.7599 47.65 38.8799 47.09 38.8799C44.96 38.8799 43.9 37.2199 43.9 33.8899C43.9 30.6399 44.92 29.0199 46.95 29.0199C47.53 29.0199 48.08 29.1399 48.62 29.3799C49.15 29.6199 49.61 29.9699 50.01 30.4199V37.4499Z" fill="white"/>
<path d="M65.97 27.7299C65.52 27.1899 64.97 26.7699 64.3 26.4799C63.64 26.1899 62.91 26.0499 62.13 26.0499C60.34 26.0499 58.95 26.7499 57.96 28.1399C56.97 29.5299 56.48 31.4899 56.48 34.0099C56.48 36.5299 56.96 38.4899 57.94 39.8899C58.91 41.2899 60.27 41.9899 62.03 41.9899C63.88 41.9899 65.3 41.1599 66.29 39.4999V41.6299H69.29V20.0599H65.98V27.7299H65.97ZM65.97 37.4499C65.5 37.9499 65.04 38.3199 64.58 38.5399C64.12 38.7599 63.61 38.8799 63.05 38.8799C60.92 38.8799 59.86 37.2199 59.86 33.8899C59.86 30.6399 60.88 29.0199 62.91 29.0199C63.49 29.0199 64.04 29.1399 64.58 29.3799C65.11 29.6199 65.58 29.9699 65.97 30.4199V37.4499Z" fill="white"/>
<path d="M85.31 38.8799C84.49 38.8799 83.9 38.6799 83.53 38.2799C83.17 37.8799 82.98 37.2299 82.98 36.3299V29.2699H87.24V26.4099H82.98V22.1799H79.67V26.4099H77.26V29.2699H79.67V36.8899C79.67 40.1999 81.37 41.8499 84.77 41.8499C85.7 41.8499 86.59 41.7199 87.43 41.4599L86.93 38.6599C86.38 38.8099 85.84 38.8799 85.31 38.8799Z" fill="white"/>
<path d="M95.64 26.0499C93.51 26.0499 91.87 26.7299 90.72 28.0799C89.57 29.4299 89 31.4199 89 34.0299C89 36.6399 89.57 38.6199 90.71 39.9699C91.85 41.3099 93.48 41.9899 95.61 41.9899C97.74 41.9899 99.38 41.3199 100.53 39.9699C101.68 38.6299 102.25 36.6499 102.25 34.0299C102.25 31.4199 101.68 29.4299 100.54 28.0799C99.41 26.7299 97.77 26.0499 95.64 26.0499ZM98.05 37.7899C97.51 38.6299 96.7 39.0499 95.61 39.0499C94.55 39.0499 93.74 38.6299 93.2 37.7899C92.66 36.9499 92.39 35.6999 92.39 34.0399C92.39 30.6999 93.47 29.0299 95.64 29.0299C97.79 29.0299 98.86 30.6999 98.86 34.0399C98.87 35.6999 98.59 36.9499 98.05 37.7899Z" fill="white"/>
<path d="M344.89 30.8999C344.54 30.4799 344.17 30.0799 343.77 29.6999C343.36 29.3199 342.96 28.9299 342.56 28.5299C342.17 28.1499 341.76 27.7599 341.35 27.3499C340.93 26.9699 340.52 26.5799 340.11 26.1799C339.72 25.7799 339.31 25.3899 338.9 25.0099C338.51 24.6099 338.1 24.2099 337.69 23.8099C337.3 23.4099 336.9 23.0099 336.48 22.6099L335.89 22.0099C335.7 21.8099 335.45 21.6499 335.14 21.5299H334.95C334.7 21.5699 334.52 21.6499 334.39 21.7699C333.98 22.1699 333.57 22.5699 333.18 22.9699L332.93 23.3299C332.83 23.6299 332.88 23.8799 333.09 24.0799C333.48 24.4999 333.88 24.9099 334.27 25.3199C334.68 25.6999 335.09 26.0899 335.48 26.4899C335.87 26.8899 336.28 27.2899 336.69 27.6899C337.08 28.0699 337.49 28.4599 337.9 28.8699C338.29 29.2699 338.69 29.6699 339.11 30.0699C339.5 30.4699 339.9 30.8699 340.29 31.2799L340.01 31.5799C339.6 31.9799 339.19 32.3699 338.8 32.7499C338.39 33.1499 337.98 33.5499 337.59 33.9499C337.17 34.3499 336.77 34.7499 336.38 35.1599C335.97 35.5599 335.56 35.9599 335.17 36.3599C334.78 36.7599 334.37 37.1599 333.96 37.5699L333.37 38.1399L332.97 38.6199L332.94 39.2199L333.13 39.5499L333.19 39.5799C333.58 39.9799 333.99 40.3799 334.4 40.7799C334.54 40.9199 334.77 40.9899 335.08 40.9899L335.33 40.9299C335.6 40.7699 335.85 40.5699 336.07 40.3299C336.32 40.0699 336.58 39.8099 336.85 39.5499L337.28 39.1299C337.67 38.7499 338.08 38.3599 338.49 37.9599C338.9 37.5599 339.31 37.1699 339.7 36.7899C340.11 36.3899 340.51 35.9899 340.91 35.5799C341.32 35.1999 341.72 34.8099 342.12 34.4099C342.53 34.0099 342.94 33.6199 343.33 33.2399C343.74 32.8399 344.15 32.4499 344.54 32.0699L344.88 31.6499L344.94 31.0199L344.89 30.8999Z" fill="white"/>
</g>
<defs>
<clipPath id="clip0_822_743">
<rect width="366" height="63" fill="white"/>
</clipPath>
</defs>
</svg>
