<svg width="422" height="63" viewBox="0 0 422 63" fill="none" xmlns="http://www.w3.org/2000/svg">
<g clip-path="url(#clip0_822_828)">
<path d="M410.67 0.23999H10.63C4.88999 0.23999 0.23999 4.88999 0.23999 10.63V52.2C0.23999 57.94 4.88999 62.59 10.63 62.59H410.67C416.41 62.59 421.06 57.94 421.06 52.2V10.63C421.06 4.88999 416.41 0.23999 410.67 0.23999Z" fill="black"/>
<path d="M163.73 49.58V13.65" stroke="white" stroke-width="0.2799" stroke-linejoin="round"/>
<path d="M333.78 21.0601H326.67V41.8101H330.54V35.8701H333.75C338.07 35.8701 341.25 32.5701 341.25 28.4501C341.26 24.3501 338.08 21.0601 333.78 21.0601ZM333.5 32.2801H330.54V24.6301H333.5C335.8 24.6301 337.37 26.3401 337.37 28.4401C337.37 30.5801 335.8 32.2801 333.5 32.2801Z" fill="white"/>
<path d="M355.59 27.17C354.4 25.75 352.44 24.84 350.25 24.84C346.04 24.84 342.01 28 342.01 33.51C342.01 38.94 346.19 42.15 350.2 42.15C352.39 42.15 354.38 41.18 355.6 39.65V41.81H359.44V25.18H355.6V27.17H355.59ZM350.81 38.62C347.97 38.62 345.78 36.35 345.78 33.45C345.78 30.58 347.97 28.33 350.81 28.33C353.65 28.33 355.78 30.63 355.78 33.45C355.79 36.32 353.66 38.62 350.81 38.62Z" fill="white"/>
<path d="M369.41 36.3801L364.77 25.1801H360.68L367.5 40.9801L364.01 49.4801H367.9L377.82 25.1801H373.78L369.41 36.3801Z" fill="white"/>
<path d="M286.53 36.87H286.43L281.96 21.64H274.76V40.85H279.53L279.26 25.09H279.37L284.16 40.85H291.07V21.64H286.27L286.53 36.87Z" fill="white"/>
<path d="M194.9 21.64L191.3 41.05H196.55L199.2 23.44H199.31L201.9 41.05H207.11L203.54 21.64H194.9Z" fill="white"/>
<path d="M224.23 21.64L221.83 36.48H221.72L219.33 21.64H211.42L210.99 41.05H215.85L215.97 23.6H216.08L219.32 41.05H224.24L227.49 23.6H227.59L227.71 41.05H232.57L232.14 21.64H224.23Z" fill="white"/>
<path d="M179.28 26.64C179.19 26.24 179.21 25.84 179.26 25.62C179.4 25 179.82 24.32 181.03 24.32C182.17 24.32 182.83 25.02 182.83 26.08V27.28H187.67V25.91C187.67 21.68 183.87 21.02 181.13 21.02C177.68 21.02 174.86 22.16 174.34 25.33C174.2 26.2 174.18 26.97 174.39 27.95C175.23 31.92 182.13 33.06 183.13 35.58C183.32 36.05 183.26 36.65 183.17 37.02C183.01 37.67 182.57 38.33 181.28 38.33C180.07 38.33 179.33 37.63 179.33 36.57V34.69H174.12V36.19C174.12 40.52 177.53 41.83 181.17 41.83C184.68 41.83 187.57 40.63 188.03 37.39C188.27 35.71 188.09 34.62 188.01 34.21C187.19 30.12 179.83 28.91 179.28 26.64Z" fill="white"/>
<path d="M242.42 26.69C242.33 26.3 242.35 25.9 242.4 25.68C242.54 25.06 242.96 24.39 244.15 24.39C245.28 24.39 245.94 25.08 245.94 26.13V27.32H250.73V25.97C250.73 21.78 246.97 21.13 244.25 21.13C240.84 21.13 238.04 22.26 237.53 25.39C237.39 26.25 237.37 27.01 237.57 27.98C238.4 31.91 245.23 33.04 246.22 35.53C246.41 36 246.35 36.59 246.26 36.95C246.1 37.59 245.67 38.24 244.39 38.24C243.19 38.24 242.46 37.55 242.46 36.5V34.64H237.31V36.12C237.31 40.41 240.68 41.7 244.3 41.7C247.78 41.7 250.64 40.52 251.09 37.31C251.32 35.65 251.15 34.57 251.07 34.16C250.26 30.14 242.97 28.94 242.42 26.69Z" fill="white"/>
<path d="M264.44 35.99C264.44 36.24 264.44 36.52 264.39 36.73C264.29 37.21 263.88 38.14 262.53 38.14C261.18 38.14 260.76 37.21 260.67 36.73C260.63 36.52 260.62 36.24 260.62 35.99V21.64H255.71V35.56C255.7 35.92 255.74 36.65 255.75 36.84C256.09 40.46 258.95 41.64 262.52 41.64C266.09 41.64 268.95 40.47 269.29 36.84C269.31 36.65 269.35 35.92 269.34 35.56V21.64H264.43V35.99H264.44Z" fill="white"/>
<path d="M303.05 32.98H305.04V35.8C305.04 36.05 305.03 36.32 304.99 36.54C304.9 37.06 304.41 37.95 303.01 37.95C301.61 37.95 301.12 37.06 301.03 36.54C300.99 36.32 300.98 36.05 300.99 35.8V26.93C300.99 26.61 301.01 26.27 301.07 26.01C301.18 25.53 301.59 24.6 303 24.6C304.48 24.6 304.85 25.58 304.94 26.01C305 26.29 305 26.75 305 26.75V27.84H309.9V27.19C309.9 27.19 309.92 26.53 309.85 25.91C309.49 22.27 306.48 21.11 303.04 21.11C299.6 21.11 296.66 22.28 296.23 25.91C296.19 26.23 296.15 26.84 296.15 27.19V35.36C296.15 35.73 296.16 35.99 296.22 36.64C296.54 40.17 299.61 41.44 303.05 41.44C306.49 41.44 309.55 40.18 309.88 36.64C309.94 35.99 309.95 35.73 309.95 35.36V30.16H303.08V32.98H303.05Z" fill="white"/>
<path d="M400.21 30.9C399.86 30.48 399.48 30.08 399.09 29.7C398.68 29.32 398.28 28.93 397.88 28.53C397.49 28.15 397.08 27.76 396.67 27.35C396.25 26.97 395.84 26.58 395.43 26.18C395.04 25.78 394.63 25.39 394.22 25.01C393.83 24.61 393.42 24.21 393.01 23.81C392.62 23.41 392.22 23.01 391.8 22.61L391.21 22.01C391.02 21.81 390.77 21.65 390.46 21.53H390.27C390.02 21.57 389.84 21.65 389.71 21.77C389.3 22.17 388.89 22.57 388.5 22.97L388.25 23.33C388.15 23.63 388.2 23.88 388.41 24.08C388.8 24.5 389.2 24.91 389.59 25.32C390 25.7 390.41 26.09 390.8 26.49C391.19 26.89 391.6 27.29 392.01 27.69C392.4 28.07 392.81 28.46 393.22 28.87C393.61 29.27 394.01 29.67 394.43 30.07C394.82 30.47 395.22 30.88 395.61 31.28L395.33 31.58C394.92 31.98 394.51 32.37 394.12 32.75C393.71 33.15 393.3 33.55 392.91 33.95C392.49 34.35 392.09 34.75 391.7 35.16C391.29 35.56 390.88 35.96 390.49 36.36C390.1 36.76 389.69 37.17 389.28 37.57L388.69 38.14L388.29 38.62L388.26 39.22L388.45 39.55L388.51 39.58C388.9 39.98 389.31 40.38 389.72 40.78C389.86 40.92 390.09 40.99 390.4 40.99L390.65 40.93C390.92 40.77 391.17 40.57 391.39 40.33C391.64 40.07 391.9 39.81 392.17 39.55L392.6 39.13C392.99 38.75 393.4 38.36 393.81 37.96C394.22 37.56 394.63 37.17 395.02 36.79C395.43 36.39 395.83 35.99 396.23 35.58C396.64 35.2 397.04 34.81 397.44 34.4C397.85 34 398.26 33.61 398.65 33.23C399.06 32.83 399.47 32.44 399.86 32.06L400.2 31.64L400.26 31.01L400.21 30.9Z" fill="white"/>
<path d="M153.34 13.65H21.03V48.84H153.34V13.65Z" stroke="#FBF9FC" stroke-width="0.2799" stroke-dasharray="2 2"/>
<path d="M45.4 26.16H41.1V38.05H43.07V34.18H45.3C46.56 34.18 47.54 33.83 48.24 33.12C48.94 32.41 49.29 31.43 49.29 30.15C49.29 28.88 48.95 27.9 48.27 27.2C47.59 26.51 46.64 26.16 45.4 26.16ZM45.4 32.42H43.07V27.92H45.3C46.6 27.92 47.25 28.67 47.25 30.19C47.26 31.67 46.64 32.42 45.4 32.42Z" fill="white"/>
<path d="M53.61 28.92C52.62 28.92 51.66 29.15 50.7 29.61L51.19 31.12C51.88 30.81 52.57 30.66 53.28 30.66C54.47 30.66 55.07 31.12 55.07 32.04V32.45C53.27 32.46 51.96 32.72 51.14 33.21C50.31 33.71 49.9 34.49 49.9 35.55C49.9 36.39 50.14 37.05 50.61 37.52C51.08 37.99 51.75 38.23 52.61 38.23C53.81 38.23 54.69 37.75 55.25 36.8V38.05H56.99V31.83C56.99 30.9 56.69 30.18 56.1 29.68C55.5 29.17 54.67 28.92 53.61 28.92ZM55.07 35.65C54.52 36.26 53.86 36.57 53.08 36.57C52.2 36.57 51.77 36.18 51.77 35.4C51.77 34.85 52.03 34.45 52.56 34.19C53.09 33.93 53.92 33.79 55.07 33.77V35.65Z" fill="white"/>
<path d="M61.19 30.5V29.14H59.43V38.06H61.37V31.75C61.58 31.43 61.82 31.2 62.09 31.06C62.36 30.92 62.7 30.85 63.09 30.85C63.47 30.85 63.83 30.91 64.16 31.01L64.55 29.17C64.25 29.03 63.91 28.96 63.53 28.96C62.52 28.95 61.74 29.47 61.19 30.5Z" fill="white"/>
<path d="M69.88 36.44C69.4 36.44 69.05 36.32 68.84 36.09C68.63 35.86 68.52 35.47 68.52 34.95V30.81H71.02V29.14H68.52V26.66H66.58V29.14H65.17V30.81H66.58V35.28C66.58 37.22 67.58 38.19 69.57 38.19C70.12 38.19 70.64 38.11 71.13 37.96L70.83 36.32C70.51 36.4 70.19 36.44 69.88 36.44Z" fill="white"/>
<path d="M77.2 28.92C76.13 28.92 75.23 29.35 74.51 30.22V29.14H72.75V38.06H74.69V31.43C75.25 30.98 75.85 30.76 76.5 30.76C77.47 30.76 77.96 31.2 77.96 32.09V38.07H79.9V31.85C79.9 30.93 79.66 30.22 79.19 29.71C78.72 29.18 78.06 28.92 77.2 28.92Z" fill="white"/>
<path d="M85.66 28.92C84.43 28.92 83.48 29.33 82.8 30.14C82.12 30.96 81.78 32.11 81.78 33.6C81.78 35.07 82.14 36.21 82.86 37.02C83.58 37.83 84.6 38.24 85.93 38.24C86.5 38.24 87.05 38.16 87.6 38.01C88.14 37.86 88.61 37.64 89.02 37.37L88.31 35.91C87.63 36.29 86.9 36.48 86.13 36.48C84.7 36.48 83.9 35.71 83.75 34.18H89.32C89.37 33.87 89.4 33.55 89.4 33.21C89.4 31.85 89.07 30.8 88.41 30.04C87.76 29.3 86.84 28.92 85.66 28.92ZM83.76 32.83C83.91 31.36 84.53 30.63 85.62 30.63C86.19 30.63 86.63 30.82 86.96 31.21C87.28 31.59 87.46 32.13 87.48 32.84H83.76V32.83Z" fill="white"/>
<path d="M93.07 30.5V29.14H91.31V38.06H93.25V31.75C93.46 31.43 93.7 31.2 93.97 31.06C94.24 30.92 94.58 30.85 94.97 30.85C95.35 30.85 95.71 30.91 96.04 31.01L96.43 29.17C96.13 29.03 95.79 28.96 95.41 28.96C94.4 28.95 93.61 29.47 93.07 30.5Z" fill="white"/>
<path d="M103.17 36.42C102.89 36.42 102.68 36.35 102.55 36.21C102.42 36.07 102.35 35.84 102.35 35.54V25.41H100.41V35.9C100.41 37.41 101.16 38.17 102.66 38.17C103.1 38.17 103.51 38.12 103.91 38.02L103.78 36.38C103.54 36.41 103.34 36.42 103.17 36.42Z" fill="white"/>
<path d="M108.88 28.92C107.63 28.92 106.67 29.32 106 30.11C105.33 30.9 104.99 32.07 104.99 33.6C104.99 35.13 105.32 36.29 105.99 37.08C106.66 37.87 107.62 38.26 108.86 38.26C110.11 38.26 111.07 37.87 111.74 37.08C112.41 36.29 112.75 35.13 112.75 33.6C112.75 32.07 112.42 30.9 111.75 30.11C111.09 29.32 110.13 28.92 108.88 28.92ZM110.3 35.8C109.98 36.29 109.51 36.54 108.87 36.54C108.25 36.54 107.78 36.29 107.46 35.8C107.14 35.31 106.98 34.57 106.98 33.6C106.98 31.64 107.62 30.66 108.88 30.66C110.14 30.66 110.77 31.64 110.77 33.6C110.77 34.58 110.61 35.31 110.3 35.8Z" fill="white"/>
<path d="M119.98 30.14C119.72 29.76 119.37 29.46 118.95 29.24C118.53 29.03 118.06 28.92 117.55 28.92C116.49 28.92 115.66 29.31 115.08 30.08C114.49 30.85 114.2 31.94 114.2 33.34C114.2 34.74 114.49 35.83 115.06 36.61C115.63 37.39 116.44 37.78 117.48 37.78C118.48 37.78 119.25 37.39 119.8 36.61V37.81C119.8 39.24 119.04 39.96 117.53 39.96C116.84 39.96 116.15 39.8 115.44 39.48L114.88 41.04C115.26 41.24 115.7 41.39 116.2 41.5C116.7 41.61 117.2 41.66 117.7 41.66C118.98 41.66 119.97 41.32 120.67 40.65C121.37 39.98 121.72 39.03 121.72 37.8V29.13H119.96V30.14H119.98ZM119.8 35.13C119.54 35.41 119.27 35.63 119 35.76C118.73 35.9 118.42 35.97 118.1 35.97C116.83 35.97 116.2 35.08 116.2 33.29C116.2 31.55 116.81 30.68 118.02 30.68C118.36 30.68 118.69 30.75 119 30.89C119.31 31.03 119.58 31.24 119.81 31.5V35.13H119.8Z" fill="white"/>
<path d="M130.51 30.11C129.84 29.32 128.89 28.92 127.64 28.92C126.39 28.92 125.43 29.32 124.76 30.11C124.09 30.9 123.75 32.07 123.75 33.6C123.75 35.13 124.08 36.29 124.75 37.08C125.42 37.87 126.38 38.26 127.62 38.26C128.87 38.26 129.83 37.87 130.5 37.08C131.17 36.29 131.51 35.13 131.51 33.6C131.51 32.07 131.18 30.9 130.51 30.11ZM129.05 35.8C128.73 36.29 128.26 36.54 127.62 36.54C127 36.54 126.53 36.29 126.21 35.8C125.89 35.31 125.73 34.57 125.73 33.6C125.73 31.64 126.37 30.66 127.63 30.66C128.89 30.66 129.52 31.64 129.52 33.6C129.52 34.58 129.36 35.31 129.05 35.8Z" fill="white"/>
</g>
<defs>
<clipPath id="clip0_822_828">
<rect width="422" height="63" fill="white"/>
</clipPath>
</defs>
</svg>
