<svg width="180" height="82" viewBox="0 0 180 82" fill="none" xmlns="http://www.w3.org/2000/svg">
<path d="M9.47429 43.1086H0.068573V70.5714H5.18286V62.7086H9.43429C15.1543 62.7086 19.3657 58.3429 19.3657 52.8857C19.3657 47.4743 15.1543 43.1086 9.47429 43.1086ZM9.09714 57.9714H5.18286V47.8514H9.09714C12.1429 47.8514 14.2114 50.1086 14.2114 52.8914C14.2114 55.7143 12.1429 57.9714 9.09714 57.9714Z" fill="black"/>
<path d="M38.7086 51.2C37.1257 49.32 34.5314 48.1143 31.6343 48.1143C26.0629 48.1143 20.7257 52.2915 20.7257 59.5886C20.7257 66.7772 26.2571 71.0286 31.56 71.0286C34.4571 71.0286 37.0914 69.7486 38.7086 67.72V70.5772H43.7886V48.5657H38.7086V51.2ZM32.3886 66.36C28.6286 66.36 25.7314 63.3486 25.7314 59.5143C25.7314 55.7143 28.6286 52.7429 32.3886 52.7429C36.1486 52.7429 38.9714 55.7886 38.9714 59.5143C38.9714 63.3143 36.1543 66.36 32.3886 66.36Z" fill="black"/>
<path d="M57.3771 63.3886L51.2457 48.5657H45.8229L54.8571 69.4857L50.2286 80.7314H55.3829L68.5143 48.5657H63.1714L57.3771 63.3886Z" fill="black"/>
<path d="M148.811 21.0057H148.674L142.766 0.840027H133.234V26.2629H139.549L139.194 5.40003H139.337L145.68 26.2629H154.829V0.840027H148.463L148.811 21.0057Z" fill="black"/>
<path d="M33.2229 3.21717H33.3657L36.7886 26.5257H43.6914L38.9543 0.840027H27.5257L22.7657 26.5257H29.7086L33.2229 3.21717Z" fill="black"/>
<path d="M66.3429 0.840027L63.1771 20.48H63.0286L59.8686 0.840027H49.3886L48.8229 26.5257H55.2514L55.4114 3.43431H55.5543L59.8457 26.5257H66.3657L70.6571 3.43431H70.8L70.96 26.5257H77.3886L76.8171 0.840027H66.3429Z" fill="black"/>
<path d="M9.36 27.5314C14.0057 27.5314 17.8286 25.9486 18.44 21.6572C18.7543 19.44 18.52 17.9886 18.4114 17.4457C17.3257 12.0686 7.57714 10.4629 6.85143 7.45144C6.73143 6.93144 6.76 6.38858 6.82286 6.10287C7.00571 5.28001 7.56 4.37715 9.17143 4.37715C10.6743 4.37715 11.56 5.30286 11.56 6.70286V8.29715H17.9714V6.48572C17.9714 0.891435 12.9429 0.0171509 9.30857 0.0171509C4.74286 0.0171509 1.00571 1.53144 0.325714 5.72001C0.137143 6.86858 0.114286 7.89144 0.382857 9.18287C1.49714 14.4343 10.6286 15.9543 11.9486 19.2743C12.2 19.8972 12.12 20.6914 12 21.1772C11.7886 22.0343 11.2114 22.9086 9.49714 22.9086C7.89143 22.9086 6.91429 21.9771 6.91429 20.5771L6.90857 18.0857H0.0228577V20.0686C0.0228577 25.8 4.53143 27.5314 9.36 27.5314Z" fill="black"/>
<path d="M90.4286 7.52C90.3029 7.00571 90.3371 6.47428 90.3943 6.18857C90.5771 5.37143 91.1314 4.48 92.72 4.48C94.2171 4.48 95.0857 5.39428 95.0857 6.78285V8.35428H101.434V6.57142C101.434 1.02857 96.4571 0.16571 92.8571 0.16571C88.3371 0.16571 84.64 1.66285 83.9657 5.81142C83.7771 6.94857 83.7543 7.95999 84.0228 9.24C85.12 14.44 94.1657 15.9429 95.4743 19.2343C95.72 19.8514 95.6457 20.6343 95.5257 21.1143C95.32 21.96 94.7429 22.8229 93.0457 22.8229C91.4514 22.8229 90.4857 21.9029 90.4857 20.5143L90.48 18.0514H83.6571V20.0114C83.6571 25.6857 88.1257 27.4 92.9029 27.4C97.5029 27.4 101.291 25.8343 101.891 21.5829C102.2 19.3886 101.971 17.9486 101.863 17.4114C100.794 12.0857 91.1486 10.5029 90.4286 7.52Z" fill="black"/>
<path d="M126.074 0.83429H119.571V19.84C119.571 20.1714 119.566 20.5429 119.509 20.8229C119.383 21.4571 118.834 22.6857 117.046 22.6857C115.257 22.6857 114.703 21.4571 114.583 20.8229C114.526 20.5486 114.514 20.1714 114.52 19.84V0.83429H108.023V19.2571C108.011 19.7314 108.057 20.6971 108.08 20.9486C108.531 25.7429 112.32 27.2971 117.046 27.2971C121.766 27.2971 125.56 25.7429 126.006 20.9486C126.029 20.6971 126.08 19.7314 126.069 19.2571V0.83429H126.074Z" fill="black"/>
<path d="M170.686 12.1029V15.8514H173.32V19.5829C173.326 19.9086 173.314 20.2686 173.257 20.56C173.143 21.2457 172.491 22.4229 170.634 22.4229C168.777 22.4229 168.126 21.2457 168.006 20.56C167.954 20.2686 167.943 19.9086 167.949 19.5829V7.83429C167.949 7.41715 167.977 6.95429 168.051 6.61715C168.194 5.98286 168.743 4.75429 170.611 4.75429C172.577 4.75429 173.063 6.05143 173.177 6.61715C173.251 6.98858 173.257 7.6 173.257 7.59429V9.03429H179.737V8.17715C179.731 8.17715 179.76 7.30286 179.68 6.48572C179.206 1.66857 175.217 0.137146 170.663 0.137146C166.103 0.137146 162.217 1.68 161.646 6.48572C161.594 6.91429 161.537 7.72 161.537 8.17715V18.9829C161.537 19.4686 161.554 19.8171 161.629 20.6743C162.057 25.3543 166.109 27.0229 170.663 27.0229C175.217 27.0229 179.274 25.3543 179.697 20.6743C179.777 19.8229 179.789 19.4686 179.789 18.9829V12.1029H170.686Z" fill="black"/>
</svg>
