<svg width="435" height="63" viewBox="0 0 435 63" fill="none" xmlns="http://www.w3.org/2000/svg">
<g clip-path="url(#clip0_822_746)">
<path d="M423.8 0.23999H10.63C4.88999 0.23999 0.23999 4.88999 0.23999 10.63V52.2C0.23999 57.94 4.88999 62.59 10.63 62.59H423.8C429.54 62.59 434.19 57.94 434.19 52.2V10.63C434.2 4.88999 429.55 0.23999 423.8 0.23999Z" fill="black"/>
<path d="M346.92 21.0599H339.81V41.8099H343.68V35.8699H346.89C351.21 35.8699 354.39 32.5699 354.39 28.4499C354.4 24.3499 351.21 21.0599 346.92 21.0599ZM346.64 32.2799H343.68V24.6299H346.64C348.94 24.6299 350.51 26.3399 350.51 28.4399C350.5 30.5799 348.94 32.2799 346.64 32.2799Z" fill="white"/>
<path d="M368.73 27.17C367.54 25.75 365.58 24.84 363.39 24.84C359.18 24.84 355.15 28 355.15 33.51C355.15 38.94 359.33 42.15 363.34 42.15C365.53 42.15 367.52 41.18 368.74 39.65V41.81H372.58V25.18H368.74V27.17H368.73ZM363.95 38.62C361.11 38.62 358.92 36.35 358.92 33.45C358.92 30.58 361.11 28.33 363.95 28.33C366.79 28.33 368.92 30.63 368.92 33.45C368.93 36.32 366.79 38.62 363.95 38.62Z" fill="white"/>
<path d="M382.54 36.3799L377.91 25.1799H373.82L380.64 40.9799L377.14 49.4799H381.04L390.96 25.1799H386.92L382.54 36.3799Z" fill="white"/>
<path d="M299.67 36.8699H299.56L295.1 21.6399H287.9V40.8499H292.67L292.4 25.0899H292.51L297.3 40.8499H304.21V21.6399H299.4L299.67 36.8699Z" fill="white"/>
<path d="M208.04 21.6399L204.44 41.0499H209.69L212.34 23.4399H212.45L215.04 41.0499H220.25L216.67 21.6399H208.04Z" fill="white"/>
<path d="M237.36 21.6399L234.97 36.4799H234.86L232.47 21.6399H224.55L224.13 41.0499H228.98L229.1 23.5999H229.21L232.45 41.0499H237.38L240.62 23.5999H240.73L240.85 41.0499H245.71L245.28 21.6399H237.36Z" fill="white"/>
<path d="M192.42 26.6399C192.33 26.2499 192.35 25.8399 192.4 25.6199C192.54 24.9999 192.96 24.3199 194.17 24.3199C195.31 24.3199 195.97 25.0199 195.97 26.0799V27.2799H200.81V25.9099C200.81 21.6799 197.01 21.0199 194.27 21.0199C190.82 21.0199 188 22.1599 187.48 25.3299C187.34 26.1999 187.32 26.9699 187.52 27.9499C188.36 31.9199 195.26 33.0599 196.26 35.5799C196.45 36.0499 196.39 36.6499 196.3 37.0199C196.14 37.6699 195.7 38.3299 194.41 38.3299C193.2 38.3299 192.46 37.6299 192.46 36.5699V34.6899H187.25V36.1899C187.25 40.5199 190.66 41.8299 194.3 41.8299C197.81 41.8299 200.7 40.6299 201.16 37.3899C201.4 35.7099 201.22 34.6199 201.14 34.2099C200.33 30.1199 192.97 28.9099 192.42 26.6399Z" fill="white"/>
<path d="M255.56 26.6899C255.47 26.2999 255.49 25.8999 255.54 25.6799C255.68 25.0599 256.1 24.3899 257.29 24.3899C258.42 24.3899 259.08 25.0799 259.08 26.1299V27.3199H263.87V25.9699C263.87 21.7799 260.11 21.1299 257.39 21.1299C253.98 21.1299 251.18 22.2599 250.68 25.3899C250.54 26.2499 250.52 27.0099 250.72 27.9799C251.55 31.9099 258.38 33.0399 259.37 35.5299C259.55 35.9999 259.5 36.5899 259.41 36.9499C259.25 37.5899 258.82 38.2399 257.54 38.2399C256.34 38.2399 255.61 37.5499 255.61 36.4999V34.6399H250.46V36.1199C250.46 40.4099 253.83 41.6999 257.45 41.6999C260.93 41.6999 263.79 40.5199 264.24 37.3099C264.47 35.6499 264.3 34.5699 264.22 34.1599C263.39 30.1399 256.1 28.9399 255.56 26.6899Z" fill="white"/>
<path d="M277.57 35.9899C277.57 36.2399 277.57 36.5199 277.53 36.7299C277.43 37.2099 277.02 38.1399 275.67 38.1399C274.32 38.1399 273.9 37.2099 273.81 36.7299C273.77 36.5199 273.76 36.2399 273.76 35.9899V21.6399H268.85V35.5599C268.84 35.9199 268.88 36.6499 268.89 36.8399C269.23 40.4599 272.09 41.6399 275.66 41.6399C279.23 41.6399 282.09 40.4699 282.43 36.8399C282.45 36.6499 282.49 35.9199 282.48 35.5599V21.6399H277.57V35.9899Z" fill="white"/>
<path d="M316.19 32.98H318.18V35.8C318.18 36.05 318.17 36.32 318.13 36.54C318.04 37.06 317.55 37.95 316.15 37.95C314.75 37.95 314.26 37.06 314.16 36.54C314.12 36.32 314.11 36.05 314.12 35.8V26.93C314.12 26.61 314.14 26.27 314.2 26.01C314.31 25.53 314.72 24.6 316.13 24.6C317.61 24.6 317.98 25.58 318.07 26.01C318.13 26.29 318.13 26.75 318.13 26.75V27.84H323.03V27.19C323.03 27.19 323.05 26.53 322.98 25.91C322.62 22.27 319.61 21.11 316.17 21.11C312.73 21.11 309.79 22.28 309.36 25.91C309.32 26.23 309.28 26.84 309.28 27.19V35.36C309.28 35.73 309.29 35.99 309.35 36.64C309.67 40.17 312.74 41.44 316.18 41.44C319.62 41.44 322.68 40.18 323.01 36.64C323.07 35.99 323.08 35.73 323.08 35.36V30.16H316.21V32.98H316.19Z" fill="white"/>
<path d="M27.44 21.35H21.11V41.63H27.41C30.42 41.63 32.71 40.78 34.29 39.07C35.87 37.36 36.66 34.83 36.66 31.47C36.66 28.13 35.88 25.61 34.31 23.91C32.73 22.2 30.45 21.35 27.44 21.35ZM31.73 36.82C30.76 38.03 29.31 38.63 27.39 38.63H24.48V24.34H27.36C31.24 24.34 33.19 26.71 33.19 31.45C33.18 33.83 32.7 35.62 31.73 36.82Z" fill="white"/>
<path d="M45.75 26.0499C43.62 26.0499 41.98 26.7299 40.84 28.0799C39.69 29.4299 39.12 31.4199 39.12 34.0299C39.12 36.6399 39.69 38.6199 40.83 39.9699C41.97 41.3099 43.6 41.9899 45.73 41.9899C47.86 41.9899 49.5 41.3199 50.65 39.9699C51.8 38.6299 52.37 36.6499 52.37 34.0299C52.37 31.4199 51.8 29.4299 50.66 28.0799C49.51 26.7299 47.88 26.0499 45.75 26.0499ZM48.16 37.7899C47.62 38.6299 46.81 39.0499 45.72 39.0499C44.66 39.0499 43.85 38.6299 43.31 37.7899C42.77 36.9499 42.5 35.6999 42.5 34.0399C42.5 30.6999 43.58 29.0299 45.75 29.0299C47.9 29.0299 48.97 30.6999 48.97 34.0399C48.97 35.6999 48.7 36.9499 48.16 37.7899Z" fill="white"/>
<path d="M63.11 26.0499C61.28 26.0499 59.75 26.7899 58.52 28.2599V26.4099H55.52V41.6199H58.83V30.3099C59.78 29.5399 60.81 29.1599 61.91 29.1599C63.57 29.1599 64.4 29.9199 64.4 31.4299V41.6299H67.71V31.0099C67.71 29.4399 67.31 28.2199 66.51 27.3499C65.7 26.4899 64.57 26.0499 63.11 26.0499Z" fill="white"/>
<path d="M76.69 26.0499C75.01 26.0499 73.36 26.4399 71.73 27.2299L72.57 29.8099C73.75 29.2899 74.93 29.0299 76.13 29.0299C78.16 29.0299 79.18 29.8099 79.18 31.3799V32.0799C76.12 32.0999 73.88 32.5299 72.47 33.3799C71.06 34.2299 70.36 35.5599 70.36 37.3699C70.36 38.8099 70.76 39.9299 71.56 40.7299C72.36 41.5299 73.5 41.9299 74.98 41.9299C77.03 41.9299 78.54 41.1199 79.49 39.4899V41.6199H82.46V31.0099C82.46 29.4199 81.95 28.1999 80.93 27.3399C79.92 26.4799 78.5 26.0499 76.69 26.0499ZM79.18 37.5399C78.25 38.5899 77.12 39.1099 75.79 39.1099C74.3 39.1099 73.55 38.4499 73.55 37.1199C73.55 36.1899 74 35.4999 74.89 35.0599C75.79 34.6199 77.22 34.3799 79.18 34.3399V37.5399Z" fill="white"/>
<path d="M92.62 38.8799C91.8 38.8799 91.21 38.6799 90.84 38.2799C90.48 37.8799 90.29 37.2299 90.29 36.3299V29.2699H94.55V26.4099H90.3V22.1799H86.99V26.4099H84.58V29.2699H86.99V36.8899C86.99 40.1999 88.69 41.8499 92.09 41.8499C93.02 41.8499 93.91 41.7199 94.75 41.4599L94.25 38.6599C93.69 38.8099 93.14 38.8799 92.62 38.8799Z" fill="white"/>
<path d="M102.87 26.0499C100.78 26.0499 99.15 26.7499 98 28.1399C96.84 29.5299 96.26 31.4999 96.26 34.0399C96.26 36.5399 96.88 38.4899 98.11 39.8799C99.34 41.2699 101.09 41.9699 103.35 41.9699C104.32 41.9699 105.27 41.8399 106.19 41.5799C107.11 41.3199 107.92 40.9499 108.61 40.4899L107.41 37.9999C106.25 38.6499 105.01 38.9799 103.69 38.9799C101.24 38.9799 99.89 37.6699 99.63 35.0599H109.13C109.22 34.5399 109.27 33.9899 109.27 33.4099C109.27 31.0899 108.71 29.2899 107.59 27.9999C106.45 26.6999 104.88 26.0499 102.87 26.0499ZM99.62 32.7199C99.88 30.2199 100.94 28.9699 102.79 28.9699C103.76 28.9699 104.52 29.2999 105.07 29.9499C105.62 30.5999 105.91 31.5299 105.95 32.7199H99.62Z" fill="white"/>
<path d="M131.23 38.2099L128.48 26.4199H125.09L122.41 38.2099L119.69 26.4199H116.33L120.59 41.6299H124.14L126.75 30.4799L129.41 41.6299H132.96L137.22 26.4199H133.89L131.23 38.2099Z" fill="white"/>
<path d="M141.45 20.2799C140.8 20.2799 140.29 20.4499 139.94 20.7999C139.58 21.1499 139.41 21.6399 139.41 22.2699C139.41 22.8699 139.59 23.3399 139.96 23.6999C140.32 24.0499 140.82 24.2299 141.46 24.2299C142.11 24.2299 142.62 24.0599 142.97 23.7099C143.32 23.3599 143.5 22.8699 143.5 22.2399C143.5 21.6399 143.32 21.1699 142.95 20.8099C142.58 20.4599 142.08 20.2799 141.45 20.2799Z" fill="white"/>
<path d="M143.1 26.4199H139.79V41.6299H143.1V26.4199Z" fill="white"/>
<path d="M153.51 38.8799C152.69 38.8799 152.1 38.6799 151.73 38.2799C151.37 37.8799 151.18 37.2299 151.18 36.3299V29.2699H155.44V26.4099H151.18V22.1799H147.87V26.4099H145.46V29.2699H147.87V36.8899C147.87 40.1999 149.57 41.8499 152.97 41.8499C153.9 41.8499 154.79 41.7199 155.63 41.4599L155.13 38.6599C154.58 38.8099 154.03 38.8799 153.51 38.8799Z" fill="white"/>
<path d="M165.77 26.0499C164.09 26.0499 162.65 26.6799 161.46 27.9299V20.0599H158.15V41.6299H161.46V30.3099C161.95 29.9199 162.44 29.6299 162.94 29.4399C163.44 29.2499 163.99 29.1599 164.56 29.1599C166.24 29.1599 167.08 29.9199 167.08 31.4299V41.6299H170.39V31.0099C170.39 29.4399 169.99 28.2199 169.19 27.3499C168.39 26.4899 167.25 26.0499 165.77 26.0499Z" fill="white"/>
<path d="M413.35 30.8999C413 30.4799 412.63 30.0799 412.23 29.6999C411.82 29.3199 411.42 28.9299 411.02 28.5299C410.63 28.1499 410.22 27.7599 409.81 27.3499C409.39 26.9699 408.98 26.5799 408.57 26.1799C408.18 25.7799 407.77 25.3899 407.36 24.9999C406.97 24.5999 406.56 24.1999 406.15 23.7999C405.76 23.3999 405.36 22.9999 404.94 22.5999L404.35 21.9999C404.16 21.7999 403.91 21.6399 403.6 21.5199H403.41C403.16 21.5599 402.98 21.6399 402.85 21.7599C402.44 22.1599 402.03 22.5599 401.64 22.9599L401.39 23.3199C401.29 23.6199 401.34 23.8699 401.55 24.0699C401.94 24.4899 402.34 24.8999 402.73 25.3099C403.14 25.6899 403.55 26.0799 403.94 26.4799C404.33 26.8799 404.74 27.2799 405.15 27.6799C405.54 28.0599 405.95 28.4499 406.36 28.8599C406.75 29.2599 407.15 29.6599 407.57 30.0599C407.96 30.4599 408.36 30.8599 408.75 31.2699L408.47 31.5699C408.06 31.9699 407.65 32.3599 407.26 32.7399C406.85 33.1399 406.44 33.5399 406.05 33.9399C405.63 34.3399 405.23 34.7399 404.84 35.1499C404.43 35.5499 404.02 35.9499 403.63 36.3499C403.24 36.7499 402.83 37.1499 402.42 37.5599L401.83 38.1299L401.43 38.6099L401.4 39.2099L401.59 39.5399L401.65 39.5699C402.04 39.9699 402.45 40.3699 402.86 40.7699C403 40.9099 403.23 40.9799 403.54 40.9799L403.79 40.9199C404.06 40.7599 404.31 40.5599 404.53 40.3199C404.78 40.0599 405.04 39.7999 405.31 39.5399L405.74 39.1199C406.13 38.7399 406.54 38.3499 406.95 37.9499C407.36 37.5499 407.77 37.1599 408.16 36.7799C408.57 36.3799 408.97 35.9799 409.37 35.5699C409.78 35.1899 410.19 34.7999 410.58 34.3999C410.99 33.9999 411.4 33.6099 411.79 33.2299C412.2 32.8299 412.61 32.4399 413 32.0599L413.34 31.6399L413.4 31.0099L413.35 30.8999Z" fill="white"/>
</g>
<defs>
<clipPath id="clip0_822_746">
<rect width="435" height="63" fill="white"/>
</clipPath>
</defs>
</svg>
