<svg width="220" height="31" viewBox="0 0 220 31" fill="none" xmlns="http://www.w3.org/2000/svg">
<g clip-path="url(#clip0_822_398)">
<path d="M164.219 0.0558472H171.874C176.498 0.0558472 179.93 3.60934 179.93 8.01864C179.93 12.4605 176.502 16.014 171.847 16.014H168.386V22.414H164.223V0.0558472H164.219ZM168.381 3.91631V12.1535H171.567C174.046 12.1535 175.735 10.3163 175.735 8.01864C175.735 5.75352 174.051 3.91631 171.567 3.91631H168.381Z" fill="white"/>
<path d="M181.033 13.4698C181.033 7.53025 185.381 4.13025 189.912 4.13025C192.27 4.13025 194.381 5.11164 195.67 6.64188V4.49769H199.805V22.414H195.67V20.0884C194.353 21.7442 192.209 22.7861 189.851 22.7861C185.535 22.7814 181.033 19.3209 181.033 13.4698ZM195.884 13.4093C195.884 10.3768 193.586 7.89769 190.526 7.89769C187.465 7.89769 185.107 10.3163 185.107 13.4093C185.107 16.5349 187.465 18.9814 190.526 18.9814C193.591 18.9814 195.884 16.5023 195.884 13.4093Z" fill="white"/>
<path d="M208.814 21.5256L201.465 4.49768H205.874L210.865 16.5628L215.581 4.49768H219.93L209.242 30.6837H205.047L208.814 21.5256Z" fill="white"/>
<path d="M120.842 0.683716L121.126 17.0977H121.009L116.205 0.683716H108.442V21.3767H113.586L113.298 4.39534H113.414L118.572 21.3767H126.023V0.683716H120.842Z" fill="white"/>
<path d="M22.4046 0.683716L18.5302 21.5907H24.1814L27.0419 2.6186H27.1581L29.9442 21.5907H35.5628L31.707 0.683716H22.4046Z" fill="white"/>
<path d="M54 0.683716L51.4233 16.6698H51.3023L48.7256 0.683716H40.2L39.7395 21.5907H44.9721L45.1023 2.79534H45.2186L48.7116 21.5907H54.0186L57.5116 2.79534H57.6279L57.7581 21.5907H62.986L62.5256 0.683716H54Z" fill="white"/>
<path d="M9.73023 15.693C9.93488 16.2 9.86977 16.8465 9.77209 17.2419C9.6 17.9395 9.13023 18.6512 7.73488 18.6512C6.42791 18.6512 5.63256 17.893 5.63256 16.7535L5.62791 14.7256H0.0186043V16.3395C0.0186043 21.0047 3.68837 22.414 7.6186 22.414C11.4 22.414 14.5116 21.1256 15.0093 17.6326C15.2651 15.8279 15.0744 14.6465 14.986 14.2047C14.1023 9.82792 6.16744 8.52094 5.57674 6.06978C5.47907 5.64652 5.50232 5.20466 5.55349 4.9721C5.70232 4.30234 6.15349 3.56745 7.46512 3.56745C8.68837 3.56745 9.4093 4.32094 9.4093 5.46048V6.75815H14.6279V5.28373C14.6279 0.730244 10.5349 0.0186157 7.57674 0.0186157C3.86047 0.0186157 0.818604 1.25117 0.265115 4.66048C0.111627 5.59071 0.0930225 6.42792 0.311627 7.47908C1.2186 11.7535 8.65116 12.9861 9.73023 15.693Z" fill="white"/>
<path d="M77.7163 15.6558C77.9163 16.1582 77.8558 16.7954 77.7581 17.1861C77.5907 17.8744 77.1209 18.5768 75.7395 18.5768C74.4419 18.5768 73.6558 17.8279 73.6558 16.6977L73.6512 14.693H68.0977V16.2884C68.0977 20.907 71.7349 22.3023 75.6232 22.3023C79.3674 22.3023 82.4465 21.0279 82.9395 17.5675C83.1907 15.7814 83.0046 14.6093 82.9163 14.1721C82.0419 9.83723 74.186 8.5442 73.6046 6.12095C73.5023 5.70234 73.5302 5.26978 73.5767 5.03723C73.7256 4.37211 74.1767 3.64653 75.4698 3.64653C76.6884 3.64653 77.3953 4.39071 77.3953 5.52095V6.80002H82.5628V5.3442C82.5628 0.832575 78.5116 0.130249 75.5814 0.130249C71.9023 0.130249 68.893 1.34885 68.3442 4.7256C68.1907 5.65118 68.1721 6.47443 68.3907 7.5163C69.2884 11.7535 76.6465 12.9721 77.7163 15.6558Z" fill="white"/>
<path d="M95.2698 18.4605C96.7256 18.4605 97.1721 17.4605 97.2744 16.9442C97.3209 16.7209 97.3256 16.414 97.3256 16.1442V0.679077H102.619V15.6744C102.623 16.0605 102.586 16.8465 102.567 17.0512C102.205 20.9535 99.1163 22.2186 95.2744 22.2186C91.4279 22.2186 88.3442 20.9535 87.9767 17.0512C87.9581 16.8465 87.9163 16.0605 87.9302 15.6744V0.679077H93.2186V16.1488C93.214 16.4186 93.2233 16.7209 93.2698 16.9488C93.3628 17.4605 93.814 18.4605 95.2698 18.4605Z" fill="white"/>
<path d="M138.884 18.2465C140.4 18.2465 140.926 17.2884 141.019 16.7302C141.06 16.493 141.07 16.2 141.07 15.9349V12.8977H138.926V9.85116H146.335V15.4558C146.33 15.8512 146.321 16.1349 146.26 16.8326C145.916 20.6419 142.614 22 138.907 22C135.2 22 131.902 20.6419 131.553 16.8326C131.493 16.1395 131.484 15.8512 131.479 15.4558V6.66046C131.479 6.28836 131.526 5.63255 131.567 5.28371C132.033 1.37674 135.2 0.116272 138.907 0.116272C142.614 0.116272 145.86 1.36278 146.247 5.28371C146.312 5.94883 146.293 6.66046 146.293 6.66046V7.35813H141.019V6.18604C141.019 6.18604 141.014 5.68836 140.953 5.39069C140.86 4.93023 140.46 3.87441 138.865 3.87441C137.344 3.87441 136.898 4.87441 136.781 5.39069C136.721 5.66511 136.698 6.0372 136.698 6.38139V15.9395C136.698 16.2046 136.707 16.4977 136.744 16.7349C136.842 17.2884 137.372 18.2465 138.884 18.2465Z" fill="white"/>
</g>
<defs>
<clipPath id="clip0_822_398">
<rect width="220" height="30.6977" fill="white"/>
</clipPath>
</defs>
</svg>
