<svg width="268" height="63" viewBox="0 0 268 63" fill="none" xmlns="http://www.w3.org/2000/svg">
<g clip-path="url(#clip0_822_490)">
<path d="M257.57 0.23999H10.63C4.89 0.23999 0.239998 4.88999 0.239998 10.63V52.2C0.239998 57.94 4.89 62.59 10.63 62.59H257.57C263.31 62.59 267.96 57.94 267.96 52.2V10.63C267.96 4.88999 263.31 0.23999 257.57 0.23999Z" fill="white"/>
<path d="M133.43 36.87H133.33L128.87 21.64H121.66V40.85H126.43L126.17 25.09H126.27L131.06 40.85H137.98V21.64H133.17L133.43 36.87Z" fill="black"/>
<path d="M41.8 21.64L38.2 41.05H43.45L46.1 23.44H46.21L48.8 41.05H54.01L50.44 21.64H41.8Z" fill="black"/>
<path d="M71.13 21.64L68.73 36.48H68.63L66.23 21.64H58.32L57.89 41.05H62.75L62.87 23.6H62.98L66.22 41.05H71.14L74.39 23.6H74.49L74.62 41.05H79.47L79.04 21.64H71.13Z" fill="black"/>
<path d="M26.18 26.64C26.09 26.24 26.11 25.84 26.16 25.62C26.3 25 26.72 24.32 27.93 24.32C29.07 24.32 29.73 25.02 29.73 26.08V27.28H34.57V25.91C34.57 21.68 30.77 21.02 28.03 21.02C24.58 21.02 21.76 22.16 21.24 25.33C21.1 26.2 21.08 26.97 21.28 27.95C22.12 31.92 29.02 33.06 30.02 35.58C30.21 36.05 30.15 36.65 30.06 37.02C29.9 37.67 29.46 38.33 28.17 38.33C26.96 38.33 26.22 37.63 26.22 36.57V34.69H21.01V36.19C21.01 40.52 24.42 41.83 28.06 41.83C31.57 41.83 34.46 40.63 34.92 37.39C35.16 35.71 34.98 34.62 34.9 34.21C34.1 30.12 26.73 28.91 26.18 26.64Z" fill="black"/>
<path d="M89.33 26.69C89.24 26.3 89.26 25.9 89.31 25.68C89.45 25.06 89.87 24.39 91.06 24.39C92.19 24.39 92.85 25.08 92.85 26.13V27.32H97.64V25.97C97.64 21.78 93.88 21.13 91.16 21.13C87.75 21.13 84.95 22.26 84.45 25.39C84.31 26.25 84.29 27.01 84.49 27.98C85.32 31.91 92.15 33.04 93.14 35.53C93.33 36 93.27 36.59 93.18 36.95C93.02 37.59 92.59 38.24 91.31 38.24C90.11 38.24 89.38 37.55 89.38 36.5V34.64H84.23V36.12C84.23 40.41 87.6 41.7 91.22 41.7C94.7 41.7 97.56 40.52 98.01 37.31C98.24 35.65 98.07 34.57 97.99 34.16C97.16 30.14 89.87 28.94 89.33 26.69Z" fill="black"/>
<path d="M111.34 35.99C111.34 36.24 111.34 36.52 111.3 36.73C111.2 37.21 110.79 38.14 109.44 38.14C108.09 38.14 107.67 37.21 107.58 36.73C107.54 36.52 107.53 36.24 107.53 35.99V21.64H102.62V35.56C102.61 35.92 102.65 36.65 102.66 36.84C103 40.46 105.86 41.64 109.43 41.64C113 41.64 115.86 40.47 116.2 36.84C116.22 36.65 116.26 35.92 116.25 35.56V21.64H111.34V35.99Z" fill="black"/>
<path d="M149.95 30.15V32.98H151.94V35.8C151.94 36.05 151.93 36.32 151.89 36.54C151.8 37.06 151.31 37.95 149.91 37.95C148.51 37.95 148.02 37.06 147.92 36.54C147.88 36.32 147.87 36.05 147.88 35.8V26.93C147.88 26.61 147.9 26.27 147.96 26.01C148.07 25.53 148.48 24.6 149.89 24.6C151.37 24.6 151.74 25.58 151.83 26.01C151.89 26.29 151.89 26.75 151.89 26.75V27.84H156.79V27.19C156.79 27.19 156.81 26.53 156.74 25.91C156.38 22.27 153.37 21.11 149.93 21.11C146.49 21.11 143.55 22.28 143.12 25.91C143.08 26.23 143.04 26.84 143.04 27.19V35.36C143.04 35.73 143.05 35.99 143.11 36.64C143.43 40.17 146.5 41.44 149.94 41.44C153.38 41.44 156.44 40.18 156.77 36.64C156.83 35.99 156.84 35.73 156.84 35.36V30.16H149.95V30.15Z" fill="black"/>
<path d="M247.11 30.9C246.76 30.48 246.39 30.08 245.99 29.7C245.58 29.32 245.18 28.93 244.78 28.53C244.39 28.15 243.98 27.76 243.57 27.35C243.15 26.97 242.74 26.58 242.33 26.18C241.94 25.78 241.53 25.39 241.12 25.01C240.73 24.61 240.32 24.21 239.91 23.81C239.52 23.41 239.12 23.01 238.7 22.61L238.11 22.01C237.92 21.81 237.67 21.65 237.36 21.53H237.17C236.92 21.57 236.74 21.65 236.61 21.77C236.2 22.17 235.79 22.57 235.4 22.97L235.15 23.33C235.05 23.63 235.1 23.88 235.31 24.08C235.7 24.5 236.1 24.91 236.49 25.32C236.9 25.7 237.31 26.09 237.7 26.49C238.09 26.89 238.5 27.29 238.91 27.69C239.3 28.07 239.71 28.46 240.12 28.87C240.51 29.27 240.91 29.67 241.33 30.07C241.72 30.47 242.12 30.87 242.51 31.28L242.23 31.58C241.82 31.98 241.41 32.37 241.02 32.75C240.61 33.15 240.2 33.55 239.81 33.95C239.39 34.35 238.99 34.75 238.6 35.16C238.19 35.56 237.78 35.96 237.39 36.36C237 36.76 236.59 37.16 236.18 37.57L235.59 38.14L235.19 38.62L235.16 39.22L235.35 39.55L235.41 39.58C235.8 39.98 236.21 40.38 236.62 40.78C236.76 40.92 236.99 40.99 237.3 40.99L237.55 40.93C237.82 40.77 238.07 40.57 238.29 40.33C238.54 40.07 238.8 39.81 239.07 39.55L239.5 39.13C239.89 38.75 240.3 38.36 240.71 37.96C241.12 37.56 241.53 37.17 241.92 36.79C242.33 36.39 242.73 35.99 243.13 35.58C243.54 35.2 243.95 34.81 244.34 34.4C244.75 34 245.16 33.61 245.55 33.23C245.96 32.83 246.37 32.44 246.76 32.06L247.1 31.64L247.16 31.01L247.11 30.9Z" fill="black"/>
<path d="M180.69 21.06H173.58V41.81H177.45V35.87H180.66C184.98 35.87 188.16 32.57 188.16 28.45C188.16 24.35 184.98 21.06 180.69 21.06ZM180.4 32.28H177.44V24.63H180.4C182.7 24.63 184.27 26.34 184.27 28.44C184.27 30.58 182.7 32.28 180.4 32.28Z" fill="black"/>
<path d="M202.49 27.17C201.3 25.75 199.33 24.84 197.15 24.84C192.94 24.84 188.91 28 188.91 33.51C188.91 38.94 193.09 42.15 197.1 42.15C199.29 42.15 201.28 41.18 202.5 39.65V41.81H206.34V25.18H202.5V27.17H202.49ZM197.72 38.62C194.88 38.62 192.69 36.35 192.69 33.45C192.69 30.58 194.88 28.33 197.72 28.33C200.56 28.33 202.69 30.63 202.69 33.45C202.69 36.32 200.56 38.62 197.72 38.62Z" fill="black"/>
<path d="M220.69 25.18L216.31 36.38L211.67 25.18H207.58L214.4 40.98L210.91 49.48H214.8L224.72 25.18H220.69Z" fill="black"/>
</g>
<defs>
<clipPath id="clip0_822_490">
<rect width="268" height="63" fill="white"/>
</clipPath>
</defs>
</svg>
