<svg width="220" height="31" viewBox="0 0 220 31" fill="none" xmlns="http://www.w3.org/2000/svg">
<g clip-path="url(#clip0_822_399)">
<path d="M164.219 0.0604858H171.874C176.498 0.0604858 179.93 3.61397 179.93 8.02328C179.93 12.4651 176.502 16.0186 171.847 16.0186H168.386V22.4186H164.223V0.0604858H164.219ZM168.386 3.9163V12.1535H171.572C174.051 12.1535 175.74 10.3163 175.74 8.01863C175.74 5.75351 174.056 3.9163 171.572 3.9163H168.386Z" fill="black"/>
<path d="M181.033 13.4744C181.033 7.53489 185.381 4.13489 189.912 4.13489C192.27 4.13489 194.381 5.11628 195.67 6.64652V4.50233H199.805V22.4186H195.67V20.093C194.353 21.7488 192.209 22.7907 189.851 22.7907C185.535 22.7814 181.033 19.3209 181.033 13.4744ZM195.888 13.414C195.888 10.3814 193.591 7.90233 190.53 7.90233C187.47 7.90233 185.112 10.3209 185.112 13.414C185.112 16.5395 187.47 18.986 190.53 18.986C193.591 18.986 195.888 16.507 195.888 13.414Z" fill="black"/>
<path d="M208.814 21.5256L201.465 4.49768H205.874L210.865 16.5628L215.581 4.49768H219.93L209.242 30.6837H205.047L208.814 21.5256Z" fill="black"/>
<path d="M120.842 0.683716L121.126 17.0977H121.014L116.205 0.683716H108.447V21.3814H113.586L113.298 4.39999H113.414L118.577 21.3814H126.023V0.683716H120.842Z" fill="black"/>
<path d="M22.4047 0.683716L18.5302 21.5953H24.1814L27.0419 2.62325L27.1582 2.6186L29.9488 21.5953H35.5628L31.7116 0.683716H22.4047Z" fill="black"/>
<path d="M54.0047 0.683716L51.4233 16.6744H51.307L48.7302 0.683716H40.2L39.7395 21.5953H44.9721L45.1023 2.79534H45.2186L48.7116 21.5953H54.0186L57.5116 2.8L57.6279 2.79534L57.7581 21.5953H62.9907L62.5302 0.683716H54.0047Z" fill="black"/>
<path d="M9.73024 15.6977C9.93489 16.2047 9.86978 16.8512 9.7721 17.2465C9.60001 17.9442 9.13024 18.6558 7.7349 18.6558C6.42792 18.6558 5.63257 17.8977 5.63257 16.7581L5.62792 14.7302H0.0186157V16.3442C0.0186157 21.0093 3.68838 22.4186 7.61862 22.4186C11.4 22.4186 14.5116 21.1302 15.0093 17.6372C15.2651 15.8326 15.0744 14.6512 14.9861 14.2093C14.107 9.82792 6.1721 8.52094 5.58141 6.06978C5.48373 5.64652 5.50699 5.20466 5.55815 4.9721C5.70699 4.30234 6.15815 3.56745 7.46978 3.56745C8.69304 3.56745 9.41397 4.32094 9.41397 5.46048V6.75815H14.6326V5.28373C14.6326 0.730244 10.5395 0.0186157 7.58141 0.0186157C3.86513 0.0186157 0.823266 1.25117 0.269778 4.66048C0.11629 5.59071 0.0976852 6.42792 0.31629 7.47908C1.22327 11.7535 8.65117 12.9907 9.73024 15.6977Z" fill="black"/>
<path d="M77.7163 15.6558C77.9163 16.1581 77.8558 16.7954 77.7581 17.1861C77.5907 17.8744 77.1209 18.5767 75.7395 18.5767C74.4419 18.5767 73.6558 17.8279 73.6558 16.6977L73.6512 14.693H68.0977V16.2884C68.0977 20.907 71.7349 22.3023 75.6233 22.3023C79.3675 22.3023 82.4465 21.0279 82.9395 17.5674C83.1907 15.7814 83.0047 14.6093 82.9163 14.1721C82.0419 9.83721 74.1861 8.54419 73.6047 6.12093C73.5023 5.70233 73.5302 5.26977 73.5768 5.03721C73.7256 4.3721 74.1768 3.64652 75.4698 3.64652C76.6884 3.64652 77.3954 4.3907 77.3954 5.52093V6.8H82.5628V5.34884C82.5628 0.837213 78.5116 0.134888 75.5814 0.134888C71.9023 0.134888 68.893 1.35349 68.3442 4.73024C68.1907 5.65582 68.1721 6.47907 68.3907 7.52093C69.2884 11.7535 76.6512 12.9767 77.7163 15.6558Z" fill="black"/>
<path d="M95.2698 18.4651C96.7256 18.4651 97.1721 17.4651 97.2744 16.9488C97.321 16.7256 97.3256 16.4186 97.3256 16.1488V0.679077H102.619V15.6744C102.623 16.0605 102.586 16.8465 102.567 17.0512C102.205 20.9535 99.1163 22.2186 95.2744 22.2186C91.4279 22.2186 88.3442 20.9535 87.9768 17.0512C87.9582 16.8465 87.9163 16.0605 87.9303 15.6744V0.679077H93.2186V16.1488C93.214 16.4186 93.2233 16.7209 93.2698 16.9488C93.3675 17.4651 93.814 18.4651 95.2698 18.4651Z" fill="black"/>
<path d="M138.884 18.2465C140.4 18.2465 140.926 17.2884 141.019 16.7302C141.06 16.493 141.07 16.2 141.07 15.9349V12.8977H138.926V9.85116H146.335V15.4558C146.33 15.8512 146.321 16.1349 146.26 16.8326C145.916 20.6419 142.614 22 138.907 22C135.2 22 131.902 20.6419 131.554 16.8326C131.493 16.1395 131.484 15.8512 131.479 15.4558V6.66046C131.479 6.28836 131.526 5.63255 131.567 5.28371C132.033 1.37674 135.2 0.116272 138.907 0.116272C142.614 0.116272 145.86 1.36278 146.247 5.28371C146.312 5.94883 146.293 6.66046 146.293 6.66046V7.35813H141.023V6.18604C141.023 6.18604 141.019 5.68836 140.958 5.39069C140.865 4.93023 140.465 3.87441 138.87 3.87441C137.349 3.87441 136.902 4.87441 136.786 5.39069C136.726 5.66511 136.702 6.0372 136.702 6.38139V15.9395C136.702 16.2046 136.712 16.4977 136.749 16.7349C136.847 17.2884 137.372 18.2465 138.884 18.2465Z" fill="black"/>
</g>
<defs>
<clipPath id="clip0_822_399">
<rect width="220" height="30.6977" fill="white"/>
</clipPath>
</defs>
</svg>
