<svg width="389" height="63" viewBox="0 0 389 63" fill="none" xmlns="http://www.w3.org/2000/svg">
<g clip-path="url(#clip0_822_824)">
<path d="M378.36 0.23999H10.63C4.89001 0.23999 0.240005 4.88999 0.240005 10.63V52.2C0.240005 57.94 4.89001 62.59 10.63 62.59H378.36C384.1 62.59 388.75 57.94 388.75 52.2V10.63C388.76 4.88999 384.1 0.23999 378.36 0.23999Z" fill="white"/>
<path d="M301.48 21.0599H294.37V41.8099H298.24V35.8699H301.45C305.77 35.8699 308.95 32.5699 308.95 28.4499C308.96 24.3499 305.77 21.0599 301.48 21.0599ZM301.19 32.2799H298.23V24.6299H301.19C303.49 24.6299 305.06 26.3399 305.06 28.4399C305.06 30.5799 303.5 32.2799 301.19 32.2799Z" fill="black"/>
<path d="M323.28 27.17C322.09 25.75 320.13 24.84 317.94 24.84C313.73 24.84 309.7 28 309.7 33.51C309.7 38.94 313.88 42.15 317.89 42.15C320.08 42.15 322.07 41.18 323.29 39.65V41.81H327.13V25.18H323.29V27.17H323.28ZM318.51 38.62C315.67 38.62 313.48 36.35 313.48 33.45C313.48 30.58 315.67 28.33 318.51 28.33C321.35 28.33 323.48 30.63 323.48 33.45C323.48 36.32 321.35 38.62 318.51 38.62Z" fill="black"/>
<path d="M337.1 36.3799L332.47 25.1799H328.37L335.2 40.9799L331.7 49.4799H335.59L345.52 25.1799H341.48L337.1 36.3799Z" fill="black"/>
<path d="M254.23 36.8699H254.12L249.66 21.6399H242.45V40.8499H247.23L246.96 25.0899H247.07L251.86 40.8499H258.77V21.6399H253.96L254.23 36.8699Z" fill="black"/>
<path d="M162.59 21.6399L159 41.0499H164.24L166.9 23.4399H167.01L169.59 41.0499H174.81L171.23 21.6399H162.59Z" fill="black"/>
<path d="M191.92 21.6399L189.53 36.4799H189.42L187.03 21.6399H179.11L178.68 41.0499H183.54L183.66 23.5999H183.77L187.01 41.0499H191.94L195.18 23.5999H195.29L195.41 41.0499H200.26L199.84 21.6399H191.92Z" fill="black"/>
<path d="M146.98 26.6399C146.89 26.2399 146.91 25.8399 146.96 25.6199C147.1 24.9999 147.52 24.3199 148.73 24.3199C149.87 24.3199 150.53 25.0199 150.53 26.0799V27.2799H155.37V25.9099C155.37 21.6799 151.57 21.0199 148.83 21.0199C145.38 21.0199 142.56 22.1599 142.04 25.3299C141.9 26.1999 141.88 26.9699 142.08 27.9499C142.92 31.9199 149.82 33.0599 150.82 35.5799C151.01 36.0499 150.95 36.6499 150.86 37.0199C150.7 37.6699 150.26 38.3299 148.97 38.3299C147.76 38.3299 147.02 37.6299 147.02 36.5699V34.6899H141.81V36.1899C141.81 40.5199 145.22 41.8299 148.86 41.8299C152.37 41.8299 155.26 40.6299 155.72 37.3899C155.96 35.7099 155.78 34.6199 155.7 34.2099C154.89 30.1199 147.53 28.9099 146.98 26.6399Z" fill="black"/>
<path d="M210.12 26.6899C210.03 26.2999 210.05 25.8999 210.1 25.6799C210.24 25.0599 210.66 24.3899 211.85 24.3899C212.98 24.3899 213.64 25.0799 213.64 26.1299V27.3199H218.43V25.9699C218.43 21.7799 214.67 21.1299 211.95 21.1299C208.54 21.1299 205.74 22.2599 205.24 25.3899C205.1 26.2499 205.08 27.0099 205.28 27.9799C206.11 31.9099 212.94 33.0399 213.93 35.5299C214.11 35.9999 214.06 36.5899 213.97 36.9499C213.81 37.5899 213.38 38.2399 212.1 38.2399C210.9 38.2399 210.17 37.5499 210.17 36.4999V34.6399H205.02V36.1199C205.02 40.4099 208.39 41.6999 212.01 41.6999C215.49 41.6999 218.35 40.5199 218.8 37.3099C219.03 35.6499 218.86 34.5699 218.78 34.1599C217.95 30.1399 210.66 28.9399 210.12 26.6899Z" fill="black"/>
<path d="M232.13 35.9899C232.13 36.2399 232.13 36.5199 232.09 36.7299C231.99 37.2099 231.58 38.1399 230.23 38.1399C228.88 38.1399 228.46 37.2099 228.37 36.7299C228.33 36.5199 228.32 36.2399 228.32 35.9899V21.6399H223.41V35.5599C223.4 35.9199 223.44 36.6499 223.45 36.8399C223.79 40.4599 226.65 41.6399 230.22 41.6399C233.79 41.6399 236.65 40.4699 236.99 36.8399C237.01 36.6499 237.05 35.9199 237.04 35.5599V21.6399H232.13V35.9899Z" fill="black"/>
<path d="M270.75 32.98H272.74V35.8C272.74 36.05 272.73 36.32 272.69 36.54C272.6 37.06 272.11 37.95 270.71 37.95C269.31 37.95 268.82 37.06 268.73 36.54C268.69 36.32 268.68 36.05 268.69 35.8V26.93C268.69 26.61 268.71 26.27 268.77 26.01C268.88 25.53 269.29 24.6 270.7 24.6C272.18 24.6 272.55 25.58 272.64 26.01C272.7 26.29 272.7 26.75 272.7 26.75V27.84H277.6V27.19C277.6 27.19 277.62 26.53 277.55 25.91C277.19 22.27 274.18 21.11 270.74 21.11C267.3 21.11 264.36 22.28 263.93 25.91C263.89 26.23 263.85 26.84 263.85 27.19V35.36C263.85 35.73 263.86 35.99 263.92 36.64C264.24 40.17 267.31 41.44 270.75 41.44C274.19 41.44 277.25 40.18 277.58 36.64C277.64 35.99 277.65 35.73 277.65 35.36V30.16H270.78V32.98H270.75Z" fill="black"/>
<path d="M28.78 21.35H21.44V41.63H24.8V35.02H28.61C30.76 35.02 32.43 34.42 33.62 33.21C34.81 32.01 35.41 30.32 35.41 28.15C35.41 25.98 34.83 24.31 33.67 23.12C32.53 21.94 30.89 21.35 28.78 21.35ZM28.78 32.02H24.8V24.35H28.61C30.83 24.35 31.94 25.64 31.94 28.22C31.95 30.75 30.89 32.02 28.78 32.02Z" fill="black"/>
<path d="M42.78 26.0499C41.1 26.0499 39.45 26.4399 37.82 27.2299L38.66 29.8099C39.84 29.2899 41.02 29.0299 42.22 29.0299C44.25 29.0299 45.27 29.8099 45.27 31.3799V32.0799C42.21 32.0999 39.97 32.5299 38.56 33.3799C37.15 34.2299 36.45 35.5599 36.45 37.3699C36.45 38.8099 36.85 39.9299 37.65 40.7299C38.45 41.5299 39.59 41.9299 41.07 41.9299C43.13 41.9299 44.63 41.1199 45.58 39.4899V41.6199H48.55V31.0099C48.55 29.4199 48.04 28.1999 47.02 27.3399C46.01 26.4799 44.59 26.0499 42.78 26.0499ZM45.27 37.5399C44.34 38.5899 43.21 39.1099 41.88 39.1099C40.39 39.1099 39.64 38.4499 39.64 37.1199C39.64 36.1899 40.09 35.4999 40.98 35.0599C41.88 34.6199 43.31 34.3799 45.27 34.3399V37.5399Z" fill="black"/>
<path d="M57.62 38.0399L54.2 26.4199H50.81L55.88 41.6599C55.41 42.3699 54.79 42.9899 54.02 43.5099C53.24 44.0299 52.2 44.5299 50.9 44.9899L52.02 47.7899C54.07 47.1199 55.7 46.2399 56.91 45.1699C58.11 44.0999 58.99 42.7299 59.53 41.0699L64.35 26.4199H60.99L57.62 38.0399Z" fill="black"/>
<path d="M85.79 38.2099L83.04 26.4199H79.65L76.96 38.2099L74.25 26.4199H70.88L75.14 41.6299H78.7L81.3 30.4799L83.97 41.6299H87.52L91.78 26.4199H88.45L85.79 38.2099Z" fill="black"/>
<path d="M97.66 26.4199H94.35V41.6299H97.66V26.4199Z" fill="black"/>
<path d="M96 20.2799C95.35 20.2799 94.84 20.4499 94.49 20.7999C94.14 21.1499 93.96 21.6399 93.96 22.2699C93.96 22.8699 94.14 23.3399 94.51 23.6999C94.87 24.0499 95.37 24.2299 96.01 24.2299C96.66 24.2299 97.17 24.0599 97.52 23.7099C97.87 23.3599 98.05 22.8699 98.05 22.2399C98.05 21.6399 97.87 21.1699 97.5 20.8099C97.14 20.4599 96.64 20.2799 96 20.2799Z" fill="black"/>
<path d="M108.07 38.8799C107.25 38.8799 106.66 38.6799 106.29 38.2799C105.93 37.8799 105.74 37.2299 105.74 36.3299V29.2699H110V26.4099H105.74V22.1799H102.43V26.4099H100.02V29.2699H102.43V36.8899C102.43 40.1999 104.13 41.8499 107.53 41.8499C108.46 41.8499 109.35 41.7199 110.19 41.4599L109.69 38.6599C109.13 38.8099 108.59 38.8799 108.07 38.8799Z" fill="black"/>
<path d="M120.33 26.0499C118.65 26.0499 117.21 26.6799 116.02 27.9299V20.0599H112.71V41.6299H116.02V30.3099C116.5 29.9199 117 29.6299 117.5 29.4399C118 29.2499 118.54 29.1599 119.12 29.1599C120.8 29.1599 121.64 29.9199 121.64 31.4299V41.6299H124.95V31.0099C124.95 29.4399 124.55 28.2199 123.75 27.3499C122.95 26.4899 121.81 26.0499 120.33 26.0499Z" fill="black"/>
<path d="M367.91 30.8999C367.56 30.4799 367.19 30.0799 366.79 29.6999C366.38 29.3199 365.98 28.9299 365.58 28.5299C365.19 28.1499 364.78 27.7599 364.37 27.3499C363.95 26.9699 363.54 26.5799 363.13 26.1799C362.74 25.7799 362.33 25.3899 361.92 25.0099C361.53 24.6099 361.12 24.2099 360.71 23.8099C360.32 23.4099 359.92 23.0099 359.5 22.6099L358.91 22.0099C358.72 21.8099 358.47 21.6499 358.16 21.5299H357.97C357.72 21.5699 357.54 21.6499 357.41 21.7699C357 22.1699 356.59 22.5699 356.2 22.9699L355.95 23.3299C355.85 23.6299 355.9 23.8799 356.11 24.0799C356.5 24.4999 356.9 24.9099 357.29 25.3199C357.7 25.6999 358.11 26.0899 358.5 26.4899C358.89 26.8899 359.3 27.2899 359.71 27.6899C360.1 28.0699 360.51 28.4599 360.92 28.8699C361.31 29.2699 361.71 29.6699 362.13 30.0699C362.52 30.4699 362.92 30.8699 363.31 31.2799L363.03 31.5799C362.62 31.9799 362.21 32.3699 361.82 32.7499C361.41 33.1499 361 33.5499 360.61 33.9499C360.19 34.3499 359.79 34.7499 359.4 35.1599C358.99 35.5599 358.58 35.9599 358.19 36.3599C357.8 36.7599 357.39 37.1599 356.98 37.5699L356.39 38.1399L355.99 38.6199L355.96 39.2199L356.15 39.5499L356.21 39.5799C356.6 39.9799 357.01 40.3799 357.42 40.7799C357.56 40.9199 357.79 40.9899 358.1 40.9899L358.35 40.9299C358.62 40.7699 358.87 40.5699 359.09 40.3299C359.34 40.0699 359.6 39.8099 359.87 39.5499L360.3 39.1299C360.69 38.7499 361.1 38.3599 361.51 37.9599C361.92 37.5599 362.33 37.1699 362.72 36.7899C363.13 36.3899 363.53 35.9899 363.93 35.5799C364.34 35.1999 364.75 34.8099 365.14 34.3999C365.55 33.9999 365.96 33.6099 366.35 33.2299C366.76 32.8299 367.17 32.4399 367.56 32.0599L367.9 31.6399L367.96 31.0099L367.91 30.8999Z" fill="black"/>
</g>
<defs>
<clipPath id="clip0_822_824">
<rect width="389" height="63" fill="white"/>
</clipPath>
</defs>
</svg>
