<svg width="32" height="32" viewBox="0 0 32 32" fill="none" xmlns="http://www.w3.org/2000/svg">
<g clip-path="url(#clip0_2_432)">
<path d="M30 0H2C0.89543 0 0 0.89543 0 2V30C0 31.1046 0.89543 32 2 32H30C31.1046 32 32 31.1046 32 30V2C32 0.89543 31.1046 0 30 0Z" fill="#611F69"/>
<path fill-rule="evenodd" clip-rule="evenodd" d="M10.5763 19.2373C10.5763 18.0339 11.5593 17.0508 12.7627 17.0508C13.9661 17.0508 14.9492 18.0339 14.9492 19.2373V24.7119C14.9492 25.9153 13.9661 26.8983 12.7627 26.8983C11.5593 26.8983 10.5763 25.9153 10.5763 24.7119V19.2373ZM9.47458 19.2373C9.47458 20.4407 8.49153 21.4237 7.28814 21.4237C6.08475 21.4237 5.1017 20.4407 5.1017 19.2373C5.1017 18.0339 6.08475 17.0508 7.28814 17.0508H9.47458V19.2373Z" fill="#E01E5A"/>
<path fill-rule="evenodd" clip-rule="evenodd" d="M12.7627 10.5763C13.9661 10.5763 14.9492 11.5593 14.9492 12.7627C14.9492 13.9661 13.9661 14.9492 12.7627 14.9492H7.28814C6.08475 14.9492 5.1017 13.9661 5.1017 12.7627C5.1017 11.5593 6.08475 10.5763 7.28814 10.5763H12.7627ZM12.7627 9.47457C11.5593 9.47457 10.5763 8.49152 10.5763 7.28813C10.5763 6.08474 11.5593 5.10169 12.7627 5.10169C13.9661 5.10169 14.9492 6.08474 14.9492 7.28813V9.47457H12.7627Z" fill="#36C5F0"/>
<path fill-rule="evenodd" clip-rule="evenodd" d="M22.5254 12.7627C22.5254 11.5593 23.5085 10.5763 24.7119 10.5763C25.9152 10.5763 26.8983 11.5593 26.8983 12.7627C26.8983 13.9661 25.9152 14.9492 24.7119 14.9492H22.5254V12.7627ZM21.4237 12.7627C21.4237 13.9661 20.4407 14.9492 19.2373 14.9492C18.0339 14.9492 17.0508 13.9661 17.0508 12.7627V7.28813C17.0508 6.08474 18.0339 5.10169 19.2373 5.10169C20.4407 5.10169 21.4237 6.08474 21.4237 7.28813V12.7627Z" fill="#2EB67D"/>
<path fill-rule="evenodd" clip-rule="evenodd" d="M19.2373 21.4237C18.0339 21.4237 17.0508 20.4407 17.0508 19.2373C17.0508 18.0339 18.0339 17.0508 19.2373 17.0508H24.7119C25.9152 17.0508 26.8983 18.0339 26.8983 19.2373C26.8983 20.4407 25.9152 21.4237 24.7119 21.4237H19.2373ZM19.2373 22.5254C20.4407 22.5254 21.4237 23.5085 21.4237 24.7119C21.4237 25.9153 20.4407 26.8983 19.2373 26.8983C18.0339 26.8983 17.0508 25.9153 17.0508 24.7119V22.5254H19.2373Z" fill="#ECB22E"/>
</g>
<defs>
<clipPath id="clip0_2_432">
<rect width="32" height="32" fill="white"/>
</clipPath>
</defs>
</svg>
