<svg width="54" height="38" viewBox="0 0 54 38" fill="none" xmlns="http://www.w3.org/2000/svg">
<g clip-path="url(#clip0_1_277)">
<path d="M30 29.3C31.4 31.5 33.8 33.1 36.3 33.4C40.7 34 44.8 31.8 49.2 33.5C51.2 34.2 53 35.5 54 37.2C53.1 36.8 52.5 36.5 51.4 36.2C49.5 35.6 47.9 35.8 45.9 36.1C42.2 36.6 38.5 37.8 35 36.1C32.3 34.8 30.7 32.1 30 29.3Z" fill="#FFCD00"/>
<path d="M25.3 12.3C25.6 13.5 25.3 14.6 25.1 16C24.9 17.2 25.3 18.4 26.4 18.7C27.3 19 29.4 18.9 30.8 20.2C31.2 20.6 31.4 20.7 31.5 21.4C31.6 21.8 31.5 22.3 31.4 22.6C31 23.7 30.7 24.6 30 25.4C29 26.5 28 27.5 26.7 28C24.2 28.8 22.8 26.4 20.9 25.3C20 24.8 19.1 24.5 18.3 25.4C17 26.6 17.2 28.6 17.9 30C19.2 32.6 22 34.9 23.9 36.8C20.5 37.7 17 38.6 13.6 37.6C12 37.1 10.5 35.1 9.79999 33.6C8.59999 31 7.79999 25 1.79999 20.7C4.79999 21.1 5.99999 21.4 7.89999 20.1C8.29999 19.8 8.49999 19.3 8.39999 18.8C8.09999 16.8 6.39999 15.7 5.29999 14.3C6.09999 14.6 6.89999 14.8 7.79999 14.9C9.09999 15.1 10.2 14.8 11.3 14.1C14.8 12 10.8 7.20001 10.8 7.20001C10.8 7.20001 14.5 9.90001 16.8 9.50001C17.6 9.30001 18.1 9.10001 18.5 8.40001C19.5 6.70001 20.4 4.90001 21.2 3.10001C21.1 4.80001 20.8 6.50001 21.3 8.10001C21.7 9.60001 23 9.90001 24.2 10.7C24.7 11 25.1 11.3 25.3 12.3Z" fill="#78BE20"/>
<path d="M5.39999 15.8C6.19999 16.3 7.09999 16.9 7.79999 17.6C8.59999 18.4 9.69999 20.4 8.29999 22C7.79999 22.6 6.89999 22.9 6.09999 22.9C4.89999 23 3.29999 22.5 2.39999 21.8C2.59999 21.8 5.39999 22.3 6.69999 21.7C7.09999 21.5 7.59999 20.9 7.29999 19.7C6.89999 18.2 5.49999 17 3.09999 15.5C2.79999 15.3 2.59999 15 2.49999 14.6C2.49999 14.6 3.89999 15 5.39999 15.8Z" fill="#004833"/>
<path d="M6.9 25.2C7.4 26.1 7.5 26.5 7.4 27.7C7.3 28.4 6.8 28.8 6.4 29.1C6.4 29.1 6.8 27.6 6.2 26.5C5.3 24.7 4.5 24.8 0.9 23.4C0.5 23.2 0 22.6 0 22.5C0 22.4 2.9 22.9 4.5 23.4C5.3 23.6 6.4 24.4 6.9 25.2Z" fill="#004833"/>
<path d="M18.9 14.4C18.3 15.2 18.5 16.5 19.5 16.6C20.1 16.6 20.9 16.3 21.1 15.6C21.3 14.9 21 14.4 20.5 13.9C20.1 13.6 19.3 13.9 18.9 14.4Z" fill="white"/>
<path d="M7.99999 16.3C8.79999 17.1 9.99999 17.2 10.9 16.6C11.9 15.9 11.9 14.2 11.6 13.2C11 10.5 9.49999 8.09999 7.49999 6.89999C8.49999 8.99999 9.69999 11.3 10.1 13.6C10.2 14.1 10.3 14.7 10.1 15.2C9.59999 16.2 7.69999 15.6 6.79999 15.1C7.19999 15.5 7.99999 16.3 7.99999 16.3Z" fill="#004833"/>
<path d="M14.3 9.7C16 9.5 16 7.9 16.3 6.6C16.5 5.5 17 4.4 17.8 3.4C18.4 2.7 18.7 2.4 19.2 1.8C20.3 0.4 21.1 0 21.1 0C21.1 0 18.6 3.9 18.1 5.9C17.6 7.6 18.2 9.7 16.3 10.8C14.7 11.7 13.1 10.9 11.9 10C11.3 9.5 10.9 8.9 10.7 8.1C11.8 8.8 12.8 9.9 14.3 9.7Z" fill="#004833"/>
<path d="M20.9 9.19999C21.6 9.99999 22.5 10.2 23.4 10.8C24.2 11.4 24.7 11.9 25 12.8C25.4 14.1 24.8 15.4 24.8 16.8C25 19 26.5 19 28.5 19C29.7 19 31.8 20 31.6 21.8C31.5 22.5 31.4 23 30.9 23.5C30.4 23.9 29.8 24.1 29.3 23.7C30.3 23.4 30.6 23 30.7 22C30.7 21.4 30.4 20.9 30.2 20.7C29.8 20.3 29.2 19.8 27.8 19.9C26.7 19.9 25.8 20 24.7 19.2C24.2 18.8 24 18.5 23.7 17.9C23 16.5 23.9 14.9 23.7 13.4C23.6 12.7 22.8 11.9 22.2 11.4C21.1 10.7 20 10.3 19.3 9.09999C18.3 7.29999 19.2 5.09999 20.3 3.29999C20.3 5.39999 19.4 7.59999 20.9 9.19999Z" fill="#004833"/>
<path d="M21.6 16.1C22.2 15.3 21.9 14.3 21 13.9C20.5 13.7 19.9 13.6 19.3 13.8C19.1 13.8 18.7 13.9 18.5 14.3C18.7 14.2 19.1 14.1 19.4 14.1C19.9 14.1 20 14.3 20 14.3C20 14.3 19.3 14.5 19.2 15C19 15.5 19.2 16 19.6 16.2C20.2 16.8 21.1 16.7 21.6 16.1Z" fill="#004833"/>
<path d="M12.4 15.7C13.1 14.7 13.8 13.8 14.6 13.1C14.5 13.9 14.1 14.7 13.8 15.5C12 19.4 10.4 22 9.8 27.2C9.2 32.1 10.4 34.6 11.1 35.7C11.4 36.1 11.2 36.9 10.8 37.4C10.3 38 9 37.2 9 37.2C9 37.2 8.8 36.6 8.6 36C8.1 34.4 7.9 32.7 7.8 31C7.5 25.6 9.1 20.3 12.4 15.7Z" fill="#004833"/>
<path d="M24.2 22.8C26 24.2 27.9 24.9 29.8 25.7C29.6 26.4 29.4 26.5 28.8 27C27.5 26.6 26.1 26 25.1 25.1C23.9 24 23 23 22.5 21.4C23.2 21.8 23.6 22.4 24.2 22.8Z" fill="#004833"/>
<path d="M20.1 24.1C22 24.4 22.7 25.6 24 26.8C25 27.7 26.2 28.4 27.6 28C27.4 29.1 26 29.4 24.8 29.2C22.8 28.9 22.4 27.3 21.1 26C20.2 25.1 18.6 25.2 17.6 26.4C16.3 28 17.6 30.7 18.6 31.9C19.7 33.2 20.7 34.2 21.8 35.3C21.8 35.3 23.3 36.8 24.2 37.9C21.1 36.3 19 34.9 16.8 32.2C15.8 30.9 15.6 29.8 15.5 28.4C15.5 27.2 15.7 26.2 16.5 25.2C17.5 24.1 18.7 23.9 20.1 24.1Z" fill="#004833"/>
<path d="M28.4 21.7C28 21.8 27.7 22.3 27.8 22.6C28 23 28.5 23.1 28.9 22.8C29 22.7 29.2 22.5 29.2 22.3C29.2 22 29 21.7 28.6 21.6C28.5 21.6 28.4 21.7 28.4 21.7Z" fill="white"/>
<path d="M28.7 21.3C28.9 21.3 29.2 21.4 29.3 21.6C29.6 21.8 29.5 22.3 29.2 22.5C28.8 22.8 28.4 22.8 28.1 22.5C27.9 22.2 27.9 21.8 28.1 21.5C28.3 21.4 28.5 21.3 28.7 21.3Z" fill="#004833"/>
</g>
<defs>
<clipPath id="clip0_1_277">
<rect width="54" height="38" fill="white"/>
</clipPath>
</defs>
</svg>
