<svg width="170" height="51" viewBox="0 0 170 51" fill="none" xmlns="http://www.w3.org/2000/svg">
<g clip-path="url(#clip0_1_276)">
<path d="M169.7 37C168.6 40.8 166.2 42.4 162.8 42.4C158.2 42.4 155.3 38.9 155.3 34C155.3 29.2 158.3 25.5 162.8 25.5C167.8 25.5 170.2 30.1 169.9 35H159.3C159.4 37.8 160.7 39.1 162.9 39.1C164.1 39.1 165.1 38.5 165.7 37.8C166.1 37.3 166.7 37 167.3 37H169.7ZM166 32.3C165.6 30.1 164.8 28.9 162.8 28.9C160.2 28.9 159.5 31.1 159.5 32.3H166Z" fill="#E30000"/>
<path d="M150.7 27.2C151.4 26.2 152.3 25.5 153.2 25.5V41C153.2 43.6 152.3 48.1 145.6 48.1C142.7 48.1 139.3 46.6 139.1 42.9H141.8C142.5 42.9 143.2 43.3 143.5 43.9C144.1 44.8 145 45.1 146.1 45.1C148.3 45.1 149.4 43.4 149.3 41.1V39H149.2C148.3 40.7 146.6 41.5 144.8 41.5C140.4 41.5 138.5 37.9 138.5 33.5C138.5 28.6 141.4 25.5 145.8 25.5C147.8 25.5 149.4 26.1 150.7 27.2ZM149.4 33.8C149.4 31.2 148.6 28.9 146 28.9C143.7 28.9 142.7 31.1 142.7 33.5C142.7 35.8 143.5 38.3 146 38.3C148.2 38.2 149.4 36.1 149.4 33.8Z" fill="#E30000"/>
<path d="M117.8 39.1C120.5 39.1 121.4 36.5 121.4 34C121.4 31.4 120.6 28.8 117.8 28.8C115.1 28.8 114.3 31.4 114.3 34C114.2 36.5 115 39.1 117.8 39.1ZM117.8 25.5C122.4 25.5 125.4 28.9 125.4 34C125.4 39.1 122.4 42.4 117.8 42.4C113.2 42.4 110.2 39 110.2 34C110.2 28.9 113.2 25.5 117.8 25.5Z" fill="#E30000"/>
<path d="M107.9 37C106.8 40.8 104.4 42.4 101 42.4C96.4 42.4 93.5 38.9 93.5 34C93.5 29.2 96.5 25.5 101 25.5C106 25.5 108.4 30.1 108.1 35H97.6C97.7 37.8 99 39.1 101.2 39.1C102.4 39.1 103.4 38.5 104 37.8C104.4 37.3 105 37 105.6 37H107.9ZM104.1 32.3C103.7 30.1 102.9 28.9 100.9 28.9C98.3 28.9 97.6 31.1 97.6 32.3H104.1Z" fill="#E30000"/>
<path d="M56.9 30.6C56.1 30.6 55.5 30.2 55.1 29.5C54.6 28.6 53.7 28.4 52.6 28.4C51.7 28.4 50.4 28.6 50.4 29.9C50.4 31.5 52.7 31.7 55 32.3C57.4 32.9 59.6 33.8 59.6 36.8C59.6 41 56.3 42.4 52.9 42.4C49.5 42.4 46.2 41 46 36.8H49.8C49.8 38.7 51.3 39.5 52.9 39.5C54.1 39.5 55.5 39 55.5 37.5C55.5 36.2 53.8 35.7 50.9 35C48.6 34.4 46.2 33.5 46.2 30.7C46.2 26.6 49.4 25.5 52.6 25.5C55.8 25.5 58.8 26.7 59.1 30.6H56.9Z" fill="#E30000"/>
<path d="M67.1 26H70V26.9C70 28 69.1 28.9 68 28.9H67.1V36.8C67.1 38.3 67.4 38.7 68.8 38.7C69.2 38.7 69.6 38.7 70 38.6V42C69.3 42.1 68.4 42.2 67.6 42.2C65.1 42.2 63 41.6 63 38.4V28.9H60.6V28C60.6 26.9 61.5 26 62.6 26H63V21.2H65C66.1 21.2 67 22.1 67 23.2V26H67.1Z" fill="#E30000"/>
<path d="M89 27.2C89.7 26.2 90.6 25.5 91.5 25.5V41C91.5 43.6 90.7 48.1 83.9 48.1C81 48.1 77.6 46.6 77.4 42.9H80.1C80.8 42.9 81.5 43.3 81.8 43.9C82.4 44.8 83.3 45.1 84.4 45.1C86.6 45.1 87.7 43.4 87.6 41.1V39H87.5C86.6 40.7 84.9 41.5 83.1 41.5C78.7 41.5 76.8 37.9 76.8 33.5C76.8 28.6 79.7 25.5 84.1 25.5C86.1 25.5 87.7 26.1 89 27.2ZM87.7 33.8C87.7 31.2 86.9 28.9 84.3 28.9C82 28.8 81 31 81 33.4C81 35.7 81.8 38.2 84.3 38.2C86.5 38.2 87.7 36.1 87.7 33.8Z" fill="#E30000"/>
<path d="M76.3 40.2C76.3 41.4 75.3 42.4 74.1 42.4C72.9 42.4 71.9 41.4 71.9 40.2C71.9 39 72.9 38 74.1 38C75.3 38 76.3 39 76.3 40.2Z" fill="#E30000"/>
<path d="M40.5 39.3C42.3 42.2 45.6 44.3 48.9 44.8C54.8 45.5 60.4 42.7 66.3 44.9C69.1 45.9 71.4 47.5 72.8 49.9C71.6 49.4 70.8 49 69.3 48.5C66.7 47.7 64.5 48 61.9 48.4C56.9 49.1 52 50.7 47.2 48.4C43.6 46.7 41.4 43.1 40.5 39.3Z" fill="#FFCD00"/>
<path d="M34.1 16.5C34.5 18.1 34.1 19.6 33.9 21.5C33.7 23.1 34.2 24.7 35.7 25.1C36.9 25.5 39.7 25.4 41.6 27.1C42.2 27.7 42.4 27.8 42.5 28.7C42.6 29.2 42.5 29.9 42.4 30.3C41.9 31.7 41.4 33 40.6 34.1C39.3 35.6 37.9 37 36.1 37.6C32.8 38.7 30.8 35.4 28.2 34C27.1 33.4 25.7 33 24.6 34.1C22.9 35.8 23.1 38.4 24 40.3C25.8 43.8 29.5 46.9 32.1 49.5C27.5 50.7 22.8 51.9 18.2 50.6C16 50 14 47.3 13.1 45.2C11.5 41.8 10.5 33.7 2.39999 28C6.39999 28.5 8.09999 28.9 10.7 27.1C11.3 26.7 11.4 26 11.4 25.3C11 22.5 8.69999 21 7.19999 19.1C8.29999 19.5 9.39999 19.8 10.6 19.9C12.3 20.1 13.9 19.7 15.3 18.9C20 16.1 14.6 9.59998 14.6 9.59998C14.6 9.59998 19.6 13.2 22.7 12.7C23.8 12.5 24.5 12.1 25 11.2C26.4 8.89998 27.6 6.49998 28.6 4.09998C28.4 6.29998 28.1 8.69998 28.7 10.8C29.3 12.8 31 13.2 32.6 14.3C33.3 14.7 33.9 15.2 34.1 16.5Z" fill="#78BE20"/>
<path d="M9.3 33.9C9.9 35.1 10.2 35.7 10 37.2C9.9 38.1 9.2 38.6 8.6 39C8.6 39 9.2 37 8.4 35.5C7.2 33 6.2 33.2 1.2 31.3C0.6 31.1 0 30.3 0 30.2C0 30.1 4 30.8 6 31.4C7.1 31.7 8.7 32.8 9.3 33.9Z" fill="#004833"/>
<path d="M25.5 19.4C24.7 20.5 24.9 22.2 26.3 22.3C27.2 22.3 28.2 21.9 28.5 21C28.8 20.1 28.4 19.3 27.7 18.7C27 18.3 26.1 18.6 25.5 19.4Z" fill="white"/>
<path d="M7.29999 21.3C8.39999 21.9 9.59999 22.8 10.6 23.8C11.7 24.9 13.1 27.6 11.3 29.7C10.6 30.5 9.39999 30.9 8.29999 30.9C6.59999 31 4.49999 30.4 3.29999 29.5C3.59999 29.5 7.29999 30.2 9.09999 29.3C9.69999 29 10.3 28.3 9.89999 26.7C9.39999 24.6 7.39999 23.1 4.19999 21C3.79999 20.8 3.59999 20.3 3.39999 19.8C3.29999 19.6 5.29999 20.1 7.29999 21.3Z" fill="#004833"/>
<path d="M10.8 21.8C11.9 22.8 13.5 23 14.7 22.2C16 21.3 16 19 15.7 17.7C15 14 13 10.8 10.3 9.29999C11.6 12.2 13.2 15.2 13.8 18.3C13.9 19 14 19.8 13.7 20.4C13 21.8 10.5 20.9 9.20001 20.2C9.70001 20.8 10.8 21.8 10.8 21.8Z" fill="#004833"/>
<path d="M19.3 13C21.6 12.7 21.6 10.6 21.9 8.9C22.2 7.4 22.9 5.9 23.9 4.6C24.7 3.6 25.1 3.3 25.8 2.4C27.4 0.5 28.4 0 28.4 0C28.4 0 25.1 5.3 24.4 7.9C23.8 10.2 24.5 13 21.9 14.5C19.7 15.7 17.5 14.7 16 13.4C15.2 12.7 14.7 12 14.4 10.9C15.9 11.8 17.3 13.2 19.3 13Z" fill="#004833"/>
<path d="M28.1 12.4C29.1 13.4 30.3 13.8 31.5 14.6C32.6 15.3 33.3 16.1 33.7 17.3C34.2 19 33.4 20.8 33.5 22.6C33.7 25.6 35.8 25.5 38.5 25.6C40.1 25.7 42.9 27 42.6 29.3C42.5 30.3 42.3 30.9 41.7 31.6C41 32.1 40.2 32.4 39.6 31.9C40.9 31.5 41.4 31 41.5 29.6C41.6 28.9 41.1 28.1 40.8 27.9C40.3 27.4 39.5 26.7 37.5 26.8C36 26.8 34.7 26.9 33.3 25.9C32.6 25.4 32.3 25 31.9 24.2C31 22.3 32.2 20.1 31.9 18.2C31.8 17.2 30.7 16.2 29.8 15.6C28.4 14.7 26.8 14.2 25.9 12.5C24.8 9.99998 25.9 6.99998 27.5 4.59998C27.4 7.19998 26.2 10.3 28.1 12.4Z" fill="#004833"/>
<path d="M29.1 21.6C30 20.6 29.5 19.2 28.3 18.7C27.7 18.4 26.8 18.3 26.1 18.5C25.9 18.6 25.3 18.7 25 19.2C25.3 19.1 25.8 19 26.3 18.9C27 18.9 27.1 19.2 27.1 19.2C27.1 19.2 26.2 19.4 26 20.2C25.8 20.8 26 21.5 26.5 21.8C27.2 22.6 28.4 22.4 29.1 21.6Z" fill="#004833"/>
<path d="M16.7 21.1C17.6 19.8 18.6 18.6 19.7 17.6C19.6 18.7 19.1 19.8 18.6 20.8C16.1 26 14 29.6 13.2 36.5C12.4 43.1 14 46.4 15 47.9C15.3 48.4 15.1 49.6 14.5 50.2C13.9 51 12.2 50 12.2 50C12.2 50 11.9 49.2 11.6 48.4C11 46.2 10.6 44 10.5 41.6C10.1 34.4 12.2 27.3 16.7 21.1Z" fill="#004833"/>
<path d="M32.6 30.6C35 32.4 37.6 33.4 40.2 34.5C39.9 35.5 39.6 35.6 38.9 36.3C37.1 35.8 35.2 35 34 33.8C32.3 32.3 31 31 30.4 28.8C31.3 29.2 31.8 30 32.6 30.6Z" fill="#004833"/>
<path d="M27.1 32.4C29.7 32.8 30.6 34.4 32.4 36C33.8 37.2 35.3 38.1 37.3 37.7C37 39.2 35.2 39.6 33.6 39.3C30.9 38.9 30.4 36.8 28.6 34.9C27.4 33.6 25.2 33.8 23.9 35.5C22.2 37.6 23.9 41.2 25.3 42.9C26.8 44.7 28.1 46 29.6 47.4C29.6 47.4 31.7 49.4 32.8 50.9C28.6 48.8 25.8 46.9 22.8 43.2C21.4 41.4 21.1 39.9 21 38.1C21.1 36.4 21.2 35.2 22.4 33.8C23.6 32.3 25.3 32 27.3 32.3" fill="#004833"/>
<path d="M38.2 29.1C37.7 29.3 37.2 29.9 37.4 30.4C37.6 31 38.3 31.1 38.9 30.7C39.1 30.5 39.2 30.2 39.3 30C39.3 29.6 39 29.2 38.5 29C38.4 29 38.3 29.1 38.2 29.1Z" fill="white"/>
<path d="M38.8 28.6C39.1 28.6 39.4 28.8 39.7 29C40 29.3 39.9 29.9 39.5 30.3C39 30.7 38.5 30.8 38 30.3C37.7 30 37.7 29.4 38 29C38.2 28.7 38.4 28.6 38.8 28.6Z" fill="#004833"/>
<path d="M131.5 34.4V42H127.5V25.5C127.5 25.5 128.9 25.3 130.3 27.5C131 26.7 132.7 25.5 135 25.5C137.7 25.5 139.2 26.8 139.2 26.8C139.2 26.8 138.6 27.6 138.2 28.6C137.7 29.5 137.4 30.5 137.4 30.5C137.4 30.5 136.4 29.6 135.2 29.6C133.8 29.6 131.5 30.7 131.5 34.4Z" fill="#E30000"/>
</g>
<defs>
<clipPath id="clip0_1_276">
<rect width="170" height="51" fill="white"/>
</clipPath>
</defs>
</svg>
