<svg width="180" height="65" viewBox="0 0 180 65" fill="none" xmlns="http://www.w3.org/2000/svg">
<path d="M170.952 38.2529C170.583 36.0189 169.704 34.8399 167.748 34.8399C165.197 34.8399 164.459 37.0109 164.403 38.2529H170.952ZM174.723 43.0319C173.588 46.8179 171.18 48.4329 167.861 48.4329C163.24 48.4329 160.377 44.9569 160.377 39.9899C160.377 35.1809 163.41 31.5189 167.861 31.5189C172.851 31.5189 175.262 36.1109 174.976 41.0459H164.403C164.515 43.8399 165.764 45.1109 168.004 45.1109C169.185 45.1109 170.201 44.5299 170.76 43.8299C171.129 43.3459 171.711 43.0319 172.368 43.0319H174.723ZM154.374 39.7803C154.374 37.1733 153.553 34.8453 150.944 34.8453C148.676 34.8453 147.684 37.0163 147.684 39.4083C147.684 41.7043 148.478 44.2173 150.944 44.2173C153.24 44.2173 154.374 42.0773 154.374 39.7803ZM155.666 33.1683C156.357 32.1363 157.24 31.5173 158.202 31.5173V46.9803C158.202 49.6183 157.352 54.0873 150.603 54.0873C147.712 54.0873 144.339 52.5973 144.141 48.9343H146.794C147.525 48.9343 148.167 49.3243 148.52 49.9063C149.079 50.8083 150.053 51.1373 151.143 51.1373C153.383 51.1373 154.403 49.4643 154.374 47.1663V45.0553H154.318C153.439 46.7323 151.682 47.5393 149.923 47.5393C145.529 47.5393 143.658 43.9143 143.658 39.5073C143.658 34.6563 146.512 31.5173 150.916 31.5173C152.826 31.5173 154.444 32.1083 155.666 33.1683ZM136.451 40.4204V47.9954H132.424V31.5154C132.424 31.5154 133.812 31.3124 135.232 33.5294C135.906 32.6874 137.672 31.5154 139.922 31.5154C142.64 31.5154 144.097 32.8494 144.097 32.8494C144.097 32.8494 143.547 33.6714 143.077 34.6224C142.62 35.5484 142.241 36.5504 142.241 36.5504C142.241 36.5504 141.246 35.6294 140.037 35.6294C138.828 35.6294 136.451 36.6534 136.451 40.4204ZM122.766 31.5186C127.387 31.5186 130.364 34.8696 130.364 39.9916C130.364 45.0806 127.387 48.4306 122.766 48.4306C118.174 48.4306 115.198 45.0806 115.198 39.9916C115.198 34.8696 118.174 31.5186 122.766 31.5186ZM122.766 45.1126C125.515 45.1126 126.338 42.5356 126.338 39.9916C126.338 37.4146 125.515 34.8386 122.766 34.8386C120.045 34.8386 119.223 37.4146 119.223 39.9916C119.223 42.5356 120.045 45.1126 122.766 45.1126ZM109.103 38.2529C108.734 36.0189 107.856 34.8399 105.899 34.8399C103.348 34.8399 102.61 37.0109 102.554 38.2529H109.103ZM112.874 43.0319C111.74 46.8179 109.331 48.4329 106.013 48.4329C101.391 48.4329 98.5278 44.9569 98.5278 39.9899C98.5278 35.1809 101.561 31.5189 106.013 31.5189C111.002 31.5189 113.413 36.1109 113.127 41.0459H102.554C102.666 43.8399 103.915 45.1109 106.154 45.1109C107.336 45.1109 108.352 44.5299 108.911 43.8299C109.279 43.3459 109.862 43.0319 110.519 43.0319H112.874ZM92.6623 39.7803C92.6623 37.1733 91.8423 34.8453 89.2323 34.8453C86.9653 34.8453 85.9723 37.0163 85.9723 39.4083C85.9723 41.7043 86.7663 44.2173 89.2323 44.2173C91.5293 44.2173 92.6623 42.0773 92.6623 39.7803ZM93.9553 33.1683C94.6463 32.1363 95.5293 31.5173 96.4903 31.5173V46.9803C96.4903 49.6183 95.6413 54.0873 88.8923 54.0873C86.0023 54.0873 82.6283 52.5973 82.4293 48.9343H85.0833C85.8163 48.9343 86.4573 49.3243 86.8083 49.9063C87.3673 50.8083 88.3413 51.1373 89.4323 51.1373C91.6723 51.1373 92.6913 49.4643 92.6623 47.1663V45.0553H92.6073C91.7283 46.7323 89.9703 47.5393 88.2133 47.5393C83.8183 47.5393 81.9473 43.9143 81.9473 39.5073C81.9473 34.6563 84.8023 31.5173 89.2053 31.5173C91.1153 31.5173 92.7343 32.1083 93.9553 33.1683ZM81.2785 46.2178C81.2785 47.4408 80.2825 48.4338 79.0505 48.4338C77.8235 48.4338 76.8265 47.4408 76.8265 46.2178C76.8265 44.9948 77.8235 44.0028 79.0505 44.0028C80.2825 44.0028 81.2785 44.9948 81.2785 46.2178ZM61.8762 36.6397C61.1052 36.6397 60.4382 36.2097 60.0982 35.5777C59.6472 34.7267 58.7082 34.4677 57.6232 34.4677C56.7152 34.4677 55.3832 34.6537 55.3832 35.9557C55.3832 37.5387 57.6502 37.7547 59.9472 38.3457C62.3012 38.9357 64.5972 39.8677 64.5972 42.8477C64.5972 47.0676 61.2512 48.4327 57.9062 48.4327C54.5042 48.4327 51.1882 47.0357 51.0162 42.7837H54.8442C54.8722 44.7077 56.3462 45.4847 57.9362 45.4847C59.0972 45.4847 60.5702 44.9877 60.5702 43.4357C60.5702 42.1007 58.8982 41.6367 56.0062 40.9527C53.6822 40.3947 51.3552 39.4937 51.3552 36.6697C51.3552 32.5737 54.5892 31.5187 57.7342 31.5187C60.9392 31.5187 63.8892 32.6987 64.1992 36.6397H61.8762ZM72.1037 31.9531H75.0527V32.8981C75.0527 34.0051 74.1507 34.9011 73.0397 34.9011H72.1037V42.8481C72.1037 44.3361 72.4447 44.7091 73.8047 44.7091C74.2307 44.7091 74.6267 44.677 75.0527 44.5851V48.0281C74.3717 48.1531 73.4947 48.1831 72.6997 48.1831C70.2327 48.1831 68.0787 47.5621 68.0787 44.3651V34.9011H65.6397V33.9561C65.6397 32.8491 66.5417 31.9531 67.6527 31.9531H68.0787V27.1411H70.0897C71.2037 27.1411 72.1037 28.0401 72.1037 29.1441V31.9531Z" fill="#E30000"/>
<path d="M45.4729 45.2979C47.2949 48.2189 50.6019 50.3368 53.9099 50.8158C59.7889 51.5608 65.3969 48.7349 71.2679 50.9109C74.0249 51.9049 76.3379 53.5468 77.7969 55.9268C76.6369 55.4058 75.8149 55.0249 74.3069 54.5469C71.7359 53.7429 69.5259 54.0178 66.9489 54.4608C61.9829 55.1708 57.0099 56.7869 52.2359 54.4709C48.5689 52.7339 46.3759 49.0769 45.4729 45.2979Z" fill="#FFCD00"/>
<path d="M39.1389 22.4717C39.4899 24.0487 39.1639 25.5247 38.9059 27.4327C38.6839 29.0757 39.2069 30.6037 40.6979 31.0757C41.9299 31.4647 44.6809 31.3707 46.6249 33.0297C47.2069 33.6097 47.3849 33.7617 47.5019 34.6397C47.5769 35.1817 47.4979 35.8047 47.3849 36.2817C46.8869 37.7267 46.3929 39.0077 45.5649 40.0387C44.2389 41.5797 42.8689 42.9157 41.1059 43.4997C37.7829 44.6027 35.7989 41.3057 33.2299 39.8567C32.0819 39.2477 30.7519 38.8117 29.6699 39.9417C27.9279 41.6177 28.2009 44.2657 29.0899 46.1687C30.8869 49.6367 34.5779 52.7797 37.1739 55.3197C32.5329 56.5307 27.8949 57.7427 23.2369 56.4367C21.0839 55.8307 19.0589 53.1187 18.1249 51.0197C16.5559 47.5867 15.5159 39.4967 7.38092 33.8147C11.4099 34.3017 13.0409 34.7037 15.6599 32.9577C16.2369 32.5457 16.4099 31.8297 16.3689 31.1897C15.9709 28.4657 13.7389 27.0117 12.1829 25.1137C13.2809 25.5157 14.3909 25.8017 15.6179 25.9497C17.3549 26.1577 18.8709 25.7917 20.3049 24.9417C25.0369 22.1287 19.5839 15.6547 19.5839 15.6547C19.5839 15.6547 24.5779 19.2127 27.7049 18.7247C28.7679 18.4777 29.4789 18.1647 30.0449 17.2027C31.4119 14.8867 32.6519 12.5037 33.6599 10.0807C33.5079 12.3267 33.1429 14.6427 33.7399 16.7517C34.3129 18.7577 36.0669 19.1587 37.6619 20.2747C38.3209 20.7137 38.8559 21.2007 39.1389 22.4717Z" fill="#78BE20"/>
<path d="M30.5144 25.3711C29.7104 26.5051 29.9414 28.1431 31.3454 28.3051C32.1994 28.3421 33.2424 27.9171 33.5454 27.0201C33.8504 26.1301 33.4474 25.3551 32.7774 24.7671C32.0314 24.3021 31.0564 24.6031 30.5144 25.3711Z" fill="white"/>
<path d="M12.3244 27.2559C13.4354 27.8809 14.6434 28.7259 15.6014 29.7069C16.6704 30.8039 18.1114 33.5109 16.2794 35.5859C15.5744 36.3749 14.4184 36.7469 13.3144 36.7889C11.6604 36.8979 9.48242 36.2679 8.26642 35.3559C8.53342 35.3509 12.2524 36.0559 14.0334 35.1529C14.5974 34.8679 15.2584 34.1099 14.8524 32.5339C14.3244 30.4729 12.3814 28.9319 9.13542 26.8689C8.75542 26.6269 8.48842 26.1629 8.33042 25.6299C8.33042 25.6299 10.2994 26.1159 12.3244 27.2559ZM15.841 27.8252C16.976 28.8732 18.522 29.0572 19.777 28.2002C21.112 27.2922 21.069 25.0262 20.781 23.7012C19.983 20.0212 17.98 16.8162 15.31 15.2732C16.635 18.1272 18.252 21.1972 18.777 24.2752C18.9 24.9952 18.994 25.8022 18.718 26.3632C18.06 27.7202 15.508 26.8342 14.23 26.1692C14.707 26.7752 15.841 27.8252 15.841 27.8252ZM24.3191 18.9766C26.5921 18.7056 26.6291 16.5446 26.9461 14.8576C27.2341 13.3306 27.9261 11.8826 28.9841 10.5556C29.7581 9.58157 30.2021 9.21257 30.8791 8.39057C32.3971 6.54657 33.4311 5.99957 33.4311 5.99957C33.4311 5.99957 30.1191 11.2936 29.4201 13.9176C28.7951 16.2466 29.4981 18.9746 26.9381 20.4856C24.7441 21.6496 22.5801 20.6466 21.0651 19.3966C20.2291 18.6866 19.7541 17.9806 19.4711 16.8566C20.9181 17.8026 22.2541 19.2246 24.3191 18.9766ZM33.1164 18.3535C34.0724 19.3945 35.3244 19.7145 36.5174 20.5195C37.6154 21.2595 38.3164 22.0085 38.7004 23.1965C39.2014 24.8975 38.3684 26.7045 38.4744 28.5395C38.6424 31.5615 40.7434 31.4365 43.4824 31.5325C45.0664 31.5895 47.9294 32.9025 47.6134 35.2555C47.4844 36.2255 47.3374 36.8645 46.7064 37.5145C46.0474 38.0565 45.2384 38.2675 44.6054 37.7875C45.9334 37.3455 46.3734 36.8665 46.4884 35.5155C46.5544 34.7715 46.0784 34.0295 45.8104 33.7875C45.2694 33.2975 44.4934 32.6255 42.5434 32.6865C41.0354 32.7305 39.7824 32.7565 38.3774 31.7655C37.6644 31.2615 37.4024 30.8165 37.0124 30.0695C36.1274 28.1665 37.2734 25.9775 37.0544 24.0745C36.9514 23.1185 35.8774 22.0415 34.9704 21.4495C33.5214 20.5005 31.9764 20.0285 31.0664 18.3615C29.7674 15.9775 30.8784 12.9575 32.4514 10.5685C32.3904 13.2265 31.1814 16.2595 33.1164 18.3535ZM34.073 27.6358C34.931 26.6108 34.497 25.2728 33.291 24.7118C32.643 24.3948 31.816 24.3548 31.052 24.5348C30.821 24.5888 30.24 24.6998 29.971 25.2308C30.256 25.1398 30.813 24.9878 31.239 24.9738C31.908 24.9598 32.086 25.2348 32.086 25.2348C32.086 25.2348 31.206 25.4748 30.956 26.2388C30.746 26.8768 30.997 27.5658 31.473 27.8758C32.172 28.5578 33.435 28.4018 34.073 27.6358ZM21.7092 27.0801C22.6452 25.7901 23.5982 24.5921 24.7032 23.5671C24.6212 24.6901 24.0842 25.7461 23.6482 26.7711C21.1562 31.9881 19.0842 35.5381 18.2932 42.4381C17.5352 49.0571 19.0542 52.3141 20.0742 53.8421C20.4202 54.3821 20.1472 55.4951 19.6152 56.1271C18.9052 56.9761 17.1702 55.9931 17.1702 55.9931C17.1702 55.9931 16.8552 55.1501 16.5632 54.3651C15.9452 52.1581 15.5582 49.9791 15.4592 47.5991C15.1392 40.3511 17.2092 33.2991 21.7092 27.0801ZM37.5979 36.6113C40.0269 38.4373 42.6149 39.4523 45.1949 40.4633C44.8639 41.4573 44.6199 41.5933 43.8809 42.2723C42.0939 41.7703 40.2229 40.9663 38.9409 39.7443C37.2469 38.2203 35.9889 36.9263 35.3709 34.7163C36.2619 35.1903 36.7859 36.0043 37.5979 36.6113ZM32.0525 38.3545C34.6245 38.7845 35.5975 40.3705 37.3085 41.9925C38.7015 43.1735 40.2515 44.0865 42.1665 43.6685C41.8475 45.2015 40.0705 45.5195 38.4535 45.2825C35.7855 44.8585 35.2225 42.7575 33.4625 40.9265C32.2785 39.6755 30.0835 39.8525 28.7845 41.4895C27.0355 43.6095 28.7795 47.1995 30.1935 48.9105C31.6745 50.7025 32.9605 51.9665 34.4555 53.4475C34.4555 53.4475 36.5425 55.4825 37.6935 56.9155C33.5155 54.7925 30.6705 52.9555 27.7305 49.2585C26.3305 47.4985 26.0545 45.9825 25.9685 44.1455C26.0355 42.4785 26.1955 41.2485 27.3295 39.8795C28.5605 38.3925 30.2085 38.0425 32.1855 38.3755" fill="#004833"/>
<path d="M43.2326 35.1084C42.6976 35.2864 42.2806 35.8694 42.3986 36.3774C42.6466 36.9594 43.3436 37.0674 43.9216 36.6514C44.1076 36.4754 44.2676 36.2004 44.3296 35.9614C44.3356 35.5184 44.0336 35.1764 43.5456 35.0054C43.4396 35.0384 43.3386 35.0734 43.2326 35.1084Z" fill="white"/>
<path d="M43.7522 34.582C44.0742 34.577 44.4002 34.734 44.6112 34.933C44.9512 35.249 44.8222 35.853 44.4512 36.199C43.9752 36.578 43.4332 36.65 42.9982 36.24C42.6952 35.895 42.6812 35.352 43.0332 34.904C43.2012 34.693 43.4152 34.586 43.7522 34.582ZM14.2541 39.8545C14.8811 41.0325 15.1291 41.6545 14.9201 43.1815C14.7931 44.1015 14.1251 44.6235 13.5171 45.0175C13.5171 45.0175 14.0801 43.0285 13.3041 41.4835C12.0631 39.0115 11.0621 39.1445 6.12512 37.2935C5.63112 37.1085 4.99012 36.3455 5.00012 36.2265C5.01012 36.1065 8.97312 36.7905 11.0001 37.3795C12.1351 37.7085 13.6851 38.7805 14.2541 39.8545Z" fill="#004833"/>
</svg>
