<svg width="180" height="65" viewBox="0 0 180 65" fill="none" xmlns="http://www.w3.org/2000/svg">
<path d="M165.952 38.2529C165.583 36.0189 164.705 34.8399 162.749 34.8399C160.198 34.8399 159.46 37.0109 159.404 38.2529H165.952ZM169.723 43.0319C168.588 46.8179 166.18 48.4329 162.861 48.4329C158.24 48.4329 155.378 44.9569 155.378 39.9899C155.378 35.1809 158.41 31.5189 162.861 31.5189C167.851 31.5189 170.263 36.1109 169.977 41.0459H159.404C159.516 43.8399 160.765 45.1109 163.005 45.1109C164.186 45.1109 165.201 44.5299 165.76 43.8299C166.13 43.3459 166.712 43.0319 167.368 43.0319H169.723ZM149.374 39.7803C149.374 37.1733 148.553 34.8453 145.944 34.8453C143.676 34.8453 142.684 37.0163 142.684 39.4083C142.684 41.7043 143.478 44.2173 145.944 44.2173C148.24 44.2173 149.374 42.0773 149.374 39.7803ZM150.666 33.1683C151.357 32.1363 152.24 31.5173 153.202 31.5173V46.9803C153.202 49.6183 152.352 54.0873 145.603 54.0873C142.712 54.0873 139.339 52.5973 139.141 48.9343H141.794C142.525 48.9343 143.167 49.3243 143.52 49.9063C144.079 50.8083 145.053 51.1373 146.143 51.1373C148.383 51.1373 149.403 49.4643 149.374 47.1663V45.0553H149.318C148.439 46.7323 146.682 47.5393 144.923 47.5393C140.529 47.5393 138.658 43.9143 138.658 39.5073C138.658 34.6563 141.512 31.5173 145.916 31.5173C147.826 31.5173 149.444 32.1083 150.666 33.1683ZM131.452 40.4204V47.9954H127.424V31.5154C127.424 31.5154 128.812 31.3124 130.232 33.5294C130.907 32.6874 132.673 31.5154 134.923 31.5154C137.641 31.5154 139.098 32.8494 139.098 32.8494C139.098 32.8494 138.548 33.6714 138.077 34.6224C137.62 35.5484 137.242 36.5504 137.242 36.5504C137.242 36.5504 136.247 35.6294 135.038 35.6294C133.829 35.6294 131.452 36.6534 131.452 40.4204ZM117.766 31.5186C122.387 31.5186 125.364 34.8696 125.364 39.9916C125.364 45.0806 122.387 48.4306 117.766 48.4306C113.174 48.4306 110.198 45.0806 110.198 39.9916C110.198 34.8696 113.174 31.5186 117.766 31.5186ZM117.766 45.1126C120.515 45.1126 121.338 42.5356 121.338 39.9916C121.338 37.4146 120.515 34.8386 117.766 34.8386C115.045 34.8386 114.223 37.4146 114.223 39.9916C114.223 42.5356 115.045 45.1126 117.766 45.1126ZM104.103 38.2529C103.734 36.0189 102.856 34.8399 100.899 34.8399C98.3479 34.8399 97.6099 37.0109 97.5539 38.2529H104.103ZM107.874 43.0319C106.74 46.8179 104.331 48.4329 101.013 48.4329C96.3909 48.4329 93.5279 44.9569 93.5279 39.9899C93.5279 35.1809 96.5609 31.5189 101.013 31.5189C106.002 31.5189 108.413 36.1109 108.127 41.0459H97.5539C97.6659 43.8399 98.9149 45.1109 101.154 45.1109C102.336 45.1109 103.352 44.5299 103.911 43.8299C104.279 43.3459 104.862 43.0319 105.519 43.0319H107.874ZM87.6624 39.7803C87.6624 37.1733 86.8424 34.8453 84.2324 34.8453C81.9654 34.8453 80.9724 37.0163 80.9724 39.4083C80.9724 41.7043 81.7664 44.2173 84.2324 44.2173C86.5294 44.2173 87.6624 42.0773 87.6624 39.7803ZM88.9554 33.1683C89.6464 32.1363 90.5294 31.5173 91.4904 31.5173V46.9803C91.4904 49.6183 90.6414 54.0873 83.8924 54.0873C81.0024 54.0873 77.6284 52.5973 77.4294 48.9343H80.0834C80.8164 48.9343 81.4574 49.3243 81.8084 49.9063C82.3674 50.8083 83.3414 51.1373 84.4324 51.1373C86.6724 51.1373 87.6914 49.4643 87.6624 47.1663V45.0553H87.6074C86.7284 46.7323 84.9704 47.5393 83.2134 47.5393C78.8184 47.5393 76.9474 43.9143 76.9474 39.5073C76.9474 34.6563 79.8024 31.5173 84.2054 31.5173C86.1154 31.5173 87.7344 32.1083 88.9554 33.1683ZM76.2786 46.2178C76.2786 47.4408 75.2826 48.4338 74.0506 48.4338C72.8236 48.4338 71.8266 47.4408 71.8266 46.2178C71.8266 44.9948 72.8236 44.0028 74.0506 44.0028C75.2826 44.0028 76.2786 44.9948 76.2786 46.2178ZM56.8763 36.6397C56.1053 36.6397 55.4383 36.2097 55.0983 35.5777C54.6473 34.7267 53.7083 34.4677 52.6233 34.4677C51.7153 34.4677 50.3833 34.6537 50.3833 35.9557C50.3833 37.5387 52.6503 37.7547 54.9473 38.3457C57.3013 38.9357 59.5973 39.8677 59.5973 42.8477C59.5973 47.0677 56.2513 48.4327 52.9063 48.4327C49.5043 48.4327 46.1883 47.0357 46.0163 42.7837H49.8443C49.8723 44.7077 51.3463 45.4847 52.9363 45.4847C54.0973 45.4847 55.5703 44.9877 55.5703 43.4357C55.5703 42.1007 53.8983 41.6367 51.0063 40.9527C48.6823 40.3947 46.3553 39.4937 46.3553 36.6697C46.3553 32.5737 49.5893 31.5187 52.7343 31.5187C55.9393 31.5187 58.8893 32.6987 59.1993 36.6397H56.8763ZM67.1038 31.9531H70.0528V32.8981C70.0528 34.0051 69.1508 34.9011 68.0398 34.9011H67.1038V42.8481C67.1038 44.3361 67.4448 44.7091 68.8048 44.7091C69.2308 44.7091 69.6268 44.6771 70.0528 44.5851V48.0281C69.3718 48.1531 68.4948 48.1831 67.6998 48.1831C65.2328 48.1831 63.0788 47.5621 63.0788 44.3651V34.9011H60.6398V33.9561C60.6398 32.8491 61.5418 31.9531 62.6528 31.9531H63.0788V27.1411H65.0898C66.2038 27.1411 67.1038 28.0401 67.1038 29.1441V31.9531Z" fill="#E30000"/>
<path d="M40.473 45.298C42.295 48.219 45.602 50.337 48.91 50.816C54.789 51.561 60.397 48.735 66.268 50.911C69.025 51.905 71.338 53.547 72.797 55.927C71.637 55.406 70.815 55.025 69.307 54.547C66.736 53.743 64.526 54.018 61.949 54.461C56.983 55.171 52.01 56.787 47.236 54.471C43.569 52.734 41.376 49.077 40.473 45.298Z" fill="#FFCD00"/>
<path d="M34.139 22.4717C34.49 24.0487 34.164 25.5247 33.906 27.4327C33.684 29.0757 34.207 30.6037 35.698 31.0757C36.93 31.4647 39.681 31.3707 41.625 33.0297C42.207 33.6097 42.385 33.7617 42.502 34.6397C42.577 35.1817 42.498 35.8047 42.385 36.2817C41.887 37.7267 41.393 39.0077 40.565 40.0387C39.239 41.5797 37.869 42.9157 36.106 43.4997C32.783 44.6027 30.799 41.3057 28.23 39.8567C27.082 39.2477 25.752 38.8117 24.67 39.9417C22.928 41.6177 23.201 44.2657 24.09 46.1687C25.887 49.6367 29.578 52.7797 32.174 55.3197C27.533 56.5307 22.895 57.7427 18.237 56.4367C16.084 55.8307 14.059 53.1187 13.125 51.0197C11.556 47.5867 10.516 39.4967 2.38101 33.8147C6.41001 34.3017 8.04101 34.7037 10.66 32.9577C11.237 32.5457 11.41 31.8297 11.369 31.1897C10.971 28.4657 8.73901 27.0117 7.18301 25.1137C8.28101 25.5157 9.39101 25.8017 10.618 25.9497C12.355 26.1577 13.871 25.7917 15.305 24.9417C20.037 22.1287 14.584 15.6547 14.584 15.6547C14.584 15.6547 19.578 19.2127 22.705 18.7247C23.768 18.4777 24.479 18.1647 25.045 17.2027C26.412 14.8867 27.652 12.5037 28.66 10.0807C28.508 12.3267 28.143 14.6427 28.74 16.7517C29.313 18.7577 31.067 19.1587 32.662 20.2747C33.321 20.7137 33.856 21.2007 34.139 22.4717Z" fill="#78BE20"/>
<path d="M25.5145 25.3712C24.7105 26.5052 24.9415 28.1432 26.3455 28.3052C27.1995 28.3422 28.2425 27.9172 28.5455 27.0202C28.8505 26.1302 28.4475 25.3552 27.7775 24.7672C27.0315 24.3022 26.0565 24.6032 25.5145 25.3712Z" fill="white"/>
<path d="M7.32451 27.2559C8.43551 27.8809 9.64351 28.7259 10.6015 29.7069C11.6705 30.8039 13.1115 33.5109 11.2795 35.5859C10.5745 36.3749 9.41851 36.7469 8.31451 36.7889C6.66051 36.8979 4.48251 36.2679 3.26651 35.3559C3.53351 35.3509 7.25251 36.0559 9.03351 35.1529C9.59751 34.8679 10.2585 34.1099 9.85251 32.5339C9.32451 30.4729 7.38151 28.9319 4.13551 26.8689C3.75551 26.6269 3.48851 26.1629 3.33051 25.6299C3.33051 25.6299 5.29951 26.1159 7.32451 27.2559ZM10.8411 27.8252C11.9761 28.8732 13.5221 29.0572 14.7771 28.2002C16.1121 27.2922 16.0691 25.0262 15.7811 23.7012C14.9831 20.0212 12.9801 16.8162 10.3101 15.2732C11.6351 18.1272 13.2521 21.1972 13.7771 24.2752C13.9001 24.9952 13.9941 25.8022 13.7181 26.3632C13.0601 27.7202 10.5081 26.8342 9.23011 26.1692C9.70711 26.7752 10.8411 27.8252 10.8411 27.8252ZM19.3192 18.9766C21.5922 18.7056 21.6292 16.5446 21.9462 14.8576C22.2342 13.3306 22.9262 11.8826 23.9842 10.5556C24.7582 9.58163 25.2022 9.21263 25.8792 8.39063C27.3972 6.54663 28.4312 5.99963 28.4312 5.99963C28.4312 5.99963 25.1192 11.2936 24.4202 13.9176C23.7952 16.2466 24.4982 18.9746 21.9382 20.4856C19.7442 21.6496 17.5802 20.6466 16.0652 19.3966C15.2292 18.6866 14.7542 17.9806 14.4712 16.8566C15.9182 17.8026 17.2542 19.2246 19.3192 18.9766ZM28.1165 18.3535C29.0725 19.3945 30.3245 19.7145 31.5175 20.5195C32.6155 21.2595 33.3165 22.0085 33.7005 23.1965C34.2015 24.8975 33.3685 26.7045 33.4745 28.5395C33.6425 31.5615 35.7435 31.4365 38.4825 31.5325C40.0665 31.5895 42.9295 32.9025 42.6135 35.2555C42.4845 36.2255 42.3375 36.8645 41.7065 37.5145C41.0475 38.0565 40.2385 38.2675 39.6055 37.7875C40.9335 37.3455 41.3735 36.8665 41.4885 35.5155C41.5545 34.7715 41.0785 34.0295 40.8105 33.7875C40.2695 33.2975 39.4935 32.6255 37.5435 32.6865C36.0355 32.7305 34.7825 32.7565 33.3775 31.7655C32.6645 31.2615 32.4025 30.8165 32.0125 30.0695C31.1275 28.1665 32.2735 25.9775 32.0545 24.0745C31.9515 23.1185 30.8775 22.0415 29.9705 21.4495C28.5215 20.5005 26.9765 20.0285 26.0665 18.3615C24.7675 15.9775 25.8785 12.9575 27.4515 10.5685C27.3905 13.2265 26.1815 16.2595 28.1165 18.3535ZM29.0731 27.6358C29.9311 26.6108 29.4971 25.2728 28.2911 24.7118C27.6431 24.3948 26.8161 24.3548 26.0521 24.5348C25.8211 24.5888 25.2401 24.6998 24.9711 25.2308C25.2561 25.1398 25.8131 24.9878 26.2391 24.9738C26.9081 24.9598 27.0861 25.2348 27.0861 25.2348C27.0861 25.2348 26.2061 25.4748 25.9561 26.2388C25.7461 26.8768 25.9971 27.5658 26.4731 27.8758C27.1721 28.5578 28.4351 28.4018 29.0731 27.6358ZM16.7093 27.0801C17.6453 25.7901 18.5983 24.5921 19.7033 23.5671C19.6213 24.6901 19.0843 25.7461 18.6483 26.7711C16.1563 31.9881 14.0843 35.5381 13.2933 42.4381C12.5353 49.0571 14.0543 52.3141 15.0743 53.8421C15.4203 54.3821 15.1473 55.4951 14.6153 56.1271C13.9053 56.9761 12.1703 55.9931 12.1703 55.9931C12.1703 55.9931 11.8553 55.1501 11.5633 54.3651C10.9453 52.1581 10.5583 49.9791 10.4593 47.5991C10.1393 40.3511 12.2093 33.2991 16.7093 27.0801ZM32.598 36.6113C35.027 38.4373 37.615 39.4523 40.195 40.4633C39.864 41.4573 39.62 41.5933 38.881 42.2723C37.094 41.7703 35.223 40.9663 33.941 39.7443C32.247 38.2203 30.989 36.9263 30.371 34.7163C31.262 35.1903 31.786 36.0043 32.598 36.6113ZM27.0526 38.3545C29.6246 38.7845 30.5976 40.3705 32.3086 41.9925C33.7016 43.1735 35.2516 44.0865 37.1666 43.6685C36.8476 45.2015 35.0706 45.5195 33.4536 45.2825C30.7856 44.8585 30.2226 42.7575 28.4626 40.9265C27.2786 39.6755 25.0836 39.8525 23.7846 41.4895C22.0356 43.6095 23.7796 47.1995 25.1936 48.9105C26.6746 50.7025 27.9606 51.9665 29.4556 53.4475C29.4556 53.4475 31.5426 55.4825 32.6936 56.9155C28.5156 54.7925 25.6706 52.9555 22.7306 49.2585C21.3306 47.4985 21.0546 45.9825 20.9686 44.1455C21.0356 42.4785 21.1956 41.2485 22.3296 39.8795C23.5606 38.3925 25.2086 38.0425 27.1856 38.3755" fill="#004833"/>
<path d="M38.2327 35.1085C37.6977 35.2865 37.2807 35.8695 37.3987 36.3775C37.6467 36.9595 38.3437 37.0675 38.9217 36.6515C39.1077 36.4755 39.2677 36.2005 39.3297 35.9615C39.3357 35.5185 39.0337 35.1765 38.5457 35.0055C38.4397 35.0385 38.3387 35.0735 38.2327 35.1085Z" fill="white"/>
<path d="M38.7523 34.582C39.0743 34.577 39.4003 34.734 39.6113 34.933C39.9513 35.249 39.8223 35.853 39.4513 36.199C38.9753 36.578 38.4333 36.65 37.9983 36.24C37.6953 35.895 37.6813 35.352 38.0333 34.904C38.2013 34.693 38.4153 34.586 38.7523 34.582ZM9.25421 39.8545C9.88121 41.0325 10.1292 41.6545 9.92021 43.1815C9.79321 44.1015 9.12521 44.6235 8.51721 45.0175C8.51721 45.0175 9.08021 43.0285 8.30421 41.4835C7.06321 39.0115 6.06221 39.1445 1.12521 37.2935C0.631207 37.1085 -0.00979288 36.3455 0.000207124 36.2265C0.0102071 36.1065 3.97321 36.7905 6.00021 37.3795C7.13521 37.7085 8.68521 38.7805 9.25421 39.8545Z" fill="#004833"/>
</svg>
