<svg width="122" height="44" viewBox="0 0 122 44" fill="none" xmlns="http://www.w3.org/2000/svg">
<g clip-path="url(#clip0_110_224)">
<path d="M93.3241 15.2735C93.5841 16.4485 93.3431 17.5465 93.1501 18.9695C92.9861 20.1935 93.3751 21.3325 94.4801 21.6835C95.3941 21.9745 97.4351 21.9045 98.8781 23.1395C99.3081 23.5715 99.4411 23.6855 99.5291 24.3385C99.5821 24.7435 99.5251 25.2085 99.4411 25.5625C99.0701 26.6395 98.7051 27.5945 98.0911 28.3625C97.1071 29.5115 96.0921 30.5055 94.7831 30.9415C92.3181 31.7635 90.8451 29.3065 88.9411 28.2265C88.0891 27.7735 87.1011 27.4485 86.3001 28.2895C85.0091 29.5385 85.2091 31.5125 85.8711 32.9295C87.2031 35.5135 89.9411 37.8555 91.8671 39.7475C88.4241 40.6505 84.9821 41.5525 81.5271 40.5805C79.9311 40.1285 78.4281 38.1085 77.7361 36.5445C76.5721 33.9865 75.8011 27.9585 69.7651 23.7245C72.7551 24.0865 73.9661 24.3875 75.9081 23.0855C76.3341 22.7795 76.4631 22.2465 76.4331 21.7685C76.1371 19.7395 74.4821 18.6565 73.3281 17.2415C74.1421 17.5415 74.9661 17.7535 75.8771 17.8645C77.1641 18.0185 78.2891 17.7475 79.3531 17.1135C82.8631 15.0175 78.8181 10.1935 78.8181 10.1935C78.8181 10.1935 82.5231 12.8455 84.8431 12.4815C85.6311 12.2965 86.1581 12.0645 86.5781 11.3475C87.5921 9.62153 88.5121 7.84653 89.2591 6.04053C89.1461 7.71353 88.8751 9.44053 89.3181 11.0115C89.7441 12.5055 91.0451 12.8055 92.2271 13.6355C92.7171 13.9625 93.1131 14.3255 93.3241 15.2735Z" fill="#78BE20"/>
<path d="M73.4335 18.838C74.2575 19.303 75.1535 19.933 75.8635 20.663C76.6565 21.481 77.7255 23.497 76.3675 25.045C75.8435 25.633 74.9865 25.909 74.1675 25.941C72.9405 26.022 71.3255 25.553 70.4235 24.872C70.6205 24.869 73.3785 25.395 74.7005 24.723C75.1195 24.51 75.6095 23.944 75.3085 22.772C74.9155 21.234 73.4755 20.087 71.0675 18.55C70.7855 18.369 70.5875 18.023 70.4685 17.627C70.4685 17.627 71.9295 17.988 73.4335 18.838Z" fill="#004833"/>
<path d="M98.0214 32.2812C99.3734 34.4573 101.827 36.0363 104.281 36.3923C108.642 36.9472 112.802 34.8412 117.157 36.4632C119.202 37.2042 120.917 38.4272 122 40.2002C121.14 39.8122 120.53 39.5282 119.412 39.1722C117.503 38.5732 115.865 38.7772 113.953 39.1082C110.269 39.6372 106.58 40.8412 103.039 39.1152C100.319 37.8212 98.6934 35.0963 98.0214 32.2812Z" fill="#FFCD00"/>
<path d="M86.9266 17.4326C86.3296 18.2786 86.5016 19.4986 87.5426 19.6196C88.1756 19.6476 88.9506 19.3296 89.1756 18.6626C89.4016 17.9986 89.1026 17.4216 88.6056 16.9846C88.0516 16.6356 87.3276 16.8626 86.9266 17.4326Z" fill="white"/>
<path d="M76.0409 19.2617C76.8829 20.0427 78.0299 20.1797 78.9609 19.5417C79.9509 18.8657 79.9199 17.1757 79.7069 16.1907C79.1139 13.4477 77.6289 11.0597 75.6479 9.9097C76.6309 12.0357 77.8299 14.3247 78.2199 16.6167C78.3109 17.1537 78.3809 17.7537 78.1759 18.1727C77.6879 19.1827 75.7949 18.5247 74.8469 18.0287C75.2009 18.4807 76.0409 19.2617 76.0409 19.2617ZM82.3309 12.669C84.0179 12.468 84.0439 10.857 84.2789 9.6C84.4919 8.463 85.0059 7.384 85.7909 6.395C86.3649 5.669 86.6949 5.394 87.1969 4.78C88.3219 3.407 89.0909 3 89.0909 3C89.0909 3 86.6329 6.944 86.1149 8.899C85.6499 10.635 86.1729 12.668 84.2729 13.793C82.6459 14.659 81.0409 13.913 79.9159 12.981C79.2969 12.452 78.9429 11.927 78.7339 11.089C79.8089 11.794 80.7989 12.853 82.3309 12.669ZM88.8563 12.2041C89.5653 12.9801 90.4943 13.2191 91.3783 13.8181C92.1933 14.3691 92.7123 14.9281 92.9983 15.8131C93.3713 17.0801 92.7533 18.4281 92.8313 19.7951C92.9563 22.0461 94.5133 21.9521 96.5463 22.0241C97.7203 22.0661 99.8453 23.0461 99.6113 24.7991C99.5153 25.5211 99.4053 25.9961 98.9373 26.4811C98.4483 26.8861 97.8473 27.0431 97.3783 26.6841C98.3653 26.3551 98.6903 25.9981 98.7763 24.9921C98.8243 24.4371 98.4703 23.8851 98.2733 23.7041C97.8713 23.3401 97.2963 22.8401 95.8493 22.8841C94.7313 22.9161 93.8003 22.9351 92.7593 22.1971C92.2303 21.8221 92.0363 21.4901 91.7463 20.9331C91.0893 19.5161 91.9393 17.8861 91.7783 16.4681C91.7023 15.7551 90.9043 14.9521 90.2323 14.5121C89.1573 13.8051 88.0093 13.4521 87.3353 12.2111C86.3723 10.4341 87.1963 8.1831 88.3643 6.4031C88.3183 8.3851 87.4213 10.6441 88.8563 12.2041ZM89.5663 19.1211C90.2033 18.3551 89.8803 17.3601 88.9863 16.9421C88.5053 16.7061 87.8913 16.6761 87.3263 16.8091C87.1533 16.8501 86.7223 16.9331 86.5233 17.3291C86.7343 17.2621 87.1473 17.1471 87.4623 17.1371C87.9613 17.1271 88.0913 17.3321 88.0913 17.3321C88.0913 17.3321 87.4393 17.5101 87.2533 18.0791C87.0983 18.5561 87.2843 19.0691 87.6363 19.2991C88.1563 19.8081 89.0913 19.6901 89.5663 19.1211ZM80.3944 18.7071C81.0874 17.7461 81.7944 16.8531 82.6154 16.0891C82.5544 16.9261 82.1574 17.7131 81.8334 18.4771C79.9844 22.3641 78.4474 25.0091 77.8614 30.1491C77.2984 35.0811 78.4234 37.5091 79.1814 38.6461C79.4384 39.0501 79.2354 39.8791 78.8414 40.3501C78.3154 40.9811 77.0274 40.2501 77.0274 40.2501C77.0274 40.2501 76.7924 39.6221 76.5774 39.0371C76.1194 37.3931 75.8324 35.7691 75.7574 33.9951C75.5214 28.5961 77.0564 23.3411 80.3944 18.7071ZM92.1805 25.8086C93.9825 27.1686 95.9015 27.9256 97.8155 28.6776C97.5705 29.4196 97.3905 29.5206 96.8415 30.0266C95.5155 29.6526 94.1265 29.0536 93.1755 28.1426C91.9195 27.0076 90.9875 26.0436 90.5295 24.3966C91.1895 24.7496 91.5775 25.3556 92.1805 25.8086ZM88.0663 27.1075C89.9743 27.4275 90.6973 28.6095 91.9653 29.8175C93.0003 30.6975 94.1483 31.3785 95.5703 31.0675C95.3343 32.2095 94.0133 32.4465 92.8143 32.2695C90.8373 31.9535 90.4183 30.3875 89.1133 29.0235C88.2343 28.0905 86.6073 28.2235 85.6423 29.4435C84.3453 31.0235 85.6383 33.6975 86.6873 34.9725C87.7873 36.3075 88.7413 37.2495 89.8493 38.3535C89.8493 38.3535 91.3983 39.8695 92.2513 40.9375C89.1523 39.3565 87.0423 37.9865 84.8613 35.2325C83.8223 33.9195 83.6183 32.7915 83.5543 31.4215C83.6033 30.1795 83.7223 29.2635 84.5643 28.2435C85.4763 27.1355 86.6993 26.8755 88.1663 27.1235" fill="#004833"/>
<path d="M96.3602 24.6885C95.9632 24.8215 95.6552 25.2555 95.7412 25.6335C95.9252 26.0675 96.4432 26.1485 96.8722 25.8385C97.0092 25.7075 97.1292 25.5015 97.1732 25.3245C97.1792 24.9935 96.9542 24.7405 96.5932 24.6125C96.5152 24.6365 96.4392 24.6625 96.3602 24.6885Z" fill="white"/>
<path d="M96.746 24.296C96.986 24.293 97.226 24.41 97.384 24.558C97.635 24.793 97.541 25.244 97.264 25.502C96.912 25.784 96.509 25.838 96.185 25.532C95.963 25.275 95.951 24.87 96.213 24.537C96.337 24.38 96.496 24.299 96.746 24.296ZM74.8641 28.2247C75.3301 29.1027 75.5131 29.5657 75.3581 30.7037C75.2631 31.3887 74.7691 31.7777 74.3171 32.0717C74.3171 32.0717 74.7351 30.5897 74.1591 29.4387C73.2391 27.5977 72.4961 27.6957 68.8341 26.3177C68.4681 26.1787 67.9931 25.6107 68.0001 25.5217C68.0081 25.4317 70.9471 25.9417 72.4511 26.3817C73.2931 26.6267 74.4421 27.4247 74.8641 28.2247Z" fill="#004833"/>
</g>
<defs>
<clipPath id="clip0_110_224">
<rect width="122" height="44" fill="white"/>
</clipPath>
</defs>
</svg>
