<svg width="180" height="65" viewBox="0 0 180 65" fill="none" xmlns="http://www.w3.org/2000/svg">
<path d="M175.952 38.2529C175.583 36.0189 174.704 34.8399 172.748 34.8399C170.197 34.8399 169.459 37.0109 169.403 38.2529H175.952ZM179.723 43.0319C178.588 46.8179 176.18 48.4329 172.861 48.4329C168.24 48.4329 165.377 44.9569 165.377 39.9899C165.377 35.1809 168.41 31.5189 172.861 31.5189C177.851 31.5189 180.262 36.1109 179.976 41.0459H169.403C169.515 43.8399 170.764 45.1109 173.004 45.1109C174.185 45.1109 175.201 44.5299 175.76 43.8299C176.129 43.3459 176.711 43.0319 177.368 43.0319H179.723ZM159.374 39.7803C159.374 37.1733 158.553 34.8453 155.944 34.8453C153.676 34.8453 152.684 37.0163 152.684 39.4083C152.684 41.7043 153.478 44.2173 155.944 44.2173C158.24 44.2173 159.374 42.0773 159.374 39.7803ZM160.666 33.1683C161.357 32.1363 162.24 31.5173 163.202 31.5173V46.9803C163.202 49.6183 162.352 54.0873 155.603 54.0873C152.712 54.0873 149.339 52.5973 149.141 48.9343H151.794C152.525 48.9343 153.167 49.3243 153.52 49.9063C154.079 50.8083 155.053 51.1373 156.143 51.1373C158.383 51.1373 159.403 49.4643 159.374 47.1663V45.0553H159.318C158.439 46.7323 156.682 47.5393 154.923 47.5393C150.529 47.5393 148.658 43.9143 148.658 39.5073C148.658 34.6563 151.512 31.5173 155.916 31.5173C157.826 31.5173 159.444 32.1083 160.666 33.1683ZM141.451 40.4204V47.9954H137.424V31.5154C137.424 31.5154 138.812 31.3124 140.232 33.5294C140.906 32.6874 142.672 31.5154 144.922 31.5154C147.64 31.5154 149.097 32.8494 149.097 32.8494C149.097 32.8494 148.547 33.6714 148.077 34.6224C147.62 35.5484 147.241 36.5504 147.241 36.5504C147.241 36.5504 146.246 35.6294 145.037 35.6294C143.828 35.6294 141.451 36.6534 141.451 40.4204ZM127.766 31.5186C132.387 31.5186 135.364 34.8696 135.364 39.9916C135.364 45.0806 132.387 48.4306 127.766 48.4306C123.174 48.4306 120.198 45.0806 120.198 39.9916C120.198 34.8696 123.174 31.5186 127.766 31.5186ZM127.766 45.1126C130.515 45.1126 131.338 42.5356 131.338 39.9916C131.338 37.4146 130.515 34.8386 127.766 34.8386C125.045 34.8386 124.223 37.4146 124.223 39.9916C124.223 42.5356 125.045 45.1126 127.766 45.1126ZM114.103 38.2529C113.734 36.0189 112.856 34.8399 110.899 34.8399C108.348 34.8399 107.61 37.0109 107.554 38.2529H114.103ZM117.874 43.0319C116.74 46.8179 114.331 48.4329 111.013 48.4329C106.391 48.4329 103.528 44.9569 103.528 39.9899C103.528 35.1809 106.561 31.5189 111.013 31.5189C116.002 31.5189 118.413 36.1109 118.127 41.0459H107.554C107.666 43.8399 108.915 45.1109 111.154 45.1109C112.336 45.1109 113.352 44.5299 113.911 43.8299C114.279 43.3459 114.862 43.0319 115.519 43.0319H117.874ZM97.6623 39.7803C97.6623 37.1733 96.8423 34.8453 94.2323 34.8453C91.9653 34.8453 90.9723 37.0163 90.9723 39.4083C90.9723 41.7043 91.7663 44.2173 94.2323 44.2173C96.5293 44.2173 97.6623 42.0773 97.6623 39.7803ZM98.9553 33.1683C99.6463 32.1363 100.529 31.5173 101.49 31.5173V46.9803C101.49 49.6183 100.641 54.0873 93.8923 54.0873C91.0023 54.0873 87.6283 52.5973 87.4293 48.9343H90.0833C90.8163 48.9343 91.4573 49.3243 91.8083 49.9063C92.3673 50.8083 93.3413 51.1373 94.4323 51.1373C96.6723 51.1373 97.6913 49.4643 97.6623 47.1663V45.0553H97.6073C96.7283 46.7323 94.9703 47.5393 93.2133 47.5393C88.8183 47.5393 86.9473 43.9143 86.9473 39.5073C86.9473 34.6563 89.8023 31.5173 94.2053 31.5173C96.1153 31.5173 97.7343 32.1083 98.9553 33.1683ZM86.2785 46.2178C86.2785 47.4408 85.2825 48.4338 84.0505 48.4338C82.8235 48.4338 81.8265 47.4408 81.8265 46.2178C81.8265 44.9948 82.8235 44.0028 84.0505 44.0028C85.2825 44.0028 86.2785 44.9948 86.2785 46.2178ZM66.8762 36.6397C66.1052 36.6397 65.4382 36.2097 65.0982 35.5777C64.6472 34.7267 63.7082 34.4677 62.6232 34.4677C61.7152 34.4677 60.3832 34.6537 60.3832 35.9557C60.3832 37.5387 62.6502 37.7547 64.9472 38.3457C67.3012 38.9357 69.5972 39.8677 69.5972 42.8477C69.5972 47.0676 66.2512 48.4327 62.9062 48.4327C59.5042 48.4327 56.1882 47.0357 56.0162 42.7837H59.8442C59.8722 44.7077 61.3462 45.4847 62.9362 45.4847C64.0972 45.4847 65.5702 44.9877 65.5702 43.4357C65.5702 42.1007 63.8982 41.6367 61.0062 40.9527C58.6822 40.3947 56.3552 39.4937 56.3552 36.6697C56.3552 32.5737 59.5892 31.5187 62.7342 31.5187C65.9392 31.5187 68.8892 32.6987 69.1992 36.6397H66.8762ZM77.1037 31.9531H80.0527V32.8981C80.0527 34.0051 79.1507 34.9011 78.0397 34.9011H77.1037V42.8481C77.1037 44.3361 77.4447 44.7091 78.8047 44.7091C79.2307 44.7091 79.6267 44.677 80.0527 44.5851V48.0281C79.3717 48.1531 78.4947 48.1831 77.6997 48.1831C75.2327 48.1831 73.0787 47.5621 73.0787 44.3651V34.9011H70.6397V33.9561C70.6397 32.8491 71.5417 31.9531 72.6527 31.9531H73.0787V27.1411H75.0897C76.2037 27.1411 77.1037 28.0401 77.1037 29.1441V31.9531Z" fill="#E30000"/>
<path d="M50.4729 45.2979C52.2949 48.2189 55.6019 50.3368 58.9099 50.8158C64.7889 51.5608 70.3969 48.7349 76.2679 50.9109C79.0249 51.9049 81.3379 53.5468 82.7969 55.9268C81.6369 55.4058 80.8149 55.0249 79.3069 54.5469C76.7359 53.7429 74.5259 54.0178 71.9489 54.4608C66.9829 55.1708 62.0099 56.7869 57.2359 54.4709C53.5689 52.7339 51.3759 49.0769 50.4729 45.2979Z" fill="#FFCD00"/>
<path d="M44.1389 22.4717C44.4899 24.0487 44.1639 25.5247 43.9059 27.4327C43.6839 29.0757 44.2069 30.6037 45.6979 31.0757C46.9299 31.4647 49.6809 31.3707 51.6249 33.0297C52.2069 33.6097 52.3849 33.7617 52.5019 34.6397C52.5769 35.1817 52.4979 35.8047 52.3849 36.2817C51.8869 37.7267 51.3929 39.0077 50.5649 40.0387C49.2389 41.5797 47.8689 42.9157 46.1059 43.4997C42.7829 44.6027 40.7989 41.3057 38.2299 39.8567C37.0819 39.2477 35.7519 38.8117 34.6699 39.9417C32.9279 41.6177 33.2009 44.2657 34.0899 46.1687C35.8869 49.6367 39.5779 52.7797 42.1739 55.3197C37.5329 56.5307 32.8949 57.7427 28.2369 56.4367C26.0839 55.8307 24.0589 53.1187 23.1249 51.0197C21.5559 47.5867 20.5159 39.4967 12.3809 33.8147C16.4099 34.3017 18.0409 34.7037 20.6599 32.9577C21.2369 32.5457 21.4099 31.8297 21.3689 31.1897C20.9709 28.4657 18.7389 27.0117 17.1829 25.1137C18.2809 25.5157 19.3909 25.8017 20.6179 25.9497C22.3549 26.1577 23.8709 25.7917 25.3049 24.9417C30.0369 22.1287 24.5839 15.6547 24.5839 15.6547C24.5839 15.6547 29.5779 19.2127 32.7049 18.7247C33.7679 18.4777 34.4789 18.1647 35.0449 17.2027C36.4119 14.8867 37.6519 12.5037 38.6599 10.0807C38.5079 12.3267 38.1429 14.6427 38.7399 16.7517C39.3129 18.7577 41.0669 19.1587 42.6619 20.2747C43.3209 20.7137 43.8559 21.2007 44.1389 22.4717Z" fill="#78BE20"/>
<path d="M35.5144 25.3711C34.7104 26.5051 34.9414 28.1431 36.3454 28.3051C37.1994 28.3421 38.2424 27.9171 38.5454 27.0201C38.8504 26.1301 38.4474 25.3551 37.7774 24.7671C37.0314 24.3021 36.0564 24.6031 35.5144 25.3711Z" fill="white"/>
<path d="M17.3244 27.2559C18.4354 27.8809 19.6434 28.7259 20.6014 29.7069C21.6704 30.8039 23.1114 33.5109 21.2794 35.5859C20.5744 36.3749 19.4184 36.7469 18.3144 36.7889C16.6604 36.8979 14.4824 36.2679 13.2664 35.3559C13.5334 35.3509 17.2524 36.0559 19.0334 35.1529C19.5974 34.8679 20.2584 34.1099 19.8524 32.5339C19.3244 30.4729 17.3814 28.9319 14.1354 26.8689C13.7554 26.6269 13.4884 26.1629 13.3304 25.6299C13.3304 25.6299 15.2994 26.1159 17.3244 27.2559ZM20.841 27.8252C21.976 28.8732 23.522 29.0572 24.777 28.2002C26.112 27.2922 26.069 25.0262 25.781 23.7012C24.983 20.0212 22.98 16.8162 20.31 15.2732C21.635 18.1272 23.252 21.1972 23.777 24.2752C23.9 24.9952 23.994 25.8022 23.718 26.3632C23.06 27.7202 20.508 26.8342 19.23 26.1692C19.707 26.7752 20.841 27.8252 20.841 27.8252ZM29.3191 18.9766C31.5921 18.7056 31.6291 16.5446 31.9461 14.8576C32.2341 13.3306 32.9261 11.8826 33.9841 10.5556C34.7581 9.58157 35.2021 9.21257 35.8791 8.39057C37.3971 6.54657 38.4311 5.99957 38.4311 5.99957C38.4311 5.99957 35.1191 11.2936 34.4201 13.9176C33.7951 16.2466 34.4981 18.9746 31.9381 20.4856C29.7441 21.6496 27.5801 20.6466 26.0651 19.3966C25.2291 18.6866 24.7541 17.9806 24.4711 16.8566C25.9181 17.8026 27.2541 19.2246 29.3191 18.9766ZM38.1164 18.3535C39.0724 19.3945 40.3244 19.7145 41.5174 20.5195C42.6154 21.2595 43.3164 22.0085 43.7004 23.1965C44.2014 24.8975 43.3684 26.7045 43.4744 28.5395C43.6424 31.5615 45.7434 31.4365 48.4824 31.5325C50.0664 31.5895 52.9294 32.9025 52.6134 35.2555C52.4844 36.2255 52.3374 36.8645 51.7064 37.5145C51.0474 38.0565 50.2384 38.2675 49.6054 37.7875C50.9334 37.3455 51.3734 36.8665 51.4884 35.5155C51.5544 34.7715 51.0784 34.0295 50.8104 33.7875C50.2694 33.2975 49.4934 32.6255 47.5434 32.6865C46.0354 32.7305 44.7824 32.7565 43.3774 31.7655C42.6644 31.2615 42.4024 30.8165 42.0124 30.0695C41.1274 28.1665 42.2734 25.9775 42.0544 24.0745C41.9514 23.1185 40.8774 22.0415 39.9704 21.4495C38.5214 20.5005 36.9764 20.0285 36.0664 18.3615C34.7674 15.9775 35.8784 12.9575 37.4514 10.5685C37.3904 13.2265 36.1814 16.2595 38.1164 18.3535ZM39.073 27.6358C39.931 26.6108 39.497 25.2728 38.291 24.7118C37.643 24.3948 36.816 24.3548 36.052 24.5348C35.821 24.5888 35.24 24.6998 34.971 25.2308C35.256 25.1398 35.813 24.9878 36.239 24.9738C36.908 24.9598 37.086 25.2348 37.086 25.2348C37.086 25.2348 36.206 25.4748 35.956 26.2388C35.746 26.8768 35.997 27.5658 36.473 27.8758C37.172 28.5578 38.435 28.4018 39.073 27.6358ZM26.7092 27.0801C27.6452 25.7901 28.5982 24.5921 29.7032 23.5671C29.6212 24.6901 29.0842 25.7461 28.6482 26.7711C26.1562 31.9881 24.0842 35.5381 23.2932 42.4381C22.5352 49.0571 24.0542 52.3141 25.0742 53.8421C25.4202 54.3821 25.1472 55.4951 24.6152 56.1271C23.9052 56.9761 22.1702 55.9931 22.1702 55.9931C22.1702 55.9931 21.8552 55.1501 21.5632 54.3651C20.9452 52.1581 20.5582 49.9791 20.4592 47.5991C20.1392 40.3511 22.2092 33.2991 26.7092 27.0801ZM42.5979 36.6113C45.0269 38.4373 47.6149 39.4523 50.1949 40.4633C49.8639 41.4573 49.6199 41.5933 48.8809 42.2723C47.0939 41.7703 45.2229 40.9663 43.9409 39.7443C42.2469 38.2203 40.9889 36.9263 40.3709 34.7163C41.2619 35.1903 41.7859 36.0043 42.5979 36.6113ZM37.0525 38.3545C39.6245 38.7845 40.5975 40.3705 42.3085 41.9925C43.7015 43.1735 45.2515 44.0865 47.1665 43.6685C46.8475 45.2015 45.0705 45.5195 43.4535 45.2825C40.7855 44.8585 40.2225 42.7575 38.4625 40.9265C37.2785 39.6755 35.0835 39.8525 33.7845 41.4895C32.0355 43.6095 33.7795 47.1995 35.1935 48.9105C36.6745 50.7025 37.9605 51.9665 39.4555 53.4475C39.4555 53.4475 41.5425 55.4825 42.6935 56.9155C38.5155 54.7925 35.6705 52.9555 32.7305 49.2585C31.3305 47.4985 31.0545 45.9825 30.9685 44.1455C31.0355 42.4785 31.1955 41.2485 32.3295 39.8795C33.5605 38.3925 35.2085 38.0425 37.1855 38.3755" fill="#004833"/>
<path d="M48.2326 35.1084C47.6976 35.2864 47.2806 35.8694 47.3986 36.3774C47.6466 36.9594 48.3436 37.0674 48.9216 36.6514C49.1076 36.4754 49.2676 36.2004 49.3296 35.9614C49.3356 35.5184 49.0336 35.1764 48.5456 35.0054C48.4396 35.0384 48.3386 35.0734 48.2326 35.1084Z" fill="white"/>
<path d="M48.7522 34.582C49.0742 34.577 49.4002 34.734 49.6112 34.933C49.9512 35.249 49.8222 35.853 49.4512 36.199C48.9752 36.578 48.4332 36.65 47.9982 36.24C47.6952 35.895 47.6812 35.352 48.0332 34.904C48.2012 34.693 48.4152 34.586 48.7522 34.582ZM19.2541 39.8545C19.8811 41.0325 20.1291 41.6545 19.9201 43.1815C19.7931 44.1015 19.1251 44.6235 18.5171 45.0175C18.5171 45.0175 19.0801 43.0285 18.3041 41.4835C17.0631 39.0115 16.0621 39.1445 11.1251 37.2935C10.6311 37.1085 9.99012 36.3455 10.0001 36.2265C10.0101 36.1065 13.9731 36.7905 16.0001 37.3795C17.1351 37.7085 18.6851 38.7805 19.2541 39.8545Z" fill="#004833"/>
</svg>
