<svg width="122" height="44" viewBox="0 0 122 44" fill="none" xmlns="http://www.w3.org/2000/svg">
<path d="M59.3241 15.2735C59.5841 16.4485 59.3431 17.5465 59.1501 18.9695C58.9861 20.1935 59.3751 21.3325 60.4801 21.6835C61.3941 21.9745 63.4351 21.9045 64.8781 23.1395C65.3081 23.5715 65.4411 23.6855 65.5291 24.3385C65.5821 24.7435 65.5251 25.2085 65.4411 25.5625C65.0701 26.6395 64.7051 27.5945 64.0911 28.3625C63.1071 29.5115 62.0921 30.5055 60.7831 30.9415C58.3181 31.7635 56.8451 29.3065 54.9411 28.2265C54.0891 27.7735 53.1011 27.4485 52.3001 28.2895C51.0091 29.5385 51.2091 31.5125 51.8711 32.9295C53.2031 35.5135 55.9411 37.8555 57.8671 39.7475C54.4241 40.6505 50.9821 41.5525 47.5271 40.5805C45.9311 40.1285 44.4281 38.1085 43.7361 36.5445C42.5721 33.9865 41.8011 27.9585 35.7651 23.7245C38.7551 24.0865 39.9661 24.3875 41.9081 23.0855C42.3341 22.7795 42.4631 22.2465 42.4331 21.7685C42.1371 19.7395 40.4821 18.6565 39.3281 17.2415C40.1421 17.5415 40.9661 17.7535 41.8771 17.8645C43.1641 18.0185 44.2891 17.7475 45.3531 17.1135C48.8631 15.0175 44.8181 10.1935 44.8181 10.1935C44.8181 10.1935 48.5231 12.8455 50.8431 12.4815C51.6311 12.2965 52.1581 12.0645 52.5781 11.3475C53.5921 9.62153 54.5121 7.84653 55.2591 6.04053C55.1461 7.71353 54.8751 9.44053 55.3181 11.0115C55.7441 12.5055 57.0451 12.8055 58.2271 13.6355C58.7171 13.9625 59.1131 14.3255 59.3241 15.2735Z" fill="#78BE20"/>
<path d="M39.4335 18.838C40.2575 19.303 41.1535 19.933 41.8635 20.663C42.6565 21.481 43.7255 23.497 42.3675 25.045C41.8435 25.633 40.9865 25.909 40.1675 25.941C38.9405 26.022 37.3255 25.553 36.4235 24.872C36.6205 24.869 39.3785 25.395 40.7005 24.723C41.1195 24.51 41.6095 23.944 41.3085 22.772C40.9155 21.234 39.4755 20.087 37.0675 18.55C36.7855 18.369 36.5875 18.023 36.4685 17.627C36.4685 17.627 37.9295 17.988 39.4335 18.838Z" fill="#004833"/>
<path d="M64.0214 32.2812C65.3734 34.4573 67.8274 36.0363 70.2814 36.3923C74.6424 36.9472 78.8024 34.8412 83.1574 36.4632C85.2024 37.2042 86.9174 38.4272 88.0004 40.2002C87.1404 39.8122 86.5304 39.5282 85.4124 39.1722C83.5034 38.5732 81.8654 38.7772 79.9534 39.1082C76.2694 39.6372 72.5804 40.8412 69.0394 39.1152C66.3194 37.8212 64.6934 35.0963 64.0214 32.2812Z" fill="#FFCD00"/>
<path d="M52.9266 17.4326C52.3296 18.2786 52.5016 19.4986 53.5426 19.6196C54.1756 19.6476 54.9506 19.3296 55.1756 18.6626C55.4016 17.9986 55.1026 17.4216 54.6056 16.9846C54.0516 16.6356 53.3276 16.8626 52.9266 17.4326Z" fill="white"/>
<path d="M42.0409 19.2617C42.8829 20.0427 44.0299 20.1797 44.9609 19.5417C45.9509 18.8657 45.9199 17.1757 45.7069 16.1907C45.1139 13.4477 43.6289 11.0597 41.6479 9.9097C42.6309 12.0357 43.8299 14.3247 44.2199 16.6167C44.3109 17.1537 44.3809 17.7537 44.1759 18.1727C43.6879 19.1827 41.7949 18.5247 40.8469 18.0287C41.2009 18.4807 42.0409 19.2617 42.0409 19.2617ZM48.3309 12.669C50.0179 12.468 50.0439 10.857 50.2789 9.6C50.4919 8.463 51.0059 7.384 51.7909 6.395C52.3649 5.669 52.6949 5.394 53.1969 4.78C54.3219 3.407 55.0909 3 55.0909 3C55.0909 3 52.6329 6.944 52.1149 8.899C51.6499 10.635 52.1729 12.668 50.2729 13.793C48.6459 14.659 47.0409 13.913 45.9159 12.981C45.2969 12.452 44.9429 11.927 44.7339 11.089C45.8089 11.794 46.7989 12.853 48.3309 12.669ZM54.8563 12.2041C55.5653 12.9801 56.4943 13.2191 57.3783 13.8181C58.1933 14.3691 58.7123 14.9281 58.9983 15.8131C59.3713 17.0801 58.7533 18.4281 58.8313 19.7951C58.9563 22.0461 60.5133 21.9521 62.5463 22.0241C63.7203 22.0661 65.8453 23.0461 65.6113 24.7991C65.5153 25.5211 65.4053 25.9961 64.9373 26.4811C64.4483 26.8861 63.8473 27.0431 63.3783 26.6841C64.3653 26.3551 64.6903 25.9981 64.7763 24.9921C64.8243 24.4371 64.4703 23.8851 64.2733 23.7041C63.8713 23.3401 63.2963 22.8401 61.8493 22.8841C60.7313 22.9161 59.8003 22.9351 58.7593 22.1971C58.2303 21.8221 58.0363 21.4901 57.7463 20.9331C57.0893 19.5161 57.9393 17.8861 57.7783 16.4681C57.7023 15.7551 56.9043 14.9521 56.2323 14.5121C55.1573 13.8051 54.0093 13.4521 53.3353 12.2111C52.3723 10.4341 53.1963 8.1831 54.3643 6.4031C54.3183 8.3851 53.4213 10.6441 54.8563 12.2041ZM55.5663 19.1211C56.2033 18.3551 55.8803 17.3601 54.9863 16.9421C54.5053 16.7061 53.8913 16.6761 53.3263 16.8091C53.1533 16.8501 52.7223 16.9331 52.5233 17.3291C52.7343 17.2621 53.1473 17.1471 53.4623 17.1371C53.9613 17.1271 54.0913 17.3321 54.0913 17.3321C54.0913 17.3321 53.4393 17.5101 53.2533 18.0791C53.0983 18.5561 53.2843 19.0691 53.6363 19.2991C54.1563 19.8081 55.0913 19.6901 55.5663 19.1211ZM46.3944 18.7071C47.0874 17.7461 47.7944 16.8531 48.6154 16.0891C48.5544 16.9261 48.1574 17.7131 47.8334 18.4771C45.9844 22.3641 44.4474 25.0091 43.8614 30.1491C43.2984 35.0811 44.4234 37.5091 45.1814 38.6461C45.4384 39.0501 45.2354 39.8791 44.8414 40.3501C44.3154 40.9811 43.0274 40.2501 43.0274 40.2501C43.0274 40.2501 42.7924 39.6221 42.5774 39.0371C42.1194 37.3931 41.8324 35.7691 41.7574 33.9951C41.5214 28.5961 43.0564 23.3411 46.3944 18.7071ZM58.1805 25.8086C59.9825 27.1686 61.9015 27.9256 63.8155 28.6776C63.5705 29.4196 63.3905 29.5206 62.8415 30.0266C61.5155 29.6526 60.1265 29.0536 59.1755 28.1426C57.9195 27.0076 56.9875 26.0436 56.5295 24.3966C57.1895 24.7496 57.5775 25.3556 58.1805 25.8086ZM54.0663 27.1075C55.9743 27.4275 56.6973 28.6095 57.9653 29.8175C59.0003 30.6975 60.1483 31.3785 61.5703 31.0675C61.3343 32.2095 60.0133 32.4465 58.8143 32.2695C56.8373 31.9535 56.4183 30.3875 55.1133 29.0235C54.2343 28.0905 52.6073 28.2235 51.6423 29.4435C50.3453 31.0235 51.6383 33.6975 52.6873 34.9725C53.7873 36.3075 54.7413 37.2495 55.8493 38.3535C55.8493 38.3535 57.3983 39.8695 58.2513 40.9375C55.1523 39.3565 53.0423 37.9865 50.8613 35.2325C49.8223 33.9195 49.6183 32.7915 49.5543 31.4215C49.6033 30.1795 49.7223 29.2635 50.5643 28.2435C51.4763 27.1355 52.6993 26.8755 54.1663 27.1235" fill="#004833"/>
<path d="M62.3602 24.6885C61.9632 24.8215 61.6552 25.2555 61.7412 25.6335C61.9252 26.0675 62.4432 26.1485 62.8722 25.8385C63.0092 25.7075 63.1292 25.5015 63.1732 25.3245C63.1792 24.9935 62.9542 24.7405 62.5932 24.6125C62.5152 24.6365 62.4392 24.6625 62.3602 24.6885Z" fill="white"/>
<path d="M62.746 24.296C62.986 24.293 63.226 24.41 63.384 24.558C63.635 24.793 63.541 25.244 63.264 25.502C62.912 25.784 62.509 25.838 62.185 25.532C61.963 25.275 61.951 24.87 62.213 24.537C62.337 24.38 62.496 24.299 62.746 24.296ZM40.8641 28.2247C41.3301 29.1027 41.5131 29.5657 41.3581 30.7037C41.2631 31.3887 40.7691 31.7777 40.3171 32.0717C40.3171 32.0717 40.7351 30.5897 40.1591 29.4387C39.2391 27.5977 38.4961 27.6957 34.8341 26.3177C34.4681 26.1787 33.9931 25.6107 34.0001 25.5217C34.0081 25.4317 36.9471 25.9417 38.4511 26.3817C39.2931 26.6267 40.4421 27.4247 40.8641 28.2247Z" fill="#004833"/>
</svg>
