<svg width="122" height="44" viewBox="0 0 122 44" fill="none" xmlns="http://www.w3.org/2000/svg">
<path d="M25.3243 15.2735C25.5843 16.4485 25.3433 17.5465 25.1503 18.9695C24.9863 20.1935 25.3753 21.3325 26.4803 21.6835C27.3943 21.9745 29.4353 21.9045 30.8783 23.1395C31.3083 23.5715 31.4413 23.6855 31.5293 24.3385C31.5823 24.7435 31.5253 25.2085 31.4413 25.5625C31.0703 26.6395 30.7053 27.5945 30.0913 28.3625C29.1073 29.5115 28.0923 30.5055 26.7833 30.9415C24.3183 31.7635 22.8453 29.3065 20.9413 28.2265C20.0893 27.7735 19.1013 27.4485 18.3003 28.2895C17.0093 29.5385 17.2093 31.5125 17.8713 32.9295C19.2033 35.5135 21.9413 37.8555 23.8673 39.7475C20.4243 40.6505 16.9823 41.5525 13.5273 40.5805C11.9313 40.1285 10.4283 38.1085 9.73629 36.5445C8.57229 33.9865 7.80129 27.9585 1.76529 23.7245C4.75529 24.0865 5.96629 24.3875 7.90829 23.0855C8.33429 22.7795 8.46329 22.2465 8.43329 21.7685C8.13729 19.7395 6.48229 18.6565 5.32829 17.2415C6.14229 17.5415 6.96629 17.7535 7.87729 17.8645C9.16429 18.0185 10.2893 17.7475 11.3533 17.1135C14.8633 15.0175 10.8183 10.1935 10.8183 10.1935C10.8183 10.1935 14.5233 12.8455 16.8433 12.4815C17.6313 12.2965 18.1583 12.0645 18.5783 11.3475C19.5923 9.62153 20.5123 7.84653 21.2593 6.04053C21.1463 7.71353 20.8753 9.44053 21.3183 11.0115C21.7443 12.5055 23.0453 12.8055 24.2273 13.6355C24.7173 13.9625 25.1133 14.3255 25.3243 15.2735Z" fill="#78BE20"/>
<path d="M5.43368 18.838C6.25768 19.303 7.15368 19.933 7.86368 20.663C8.65668 21.481 9.72567 23.497 8.36767 25.045C7.84367 25.633 6.98668 25.909 6.16768 25.941C4.94068 26.022 3.32568 25.553 2.42368 24.872C2.62068 24.869 5.37867 25.395 6.70068 24.723C7.11968 24.51 7.60968 23.944 7.30868 22.772C6.91568 21.234 5.47568 20.087 3.06768 18.55C2.78568 18.369 2.58768 18.023 2.46868 17.627C2.46868 17.627 3.92968 17.988 5.43368 18.838Z" fill="#004833"/>
<path d="M30.0216 32.2812C31.3736 34.4573 33.8276 36.0363 36.2816 36.3923C40.6426 36.9472 44.8026 34.8412 49.1576 36.4632C51.2026 37.2042 52.9176 38.4272 54.0006 40.2002C53.1406 39.8122 52.5306 39.5282 51.4126 39.1722C49.5036 38.5732 47.8656 38.7772 45.9536 39.1082C42.2696 39.6372 38.5806 40.8412 35.0396 39.1152C32.3196 37.8212 30.6936 35.0963 30.0216 32.2812Z" fill="#FFCD00"/>
<path d="M18.9268 17.4326C18.3298 18.2786 18.5018 19.4986 19.5428 19.6196C20.1758 19.6476 20.9508 19.3296 21.1758 18.6626C21.4018 17.9986 21.1028 17.4216 20.6058 16.9846C20.0518 16.6356 19.3278 16.8626 18.9268 17.4326Z" fill="white"/>
<path d="M8.04108 19.2617C8.88308 20.0427 10.0301 20.1797 10.9611 19.5417C11.9511 18.8657 11.9201 17.1757 11.7071 16.1907C11.1141 13.4477 9.62908 11.0597 7.64808 9.9097C8.63108 12.0357 9.83008 14.3247 10.2201 16.6167C10.3111 17.1537 10.3811 17.7537 10.1761 18.1727C9.68808 19.1827 7.79508 18.5247 6.84708 18.0287C7.20108 18.4807 8.04108 19.2617 8.04108 19.2617ZM14.3311 12.669C16.0181 12.468 16.0441 10.857 16.2791 9.6C16.4921 8.463 17.0061 7.384 17.7911 6.395C18.3651 5.669 18.6951 5.394 19.1971 4.78C20.3221 3.407 21.0911 3 21.0911 3C21.0911 3 18.6331 6.944 18.1151 8.899C17.6501 10.635 18.1731 12.668 16.2731 13.793C14.6461 14.659 13.0411 13.913 11.9161 12.981C11.2971 12.452 10.9431 11.927 10.7341 11.089C11.8091 11.794 12.7991 12.853 14.3311 12.669ZM20.8565 12.2041C21.5655 12.9801 22.4945 13.2191 23.3785 13.8181C24.1935 14.3691 24.7125 14.9281 24.9985 15.8131C25.3715 17.0801 24.7535 18.4281 24.8315 19.7951C24.9565 22.0461 26.5135 21.9521 28.5465 22.0241C29.7205 22.0661 31.8455 23.0461 31.6115 24.7991C31.5155 25.5211 31.4055 25.9961 30.9375 26.4811C30.4485 26.8861 29.8475 27.0431 29.3785 26.6841C30.3655 26.3551 30.6905 25.9981 30.7765 24.9921C30.8245 24.4371 30.4705 23.8851 30.2735 23.7041C29.8715 23.3401 29.2965 22.8401 27.8495 22.8841C26.7315 22.9161 25.8005 22.9351 24.7595 22.1971C24.2305 21.8221 24.0365 21.4901 23.7465 20.9331C23.0895 19.5161 23.9395 17.8861 23.7785 16.4681C23.7025 15.7551 22.9045 14.9521 22.2325 14.5121C21.1575 13.8051 20.0095 13.4521 19.3355 12.2111C18.3725 10.4341 19.1965 8.1831 20.3645 6.4031C20.3185 8.3851 19.4215 10.6441 20.8565 12.2041ZM21.5665 19.1211C22.2035 18.3551 21.8805 17.3601 20.9865 16.9421C20.5055 16.7061 19.8915 16.6761 19.3265 16.8091C19.1535 16.8501 18.7225 16.9331 18.5235 17.3291C18.7345 17.2621 19.1475 17.1471 19.4625 17.1371C19.9615 17.1271 20.0915 17.3321 20.0915 17.3321C20.0915 17.3321 19.4395 17.5101 19.2535 18.0791C19.0985 18.5561 19.2845 19.0691 19.6365 19.2991C20.1565 19.8081 21.0915 19.6901 21.5665 19.1211ZM12.3946 18.7071C13.0876 17.7461 13.7946 16.8531 14.6156 16.0891C14.5546 16.9261 14.1576 17.7131 13.8336 18.4771C11.9846 22.3641 10.4476 25.0091 9.86158 30.1491C9.29858 35.0811 10.4236 37.5091 11.1816 38.6461C11.4386 39.0501 11.2356 39.8791 10.8416 40.3501C10.3156 40.9811 9.02758 40.2501 9.02758 40.2501C9.02758 40.2501 8.79258 39.6221 8.57758 39.0371C8.11958 37.3931 7.83258 35.7691 7.75758 33.9951C7.52158 28.5961 9.05658 23.3411 12.3946 18.7071ZM24.1807 25.8086C25.9827 27.1686 27.9017 27.9256 29.8157 28.6776C29.5707 29.4196 29.3907 29.5206 28.8417 30.0266C27.5157 29.6526 26.1267 29.0536 25.1757 28.1426C23.9197 27.0076 22.9877 26.0436 22.5297 24.3966C23.1897 24.7496 23.5777 25.3556 24.1807 25.8086ZM20.0665 27.1075C21.9745 27.4275 22.6975 28.6095 23.9655 29.8175C25.0005 30.6975 26.1485 31.3785 27.5705 31.0675C27.3345 32.2095 26.0135 32.4465 24.8145 32.2695C22.8375 31.9535 22.4185 30.3875 21.1135 29.0235C20.2345 28.0905 18.6075 28.2235 17.6425 29.4435C16.3455 31.0235 17.6385 33.6975 18.6875 34.9725C19.7875 36.3075 20.7415 37.2495 21.8495 38.3535C21.8495 38.3535 23.3985 39.8695 24.2515 40.9375C21.1525 39.3565 19.0425 37.9865 16.8615 35.2325C15.8225 33.9195 15.6185 32.7915 15.5545 31.4215C15.6035 30.1795 15.7225 29.2635 16.5645 28.2435C17.4765 27.1355 18.6995 26.8755 20.1665 27.1235" fill="#004833"/>
<path d="M28.3604 24.6885C27.9634 24.8215 27.6554 25.2555 27.7414 25.6335C27.9254 26.0675 28.4434 26.1485 28.8724 25.8385C29.0094 25.7075 29.1294 25.5015 29.1734 25.3245C29.1794 24.9935 28.9544 24.7405 28.5934 24.6125C28.5154 24.6365 28.4394 24.6625 28.3604 24.6885Z" fill="white"/>
<path d="M28.7462 24.296C28.9862 24.293 29.2262 24.41 29.3842 24.558C29.6352 24.793 29.5412 25.244 29.2642 25.502C28.9122 25.784 28.5092 25.838 28.1852 25.532C27.9632 25.275 27.9512 24.87 28.2132 24.537C28.3372 24.38 28.4962 24.299 28.7462 24.296ZM6.86429 28.2247C7.33029 29.1027 7.51329 29.5657 7.35829 30.7037C7.26329 31.3887 6.76929 31.7777 6.31729 32.0717C6.31729 32.0717 6.73529 30.5897 6.15929 29.4387C5.23929 27.5977 4.49629 27.6957 0.83429 26.3177C0.46829 26.1787 -0.0067099 25.6107 0.000290096 25.5217C0.0082901 25.4317 2.94729 25.9417 4.45129 26.3817C5.29329 26.6267 6.44229 27.4247 6.86429 28.2247Z" fill="#004833"/>
</svg>
