<svg width="80" height="26" viewBox="0 0 80 26" fill="none" xmlns="http://www.w3.org/2000/svg">
<g clip-path="url(#clip0_2_429)">
<path d="M39.6248 0.453L34.2748 25.443H27.8118L33.1538 0.453H39.6238H39.6248ZM66.8148 16.585L70.2178 7.2L72.1818 16.585H66.8158H66.8148ZM74.0348 25.443H80.0078L74.7858 0.453H69.2728C68.0328 0.453 66.9828 1.171 66.5188 2.285L56.8258 25.443H63.6108L64.9568 21.711H73.2488L74.0358 25.444L74.0348 25.443ZM57.1578 17.283C57.1878 10.686 48.0428 10.32 48.1008 7.375C48.1228 6.479 48.9808 5.525 50.8388 5.282C51.7688 5.159 54.3268 5.068 57.2208 6.405L58.3528 1.1C56.7928 0.54 54.7958 0 52.3028 0C45.9128 0 41.4228 3.387 41.3808 8.256C41.3428 11.848 44.5938 13.861 47.0378 15.054C49.5578 16.282 50.4038 17.069 50.3948 18.162C50.3778 19.834 48.3798 20.574 46.5288 20.61C43.2748 20.66 41.3938 19.73 39.8888 19.03L38.7188 24.507C40.2288 25.2 43.0168 25.805 45.9018 25.837C52.6918 25.837 57.1358 22.477 57.1588 17.283H57.1578ZM30.3808 0.453L19.9128 25.443H13.0778L7.92281 5.5C7.61281 4.272 7.33881 3.824 6.39081 3.304C4.83081 2.46 2.26381 1.668 0.0078125 1.174L0.163813 0.454H11.1638C12.5618 0.454 13.8268 1.384 14.1438 3.001L16.8698 17.458L23.5938 0.453H30.3808Z" fill="#1A1F71"/>
</g>
<defs>
<clipPath id="clip0_2_429">
<rect width="80" height="26" fill="white" transform="translate(0.0078125)"/>
</clipPath>
</defs>
</svg>
