<svg width="80" height="37" viewBox="0 0 80 37" fill="none" xmlns="http://www.w3.org/2000/svg">
<g clip-path="url(#clip0_2_430)">
<path d="M0.0078125 37H80.0078V0H0.0078125" fill="#1A1F71"/>
<path d="M38.5348 7.92999L34.0748 28.784H28.6778L33.1358 7.92999H38.5358H38.5348ZM61.2278 21.392L64.0658 13.565L65.7058 21.392H61.2258H61.2278ZM67.2518 28.784H72.2338L67.8778 7.92999H63.2778C62.2408 7.92999 61.3648 8.53199 60.9778 9.45999L52.8878 28.784H58.5518L59.6758 25.669H66.5958L67.2518 28.783V28.784ZM53.1678 21.974C53.1898 16.469 45.5578 16.168 45.6078 13.706C45.6278 12.962 46.3438 12.162 47.8948 11.959C48.6688 11.859 50.8008 11.782 53.2178 12.892L54.1628 8.46599C52.8628 8.00599 51.1958 7.54599 49.1158 7.54599C43.7858 7.54599 40.0328 10.376 40.0008 14.44C39.9708 17.442 42.6808 19.12 44.7228 20.114C46.8248 21.144 47.5328 21.792 47.5228 22.707C47.5058 24.107 45.8428 24.724 44.2948 24.75C41.5808 24.793 40.0108 24.015 38.7528 23.43L37.7798 28.002C39.0398 28.585 41.3648 29.089 43.7738 29.115C49.4408 29.115 53.1468 26.313 53.1678 21.975V21.974ZM30.8218 7.92999L22.0878 28.784H16.3848L12.0808 12.142C11.8248 11.117 11.5958 10.742 10.8008 10.309C9.50281 9.60299 7.36081 8.94599 5.47281 8.53099L5.60481 7.92899H14.7878C15.9548 7.92899 17.0058 8.70599 17.2738 10.055L19.5438 22.118L25.1588 7.92799H30.8228L30.8218 7.92999Z" fill="white"/>
</g>
<defs>
<clipPath id="clip0_2_430">
<rect width="80" height="37" fill="white" transform="translate(0.0078125)"/>
</clipPath>
</defs>
</svg>
