<svg width="180" height="65" viewBox="0 0 180 65" fill="none" xmlns="http://www.w3.org/2000/svg">
<path fill-rule="evenodd" clip-rule="evenodd" d="M79.385 45.038C79.385 45.038 80.432 47.828 81.387 48H68.072C65.591 48 63.404 46.61 62.706 43.97L56.643 22.941C56.643 22.941 55.987 20.401 55 20.001H67.561C70.04 20.001 71.662 20.902 72.622 24.101L79.385 45.038ZM99.612 45.038L106.379 24.101C107.337 20.902 108.958 20.001 111.438 20.001H124C123.01 20.401 122.358 22.941 122.358 22.941L116.293 43.971C115.593 46.609 113.407 48.001 110.929 48.001H97.613C98.566 47.827 99.611 45.038 99.611 45.038H99.612ZM82 48V20H97V48H82Z" fill="#DA1710"/>
</svg>
