<svg width="122" height="44" viewBox="0 0 122 44" fill="none" xmlns="http://www.w3.org/2000/svg">
<path fill-rule="evenodd" clip-rule="evenodd" d="M68.515 30.778L73.643 15.075C74.368 12.677 75.598 12 77.478 12H87C86.252 12.301 85.757 14.206 85.757 14.206L81.159 29.977C80.628 31.957 78.97 33 77.092 33H67C67.723 32.87 68.516 30.778 68.516 30.778H68.515ZM53.482 30.778C53.482 30.778 54.275 32.87 55 33H44.908C43.027 33 41.37 31.957 40.84 29.977L36.244 14.207C36.244 14.207 35.748 12.3 35 12H44.52C46.399 12 47.628 12.677 48.356 15.075L53.482 30.778ZM55.5 33V12H66.5V33H55.5Z" fill="#DA1710"/>
</svg>
