<svg width="180" height="65" viewBox="0 0 180 65" fill="none" xmlns="http://www.w3.org/2000/svg">
<path fill-rule="evenodd" clip-rule="evenodd" d="M135.385 45.038C135.385 45.038 136.432 47.828 137.387 48H124.072C121.591 48 119.404 46.61 118.706 43.97L112.643 22.941C112.643 22.941 111.987 20.401 111 20.001H123.561C126.04 20.001 127.662 20.902 128.622 24.101L135.385 45.038ZM155.612 45.038L162.379 24.101C163.337 20.902 164.958 20.001 167.438 20.001H180C179.01 20.401 178.358 22.941 178.358 22.941L172.293 43.971C171.593 46.609 169.407 48.001 166.929 48.001H153.613C154.566 47.827 155.611 45.038 155.611 45.038H155.612ZM138 48V20H153V48H138Z" fill="#DA1710"/>
</svg>
