<svg width="122" height="44" viewBox="0 0 122 44" fill="none" xmlns="http://www.w3.org/2000/svg">
<path fill-rule="evenodd" clip-rule="evenodd" d="M103.515 30.778L108.643 15.075C109.368 12.677 110.598 12 112.478 12H122C121.252 12.301 120.757 14.206 120.757 14.206L116.159 29.977C115.628 31.957 113.97 33 112.092 33H102C102.723 32.87 103.516 30.778 103.516 30.778H103.515ZM88.482 30.778C88.482 30.778 89.275 32.87 90 33H79.908C78.027 33 76.37 31.957 75.84 29.977L71.244 14.207C71.244 14.207 70.748 12.3 70 12H79.52C81.399 12 82.628 12.677 83.356 15.075L88.482 30.778ZM90.5 33V12H101.5V33H90.5Z" fill="#DA1710"/>
</svg>
