<svg width="233" height="48" viewBox="0 0 233 48" fill="none" xmlns="http://www.w3.org/2000/svg">
<g clip-path="url(#clip0_1_270)">
<path fill-rule="evenodd" clip-rule="evenodd" d="M81 44H229V4H81V44ZM77 48H233V0H77V48ZM63.21 17.86C63.215 17.77 63.186 17.627 63.124 17.426C62.976 16.959 62.714 16.813 62.279 16.621C61.9751 16.4786 61.6477 16.3929 61.313 16.368C61.2026 16.3613 61.0918 16.3646 60.982 16.378C60.077 16.545 59.171 16.72 58.265 16.906C57.37 17.09 56.535 17.39 55.672 17.682C54.65 18.026 53.461 18.214 53.717 19.577C53.792 19.972 54.01 19.995 54.272 20.224C54.681 20.579 54.645 20.896 54.592 21.382C54.513 22.105 54.582 22.861 54.426 23.572C54.395 23.716 54.249 23.859 53.988 24.002C53.741 24.138 53.645 24.466 53.706 24.729C53.784 25.067 54.013 25.249 54.3 25.424C54.18 26.66 54.227 28.05 54.447 29.596C54.52 30.129 54.775 30.601 55.21 31.016C55.645 31.427 56.12 31.688 56.636 31.795C58.276 32.148 62.066 32.175 62.408 32.101C62.748 32.026 62.918 31.936 63.065 31.69C63.211 31.444 63.252 31.18 63.188 30.896C62.993 30.046 62.574 29.711 62.135 29.808C61.95 29.841 61.889 29.884 61.731 30.023C61.571 30.163 61.418 30.235 61.271 30.24C59.156 30.404 57.659 30.206 56.78 29.647C56.623 29.35 56.535 28.942 56.518 28.425C56.491 27.66 56.628 26.61 56.927 25.279C57.432 25.064 58.113 24.934 58.972 24.886C59.537 24.856 60.109 24.865 60.666 24.748C60.94 24.69 61.211 24.604 61.453 24.464C61.749 24.292 62.272 23.904 62.08 23.512C62.009 23.363 61.902 23.242 61.807 23.11C61.734 23.009 61.631 22.98 61.517 22.937C61.409 22.895 61.298 22.8612 61.185 22.836C60.938 22.783 60.6853 22.7619 60.433 22.773C60.158 22.783 59.73 22.843 59.15 22.951C58.568 23.061 58.14 23.121 57.867 23.131C57.5222 23.1486 57.1771 23.106 56.847 23.005C56.864 21.399 56.747 20.212 56.935 19.757C57.623 19.525 58.635 19.265 59.968 18.977C61.3 18.689 62.312 18.429 63.001 18.197C63.0617 18.1633 63.1129 18.1147 63.1496 18.0557C63.1864 17.9967 63.2075 17.9294 63.211 17.86H63.21ZM45.975 23.358C46.012 22.908 46.012 22.329 45.975 21.619C45.9361 21.0399 45.9088 20.4602 45.893 19.88C45.893 19.327 45.939 18.834 46.03 18.4C46.14 18.141 46.414 18.012 46.852 18.012C47.437 18.012 47.862 18.158 48.127 18.452C48.392 18.747 48.552 19.075 48.607 19.439C48.625 19.682 48.607 19.958 48.552 20.269C48.35 21.256 47.492 22.286 45.975 23.359V23.358ZM50.909 28.599C49.837 27.677 48.854 26.663 47.756 25.772C47.374 25.462 47.18 25.193 47.18 24.968C47.18 24.76 47.346 24.57 47.674 24.398C48.4717 23.9878 49.1656 23.4013 49.703 22.683C50.343 21.871 50.663 21.058 50.663 20.244C50.663 19.275 50.325 18.374 49.649 17.544C48.917 16.644 48.059 16.178 47.071 16.142C45.116 16.056 44.047 16.549 43.864 17.622C43.591 19.232 43.453 21.213 43.453 23.566V26.396C43.4425 27.5908 43.3968 28.7849 43.316 29.977L43.179 30.912C43.1149 31.2545 43.0781 31.6016 43.069 31.95C43.069 32.833 43.471 33.36 44.276 33.534C44.403 33.568 44.564 33.542 44.756 33.455C45.042 33.326 45.157 33.275 45.189 32.971C45.219 32.679 45.313 32.385 45.36 32.094C45.476 31.367 45.544 30.633 45.59 29.9C45.737 27.997 45.838 26.82 45.893 26.37C46.678 27.01 47.135 27.709 48.744 29.352C49.429 30.052 50.131 30.737 50.862 31.392C51.288 31.772 51.677 32.219 52.186 32.5C52.519 32.684 52.665 32.564 52.998 32.425C53.305 32.297 53.678 32.08 53.678 31.715C53.678 31.628 53.661 31.597 53.595 31.481C53.447 31.213 52.17 29.673 50.909 28.599ZM35.469 25.617C35.8777 24.1593 36.3532 22.7211 36.894 21.307C37.058 22 37.231 22.693 37.414 23.384C37.597 24.18 37.716 24.899 37.771 25.539C36.528 25.539 35.76 25.565 35.468 25.617H35.469ZM38.922 20.399C38.849 20.049 38.731 18.981 38.621 18.271C38.474 17.44 38.145 16.817 37.634 16.401C37.4385 16.2476 37.1965 16.1654 36.948 16.168C36.601 16.168 36.373 16.29 36.263 16.532C35.788 17.622 35.249 19.188 34.645 21.23C33.932 23.583 33.411 25.193 33.083 26.058C33.047 26.179 32.878 26.27 32.576 26.331C32.274 26.391 32.082 26.47 32 26.565C31.917 26.66 31.877 26.75 31.877 26.836C31.877 26.941 32.005 27.087 32.261 27.278C32.517 27.468 32.636 27.641 32.617 27.798C32.562 28.333 32.261 29.234 31.713 30.497C31.255 31.604 31.055 32.487 31.109 33.145C31.146 33.472 31.467 33.733 32.069 33.923C32.544 34.062 32.855 33.975 33.001 33.663C33.293 33.006 33.594 32.045 33.906 30.782C34.235 29.415 34.498 28.463 34.7 27.927C35.102 27.598 35.66 27.39 36.373 27.304C36.993 27.251 37.615 27.201 38.237 27.148C38.583 28.031 38.885 29.13 39.141 30.445C39.241 30.957 39.416 31.485 39.766 31.892C39.967 32.125 40.248 32.354 40.547 32.457C40.923 32.587 41.197 32.36 41.471 32.132C41.781 31.872 41.937 31.57 41.937 31.223C41.937 31.016 41.883 30.773 41.772 30.497C40.786 27.849 38.996 20.748 38.922 20.399ZM24.734 18.263C24.734 17.269 23.578 16.871 22.761 16.871C22.632 16.871 22.523 16.881 22.432 16.898C21.536 17.112 20.64 17.335 19.745 17.568C18.722 17.834 17.871 18.138 17.195 18.476C16.468 18.765 15.42 18.941 14.988 19.642C14.355 20.667 14.949 21.327 15.99 21.527C15.88 23.079 15.807 23.927 15.77 24.069C15.733 24.212 15.583 24.349 15.318 24.483C15.053 24.618 14.911 24.765 14.893 24.925C14.838 25.246 15.067 25.575 15.578 25.915C15.414 27.146 15.414 28.538 15.578 30.089C15.633 30.625 15.871 31.106 16.291 31.535C16.711 31.962 17.178 32.239 17.689 32.364C19.316 32.774 21.234 32.944 23.446 32.873C23.5813 32.8689 23.7135 32.8312 23.8307 32.7633C23.9478 32.6954 24.0462 32.5994 24.117 32.484C24.273 32.244 24.323 31.981 24.267 31.695C24.187 31.273 24.102 30.843 23.628 30.765C23.19 30.693 22.802 30.761 22.377 30.779C21.187 30.829 19.919 30.824 18.777 30.444C18.326 30.294 17.963 30.139 17.782 29.674C17.582 29.161 17.676 28.774 17.735 28.244C17.821 27.439 18.005 26.644 18.21 25.861C18.722 25.666 19.407 25.559 20.266 25.541C20.854 25.531 21.446 25.519 22.028 25.441C22.453 25.383 23.105 25.347 23.373 24.966C23.685 24.523 23.3 23.908 23.117 23.801C22.751 23.587 22.312 23.48 21.801 23.48C21.527 23.48 21.097 23.525 20.512 23.614C19.928 23.704 19.498 23.748 19.224 23.748C18.841 23.748 18.503 23.695 18.21 23.588C18.282 21.982 18.401 20.948 18.566 20.483C19.242 20.216 20.239 19.903 21.555 19.547C22.87 19.19 23.866 18.877 24.542 18.61C24.6008 18.5732 24.6493 18.522 24.6829 18.4613C24.7164 18.4006 24.734 18.3324 24.734 18.263ZM12.16 17.04C11.749 17.04 11.477 17.159 11.348 17.395C10.731 18.581 10.226 20.112 9.83399 21.99C9.51442 23.6011 9.20641 25.2145 8.90999 26.83C8.83499 26.502 8.63899 25.28 8.32099 23.166C8.20099 22.296 8.03799 21.425 7.77499 20.584C7.72029 20.4072 7.66026 20.2321 7.59499 20.059C7.54199 19.919 7.49299 19.696 7.39099 19.585C7.15099 19.32 6.61399 19.227 6.27599 19.227C5.56599 19.227 5.09899 19.647 4.87499 20.485C4.72499 21.179 4.02099 23.563 3.82499 24.41C3.62799 25.258 3.45499 25.837 3.30699 26.146C2.89499 21.716 2.38699 17.583 2.24099 17.204C2.09499 16.825 1.55899 16.52 1.03699 16.52C0.886986 16.52 0.588986 16.575 0.588986 16.575C0.588986 16.575 0.223986 16.703 0.111986 16.903C0.0571061 16.9971 0.0214251 17.1011 0.0070068 17.2091C-0.00741149 17.3171 -0.000280898 17.4268 0.0279861 17.532C0.363986 18.808 0.629986 20.832 0.826986 23.603C1.02199 26.375 1.28799 28.417 1.62499 29.729L1.96099 31.261C2.14799 31.844 2.60399 32.176 3.08099 32.246C3.55899 32.315 3.71599 32.336 3.86699 32.191C4.37199 31.716 4.80999 30.604 5.18399 28.854C5.61199 26.831 5.95799 25.564 6.22099 25.052C6.36899 26.092 6.52899 27.068 6.69599 27.979C7.03199 29.711 7.20999 30.622 7.22899 30.714C7.44199 31.834 8.02199 32.391 8.71399 32.738C8.89899 32.828 9.11499 32.875 9.35699 32.875C9.88199 32.875 10.198 32.692 10.311 32.327C10.721 31.033 11.127 29.009 11.529 26.256C11.931 23.504 12.356 21.452 12.804 20.102C12.822 20.03 12.972 19.702 13.254 19.118C13.476 18.681 13.588 18.335 13.588 18.08C13.588 17.697 13.374 17.405 12.944 17.204C12.6986 17.0902 12.4304 17.0341 12.16 17.04Z" fill="black"/>
<path fill-rule="evenodd" clip-rule="evenodd" d="M205.192 25.89V18.403H209.512C212.261 18.403 214.139 19.669 214.139 22.093V22.136C214.139 24.406 212.217 25.89 209.382 25.89H205.192ZM204.059 32.63H205.192V26.936H209.316C212.503 26.936 215.273 25.276 215.273 22.07V22.026C215.273 19.082 212.961 17.357 209.599 17.357H204.059V32.63ZM193.783 32.873C197.491 32.873 200.043 30.535 200.043 26.15V17.357H198.91V26.284C198.91 29.97 196.924 31.846 193.824 31.846C190.594 31.846 188.652 29.773 188.652 26.172V17.357H187.518V26.284C187.518 30.559 190.116 32.873 193.783 32.873ZM176.703 31.866C172.927 31.866 170.177 28.769 170.177 24.992V24.95C170.177 21.175 172.885 18.12 176.659 18.12C180.433 18.12 183.183 21.218 183.183 24.992V25.038C183.183 28.814 180.478 31.866 176.703 31.866ZM176.659 32.893C181.283 32.893 184.362 29.163 184.362 24.993V24.95C184.362 20.782 181.326 17.094 176.703 17.094C172.078 17.094 168.999 20.826 168.999 24.992V25.038C168.999 29.206 172.034 32.893 176.659 32.893ZM155.799 25.277V18.403H161.011C163.783 18.403 165.398 19.693 165.398 21.742V21.787C165.398 23.99 163.5 25.277 160.948 25.277H155.8H155.799ZM154.663 32.63H155.8V26.304H160.794L165.661 32.63H167.1L162.06 26.107C164.635 25.758 166.533 24.297 166.533 21.742V21.7C166.537 20.6374 166.12 19.6165 165.374 18.86C164.459 17.945 162.953 17.357 161.079 17.357H154.663V32.63ZM144.907 32.893C147.393 32.893 149.532 31.823 150.907 30.603V24.71H144.711V25.757H149.817V30.142C148.702 31.082 146.892 31.887 144.95 31.887C140.868 31.887 138.403 28.943 138.403 24.991V24.949C138.403 21.261 141.001 18.119 144.711 18.119C147.023 18.119 148.418 18.904 149.621 19.951L150.362 19.103C148.834 17.835 147.264 17.093 144.775 17.093C140.215 17.093 137.225 20.867 137.225 24.991V25.037C137.225 29.337 140.084 32.892 144.907 32.892V32.893Z" fill="black"/>
<path fill-rule="evenodd" clip-rule="evenodd" d="M134 17C133.425 17.23 133.044 18.68 133.044 18.68L129.507 30.697C129.099 32.205 127.824 33 126.379 33H118.615C119.171 32.901 119.781 31.307 119.781 31.307L123.726 19.343C124.284 17.516 125.23 17 126.676 17H134ZM101.323 17C102.769 17 103.714 17.516 104.274 19.343L108.217 31.307C108.217 31.307 108.827 32.901 109.385 33H101.622C100.175 33 98.9 32.205 98.492 30.697L94.957 18.68C94.957 18.68 94.575 17.229 94 17H101.323ZM118.231 17V33H109.769V17H118.231Z" fill="#DA1710"/>
</g>
<defs>
<clipPath id="clip0_1_270">
<rect width="233" height="48" fill="white"/>
</clipPath>
</defs>
</svg>
