<svg width="213" height="28" viewBox="0 0 213 28" fill="none" xmlns="http://www.w3.org/2000/svg">
<g clip-path="url(#clip0_1_269)">
<path d="M194.435 15.545V2.45298H201.987C206.795 2.45298 210.079 4.66698 210.079 8.90398V8.98098C210.079 12.95 206.719 15.545 201.761 15.545H194.435ZM192.452 27.331H194.435V17.374H201.645C207.219 17.374 212.063 14.473 212.063 8.86598V8.78898C212.063 3.63898 208.02 0.623978 202.14 0.623978H192.452V27.331ZM174.483 27.756C180.967 27.756 185.431 23.668 185.431 16.001V0.623978H183.449V16.234C183.449 22.679 179.977 25.96 174.556 25.96C168.909 25.96 165.511 22.335 165.511 16.039V0.623978H163.529V16.234C163.529 23.71 168.072 27.756 174.483 27.756ZM144.618 25.995C138.014 25.995 133.205 20.579 133.205 13.975V13.902C133.205 7.29998 137.94 1.95898 144.541 1.95898C151.14 1.95898 155.948 7.37598 155.948 13.975V14.055C155.948 20.659 151.219 25.995 144.618 25.995ZM144.541 27.79C152.626 27.79 158.01 21.268 158.01 13.975V13.902C158.01 6.61398 152.701 0.164978 144.618 0.164978C136.529 0.164978 131.147 6.69098 131.147 13.975V14.055C131.147 21.345 136.452 27.79 144.541 27.79ZM108.065 14.473V2.45298H117.178C122.025 2.45298 124.849 4.70798 124.849 8.29198V8.37198C124.849 12.222 121.53 14.472 117.067 14.472H108.065V14.473ZM106.077 27.331H108.065V16.27H116.798L125.308 27.332H127.825L119.012 15.925C123.514 15.315 126.832 12.759 126.832 8.29298V8.21898C126.832 6.30898 126.071 4.51798 124.807 3.25498C123.207 1.65398 120.573 0.624978 117.297 0.624978H106.077V27.332V27.331ZM89.017 27.791C93.365 27.791 97.106 25.921 99.508 23.786V13.484H88.676V15.314H97.603V22.982C95.654 24.625 92.488 26.033 89.093 26.033C81.955 26.033 77.645 20.885 77.645 13.975V13.902C77.645 7.45198 82.188 1.95898 88.675 1.95898C92.718 1.95898 95.156 3.33098 97.262 5.16298L98.557 3.67798C95.884 1.46198 93.139 0.164978 88.787 0.164978C80.813 0.164978 75.584 6.76398 75.584 13.975V14.055C75.584 21.575 80.584 27.79 89.017 27.79V27.791Z" fill="black"/>
<path d="M12.561 0C15.04 0 16.662 0.902 17.622 4.101L24.385 25.038C24.385 25.038 25.432 27.828 26.387 28H13.072C10.591 28 8.404 26.61 7.706 23.97L1.643 2.941C1.643 2.941 0.987 0.401 0 0.001L12.561 0ZM69.001 0C68.011 0.401 67.359 2.941 67.359 2.941L61.294 23.971C60.594 26.609 58.408 28.001 55.93 28.001H42.613C43.566 27.827 44.611 25.038 44.611 25.038L51.38 4.101C52.338 0.902 53.959 0.001 56.439 0.001H69L69.001 0ZM42 0V28H27V0H42Z" fill="#DA1710"/>
</g>
<defs>
<clipPath id="clip0_1_269">
<rect width="213" height="28" fill="white"/>
</clipPath>
</defs>
</svg>
