<svg width="180" height="65" viewBox="0 0 180 65" fill="none" xmlns="http://www.w3.org/2000/svg">
<g clip-path="url(#clip0_110_528)">
<path d="M166.826 33.658V23.84H172.49C176.096 23.84 178.56 25.5 178.56 28.678V28.736C178.56 31.713 176.04 33.658 172.32 33.658H166.826ZM165.339 42.498H166.826V35.03H172.234C176.414 35.03 180.047 32.855 180.047 28.65V28.592C180.047 24.73 177.015 22.468 172.605 22.468H165.339V42.498ZM151.862 42.817C156.725 42.817 160.073 39.751 160.073 34.001V22.468H158.586V34.175C158.586 39.009 155.983 41.47 151.917 41.47C147.682 41.47 145.133 38.751 145.133 34.03V22.467H143.647V34.174C143.647 39.781 147.054 42.816 151.862 42.816V42.817ZM129.463 41.496C124.51 41.496 120.904 37.434 120.904 32.481V32.427C120.904 27.475 124.455 23.469 129.406 23.469C134.355 23.469 137.961 27.532 137.961 32.481V32.541C137.961 37.494 134.414 41.496 129.463 41.496ZM129.406 42.843C135.469 42.843 139.507 37.951 139.507 32.481V32.427C139.507 26.96 135.526 22.124 129.463 22.124C123.397 22.124 119.36 27.018 119.36 32.481V32.541C119.36 38.008 123.34 42.843 129.406 42.843ZM102.049 32.855V23.84H108.883C112.518 23.84 114.637 25.531 114.637 28.219V28.279C114.637 31.167 112.147 32.855 108.8 32.855H102.05H102.049ZM100.559 42.498H102.049V34.201H108.599L114.981 42.498H116.869L110.259 33.943C113.636 33.486 116.125 31.569 116.125 28.219V28.164C116.13 26.7707 115.583 25.4321 114.605 24.44C113.405 23.24 111.43 22.468 108.973 22.468H100.558V42.498H100.559ZM87.763 42.843C91.024 42.843 93.829 41.441 95.631 39.84V32.113H87.507V33.486H94.202V39.236C92.741 40.469 90.366 41.525 87.82 41.525C82.466 41.525 79.234 37.664 79.234 32.481V32.427C79.234 27.59 82.641 23.469 87.507 23.469C90.539 23.469 92.367 24.498 93.947 25.872L94.917 24.759C92.913 23.096 90.854 22.124 87.59 22.124C81.61 22.124 77.688 27.073 77.688 32.481V32.541C77.688 38.181 81.438 42.843 87.763 42.843Z" fill="black"/>
<path d="M73 22C72.251 22.301 71.756 24.206 71.756 24.206L67.158 39.977C66.628 41.957 64.97 43 63.092 43H53C53.723 42.87 54.516 40.778 54.516 40.778L59.644 25.075C60.368 22.677 61.598 22 63.478 22H73ZM30.52 22C32.399 22 33.628 22.677 34.356 25.075L39.482 40.778C39.482 40.778 40.275 42.87 41 43H30.908C29.027 43 27.37 41.957 26.84 39.977L22.244 24.206C22.244 24.206 21.748 22.301 21 22H30.52ZM52.5 22V43H41.5V22H52.5Z" fill="#DA1710"/>
</g>
<defs>
<clipPath id="clip0_110_528">
<rect width="180" height="65" fill="white"/>
</clipPath>
</defs>
</svg>
