<svg width="180" height="65" viewBox="0 0 180 65" fill="none" xmlns="http://www.w3.org/2000/svg">
<path d="M155.826 33.658V23.84H161.49C165.096 23.84 167.56 25.5 167.56 28.678V28.736C167.56 31.713 165.04 33.658 161.32 33.658H155.826ZM154.339 42.498H155.826V35.03H161.234C165.414 35.03 169.047 32.855 169.047 28.65V28.592C169.047 24.73 166.015 22.468 161.605 22.468H154.339V42.498ZM140.862 42.817C145.725 42.817 149.073 39.751 149.073 34.001V22.468H147.586V34.175C147.586 39.009 144.983 41.47 140.917 41.47C136.682 41.47 134.133 38.751 134.133 34.03V22.467H132.647V34.174C132.647 39.781 136.054 42.816 140.862 42.816V42.817ZM118.463 41.496C113.51 41.496 109.904 37.434 109.904 32.481V32.427C109.904 27.475 113.455 23.469 118.406 23.469C123.355 23.469 126.961 27.532 126.961 32.481V32.541C126.961 37.494 123.414 41.496 118.463 41.496ZM118.406 42.843C124.469 42.843 128.507 37.951 128.507 32.481V32.427C128.507 26.96 124.526 22.124 118.463 22.124C112.397 22.124 108.36 27.018 108.36 32.481V32.541C108.36 38.008 112.34 42.843 118.406 42.843ZM91.049 32.855V23.84H97.883C101.518 23.84 103.637 25.531 103.637 28.219V28.279C103.637 31.167 101.147 32.855 97.8 32.855H91.05H91.049ZM89.559 42.498H91.049V34.201H97.599L103.981 42.498H105.869L99.259 33.943C102.636 33.486 105.125 31.569 105.125 28.219V28.164C105.13 26.7707 104.583 25.4321 103.605 24.44C102.405 23.24 100.43 22.468 97.973 22.468H89.558V42.498H89.559ZM76.763 42.843C80.024 42.843 82.829 41.441 84.631 39.84V32.113H76.507V33.486H83.202V39.236C81.741 40.469 79.366 41.525 76.82 41.525C71.466 41.525 68.234 37.664 68.234 32.481V32.427C68.234 27.59 71.641 23.469 76.507 23.469C79.539 23.469 81.367 24.498 82.947 25.872L83.917 24.759C81.913 23.096 79.854 22.124 76.59 22.124C70.61 22.124 66.688 27.073 66.688 32.481V32.541C66.688 38.181 70.438 42.843 76.763 42.843Z" fill="black"/>
<path d="M62 22C61.251 22.301 60.756 24.206 60.756 24.206L56.158 39.977C55.628 41.957 53.97 43 52.092 43H42C42.723 42.87 43.516 40.778 43.516 40.778L48.644 25.075C49.368 22.677 50.598 22 52.478 22H62ZM19.52 22C21.399 22 22.628 22.677 23.356 25.075L28.482 40.778C28.482 40.778 29.275 42.87 30 43H19.908C18.027 43 16.37 41.957 15.84 39.977L11.244 24.206C11.244 24.206 10.748 22.301 10 22H19.52ZM41.5 22V43H30.5V22H41.5Z" fill="#DA1710"/>
</svg>
