<svg width="122" height="44" viewBox="0 0 122 44" fill="none" xmlns="http://www.w3.org/2000/svg">
<path d="M111.192 22.89V15.403H115.512C118.261 15.403 120.139 16.669 120.139 19.093V19.136C120.139 21.406 118.217 22.89 115.382 22.89H111.192ZM110.059 29.63H111.192V23.936H115.316C118.503 23.936 121.273 22.276 121.273 19.07V19.026C121.273 16.082 118.961 14.357 115.599 14.357H110.059V29.63ZM99.783 29.873C103.491 29.873 106.043 27.535 106.043 23.15V14.357H104.91V23.284C104.91 26.97 102.924 28.846 99.824 28.846C96.594 28.846 94.652 26.773 94.652 23.172V14.357H93.518V23.284C93.518 27.559 96.116 29.873 99.783 29.873ZM82.703 28.866C78.927 28.866 76.177 25.769 76.177 21.992V21.95C76.177 18.175 78.885 15.12 82.659 15.12C86.433 15.12 89.183 18.218 89.183 21.992V22.038C89.183 25.814 86.478 28.866 82.703 28.866ZM82.659 29.893C87.283 29.893 90.362 26.163 90.362 21.993V21.95C90.362 17.782 87.326 14.094 82.703 14.094C78.078 14.094 74.999 17.826 74.999 21.992V22.038C74.999 26.206 78.034 29.893 82.659 29.893ZM61.8 22.277V15.403H67.012C69.784 15.403 71.399 16.693 71.399 18.742V18.787C71.399 20.99 69.501 22.277 66.949 22.277H61.8ZM60.664 29.63H61.8V23.304H66.794L71.661 29.63H73.1L68.06 23.107C70.635 22.758 72.533 21.297 72.533 18.742V18.7C72.5368 17.6375 72.1201 16.6165 71.374 15.86C70.459 14.945 68.953 14.357 67.079 14.357H60.663V29.63H60.664ZM50.908 29.893C53.394 29.893 55.533 28.823 56.908 27.603V21.71H50.71V22.757H55.816V27.142C54.701 28.082 52.891 28.887 50.949 28.887C46.867 28.887 44.402 25.943 44.402 21.991V21.949C44.402 18.261 47 15.119 50.71 15.119C53.022 15.119 54.417 15.904 55.62 16.951L56.361 16.103C54.833 14.835 53.263 14.093 50.774 14.093C46.214 14.093 43.224 17.867 43.224 21.991V22.037C43.224 26.337 46.083 29.892 50.906 29.892L50.908 29.893Z" fill="black"/>
<path d="M40 14C39.425 14.23 39.044 15.68 39.044 15.68L35.507 27.697C35.099 29.205 33.824 30 32.379 30H24.615C25.171 29.901 25.781 28.307 25.781 28.307L29.726 16.343C30.284 14.516 31.23 14 32.676 14H40ZM7.323 14C8.769 14 9.714 14.516 10.274 16.343L14.217 28.307C14.217 28.307 14.827 29.901 15.385 30H7.622C6.175 30 4.9 29.205 4.492 27.697L0.957 15.68C0.957 15.68 0.575 14.229 0 14H7.323ZM24.231 14V30H15.77V14H24.232H24.231Z" fill="#DA1710"/>
</svg>
