<svg width="180" height="65" viewBox="0 0 180 65" fill="none" xmlns="http://www.w3.org/2000/svg">
<path d="M145.826 33.658V23.84H151.49C155.096 23.84 157.56 25.5 157.56 28.678V28.736C157.56 31.713 155.04 33.658 151.32 33.658H145.826ZM144.339 42.498H145.826V35.03H151.234C155.414 35.03 159.047 32.855 159.047 28.65V28.592C159.047 24.73 156.015 22.468 151.605 22.468H144.339V42.498ZM130.862 42.817C135.725 42.817 139.073 39.751 139.073 34.001V22.468H137.586V34.175C137.586 39.009 134.983 41.47 130.917 41.47C126.682 41.47 124.133 38.751 124.133 34.03V22.467H122.647V34.174C122.647 39.781 126.054 42.816 130.862 42.816V42.817ZM108.463 41.496C103.51 41.496 99.904 37.434 99.904 32.481V32.427C99.904 27.475 103.455 23.469 108.406 23.469C113.355 23.469 116.961 27.532 116.961 32.481V32.541C116.961 37.494 113.414 41.496 108.463 41.496ZM108.406 42.843C114.469 42.843 118.507 37.951 118.507 32.481V32.427C118.507 26.96 114.526 22.124 108.463 22.124C102.397 22.124 98.36 27.018 98.36 32.481V32.541C98.36 38.008 102.34 42.843 108.406 42.843ZM81.049 32.855V23.84H87.883C91.518 23.84 93.637 25.531 93.637 28.219V28.279C93.637 31.167 91.147 32.855 87.8 32.855H81.05H81.049ZM79.559 42.498H81.049V34.201H87.599L93.981 42.498H95.869L89.259 33.943C92.636 33.486 95.125 31.569 95.125 28.219V28.164C95.1297 26.7707 94.5834 25.4321 93.605 24.44C92.405 23.24 90.43 22.468 87.973 22.468H79.558V42.498H79.559ZM66.763 42.843C70.024 42.843 72.829 41.441 74.631 39.84V32.113H66.507V33.486H73.202V39.236C71.741 40.469 69.366 41.525 66.82 41.525C61.466 41.525 58.234 37.664 58.234 32.481V32.427C58.234 27.59 61.641 23.469 66.507 23.469C69.539 23.469 71.367 24.498 72.947 25.872L73.917 24.759C71.913 23.096 69.854 22.124 66.59 22.124C60.61 22.124 56.688 27.073 56.688 32.481V32.541C56.688 38.181 60.438 42.843 66.763 42.843Z" fill="black"/>
<path d="M52 22C51.251 22.301 50.756 24.206 50.756 24.206L46.158 39.977C45.628 41.957 43.97 43 42.092 43H32C32.723 42.87 33.516 40.778 33.516 40.778L38.644 25.075C39.368 22.677 40.598 22 42.478 22H52ZM9.52 22C11.399 22 12.628 22.677 13.356 25.075L18.482 40.778C18.482 40.778 19.275 42.87 20 43H9.908C8.027 43 6.37 41.957 5.84 39.977L1.244 24.206C1.244 24.206 0.748 22.301 0 22H9.52ZM31.5 22V43H20.5V22H31.5Z" fill="#DA1710"/>
</svg>
