<svg width="32" height="32" viewBox="0 0 32 32" fill="none" xmlns="http://www.w3.org/2000/svg">
<g clip-path="url(#clip0_1842_16)">
<path d="M30 0H2C0.89543 0 0 0.89543 0 2V30C0 31.1046 0.89543 32 2 32H30C31.1046 32 32 31.1046 32 30V2C32 0.89543 31.1046 0 30 0Z" fill="black"/>
<path d="M18.093 14.1624L26.283 4H24.3422L17.2308 12.8238L11.551 4H5L13.589 17.3432L5 28H6.94088L14.4507 18.6817L20.449 28H27L18.0925 14.1624H18.093ZM15.4347 17.4608L14.5644 16.1321L7.6402 5.55962H10.6213L16.2092 14.0919L17.0795 15.4206L24.3431 26.5113H21.3621L15.4347 17.4613V17.4608Z" fill="white"/>
</g>
<defs>
<clipPath id="clip0_1842_16">
<rect width="32" height="32" fill="white"/>
</clipPath>
</defs>
</svg>
