<svg width="32" height="32" viewBox="0 0 32 32" fill="none" xmlns="http://www.w3.org/2000/svg">
<g clip-path="url(#clip0_2_427)">
<path d="M30.0078 0H2.00781C0.903243 0 0.0078125 0.89543 0.0078125 2V30C0.0078125 31.1046 0.903243 32 2.00781 32H30.0078C31.1124 32 32.0078 31.1046 32.0078 30V2C32.0078 0.89543 31.1124 0 30.0078 0Z" fill="#0072C6"/>
<path fill-rule="evenodd" clip-rule="evenodd" d="M27.9578 17.994C24.9398 17.994 20.7048 17.656 20.3608 16.964C20.0168 16.262 26.8928 15.508 27.8508 15.506C27.9068 15.506 27.9608 15.506 28.0138 15.509C28.5478 15.626 28.9638 16.084 29.0038 16.659C29.0478 17.311 28.5898 17.883 27.9578 17.993V17.994ZM25.9578 24.456C25.6448 24.94 25.0608 25.142 24.5338 24.989C24.4878 24.963 24.4398 24.939 24.3888 24.909C23.5518 24.449 17.8868 20.479 18.5258 20.032C19.1618 19.587 23.0358 21.332 25.6828 22.782C26.1828 23.182 26.3108 23.904 25.9578 24.455V24.456ZM17.9328 7.70601L11.9098 22.732C10.8898 25.327 9.86981 27.105 6.78181 27.105C6.37181 27.105 5.91681 27.075 5.47181 26.998C4.85881 26.822 4.49681 26.186 4.66381 25.568C4.80981 25.026 5.31381 24.674 5.85381 24.702C5.89081 24.705 6.45381 24.739 6.61581 24.739C8.29081 24.739 9.02081 23.696 9.80781 21.472L4.20081 7.79301C3.97481 7.10001 4.32881 6.34601 5.01781 6.08701C5.68981 5.83501 6.43581 6.11901 6.73781 6.75701L11.1878 18H11.2548L15.4878 6.84001C15.7258 6.19401 16.4298 5.85601 17.0948 6.06801C17.7718 6.28501 18.1498 7.02501 17.9328 7.70601ZM24.3878 8.71601L24.5338 8.64001C25.0608 8.48701 25.6438 8.68701 25.9568 9.17201C26.3088 9.72201 26.1818 10.445 25.6808 10.846C23.0338 12.296 19.1608 14.039 18.5238 13.596C17.8838 13.146 23.5498 9.17801 24.3878 8.71601Z" fill="white"/>
</g>
<defs>
<clipPath id="clip0_2_427">
<rect width="32" height="32" fill="white" transform="translate(0.0078125)"/>
</clipPath>
</defs>
</svg>
