<svg width="32" height="32" viewBox="0 0 32 32" fill="none" xmlns="http://www.w3.org/2000/svg">
<g clip-path="url(#clip0_2_426)">
<path d="M30.0078 0H2.00781C0.903243 0 0.0078125 0.89543 0.0078125 2V30C0.0078125 31.1046 0.903243 32 2.00781 32H30.0078C31.1124 32 32.0078 31.1046 32.0078 30V2C32.0078 0.89543 31.1124 0 30.0078 0Z" fill="url(#paint0_linear_2_426)"/>
<path fill-rule="evenodd" clip-rule="evenodd" d="M13.5078 12.5L19.5078 17L20.0078 16" fill="black" fill-opacity="0.25"/>
<path fill-rule="evenodd" clip-rule="evenodd" d="M16.0028 7.5H16.0128C16.0128 7.5 21.0508 7.5 24.4098 7.744C24.8798 7.801 25.9018 7.806 26.8138 8.768C27.5338 9.501 27.7678 11.166 27.7678 11.166C27.7678 11.166 28.0078 13.122 28.0078 15.076V16.911C28.0078 18.867 27.7678 20.821 27.7678 20.821C27.7678 20.821 27.5338 22.488 26.8138 23.221C25.9018 24.183 24.8788 24.188 24.4098 24.244C21.0498 24.489 16.0078 24.497 16.0078 24.497C16.0078 24.497 9.76781 24.439 7.84781 24.254C7.31381 24.154 6.11481 24.184 5.20181 23.221C4.48181 22.488 4.24781 20.821 4.24781 20.821C4.24781 20.821 4.00781 18.867 4.00781 16.91V15.077C4.00781 13.122 4.24781 11.167 4.24781 11.167C4.24781 11.167 4.48181 9.501 5.20181 8.767C6.11481 7.807 7.13681 7.801 7.60581 7.744C10.9658 7.5 16.0028 7.5 16.0028 7.5ZM13.5078 12.5V19.5L20.0078 16L13.5078 12.5Z" fill="white"/>
</g>
<defs>
<linearGradient id="paint0_linear_2_426" x1="16.0078" y1="0" x2="16.0078" y2="32" gradientUnits="userSpaceOnUse">
<stop stop-color="#E52D27"/>
<stop offset="1" stop-color="#B31217"/>
</linearGradient>
<clipPath id="clip0_2_426">
<rect width="32" height="32" fill="white" transform="translate(0.0078125)"/>
</clipPath>
</defs>
</svg>
