<svg width="78" height="78" viewBox="0 0 78 78" fill="none" xmlns="http://www.w3.org/2000/svg">
<path fill-rule="evenodd" clip-rule="evenodd" d="M38.268 68.037C21.854 68.037 8.50002 54.683 8.50002 38.27C8.50002 21.857 21.854 8.502 38.268 8.502C54.681 8.502 68.036 21.855 68.036 38.269C68.036 54.683 54.68 68.037 38.268 68.037ZM65.437 20.895C59.697 11.947 49.666 6 38.267 6C20.477 6 6.00002 20.475 6.00002 38.268C5.99325 45.134 8.18955 51.8211 12.266 57.346C18.006 66.3 28.039 72.25 39.443 72.25C57.235 72.25 71.709 57.775 71.709 39.983C71.7151 33.1131 69.5167 26.4224 65.437 20.895Z" fill="#1F1C4F"/>
<path fill-rule="evenodd" clip-rule="evenodd" d="M56.1019 29.595L48.5069 22L46.3869 24.121L51.4709 29.207H21.3649V32.207H51.4719L46.3859 37.292L48.5069 39.413L56.1009 31.82C56.7149 31.205 56.7149 30.21 56.1019 29.596V29.595ZM56.1969 46.195H26.0909L31.1759 41.11L29.0539 38.989L21.4609 46.584C21.3148 46.7298 21.1988 46.9031 21.1196 47.0938C21.0405 47.2845 20.9998 47.489 20.9998 47.6955C20.9998 47.902 21.0405 48.1065 21.1196 48.2972C21.1988 48.4879 21.3148 48.6612 21.4609 48.807L29.0539 56.401L31.1759 54.28L26.0909 49.195H56.1969V46.195Z" fill="#DA1710"/>
</svg>
