<svg width="78" height="78" viewBox="0 0 78 78" fill="none" xmlns="http://www.w3.org/2000/svg">
<path fill-rule="evenodd" clip-rule="evenodd" d="M38.268 68.037C21.854 68.037 8.5 54.683 8.5 38.27C8.5 21.857 21.854 8.502 38.268 8.502C54.681 8.502 68.035 21.855 68.035 38.269C68.035 54.683 54.681 68.037 38.268 68.037ZM65.436 20.895C59.696 11.947 49.666 6 38.268 6C20.476 6 6 20.475 6 38.268C6 45.401 8.331 51.998 12.266 57.346C18.006 66.3 28.039 72.25 39.442 72.25C57.234 72.25 71.709 57.775 71.709 39.983C71.7152 33.1129 69.5164 26.4221 65.436 20.895Z" fill="#1F1C4F"/>
<path fill-rule="evenodd" clip-rule="evenodd" d="M49.2639 38.438L40.0209 47.679V21.07H36.5209V47.682L27.2779 38.439L24.9199 40.795L36.4069 52.28C36.9014 52.7741 37.5719 53.0517 38.2709 53.0517C38.97 53.0517 39.6404 52.7741 40.1349 52.28L51.6219 40.794L49.2639 38.438Z" fill="#DA1710"/>
</svg>
