<svg width="78" height="78" viewBox="0 0 78 78" fill="none" xmlns="http://www.w3.org/2000/svg">
<path fill-rule="evenodd" clip-rule="evenodd" d="M53.6376 53.8881C53.6376 51.7781 51.9276 50.0671 49.8166 50.0671C47.7066 50.0671 45.9956 51.7781 45.9956 53.8881C45.9956 55.2401 46.6996 56.4251 47.7596 57.1041V60.3541C47.7596 61.4911 48.6806 62.4111 49.8166 62.4111C50.9526 62.4111 51.8736 61.4911 51.8736 60.3541V57.1041C52.9336 56.4251 53.6376 55.2401 53.6376 53.8881Z" fill="#DA1710"/>
<path fill-rule="evenodd" clip-rule="evenodd" d="M11.4871 36.207H31.8081V33.207H11.4871V36.207Z" fill="#DA1710"/>
<path fill-rule="evenodd" clip-rule="evenodd" d="M11.4871 43.196H25.7851V40.196H11.4871V43.196Z" fill="#DA1710"/>
<path fill-rule="evenodd" clip-rule="evenodd" d="M68.9295 17.1381H6.49951V13.7821C6.49951 12.4941 7.54751 11.4471 8.83451 11.4471H66.5945C67.8815 11.4471 68.9295 12.4941 68.9295 13.7821V17.1381ZM68.9295 50.3331C68.9295 51.6201 67.8815 52.6681 66.5945 52.6681H64.0775V43.5261H59.8845V42.2801C59.8845 36.4991 55.3675 31.7961 49.8165 31.7961C44.2655 31.7961 39.7485 36.4991 39.7485 42.2801V43.5261H35.5555V52.6681H8.83451C7.54751 52.6681 6.49951 51.6201 6.49951 50.3331V27.2091H68.9295V50.3331ZM42.2485 43.5261V42.2801C42.2485 37.8781 45.6435 34.2961 49.8165 34.2961C53.9895 34.2961 57.3845 37.8781 57.3845 42.2801V43.5261H42.2485ZM61.5775 62.1501C61.5775 64.5221 59.6475 66.4521 57.2745 66.4521H42.3575C39.9855 66.4521 38.0545 64.5221 38.0545 62.1501V46.0261H61.5775V62.1501ZM73.2945 13.5951C71.5495 11.0341 68.7845 9.51309 68.7845 9.51309C68.7845 9.51309 68.7755 9.53309 68.7725 9.54209C68.1145 9.20709 67.3825 9.00009 66.5945 9.00009H8.83451C6.16851 9.00009 3.99951 11.1691 3.99951 13.8351V50.3861C3.99951 51.0571 4.13851 51.6971 4.38751 52.2791C4.41651 52.4711 4.52851 52.7301 4.77151 53.0911C6.51551 55.6721 9.30651 57.2071 9.30651 57.2071C9.30651 57.2071 9.31251 57.1911 9.31451 57.1881C10.0045 57.5671 10.7835 57.8021 11.6245 57.8021H35.5555V62.1501C35.5555 65.9011 38.6065 68.9521 42.3575 68.9521H57.2755C61.0265 68.9521 64.0775 65.9011 64.0775 62.1501V57.8021H69.3845C72.0515 57.8021 74.2205 55.6331 74.2205 52.9671V16.4161C74.2205 15.3611 73.8715 14.3911 73.2945 13.5951Z" fill="#1F1C4F"/>
</svg>
