<svg width="78" height="78" viewBox="0 0 78 78" fill="none" xmlns="http://www.w3.org/2000/svg">
<path fill-rule="evenodd" clip-rule="evenodd" d="M32.2895 38.1076H25.7015C25.5345 38.1076 25.3995 37.9726 25.3995 37.8056V31.3976C25.3995 31.2316 25.5345 31.0956 25.7015 31.0956H32.2895C32.4565 31.0956 32.5915 31.2316 32.5915 31.3976V37.8056C32.5915 37.9726 32.4565 38.1076 32.2895 38.1076ZM44.0453 38.1076H37.4573C37.2903 38.1076 37.1553 37.9726 37.1553 37.8056V31.3976C37.1553 31.2316 37.2903 31.0956 37.4573 31.0956H44.0453C44.2123 31.0956 44.3473 31.2316 44.3473 31.3976V37.8056C44.3473 37.9726 44.2123 38.1076 44.0453 38.1076ZM55.8012 38.1076H49.2132C49.0472 38.1076 48.9112 37.9726 48.9112 37.8056V31.3976C48.9112 31.2316 49.0472 31.0956 49.2132 31.0956H55.8012C55.9682 31.0956 56.1032 31.2316 56.1032 31.3976V37.8056C56.1032 37.9726 55.9682 38.1076 55.8012 38.1076ZM20.5331 49.5344H13.9451C13.7791 49.5344 13.6431 49.3994 13.6431 49.2324V42.8244C13.6431 42.6584 13.7791 42.5224 13.9451 42.5224H20.5331C20.7001 42.5224 20.8351 42.6584 20.8351 42.8244V49.2324C20.8351 49.3994 20.7001 49.5344 20.5331 49.5344ZM32.2895 49.5344H25.7015C25.5345 49.5344 25.3995 49.3994 25.3995 49.2324V42.8244C25.3995 42.6584 25.5345 42.5224 25.7015 42.5224H32.2895C32.4565 42.5224 32.5915 42.6584 32.5915 42.8244V49.2324C32.5915 49.3994 32.4565 49.5344 32.2895 49.5344ZM44.0453 49.5344H37.4573C37.2903 49.5344 37.1553 49.3994 37.1553 49.2324V42.8244C37.1553 42.6584 37.2903 42.5224 37.4573 42.5224H44.0453C44.2123 42.5224 44.3473 42.6584 44.3473 42.8244V49.2324C44.3473 49.3994 44.2123 49.5344 44.0453 49.5344ZM55.8012 49.5344H49.2132C49.0472 49.5344 48.9112 49.3994 48.9112 49.2324V42.8244C48.9112 42.6584 49.0472 42.5224 49.2132 42.5224H55.8012C55.9682 42.5224 56.1032 42.6584 56.1032 42.8244V49.2324C56.1032 49.3994 55.9682 49.5344 55.8012 49.5344ZM20.5331 60.6814H13.9451C13.7791 60.6814 13.6431 60.5464 13.6431 60.3794V53.9714C13.6431 53.8054 13.7791 53.6694 13.9451 53.6694H20.5331C20.7001 53.6694 20.8351 53.8054 20.8351 53.9714V60.3794C20.8351 60.5464 20.7001 60.6814 20.5331 60.6814ZM32.2895 60.6814H25.7015C25.5345 60.6814 25.3995 60.5464 25.3995 60.3794V53.9714C25.3995 53.8054 25.5345 53.6694 25.7015 53.6694H32.2895C32.4565 53.6694 32.5915 53.8054 32.5915 53.9714V60.3794C32.5915 60.5464 32.4565 60.6814 32.2895 60.6814Z" fill="#DA1710"/>
<path fill-rule="evenodd" clip-rule="evenodd" d="M61.1548 65.6721V65.6801H12.0888C10.1098 65.6801 8.49976 64.0711 8.49976 62.0921V26.0971H61.1548V60.9291C61.1798 64.3711 62.1378 65.6721 64.1338 65.6721H61.1548ZM8.49976 16.7971H12.8098V19.0181C12.8098 20.2631 13.8188 21.2731 15.0638 21.2731C16.3098 21.2731 17.3188 20.2631 17.3188 19.0181V16.7971H52.5078V19.0181C52.5078 20.2631 53.5168 21.2731 54.7618 21.2731C56.0068 21.2731 57.0168 20.2631 57.0168 19.0181V16.7971H61.1548V23.5971H8.49976V16.7971ZM63.6548 56.2941V14.2971H57.0168V12.2551C57.0168 11.0091 56.0068 10.0001 54.7618 10.0001C53.5168 10.0001 52.5078 11.0091 52.5078 12.2551V14.2971H17.3188V12.2551C17.3188 11.0091 16.3098 10.0001 15.0638 10.0001C13.8188 10.0001 12.8098 11.0091 12.8098 12.2551V14.2971H5.99976V62.0921C5.99976 65.4491 8.73176 68.1801 12.0888 68.1801H63.6548V68.1701H67.7998C70.6558 68.1701 72.9708 65.8551 72.9708 62.9991V56.2941H63.6548Z" fill="#1F1C4F"/>
</svg>
