<svg width="78" height="78" viewBox="0 0 78 78" fill="none" xmlns="http://www.w3.org/2000/svg">
<path fill-rule="evenodd" clip-rule="evenodd" d="M52.827 52H20.163L19 39H54L52.827 52Z" fill="#DA1710"/>
<path fill-rule="evenodd" clip-rule="evenodd" d="M13.594 22.366H59.394V18.458H13.594V22.366ZM51.004 71.424H21.984L17.92 24.942H55.068L51.005 71.424H51.004ZM18.512 9.00701L54.602 12.682L55.791 15.882H16.877L18.511 9.00701H18.512ZM62.002 15.883L58.742 11.09C58.6331 10.9324 58.4906 10.801 58.3247 10.7052C58.1589 10.6094 57.9739 10.5516 57.783 10.536L57.787 10.532L55.671 10.257L17.645 6.38501C17.3322 6.34983 17.0173 6.43069 16.7602 6.61226C16.503 6.79382 16.3215 7.06346 16.25 7.37001L14.224 15.883H12.298C11.582 15.883 11.001 16.459 11.001 17.171V23.654C11.001 24.365 11.582 24.942 12.298 24.942H15.316L19.5 72.823C19.558 73.489 20.12 74 20.793 74H52.192C54.943 74 57.544 71.198 57.772 68.412L61.594 24.942H64.614C65.33 24.942 65.911 24.365 65.911 23.654V17.171C65.911 16.459 65.33 15.883 64.614 15.883H62H62.002Z" fill="#1F1C4F"/>
</svg>
