<svg width="78" height="78" viewBox="0 0 78 78" fill="none" xmlns="http://www.w3.org/2000/svg">
<path fill-rule="evenodd" clip-rule="evenodd" d="M38.268 68.037C21.854 68.037 8.5 54.683 8.5 38.269C8.5 21.855 21.854 8.502 38.268 8.502C54.681 8.502 68.035 21.855 68.035 38.269C68.035 54.683 54.681 68.037 38.268 68.037ZM65.437 20.895C59.696 11.947 49.666 6 38.268 6C20.476 6 6 20.475 6 38.268C6 45.401 8.331 51.998 12.266 57.347C18.006 66.3 28.039 72.25 39.442 72.25C57.234 72.25 71.709 57.775 71.709 39.983C71.7151 33.1131 69.5167 26.4224 65.437 20.895Z" fill="#1F1C4F"/>
<path d="M43.7041 41.03C48.2051 41.03 51.9061 44.29 52.0421 48.312L52.0461 48.54V51.793C52.0461 52.453 51.4811 52.966 50.7961 53.025L50.6661 53.03H26.3401C25.6461 53.03 25.1171 52.558 25.0531 51.922L25.0471 51.793V48.54C25.0471 44.49 28.6641 41.156 33.1341 41.034L33.3881 41.03H43.7051H43.7041ZM38.5461 21.03C37.4298 21.0299 36.3245 21.2496 35.2932 21.6768C34.2618 22.1039 33.3247 22.73 32.5354 23.5193C31.7461 24.3086 31.12 25.2457 30.6929 26.277C30.2658 27.3084 30.046 28.4137 30.0461 29.53C30.0461 31.896 31.0181 34.109 32.7021 35.703C33.7101 36.6572 34.9365 37.35 36.274 37.7209C37.6115 38.0918 39.0194 38.1295 40.3749 37.8308C41.7304 37.532 42.992 36.9059 44.0497 36.0071C45.1074 35.1083 45.9288 33.9642 46.4423 32.6747C46.9558 31.3852 47.1457 29.9895 46.9954 28.6097C46.8452 27.2299 46.3593 25.9078 45.5802 24.7591C44.8012 23.6104 43.7527 22.6699 42.5263 22.0199C41.3 21.3698 39.9331 21.03 38.5451 21.03H38.5461Z" fill="#DA1710"/>
</svg>
