<svg width="78" height="78" viewBox="0 0 78 78" fill="none" xmlns="http://www.w3.org/2000/svg">
<path fill-rule="evenodd" clip-rule="evenodd" d="M15.655 19.999H47.317V16.999H15.655V19.999Z" fill="#DA1710"/>
<path fill-rule="evenodd" clip-rule="evenodd" d="M15.655 28.298H47.317V25.298H15.655V28.298Z" fill="#DA1710"/>
<path fill-rule="evenodd" clip-rule="evenodd" d="M15.655 36.594H35.682V33.594H15.655V36.594Z" fill="#DA1710"/>
<path fill-rule="evenodd" clip-rule="evenodd" d="M41.556 57.24L35.352 51.037L61.174 25.216L67.378 31.419L41.556 57.24ZM35.093 59.284L33.202 57.392L34.379 53.599L38.952 58.172L35.092 59.284H35.093ZM13.088 68.433C12.1368 68.4317 11.225 68.0532 10.5524 67.3806C9.87977 66.708 9.50132 65.7962 9.5 64.845V9.579H53.472V29.305L33.185 49.592C32.945 49.834 32.764 50.132 32.66 50.459L28.53 63.755L42.064 59.854C42.387 59.751 42.684 59.57 42.926 59.328L53.472 48.782V63.318C53.625 66.454 54.655 67.738 56.452 68.433H13.088ZM69.362 32.893C70.175 32.08 70.192 30.776 69.402 29.986L62.53 23.113C62.3345 22.9196 62.1014 22.7684 61.8451 22.6686C61.5888 22.5689 61.3148 22.5227 61.04 22.533C60.5057 22.5524 59.9989 22.7748 59.623 23.155L55.972 26.805V7H7V64.767C7.00185 66.3811 7.64386 67.9285 8.78518 69.0698C9.9265 70.2111 11.4739 70.8531 13.088 70.855H55.972L60.118 70.845C61.2445 70.8445 62.3247 70.3967 63.1212 69.6002C63.9177 68.8037 64.3655 67.7235 64.366 66.597V56.479H55.972V46.283L69.362 32.893Z" fill="#1F1C4F"/>
</svg>
