<svg width="78" height="78" viewBox="0 0 78 78" fill="none" xmlns="http://www.w3.org/2000/svg">
<path fill-rule="evenodd" clip-rule="evenodd" d="M62.64 22.584C57.05 22.164 49.11 22.3 42.52 25.233V22.233C49.11 19.3 57.05 19.164 62.64 19.584V22.584ZM62.64 31.467C57.05 31.046 49.11 31.182 42.52 34.116V31.116C49.11 28.182 57.05 28.046 62.64 28.466V31.466V31.467ZM62.64 40.35C57.05 39.93 49.11 40.065 42.52 42.998V39.998C49.11 37.065 57.05 36.929 62.64 37.349V40.349V40.35ZM62.64 49.231C57.05 48.811 49.11 48.947 42.52 51.88V48.88C49.11 45.947 57.05 45.811 62.64 46.231V49.231Z" fill="#DA1710"/>
<path fill-rule="evenodd" clip-rule="evenodd" d="M67.553 56.169C62.83 55.359 48.295 53.562 38.265 59.751V19.507C47.7 12.573 63.475 14.747 67.553 15.457V56.17V56.169ZM35.765 59.75C30.046 56.223 22.867 55.29 16.876 55.29C13.3914 55.2958 9.91317 55.5898 6.477 56.169V15.456C10.553 14.744 26.328 12.571 35.765 19.506V59.75ZM70.27 13.709C70.121 13.523 69.924 13.309 69.084 13.126C68.244 12.942 48.804 8.90601 37.021 17.334C25.24 8.91901 5.823 13.027 4.983 13.21L4 13.424V58.744L4.013 58.746C4.016 59.016 4.095 59.279 4.261 59.494L5.891 61.605C6.184 61.985 6.672 62.164 7.142 62.062L7.888 61.899C8.082 61.856 27.356 57.779 38.193 65.785C38.467 65.99 38.876 66.095 39.118 66.095C39.36 66.095 39.598 66.095 39.829 66.088C40.062 66.081 40.389 65.965 40.629 65.788C51.47 57.783 70.737 61.858 70.931 61.901L72.448 62.231V16.86C72.448 16.573 72.35 16.296 72.171 16.073L70.271 13.709H70.27Z" fill="#1F1C4F"/>
</svg>
