<svg width="78" height="78" viewBox="0 0 78 78" fill="none" xmlns="http://www.w3.org/2000/svg">
<path fill-rule="evenodd" clip-rule="evenodd" d="M55.4405 6.50049C56.7615 6.50049 57.8355 7.54749 57.8355 8.83549V65.3235C57.8355 66.6115 56.7615 67.6585 55.4405 67.6585H55.3755V6.50049H55.4405ZM25.7213 62.97C26.4113 62.97 26.9713 63.53 26.9713 64.22C26.9713 64.91 26.4113 65.47 25.7213 65.47H19.2763C18.5863 65.47 18.0263 64.91 18.0263 64.22C18.0263 63.53 18.5863 62.97 19.2763 62.97H25.7213ZM37.276 62.97C37.966 62.97 38.526 63.53 38.526 64.22C38.526 64.91 37.966 65.47 37.276 65.47H30.831C30.141 65.47 29.581 64.91 29.581 64.22C29.581 63.53 30.141 62.97 30.831 62.97H37.276ZM48.8311 62.97C49.5211 62.97 50.0811 63.53 50.0811 64.22C50.0811 64.91 49.5211 65.47 48.8311 65.47H42.3861C41.6961 65.47 41.1361 64.91 41.1361 64.22C41.1361 63.53 41.6961 62.97 42.3861 62.97H48.8311ZM25.7213 58.3191C26.4113 58.3191 26.9713 58.8791 26.9713 59.5691C26.9713 60.2591 26.4113 60.8191 25.7213 60.8191H19.2763C18.5863 60.8191 18.0263 60.2591 18.0263 59.5691C18.0263 58.8791 18.5863 58.3191 19.2763 58.3191H25.7213ZM37.276 58.3191C37.966 58.3191 38.526 58.8791 38.526 59.5691C38.526 60.2591 37.966 60.8191 37.276 60.8191H30.831C30.141 60.8191 29.581 60.2591 29.581 59.5691C29.581 58.8791 30.141 58.3191 30.831 58.3191H37.276ZM48.8311 58.3191C49.5211 58.3191 50.0811 58.8791 50.0811 59.5691C50.0811 60.2591 49.5211 60.8191 48.8311 60.8191H42.3861C41.6961 60.8191 41.1361 60.2591 41.1361 59.5691C41.1361 58.8791 41.6961 58.3191 42.3861 58.3191H48.8311ZM25.7213 53.6677C26.4113 53.6677 26.9713 54.2277 26.9713 54.9177C26.9713 55.6077 26.4113 56.1677 25.7213 56.1677H19.2763C18.5863 56.1677 18.0263 55.6077 18.0263 54.9177C18.0263 54.2277 18.5863 53.6677 19.2763 53.6677H25.7213ZM37.276 53.6677C37.966 53.6677 38.526 54.2277 38.526 54.9177C38.526 55.6077 37.966 56.1677 37.276 56.1677H30.831C30.141 56.1677 29.581 55.6077 29.581 54.9177C29.581 54.2277 30.141 53.6677 30.831 53.6677H37.276ZM48.8311 53.6677C49.5211 53.6677 50.0811 54.2277 50.0811 54.9177C50.0811 55.6077 49.5211 56.1677 48.8311 56.1677H42.3861C41.6961 56.1677 41.1361 55.6077 41.1361 54.9177C41.1361 54.2277 41.6961 53.6677 42.3861 53.6677H48.8311ZM48.5309 9.04899C49.3859 9.04899 50.0809 9.75999 50.0809 10.635V49.652C50.0809 50.526 49.3859 51.238 48.5309 51.238H19.5759C18.7209 51.238 18.0269 50.526 18.0269 49.652V10.635C18.0269 9.75999 18.7209 9.04899 19.5759 9.04899H48.5309ZM47.5809 11.55H20.5259V48.738H47.5809V11.55ZM17.9585 67.6585C16.6385 67.6585 15.5635 66.6115 15.5635 65.3235V8.83549C15.5635 7.54749 16.6385 6.50049 17.9585 6.50049H52.8755V67.6585H17.9585ZM62.4835 9.38049C62.4895 9.37749 62.5075 9.37049 62.5075 9.37049C62.5075 9.37049 62.4085 9.19549 62.2185 8.90449C62.2055 8.88549 62.1935 8.86649 62.1805 8.84749C61.5915 7.95749 60.2305 6.11649 58.2865 4.83549C57.9535 4.61649 57.6995 4.49649 57.5075 4.45349C56.8765 4.16949 56.1805 4.00049 55.4405 4.00049H17.9585C15.2245 4.00049 13.0005 6.16949 13.0005 8.83549V65.3235C13.0005 66.0935 13.2015 66.8105 13.5305 67.4565L13.5255 67.4585C13.5255 67.4585 13.5605 67.5195 13.6215 67.6195C13.7405 67.8325 13.8705 68.0365 14.0205 68.2285C14.6735 69.1755 15.9525 70.7995 17.7125 71.9695C18.5285 72.5455 19.5225 72.8945 20.6055 72.8945H58.0875C60.8225 72.8945 63.0465 70.7255 63.0465 68.0595V11.5705C63.0465 10.7785 62.8315 10.0405 62.4835 9.38049Z" fill="#1F1C4F"/>
<path fill-rule="evenodd" clip-rule="evenodd" d="M28.3039 30.5846C31.5419 27.2986 36.8479 27.2986 40.1109 30.5846L41.8149 28.8806C37.6029 24.6696 30.7869 24.6696 26.5999 28.8806L28.3039 30.5846Z" fill="#DA1710"/>
<path fill-rule="evenodd" clip-rule="evenodd" d="M24.9449 27.1766C30.0569 22.0636 38.3579 22.0636 43.4699 27.1766L45.1739 25.5216C39.0879 19.4596 29.3259 19.4596 23.2649 25.5216L24.9449 27.1766ZM31.7119 33.9196C33.0749 32.4826 35.3879 32.4826 36.7759 33.9196L38.4549 32.2156C36.0939 29.9026 32.3209 29.9026 30.0079 32.2156L31.7119 33.9196ZM34.2199 35.0156C33.2699 35.0156 32.4669 35.7946 32.4669 36.7686C32.4669 37.6926 33.2699 38.4726 34.2199 38.4726C35.1689 38.4726 35.9479 37.6686 35.9479 36.7686C35.9479 35.7946 35.1689 35.0156 34.2199 35.0156Z" fill="#DA1710"/>
</svg>
