<svg width="78" height="78" viewBox="0 0 78 78" fill="none" xmlns="http://www.w3.org/2000/svg">
<path fill-rule="evenodd" clip-rule="evenodd" d="M42.5321 54.407C40.0221 53.712 38.3631 52.775 36.6301 51.073C35.5313 49.988 34.66 48.6948 34.0672 47.2689C33.4745 45.843 33.1722 44.3132 33.1781 42.769C33.1781 40.111 35.4381 37.952 38.2141 37.952C40.9891 37.952 43.2491 40.112 43.2491 42.769C43.2491 44.306 44.5931 45.56 46.2591 45.56C47.924 45.56 49.2661 44.306 49.2661 42.77C49.2661 37.025 44.3081 32.355 38.1981 32.355C33.8541 32.355 29.8861 34.772 28.1031 38.506C27.5111 39.736 27.2071 41.181 27.2071 42.769C27.2071 44.561 27.4671 46.263 28.2351 48.313C28.2844 48.4366 28.3083 48.5689 28.3053 48.7019C28.3024 48.835 28.2727 48.9661 28.218 49.0874C28.1633 49.2087 28.0848 49.3178 27.987 49.4081C27.8893 49.4984 27.7743 49.5681 27.6491 49.613C27.5251 49.66 27.3931 49.6821 27.2606 49.678C27.1281 49.6738 26.9977 49.6436 26.8769 49.589C26.7562 49.5343 26.6474 49.4564 26.5568 49.3596C26.4662 49.2628 26.3956 49.1491 26.3491 49.025C25.5741 46.956 25.1951 44.901 25.1951 42.769C25.1951 40.869 25.5601 39.134 26.2781 37.617C28.3921 33.183 33.0761 30.313 38.1981 30.313C45.4191 30.313 51.2941 35.888 51.2941 42.754C51.2941 45.414 49.034 47.571 46.2581 47.571C43.4821 47.571 41.2221 45.413 41.2221 42.754C41.2221 41.218 39.8791 39.964 38.2141 39.964C36.5481 39.964 35.2051 41.218 35.2051 42.754C35.2051 45.362 36.2121 47.796 38.0511 49.619C39.5111 51.063 40.8971 51.849 43.0431 52.443C43.5851 52.583 43.9001 53.144 43.7591 53.67C43.7097 53.8889 43.5878 54.0846 43.4132 54.2255C43.2385 54.3663 43.0214 54.4441 42.7971 54.446C42.7191 54.446 42.6331 54.432 42.5321 54.407ZM40.9671 49.807C38.5791 48.189 37.1531 45.559 37.1531 42.769C37.1531 42.204 37.6001 41.756 38.1671 41.756C38.7321 41.756 39.1791 42.204 39.1791 42.769C39.1791 44.894 40.2671 46.893 42.1011 48.126C43.1651 48.846 44.4121 49.192 45.9311 49.192C46.3441 49.192 46.9571 49.137 47.5111 49.042C47.6424 49.0183 47.7772 49.0209 47.9076 49.0496C48.038 49.0784 48.1614 49.1327 48.2707 49.2094C48.3799 49.2861 48.4729 49.3837 48.5442 49.4966C48.6155 49.6095 48.6637 49.7354 48.6861 49.867C48.71 49.9985 48.7077 50.1335 48.6791 50.2641C48.6505 50.3948 48.5962 50.5184 48.5195 50.6279C48.4427 50.7374 48.345 50.8305 48.232 50.902C48.119 50.9734 47.9929 51.0217 47.8611 51.044C47.1431 51.182 46.4511 51.235 45.9311 51.235C44.0261 51.235 42.3451 50.753 40.9671 49.807ZM34.753 54.119C34.6199 54.121 34.4878 54.0951 34.3652 54.0431C34.2426 53.9911 34.1322 53.9141 34.0411 53.817C32.5461 52.321 31.8541 51.428 30.8691 49.65C29.7761 47.701 29.2021 45.325 29.2021 42.77C29.2021 38.007 33.2701 34.133 38.2621 34.133C43.2501 34.133 47.3181 38.007 47.3181 42.769C47.3181 43.335 46.8701 43.783 46.3041 43.783C46.1707 43.7839 46.0385 43.7583 45.9151 43.7077C45.7917 43.657 45.6796 43.5824 45.5853 43.488C45.4911 43.3937 45.4165 43.2815 45.366 43.1581C45.3155 43.0346 45.29 42.9024 45.2911 42.769C45.2911 39.129 42.1411 36.159 38.2611 36.159C34.3811 36.159 31.2291 39.129 31.2291 42.769C31.2291 44.979 31.719 47.011 32.649 48.659C33.533 50.247 34.1001 50.967 35.4991 52.384C35.6843 52.5787 35.7865 52.8379 35.784 53.1066C35.7816 53.3754 35.6748 53.6326 35.4861 53.824C35.2761 54.016 35.0181 54.119 34.753 54.119ZM24.4231 35.119C24.3131 35.0426 24.2193 34.9452 24.1474 34.8322C24.0754 34.7193 24.0266 34.5932 24.0038 34.4613C23.981 34.3293 23.9846 34.1942 24.0146 34.0636C24.0445 33.9331 24.1001 33.8098 24.1781 33.701C25.7451 31.486 27.7381 29.747 30.1081 28.531C35.0781 25.967 41.4251 25.958 46.3961 28.514C48.7582 29.7225 50.7922 31.4855 52.3241 33.652C52.4023 33.7609 52.4581 33.8843 52.4883 34.0149C52.5185 34.1455 52.5224 34.2809 52.4999 34.4131C52.4774 34.5452 52.4289 34.6716 52.3572 34.7849C52.2854 34.8982 52.1919 34.9961 52.0821 35.073C51.9734 35.1506 51.8505 35.206 51.7203 35.2358C51.5902 35.2656 51.4554 35.2693 51.3239 35.2467C51.1923 35.2241 51.0665 35.1756 50.9537 35.1041C50.841 35.0326 50.7436 34.9394 50.6671 34.83C49.2841 32.893 47.534 31.376 45.4671 30.318C41.0531 28.059 35.4121 28.063 31.0241 30.334C28.9517 31.4029 27.1666 32.9541 25.8191 34.857C25.6561 35.143 25.3491 35.302 25.0091 35.302C24.8031 35.302 24.6031 35.24 24.4231 35.119ZM47.3181 27.117C47.155 27.1177 46.9945 27.0763 46.8521 26.997C43.8921 25.471 41.3421 24.825 38.2751 24.825C35.2151 24.825 32.3251 25.555 29.7031 26.995C29.4658 27.1198 29.1893 27.1472 28.9322 27.0714C28.675 26.9956 28.4576 26.8225 28.3261 26.589C28.1994 26.3521 28.171 26.075 28.247 25.8173C28.3229 25.5597 28.4972 25.3423 28.7321 25.212C31.6595 23.6179 34.9417 22.788 38.2751 22.799C41.6321 22.799 44.5681 23.539 47.7851 25.195C47.9032 25.2549 48.0082 25.3377 48.0939 25.4387C48.1796 25.5397 48.2442 25.6567 48.2841 25.783C48.324 25.9093 48.3382 26.0423 48.326 26.1742C48.3138 26.306 48.2754 26.4342 48.2131 26.551C48.1321 26.7199 48.0052 26.8625 47.8469 26.9626C47.6886 27.0627 47.5053 27.1162 47.3181 27.117Z" fill="#DA1710"/>
<path fill-rule="evenodd" clip-rule="evenodd" d="M38.268 68.037C21.854 68.037 8.50002 54.683 8.50002 38.27C8.50002 21.857 21.854 8.502 38.268 8.502C54.681 8.502 68.036 21.855 68.036 38.269C68.036 54.683 54.68 68.037 38.268 68.037ZM65.437 20.895C59.697 11.947 49.666 6 38.267 6C20.477 6 6.00002 20.475 6.00002 38.268C5.99325 45.134 8.18955 51.8211 12.266 57.346C18.006 66.3 28.039 72.25 39.443 72.25C57.235 72.25 71.709 57.775 71.709 39.983C71.7151 33.1131 69.5167 26.4224 65.437 20.895Z" fill="#1F1C4F"/>
</svg>
