<svg width="78" height="78" viewBox="0 0 78 78" fill="none" xmlns="http://www.w3.org/2000/svg">
<path fill-rule="evenodd" clip-rule="evenodd" d="M56.472 68.4324H52.912H16.088C14.11 68.4324 12.5 66.8234 12.5 64.8444V9.57839H56.472V63.3174C56.625 66.4534 57.654 67.7374 59.451 68.4324H56.472ZM58.972 56.4784V6.99939H10V64.7664C10 68.1234 12.732 70.8544 16.088 70.8544H58.972V70.8444H63.117C65.462 70.8444 67.365 68.9424 67.365 66.5964V56.4784H58.972Z" fill="#1F1C4F"/>
<path fill-rule="evenodd" clip-rule="evenodd" d="M18.655 18.872H50.317V15.871H18.655V18.872Z" fill="#DA1710"/>
<path fill-rule="evenodd" clip-rule="evenodd" d="M18.655 27.169H50.317V24.169H18.655V27.169Z" fill="#DA1710"/>
<path fill-rule="evenodd" clip-rule="evenodd" d="M18.655 35.467H50.317V32.467H18.655V35.467Z" fill="#DA1710"/>
<path fill-rule="evenodd" clip-rule="evenodd" d="M18.6541 43.764H39.8301V40.764H18.6541V43.764Z" fill="#DA1710"/>
</svg>
