<svg width="78" height="78" viewBox="0 0 78 78" fill="none" xmlns="http://www.w3.org/2000/svg">
<path fill-rule="evenodd" clip-rule="evenodd" d="M8 7.456L26.612 25.984C26.9804 26.3507 27.4765 26.5604 27.9962 26.569C28.5159 26.5775 29.0187 26.3844 29.399 26.03L40.185 15.973C40.3431 15.8261 40.5517 15.7458 40.7675 15.7486C40.9833 15.7514 41.1897 15.8371 41.344 15.988L63.268 37.432H50.443L50.398 41.123H67.75C68.705 41.123 69.478 40.35 69.478 39.396V22.224H65.838L65.876 35.136L42.011 11.793C41.6924 11.4809 41.2658 11.3037 40.8198 11.2983C40.3739 11.2929 39.943 11.4597 39.617 11.764L28.496 22.132C28.3794 22.2409 28.225 22.3002 28.0655 22.2974C27.9059 22.2946 27.7537 22.2299 27.641 22.117L10.446 5L8 7.456Z" fill="#DA1710"/>
<path fill-rule="evenodd" clip-rule="evenodd" d="M51.6139 68.985H62.6689V58.86H51.6139V68.984V68.985ZM38.0599 68.985H49.1149V51.01H38.0599V68.985ZM24.5049 68.985H35.5599V42.603H24.5049V68.985ZM10.9509 68.985H22.0049V34.754H10.9509V68.984V68.985ZM63.4709 56.361H51.6149V50.209C51.6149 49.7583 51.436 49.3261 51.1174 49.0073C50.7988 48.6885 50.3666 48.5093 49.9159 48.509H38.0599V41.801C38.0594 41.3509 37.8803 40.9193 37.562 40.6009C37.2437 40.2826 36.8121 40.1036 36.3619 40.103H24.5049V33.952C24.5044 33.502 24.3255 33.0706 24.0074 32.7523C23.6893 32.434 23.2579 32.2548 22.8079 32.254H10.1489C9.69875 32.2546 9.26717 32.4336 8.94884 32.7519C8.63052 33.0703 8.45146 33.5019 8.45093 33.952V71.485C8.45293 71.648 8.60193 71.746 8.80893 71.873C9.88893 72.536 13.2909 73.256 13.9489 73.256H69.4319V61.688C69.4319 59.86 66.3149 56.833 64.1869 56.43C63.9507 56.3865 63.7111 56.363 63.4709 56.36V56.361Z" fill="#1F1C4F"/>
</svg>
