<svg width="78" height="78" viewBox="0 0 78 78" fill="none" xmlns="http://www.w3.org/2000/svg">
<path fill-rule="evenodd" clip-rule="evenodd" d="M63.779 53.145C63.779 56.965 60.619 60.077 56.729 60.091C55.6644 60.0828 54.6462 59.6542 53.8962 58.8986C53.1462 58.143 52.7252 57.1216 52.725 56.057V44.743C52.725 42.516 54.53 40.705 56.749 40.705H60.782V33.919C60.782 21.086 50.194 10.647 37.18 10.647C24.166 10.647 13.577 21.087 13.577 33.919V40.705H18.643C19.7118 40.7079 20.7357 41.1347 21.4901 41.8918C22.2445 42.6488 22.6678 43.6742 22.667 44.743V56.057C22.667 57.1251 22.2434 58.1497 21.489 58.9059C20.7346 59.6622 19.7111 60.0883 18.643 60.091H17.657C13.756 60.091 10.582 56.975 10.582 53.145V33.919C10.582 19.485 22.514 7.74298 37.18 7.74298C51.847 7.74298 63.779 19.485 63.779 33.919V53.145ZM36.673 5.16598C20.817 5.43598 8 18.226 8 33.92V53.146C8 58.128 11.891 62.224 16.83 62.64C18.559 62.772 21.033 62.984 23.364 62.582C24.9046 62.3196 26.3027 61.5207 27.3111 60.3268C28.3195 59.1329 28.8731 57.6208 28.874 56.058V44.743C28.874 41.088 25.909 38.115 22.267 38.115H19.783V33.92C19.783 23.117 28.249 14.237 38.992 13.328C49.736 14.237 58.2 23.118 58.2 33.92V38.116H56.75C53.107 38.116 50.143 41.089 50.143 44.744V56.058C50.1445 57.6232 50.7001 59.1373 51.7115 60.3319C52.7228 61.5264 54.1245 62.3243 55.668 62.584C57.806 62.911 59.408 62.863 61.201 62.637L61.207 62.636C66.121 62.195 69.985 58.11 69.985 53.146V33.919C69.985 18.103 56.969 5.23098 40.943 5.15698L36.673 5.16698V5.16598Z" fill="#1F1C4F"/>
<path fill-rule="evenodd" clip-rule="evenodd" d="M55.668 62.58C56.4204 62.6979 57.179 62.772 57.94 62.802C57.319 67.268 53.651 70.735 49.182 70.869L48.912 70.873H44.628C44.151 72.059 43.049 72.913 41.748 72.991L41.551 72.997H35.334C33.496 72.997 32 71.455 32 69.562C32 67.728 33.398 66.225 35.152 66.127L35.334 66.122H41.551C42.871 66.122 44.013 66.919 44.552 68.072L44.628 68.248H48.913C52.188 68.248 54.907 65.766 55.405 62.529C55.492 62.549 55.58 62.565 55.668 62.579V62.58Z" fill="#DA1710"/>
</svg>
