<svg width="78" height="78" viewBox="0 0 78 78" fill="none" xmlns="http://www.w3.org/2000/svg">
<path fill-rule="evenodd" clip-rule="evenodd" d="M38.268 68.037C21.854 68.037 8.5 54.683 8.5 38.269C8.5 21.855 21.854 8.502 38.268 8.502C54.681 8.502 68.035 21.855 68.035 38.269C68.035 54.683 54.681 68.037 38.268 68.037ZM65.437 20.895C59.696 11.947 49.666 6 38.268 6C20.476 6 6 20.475 6 38.268C6 45.401 8.331 51.998 12.266 57.346C18.006 66.3 28.039 72.25 39.442 72.25C57.234 72.25 71.709 57.775 71.709 39.983C71.7151 33.1131 69.5167 26.4224 65.437 20.895Z" fill="#1F1C4F"/>
<path fill-rule="evenodd" clip-rule="evenodd" d="M46.548 24C43.244 24 39.065 25.753 38 32.59C36.935 25.753 32.756 24 29.45 24C23.599 24 19 28.484 19 34.191C19 41.195 25.46 46.901 35.246 55.555L37.997 57.995V58L38 57.997L38.003 58V57.996L40.753 55.555C50.539 46.9 57 41.195 57 34.19C57 28.484 52.402 24 46.548 24Z" fill="#DA1710"/>
</svg>
