<svg width="78" height="78" viewBox="0 0 78 78" fill="none" xmlns="http://www.w3.org/2000/svg">
<path fill-rule="evenodd" clip-rule="evenodd" d="M37.313 11.15H39.813V2.00098H37.313V11.15Z" fill="#DA1710"/>
<path fill-rule="evenodd" clip-rule="evenodd" d="M61.9761 33.873H71.1261V31.373H61.9761V33.873Z" fill="#DA1710"/>
<path fill-rule="evenodd" clip-rule="evenodd" d="M6 33.873H15.15V31.373H6V33.873Z" fill="#DA1710"/>
<path fill-rule="evenodd" clip-rule="evenodd" d="M57.47 48.209L63.94 54.679L65.707 52.911L59.238 46.441L57.47 48.209Z" fill="#DA1710"/>
<path fill-rule="evenodd" clip-rule="evenodd" d="M14.6541 12.421L21.1241 18.892L22.8911 17.125L16.4221 10.653L14.6541 12.421Z" fill="#DA1710"/>
<path fill-rule="evenodd" clip-rule="evenodd" d="M13.218 52.911L14.986 54.679L21.455 48.209L19.688 46.441L13.218 52.911Z" fill="#DA1710"/>
<path fill-rule="evenodd" clip-rule="evenodd" d="M60.7051 10.654L54.2351 17.124L56.0031 18.892L62.4731 12.422L60.7051 10.654Z" fill="#DA1710"/>
<path fill-rule="evenodd" clip-rule="evenodd" d="M48.475 42.983C45.629 47.253 45.135 51.893 45.127 54.575H30.427C30.419 51.894 29.924 47.253 27.078 42.983C23.326 37.356 23.25 32.617 23.25 32.573C23.25 24.546 29.76 18.009 37.777 17.963C45.794 18.009 52.303 24.545 52.303 32.569C52.303 32.616 52.228 37.355 48.475 42.983ZM37.966 71.483C36.323 71.483 34.912 70.234 34.254 68.448H41.678C41.021 70.235 39.61 71.483 37.966 71.483ZM30.316 59.925V58.774C30.316 58.134 30.324 57.583 30.338 57.074H45.214C45.234 57.702 45.238 58.295 45.239 58.788V59.926H30.316V59.925ZM45.24 62.425L45.241 64.972H30.316V62.426H45.24V62.425ZM44.621 16.936C42.4208 15.9548 40.037 15.4531 37.628 15.464C28.3 15.589 20.75 23.216 20.75 32.574C20.75 32.795 20.798 38.072 24.997 44.371C27.973 48.834 28.015 53.813 27.897 55.746C27.84 56.624 27.817 57.559 27.817 58.775V66.222C27.817 66.912 28.375 67.472 29.067 67.472H31.455C31.59 68.415 31.863 69.302 32.259 70.1C33.779 73.99 38.384 75.993 41.307 75.993C44.555 75.993 47.242 73.129 47.661 69.433L49.832 69.503C50.114 69.503 50.382 69.393 50.579 69.193C50.6774 69.0953 50.7554 68.979 50.8086 68.851C50.8618 68.7229 50.8891 68.5856 50.889 68.447L50.884 61.011C50.884 59.822 50.859 58.861 50.805 57.984C50.685 56.031 50.728 50.998 53.735 46.489C57.901 40.237 57.95 35.019 57.95 34.799C57.95 27.468 51.775 19.846 44.621 16.936Z" fill="#1F1C4F"/>
</svg>
