<svg width="78" height="78" viewBox="0 0 78 78" fill="none" xmlns="http://www.w3.org/2000/svg">
<path fill-rule="evenodd" clip-rule="evenodd" d="M38.268 68.037C21.854 68.037 8.5 54.683 8.5 38.269C8.5 21.855 21.854 8.502 38.268 8.502C54.681 8.502 68.035 21.855 68.035 38.269C68.035 54.683 54.681 68.037 38.268 68.037ZM65.437 20.895C59.696 11.947 49.666 6 38.268 6C20.476 6 6 20.475 6 38.268C6 45.401 8.331 51.998 12.266 57.346C18.006 66.3 28.039 72.25 39.442 72.25C57.234 72.25 71.709 57.775 71.709 39.983C71.7151 33.1131 69.5167 26.4224 65.437 20.895Z" fill="#1F1C4F"/>
<path d="M39 19C49.217 19 57.5 27.283 57.5 37.5C57.5 40.064 56.977 42.557 55.978 44.858L55.538 45.846L62.281 43.122L63.417 45.935L53.346 50.003C52.978 50.1514 52.5679 50.157 52.196 50.0186C51.8242 49.8802 51.5174 49.6079 51.336 49.255L51.276 49.123L47.208 39.054L50.021 37.918L52.745 44.662C52.849 44.472 52.953 44.268 53.057 44.05C54.0104 41.9982 54.5029 39.7625 54.5 37.5C54.5 28.94 47.56 22 39 22C37.344 22 35.728 22.26 34.199 22.757L33.023 19.987C34.9475 19.3318 36.967 18.9983 39 19ZM26.081 27.364L26.141 27.495L30.209 37.565L27.397 38.701L24.673 31.957C24.569 32.147 24.464 32.35 24.361 32.569C23.4073 34.6207 22.9144 36.8564 22.917 39.119C22.917 47.679 29.857 54.619 38.417 54.619C40.1041 54.6208 41.7801 54.3472 43.379 53.809L44.554 56.576C42.582 57.268 40.5069 57.6207 38.417 57.619C28.2 57.619 19.917 49.336 19.917 39.119C19.917 36.555 20.44 34.062 21.439 31.76L21.879 30.773L15.136 33.497L14 30.684L24.072 26.616C24.4171 26.4773 24.7998 26.4637 25.1538 26.5777C25.5078 26.6917 25.8107 26.926 26.01 27.24L26.081 27.364Z" fill="#DA1710"/>
</svg>
