<svg width="78" height="78" viewBox="0 0 78 78" fill="none" xmlns="http://www.w3.org/2000/svg">
<path fill-rule="evenodd" clip-rule="evenodd" d="M53.5273 6C54.6145 6 55.5 7.05322 55.5 8.3457V65.6543C55.5 66.9468 54.6145 68 53.5273 68H22.4727C21.3855 68 20.5 66.9468 20.5 65.6543V8.3457C20.5 7.05322 21.3855 6 22.4727 6H53.5273ZM23.3184 65.249H52.8535V8.75098H23.3184V65.249Z" fill="#1F1C4F"/>
<path fill-rule="evenodd" clip-rule="evenodd" d="M55.0586 1.75684C55.8186 1.75684 56.5279 1.94872 57.1689 2.26172C57.3128 2.31371 57.4895 2.40896 57.7002 2.55176C57.7302 2.57176 57.762 2.58837 57.792 2.60938C57.8029 2.61731 57.8114 2.62198 57.8232 2.63086C60.3482 4.45486 61.7949 7.29297 61.7949 7.29297C61.7949 7.29297 61.7756 7.30073 61.7686 7.30273C62.1155 7.96966 62.332 8.71566 62.332 9.51855V70.4355C62.332 73.1014 60.1629 75.2703 57.4971 75.2705H23.3828C22.1379 75.2705 21.018 74.7837 20.167 74.0059C17.938 72.2109 16.6621 69.7578 16.6621 69.7578C16.6621 69.7578 16.6776 69.752 16.6816 69.75C16.3246 69.081 16.1104 68.3228 16.1104 67.5098V6.59277C16.1104 3.9259 18.2795 1.75699 20.9453 1.75684H55.0586ZM20.8672 4.25684C19.5804 4.25706 18.5323 5.30494 18.5322 6.59277V67.5098C18.5322 68.7976 19.5804 69.8445 20.8672 69.8447H54.9805C56.2675 69.8447 57.3154 68.7978 57.3154 67.5098V6.59277C57.3154 5.3048 56.2674 4.25684 54.9805 4.25684H20.8672Z" fill="#1F1C4F"/>
<rect x="35" y="12" width="6" height="3" rx="1.5" fill="#DA1710"/>
</svg>
