<svg width="78" height="78" viewBox="0 0 78 78" fill="none" xmlns="http://www.w3.org/2000/svg">
<path fill-rule="evenodd" clip-rule="evenodd" d="M65.8798 20.77C60.1388 11.822 50.1088 5.875 38.7108 5.875C27.2288 5.875 17.1348 11.908 11.4138 20.966L13.2208 22.786C18.4398 14.158 27.9118 8.377 38.7108 8.377C55.1238 8.377 68.4778 21.73 68.4778 38.144C68.4778 54.558 55.1238 67.912 38.7108 67.912C28.0958 67.912 18.7658 62.322 13.4938 53.936L11.7038 55.739C12.0308 56.239 12.3558 56.741 12.7088 57.221C18.4488 66.175 28.4818 72.125 39.8848 72.125C57.6768 72.125 72.1518 57.65 72.1518 39.858C72.1518 32.72 69.8178 26.12 65.8798 20.77Z" fill="#1F1C4F"/>
<path fill-rule="evenodd" clip-rule="evenodd" d="M5.98633 23.8462V53.8832C5.98633 54.1452 6.09133 54.3942 6.27333 54.5782C6.65533 54.9642 7.27333 54.9642 7.65433 54.5782L22.5603 39.5592C22.9423 39.1762 22.9423 38.5532 22.5603 38.1682L7.65433 23.1492C7.47033 22.9642 7.22433 22.8622 6.96533 22.8622C6.42433 22.8622 5.98633 23.3032 5.98633 23.8462Z" fill="#1F1C4F"/>
<path fill-rule="evenodd" clip-rule="evenodd" d="M42.8447 46.6279C42.3677 47.1899 41.7737 47.5779 41.0717 47.8049V40.6979C41.9247 41.0129 42.5727 41.4199 42.9877 41.9299C43.4907 42.5469 43.7417 43.2819 43.7417 44.1349C43.7417 45.0899 43.4437 45.9199 42.8447 46.6279ZM35.8927 32.8389C35.4857 32.2599 35.2827 31.6319 35.2827 30.9579C35.2827 30.2189 35.5047 29.5439 35.9497 28.9329C36.3477 28.3879 36.8727 27.9929 37.5127 27.7319V34.1269C36.8057 33.7859 36.2597 33.3599 35.8927 32.8389ZM46.7597 38.3779C45.7217 37.1419 43.8187 36.1259 41.0717 35.3219V28.0179C41.9707 28.5979 42.5627 29.4939 42.8067 30.7469L47.6387 30.1169C47.3077 28.2069 46.5427 26.6829 45.3467 25.5439C44.2657 24.5139 42.8277 23.8709 41.0717 23.5739V21.5799H40.5147H37.7447H37.5127V23.5119C35.4357 23.7639 33.7517 24.5589 32.4837 25.9249C31.1657 27.3449 30.5077 29.0989 30.5077 31.1869C30.5077 33.2489 31.0897 35.0029 32.2547 36.4479C33.3817 37.8469 35.1387 38.8989 37.5127 39.6119V47.5549C36.9177 47.2209 36.3687 46.7359 35.8737 46.0829C35.3137 45.3449 34.9317 44.4659 34.7287 43.4469L29.7427 43.9819C30.1247 46.4899 31.0037 48.4319 32.3787 49.8069C33.7027 51.1309 35.4207 51.9289 37.5127 52.2259V55.7469H37.7447H40.5147H41.0717V52.0759C43.2857 51.6599 45.0427 50.7299 46.3297 49.2729C47.7237 47.6929 48.4207 45.7519 48.4207 43.4469C48.4207 41.3849 47.8667 39.6939 46.7597 38.3779Z" fill="#DA1710"/>
</svg>
