<svg width="78" height="78" viewBox="0 0 78 78" fill="none" xmlns="http://www.w3.org/2000/svg">
<path fill-rule="evenodd" clip-rule="evenodd" d="M15.01 13.728C15.037 13.128 15.466 12.666 15.973 12.693L66.137 15.413C67.149 15.424 67.983 16.167 68 17.073C68.016 17.978 67.21 18.703 66.2 18.691C66.1318 18.6898 66.0638 18.6855 65.996 18.678L15.857 15.066C15.357 15.03 14.975 14.521 15.001 13.926L15.011 13.728H15.01Z" fill="#DA1710"/>
<path fill-rule="evenodd" clip-rule="evenodd" d="M49.0801 61.198L48.4041 61.565V67.195H23.0341V61.565L22.3581 61.198C13.6581 56.472 8.04611 47.464 7.60011 37.581H63.8401C63.3921 47.465 57.7801 56.472 49.0801 61.198ZM71.5861 38.2C71.0071 37.604 67.0311 35.746 65.4181 35.253C65.0521 35.143 64.5611 34.993 64.1421 34.991H35.4321C35.2371 33.641 34.7591 32.786 34.3231 32.018C33.8421 31.171 33.4631 30.503 33.4631 29.035C33.4631 27.566 33.8421 26.897 34.3231 26.051C34.8851 25.061 35.5241 23.941 35.5241 21.783C35.5241 19.627 34.8841 18.505 34.3241 17.516C33.8421 16.67 33.4621 16.004 33.4621 14.536C33.4621 13.07 33.8421 12.403 34.3231 11.559C34.8851 10.571 35.5241 9.451 35.5241 7.295C35.5241 6.58 34.9471 6 34.2361 6C33.5231 6 32.9471 6.58 32.9471 7.295C32.9471 8.761 32.5671 9.428 32.0871 10.271C31.5241 11.261 30.8861 12.381 30.8861 14.537C30.8861 16.692 31.5241 17.813 32.0861 18.802C32.5661 19.647 32.9471 20.316 32.9471 21.782C32.9471 23.252 32.5671 23.92 32.0871 24.766C31.5241 25.756 30.8861 26.877 30.8861 29.035C30.8861 31.192 31.5241 32.313 32.0861 33.303C32.3961 33.85 32.6641 34.327 32.8161 34.991H28.8761C28.6821 33.641 28.2041 32.786 27.7661 32.018C27.2861 31.171 26.9061 30.503 26.9061 29.035C26.9061 27.566 27.2861 26.897 27.7661 26.051C28.3291 25.061 28.9671 23.941 28.9671 21.783C28.9671 19.627 28.3291 18.505 27.7671 17.516C27.2851 16.67 26.9061 16.004 26.9061 14.536C26.9061 13.07 27.2861 12.403 27.7661 11.559C28.3291 10.571 28.9671 9.451 28.9671 7.295C28.9678 7.12543 28.935 6.95739 28.8706 6.8005C28.8063 6.6436 28.7116 6.50094 28.5921 6.38066C28.4726 6.26038 28.3305 6.16485 28.174 6.09953C28.0175 6.03422 27.8497 6.00039 27.6801 6C26.9691 6 26.3921 6.58 26.3921 7.295C26.3921 8.761 26.0121 9.428 25.5311 10.271C24.9681 11.261 24.3301 12.381 24.3301 14.537C24.3301 16.692 24.9681 17.813 25.5301 18.802C26.0121 19.647 26.3921 20.316 26.3921 21.782C26.3921 23.252 26.0121 23.92 25.5311 24.766C24.9681 25.756 24.3301 26.877 24.3301 29.035C24.3301 31.192 24.9681 32.313 25.5301 33.303C25.8421 33.85 26.1101 34.327 26.2601 34.991H22.3201C22.1261 33.641 21.6481 32.786 21.2111 32.018C20.7301 31.171 20.3511 30.503 20.3511 29.035C20.3511 27.566 20.7301 26.897 21.2111 26.051C21.7741 25.061 22.4111 23.941 22.4111 21.783C22.4111 19.627 21.7741 18.505 21.2111 17.516C20.7301 16.67 20.3511 16.004 20.3511 14.536C20.3511 13.07 20.7301 12.403 21.2111 11.559C21.7741 10.571 22.4111 9.451 22.4111 7.295C22.4111 6.58 21.8351 6 21.1231 6C20.4111 6 19.8351 6.58 19.8351 7.295C19.8351 8.761 19.4551 9.428 18.9751 10.271C18.4121 11.261 17.7741 12.381 17.7741 14.537C17.7741 16.692 18.4121 17.813 18.9741 18.802C19.4561 19.647 19.8351 20.316 19.8351 21.782C19.8351 23.252 19.4551 23.92 18.9751 24.766C18.4121 25.756 17.7741 26.877 17.7741 29.035C17.7741 31.192 18.4121 32.313 18.9741 33.303C19.2861 33.85 19.5521 34.327 19.7041 34.991H6.97611C6.44811 34.991 5.93111 35.209 5.56011 35.591C5.37637 35.7795 5.23218 36.0029 5.13601 36.248C5.03984 36.493 4.99364 36.7548 5.00011 37.018C5.25011 47.813 11.1521 57.735 20.4571 63.098V67.592C20.4571 68.429 20.9321 69.15 21.6201 69.519C23.5701 70.981 28.1441 72 28.2031 72H54.3621C54.9422 71.9979 55.4978 71.7657 55.9069 71.3543C56.316 70.943 56.5452 70.3861 56.5441 69.806V65.314C65.8541 59.946 71.7561 50.017 72.0001 39.216C72.0061 38.72 71.9901 38.632 71.5871 38.2H71.5861Z" fill="#1F1C4F"/>
<path fill-rule="evenodd" clip-rule="evenodd" d="M15.0012 10.642C14.9875 10.3972 15.0708 10.1568 15.2331 9.97299C15.3954 9.78918 15.6236 9.67672 15.8682 9.66001L65.9932 6.70201C67.0022 6.60601 67.8962 7.15101 67.9922 7.91901C68.0872 8.68701 67.3482 9.389 66.3402 9.485C66.2732 9.491 66.2042 9.49501 66.1382 9.49501L15.9602 11.691C15.7178 11.6994 15.4819 11.6116 15.3039 11.4468C15.1259 11.2819 15.0204 11.0534 15.0102 10.811L15.0012 10.641V10.642Z" fill="#DA1710"/>
</svg>
