<svg width="78" height="78" viewBox="0 0 78 78" fill="none" xmlns="http://www.w3.org/2000/svg">
<path fill-rule="evenodd" clip-rule="evenodd" d="M43.3733 45.7012C43.3733 42.1112 40.4633 39.2012 36.8733 39.2012C33.2833 39.2012 30.3733 42.1112 30.3733 45.7012C30.3733 48.0012 31.5713 50.0172 33.3733 51.1732V56.7012C33.3733 58.6342 34.9403 60.2012 36.8733 60.2012C38.8063 60.2012 40.3733 58.6342 40.3733 56.7012V51.1732C42.1763 50.0172 43.3733 48.0012 43.3733 45.7012Z" fill="#DA1710"/>
<path fill-rule="evenodd" clip-rule="evenodd" d="M57.2682 63.1953C57.2682 65.5683 55.3382 67.4983 52.9662 67.4983H19.8032C17.4302 67.4983 15.5002 65.5683 15.5002 63.1953V30.9983H57.2682V63.1953ZM24.3842 22.7083C24.3842 15.1493 30.2152 9.00031 37.3842 9.00031C44.5522 9.00031 50.3842 15.1493 50.3842 22.7083V28.4983H24.3842V22.7083ZM62.9972 32.3353L62.9982 32.3313L59.1862 29.0623L59.1852 29.0633C58.8322 28.7153 58.3492 28.4983 57.8152 28.4983H54.3842V22.7083C54.3842 12.9443 46.7582 5.00031 37.3842 5.00031C28.0102 5.00031 20.3842 12.9443 20.3842 22.7083V28.4983H14.9392C13.8702 28.4983 13.0002 29.3683 13.0002 30.4373V63.1953C13.0002 63.3293 13.0122 63.4603 13.0202 63.5913C13.0192 63.5913 13.0122 63.5893 13.0122 63.5893C13.0122 63.5893 13.0172 63.6983 13.0352 63.8863C13.0352 63.8883 13.0352 63.8913 13.0362 63.8943C13.1832 65.3883 14.2892 71.9863 22.2362 73.1483C22.6912 73.2443 23.1622 73.2963 23.6452 73.2963H56.8082C60.5592 73.2963 63.6112 70.2453 63.6112 66.4943V33.7503C63.6112 33.1923 63.3722 32.6913 62.9972 32.3353Z" fill="#1F1C4F"/>
</svg>
