<svg width="78" height="78" viewBox="0 0 78 78" fill="none" xmlns="http://www.w3.org/2000/svg">
<path fill-rule="evenodd" clip-rule="evenodd" d="M27.791 24.295H51.496V21.295H27.791V24.295Z" fill="#1F1C4F"/>
<path fill-rule="evenodd" clip-rule="evenodd" d="M27.791 64.275H51.496V61.275H27.791V64.275Z" fill="#1F1C4F"/>
<path fill-rule="evenodd" clip-rule="evenodd" d="M61.2245 69.1045C61.2245 70.3925 60.1765 71.4395 58.8895 71.4395H19.8345C18.5475 71.4395 17.4995 70.3925 17.4995 69.1045V66.1635L17.4615 66.2145V14.1215V12.0395C17.4615 13.0255 18.6615 14.0495 19.9835 14.0625H58.8895C60.1765 14.0625 61.2245 15.1095 61.2245 16.3975V69.1045ZM58.8895 11.5625H56.4265L56.4585 8.03448C56.4715 5.81948 54.6875 4.01348 52.4725 4.00038C52.3185 3.99948 52.1645 4.00648 52.0125 4.02348L19.1395 7.61448L19.1415 7.62348C15.0615 8.09748 15.0275 11.0845 15.0275 11.0845V16.1275C15.0225 16.2195 14.9995 16.3055 14.9995 16.3975V69.1045C14.9995 71.7715 17.1685 73.9395 19.8345 73.9395H58.8895C61.5555 73.9395 63.7245 71.7715 63.7245 69.1045V16.3975C63.7245 13.7315 61.5555 11.5625 58.8895 11.5625Z" fill="#1F1C4F"/>
<path fill-rule="evenodd" clip-rule="evenodd" d="M31.49 35.2675C32.16 35.4995 32.855 35.7045 33.568 35.8785C33.881 34.9395 34.339 33.8215 34.988 32.7895C33.68 33.3815 32.495 34.2205 31.49 35.2675ZM44.298 32.7895C44.947 33.8215 45.406 34.9395 45.718 35.8785C46.43 35.7045 47.126 35.4995 47.794 35.2675C46.79 34.2205 45.606 33.3825 44.298 32.7895ZM35.663 36.2935C36.623 36.4395 37.601 36.5345 38.585 36.5735V32.0675C37.752 32.5085 36.949 33.4595 36.278 34.8185C36.053 35.2745 35.847 35.7695 35.663 36.2935ZM40.701 32.0675V36.5735C41.684 36.5345 42.663 36.4395 43.623 36.2935C43.438 35.7685 43.232 35.2745 43.007 34.8185C42.337 33.4595 41.535 32.5085 40.701 32.0675ZM28.385 42.0355H32.505C32.561 40.6085 32.732 39.2285 33.013 37.9235C32.012 37.6755 31.04 37.3715 30.112 37.0175C29.143 38.5315 28.552 40.2495 28.385 42.0355ZM34.624 42.0355H38.585V38.6925C37.403 38.6485 36.23 38.5315 35.089 38.3465C34.835 39.5145 34.679 40.7515 34.624 42.0355ZM40.701 42.0355H44.661C44.607 40.7505 44.451 39.5135 44.197 38.3465C43.054 38.5315 41.883 38.6485 40.701 38.6925V42.0355ZM46.781 42.0355H50.901C50.733 40.2495 50.142 38.5315 49.174 37.0175C48.245 37.3725 47.272 37.6755 46.27 37.9235C46.553 39.2305 46.724 40.6105 46.781 42.0355ZM34.624 44.1535C34.679 45.4365 34.835 46.6735 35.089 47.8415C36.232 47.6555 37.406 47.5385 38.585 47.4965V44.1535H34.624ZM40.701 47.4965C41.881 47.5385 43.053 47.6555 44.197 47.8415C44.451 46.6745 44.607 45.4375 44.661 44.1535H40.701V47.4965ZM46.27 48.2645C47.271 48.5115 48.245 48.8145 49.174 49.1705C50.142 47.6575 50.733 45.9385 50.901 44.1535H46.781C46.724 45.5775 46.553 46.9565 46.27 48.2645ZM28.385 44.1535C28.552 45.9375 29.143 47.6565 30.112 49.1705C31.041 48.8145 32.013 48.5115 33.013 48.2645C32.732 46.9585 32.561 45.5795 32.505 44.1535H28.385ZM31.49 50.9205C32.495 51.9675 33.68 52.8065 34.988 53.3985C34.339 52.3665 33.881 51.2485 33.568 50.3095C32.856 50.4825 32.161 50.6875 31.49 50.9205ZM45.718 50.3095C45.406 51.2485 44.947 52.3665 44.298 53.3985C45.606 52.8065 46.79 51.9675 47.794 50.9205C47.125 50.6875 46.429 50.4825 45.718 50.3095ZM35.663 49.8955C35.848 50.4215 36.054 50.9155 36.278 51.3695C36.949 52.7275 37.752 53.6795 38.585 54.1215V49.6145C37.599 49.6545 36.621 49.7485 35.663 49.8955ZM40.701 49.6145V54.1215C41.535 53.6795 42.337 52.7275 43.007 51.3695C43.232 50.9135 43.439 50.4195 43.623 49.8955C42.665 49.7485 41.686 49.6545 40.701 49.6145ZM39.639 56.5175C36.14 56.5175 32.85 55.1955 30.328 52.7645C27.677 50.2105 26.219 46.7765 26.219 43.0945C26.219 37.0565 30.275 31.7305 36.085 30.1445C40.156 29.0275 44.421 29.8565 47.783 32.4205C51.141 34.9825 53.068 38.8725 53.068 43.0945C53.068 50.3455 47.395 56.2385 40.154 56.5075C39.982 56.5145 39.811 56.5175 39.639 56.5175Z" fill="#DA1710"/>
</svg>
