<svg width="78" height="78" viewBox="0 0 78 78" fill="none" xmlns="http://www.w3.org/2000/svg">
<path fill-rule="evenodd" clip-rule="evenodd" d="M37.7109 67.9121C21.2969 67.9121 7.94287 54.5581 7.94287 38.1441C7.94287 21.7301 21.2969 8.37712 37.7109 8.37712C54.1239 8.37712 67.4779 21.7301 67.4779 38.1441C67.4779 54.5581 54.1239 67.9121 37.7109 67.9121ZM64.8799 20.7701C59.1389 11.8221 49.1089 5.87512 37.7109 5.87512C19.9189 5.87512 5.44287 20.3501 5.44287 38.1431C5.44287 45.2761 7.77387 51.8731 11.7089 57.2211C17.4489 66.1751 27.4819 72.1251 38.8849 72.1251C56.6769 72.1251 71.1519 57.6501 71.1519 39.8581C71.1519 32.7201 68.8179 26.1201 64.8799 20.7701Z" fill="#1F1C4F"/>
<path fill-rule="evenodd" clip-rule="evenodd" d="M45.7489 46.3555C45.7489 48.2365 45.9659 49.4935 46.3999 50.1245C46.7289 50.6115 47.1829 50.8545 47.7619 50.8545C48.3539 50.8545 48.8079 50.6185 49.1239 50.1445C49.5579 49.4995 49.7739 48.2365 49.7739 46.3555C49.7739 44.4745 49.5639 43.2115 49.1429 42.5665C48.8139 42.0935 48.3539 41.8565 47.7619 41.8565C47.1699 41.8565 46.7159 42.0935 46.3999 42.5665C45.9659 43.2115 45.7489 44.4745 45.7489 46.3555ZM41.4279 46.3755C41.4279 43.7835 41.9969 41.8635 43.1339 40.6135C44.2719 39.3635 45.8279 38.7385 47.8009 38.7385C49.7879 38.7385 51.3499 39.3635 52.4879 40.6135C53.6259 41.8635 54.1949 43.7835 54.1949 46.3755C54.1949 48.9805 53.6259 50.9075 52.4879 52.1575C51.3499 53.4065 49.8079 54.0315 47.8599 54.0315C45.8479 54.0315 44.2719 53.4065 43.1339 52.1575C41.9969 50.9075 41.4279 48.9805 41.4279 46.3755ZM31.8919 53.9725H27.4019L44.7379 23.4455H49.1089L31.8919 53.9725ZM26.2329 31.0425C26.2329 32.9235 26.4499 34.1875 26.8839 34.8315C27.2129 35.3055 27.6669 35.5425 28.2459 35.5425C28.8379 35.5425 29.2979 35.3055 29.6269 34.8315C30.0479 34.1875 30.2589 32.9235 30.2589 31.0425C30.2589 29.1615 30.0479 27.9055 29.6269 27.2735C29.2979 26.7875 28.8379 26.5435 28.2459 26.5435C27.6669 26.5435 27.2129 26.7805 26.8839 27.2535C26.4499 27.8985 26.2329 29.1615 26.2329 31.0425ZM21.9119 31.0825C21.9119 28.4905 22.4799 26.5695 23.6189 25.3205C24.7559 24.0705 26.2989 23.4455 28.2459 23.4455C30.2589 23.4455 31.8339 24.0675 32.9719 25.3105C34.1099 26.5535 34.6789 28.4775 34.6789 31.0825C34.6789 33.6735 34.1099 35.5945 32.9719 36.8445C31.8339 38.0945 30.2909 38.7185 28.3449 38.7185C26.3319 38.7185 24.7559 38.0975 23.6189 36.8545C22.4799 35.6105 21.9119 33.6875 21.9119 31.0825Z" fill="#DA1710"/>
</svg>
