<svg width="78" height="78" viewBox="0 0 78 78" fill="none" xmlns="http://www.w3.org/2000/svg">
<path fill-rule="evenodd" clip-rule="evenodd" d="M11.0082 70.6138L12.4082 61.5538L12.4312 61.4228C12.8922 58.7648 14.7062 56.4798 17.2832 55.3088C18.9822 54.5388 22.2632 53.0408 25.3242 51.5928L27.7162 50.4488C28.1482 50.2388 28.5622 50.0368 28.9532 49.8418C30.1842 51.0458 34.1092 54.4438 39.3112 54.5178C39.3692 54.5188 39.4272 54.5188 39.4862 54.5188C43.0622 54.5188 46.4452 52.9238 49.5572 49.8068C50.2322 50.1368 50.9682 50.4898 51.7472 50.8588L54.1572 51.9838C56.9102 53.2568 59.6882 54.5058 61.2072 55.1848C63.7912 56.3398 65.6182 58.6148 66.0962 61.2758L67.5702 70.4528L11.0082 70.6138ZM32.7082 46.6698C33.2942 45.6138 33.6162 44.4358 33.7662 43.2758C35.4402 44.4098 37.3372 45.1278 39.4752 45.1278C41.4392 45.1278 43.1792 44.5748 44.7182 43.6738C44.9832 45.2178 45.5272 46.5018 46.3222 47.5118C46.6352 47.9078 46.9952 48.2398 47.3192 48.5008C44.8032 50.8608 42.1692 52.0438 39.3652 52.0178C35.6312 51.9718 32.5742 49.7188 31.1952 48.5058C32.4262 47.4508 32.7082 46.6698 32.7082 46.6698ZM26.5492 27.2048C26.9342 25.2968 29.0462 22.8498 31.1972 22.3648C34.0272 21.5958 39.9332 23.0248 43.3032 17.7808C45.5772 18.5498 47.9682 16.8728 50.1282 20.5308C50.8862 22.2178 51.0022 23.9908 51.3232 26.0318C51.2952 26.5118 51.6522 27.3488 52.0392 27.6808C51.1762 30.7408 47.3152 42.6278 39.4752 42.6278C31.4862 42.6278 27.0682 28.9168 26.5492 27.2048ZM71.3582 60.5278L71.3282 60.3568C70.6722 56.6398 68.1542 53.4628 64.5922 51.8588C61.9372 50.6628 55.1612 48.4448 51.7472 46.7078C48.5562 45.0848 47.3162 42.5308 47.3172 41.6718C50.0042 39.0578 51.8622 35.4368 53.0372 32.5078C53.1072 32.5738 53.1892 32.6178 53.2942 32.6178C55.7722 32.6178 57.0082 28.9798 57.0082 27.6208C57.0082 26.3188 56.2122 25.2638 55.2102 25.1778C56.0642 23.8248 56.2822 22.5128 56.2822 22.5128C57.0992 18.1358 56.0552 15.2538 54.3062 12.6518C52.4392 9.81379 49.6612 7.81579 46.0442 8.22979C45.1812 6.66879 43.7952 5.71279 42.1252 5.22579C41.2892 4.98279 40.4172 4.90179 39.5462 4.89179C38.4132 4.87779 37.2182 4.94579 36.0392 5.03579C30.4172 5.46379 25.9772 8.37679 23.8482 12.5468C22.2432 15.6818 21.4872 19.3478 22.4182 22.5428C22.7042 23.5238 23.1262 24.4058 23.5782 25.1718C22.5522 25.2278 21.7332 26.2978 21.7332 27.6208C21.7332 28.9798 22.9692 32.6178 25.4462 32.6178C25.6072 32.6178 25.7182 32.5278 25.7982 32.3828C27.0072 35.1808 28.8682 38.6818 31.4332 41.3088C31.4462 42.9938 31.1532 45.5218 29.4262 46.7648C29.2732 46.8758 29.1072 46.9768 28.9302 47.0678C25.4932 48.8268 18.9502 51.8178 16.2972 53.0218C12.9652 54.5338 10.6162 57.5108 10.0172 60.9728L8.13721 73.1108L57.5822 72.9708H73.3642L71.3582 60.5278Z" fill="#1F1C4F"/>
<path fill-rule="evenodd" clip-rule="evenodd" d="M47.304 73.012H58.165V60.461H47.304V73.012Z" fill="#DA1710"/>
</svg>
