<svg width="78" height="78" viewBox="0 0 78 78" fill="none" xmlns="http://www.w3.org/2000/svg">
<path fill-rule="evenodd" clip-rule="evenodd" d="M35.581 29.212C35.581 30.682 34.9971 32.0917 33.9576 33.1311C32.9182 34.1706 31.5085 34.7545 30.0385 34.7545C28.5685 34.7545 27.1588 34.1706 26.1194 33.1311C25.0799 32.0917 24.496 30.682 24.496 29.212C24.496 27.742 25.0799 26.3323 26.1194 25.2929C27.1588 24.2534 28.5685 23.6695 30.0385 23.6695C31.5085 23.6695 32.9182 24.2534 33.9576 25.2929C34.9971 26.3323 35.581 27.742 35.581 29.212ZM29.406 49.572C29.1607 51.012 28.3534 52.2955 27.1617 53.1403C25.97 53.9851 24.4915 54.3218 23.0515 54.0765C21.6115 53.8312 20.328 53.0239 19.4832 51.8322C18.6384 50.6405 18.3017 49.162 18.547 47.722C18.7923 46.282 19.5996 44.9984 20.7913 44.1537C21.983 43.3089 23.4615 42.9722 24.9015 43.2175C26.3415 43.4628 27.6251 44.2701 28.4698 45.4618C29.3146 46.6535 29.6513 48.132 29.406 49.572ZM47.9 40.385C48.2616 41.0114 48.4963 41.7029 48.5906 42.42C48.685 43.1371 48.6372 43.8658 48.4499 44.5644C48.2627 45.263 47.9397 45.9179 47.4993 46.4917C47.059 47.0655 46.5099 47.5469 45.8835 47.9085C45.2571 48.2701 44.5656 48.5048 43.8485 48.5991C43.1314 48.6935 42.4027 48.6457 41.7041 48.4584C40.2932 48.0802 39.0903 47.1571 38.36 45.892C37.6297 44.6269 37.4319 43.1235 37.8101 41.7126C38.1883 40.3017 39.1114 39.0988 40.3765 38.3685C41.6416 37.6382 43.145 37.4404 44.5559 37.8186C45.9668 38.1967 47.1697 39.1199 47.9 40.385Z" fill="#DA1710"/>
<path fill-rule="evenodd" clip-rule="evenodd" d="M63.9339 50.143C63.6826 50.4697 63.369 50.7434 63.0113 50.9484C62.6536 51.1533 62.2589 51.2854 61.8499 51.337C61.6581 51.3589 61.4646 51.3629 61.2719 51.349C61.2139 51.345 61.1589 51.337 61.1019 51.33C60.9671 51.3153 60.8335 51.2912 60.7019 51.258C60.6459 51.245 60.5899 51.232 60.5369 51.215C60.3727 51.166 60.2128 51.1035 60.0589 51.028C59.6819 50.8416 59.346 50.5815 59.0712 50.263C58.7964 49.9446 58.5882 49.5743 58.4589 49.174C58.3997 48.9936 58.3568 48.8082 58.3309 48.62C58.2382 47.9039 58.1269 47.1903 57.9969 46.48C57.1925 41.9678 55.625 37.6257 53.3619 33.64C51.0859 29.6387 48.1281 26.0659 44.6219 23.083C43.8577 22.4328 43.068 21.813 42.2549 21.225C41.6092 20.7592 40.9489 20.314 40.2749 19.89C40.2389 19.867 40.2019 19.841 40.1629 19.818C39.5143 19.413 38.8534 19.0281 38.1809 18.664L37.9729 18.554C36.6683 17.8581 35.321 17.2456 33.9389 16.72C33.8369 16.682 33.7339 16.642 33.6309 16.605C32.9764 16.3633 32.314 16.1432 31.6449 15.945C31.5719 15.922 31.4969 15.905 31.4239 15.882C30.8129 15.7069 30.1966 15.5508 29.5759 15.414C29.4789 15.394 29.3829 15.369 29.2879 15.348C27.8795 15.0543 26.4513 14.8654 25.0149 14.783C24.3594 14.7473 23.7316 14.5068 23.2199 14.0955C22.7083 13.6841 22.3386 13.1226 22.1629 12.49C22.1159 12.3376 22.0824 12.1813 22.0629 12.023C22.0368 11.8449 22.0278 11.6648 22.0359 11.485C22.0546 11.0707 22.1554 10.6643 22.3325 10.2893C22.5097 9.91439 22.7597 9.57843 23.0679 9.30101C23.3738 9.02481 23.7316 8.81227 24.1205 8.67578C24.5094 8.53929 24.9215 8.48158 25.3329 8.50601C46.8859 9.60001 62.2049 29.356 64.5649 47.823C64.6185 48.2322 64.5903 48.648 64.482 49.0463C64.3737 49.4445 64.1874 49.8173 63.9339 50.143ZM9.92795 62.617L22.9479 16.821C23.5479 17.081 24.1979 17.243 24.8879 17.278C38.2059 17.955 53.4279 29.982 55.8509 48.935C55.9289 49.543 56.1139 50.113 56.3679 50.641L9.92795 62.617ZM48.4139 14.837C45.9599 12.91 37.0899 6.60101 25.4629 6.01001C24.7234 5.9684 23.9829 6.07379 23.2843 6.3201C22.5857 6.56641 21.9429 6.94875 21.3929 7.44501C20.8401 7.94221 20.3915 8.54419 20.0731 9.21606C19.7547 9.88793 19.5728 10.6163 19.5379 11.359C19.4675 12.7769 19.9367 14.1689 20.8509 15.255L7.03995 63.824C6.94495 64.174 6.94195 64.563 7.30795 64.996L10.5039 68.594C10.6565 68.766 10.8536 68.8924 11.0734 68.9595C11.2933 69.0265 11.5274 69.0316 11.7499 68.974L61.1079 56.246C61.1229 56.242 61.1329 56.23 61.1479 56.226C62.1129 56.997 63.8009 57.613 65.3569 57.416C66.0924 57.3239 66.8024 57.0869 67.4457 56.7187C68.089 56.3506 68.653 55.8585 69.1049 55.271C69.5603 54.686 69.895 54.0165 70.0898 53.3012C70.2847 52.5859 70.3357 51.8391 70.2399 51.104C68.6339 38.54 60.2729 23.942 48.4129 14.837H48.4139Z" fill="#1F1C4F"/>
</svg>
