<svg width="78" height="78" viewBox="0 0 78 78" fill="none" xmlns="http://www.w3.org/2000/svg">
<path fill-rule="evenodd" clip-rule="evenodd" d="M14.4321 12.509C12.9671 21.779 15.4101 26.653 19.0061 29.127C27.3601 34.876 37.5271 24.087 31.2931 16.09C28.6091 12.646 23.6011 10.496 14.4331 12.509" fill="#DA1710"/>
<path fill-rule="evenodd" clip-rule="evenodd" d="M19.3611 49.883H56.0581V45.325H19.3611V49.883ZM51.6581 52.713L50.0051 69.833H25.4151L23.7301 52.383H42.9291L51.6931 52.439L51.6581 52.713ZM43.4801 11.962C45.5251 8.98998 49.0441 7.49598 53.9721 7.49598C54.9631 7.49598 56.0281 7.57398 57.1321 7.69398C54.9341 9.35198 49.1571 14.072 44.0861 21.34C42.0451 18.989 41.1361 15.367 43.4801 11.962ZM58.3641 9.89498C59.1391 15.803 57.9221 20.057 54.7191 22.554C51.7411 24.876 48.4221 24.498 45.9881 22.969C50.6991 16.148 56.1061 11.625 58.3641 9.89498ZM57.2181 42.825H38.0811C38.9591 36 41.5131 30.05 44.5721 25.129C45.2181 25.519 45.9781 25.856 46.8081 26.129C47.2851 26.3 47.7741 26.441 48.2771 26.54C49.7711 26.891 51.3101 27.067 52.5391 27.067C54.5531 27.067 56.6661 26.419 58.6651 24.861C63.2031 21.324 64.5601 15.229 62.6981 6.74698C62.6445 6.50116 62.5178 6.27729 62.3347 6.10472C62.1516 5.93216 61.9206 5.81896 61.6721 5.77998C60.4355 5.57904 59.1945 5.406 57.9501 5.26098C50.0781 4.28298 44.5231 6.05498 41.4311 10.544C38.1411 15.326 39.6551 20.409 42.6721 23.476C39.8861 27.882 37.4601 33.087 36.1911 39.01C34.9081 34.339 32.9821 30.509 30.8841 27.472C30.3271 28.125 29.6121 28.724 28.9081 29.213C31.6901 33.31 33.5411 37.868 34.4681 42.825H18.1111C17.4211 42.825 16.8611 43.385 16.8611 44.075V51.133C16.8611 51.823 17.4211 52.383 18.1111 52.383H21.2191L23.0351 71.203C23.0731 71.592 23.2971 71.907 23.6021 72.109C23.9161 72.415 24.8631 72.999 27.5281 72.999H54.3881C55.0321 72.999 55.5711 72.51 55.6321 71.869L57.4611 52.932L60.5561 53.049C61.2471 53.049 61.8061 52.489 61.8061 51.799V44.741C61.8061 44.278 61.5431 43.89 61.1681 43.674C60.2451 43.242 58.6921 42.825 57.2181 42.825Z" fill="#1F1C4F"/>
</svg>
