<svg width="78" height="78" viewBox="0 0 78 78" fill="none" xmlns="http://www.w3.org/2000/svg">
<g clip-path="url(#clip0_2636_7161)">
<path d="M39.582 10.4682V0H37.2537V10.4682H39.582Z" fill="#DA1710"/>
<path d="M67.5225 39.5465H78.0001V37.2202H67.5225V39.5465Z" fill="#DA1710"/>
<path d="M66.0671 12.9689L58.8375 20.192L57.231 18.5869L64.4605 11.3638L66.0671 12.9689Z" fill="#DA1710"/>
<path d="M19.9772 18.5869L12.7477 11.3638L11.1411 12.9689L18.3707 20.192L19.9772 18.5869Z" fill="#DA1710"/>
<path d="M10.4776 39.5465H0V37.2202H10.4776V39.5465Z" fill="#DA1710"/>
<path d="M39.582 77.9302V67.4619H37.2537V77.9302H39.582Z" fill="#DA1710"/>
<path d="M19.9772 59.0177L12.7477 66.2408L11.1411 64.6357L18.3707 57.4126L19.9772 59.0177Z" fill="#DA1710"/>
<path fill-rule="evenodd" clip-rule="evenodd" d="M36.2758 59.8201C36.6949 60.9716 37.7659 61.716 38.9999 61.716C39.1181 61.716 39.2462 61.7187 39.3825 61.7215C40.656 61.7479 42.6501 61.7892 44.0525 59.8201C45.6049 57.6401 47.8361 49.5961 47.8361 49.5961C48.5346 47.6885 50.048 46.1881 51.9572 45.4786L62.1904 41.6984C63.3429 41.2797 64.088 40.1979 64.088 38.9766C64.088 37.7553 63.3429 36.6853 62.1904 36.2549L51.9572 32.4747C50.048 31.7768 48.5462 30.2647 47.8361 28.3572L44.0525 18.1332C43.5 17 40.2223 16.2373 38.9999 16.2373C37.7775 16.2373 36.7065 16.9817 36.2758 18.1332L32.4922 28.3572C31.7937 30.2647 30.2802 31.7652 28.371 32.4747L18.1378 36.2549C16.9853 36.6736 16.2402 37.7553 16.2402 38.9766C16.2402 40.1979 16.9853 41.268 18.1378 41.6984L28.371 45.4786C30.2802 46.1765 31.782 47.6885 32.4922 49.5961L36.2758 59.8201ZM38.4528 18.9242C38.5808 18.5752 38.8835 18.5403 38.9999 18.5403C39.128 18.5403 39.419 18.5868 39.5471 18.9242L43.3307 29.1481C44.2737 31.707 46.2877 33.7076 48.8372 34.6498L59.0704 38.43C59.4196 38.5579 59.4546 38.8487 59.4546 38.9766C59.4546 39.1046 59.408 39.3954 59.0704 39.5233L48.8372 43.3035C46.2761 44.2457 44.2737 46.2579 43.3307 48.8052L39.5471 59.0291C39.419 59.3781 39.128 59.413 38.9999 59.413C38.8719 59.413 38.5808 59.3664 38.4528 59.0291L34.6692 48.8052C33.7262 46.2463 31.7122 44.2457 29.1626 43.3035L18.9295 39.5233C18.5802 39.3954 18.5453 39.1046 18.5453 38.9766C18.5453 38.8487 18.5919 38.5579 18.9295 38.43L29.1626 34.6498C31.7238 33.7076 33.7262 31.6954 34.6692 29.1481L38.4528 18.9242Z" fill="#1F1C4F"/>
<path fill-rule="evenodd" clip-rule="evenodd" d="M59.8448 72.3711C60.0501 72.9352 60.8361 73.6589 61.6276 73.7087C64.3859 73.882 64.8566 72.7333 65.1044 72.1285C65.1363 72.0505 65.1646 71.9816 65.1936 71.9257C65.4473 71.4364 66.8553 67.3188 66.8553 67.3188C67.1975 66.3843 67.8242 66.0328 68.7596 65.6852L73.8879 63.9616C75.0001 63.4565 75.0001 62.4206 75.0001 62.1192C75.0001 61.7053 74.5001 61 73.8879 60.7826L68.7596 58.5532C67.8242 58.2113 67.2032 57.8478 66.8553 56.9132L64.7479 51.867C64.3924 50.7127 61.6276 49.548 60.8361 50.1765C60.1826 50.6954 59.9303 51.3708 59.7227 51.9267L59.7057 51.9723L57.852 56.9813C57.5098 57.9159 56.7683 58.651 55.8329 58.9986L50.9298 60.7892C50.3651 60.9943 50.0001 61.5243 50.0001 62.1227C50.0001 62.721 50.3651 63.2453 50.9298 63.4561L55.5357 65.3015C56.4711 65.6434 57.6431 66.4275 57.9911 67.362L59.8448 72.3711ZM61.3666 52.2917C61.4293 52.1207 61.5776 52.1036 61.6347 52.1036C61.6974 52.1036 61.84 52.1264 61.9027 52.2917L63.7564 57.3007C64.2184 58.5544 65.2052 59.5346 66.4543 59.9962L71.4678 61.8482C71.6389 61.9109 71.656 62.0534 71.656 62.116C71.656 62.1787 71.6332 62.3212 71.4678 62.3839L66.4543 64.2359C65.1995 64.6975 64.2184 65.6833 63.7564 66.9313L61.9027 71.9404C61.84 72.1113 61.6974 72.1284 61.6347 72.1284C61.5719 72.1284 61.4293 72.1056 61.3666 71.9404L59.5129 66.9313C59.0509 65.6776 58.0642 64.6975 56.815 64.2359L51.8015 62.3839C51.6304 62.3212 51.6133 62.1787 51.6133 62.116C51.6133 62.0534 51.6361 61.9109 51.8015 61.8482L56.815 59.9962C58.0699 59.5346 59.0509 58.5487 59.5129 57.3007L61.3666 52.2917Z" fill="#1F1C4F"/>
</g>
<defs>
<clipPath id="clip0_2636_7161">
<rect width="78" height="78" fill="white"/>
</clipPath>
</defs>
</svg>
