<svg width="78" height="78" viewBox="0 0 78 78" fill="none" xmlns="http://www.w3.org/2000/svg">
<path fill-rule="evenodd" clip-rule="evenodd" d="M38.5966 47.1562L27.8236 54.6532C27.4866 54.8872 27.0426 54.5652 27.1616 54.1722L30.9626 41.6102C31.0146 41.4362 30.9536 41.2492 30.8096 41.1392L20.3506 33.2102C20.0236 32.9622 20.1936 32.4412 20.6036 32.4332L33.7256 32.1652C33.9066 32.1612 34.0666 32.0462 34.1256 31.8752L38.4346 19.4772C38.5696 19.0902 39.1176 19.0902 39.2516 19.4772L43.5616 31.8752C43.6206 32.0462 43.7806 32.1612 43.9616 32.1652L57.0836 32.4332C57.4936 32.4412 57.6626 32.9622 57.3356 33.2102L46.8766 41.1392C46.7336 41.2492 46.6716 41.4362 46.7246 41.6102L50.5256 54.1722C50.6446 54.5652 50.2006 54.8872 49.8646 54.6532L39.0906 47.1562C38.9426 47.0522 38.7446 47.0522 38.5966 47.1562Z" fill="#DA1710"/>
<path fill-rule="evenodd" clip-rule="evenodd" d="M38.7109 67.9121C22.2969 67.9121 8.9419 54.5581 8.9419 38.1441C8.9419 21.7301 22.2969 8.37712 38.7109 8.37712C55.1239 8.37712 68.4779 21.7301 68.4779 38.1441C68.4779 54.5581 55.1239 67.9121 38.7109 67.9121ZM65.8799 20.7701C60.1389 11.8221 50.1079 5.87512 38.7109 5.87512C20.9189 5.87512 6.44189 20.3501 6.44189 38.1431C6.44189 45.2761 8.7739 51.8731 12.7089 57.2211C18.4489 66.1751 28.4819 72.1251 39.8849 72.1251C57.6769 72.1251 72.1509 57.6501 72.1509 39.8581C72.1509 32.7201 69.8169 26.1201 65.8799 20.7701Z" fill="#1F1C4F"/>
</svg>
