<svg width="78" height="78" viewBox="0 0 78 78" fill="none" xmlns="http://www.w3.org/2000/svg">
<path fill-rule="evenodd" clip-rule="evenodd" d="M9.16749 62.0618C9.16749 60.0678 10.7955 58.4518 12.8035 58.4518C14.8115 58.4518 16.4395 60.0678 16.4395 62.0618C16.4395 64.0558 14.8115 65.6718 12.8035 65.6718C10.7955 65.6718 9.16749 64.0558 9.16749 62.0618ZM6.00049 69.1518H19.5055V32.5468H6.00049V69.1518Z" fill="#DA1710"/>
<path fill-rule="evenodd" clip-rule="evenodd" d="M65.5961 43.4245L56.8311 63.8855C56.1311 65.5655 54.4901 66.6515 52.6501 66.6515H23.2631H22.0051V33.0985C22.0051 31.8785 22.4711 30.7405 23.3201 29.8945L41.5491 11.6605L41.6611 11.7715L43.7351 13.8265C44.2991 14.3905 44.6271 15.1685 44.6401 15.9675L42.5501 34.3485H61.3481C65.0051 34.3485 65.8981 35.2415 65.8981 38.8995C65.8981 40.6175 65.7301 43.0105 65.5961 43.4245ZM65.1061 31.8485H61.3481H49.1111L50.8091 17.0555L50.8931 16.1325L50.8991 16.0195C50.8991 14.5435 50.3011 13.0995 49.2561 12.0545L46.7851 9.60751C46.3961 9.22151 45.8921 9.02651 45.3821 9.00751V8.99951H41.5921V9.00551C41.0371 8.99451 40.4801 9.19451 40.0601 9.61351L21.5531 28.1245C20.2321 29.4435 19.5051 31.2105 19.5051 33.0985V69.1515H24.5871H52.6501H56.4081C59.2591 69.1515 61.8051 67.4625 62.8921 64.8585L71.6661 44.3725C72.1271 43.1965 72.1561 38.9415 72.1561 38.8995C72.1561 33.8915 70.1131 31.8485 65.1061 31.8485Z" fill="#1F1C4F"/>
</svg>
