<svg width="78" height="78" viewBox="0 0 78 78" fill="none" xmlns="http://www.w3.org/2000/svg">
<path fill-rule="evenodd" clip-rule="evenodd" d="M38 27H64V24H38V27Z" fill="#DA1710"/>
<path fill-rule="evenodd" clip-rule="evenodd" d="M46 34H63V31H46V34Z" fill="#DA1710"/>
<path fill-rule="evenodd" clip-rule="evenodd" d="M67.4563 54.7955H63.9245C63.3144 51.0311 60.069 48.147 56.1566 48.147C52.2473 48.147 49.0008 51.0311 48.3907 54.7955H33.0436V19.8168C33.0436 19.1397 33.5908 18.5882 34.2638 18.5882H66.4147C66.9893 18.5882 67.4563 19.059 67.4563 19.636V54.7955ZM59.7411 60.0295C59.5909 60.1684 59.4345 60.3022 59.268 60.4238C59.1665 60.4963 59.063 60.5627 58.9564 60.628C58.7463 60.7618 58.53 60.8844 58.3016 60.9865C58.2356 61.0161 58.1676 61.0386 58.0996 61.0661C57.8286 61.1744 57.5484 61.2663 57.257 61.3286C57.2296 61.3358 57.1992 61.3378 57.1697 61.3439C56.8418 61.4083 56.5048 61.4471 56.1566 61.4471C55.8094 61.4471 55.4724 61.4083 55.1445 61.3439C55.1161 61.3378 55.0856 61.3358 55.0562 61.3286C54.7658 61.2663 54.4867 61.1744 54.2156 61.0661C54.1486 61.0386 54.0786 61.0161 54.0136 60.9865C53.7852 60.8844 53.568 60.7608 53.3578 60.629C53.2523 60.5627 53.1487 60.4963 53.0482 60.4238C52.8817 60.3022 52.7244 60.1684 52.5731 60.0295C52.4675 59.9325 52.366 59.8365 52.2686 59.7324V59.7313C51.3752 58.7713 50.8169 57.4896 50.8169 56.0731C50.8169 54.7587 51.3072 53.5689 52.0879 52.6345C52.1457 52.565 52.1985 52.4925 52.2584 52.4272C52.3873 52.2883 52.5264 52.1627 52.6685 52.0381C52.7721 51.9472 52.8756 51.8583 52.9863 51.7746C53.1172 51.6765 53.2523 51.5856 53.3923 51.4988C53.5355 51.41 53.6857 51.3303 53.838 51.2558C53.9669 51.1924 54.0938 51.1291 54.2288 51.076C54.4197 51.0004 54.6187 50.9443 54.8217 50.8912C54.9333 50.8615 55.042 50.8238 55.1577 50.8013C55.4805 50.739 55.8115 50.7002 56.1525 50.7002C56.1546 50.7002 56.1556 50.7002 56.1566 50.7002C56.1586 50.7002 56.1597 50.7002 56.1617 50.7002C56.5028 50.7002 56.8347 50.739 57.1575 50.8013C57.2733 50.8238 57.3809 50.8615 57.4936 50.8912C57.6956 50.9443 57.8945 51.0004 58.0874 51.076C58.2204 51.1291 58.3473 51.1924 58.4762 51.2558C58.6305 51.3303 58.7787 51.41 58.9239 51.4988C59.063 51.5856 59.198 51.6765 59.329 51.7746C59.4406 51.8583 59.5431 51.9472 59.6477 52.0381C59.7888 52.1627 59.9279 52.2883 60.0568 52.4272C60.1177 52.4935 60.1695 52.565 60.2274 52.6345C61.008 53.57 61.4983 54.7587 61.4983 56.0731C61.4983 57.6438 60.8131 59.0461 59.7411 60.0295ZM30.5058 54.7965H27.2887C26.6786 51.0321 23.4332 48.147 19.5208 48.147C15.6104 48.147 12.364 51.0321 11.7549 54.7965H9.12362C8.8008 54.7965 8.53788 54.532 8.53788 54.2072V39.7531C8.53788 39.2966 8.70741 38.8605 9.01703 38.5245L19.598 27.0147C19.937 26.6461 20.4182 26.4346 20.9177 26.4346H30.5058V54.7965ZM23.4098 59.7313V59.7324C23.3134 59.8365 23.2109 59.9325 23.1063 60.0285C22.954 60.1684 22.7977 60.3022 22.6302 60.4248C22.5297 60.4973 22.4262 60.5627 22.3206 60.629C22.1105 60.7618 21.8942 60.8844 21.6658 60.9865C21.5998 61.0161 21.5318 61.0396 21.4628 61.0661C21.1928 61.1744 20.9126 61.2663 20.6212 61.3286C20.5928 61.3358 20.5634 61.3378 20.5339 61.3439C20.206 61.4083 19.868 61.4471 19.5208 61.4471C19.1736 61.4471 18.8356 61.4083 18.5087 61.3439C18.4793 61.3378 18.4498 61.3358 18.4204 61.3286C18.13 61.2663 17.8509 61.1744 17.5788 61.0661C17.5118 61.0396 17.4428 61.0161 17.3768 60.9865C17.1484 60.8844 16.9322 60.7608 16.722 60.629C16.6175 60.5627 16.5129 60.4973 16.4134 60.4248C16.2469 60.3022 16.0886 60.1695 15.9373 60.0295C15.8317 59.9325 15.7292 59.8365 15.6328 59.7324C15.6328 59.7313 15.6318 59.7313 15.6318 59.7313C14.7384 58.7713 14.1811 57.4896 14.1811 56.0731C14.1811 55.6309 14.2491 55.2081 14.3496 54.7965C14.3496 54.7955 14.3506 54.7955 14.3506 54.7955C14.5486 53.9846 14.9333 53.2554 15.4511 52.6355C15.5089 52.5661 15.5617 52.4935 15.6216 52.4272C15.7505 52.2883 15.8896 52.1637 16.0307 52.0391C16.1353 51.9472 16.2398 51.8583 16.3495 51.7746C16.4814 51.6765 16.6154 51.5856 16.7555 51.4998C16.8997 51.41 17.0489 51.3303 17.2022 51.2558C17.3311 51.1924 17.458 51.1291 17.592 51.076C17.7829 51.0004 17.9839 50.9443 18.1859 50.8912C18.2975 50.8615 18.4062 50.8238 18.5209 50.8013C18.8437 50.739 19.1746 50.7002 19.5167 50.7002C19.5178 50.7002 19.5198 50.7002 19.5208 50.7002C19.5218 50.7002 19.5238 50.7002 19.5249 50.7002C19.867 50.7002 20.1979 50.739 20.5217 50.8013C20.6365 50.8238 20.7441 50.8615 20.8578 50.8912C21.0588 50.9443 21.2587 51.0004 21.4516 51.076C21.5846 51.1291 21.7115 51.1924 21.8404 51.2558C21.9947 51.3303 22.1429 51.41 22.2871 51.4988C22.4272 51.5856 22.5612 51.6765 22.6921 51.7746C22.8038 51.8583 22.9084 51.9472 23.0119 52.0391C23.153 52.1637 23.2921 52.2883 23.42 52.4272C23.4819 52.4935 23.5337 52.5661 23.5916 52.6355C24.1103 53.2554 24.495 53.9846 24.693 54.7955V54.7965C24.7945 55.2081 24.8625 55.6309 24.8625 56.0731C24.8625 57.4896 24.3042 58.7713 23.4098 59.7313ZM71.5717 20.3019C71.5727 20.2917 71.5747 20.2866 71.5768 20.2774C71.5463 20.2314 71.5209 20.1987 71.4915 20.1548C71.4265 20.0466 71.3555 19.9455 71.2803 19.8454C69.446 17.1543 68.2795 16.565 68.2795 16.565L68.2866 16.5824C67.7405 16.2423 67.103 16.036 66.4147 16.036H34.2638C32.1919 16.036 30.5058 17.7324 30.5058 19.8168V23.8815H20.9177C19.7127 23.8815 18.5523 24.3921 17.7352 25.2816L7.15321 36.7914C6.40911 37.6003 6 38.6522 6 39.7531V54.2072C6 54.8169 6.1807 55.3797 6.48017 55.8617L6.47002 55.8607C6.47002 55.8607 7.35726 57.5305 9.02617 58.8765C9.18656 59.0277 9.36218 59.1574 9.551 59.2718C9.57435 59.2881 9.59567 59.3075 9.62003 59.3238C9.62815 59.3249 9.63424 59.3218 9.64236 59.3218C10.0921 59.5751 10.6027 59.7313 11.1539 59.7313H12.5386C13.8552 62.2641 16.4885 64.0003 19.5208 64.0003C22.5541 64.0003 25.1874 62.2641 26.504 59.7313H33.9877H35.0739H49.1754C50.4921 62.2641 53.1254 64.0003 56.1566 64.0003C59.1899 64.0003 61.8232 62.2641 63.1398 59.7313H70.5718C71.3727 59.7313 72.0244 59.0767 72.0244 58.2709V22.0197C72.0244 21.3936 71.8509 20.8146 71.5717 20.3019Z" fill="#1F1C4F"/>
</svg>
