<svg width="78" height="78" viewBox="0 0 78 78" fill="none" xmlns="http://www.w3.org/2000/svg">
<path fill-rule="evenodd" clip-rule="evenodd" d="M33.4631 72.1439C28.1031 72.0459 26.1611 67.1689 26.1631 63.9139V63.9069C26.1631 62.7029 27.1411 61.7259 28.3451 61.7269H28.3621C28.6485 61.7271 28.932 61.7836 29.1965 61.8934C29.461 62.0031 29.7013 62.1639 29.9036 62.3665C30.106 62.5691 30.2664 62.8097 30.3758 63.0743C30.4852 63.339 30.5414 63.6226 30.5411 63.9089C30.5501 64.5559 30.7371 67.7149 33.5411 67.7659C34.4701 67.7749 35.1511 67.5549 35.6511 67.0709C36.5871 66.1639 36.8131 64.4759 36.8201 63.9009V55.3199H41.1991V63.9159C41.1991 64.3099 41.1291 67.8289 38.7311 70.1829C36.7811 72.0969 34.6441 72.1659 33.4631 72.1429V72.1439Z" fill="#DA1710"/>
<path fill-rule="evenodd" clip-rule="evenodd" d="M61.249 34.714C59.116 34.714 57.179 35.192 55.643 36V35.999H55.639C54.743 22.165 49.016 14.402 44.958 10.587C44.9605 10.5868 44.963 10.5875 44.965 10.589L44.962 10.587C45.6781 10.7789 46.3863 10.999 47.085 11.247C47.211 11.292 47.331 11.347 47.456 11.394C48.02 11.602 48.581 11.818 49.131 12.06C49.35 12.156 49.561 12.269 49.777 12.37C50.223 12.58 50.668 12.787 51.103 13.018C51.369 13.158 51.627 13.318 51.89 13.468C52.26 13.678 52.633 13.886 52.994 14.113C53.291 14.299 53.578 14.502 53.868 14.698C54.18 14.908 54.494 15.114 54.799 15.336C55.117 15.568 55.424 15.816 55.733 16.06C55.993 16.265 56.257 16.466 56.511 16.679C56.843 16.959 57.163 17.253 57.484 17.547C57.697 17.742 57.914 17.933 58.123 18.135C58.464 18.463 58.791 18.805 59.117 19.149C59.289 19.329 59.465 19.509 59.633 19.695C59.975 20.072 60.302 20.462 60.626 20.855C60.762 21.021 60.9 21.184 61.033 21.352C61.37 21.778 61.692 22.216 62.009 22.66C62.112 22.806 62.218 22.95 62.319 23.099C62.645 23.573 62.954 24.057 63.255 24.548C63.333 24.677 63.412 24.804 63.489 24.933C63.796 25.451 64.086 25.979 64.363 26.515L64.535 26.847C64.816 27.405 65.08 27.972 65.329 28.547L65.453 28.839C65.9939 30.124 66.4486 31.4435 66.814 32.789L66.879 33.033C67.048 33.677 67.198 34.327 67.327 34.985L67.35 35.083L67.345 35.082C67.433 35.54 67.531 35.995 67.6 36.46C65.963 35.376 63.726 34.714 61.249 34.714ZM45.535 34.714C43.528 34.714 41.701 35.144 40.212 35.867V35.865C40.211 35.865 40.209 35.865 40.207 35.867V10.2C40.207 10.124 40.178 10.058 40.164 9.98599L40.17 9.98899L40.169 9.98599C40.877 10.422 42.341 11.429 44.042 13.176L44.072 13.208C44.4115 13.5585 44.7413 13.9183 45.061 14.287L45.155 14.397C45.298 14.562 45.44 14.733 45.584 14.907L45.702 15.055C45.8895 15.2858 46.0725 15.5202 46.251 15.758C46.382 15.932 46.513 16.11 46.645 16.293L46.798 16.508C46.924 16.687 47.05 16.87 47.176 17.057L47.341 17.305C47.462 17.49 47.584 17.68 47.704 17.874C47.762 17.964 47.819 18.056 47.876 18.149C47.993 18.341 48.11 18.539 48.227 18.739L48.402 19.044C48.5771 19.3571 48.7488 19.6721 48.917 19.989C49.027 20.199 49.136 20.418 49.244 20.637C49.302 20.754 49.359 20.867 49.416 20.985C49.522 21.208 49.628 21.438 49.732 21.669C49.787 21.791 49.844 21.911 49.898 22.036C50.002 22.274 50.103 22.518 50.204 22.763C50.256 22.889 50.309 23.012 50.359 23.14C50.461 23.395 50.559 23.657 50.656 23.92C50.703 24.047 50.752 24.172 50.798 24.3C50.897 24.579 50.993 24.866 51.089 25.154C51.129 25.274 51.171 25.393 51.21 25.516C51.311 25.831 51.406 26.155 51.501 26.481C51.531 26.585 51.563 26.685 51.594 26.79C51.702 27.176 51.806 27.572 51.906 27.974L51.944 28.121C52.282 29.498 52.566 30.967 52.783 32.533C52.792 32.593 52.799 32.659 52.807 32.72C52.868 33.178 52.926 33.642 52.976 34.117C52.988 34.229 52.996 34.346 53.007 34.459C53.045 34.839 53.083 35.217 53.112 35.608L53.107 35.606C53.156 36.248 53.196 36.901 53.222 37.571C51.621 35.845 48.812 34.714 45.535 34.714ZM37.712 10.2V35.748L37.707 35.746V37.708C37.697 37.718 37.686 37.728 37.676 37.74C36.106 35.915 33.206 34.714 29.819 34.714C27.718 34.714 25.806 35.178 24.281 35.964V35.963H24.276C25.384 16.502 37.182 10.248 37.709 9.97999C37.728 9.96899 37.741 9.94999 37.761 9.93899L37.76 9.94299L37.765 9.93899C37.746 10.026 37.712 10.108 37.712 10.201V10.2ZM21.812 35.667L21.809 35.665C21.772 36.269 21.728 36.864 21.713 37.492C20.1 35.812 17.33 34.715 14.104 34.715C13.861 34.715 13.621 34.725 13.382 34.739C13.326 34.742 13.27 34.741 13.215 34.744C12.335 34.802 11.493 34.944 10.706 35.159V35.158C9.628 35.451 8.652 35.878 7.826 36.414C9.801 22.978 20.41 12.004 33.366 9.96399C33.032 10.242 32.678 10.558 32.315 10.894C32.3174 10.8938 32.3198 10.8931 32.322 10.892C28.239 14.672 22.618 22.266 21.812 35.667ZM33.696 7.38699C18.17 9.46499 5.591 23.376 5.03 39.792C5.01603 40.1702 5.00603 40.5486 5 40.927C5 41.617 5.56 42.177 6.25 42.177H8.789C10.119 42.177 10.143 41.364 10.168 40.841C10.243 39.267 12.631 36.956 15.857 37.361C18.442 37.793 20.46 39.134 20.672 40.666V41.104C20.672 41.794 21.257 42.354 21.978 42.354H24.227C25.511 42.354 25.871 41.664 25.871 40.927C25.871 39.346 28.52 37.027 31.573 37.362C34.306 37.818 36.43 39.287 36.43 40.927C36.43 41.279 36.711 42.234 37.712 42.339V55.319H40.212V42.323C41.114 42.176 41.587 41.563 41.587 40.928C41.587 39.347 44.177 36.898 47.288 37.363C49.78 37.778 52.074 39.303 52.076 40.503V41.105C52.076 41.795 52.685 42.355 53.437 42.355H55.778C56.898 42.355 57.302 41.517 57.302 40.928C57.302 39.343 60.197 37.012 63.031 37.361C65.901 37.828 67.85 39.357 67.85 40.845C67.895 42.015 68.457 42.355 69.241 42.355H71.472C72.736 42.355 73.102 41.713 73.082 40.585C72.908 23.47 59.608 8.85099 43.382 7.16299C39.009 6.79399 36.948 7.01699 33.696 7.38699Z" fill="#1F1C4F"/>
</svg>
