<svg width="78" height="78" viewBox="0 0 78 78" fill="none" xmlns="http://www.w3.org/2000/svg">
<path fill-rule="evenodd" clip-rule="evenodd" d="M46.982 30.0089L44.893 27.9199L36.813 35.9999L28.733 27.9199L26.644 30.0089L34.724 38.0889L26.644 46.1689L28.733 48.2579L36.813 40.1779L44.893 48.2579L46.982 46.1689L38.902 38.0889L46.982 30.0089Z" fill="#DA1710"/>
<path fill-rule="evenodd" clip-rule="evenodd" d="M61.126 35.491C61.126 50.277 50.694 63.953 36.814 67.435C22.932 63.953 12.5 50.276 12.5 35.491V19.683L36.813 8.74298L61.125 19.683V35.491H61.126ZM36.814 6.00098L10 18.065V35.49C10 42.764 12.169 50.039 17.16 56.777C17.18 56.802 17.197 56.827 17.216 56.85C20.374 61.1 24.42 64.645 29.052 67.096C32.4901 69.0403 36.1822 70.4963 40.022 71.422L40.312 71.492L40.604 71.422C55.724 67.797 67.124 52.987 67.124 36.973V19.551L36.814 6.00098Z" fill="#1F1C4F"/>
</svg>
