<svg width="60" height="88" viewBox="0 0 60 88" fill="none" xmlns="http://www.w3.org/2000/svg">
<g clip-path="url(#clip0_118_1699)">
<path d="M56 4H4V84H56V4Z" fill="#0A2652"/>
<path fill-rule="evenodd" clip-rule="evenodd" d="M55.9381 82.4647C55.9381 83.1989 55.5694 83.8952 54.4997 83.9166H5.42196C5.39341 83.9166 5.36001 83.9166 5.32478 83.9093C4.6244 83.869 4.06435 83.2898 4.06435 82.5746C4.06435 82.5746 4.06921 44.6832 4.06921 22.0111H19.023L13.0009 24.2191V57.3948C13.0009 58.3243 13.5136 58.8107 14.2966 58.8821H34.6037C41.5443 58.6581 47.0963 52.9507 47.0963 45.9276C47.0963 41.3218 44.7072 37.2835 41.1148 34.9827C43.3593 32.9822 45.0583 29.7117 45.0583 26.4882C45.0583 17.9064 38.9979 13.0357 30.3365 13.0357H21.9181V4.08342C36.1983 4.08342 54.4997 4.0883 54.4997 4.0883C55.6101 4.0883 55.9381 4.8182 55.9381 5.53772V82.4647ZM4.06921 5.43275V5.42848C4.06921 4.71323 4.61954 4.14078 5.30777 4.08342C5.30777 4.08342 8.38321 4.08342 13.0009 4.08342V13.0406H4.06921C4.06921 8.34869 4.06921 5.43275 4.06921 5.43275ZM21.785 21.7682H31.4755C34.0249 21.7682 36.0774 23.9567 36.0774 26.5004C36.0774 29.0532 34.0249 31.1227 31.4755 31.1227L29.8008 31.2112C28.9012 31.2466 28.434 31.7781 28.4031 32.6081V38.2868C28.4674 39.1907 29.0153 39.66 29.8767 39.66H34.0388C36.8033 39.66 39.0405 41.9131 39.0405 44.6783C39.0405 47.3007 37.0238 49.4416 34.4804 49.6558L23.204 49.6656C22.3664 49.6442 21.8185 49.1578 21.785 48.2351V21.7682ZM57.1554 0H2.84037C1.2744 0 0 1.28038 0 2.85613V85.1396C0 86.7178 1.2744 88 2.84037 88H57.1554C58.7262 88 60 86.7178 60 85.1396V2.85613C60 1.28038 58.7262 0 57.1554 0ZM27.1493 72.7118L29.5529 65.8723L32.1017 72.7118H27.1493ZM31.3874 64.0793C31.2045 63.7076 31.0739 63.4641 30.4167 63.4641H28.6898C28.0325 63.4641 27.9019 63.7076 27.7191 64.0793C27.5526 64.4467 22.7193 77.6007 22.7193 77.6007C22.7193 77.6007 22.435 78.1683 23.1633 78.1683C23.9062 78.1683 24.0672 78.1781 24.383 78.1781C24.7153 78.1781 25.0992 78.1158 25.2796 77.5916C25.4382 77.1339 26.161 75.1169 26.161 75.1169H32.9448C32.9448 75.1169 33.6689 77.1339 33.8268 77.5916C34.0072 78.1158 34.3918 78.1781 34.724 78.1781C35.0399 78.1781 35.2009 78.1683 35.9438 78.1683C36.6721 78.1683 36.3872 77.6007 36.3872 77.6007C36.3872 77.6007 31.5532 64.4467 31.3874 64.0793ZM18.8177 70.5275H15.3997V65.8741L18.8177 65.8723C20.0976 65.8723 21.1351 66.914 21.1351 68.1999C21.1351 69.4858 20.0976 70.5275 18.8177 70.5275ZM18.8584 63.4617H13.53C13.0671 63.4617 13.0009 63.8455 13.0009 64.0842C13.0009 64.3246 13.0034 77.6343 13.0034 77.6343C13.0034 78.1921 13.5136 78.1683 13.5701 78.1683H14.9326C15.1555 78.1683 15.4021 77.9871 15.4021 77.7295L15.3997 72.8723H18.8584C21.4449 72.8723 23.5418 70.7662 23.5418 68.1664C23.5418 65.5678 21.4449 63.4617 18.8584 63.4617ZM46.1152 63.4489C45.3724 63.4489 45.0389 63.4391 44.7236 63.4391C44.3913 63.4391 44.0068 63.5013 43.8264 64.0256L43.1637 65.2211L40.505 69.9472L37.8462 65.2211L37.1829 64.0256C37.0025 63.5013 36.618 63.4391 36.2857 63.4391C35.9705 63.4391 35.637 63.4489 34.8941 63.4489C34.1658 63.4489 34.4507 64.0164 34.4507 64.0164C34.4507 64.0164 37.1483 68.8224 39.3193 72.7057C39.3193 72.7057 39.2828 77.3219 39.2828 77.6441C39.2828 77.9657 39.4535 78.1683 39.7997 78.1683H41.0669C41.2946 78.1683 41.7004 78.1494 41.7004 77.6581L41.6901 72.7057C43.8611 68.8224 46.5587 64.0164 46.5587 64.0164C46.5587 64.0164 46.8436 63.4489 46.1152 63.4489Z" fill="#FFFFFE"/>
</g>
<defs>
<clipPath id="clip0_118_1699">
<rect width="60" height="88" fill="white"/>
</clipPath>
</defs>
</svg>
