<svg width="90" height="41" viewBox="0 0 90 41" fill="none" xmlns="http://www.w3.org/2000/svg">
<g clip-path="url(#clip0_139_1428)">
<path d="M58 25.5C57.1 25.5 56 25 56 24V2C56 1 57 0 58 0H88C89 0 90 1 90 2V40.2C90 40.7 89.6 41 89.1 41C88.5 41 88.3 40.5 88.2 40.2C79.7 25.5 58.9 25.5 58 25.5Z" fill="#E91B2B"/>
<path d="M80 7.00005L77.9 15.5C77.9 15.5 77.9 15.6 78 15.6H82.4C82.4 15.6 82.5 15.6 82.5 15.5L80.4 7.00005C80.3 6.60005 80.1 6.60005 80 7.00005ZM82.3 2.80005C82.7 2.80005 83 3.00005 83 3.30005L87.7 21.6C87.8 21.8 87.8 22 87.8 22.1C87.8 22.4 87.5 22.7001 87.1 22.7001H84.8C84.4 22.7001 84.2 22.4 84.1 22.1L83.2 18.6C83.2 18.6 83.2 18.6 83.1 18.6H77.2C77.2 18.6 77.2 18.6 77.1 18.6L76.2 22.1C76.1 22.4 75.9 22.7001 75.5 22.7001H73.2C72.8 22.7001 72.5 22.4 72.5 22.1C72.5 22.1 72.5 21.8 72.6 21.6L77.3 3.30005C77.4 3.00005 77.6 2.80005 78 2.80005H82.3Z" fill="white"/>
<path d="M62.3 7.49995C62.3 8.89995 63 9.39995 64.6 10.3L68.1 12.3C70.5 13.7 71.4 15.2 71.4 17.8C71.4 21.3 68.7 23.1 64.9 23.1C61.2 23.1 58.5 21.3 58.5 17.7V16.5C58.5 16.1 58.9 15.7 59.4 15.7H61.4C61.9 15.7 62.3 16.1 62.3 16.5V17.7C62.3 19.1 63.4 20 64.9 20C66.6 20 67.5 19.3 67.5 17.8C67.5 16 66 15.2 64.9 14.6L61 12.4C59.2 11.4 58.5 9.39995 58.5 7.79995C58.5 4.29995 61.1 2.19995 65 2.19995C68.7 2.19995 71.4 4.09995 71.4 7.69995V8.29995C71.4 8.69995 71 8.99995 70.5 8.99995H68.5C68 8.99995 67.6 8.59995 67.6 8.19995V7.59995C67.6 6.19995 66.7 4.99995 65 4.99995C63.3 4.99995 62.3 5.89995 62.3 7.49995Z" fill="white"/>
<path d="M21.5 15.7C21.5 15.6 21.5 15.6 21.5 15.7L17.9 17.1C16.9 17.5 16.7 18.2 16.7 18.8C16.7 19.8 17 20.7 19 20.7C20.4 20.7 21.4 19.7 21.4 18.5L21.5 15.7ZM13 19.2C13 16.9 14.2 15.6 16.1 14.9L19.9 13.5C21.1 13.1 21.5 12.7 21.5 11.9C21.5 10.9 20.7 10.2 19.3 10.2C18 10.2 17.1 10.9 17.1 12C17.1 12.4 16.7 12.8 16.2 12.8H14.5C14 12.8 13.6 12.4 13.6 12C13.6 9.40002 15.9 7.40002 19.3 7.40002C23 7.40002 24.8 9.60002 24.8 12.3V22.1C24.8 22.5 24.4 22.9 23.9 22.9H22.2C21.7 22.9 21.3 22.5 21.3 22.1V22C21.3 21.7 21.2 21.7 21 21.9C20.1 22.8 18.8 23.3 17.4 23.3C15.6 23.2 13 22.2 13 19.2Z" fill="white"/>
<path d="M41.1001 3.8C41.1001 3.4 41.5001 3 42.0001 3H43.7001C44.2001 3 44.6001 3.4 44.6001 3.8V13.4C44.6001 13.7 44.7001 13.7 44.9001 13.5L48.8001 8.9C49.1001 8.5 49.3001 8.3 49.8001 8.3H51.9001C52.4001 8.3 52.7001 8.5 52.7001 8.8C52.7001 8.9 52.6001 9.2 52.5001 9.3L48.1001 14.5C48.0001 14.6 48.0001 14.7 48.1001 14.7L53.1001 21.7C53.2001 21.9 53.2001 22 53.2001 22.1C53.2001 22.5 52.8001 22.8 52.3001 22.8H50.4001C49.9001 22.8 49.6001 22.4 49.3001 22L45.0001 15.8C44.8001 15.5 44.7001 15.6 44.7001 15.9V22C44.7001 22.4 44.3001 22.8 43.8001 22.8H42.1001C41.6001 22.8 41.2001 22.4 41.2001 22L41.1001 3.8Z" fill="white"/>
<path d="M38.7999 11.6C38.7999 9.40002 37.0999 7.40002 34.6999 7.40002C33.1999 7.40002 31.8999 8.00002 31.1999 9.00002C30.9999 9.30002 30.8999 9.20002 30.8999 8.90002V8.70002C30.8999 8.30002 30.4999 7.90002 29.9999 7.90002H28.2999C27.7999 7.90002 27.3999 8.30002 27.3999 8.70002V13.7V21.6V22.2C27.3999 22.6 27.7999 23 28.2999 23H29.9999C30.4999 23 30.8999 22.6 30.8999 22.2V21.5V11.6C31.1999 11.1 31.7999 10.5 32.5999 10.3C32.7999 10.3 32.9999 10.2 33.1999 10.2C33.8999 10.2 34.3999 10.4 34.7999 10.8C34.7999 10.8 34.7999 10.8 34.8999 10.9C35.1999 11.2 35.3999 11.6 35.3999 12C35.3999 12.2 35.3999 12.3 35.3999 12.5V22.2C35.3999 22.6 35.7999 23 36.2999 23H37.9999C38.4999 23 38.8999 22.6 38.8999 22.2L38.7999 11.6Z" fill="white"/>
<path d="M11.5 11.3C11.5 9.2 9.6 7.4 7.4 7.4C5.8 7.4 4.6 8 3.9 9C3.7 9.3 3.5 9.2 3.5 8.9V3.8C3.5 3.4 3.1 3 2.6 3H0.9C0.4 3 0 3.4 0 3.8V22.1C0 22.5 0.4 22.9 0.9 22.9H2.6C3.1 22.9 3.5 22.5 3.5 22.1V21.9C3.5 21.6 3.6 21.5 3.8 21.8C4.5 22.8 5.8 23.2 7.3 23.2C9.6 23.2 11.4 21.6 11.4 19.2C11.4 19.2 11.5 17.7 11.5 15.3C11.5 12.9 11.5 11.3 11.5 11.3ZM8 18.3C8 19.6 7.2 20.5 5.8 20.5C4.9 20.5 3.9 19.9 3.6 19.1V11.7C4 10.9 4.9 10.4 5.8 10.4C7.2 10.4 8 11.3 8 12.6C8 12.6 8 13.4 8 15.2C8 17.2 8 18.3 8 18.3Z" fill="white"/>
</g>
<defs>
<clipPath id="clip0_139_1428">
<rect width="90" height="41" fill="white"/>
</clipPath>
</defs>
</svg>
