<svg width="59" height="60" viewBox="0 0 59 60" fill="none" xmlns="http://www.w3.org/2000/svg">
<g clip-path="url(#clip0_118_1711)">
<path d="M32.1149 6.85122C26.2888 9.51196 22.3495 14.6062 22.3495 20.4554C22.3495 27.8366 29.1484 33.8209 37.5348 33.8209C41.384 33.8209 44.0908 32.9319 47.2552 31.0282C47.5914 30.8271 47.9704 30.6753 48.2186 30.9905C48.361 31.1706 48.3013 31.3894 48.1924 31.5894C44.7359 37.9308 37.7024 42.3402 29.8092 42.3402C18.1463 42.3402 8.69189 32.8858 8.69189 21.2229C8.69189 14.5633 11.7746 8.624 16.5914 4.75279C20.2102 1.84494 29.2793 1.44389 32.1149 6.85122Z" fill="url(#paint0_linear_118_1711)"/>
<path d="M47.9484 15.0282C47.9484 22.0429 41.2489 27.7288 32.985 27.7288C31.7829 27.7288 28.5264 27.5633 26.1965 26.4785C25.5337 26.1696 25.6018 25.7822 26.0573 25.5937C27.1159 25.157 35.4206 23.5633 35.4206 15.0272C35.4206 6.49107 26.607 0.250235 16.5913 4.75076C20.2091 1.84291 24.806 0.103638 29.8091 0.103638C39.6164 0.105732 47.9484 6.78636 47.9484 15.0282Z" fill="#E50056"/>
<path d="M5.27427 47.824C1.83972 47.824 0.000976562 49.891 0.000976562 52.5653V52.6418C0.000976562 55.3318 1.45961 57.0952 5.12244 57.0952C7.76642 57.0952 9.54548 56.2439 10.3046 54.2376H7.75176C7.37166 54.891 6.65752 55.2564 5.28998 55.2564C3.42087 55.2564 2.49312 54.5727 2.25019 53.3266H10.4272V52.3999C10.4272 49.7538 8.6481 47.824 5.27427 47.824ZM2.28056 51.5936C2.58422 50.3622 3.58736 49.6481 5.32035 49.6481C7.00726 49.6481 7.87323 50.2711 8.1015 51.5936H2.28056Z" fill="white"/>
<path d="M20.7467 45.7266H18.7707C18.7707 46.1214 18.7561 46.7601 18.6796 47.1706C18.5425 47.9005 18.3603 48.0544 17.7069 48.1151C17.2964 48.1455 16.8409 48.1455 16.4001 48.1455H14.8503V47.779C14.8503 46.4565 15.109 46.2136 16.2639 46.2136H17.0294V44.3287H16.0053C13.4828 44.3287 12.6158 45.18 12.6158 47.6879V48.1455H10.5645V50.1193H12.6158V56.8366H14.8346L14.8493 50.1193H18.5268V52.8554C18.5268 55.8188 19.3173 56.8376 22.22 56.8376H23.8765V54.756H22.8273C21.0336 54.756 20.7456 54.4973 20.7456 52.4764V50.1204H23.8765V48.1465H20.7456V45.7266H20.7467Z" fill="white"/>
<path d="M30.8231 47.8544C29.1205 47.8544 27.8136 48.5538 27.1445 49.7538L26.9508 48.1444H24.9561V59.9214H27.2513V55.4533C27.8744 56.4868 29.0147 57.0638 30.7623 57.0638C33.2241 57.0638 35.2608 55.5748 35.2608 52.58V52.5036C35.2608 49.4805 33.5592 47.8544 30.8231 47.8544ZM32.8744 52.5664C32.8744 54.223 32.0084 55.135 30.0325 55.135C28.1634 55.135 27.2053 54.2083 27.2053 52.5518V52.491C27.2053 50.7737 28.2849 49.7549 30.0629 49.7549C31.932 49.7549 32.8744 50.6973 32.8744 52.5057V52.5664Z" fill="white"/>
<path d="M41.3865 47.824C38.2713 47.824 36.1582 49.5716 36.1582 52.4899V52.581C36.1582 55.4229 37.7236 57.0952 41.3404 57.0952C44.8514 57.0952 46.6294 55.3475 46.6294 52.581V52.4899C46.6294 49.5413 44.5624 47.824 41.3865 47.824ZM44.243 52.5664C44.243 54.2229 43.3771 55.135 41.3854 55.135C39.4702 55.135 38.5435 54.2386 38.5435 52.5664V52.4899C38.5435 50.6962 39.5771 49.7538 41.4158 49.7538C43.3006 49.7538 44.243 50.7266 44.243 52.4899V52.5664Z" fill="white"/>
<path d="M52.6784 51.5172C50.4135 51.3654 49.7905 51.2136 49.7905 50.5748C49.7905 50.0429 50.2313 49.5874 51.8575 49.5874C53.2857 49.5874 54.1674 49.9214 54.3653 50.7884H56.8575C56.3863 48.8282 54.8365 47.8251 51.8878 47.8251C48.9391 47.8251 47.5109 49.0711 47.5109 50.7581C47.5109 52.5664 49.0302 53.1444 51.736 53.2963C53.9852 53.4177 54.6847 53.5549 54.6847 54.2083C54.6847 54.8471 54.1381 55.2418 52.4962 55.2418C50.8093 55.2418 50.0491 54.8774 49.8062 53.9497H47.1611C47.5412 56.0471 49.1821 57.0952 52.4041 57.0952C55.4585 57.0952 56.9936 55.8492 56.9936 54.1162C56.9946 52.2471 55.6878 51.6994 52.6784 51.5172Z" fill="white"/>
<path d="M57.9548 49.7539C57.6784 49.7539 57.4491 49.6744 57.2669 49.5162C57.0847 49.3581 56.9946 49.1267 56.9946 48.8241V48.7791C56.9946 48.6827 57.0051 48.5916 57.0271 48.5068C57.0491 48.422 57.0794 48.3445 57.1192 48.2744C57.203 48.1309 57.3161 48.0199 57.4596 47.9414C57.603 47.8628 57.7643 47.8241 57.9444 47.8241C58.0344 47.8241 58.1192 47.8335 58.1999 47.8513C58.2794 47.8691 58.3569 47.8974 58.4302 47.934C58.5737 48.0105 58.6889 48.1194 58.7747 48.2618C58.8616 48.4032 58.9046 48.5738 58.9046 48.7738V48.8241C58.9046 48.9236 58.8941 49.0168 58.8721 49.1016C58.8501 49.1864 58.8177 49.2628 58.7747 49.3288C58.691 49.4691 58.5779 49.5749 58.4344 49.6461C58.291 49.7183 58.1318 49.7539 57.9548 49.7539ZM57.9548 49.5948C58.181 49.5948 58.3674 49.5278 58.5119 49.3948C58.6564 49.2618 58.7297 49.0681 58.7297 48.8147V48.7843C58.7297 48.5309 58.6554 48.3351 58.5077 48.1969C58.359 48.0587 58.1716 47.9895 57.9454 47.9895C57.7224 47.9895 57.537 48.0607 57.3904 48.2042C57.2438 48.3477 57.1705 48.5424 57.1705 48.7895V48.8147C57.1705 49.0649 57.2438 49.2576 57.3904 49.3927C57.536 49.5267 57.7245 49.5948 57.9548 49.5948ZM57.9643 48.9047H57.759V49.2702H57.5894V48.2848H57.9842C58.1213 48.2848 58.2187 48.311 58.2763 48.3644C58.3349 48.4178 58.3643 48.488 58.3643 48.5749C58.3643 48.645 58.3475 48.7005 58.314 48.7424C58.2805 48.7843 58.2302 48.8136 58.1643 48.8304C58.2271 48.844 58.2721 48.8691 58.2993 48.9058C58.3266 48.9424 58.3391 48.999 58.3391 49.0754V49.2199C58.3391 49.2304 58.3412 49.2388 58.3444 49.2471C58.3475 49.2555 58.3506 49.2628 58.3548 49.2691H58.18C58.1768 49.266 58.1737 49.2597 58.1726 49.2513C58.1705 49.2429 58.1705 49.2325 58.1705 49.2189V49.0744C58.1705 49.0105 58.159 48.9665 58.136 48.9414C58.1109 48.9162 58.0543 48.9047 57.9643 48.9047ZM57.9643 48.7592C58.0512 48.7623 58.1119 48.7487 58.1465 48.7162C58.181 48.6848 58.1988 48.6388 58.1988 48.5791C58.1988 48.5288 58.18 48.4911 58.1433 48.467C58.1067 48.4419 58.0501 48.4293 57.9737 48.4293H57.759V48.7592H57.9643Z" fill="white"/>
</g>
<defs>
<linearGradient id="paint0_linear_118_1711" x1="28.6819" y1="28.1823" x2="20.6009" y2="-13.3906" gradientUnits="userSpaceOnUse">
<stop offset="0.1411" stop-color="#E50056"/>
<stop offset="0.75" stop-color="#1F0038"/>
</linearGradient>
<clipPath id="clip0_118_1711">
<rect width="58.9529" height="60" fill="white"/>
</clipPath>
</defs>
</svg>
