<svg width="135" height="40" viewBox="0 0 135 40" fill="none" xmlns="http://www.w3.org/2000/svg">
<g clip-path="url(#clip0_203_1600)">
<path d="M130 0H5C2.23858 0 0 2.23858 0 5V35C0 37.7614 2.23858 40 5 40H130C132.761 40 135 37.7614 135 35V5C135 2.23858 132.761 0 130 0Z" fill="black"/>
<path d="M130 0.8C132.316 0.8 134.2 2.684 134.2 5V35C134.2 37.316 132.316 39.2 130 39.2H5C2.684 39.2 0.8 37.316 0.8 35V5C0.8 2.684 2.684 0.8 5 0.8H130ZM130 0H5C2.25 0 0 2.25 0 5V35C0 37.75 2.25 40 5 40H130C132.75 40 135 37.75 135 35V5C135 2.25 132.75 0 130 0Z" fill="#A6A6A6"/>
<path d="M47.418 10.243C47.418 11.081 47.1701 11.748 46.673 12.246C46.109 12.838 45.3731 13.134 44.4691 13.134C43.6031 13.134 42.8671 12.834 42.2611 12.234C41.6551 11.633 41.3521 10.889 41.3521 10.001C41.3521 9.113 41.6551 8.368 42.2611 7.768C42.8661 7.167 43.6031 6.867 44.4691 6.867C44.8991 6.867 45.31 6.951 45.701 7.118C46.092 7.286 46.405 7.509 46.639 7.788L46.112 8.316C45.715 7.841 45.1681 7.604 44.4691 7.604C43.8371 7.604 43.2911 7.826 42.8301 8.27C42.3691 8.714 42.139 9.291 42.139 10C42.139 10.709 42.3691 11.286 42.8301 11.73C43.2911 12.174 43.8371 12.396 44.4691 12.396C45.1391 12.396 45.6981 12.173 46.1451 11.726C46.4351 11.435 46.603 11.03 46.648 10.511H44.4691V9.79H47.376C47.404 9.947 47.418 10.097 47.418 10.243Z" fill="white" stroke="white" stroke-width="0.2" stroke-miterlimit="10"/>
<path d="M52.0279 7.73696H49.2959V9.63896H51.7599V10.36H49.2959V12.262H52.0279V12.999H48.5249V6.99896H52.0279V7.73696Z" fill="white" stroke="white" stroke-width="0.2" stroke-miterlimit="10"/>
<path d="M55.279 13H54.508V7.737H52.832V7H56.955V7.737H55.279V13Z" fill="white" stroke="white" stroke-width="0.2" stroke-miterlimit="10"/>
<path d="M59.938 13V7H60.708V13H59.938Z" fill="white" stroke="white" stroke-width="0.2" stroke-miterlimit="10"/>
<path d="M64.1282 13H63.3572V7.737H61.6812V7H65.8042V7.737H64.1282V13Z" fill="white" stroke="white" stroke-width="0.2" stroke-miterlimit="10"/>
<path d="M73.6092 12.225C73.0192 12.832 72.2862 13.134 71.4092 13.134C70.5322 13.134 69.7992 12.831 69.2102 12.225C68.6202 11.619 68.3262 10.877 68.3262 9.99999C68.3262 9.12299 68.6202 8.38099 69.2102 7.77499C69.7992 7.16799 70.5322 6.86499 71.4092 6.86499C72.2812 6.86499 73.0122 7.16999 73.6052 7.77899C74.1972 8.38799 74.4932 9.12799 74.4932 9.99999C74.4932 10.877 74.1982 11.619 73.6092 12.225ZM69.7792 11.722C70.2232 12.172 70.7662 12.396 71.4092 12.396C72.0522 12.396 72.5952 12.171 73.0392 11.722C73.4832 11.272 73.7062 10.698 73.7062 9.99999C73.7062 9.30199 73.4832 8.72699 73.0392 8.27799C72.5962 7.82799 72.0522 7.60399 71.4092 7.60399C70.7662 7.60399 70.2232 7.82899 69.7792 8.27799C69.3362 8.72799 69.1132 9.30199 69.1132 9.99999C69.1132 10.698 69.3362 11.273 69.7792 11.722Z" fill="white" stroke="white" stroke-width="0.2" stroke-miterlimit="10"/>
<path d="M75.5752 13V7H76.5142L79.4302 11.667H79.4632L79.4302 10.511V7H80.2012V13H79.3962L76.3452 8.106H76.3122L76.3452 9.262V12.999H75.5742L75.5752 13Z" fill="white" stroke="white" stroke-width="0.2" stroke-miterlimit="10"/>
<path d="M68.136 21.7521C65.784 21.7521 63.867 23.5401 63.867 26.0051C63.867 28.4541 65.784 30.2581 68.136 30.2581C70.488 30.2581 72.405 28.4541 72.405 26.0051C72.405 23.5401 70.488 21.7521 68.136 21.7521ZM68.136 28.5821C66.847 28.5821 65.736 27.5191 65.736 26.0041C65.736 24.4731 66.848 23.4261 68.136 23.4261C69.424 23.4261 70.536 24.4731 70.536 26.0041C70.536 27.5181 69.424 28.5821 68.136 28.5821ZM58.823 21.7521C56.471 21.7521 54.554 23.5401 54.554 26.0051C54.554 28.4541 56.471 30.2581 58.823 30.2581C61.175 30.2581 63.092 28.4541 63.092 26.0051C63.092 23.5401 61.175 21.7521 58.823 21.7521ZM58.823 28.5821C57.534 28.5821 56.422 27.5191 56.422 26.0041C56.422 24.4731 57.534 23.4261 58.823 23.4261C60.112 23.4261 61.223 24.4731 61.223 26.0041C61.223 27.5181 60.111 28.5821 58.823 28.5821ZM47.744 23.0571V24.8611H52.062C51.933 25.8761 51.595 26.6171 51.079 27.1331C50.451 27.7611 49.468 28.4541 47.744 28.4541C45.086 28.4541 43.008 26.3111 43.008 23.6531C43.008 20.9951 45.086 18.8521 47.744 18.8521C49.178 18.8521 50.225 19.4161 50.998 20.1411L52.271 18.8681C51.192 17.8371 49.758 17.0481 47.744 17.0481C44.103 17.0481 41.042 20.0121 41.042 23.6531C41.042 27.2941 44.103 30.2581 47.744 30.2581C49.71 30.2581 51.192 29.6141 52.352 28.4051C53.544 27.2131 53.915 25.5371 53.915 24.1841C53.915 23.7651 53.883 23.3791 53.818 23.0561L47.744 23.0571ZM93.052 24.4581C92.698 23.5081 91.618 21.7511 89.411 21.7511C87.22 21.7511 85.4 23.4751 85.4 26.0041C85.4 28.3881 87.204 30.2571 89.621 30.2571C91.57 30.2571 92.698 29.0651 93.165 28.3721L91.715 27.4051C91.232 28.1141 90.571 28.5811 89.621 28.5811C88.671 28.5811 87.994 28.1461 87.559 27.2921L93.246 24.9401L93.053 24.4571L93.052 24.4581ZM87.252 25.8761C87.204 24.2331 88.525 23.3951 89.475 23.3951C90.216 23.3951 90.844 23.7651 91.054 24.2971L87.252 25.8761ZM82.629 30.0001H84.498V17.4981H82.629V30.0001ZM79.567 22.7021H79.503C79.084 22.2031 78.279 21.7511 77.264 21.7511C75.137 21.7511 73.188 23.6201 73.188 26.0201C73.188 28.4041 75.137 30.2571 77.264 30.2571C78.279 30.2571 79.084 29.8061 79.503 29.2901H79.567V29.9021C79.567 31.5291 78.697 32.3991 77.295 32.3991C76.151 32.3991 75.442 31.5771 75.152 30.8851L73.525 31.5621C73.992 32.6901 75.233 34.0751 77.295 34.0751C79.486 34.0751 81.339 32.7861 81.339 29.6451V22.0091H79.567V22.7021ZM77.425 28.5821C76.136 28.5821 75.057 27.5031 75.057 26.0201C75.057 24.5221 76.136 23.4261 77.425 23.4261C78.698 23.4261 79.697 24.5221 79.697 26.0201C79.697 27.5021 78.698 28.5821 77.425 28.5821ZM101.806 17.4991H97.335V30.0001H99.201V25.2641H101.806C103.874 25.2641 105.907 23.7671 105.907 21.3811C105.907 18.9951 103.874 17.4991 101.806 17.4991ZM101.854 23.5241H99.2V19.2391H101.854C103.249 19.2391 104.041 20.3941 104.041 21.3821C104.041 22.3511 103.249 23.5251 101.854 23.5251V23.5241ZM113.386 21.7291C112.035 21.7291 110.636 22.3241 110.057 23.6431L111.714 24.3351C112.068 23.6431 112.727 23.4181 113.419 23.4181C114.384 23.4181 115.365 23.9971 115.381 25.0261V25.1551C115.043 24.9621 114.32 24.6721 113.435 24.6721C111.65 24.6721 109.832 25.6531 109.832 27.4871C109.832 29.1601 111.295 30.2371 112.936 30.2371C114.19 30.2371 114.882 29.6741 115.316 29.0151H115.38V29.9801H117.181V25.1871C117.181 22.9671 115.525 21.7291 113.386 21.7291ZM113.161 28.5801C112.55 28.5801 111.697 28.2751 111.697 27.5191C111.697 26.5541 112.758 26.1841 113.675 26.1841C114.495 26.1841 114.881 26.3611 115.38 26.6021C115.235 27.7601 114.238 28.5801 113.161 28.5801ZM123.743 22.0021L121.604 27.4221H121.54L119.321 22.0021H117.311L120.64 29.5771L118.742 33.7911H120.688L125.819 22.0021H123.744H123.743ZM106.936 30.0001H108.802V17.4991H106.936V30.0001Z" fill="white"/>
<path d="M20.7173 19.4241L10.0703 30.7241C10.0703 30.7241 10.0713 30.7291 10.0723 30.7311C10.3993 31.9581 11.5193 32.8611 12.8493 32.8611C13.3803 32.8611 13.8803 32.7171 14.3083 32.4651L14.3423 32.4451L26.3263 25.5301L20.7173 19.4241Z" fill="#EA4335"/>
<path d="M31.4881 17.5001L31.4781 17.4931L26.3041 14.4931L20.4751 19.6801L26.3241 25.5281L31.4701 22.5591C32.3721 22.0721 32.9851 21.1211 32.9851 20.0241C32.9851 18.9341 32.3811 17.9881 31.4871 17.4991L31.4881 17.5001Z" fill="#FBBC04"/>
<path d="M10.0702 9.2771C10.0062 9.5131 9.97217 9.7611 9.97217 10.0171V29.9851C9.97217 30.2411 10.0052 30.4891 10.0702 30.7241L21.0832 19.7131L10.0702 9.2771Z" fill="#4285F4"/>
<path d="M20.7963 20.0011L26.3063 14.4921L14.3363 7.55211C13.9013 7.29111 13.3933 7.14111 12.8503 7.14111C11.5203 7.14111 10.3983 8.04611 10.0713 9.27511V9.27811L20.7973 20.0021L20.7963 20.0011Z" fill="#34A853"/>
</g>
<defs>
<clipPath id="clip0_203_1600">
<rect width="135" height="40" fill="white"/>
</clipPath>
</defs>
</svg>
