<svg width="32" height="32" viewBox="0 0 32 32" fill="none" xmlns="http://www.w3.org/2000/svg">
<path d="M30 0H2C0.89543 0 0 0.89543 0 2V30C0 31.1046 0.89543 32 2 32H30C31.1046 32 32 31.1046 32 30V2C32 0.89543 31.1046 0 30 0Z" fill="white"/>
<g clip-path="url(#clip0_118_1693)">
<path d="M11.0301 4.08393C9.7533 4.14417 8.88138 4.34793 8.11914 4.64745C7.33026 4.95489 6.66162 5.36745 5.99634 6.03513C5.33106 6.70281 4.92138 7.37193 4.6161 8.16201C4.32066 8.92593 4.1205 9.79857 4.0641 11.0761C4.0077 12.3536 3.99522 12.7642 4.00146 16.023C4.0077 19.2817 4.0221 19.6902 4.08402 20.9703C4.14498 22.2469 4.34802 23.1186 4.64754 23.881C4.95546 24.6699 5.36754 25.3383 6.03546 26.0038C6.70338 26.6694 7.37202 27.0781 8.16402 27.3838C8.92722 27.6788 9.8001 27.8799 11.0774 27.9358C12.3547 27.9918 12.7658 28.0047 16.0235 27.9985C19.2813 27.9922 19.6915 27.9778 20.9714 27.9171C22.2513 27.8564 23.1184 27.6519 23.8811 27.3538C24.67 27.0452 25.3389 26.6338 26.0039 25.9657C26.669 25.2975 27.0784 24.6279 27.3835 23.8374C27.6791 23.0742 27.88 22.2013 27.9355 20.925C27.9914 19.6441 28.0046 19.2351 27.9983 15.9769C27.9921 12.7186 27.9775 12.3102 27.9167 11.0305C27.856 9.75081 27.6527 8.88177 27.3535 8.11881C27.0451 7.32993 26.6335 6.66201 25.9658 5.99601C25.2981 5.33001 24.628 4.92081 23.8377 4.61649C23.074 4.32105 22.2016 4.11969 20.9243 4.06449C19.6471 4.00929 19.2359 3.99513 15.977 4.00137C12.718 4.00761 12.31 4.02153 11.0301 4.08393ZM11.1703 25.777C10.0003 25.7262 9.36498 25.5318 8.94162 25.369C8.38098 25.153 7.98162 24.8919 7.5597 24.4741C7.13778 24.0562 6.87858 23.6554 6.6597 23.096C6.4953 22.6726 6.2973 22.0381 6.24258 20.8681C6.18306 19.6035 6.17058 19.2238 6.16362 16.0201C6.15666 12.8163 6.1689 12.4371 6.22434 11.1721C6.27426 10.003 6.46986 9.36705 6.63234 8.94393C6.84834 8.38257 7.1085 7.98393 7.5273 7.56225C7.9461 7.14057 8.3457 6.88089 8.90562 6.66201C9.3285 6.49689 9.96306 6.30057 11.1326 6.24489C12.3981 6.18489 12.7773 6.17289 15.9806 6.16593C19.1839 6.15897 19.564 6.17097 20.83 6.22665C21.9991 6.27753 22.6353 6.47121 23.0579 6.63465C23.6188 6.85065 24.0179 7.11009 24.4396 7.52961C24.8613 7.94913 25.1212 8.34729 25.3401 8.90841C25.5055 9.33009 25.7018 9.96441 25.757 11.1346C25.8172 12.4002 25.8309 12.7796 25.8367 15.9826C25.8424 19.1857 25.8311 19.5661 25.7757 20.8306C25.7246 22.0006 25.5307 22.6362 25.3677 23.06C25.1517 23.6204 24.8913 24.02 24.4723 24.4414C24.0532 24.8629 23.6541 25.1226 23.0939 25.3414C22.6715 25.5063 22.0363 25.7031 20.8677 25.7588C19.6022 25.8183 19.223 25.8308 16.0185 25.8378C12.814 25.8447 12.436 25.8318 11.1705 25.777M20.9529 9.58641C20.9534 9.87123 21.0383 10.1495 21.197 10.3861C21.3556 10.6226 21.5808 10.8068 21.8442 10.9154C22.1075 11.0239 22.3971 11.0519 22.6764 10.9958C22.9556 10.9398 23.212 10.8021 23.413 10.6004C23.614 10.3986 23.7507 10.1417 23.8058 9.86228C23.8608 9.58283 23.8317 9.29333 23.7222 9.03039C23.6127 8.76746 23.4277 8.5429 23.1906 8.38512C22.9534 8.22735 22.6748 8.14344 22.39 8.14401C22.0082 8.14477 21.6423 8.29715 21.3728 8.56764C21.1033 8.83813 20.9523 9.20458 20.9529 9.58641ZM9.8385 16.0119C9.84522 19.4151 12.6091 22.1677 16.0115 22.1612C19.414 22.1547 22.1685 19.3911 22.162 15.9879C22.1555 12.5847 19.391 9.83145 15.988 9.83817C12.5851 9.84489 9.83202 12.6092 9.8385 16.0119ZM11.9999 16.0076C11.9984 15.2165 12.2314 14.4426 12.6697 13.784C13.1079 13.1253 13.7316 12.6113 14.4619 12.3071C15.1923 12.0029 15.9964 11.9221 16.7726 12.0749C17.5489 12.2277 18.2624 12.6073 18.8229 13.1656C19.3834 13.7239 19.7658 14.4359 19.9217 15.2115C20.0776 15.9872 19.9999 16.7916 19.6986 17.5231C19.3973 18.2547 18.8859 18.8804 18.2289 19.3212C17.572 19.7621 16.7991 19.9982 16.0079 19.9998C15.4826 20.0009 14.9622 19.8985 14.4765 19.6984C13.9908 19.4984 13.5492 19.2046 13.177 18.8339C12.8048 18.4632 12.5093 18.0228 12.3073 17.5378C12.1054 17.0529 12.0009 16.5329 11.9999 16.0076Z" fill="black"/>
</g>
<defs>
<clipPath id="clip0_118_1693">
<rect width="24" height="24" fill="white" transform="translate(4 4)"/>
</clipPath>
</defs>
</svg>
