<svg width="80" height="37" viewBox="0 0 80 37" fill="none" xmlns="http://www.w3.org/2000/svg">
<g clip-path="url(#clip0_118_1723)">
<path d="M0 37H80V0H0" fill="#1434CB"/>
<path d="M38.5268 7.9299L34.0668 28.7839H28.6698L33.1278 7.9299H38.5278H38.5268ZM61.2198 21.3919L64.0578 13.5649L65.6978 21.3919H61.2178H61.2198ZM67.2438 28.7839H72.2258L67.8698 7.9299H63.2698C62.2328 7.9299 61.3568 8.5319 60.9698 9.4599L52.8798 28.7839H58.5438L59.6678 25.6689H66.5878L67.2438 28.7829V28.7839ZM53.1598 21.9739C53.1818 16.4689 45.5498 16.1679 45.5998 13.7059C45.6198 12.9619 46.3358 12.1619 47.8868 11.9589C48.6608 11.8589 50.7928 11.7819 53.2098 12.8919L54.1548 8.4659C52.8548 8.0059 51.1878 7.5459 49.1078 7.5459C43.7778 7.5459 40.0248 10.3759 39.9928 14.4399C39.9628 17.4419 42.6728 19.1199 44.7148 20.1139C46.8168 21.1439 47.5248 21.7919 47.5148 22.7069C47.4978 24.1069 45.8348 24.7239 44.2868 24.7499C41.5728 24.7929 40.0028 24.0149 38.7448 23.4299L37.7718 28.0019C39.0318 28.5849 41.3568 29.0889 43.7658 29.1149C49.4328 29.1149 53.1388 26.3129 53.1598 21.9749V21.9739ZM30.8138 7.9299L22.0798 28.7839H16.3768L12.0728 12.1419C11.8168 11.1169 11.5878 10.7419 10.7928 10.3089C9.49484 9.6029 7.35284 8.9459 5.46484 8.5309L5.59684 7.9289H14.7798C15.9468 7.9289 16.9978 8.7059 17.2658 10.0549L19.5358 22.1179L25.1508 7.9279H30.8148L30.8138 7.9299Z" fill="white"/>
</g>
<defs>
<clipPath id="clip0_118_1723">
<rect width="80" height="37" fill="white"/>
</clipPath>
</defs>
</svg>
