<svg width="32" height="32" viewBox="0 0 32 32" fill="none" xmlns="http://www.w3.org/2000/svg">
<path d="M30 0H2C0.89543 0 0 0.89543 0 2V30C0 31.1046 0.89543 32 2 32H30C31.1046 32 32 31.1046 32 30V2C32 0.89543 31.1046 0 30 0Z" fill="white"/>
<path d="M6.62981 23.8463C5.59544 23.5739 4.78925 22.7727 4.49086 21.7845C4 19.9615 4 16.1614 4 16.1614C4 16.1614 4 12.3619 4.49086 10.5559C4.78864 9.55063 5.59544 8.76708 6.62981 8.49413C8.48793 8 15.9912 8 15.9912 8C15.9912 8 23.5121 8 25.3702 8.49413C26.4221 8.76649 27.2108 9.55063 27.4916 10.5559C28 12.3619 28 16.1614 28 16.1614C28 16.1614 28 19.9609 27.4916 21.7845C27.2108 22.7727 26.4221 23.5733 25.3702 23.8463C23.5121 24.3404 15.9912 24.3404 15.9912 24.3404C15.9912 24.3404 8.48793 24.3404 6.62981 23.8463ZM13.6071 19.6721L19.8309 16.162L13.6071 12.6689V19.6721Z" fill="#FF0033"/>
<path d="M13.6074 19.6721L19.8306 16.162L13.6074 12.6689V19.6721Z" fill="white"/>
</svg>
