<svg width="78" height="78" viewBox="0 0 78 78" fill="none" xmlns="http://www.w3.org/2000/svg">
<path fill-rule="evenodd" clip-rule="evenodd" d="M51.9648 29.7974H25.0348C23.9298 29.7974 23.0348 30.6934 23.0348 31.7974C23.0348 32.9014 23.9298 33.7974 25.0348 33.7974H31.3668C33.4118 33.9344 34.4198 35.6614 34.4198 37.7944L31.4038 54.2864C31.2068 55.3734 31.9258 56.4154 33.0138 56.6134C33.1348 56.6364 33.2558 56.6474 33.3748 56.6474C34.3218 56.6474 35.1638 55.9714 35.3398 55.0064L37.5658 42.8324V42.8344C37.5658 42.3494 37.9588 41.9574 38.4428 41.9574C38.8648 41.9574 39.2008 42.2614 39.2838 42.6594L41.5408 55.0064C41.7188 55.9714 42.5608 56.6474 43.5078 56.6474C43.6268 56.6474 43.7478 56.6364 43.8688 56.6134C44.9548 56.4154 45.6758 55.3734 45.4768 54.2864L42.4548 37.7554C42.4668 35.6414 43.4728 33.9334 45.5048 33.7974H51.9648C53.0698 33.7974 53.9648 32.9014 53.9648 31.7974C53.9648 30.6934 53.0698 29.7974 51.9648 29.7974ZM38.5 28.6543C40.582 28.6543 42.27 26.9663 42.27 24.8843C42.27 22.8023 40.582 21.1143 38.5 21.1143C36.418 21.1143 34.73 22.8023 34.73 24.8843C34.73 26.9663 36.418 28.6543 38.5 28.6543Z" fill="white"/>
<path fill-rule="evenodd" clip-rule="evenodd" d="M38.7109 67.9121C22.2969 67.9121 8.9419 54.5581 8.9419 38.1441C8.9419 21.7301 22.2969 8.37711 38.7109 8.37711C55.1239 8.37711 68.4779 21.7301 68.4779 38.1441C68.4779 54.5581 55.1239 67.9121 38.7109 67.9121ZM65.8799 20.7701C60.1389 11.8221 50.1079 5.87511 38.7109 5.87511C20.9189 5.87511 6.44189 20.3501 6.44189 38.1431C6.44189 45.2761 8.7739 51.8731 12.7089 57.2211C18.4489 66.1751 28.4819 72.1251 39.8849 72.1251C57.6769 72.1251 72.1509 57.6501 72.1509 39.8581C72.1509 32.7201 69.8169 26.1201 65.8799 20.7701Z" fill="white"/>
</svg>
