<svg width="78" height="78" viewBox="0 0 78 78" fill="none" xmlns="http://www.w3.org/2000/svg">
<path fill-rule="evenodd" clip-rule="evenodd" d="M40.6362 46.5039C40.2872 46.9159 39.8512 47.1999 39.3372 47.3669V42.1589C39.9622 42.3899 40.4362 42.6889 40.7412 43.0619C41.1092 43.5149 41.2942 44.0529 41.2942 44.6779C41.2942 45.3769 41.0742 45.9849 40.6362 46.5039ZM35.5422 36.3999C35.2442 35.9769 35.0942 35.5169 35.0942 35.0219C35.0942 34.4809 35.2582 33.9859 35.5842 33.5379C35.8752 33.1399 36.2612 32.8499 36.7292 32.6579V37.3449C36.2112 37.0949 35.8112 36.7819 35.5422 36.3999ZM43.5052 40.4589C42.7442 39.5539 41.3492 38.8099 39.3372 38.2199V32.8679C39.9962 33.2929 40.4292 33.9499 40.6082 34.8679L44.1492 34.4059C43.9062 33.0069 43.3462 31.8899 42.4692 31.0549C41.6772 30.3009 40.6242 29.8289 39.3372 29.6109V28.1509H38.9292H36.9002H36.7292V29.5669C35.2072 29.7509 33.9742 30.3329 33.0442 31.3349C32.0782 32.3749 31.5962 33.6599 31.5962 35.1899C31.5962 36.7009 32.0232 37.9859 32.8762 39.0449C33.7022 40.0699 34.9902 40.8409 36.7292 41.3629V47.1839C36.2932 46.9389 35.8912 46.5839 35.5292 46.1059C35.1182 45.5639 34.8382 44.9199 34.6892 44.1739L31.0362 44.5659C31.3162 46.4029 31.9602 47.8259 32.9682 48.8339C33.9382 49.8049 35.1972 50.3889 36.7292 50.6069V53.1859H36.9002H38.9292H39.3372V50.4959C40.9592 50.1919 42.2462 49.5099 43.1902 48.4419C44.2112 47.2849 44.7222 45.8619 44.7222 44.1739C44.7222 42.6619 44.3172 41.4239 43.5052 40.4589Z" fill="white"/>
<path fill-rule="evenodd" clip-rule="evenodd" d="M67.2153 27.8174C67.2153 28.3754 66.7623 28.8284 66.2053 28.8284H59.3163L58.7013 24.7324H62.0753C62.7653 24.7324 63.3253 24.1724 63.3253 23.4824V15.5034C63.3253 14.8124 62.7653 14.2534 62.0753 14.2534H14.4613C13.7713 14.2534 13.2113 14.8124 13.2113 15.5034V23.4824C13.2113 24.1724 13.7713 24.7324 14.4613 24.7324H17.0573L16.4433 28.8284H10.5103C9.95331 28.8284 9.50031 28.3754 9.50031 27.8174V11.5094C9.50031 10.9534 9.95331 10.5004 10.5103 10.5004H66.2053C66.7623 10.5004 67.2153 10.9534 67.2153 11.5094V27.8174ZM61.5103 60.2694H14.2493L20.5613 18.2374H55.1973L61.5103 60.2694ZM16.1323 66.3384L16.6683 62.7694H59.0903L59.6263 66.3384H16.1323ZM66.4733 8.0004L66.4883 8.0284C66.3933 8.0204 66.3023 8.0004 66.2053 8.0004H10.5103C8.5743 8.0004 7.00031 9.5744 7.00031 11.5094V27.8174C7.00031 27.8194 7.01631 33.8944 11.5473 33.9204C11.7153 33.9214 11.8633 33.9154 12.0013 33.9054C12.0503 33.9074 12.0963 33.9204 12.1463 33.9204H15.6783L11.5613 61.3344C11.5073 61.6934 11.6123 62.0594 11.8503 62.3354C12.0873 62.6114 12.4333 62.7694 12.7973 62.7694H14.1403L13.4443 67.4024C13.3903 67.7614 13.4963 68.1284 13.7333 68.4034C13.9703 68.6794 14.3173 68.8384 14.6803 68.8384H61.0783C61.4423 68.8384 61.7883 68.6794 62.0253 68.4034C62.2623 68.1284 62.3683 67.7614 62.3143 67.4024L61.6193 62.7694H62.9623C63.3253 62.7694 63.6723 62.6114 63.9093 62.3354C64.1463 62.0594 64.2523 61.6934 64.1983 61.3344L60.0813 33.9204H67.8413C69.7773 33.9204 71.3513 32.3454 71.3513 30.4104V14.1024C71.3513 8.0004 66.4733 8.0004 66.4733 8.0004Z" fill="white"/>
</svg>
