<svg width="78" height="78" viewBox="0 0 78 78" fill="none" xmlns="http://www.w3.org/2000/svg">
<path fill-rule="evenodd" clip-rule="evenodd" d="M18.654 18.872H50.317V15.871H18.654V18.872Z" fill="white"/>
<path fill-rule="evenodd" clip-rule="evenodd" d="M18.654 26.474H50.317V23.474H18.654V26.474Z" fill="white"/>
<path fill-rule="evenodd" clip-rule="evenodd" d="M18.654 34.077H50.317V31.076H18.654V34.077Z" fill="white"/>
<path fill-rule="evenodd" clip-rule="evenodd" d="M18.654 41.678H50.317V38.678H18.654V41.678Z" fill="white"/>
<path fill-rule="evenodd" clip-rule="evenodd" d="M56.4717 68.4326H52.9117H16.0877C14.1097 68.4326 12.4997 66.8236 12.4997 64.8446V9.5786H56.4717V63.3166C56.6247 66.4536 57.6537 67.7376 59.4507 68.4326H56.4717ZM58.9717 56.4786V6.9996H9.99969V64.7666C9.99969 68.1236 12.7317 70.8546 16.0877 70.8546H58.9717V70.8446H63.1167C65.4627 70.8446 67.3647 68.9426 67.3647 66.5966V56.4786H58.9717Z" fill="white"/>
<path fill-rule="evenodd" clip-rule="evenodd" d="M25.5527 63.1631C29.6957 63.1631 33.0527 59.8061 33.0527 55.6631C33.0527 51.5211 29.6957 48.1631 25.5527 48.1631C21.4107 48.1631 18.0527 51.5211 18.0527 55.6631C18.0527 59.8061 21.4107 63.1631 25.5527 63.1631Z" fill="white"/>
</svg>
