<svg width="78" height="78" viewBox="0 0 78 78" fill="none" xmlns="http://www.w3.org/2000/svg">
<path fill-rule="evenodd" clip-rule="evenodd" d="M45.287 56.052L48.947 66.055C45.5398 67.3676 41.9193 68.0389 38.268 68.035C34.66 68.035 31.2 67.39 27.998 66.209L31.588 56.391C33.6455 57.1273 35.8148 57.5025 38 57.5C40.582 57.5 43.043 56.985 45.287 56.052ZM10.487 27.57L20.447 31.214C19.4886 33.5234 18.9968 35.9997 19 38.5C19 40.75 19.391 42.909 20.109 44.911L10.311 48.497C9.10958 45.2203 8.49649 41.7571 8.50002 38.267C8.50002 34.498 9.20402 30.891 10.487 27.569V27.57ZM68.035 38.267C68.035 41.803 67.415 45.197 66.279 48.346L56.004 44.586C56.65 42.676 57 40.629 57 38.5C57 36.04 56.533 33.69 55.682 31.533L66.105 27.719C67.3847 31.0883 68.0387 34.6629 68.035 38.267ZM38.268 8.50002C41.965 8.50002 45.507 9.17802 48.776 10.415L44.969 20.819C42.7497 19.9447 40.3853 19.4972 38 19.5C35.871 19.5 33.824 19.85 31.913 20.496L28.169 10.263C31.4074 9.09311 34.8248 8.49651 38.268 8.50002Z" fill="white"/>
<path d="M38 19.5C48.493 19.5 57 28.007 57 38.5C57 48.993 48.493 57.5 38 57.5C27.507 57.5 19 48.993 19 38.5C19 28.007 27.507 19.5 38 19.5ZM38 21.5C28.611 21.5 21 29.111 21 38.5C21 47.889 28.611 55.5 38 55.5C47.389 55.5 55 47.889 55 38.5C55 29.111 47.389 21.5 38 21.5Z" fill="white"/>
<path fill-rule="evenodd" clip-rule="evenodd" d="M38 2C38.7957 2 39.5587 2.31607 40.1213 2.87868C40.684 3.44129 41 4.20435 41 5V6.115C51.258 6.98 60.16 12.67 65.437 20.895C68.6074 25.1924 70.6562 30.2125 71.398 35.501L72.5 35.5C73.2957 35.5 74.0587 35.8161 74.6213 36.3787C75.184 36.9413 75.5 37.7043 75.5 38.5C75.5 39.2957 75.184 40.0587 74.6213 40.6213C74.0587 41.1839 73.2957 41.5 72.5 41.5H71.674C70.903 58.074 57.569 71.421 41 72.213V73C41.0008 73.7809 40.697 74.5313 40.1533 75.0918C39.6095 75.6523 38.8686 75.9787 38.0881 76.0016C37.3075 76.0245 36.5487 75.7422 35.9731 75.2145C35.3974 74.6869 35.0501 73.9556 35.005 73.176L35 73V71.945C25.462 70.625 17.248 65.117 12.266 57.346C8.84532 52.7083 6.73651 47.235 6.16102 41.501L5.00002 41.5C4.21912 41.5008 3.4687 41.197 2.90821 40.6532C2.34772 40.1095 2.02134 39.3686 1.99842 38.588C1.97551 37.8075 2.25786 37.0487 2.78549 36.473C3.31311 35.8973 4.04442 35.5501 4.82402 35.505L5.00002 35.5H6.11802C7.43402 20.077 19.645 7.715 35 6.164V5C35 4.20435 35.3161 3.44129 35.8787 2.87868C36.4413 2.31607 37.2044 2 38 2ZM38.268 8.502C21.854 8.502 8.50002 21.855 8.50002 38.269C8.50002 54.683 21.854 68.037 38.268 68.037C54.681 68.037 68.035 54.683 68.035 38.269C68.035 21.855 54.681 8.502 38.268 8.502Z" fill="white"/>
</svg>
