<svg width="78" height="78" viewBox="0 0 78 78" fill="none" xmlns="http://www.w3.org/2000/svg">
<path fill-rule="evenodd" clip-rule="evenodd" d="M25.4756 54.5454C26.5696 54.5454 27.4566 53.6584 27.4566 52.5644C27.4566 51.4694 26.5696 50.5824 25.4756 50.5824C24.3806 50.5824 23.4936 51.4694 23.4936 52.5644C23.4936 53.6584 24.3806 54.5454 25.4756 54.5454ZM32.4155 63.022C33.5095 63.022 34.3965 62.134 34.3965 61.04C34.3965 59.946 33.5095 59.059 32.4155 59.059C31.3205 59.059 30.4335 59.946 30.4335 61.04C30.4335 62.134 31.3205 63.022 32.4155 63.022Z" fill="white"/>
<path fill-rule="evenodd" clip-rule="evenodd" d="M36.026 38.256H30.527V32.757H27.55V38.256H22.051V41.233H27.55V46.732H30.527V41.233H36.026V38.256Z" fill="white"/>
<path fill-rule="evenodd" clip-rule="evenodd" d="M52.938 35.755L50.834 33.65L46.574 37.909L42.315 33.65L40.21 35.755L44.469 40.014L40.21 44.274L42.315 46.379L46.574 42.119L50.834 46.379L52.938 44.274L48.679 40.014L52.938 35.755Z" fill="white"/>
<path fill-rule="evenodd" clip-rule="evenodd" d="M24.686 63.264L22.581 61.159L33.205 50.535L35.31 52.64L24.686 63.264Z" fill="white"/>
<path fill-rule="evenodd" clip-rule="evenodd" d="M40.402 56.034H53.615V53.057H40.402V56.034Z" fill="white"/>
<path fill-rule="evenodd" clip-rule="evenodd" d="M40.402 62.036H53.615V59.059H40.402V62.036Z" fill="white"/>
<path fill-rule="evenodd" clip-rule="evenodd" d="M21.277 28.111H54.945V10.299H21.277V28.111Z" fill="white"/>
<path fill-rule="evenodd" clip-rule="evenodd" d="M58.7212 65.3237C58.7212 66.6117 57.6742 67.6587 56.3862 67.6587H19.8352C18.5482 67.6587 17.5002 66.6117 17.5002 65.3237V8.83469C17.5002 7.54769 18.5482 6.49969 19.8352 6.49969H56.3862C57.6742 6.49969 58.7212 7.54769 58.7212 8.83469V65.3237ZM63.2532 9.38069L63.2772 9.37069C63.2772 9.37069 63.1802 9.19469 62.9952 8.9047C62.9822 8.88569 62.9712 8.86569 62.9572 8.84669C62.3842 7.95669 61.0562 6.11569 59.1602 4.83569C58.8362 4.61669 58.5882 4.49669 58.4012 4.45369C57.7862 4.16969 57.1072 3.99969 56.3862 3.99969H19.8352C17.1692 3.99969 15.0002 6.16869 15.0002 8.83469V65.3237C15.0002 66.0927 15.1972 66.8107 15.5182 67.4567C15.5172 67.4567 15.5132 67.4587 15.5132 67.4587C15.5132 67.4587 15.5472 67.5187 15.6062 67.6197C15.7222 67.8327 15.8492 68.0367 15.9952 68.2287C16.6332 69.1757 17.8802 70.7997 19.5962 71.9697C20.3912 72.5457 21.3612 72.8947 22.4162 72.8947H58.9672C61.6342 72.8947 63.8032 70.7257 63.8032 68.0597V11.5707C63.8032 10.7787 63.5932 10.0407 63.2532 9.38069Z" fill="white"/>
</svg>
