<svg width="78" height="78" viewBox="0 0 78 78" fill="none" xmlns="http://www.w3.org/2000/svg">
<path fill-rule="evenodd" clip-rule="evenodd" d="M70.639 48.49H65.455C65.455 48.463 65.459 48.437 65.459 48.41C65.4569 46.4984 64.6966 44.6658 63.3449 43.3141C61.9932 41.9624 60.1606 41.2021 58.249 41.2C54.274 41.2 51.039 44.434 51.039 48.41C51.039 48.437 51.043 48.463 51.043 48.49H23.462C23.462 48.463 23.466 48.437 23.466 48.41C23.4639 46.4984 22.7036 44.6658 21.3519 43.3141C20.0002 41.9624 18.1676 41.2021 16.256 41.2C14.3444 41.2021 12.5118 41.9624 11.1601 43.3141C9.80842 44.6658 9.04812 46.4984 9.046 48.41C9.046 48.437 9.05 48.463 9.05 48.49H5.573V42.658C5.57356 41.0958 6.04715 39.5703 6.93143 38.2825C7.81571 36.9946 9.06924 36.0047 10.527 35.443C11.317 35.139 13.37 34.72 16.687 34.185C18.3297 33.8496 19.8733 33.1414 21.199 32.115C22.709 30.938 25.089 29.21 27.838 27.665C34.308 24.033 38.874 22.348 45.966 22.515C46.021 22.515 51.514 22.42 54.551 22.718C63.299 23.577 69.464 28.361 71.464 35.84C72.379 39.26 72.05 44.93 70.744 48.223L70.639 48.49ZM53.539 48.41C53.5403 47.1612 54.037 45.964 54.92 45.081C55.803 44.198 57.0002 43.7013 58.249 43.7C59.4978 43.7013 60.695 44.198 61.578 45.081C62.461 45.964 62.9577 47.1612 62.959 48.41C62.9574 49.6586 62.4606 50.8556 61.5777 51.7384C60.6947 52.6212 59.4976 53.1177 58.249 53.119C57.0002 53.1177 55.803 52.621 54.92 51.738C54.037 50.855 53.5403 49.6578 53.539 48.409V48.41ZM11.546 48.41C11.5473 47.1612 12.044 45.964 12.927 45.081C13.81 44.198 15.0072 43.7013 16.256 43.7C17.5048 43.7013 18.702 44.198 19.585 45.081C20.468 45.964 20.9647 47.1612 20.966 48.41C20.9644 49.6586 20.4676 50.8556 19.5847 51.7384C18.7017 52.6212 17.5046 53.1177 16.256 53.119C15.0072 53.1177 13.81 52.621 12.927 51.738C12.044 50.855 11.5473 49.6578 11.546 48.409V48.41ZM75.166 35.752C73.751 30.144 67.381 23.729 59.925 21.57C57.9176 20.881 55.8358 20.4312 53.723 20.23C50.543 19.918 47.45 20.017 44.9 20.017C37.203 20.017 33.415 21.627 26.54 25.487C23.657 27.107 21.169 28.914 19.59 30.144C18.5686 30.9341 17.3794 31.4791 16.114 31.737C12.506 32.404 10.421 32.829 9.857 33.014C9.011 33.291 7.082 34.121 5.482 35.978C3.88149 37.8356 3.00078 40.206 3 42.658V49.741C3 50.401 3.515 50.752 3.863 50.911C4.729 51.291 6.143 51.548 6.611 51.548H9.775C9.965 51.938 10.188 52.308 10.443 52.657C12.096 55.226 15.725 57.032 18.693 57.032C22.073 57.032 24.909 54.691 25.686 51.548H50.768C50.847 51.71 50.931 51.868 51.021 52.024C52.461 54.924 56.481 57.032 59.687 57.032C63.066 57.032 65.902 54.691 66.679 51.548H72.775C73.0256 51.5479 73.2703 51.4726 73.4775 51.3317C73.6847 51.1909 73.8448 50.991 73.937 50.758L74.442 49.487C76.117 45.263 76.249 40.337 75.167 35.752H75.166Z" fill="white"/>
<path fill-rule="evenodd" clip-rule="evenodd" d="M45.845 25.508L46.395 33.37L23.678 34.96C23.402 34.979 22.55 34.77 23.688 34.01L24.201 33.622C25.563 32.609 27.495 31.277 29.686 30.072C35.466 26.893 39.562 25.399 45.845 25.508ZM53.82 25.692C59.324 26.222 63.696 28.435 66.454 31.966L49.388 33.16L48.853 25.503C51.421 25.558 53.077 25.621 53.821 25.693L53.82 25.692Z" fill="white"/>
</svg>
