<svg width="78" height="78" viewBox="0 0 78 78" fill="none" xmlns="http://www.w3.org/2000/svg">
<path fill-rule="evenodd" clip-rule="evenodd" d="M12.15 19.031H43.364V16.031H12.15V19.031Z" fill="white"/>
<path fill-rule="evenodd" clip-rule="evenodd" d="M12.15 26.01H43.364V23.01H12.15V26.01Z" fill="white"/>
<path fill-rule="evenodd" clip-rule="evenodd" d="M12.15 32.988H33.026V29.988H12.15V32.988Z" fill="white"/>
<path fill-rule="evenodd" clip-rule="evenodd" d="M71.2813 26.4472H58.5753C57.9583 26.4472 57.4573 26.9472 57.4573 27.5652V44.6662C57.4573 45.2842 56.9563 45.7842 56.3393 45.7842H29.5513C28.9323 45.7842 28.4323 46.2852 28.4323 46.9032V48.1482V56.2362C28.4323 56.7452 28.8443 57.1582 29.3543 57.1582L50.2663 57.1522C50.4463 57.1462 62.1863 56.7722 67.2733 61.6132C69.0553 63.3102 70.0203 65.4182 70.2083 68.0372C70.2433 68.5332 70.6353 68.9262 71.1343 68.9242H71.1823C71.6903 68.9212 72.0993 68.5092 72.0993 68.0022V27.2652C72.0993 26.8132 71.7333 26.4472 71.2813 26.4472Z" fill="white"/>
<path fill-rule="evenodd" clip-rule="evenodd" d="M10.2139 44.5097C8.94591 45.7167 8.04691 47.0977 7.49991 48.6857V11.4997H48.6669V39.7107L28.1239 39.7047C27.6169 39.6837 15.6279 39.3587 10.2139 44.5097ZM48.9949 42.2107C48.9979 42.2107 49.0009 42.2097 49.0049 42.2097L51.9949 42.2107C53.1929 42.2107 54.1669 41.2367 54.1669 40.0387V11.0687C54.1669 9.9277 53.2389 8.99969 52.0989 8.99969H49.0989H10.0679H7.06791C5.92791 8.99969 4.99991 9.9277 4.99991 11.0677V51.8047C4.99991 52.9757 5.93891 53.9327 7.14891 53.9707V53.9737H7.18491C7.19291 53.9737 7.19991 53.9767 7.20791 53.9767H7.22091C7.22991 53.9767 7.23691 53.9737 7.24491 53.9737H10.1849C10.1929 53.9737 10.1999 53.9767 10.2079 53.9767H10.2209C10.2299 53.9767 10.2369 53.9737 10.2449 53.9737H10.2959V53.9687C11.3979 53.9297 12.3089 53.0527 12.3889 51.9287C12.5529 49.6317 13.3869 47.7977 14.9379 46.3207C18.6519 42.7857 26.5889 42.2667 29.7459 42.2047L48.9949 42.2107Z" fill="white"/>
</svg>
