<svg width="78" height="78" viewBox="0 0 78 78" fill="none" xmlns="http://www.w3.org/2000/svg">
<path fill-rule="evenodd" clip-rule="evenodd" d="M38.268 68.0371C21.854 68.0371 8.5 54.6831 8.5 38.2681C8.5 21.8551 21.854 8.50209 38.268 8.50209C54.681 8.50209 68.035 21.8551 68.035 38.2681C68.035 54.6831 54.681 68.0371 38.268 68.0371ZM65.437 20.8941C59.696 11.9471 49.666 6.00009 38.268 6.00009C20.476 6.00009 6 20.4741 6 38.2671C6 45.4011 8.331 51.9981 12.266 57.3461C18.006 66.3001 28.039 72.2501 39.442 72.2501C57.234 72.2501 71.709 57.7751 71.709 39.9831C71.709 32.8451 69.375 26.2451 65.437 20.8941Z" fill="white"/>
<path fill-rule="evenodd" clip-rule="evenodd" d="M39.857 18.905H36.857V38.847H38.357L37.272 39.884L53.44 56.814L55.61 54.742L39.857 38.246V18.905Z" fill="white"/>
<path fill-rule="evenodd" clip-rule="evenodd" d="M38.3569 34.3574C35.8769 34.3574 33.8659 36.3674 33.8659 38.8474C33.8659 41.3284 35.8769 43.3374 38.3569 43.3374C40.8369 43.3374 42.8479 41.3284 42.8479 38.8474C42.8479 36.3674 40.8369 34.3574 38.3569 34.3574Z" fill="white"/>
</svg>
