<svg width="78" height="78" viewBox="0 0 78 78" fill="none" xmlns="http://www.w3.org/2000/svg">
<path fill-rule="evenodd" clip-rule="evenodd" d="M12.936 47.6466H61.229V17.1096H12.936V47.6466ZM61.987 14.6096H12.177C11.217 14.6096 10.436 15.3906 10.436 16.3506V48.4046C10.436 49.3656 11.217 50.1466 12.177 50.1466H61.987C62.947 50.1466 63.729 49.3656 63.729 48.4046V16.3506C63.729 15.3906 62.947 14.6096 61.987 14.6096Z" fill="white"/>
<path fill-rule="evenodd" clip-rule="evenodd" d="M66.9102 51.145C66.9102 52.309 65.9642 53.255 64.8002 53.255H45.2362H31.2322H9.61018C8.44618 53.255 7.50018 52.309 7.50018 51.145V13.611C7.50018 12.447 8.44618 11.5 9.61018 11.5H64.8002C65.9642 11.5 66.9102 12.447 66.9102 13.611V51.145ZM68.1412 9H64.8002H12.9522H9.61018C7.06818 9 5.00018 11.068 5.00018 13.611V51.145C5.00018 53.687 7.06818 55.755 9.61018 55.755H12.9522H31.2322V60.515H33.7322V55.755H42.7362V60.515H47.5492V55.755H64.8002H68.1412C70.6842 55.755 72.7532 53.687 72.7532 51.145V13.611C72.7532 11.068 70.6842 9 68.1412 9Z" fill="white"/>
<path fill-rule="evenodd" clip-rule="evenodd" d="M53.8887 68.2934H23.9137C23.2687 68.2934 22.7407 67.7654 22.7407 67.1204V66.7364C22.7407 63.3144 25.5397 60.5154 28.9617 60.5154H48.8407C52.2627 60.5154 55.0627 63.3144 55.0627 66.7364V67.1204C55.0627 67.7654 54.5347 68.2934 53.8887 68.2934Z" fill="white"/>
</svg>
