<svg width="78" height="78" viewBox="0 0 78 78" fill="none" xmlns="http://www.w3.org/2000/svg">
<path fill-rule="evenodd" clip-rule="evenodd" d="M55.4406 6.50049C56.7616 6.50049 57.8356 7.54749 57.8356 8.83549V65.3235C57.8356 66.6115 56.7616 67.6585 55.4406 67.6585H55.3756V6.50049H55.4406ZM25.7214 62.97C26.4114 62.97 26.9714 63.53 26.9714 64.22C26.9714 64.91 26.4114 65.47 25.7214 65.47H19.2764C18.5864 65.47 18.0264 64.91 18.0264 64.22C18.0264 63.53 18.5864 62.97 19.2764 62.97H25.7214ZM37.2761 62.97C37.9661 62.97 38.5261 63.53 38.5261 64.22C38.5261 64.91 37.9661 65.47 37.2761 65.47H30.8311C30.1411 65.47 29.5811 64.91 29.5811 64.22C29.5811 63.53 30.1411 62.97 30.8311 62.97H37.2761ZM48.8312 62.97C49.5212 62.97 50.0812 63.53 50.0812 64.22C50.0812 64.91 49.5212 65.47 48.8312 65.47H42.3862C41.6962 65.47 41.1362 64.91 41.1362 64.22C41.1362 63.53 41.6962 62.97 42.3862 62.97H48.8312ZM25.7214 58.3191C26.4114 58.3191 26.9714 58.8791 26.9714 59.5691C26.9714 60.2591 26.4114 60.8191 25.7214 60.8191H19.2764C18.5864 60.8191 18.0264 60.2591 18.0264 59.5691C18.0264 58.8791 18.5864 58.3191 19.2764 58.3191H25.7214ZM37.2761 58.3191C37.9661 58.3191 38.5261 58.8791 38.5261 59.5691C38.5261 60.2591 37.9661 60.8191 37.2761 60.8191H30.8311C30.1411 60.8191 29.5811 60.2591 29.5811 59.5691C29.5811 58.8791 30.1411 58.3191 30.8311 58.3191H37.2761ZM48.8312 58.3191C49.5212 58.3191 50.0812 58.8791 50.0812 59.5691C50.0812 60.2591 49.5212 60.8191 48.8312 60.8191H42.3862C41.6962 60.8191 41.1362 60.2591 41.1362 59.5691C41.1362 58.8791 41.6962 58.3191 42.3862 58.3191H48.8312ZM25.7214 53.6677C26.4114 53.6677 26.9714 54.2277 26.9714 54.9177C26.9714 55.6077 26.4114 56.1677 25.7214 56.1677H19.2764C18.5864 56.1677 18.0264 55.6077 18.0264 54.9177C18.0264 54.2277 18.5864 53.6677 19.2764 53.6677H25.7214ZM37.2761 53.6677C37.9661 53.6677 38.5261 54.2277 38.5261 54.9177C38.5261 55.6077 37.9661 56.1677 37.2761 56.1677H30.8311C30.1411 56.1677 29.5811 55.6077 29.5811 54.9177C29.5811 54.2277 30.1411 53.6677 30.8311 53.6677H37.2761ZM48.8312 53.6677C49.5212 53.6677 50.0812 54.2277 50.0812 54.9177C50.0812 55.6077 49.5212 56.1677 48.8312 56.1677H42.3862C41.6962 56.1677 41.1362 55.6077 41.1362 54.9177C41.1362 54.2277 41.6962 53.6677 42.3862 53.6677H48.8312ZM48.531 9.04899C49.386 9.04899 50.081 9.75999 50.081 10.635V49.652C50.081 50.526 49.386 51.238 48.531 51.238H19.576C18.721 51.238 18.027 50.526 18.027 49.652V10.635C18.027 9.75999 18.721 9.04899 19.576 9.04899H48.531ZM47.581 11.55H20.526V48.738H47.581V11.55ZM17.9586 67.6585C16.6386 67.6585 15.5636 66.6115 15.5636 65.3235V8.83549C15.5636 7.54749 16.6386 6.50049 17.9586 6.50049H52.8756V67.6585H17.9586ZM62.4836 9.38049C62.4896 9.37749 62.5076 9.37049 62.5076 9.37049C62.5076 9.37049 62.4086 9.19549 62.2186 8.90449C62.2056 8.88549 62.1936 8.86649 62.1806 8.84749C61.5916 7.95749 60.2306 6.11649 58.2866 4.83549C57.9536 4.61649 57.6996 4.49649 57.5076 4.45349C56.8766 4.16949 56.1806 4.00049 55.4406 4.00049H17.9586C15.2246 4.00049 13.0006 6.16949 13.0006 8.83549V65.3235C13.0006 66.0935 13.2016 66.8105 13.5306 67.4565L13.5256 67.4585C13.5256 67.4585 13.5606 67.5195 13.6216 67.6195C13.7406 67.8325 13.8706 68.0365 14.0206 68.2285C14.6736 69.1755 15.9526 70.7995 17.7126 71.9695C18.5286 72.5455 19.5226 72.8945 20.6056 72.8945H58.0876C60.8226 72.8945 63.0466 70.7255 63.0466 68.0595V11.5705C63.0466 10.7785 62.8316 10.0405 62.4836 9.38049Z" fill="white"/>
<path fill-rule="evenodd" clip-rule="evenodd" d="M28.3039 30.5846C31.5419 27.2986 36.8479 27.2986 40.1109 30.5846L41.8149 28.8806C37.6029 24.6696 30.7869 24.6696 26.5999 28.8806L28.3039 30.5846Z" fill="white"/>
<path fill-rule="evenodd" clip-rule="evenodd" d="M24.9449 27.1766C30.0569 22.0636 38.3579 22.0636 43.4699 27.1766L45.1739 25.5216C39.0879 19.4596 29.3259 19.4596 23.2649 25.5216L24.9449 27.1766ZM31.7119 33.9196C33.0749 32.4826 35.3879 32.4826 36.7759 33.9196L38.4549 32.2156C36.0939 29.9026 32.3209 29.9026 30.0079 32.2156L31.7119 33.9196ZM34.2199 35.0156C33.2699 35.0156 32.4669 35.7946 32.4669 36.7686C32.4669 37.6926 33.2699 38.4726 34.2199 38.4726C35.1689 38.4726 35.9479 37.6686 35.9479 36.7686C35.9479 35.7946 35.1689 35.0156 34.2199 35.0156Z" fill="white"/>
</svg>
