<svg width="78" height="78" viewBox="0 0 78 78" fill="none" xmlns="http://www.w3.org/2000/svg">
<path fill-rule="evenodd" clip-rule="evenodd" d="M38.718 5.90002C50.116 5.90002 60.147 11.847 65.888 20.795C69.825 26.145 72.159 32.746 72.159 39.883C72.159 57.675 57.685 72.15 39.893 72.15C28.489 72.15 18.456 66.2 12.716 57.247C8.78101 51.898 6.45001 45.301 6.45001 38.168C6.45001 20.375 20.926 5.90002 38.718 5.90002ZM16.5615 57.9938C20.6925 62.597 26.2336 65.9103 32.4975 67.2466C29.9809 65.2071 27.7849 62.0054 26.0942 57.9941L16.5615 57.9938ZM38.3236 58.0121L28.9757 58.0122C31.4176 63.3712 34.7829 66.8104 38.3231 67.193L38.3236 58.0121ZM60.8708 57.9938L51.747 57.9941L51.5374 58.4813C49.9116 62.1848 47.847 65.162 45.4965 67.1211L45.8608 67.0336C51.7446 65.5786 56.9445 62.3688 60.8708 57.9938ZM48.9887 58.0122L40.9566 58.0121L40.9578 66.9089C44.0075 65.9216 46.8517 62.702 48.9887 58.0122ZM38.3236 40.5671L25.1973 40.5673C25.4021 46.1097 26.3939 51.1817 27.9072 55.3796L38.3236 55.3791V40.5671ZM52.767 40.5673L40.9566 40.5671V55.3791L50.0572 55.3796C51.5704 51.1817 52.5623 46.1097 52.767 40.5673ZM68.387 40.5481H55.3365L55.3028 41.3221C55.0458 46.4638 54.1402 51.2441 52.7442 55.3613L62.9789 55.3609C66.0048 51.112 67.944 46.038 68.387 40.5481ZM22.5047 40.5481H9.04521C9.48823 46.038 11.4274 51.112 14.4533 55.3609L25.097 55.3613L24.8913 54.7388C23.5447 50.556 22.6965 45.7252 22.5047 40.5481ZM27.2541 23.4503C25.9782 27.6647 25.2051 32.6066 25.16 37.9342H38.3236V23.4511L27.2541 23.4503ZM50.7102 23.4503L40.9566 23.4511V37.9342H52.8043C52.7592 32.6066 51.9861 27.6647 50.7102 23.4503ZM64.5949 23.4328H53.4254L53.6132 24.1201C54.7139 28.2734 55.346 32.9565 55.3769 37.9159L68.4833 37.9153C68.4456 32.654 67.0358 27.713 64.5949 23.4328ZM24.4158 23.4328H12.8373C10.4389 27.6385 9.03605 32.4822 8.95211 37.6408L8.95001 37.915L22.464 37.9155L22.4777 36.9613C22.5845 32.0821 23.2737 27.4903 24.4158 23.4328ZM38.3231 9.66327C34.3656 10.091 30.6268 14.3382 28.152 20.8169L38.3236 20.8181L38.3231 9.66327ZM40.9578 9.94737L40.9566 20.8181L49.8123 20.8169C47.614 15.0619 44.4182 11.0677 40.9578 9.94737ZM33.0803 8.90002L32.4661 9.02534C25.1204 10.601 18.7713 14.8953 14.5279 20.7997H25.2465L25.4259 20.2996C27.3055 15.1678 29.967 11.1577 33.0803 8.90002ZM44.9171 9.01508C48.0632 11.3672 50.7376 15.5156 52.5948 20.7997H62.9043C58.6516 14.8823 52.2839 10.5821 44.9171 9.01508Z" fill="white"/>
<path d="M51.752 26.078C53.9335 26.078 55.702 24.3096 55.702 22.128C55.702 19.9465 53.9335 18.178 51.752 18.178C49.5705 18.178 47.802 19.9465 47.802 22.128C47.802 24.3096 49.5705 26.078 51.752 26.078Z" fill="white"/>
<path d="M50.752 60.639C52.9335 60.639 54.702 58.8705 54.702 56.689C54.702 54.5075 52.9335 52.739 50.752 52.739C48.5705 52.739 46.802 54.5075 46.802 56.689C46.802 58.8705 48.5705 60.639 50.752 60.639Z" fill="white"/>
<path d="M23.445 42.865C25.6265 42.865 27.395 41.0966 27.395 38.915C27.395 36.7335 25.6265 34.965 23.445 34.965C21.2635 34.965 19.495 36.7335 19.495 38.915C19.495 41.0966 21.2635 42.865 23.445 42.865Z" fill="white"/>
</svg>
