<svg width="78" height="78" viewBox="0 0 78 78" fill="none" xmlns="http://www.w3.org/2000/svg">
<path fill-rule="evenodd" clip-rule="evenodd" d="M8 7.456L26.612 25.984C26.9804 26.3507 27.4765 26.5604 27.9962 26.569C28.5159 26.5775 29.0187 26.3844 29.399 26.03L40.185 15.973C40.3431 15.8261 40.5517 15.7458 40.7675 15.7486C40.9833 15.7514 41.1897 15.8371 41.344 15.988L63.268 37.432H50.443L50.398 41.123H67.75C68.705 41.123 69.478 40.35 69.478 39.396V22.224H65.838L65.876 35.136L42.011 11.793C41.6924 11.4809 41.2658 11.3037 40.8198 11.2983C40.3739 11.2929 39.943 11.4597 39.617 11.764L28.496 22.132C28.3794 22.2409 28.225 22.3002 28.0655 22.2974C27.9059 22.2946 27.7537 22.2299 27.641 22.117L10.446 5L8 7.456Z" fill="white"/>
<path fill-rule="evenodd" clip-rule="evenodd" d="M51.614 68.985H62.669V58.86H51.614V68.984V68.985ZM38.06 68.985H49.115V51.01H38.06V68.985ZM24.505 68.985H35.56V42.603H24.505V68.985ZM10.951 68.985H22.005V34.754H10.951V68.984V68.985ZM63.471 56.361H51.615V50.209C51.615 49.7583 51.436 49.3261 51.1174 49.0073C50.7988 48.6885 50.3667 48.5093 49.916 48.509H38.06V41.801C38.0595 41.3509 37.8804 40.9193 37.5621 40.6009C37.2438 40.2826 36.8122 40.1036 36.362 40.103H24.505V33.952C24.5045 33.502 24.3255 33.0706 24.0074 32.7523C23.6893 32.434 23.258 32.2548 22.808 32.254H10.149C9.69881 32.2546 9.26723 32.4336 8.94891 32.7519C8.63058 33.0703 8.45152 33.5019 8.45099 33.952V71.485C8.45299 71.648 8.60199 71.746 8.80899 71.873C9.88899 72.536 13.291 73.256 13.949 73.256H69.432V61.688C69.432 59.86 66.315 56.833 64.187 56.43C63.9507 56.3865 63.7112 56.363 63.471 56.36V56.361Z" fill="white"/>
</svg>
