<svg width="78" height="78" viewBox="0 0 78 78" fill="none" xmlns="http://www.w3.org/2000/svg">
<path fill-rule="evenodd" clip-rule="evenodd" d="M59.9678 30.8779H35.4078L37.7828 24.3259C38.0988 23.4569 38.9238 22.8779 39.8498 22.8779H64.4068L62.0318 29.4309C61.7178 30.2989 60.8928 30.8779 59.9678 30.8779Z" fill="white"/>
<path fill-rule="evenodd" clip-rule="evenodd" d="M17.385 44.555H50.385V41.555H17.385V44.555Z" fill="white"/>
<path fill-rule="evenodd" clip-rule="evenodd" d="M10.385 51.544H46.385V48.544H10.385V51.544Z" fill="white"/>
<path fill-rule="evenodd" clip-rule="evenodd" d="M68.9307 56.3857C68.9307 57.6737 67.8827 58.7207 66.5957 58.7207H8.83469C7.54769 58.7207 6.49969 57.6737 6.49969 56.3857V19.8347C6.49969 18.5477 7.54769 17.4997 8.83469 17.4997H66.5957C67.8827 17.4997 68.9307 18.5477 68.9307 19.8347V56.3857ZM73.3007 19.6017C71.5547 17.0367 68.7847 15.5127 68.7847 15.5127C68.7847 15.5127 68.7767 15.5327 68.7727 15.5417C68.1157 15.2067 67.3827 14.9997 66.5957 14.9997H8.83469C6.16869 14.9997 3.99969 17.1687 3.99969 19.8347V56.3857C3.99969 57.0577 4.13969 57.6977 4.38869 58.2807C4.41769 58.4727 4.53069 58.7317 4.77269 59.0907C6.51669 61.6717 9.30769 63.2067 9.30769 63.2067C9.30769 63.2067 9.31369 63.1917 9.31569 63.1877C10.0047 63.5667 10.7847 63.8027 11.6257 63.8027H69.3857C72.0517 63.8027 74.2207 61.6337 74.2207 58.9677V22.4167C74.2207 21.3647 73.8737 20.3967 73.3007 19.6017Z" fill="white"/>
</svg>
