<svg width="78" height="78" viewBox="0 0 78 78" fill="none" xmlns="http://www.w3.org/2000/svg">
<path fill-rule="evenodd" clip-rule="evenodd" d="M41.8564 62.8135C41.8564 65.1335 39.9754 67.0155 37.6554 67.0155C35.3354 67.0155 33.4544 65.1335 33.4544 62.8135C33.4544 60.4935 35.3354 58.6125 37.6554 58.6125C39.9754 58.6125 41.8564 60.4935 41.8564 62.8135Z" fill="white"/>
<path fill-rule="evenodd" clip-rule="evenodd" d="M57.2051 67.753C57.2051 69.041 56.1571 70.088 54.8701 70.088H20.7571C19.4701 70.088 18.4221 69.041 18.4221 67.753V6.836C18.4221 5.548 19.4701 4.5 20.7571 4.5H54.8701C56.1571 4.5 57.2051 5.548 57.2051 6.836V67.753ZM61.6581 7.546C61.6651 7.544 61.6841 7.536 61.6841 7.536C61.6841 7.536 60.2381 4.698 57.7131 2.874C57.7011 2.865 57.6921 2.861 57.6811 2.853C57.6511 2.832 57.6201 2.815 57.5901 2.795C57.3791 2.652 57.2021 2.557 57.0581 2.505C56.4171 2.192 55.7081 2 54.9481 2H20.8351C18.1691 2 16.0001 4.169 16.0001 6.836V67.753C16.0001 68.566 16.2141 69.324 16.5711 69.993C16.5671 69.995 16.5521 70.001 16.5521 70.001C16.5521 70.001 17.8271 72.454 20.0561 74.249C20.9071 75.027 22.0271 75.514 23.2721 75.514H57.3861C60.0521 75.514 62.2211 73.345 62.2211 70.679V9.762C62.2211 8.959 62.0051 8.213 61.6581 7.546Z" fill="white"/>
<path fill-rule="evenodd" clip-rule="evenodd" d="M24.377 53.2562H51.407V10.5762H24.377V53.2562ZM52.024 8.07617H23.603C22.608 8.07617 21.798 8.88617 21.798 9.88017V53.9522C21.798 54.9462 22.608 55.7562 23.603 55.7562H52.024C53.019 55.7562 53.829 54.9462 53.829 53.9522V9.88017C53.829 8.88617 53.019 8.07617 52.024 8.07617Z" fill="white"/>
</svg>
