<svg width="78" height="78" viewBox="0 0 78 78" fill="none" xmlns="http://www.w3.org/2000/svg">
<path fill-rule="evenodd" clip-rule="evenodd" d="M43.3735 45.9736C43.3735 42.3836 40.4635 39.4736 36.8735 39.4736C33.2835 39.4736 30.3735 42.3836 30.3735 45.9736C30.3735 48.2736 31.5705 50.2896 33.3735 51.4446V56.9736C33.3735 58.9066 34.9405 60.4736 36.8735 60.4736C38.8065 60.4736 40.3735 58.9066 40.3735 56.9736V51.4446C42.1755 50.2896 43.3735 48.2736 43.3735 45.9736Z" fill="white"/>
<path fill-rule="evenodd" clip-rule="evenodd" d="M57.2681 63.4677C57.2681 65.8407 55.3381 67.7707 52.9661 67.7707H19.8031C17.4301 67.7707 15.5001 65.8407 15.5001 63.4677V31.2707H57.2681V63.4677ZM62.9971 32.6077L62.9991 32.6037L59.1861 29.3347L59.1851 29.3357C58.8331 28.9867 58.3491 28.7707 57.8151 28.7707H53.8401V21.1667C53.8401 11.7007 46.4461 3.99969 37.3571 3.99969C28.2681 3.99969 20.8731 11.7007 20.8731 21.1667V21.5837H24.8731V21.1667C24.8731 13.9067 30.4741 7.99969 37.3571 7.99969C44.2401 7.99969 49.8401 13.9067 49.8401 21.1667V28.7707H14.9391C13.8701 28.7707 13.0001 29.6397 13.0001 30.7097V63.4677C13.0001 63.6017 13.0121 63.7317 13.0201 63.8637C13.0191 63.8637 13.0131 63.8607 13.0131 63.8607C13.0131 63.8607 13.0171 63.9707 13.0351 64.1577C13.0351 64.1607 13.0361 64.1637 13.0361 64.1657C13.1831 65.6597 14.2891 72.2587 22.2371 73.4197C22.6911 73.5157 23.1621 73.5687 23.6451 73.5687H56.8081C60.5591 73.5687 63.6111 70.5167 63.6111 66.7657V34.0217C63.6111 33.4647 63.3731 32.9637 62.9971 32.6077Z" fill="white"/>
</svg>
