<svg width="78" height="78" viewBox="0 0 78 78" fill="none" xmlns="http://www.w3.org/2000/svg">
<path fill-rule="evenodd" clip-rule="evenodd" d="M51.4654 34.8946C49.7334 34.8946 48.3274 36.2976 48.3274 38.0326C48.3274 39.7676 49.7334 41.1696 51.4654 41.1696C53.1964 41.1696 54.6024 39.7676 54.6024 38.0326C54.6024 36.2976 53.1964 34.8946 51.4654 34.8946Z" fill="white"/>
<path fill-rule="evenodd" clip-rule="evenodd" d="M68.1178 51.152L60.1428 55.268C59.7488 55.472 59.4918 55.87 59.4688 56.313L58.8648 67.777C58.8418 68.211 58.6818 68.621 58.4168 68.929C58.3418 69.016 58.2588 69.106 58.1698 69.195C57.7288 69.633 57.1188 69.813 56.4908 69.689C55.8348 69.558 55.2898 69.115 55.0318 68.504L52.1948 61.755C52.0598 61.435 51.7978 61.185 51.4718 61.066C51.1428 60.945 50.7818 60.968 50.4728 61.127C50.3338 61.197 36.3148 68.185 22.1948 61.302C21.8828 61.15 21.5208 61.134 21.1968 61.259C20.8728 61.384 20.6158 61.639 20.4868 61.961L17.7088 68.904C17.5288 69.356 17.1648 69.715 16.6508 69.914C16.0768 70.135 15.4508 70.07 14.9348 69.735C14.4178 69.401 14.1038 68.856 14.0738 68.241L13.4078 55.052C13.3948 54.799 13.3038 54.554 13.1498 54.353C12.7458 53.826 3.47678 41.379 17.1968 28.945L17.4298 28.879C18.7038 30.038 20.1978 30.957 21.8348 31.577C20.6628 32.268 19.4808 33.053 18.2998 33.967C17.7538 34.39 17.6538 35.174 18.0758 35.721C18.3228 36.039 18.6928 36.206 19.0658 36.206C19.3328 36.206 19.6018 36.12 19.8298 35.944C30.0638 28.026 40.7208 29.81 40.8778 29.836C41.5618 29.963 42.2078 29.511 42.3328 28.833C42.4578 28.154 42.0088 27.503 41.3298 27.377C41.1668 27.347 39.7358 27.1 37.4838 27.127C38.5088 25.809 39.3068 24.307 39.7988 22.67L42.6428 23.502C44.3868 24.012 46.2918 23.685 47.7388 22.627C48.9488 21.741 51.2298 20.072 52.8238 17.506C53.7288 19.015 54.7648 21.792 53.9008 25.91C53.6918 26.913 54.0318 27.965 54.9128 29.039L61.3088 36.836C61.7828 37.414 62.3468 37.905 62.9818 38.296L68.1178 41.45V51.152ZM15.4178 18.731C15.4178 12.831 20.2178 8.03 26.1178 8.03C32.0188 8.03 36.8188 12.831 36.8188 18.731C36.8188 24.631 32.0188 29.432 26.1178 29.432C20.2178 29.432 15.4178 24.631 15.4178 18.731ZM73.0218 40.686L67.2908 37.166C66.8918 36.921 66.5388 36.612 66.2418 36.25L59.8468 28.453C59.4268 27.943 59.3138 27.586 59.3478 27.423C61.0238 19.431 53.7958 14.434 53.6068 14.268C53.3538 14.046 53.0248 13.943 52.6958 13.965C52.5688 13.956 52.4408 13.959 52.3148 13.988C51.9208 14.081 51.5958 14.36 51.4428 14.735C50.2398 17.699 47.6528 19.592 46.2628 20.609C45.4388 21.212 44.3498 21.395 43.3458 21.103L40.2978 20.211C40.3498 19.724 40.3808 19.232 40.3808 18.732C40.3808 11.16 34.2208 5 26.6488 5C19.0768 5 12.9168 11.16 12.9168 18.732C12.9168 21.817 13.9518 24.658 15.6768 26.953C13.4098 28.985 11.7018 31.029 10.4388 33.042C8.90077 32.134 6.86577 30.633 6.41877 29.458C6.17477 28.812 5.45077 28.488 4.80677 28.733C4.16077 28.978 3.83677 29.7 4.08177 30.345C4.89377 32.482 7.82378 34.405 9.22678 35.229C4.48678 45.087 9.70977 53.74 10.9288 55.538L11.5758 68.367C11.6478 69.792 12.3758 71.055 13.5738 71.833C13.6238 71.866 13.6938 71.903 13.7738 71.944C14.1188 72.144 14.4808 72.296 14.8568 72.394C16.2788 72.923 18.3528 73.542 18.9438 73.542C19.4958 73.542 20.0588 73.437 20.6128 73.223C21.7118 72.798 22.5928 71.926 23.0308 70.833L25.2748 65.223C25.7758 65.386 26.2758 65.548 26.7728 65.685C36.8538 69.537 46.2878 67.439 51.1658 65.758L52.7268 69.473C53.3068 70.852 54.5328 71.849 56.0048 72.141C56.1428 72.169 56.2818 72.183 56.4208 72.198C56.4298 72.2 56.4378 72.203 56.4478 72.205C57.8858 72.49 61.9038 72.987 62.9298 71.97C63.0668 71.835 63.1928 71.697 63.3098 71.561C63.9358 70.835 64.3088 69.893 64.3608 68.909L64.9278 58.161L72.9408 54.025C73.3568 53.81 73.6178 53.381 73.6178 52.914V41.751C73.6178 41.317 73.3918 40.913 73.0218 40.686Z" fill="white"/>
<path fill-rule="evenodd" clip-rule="evenodd" d="M27.8458 22.3883C27.6268 22.6463 27.3538 22.8243 27.0318 22.9293V19.6653C27.4238 19.8103 27.7208 19.9963 27.9108 20.2313C28.1418 20.5143 28.2578 20.8523 28.2578 21.2433C28.2578 21.6823 28.1208 22.0633 27.8458 22.3883ZM24.6538 16.0563C24.4668 15.7903 24.3728 15.5023 24.3728 15.1933C24.3728 14.8533 24.4748 14.5443 24.6798 14.2633C24.8628 14.0133 25.1038 13.8313 25.3978 13.7113V16.6483C25.0728 16.4923 24.8218 16.2963 24.6538 16.0563ZM29.6438 18.6003C29.1668 18.0333 28.2928 17.5663 27.0318 17.1973V13.8433C27.4448 14.1093 27.7158 14.5213 27.8278 15.0963L30.0468 14.8063C29.8948 13.9303 29.5438 13.2303 28.9948 12.7063C28.4978 12.2343 27.8378 11.9383 27.0318 11.8023V10.8873H26.7758H25.5048H25.3978V11.7743C24.4438 11.8893 23.6708 12.2543 23.0878 12.8823C22.4828 13.5343 22.1808 14.3393 22.1808 15.2983C22.1808 16.2453 22.4478 17.0513 22.9828 17.7143C23.5008 18.3563 24.3068 18.8393 25.3978 19.1673V22.8143C25.1238 22.6603 24.8728 22.4383 24.6448 22.1383C24.3878 21.7993 24.2118 21.3953 24.1188 20.9283L21.8298 21.1733C22.0058 22.3253 22.4088 23.2173 23.0398 23.8483C23.6478 24.4563 24.4368 24.8223 25.3978 24.9593V26.5753H25.5048H26.7758H27.0318V24.8893C28.0488 24.6993 28.8548 24.2723 29.4458 23.6023C30.0858 22.8783 30.4068 21.9863 30.4068 20.9283C30.4068 19.9813 30.1518 19.2043 29.6438 18.6003Z" fill="white"/>
</svg>
