<svg width="78" height="78" viewBox="0 0 78 78" fill="none" xmlns="http://www.w3.org/2000/svg">
<path fill-rule="evenodd" clip-rule="evenodd" d="M35.581 29.212C35.581 30.682 34.9971 32.0917 33.9576 33.1311C32.9182 34.1706 31.5085 34.7545 30.0385 34.7545C28.5685 34.7545 27.1588 34.1706 26.1194 33.1311C25.0799 32.0917 24.496 30.682 24.496 29.212C24.496 27.742 25.0799 26.3323 26.1194 25.2929C27.1588 24.2534 28.5685 23.6695 30.0385 23.6695C31.5085 23.6695 32.9182 24.2534 33.9576 25.2929C34.9971 26.3323 35.581 27.742 35.581 29.212ZM29.406 49.572C29.1607 51.012 28.3534 52.2955 27.1617 53.1403C25.97 53.9851 24.4915 54.3218 23.0515 54.0765C21.6115 53.8312 20.328 53.0239 19.4832 51.8322C18.6384 50.6405 18.3017 49.162 18.547 47.722C18.7923 46.282 19.5996 44.9984 20.7913 44.1537C21.983 43.3089 23.4615 42.9722 24.9015 43.2175C26.3415 43.4628 27.6251 44.2701 28.4698 45.4618C29.3146 46.6535 29.6513 48.132 29.406 49.572ZM47.9 40.385C48.2616 41.0114 48.4963 41.7029 48.5906 42.42C48.685 43.1371 48.6372 43.8658 48.4499 44.5644C48.2627 45.263 47.9397 45.9179 47.4993 46.4917C47.059 47.0655 46.5099 47.5469 45.8835 47.9085C45.2571 48.2701 44.5656 48.5048 43.8485 48.5991C43.1314 48.6935 42.4027 48.6457 41.7041 48.4584C40.2932 48.0802 39.0903 47.1571 38.36 45.892C37.6297 44.6269 37.4319 43.1235 37.8101 41.7126C38.1883 40.3017 39.1114 39.0988 40.3765 38.3685C41.6416 37.6382 43.145 37.4404 44.5559 37.8186C45.9668 38.1967 47.1697 39.1199 47.9 40.385Z" fill="white"/>
<path fill-rule="evenodd" clip-rule="evenodd" d="M63.934 50.143C63.6826 50.4697 63.3691 50.7434 63.0114 50.9484C62.6537 51.1533 62.259 51.2854 61.85 51.337C61.6581 51.3589 61.4646 51.3629 61.272 51.349C61.214 51.345 61.159 51.337 61.102 51.33C60.9672 51.3153 60.8335 51.2912 60.702 51.258C60.646 51.245 60.59 51.232 60.537 51.215C60.3728 51.166 60.2129 51.1035 60.059 51.028C59.6819 50.8416 59.3461 50.5815 59.0713 50.263C58.7965 49.9446 58.5883 49.5743 58.459 49.174C58.3997 48.9936 58.3569 48.8082 58.331 48.62C58.2383 47.9039 58.1269 47.1903 57.997 46.48C57.1925 41.9678 55.6251 37.6257 53.362 33.64C51.086 29.6387 48.1282 26.0659 44.622 23.083C43.8577 22.4328 43.0681 21.813 42.255 21.225C41.6093 20.7592 40.9489 20.314 40.275 19.89C40.239 19.867 40.202 19.841 40.163 19.818C39.5144 19.413 38.8534 19.0281 38.181 18.664L37.973 18.554C36.6684 17.8581 35.321 17.2456 33.939 16.72C33.837 16.682 33.734 16.642 33.631 16.605C32.9764 16.3633 32.3141 16.1432 31.645 15.945C31.572 15.922 31.497 15.905 31.424 15.882C30.813 15.7069 30.1967 15.5508 29.576 15.414C29.479 15.394 29.383 15.369 29.288 15.348C27.8796 15.0543 26.4514 14.8654 25.015 14.783C24.3595 14.7473 23.7317 14.5068 23.22 14.0955C22.7084 13.6841 22.3387 13.1226 22.163 12.49C22.1159 12.3376 22.0825 12.1813 22.063 12.023C22.0369 11.8449 22.0279 11.6648 22.036 11.485C22.0546 11.0707 22.1554 10.6643 22.3326 10.2893C22.5098 9.91439 22.7598 9.57843 23.068 9.30101C23.3739 9.02481 23.7317 8.81227 24.1206 8.67578C24.5094 8.53929 24.9216 8.48158 25.333 8.50601C46.886 9.60001 62.205 29.356 64.565 47.823C64.6186 48.2322 64.5904 48.648 64.482 49.0463C64.3737 49.4445 64.1874 49.8173 63.934 50.143ZM9.92801 62.617L22.948 16.821C23.548 17.081 24.198 17.243 24.888 17.278C38.206 17.955 53.428 29.982 55.851 48.935C55.929 49.543 56.114 50.113 56.368 50.641L9.92801 62.617ZM48.414 14.837C45.96 12.91 37.09 6.60101 25.463 6.01001C24.7234 5.9684 23.983 6.07379 23.2844 6.3201C22.5858 6.56641 21.9429 6.94875 21.393 7.44501C20.8402 7.94221 20.3916 8.54419 20.0731 9.21606C19.7547 9.88793 19.5728 10.6163 19.538 11.359C19.4676 12.7769 19.9367 14.1689 20.851 15.255L7.04001 63.824C6.94501 64.174 6.94201 64.563 7.30801 64.996L10.504 68.594C10.6566 68.766 10.8536 68.8924 11.0735 68.9595C11.2934 69.0265 11.5275 69.0316 11.75 68.974L61.108 56.246C61.123 56.242 61.133 56.23 61.148 56.226C62.113 56.997 63.801 57.613 65.357 57.416C66.0925 57.3239 66.8024 57.0869 67.4458 56.7187C68.0891 56.3506 68.653 55.8585 69.105 55.271C69.5603 54.686 69.8951 54.0165 70.0899 53.3012C70.2847 52.5859 70.3357 51.8391 70.24 51.104C68.634 38.54 60.273 23.942 48.413 14.837H48.414Z" fill="white"/>
</svg>
