<svg width="78" height="78" viewBox="0 0 78 78" fill="none" xmlns="http://www.w3.org/2000/svg">
<path fill-rule="evenodd" clip-rule="evenodd" d="M68.999 32.66C68.999 34.629 67.13 36.229 64.833 36.229C62.535 36.229 60.666 34.629 60.666 32.661V29.091H68.999V32.661V32.66ZM36.267 64.816L36.214 42.445L15.246 42.495L15.299 64.875L9.159 64.939L9.058 38.544C9.58572 38.6658 10.1254 38.7282 10.667 38.73C12.898 38.73 14.873 37.723 16.083 36.186C17.294 37.723 19.269 38.73 21.5 38.73C23.731 38.73 25.706 37.723 26.916 36.186C28.127 37.723 30.102 38.73 32.333 38.73C34.564 38.73 36.539 37.723 37.75 36.186C38.96 37.723 40.935 38.73 43.166 38.73C45.397 38.73 47.372 37.723 48.583 36.186C49.793 37.723 51.768 38.73 53.999 38.73C56.23 38.73 58.205 37.723 59.416 36.185C60.537 37.609 62.316 38.567 64.345 38.703L64.44 62.496C64.4408 62.798 64.3821 63.0973 64.2672 63.3766C64.1524 63.656 63.9836 63.91 63.7706 64.1241C63.5576 64.3382 63.3045 64.5083 63.0257 64.6246C62.747 64.7409 62.448 64.8012 62.146 64.802L36.267 64.816ZM6.5 29.092H14.833V32.661C14.833 34.629 12.964 36.229 10.667 36.229C8.369 36.229 6.5 34.629 6.5 32.661V29.091V29.092ZM25.666 29.092V32.661C25.666 34.629 23.797 36.229 21.5 36.229C19.202 36.229 17.333 34.629 17.333 32.661V29.091H25.666V29.092ZM36.5 29.092V32.661C36.5 34.629 34.631 36.229 32.334 36.229C30.036 36.229 28.167 34.629 28.167 32.661V29.091H36.5V29.092ZM47.333 29.092V32.661C47.333 34.629 45.464 36.229 43.167 36.229C40.869 36.229 39 34.629 39 32.661V29.091H47.333V29.092ZM58.166 29.092V32.661C58.166 34.629 56.297 36.229 54 36.229C51.702 36.229 49.833 34.629 49.833 32.661V29.091H58.166V29.092ZM12.131 13.5H63.368L68.426 26.592H7.073L12.131 13.5ZM68.53 11.8C68.4391 11.5645 68.2791 11.3621 68.071 11.2193C67.8629 11.0765 67.6164 11 67.364 11H11.273C10.757 11 10.294 11.318 10.107 11.8L4.084 27.39C4.0367 27.5199 4.01168 27.6568 4.01 27.795L4 32.66C4 34.595 5.004 36.318 6.56 37.43L6.663 66.857C6.66379 67.0128 6.72637 67.1619 6.83699 67.2715C6.9476 67.3812 7.09722 67.4425 7.253 67.442L17.805 67.402V67.366L17.752 44.986L33.72 44.949L33.773 67.321L64.384 67.295C65.1536 67.2946 65.9155 67.1424 66.6262 66.8472C67.3369 66.5519 67.9824 66.1193 68.5257 65.5743C69.069 65.0292 69.4995 64.3823 69.7924 63.6707C70.0854 62.959 70.2351 62.1966 70.233 61.427L70.158 38.386C72.762 37.559 74.639 35.308 74.639 32.66V31.88C74.639 29.047 74.12 26.268 73.099 23.62L68.53 11.8Z" fill="white"/>
<path fill-rule="evenodd" clip-rule="evenodd" d="M44.416 54.891H57.42V45.007H44.416V54.891ZM41.916 57.391H59.92V42.507H41.916V57.391Z" fill="white"/>
<path fill-rule="evenodd" clip-rule="evenodd" d="M17.805 67.403L30.903 73.366V51.035L17.75 44.983L17.805 67.403Z" fill="white"/>
</svg>
