<svg xmlns="http://www.w3.org/2000/svg" viewBox="0 0 78 78" width="78" height="78" fill="none"><g fill="none" fill-rule="evenodd"><path fill="#ffffff" d="M56.4102 5.98633C57.7769 5.98644 58.8896 7.03957 58.8896 8.33203V65.6396C58.8896 66.9321 57.7769 67.9862 56.4102 67.9863H17.3691C16.0023 67.9863 14.8896 66.9322 14.8896 65.6396V8.33203C14.8896 7.0395 16.0023 5.98633 17.3691 5.98633H56.4102ZM18.4316 65.2354H55.5625V8.73633H18.4316V65.2354Z"></path><path fill="#ffffff" d="M58.0312 2C58.9684 2.00005 59.8424 2.19118 60.6328 2.50195C60.8104 2.55358 61.0289 2.6471 61.2891 2.78906C61.326 2.80891 61.3644 2.82584 61.4014 2.84668C61.4149 2.85461 61.4257 2.85926 61.4404 2.86816C64.5433 4.67301 66.3253 7.47727 66.3379 7.49707C66.3379 7.49707 66.3143 7.50483 66.3057 7.50684C66.7336 8.16917 67 8.91062 67 9.70801V70.1992C66.9997 72.8464 64.3247 75 61.0371 75H18.9678C17.4326 75 16.0514 74.5166 15.002 73.7441C12.2531 71.9617 10.6807 69.5254 10.6807 69.5254C10.6807 69.5254 10.6991 69.5196 10.7041 69.5176C10.2639 68.8533 10 68.1003 10 67.293V6.80176C10.0003 4.1536 12.6753 2 15.9629 2H58.0312ZM15.8662 4.48242C14.2793 4.48249 12.9876 5.523 12.9873 6.80176V67.293C12.9873 68.5719 14.2791 69.6122 15.8662 69.6123H57.9346C59.5217 69.6123 60.8145 68.572 60.8145 67.293V6.80176C60.8142 5.52296 59.5215 4.48242 57.9346 4.48242H15.8662Z"></path><rect fill="#ffffff" x="33" y="12" width="8" height="3" rx="1.5"></rect></g></svg>
