<svg width="78" height="78" viewBox="0 0 78 78" fill="none" xmlns="http://www.w3.org/2000/svg">
<path fill-rule="evenodd" clip-rule="evenodd" d="M9.16761 62.0618C9.16761 60.0678 10.7956 58.4518 12.8036 58.4518C14.8116 58.4518 16.4396 60.0678 16.4396 62.0618C16.4396 64.0558 14.8116 65.6718 12.8036 65.6718C10.7956 65.6718 9.16761 64.0558 9.16761 62.0618ZM6.00061 69.1518H19.5056V32.5468H6.00061V69.1518Z" fill="white"/>
<path fill-rule="evenodd" clip-rule="evenodd" d="M65.5963 43.4245L56.8313 63.8855C56.1313 65.5655 54.4903 66.6515 52.6503 66.6515H23.2633H22.0053V33.0985C22.0053 31.8785 22.4713 30.7405 23.3203 29.8945L41.5493 11.6605L41.6613 11.7715L43.7353 13.8265C44.2993 14.3905 44.6273 15.1685 44.6403 15.9675L42.5503 34.3485H61.3483C65.0053 34.3485 65.8983 35.2415 65.8983 38.8995C65.8983 40.6175 65.7303 43.0105 65.5963 43.4245ZM65.1063 31.8485H61.3483H49.1113L50.8093 17.0555L50.8933 16.1325L50.8993 16.0195C50.8993 14.5435 50.3013 13.0995 49.2563 12.0545L46.7853 9.60751C46.3963 9.22151 45.8923 9.02651 45.3823 9.00751V8.99951H41.5923V9.00551C41.0373 8.99451 40.4803 9.19451 40.0603 9.61351L21.5533 28.1245C20.2323 29.4435 19.5053 31.2105 19.5053 33.0985V69.1515H24.5873H52.6503H56.4083C59.2593 69.1515 61.8053 67.4625 62.8923 64.8585L71.6663 44.3725C72.1273 43.1965 72.1563 38.9415 72.1563 38.8995C72.1563 33.8915 70.1133 31.8485 65.1063 31.8485Z" fill="white"/>
</svg>
