<svg width="78" height="78" viewBox="0 0 78 78" fill="none" xmlns="http://www.w3.org/2000/svg">
<path fill-rule="evenodd" clip-rule="evenodd" d="M47.4361 52.37H26.736C26.2233 52.3689 25.7317 52.1649 25.369 51.8025C25.0062 51.44 24.8016 50.9487 24.8 50.436V24.54C24.8016 24.0273 25.006 23.5362 25.3686 23.1738C25.7312 22.8114 26.2224 22.6073 26.7351 22.606H47.4361C47.9485 22.6075 48.4395 22.8118 48.8018 23.1742C49.1642 23.5365 49.3685 24.0275 49.37 24.54V50.436C49.3685 50.9484 49.1642 51.4394 48.8018 51.8018C48.4395 52.1641 47.9485 52.3684 47.4361 52.37Z" fill="white"/>
<path fill-rule="evenodd" clip-rule="evenodd" d="M52.674 51.958C52.6727 52.9418 52.2813 53.885 51.5856 54.5806C50.89 55.2763 49.9468 55.6677 48.963 55.669H25.213C23.833 55.669 22.64 54.901 22 53.779V53.783C21.99 53.766 21.984 53.747 21.974 53.73C21.874 53.55 21.789 53.36 21.721 53.162C21.6791 53.0477 21.6424 52.9316 21.611 52.814C21.5949 52.7451 21.5809 52.6757 21.569 52.606C21.5248 52.3928 21.5014 52.1758 21.499 51.958V23.031C21.5006 22.0472 21.8922 21.1042 22.5881 20.4087C23.2839 19.7132 24.2272 19.3221 25.211 19.321H48.963C49.9465 19.3226 50.8892 19.714 51.5846 20.4094C52.28 21.1048 52.6714 22.0475 52.673 23.031V51.958H52.674ZM45.144 64.363C45.0327 64.9508 44.9153 65.5375 44.792 66.123C44.498 67.493 43.255 68.489 41.836 68.489H32.509C31.089 68.489 29.847 67.493 29.553 66.122C29.433 65.568 29.319 64.974 29.2 64.363C28.78 62.193 28.329 59.868 27.51 58.169H46.834C46.016 59.869 45.564 62.192 45.144 64.363ZM29.198 10.625C29.317 10.015 29.432 9.421 29.551 8.867C29.845 7.495 31.088 6.5 32.507 6.5H41.834C41.996 6.5 42.154 6.516 42.31 6.541C42.402 6.556 42.488 6.581 42.577 6.604C42.631 6.617 42.686 6.629 42.737 6.645C42.859 6.685 42.973 6.73 43.086 6.781L43.121 6.798C43.5405 6.99067 43.9097 7.27779 44.1998 7.6369C44.4898 7.99601 44.6929 8.41737 44.793 8.868C44.912 9.421 45.028 10.015 45.146 10.625C45.566 12.796 46.016 15.121 46.835 16.82H27.508C28.327 15.121 28.778 12.796 29.197 10.625H29.198ZM56.775 22.157C54.775 19.324 52.845 18.044 51.592 17.437C51.152 16.011 50.357 11.912 50.236 11.343C50.0658 10.5787 49.7311 9.86069 49.255 9.239C48.494 8.3 45.821 5.265 44.047 4.485C43.3508 4.1711 42.5967 4.00591 41.833 4H32.483C29.903 4.011 27.643 5.834 27.105 8.343C26.9787 8.94418 26.858 9.54654 26.743 10.15C26.435 11.74 25.881 14.595 25.143 15.997C24.876 16.503 24.714 16.814 24.273 16.899C21.293 17.354 19 19.927 19 23.031V51.958C19 53.3 19.243 54.228 20.13 55.485C22.13 58.318 24.589 59.985 24.589 59.985L24.582 59.97C24.952 60.24 25.352 60.464 25.778 60.646C26.203 62.053 26.984 66.076 27.105 66.646C27.2249 67.179 27.4248 67.6908 27.698 68.164C27.698 68.164 29.57 71.819 33.075 73.406C33.83 73.783 34.6611 73.9824 35.505 73.989H44.833C47.423 73.989 49.695 72.163 50.235 69.646C50.355 69.077 51.338 61.43 53.067 61.07C54.4979 60.809 55.7921 60.0548 56.7246 58.9386C57.6571 57.8223 58.1689 56.4145 58.171 54.96V26.03C58.171 24.68 57.279 22.872 56.774 22.156L56.775 22.157Z" fill="white"/>
</svg>
