<svg width="1202" height="285" viewBox="0 0 1202 285" fill="none" xmlns="http://www.w3.org/2000/svg">
  <g clip-path="url(#clip0_1_2)">
    <path
      d="M0 -193.13L88.889 -142.327L154.249 -85.551L146.405 4.099L227.451 1.11206L232.68 174.433L324.183 126.619L457.516 159.492L590.85 168.455L724.183 270.059L732.026 285H0V-193.13ZM0 -533.795L39.216 -474.029L52.288 -372.427L0 -339.555V-414.855L0.016 -414.843L0 -414.873V-533.795ZM0 -650.34L5.229 -626.433L0 -614.48V-650.34Z"
      fill="#048938" />
    <path
      d="M232.68 174.432L321.568 284.999H329.412L324.183 126.619L232.68 174.432ZM130.719 165.467L232.68 174.432L146.405 4.09802L130.719 165.467ZM410.458 284.999H452.288L549.02 240.174L457.516 159.49L410.458 284.999ZM0 -16.819V63.865L15.686 153.513L52.288 51.912L0 -16.819ZM23.529 284.999H104.575L15.686 153.513L23.529 284.999ZM0 -471.042L39.216 -474.03L0 -533.796V-471.042ZM52.288 -372.428L0 -414.856V-339.557L52.288 -372.428ZM88.889 -142.328L0 -52.679V-40.726L154.248 -85.551L88.889 -142.328ZM0 -629.422V-623.445L5.229 -626.434L0 -629.422Z"
      fill="#007838" />
    <path
      d="M104.575 284.999L232.68 174.431L130.719 165.467L104.575 284.999ZM0 165.466V284.999H23.529L15.686 153.513L0 165.466ZM146.405 4.09805L52.288 51.9111L130.719 165.467L146.405 4.09805ZM554.248 284.999H609.15L549.019 240.174L554.248 284.999ZM39.215 -474.03L0 -471.042V-414.873L52.287 -372.428L39.215 -474.03ZM337.255 284.999H410.458L457.517 159.49L337.255 284.999Z"
      fill="#008038" />
    <path
      d="M549.02 240.174L590.85 168.455L457.516 159.49L549.02 240.174ZM0 -193.13V-136.352L88.889 -142.329L0 -193.13ZM232.68 174.431L227.451 1.11005L146.405 4.09808L232.68 174.431ZM0 -623.446V-614.481L5.229 -626.434L0 -623.446ZM724.183 270.057L703.268 284.999H732.026L724.183 270.057Z"
      fill="#008038" />
    <path
      d="M329.412 284.999H337.255L457.516 159.491L324.183 126.619L329.412 284.999ZM0 165.466L15.686 153.513L0 144.549V165.466ZM104.575 284.999L130.719 165.467L15.686 153.513L104.575 284.999ZM637.908 284.999H703.268L724.184 270.058L590.85 168.456L637.908 284.999ZM452.288 284.999H554.248L549.021 240.175L452.288 284.999ZM0 -33.255V-16.819L52.288 51.912L146.405 4.099L0 -33.255Z"
      fill="#008437" />
    <path
      d="M104.575 284.999H321.569L232.68 174.432L104.575 284.999ZM0 144.549L15.686 153.513L0 63.865V144.549ZM0 -650.341V-629.422L5.229 -626.434L0 -650.341ZM0 -40.726V-32.974L146.405 4.099L154.248 -85.552L0 -40.726ZM549.02 240.175L609.151 285H637.908L590.849 168.454L549.02 240.175ZM52.288 51.911L15.686 153.513L130.719 165.467L52.288 51.911ZM0 -136.352V-52.679L88.889 -142.328L0 -136.352Z"
      fill="#048938" />
    <g opacity="0.8">
      <path
        d="M324.183 126.62L227.451 1.11102L232.68 174.433L324.183 126.62ZM18.301 -737H0V-704.129L44.444 -683.211L18.301 -737ZM154.248 -85.55L209.15 -196.117L88.889 -142.327L154.248 -85.55ZM227.451 1.11102L154.248 -85.55L146.405 4.099L227.451 1.11102ZM81.046 -566.667L44.444 -683.211L5.229 -626.433L81.046 -566.667Z"
        fill="#008437" />
      <path
        d="M88.889 -273.813L0 -214.047V-193.129L88.889 -142.327V-273.813ZM815.686 285L818.301 243.164L724.183 270.058L732.026 285H815.686ZM818.301 243.164L839.216 285H907.19V258.105L818.301 243.164Z"
        fill="#008437" />
      <path
        d="M86.275 -737H18.301L44.444 -683.211L86.275 -737ZM457.516 159.491L590.85 168.456L512.418 117.655L457.516 159.491ZM52.288 -372.427L0 -339.556V-297.719L88.889 -273.813L52.288 -372.427ZM324.183 126.62L380.392 -0.382996L227.451 1.11102L324.183 126.62ZM938.562 285H1006.54L907.19 258.105L938.562 285Z"
        fill="#048938" />
    </g>
    <g opacity="0.7">
      <path
        d="M768.628 96.7369L724.183 270.059L818.301 243.164L768.628 96.7369ZM590.85 168.456L724.183 270.059L692.811 150.526L590.85 168.456Z"
        fill="#007838" />
      <path
        d="M0 -566.588V-533.796L39.216 -474.03L81.046 -566.667L0 -566.588ZM815.686 285H839.216L818.301 243.163L815.686 285Z"
        fill="#008038" />
      <path d="M522.876 22.0289L590.85 168.456L692.811 150.526L522.876 22.0289Z" fill="#048938" />
    </g>
    <g opacity="0.6">
      <path
        d="M109.804 -695.164L117.647 -737H86.275L44.445 -683.211L109.804 -695.164ZM39.216 -474.029L52.288 -372.427L112.419 -471.041L39.216 -474.029ZM907.19 285H938.562L907.19 258.105V285ZM522.876 22.029L324.183 126.62L457.517 159.491L522.876 22.029Z"
        fill="#007838" />
      <path
        d="M512.418 117.655L590.85 168.456L522.876 22.029L512.418 117.655ZM380.392 -0.382996L266.667 -127.386L227.451 1.11102L380.392 -0.382996ZM883.66 147.538L818.301 243.164L907.19 258.105L883.66 147.538Z"
        fill="#008038" />
    </g>
    <g opacity="0.5">
      <path
        d="M692.81 150.527L671.895 39.96L522.875 22.03L692.81 150.527ZM209.149 -196.116L175.163 -309.672L88.8879 -273.812L209.149 -196.116ZM227.45 1.112L266.666 -127.385L154.247 -85.549L227.45 1.112Z"
        fill="#007838" />
      <path
        d="M724.183 270.059L768.627 96.7371L692.81 150.527L724.183 270.059ZM1035.29 285.001L1022.22 231.211L883.66 147.539L1027.45 285.001H1035.29ZM517.647 -64.6309L380.392 -0.382935L324.183 126.62L517.647 -64.6309ZM81.045 -566.666L146.405 -650.339L44.444 -683.21L81.045 -566.666Z"
        fill="#008038" />
      <path
        d="M512.418 117.656L522.875 22.0301L457.516 159.492L512.418 117.656ZM883.66 147.539L768.627 96.738L818.3 243.165L883.66 147.539ZM52.287 -372.426L159.477 -384.379L112.418 -471.04L52.287 -372.426Z"
        fill="#008437" />
      <path d="M1035.29 285H1040.52L1074.51 186.386L1022.22 231.211L1035.29 285Z" fill="#048938" />
    </g>
    <g opacity="0.4">
      <path d="M883.66 147.538L907.189 258.105L1006.54 285H1027.45L883.66 147.538Z" fill="#007838" />
      <path
        d="M768.628 96.737L671.896 39.959L692.811 150.526L768.628 96.737ZM522.876 22.029L517.647 -64.632L324.183 126.62L522.876 22.029ZM117.647 -737L109.804 -695.164L146.405 -650.339L135.948 -737H117.647ZM1126.8 285L1074.51 186.386L1040.52 285H1126.8Z"
        fill="#008437" />
    </g>
    <g opacity="0.3">
      <path
        d="M1022.22 231.211L1074.51 186.387L883.66 147.539L1022.22 231.211ZM243.138 -225.999L175.164 -309.672L209.151 -196.116L243.138 -225.999ZM112.419 -471.04L172.549 -551.724L81.046 -566.666L112.419 -471.04ZM175.164 -309.672L159.477 -384.379L88.889 -273.812L175.164 -309.672Z"
        fill="#008437" />
      <path d="M956.863 81.796L768.628 96.738L883.661 147.539L956.863 81.796Z" fill="#048938" />
    </g>
    <g opacity="0.2">
      <path
        d="M786.928 45.936L671.895 39.9589L768.627 96.737L786.928 45.936ZM159.477 -384.38L172.549 -551.725L112.418 -471.041L159.477 -384.38Z"
        fill="#007838" />
      <path
        d="M671.895 39.959L517.646 -64.632L522.875 22.029L671.895 39.959ZM1074.51 186.386L956.862 81.795L883.659 147.538L1074.51 186.386ZM146.405 -650.339L216.993 -662.292L164.705 -737H135.947L146.405 -650.339ZM266.666 -127.386L243.137 -226L209.15 -196.117L266.666 -127.386ZM1126.8 285H1200L1074.51 186.386L1126.8 285Z"
        fill="#008038" />
      <path d="M786.928 45.936L768.627 96.737L956.862 81.796L786.928 45.936Z" fill="#008437" />
    </g>
  </g>
  <defs>
    <clipPath id="clip0_1_2">
      <rect width="1202" height="285" fill="white" />
    </clipPath>
  </defs>
</svg>