<svg width="79" height="79" viewBox="0 0 79 79" fill="none" xmlns="http://www.w3.org/2000/svg">
<path fill-rule="evenodd" clip-rule="evenodd" d="M52.4648 29.8337H25.5348C24.4298 29.8337 23.5348 30.7297 23.5348 31.8337C23.5348 32.9377 24.4298 33.8337 25.5348 33.8337H31.8668C33.9118 33.9707 34.9198 35.6977 34.9198 37.8307L31.9038 54.3227C31.7068 55.4097 32.4258 56.4517 33.5138 56.6497C33.6348 56.6727 33.7558 56.6837 33.8748 56.6837C34.8218 56.6837 35.6638 56.0077 35.8398 55.0427L38.0658 42.8687V42.8707C38.0658 42.3857 38.4588 41.9937 38.9428 41.9937C39.3648 41.9937 39.7008 42.2977 39.7838 42.6957L42.0408 55.0427C42.2188 56.0077 43.0608 56.6837 44.0078 56.6837C44.1268 56.6837 44.2478 56.6727 44.3688 56.6497C45.4548 56.4517 46.1758 55.4097 45.9768 54.3227L42.9548 37.7917C42.9668 35.6777 43.9728 33.9697 46.0048 33.8337H52.4648C53.5698 33.8337 54.4648 32.9377 54.4648 31.8337C54.4648 30.7297 53.5698 29.8337 52.4648 29.8337ZM39 28.6906C41.082 28.6906 42.77 27.0026 42.77 24.9206C42.77 22.8386 41.082 21.1506 39 21.1506C36.918 21.1506 35.23 22.8386 35.23 24.9206C35.23 27.0026 36.918 28.6906 39 28.6906Z" fill="#002F6C"/>
<path fill-rule="evenodd" clip-rule="evenodd" d="M39.2109 67.9484C22.7969 67.9484 9.4419 54.5944 9.4419 38.1804C9.4419 21.7664 22.7969 8.41338 39.2109 8.41338C55.6239 8.41338 68.9779 21.7664 68.9779 38.1804C68.9779 54.5944 55.6239 67.9484 39.2109 67.9484ZM66.3799 20.8064C60.6389 11.8584 50.6079 5.91138 39.2109 5.91138C21.4189 5.91138 6.94189 20.3864 6.94189 38.1794C6.94189 45.3124 9.2739 51.9094 13.2089 57.2574C18.9489 66.2114 28.9819 72.1614 40.3849 72.1614C58.1769 72.1614 72.6509 57.6864 72.6509 39.8944C72.6509 32.7564 70.3169 26.1564 66.3799 20.8064Z" fill="#002F6C"/>
</svg>
