<svg width="79" height="79" viewBox="0 0 79 79" fill="none" xmlns="http://www.w3.org/2000/svg">
<path fill-rule="evenodd" clip-rule="evenodd" d="M2.5 25.0613L4.52 27.2793L15.194 17.5603L13.174 15.3423L2.5 25.0613Z" fill="#002F6C"/>
<path fill-rule="evenodd" clip-rule="evenodd" d="M12.6731 26.4662L14.6961 28.6812L21.6291 22.3512L19.6061 20.1362L12.6731 26.4662Z" fill="#002F6C"/>
<path fill-rule="evenodd" clip-rule="evenodd" d="M43.3191 71.9773L45.3461 74.1893L55.9921 64.4393L53.9651 62.2273L43.3191 71.9773Z" fill="#002F6C"/>
<path fill-rule="evenodd" clip-rule="evenodd" d="M44.7879 63.9412L51.7199 57.6122L49.6969 55.3962L42.7649 61.7252L44.7879 63.9412Z" fill="#002F6C"/>
<path fill-rule="evenodd" clip-rule="evenodd" d="M68.1467 13.1901L56.7407 23.2091C56.4347 23.4781 56.2787 23.8781 56.3227 24.2841L59.5927 54.2771L57.5427 56.0791L47.2977 33.6481C47.1327 33.2891 46.8087 33.0281 46.4217 32.9451C46.3347 32.9261 46.2477 32.9181 46.1607 32.9181C45.8597 32.9181 45.5657 33.0261 45.3347 33.2281L33.9297 43.2481C33.6517 43.4931 33.4957 43.8471 33.5047 44.2171L33.7317 53.4931L32.5837 54.5031L27.8107 44.0511C27.7087 43.8291 27.5427 43.6401 27.3347 43.5101L17.5867 37.4301L18.7357 36.4201L27.9047 37.8411C28.2717 37.8971 28.6427 37.7891 28.9207 37.5451L40.3267 27.5271C40.6237 27.2661 40.7797 26.8791 40.7477 26.4861C40.7157 26.0911 40.4987 25.7361 40.1637 25.5271L19.2407 12.4761L21.2907 10.6751L50.6127 17.7831C51.0087 17.8771 51.4257 17.7751 51.7317 17.5071L63.1377 7.48906C63.9027 6.81606 64.8727 6.47006 65.8967 6.54506C66.9097 6.60906 67.8357 7.06306 68.5047 7.82506C69.1727 8.58606 69.5037 9.56206 69.4377 10.5751C69.3697 11.5891 68.9117 12.5181 68.1467 13.1901ZM73.7537 8.85506C73.7457 8.84306 73.7477 8.83806 73.7387 8.82606C71.4327 5.78506 67.9567 4.46906 67.9567 4.46906V4.47206C67.3557 4.23806 66.7167 4.09206 66.0547 4.05006C64.3787 3.93806 62.7527 4.49906 61.4877 5.61006L50.5697 15.2001L21.2487 8.09206C20.8507 7.99806 20.4347 8.09906 20.1287 8.36806L16.3267 11.7081C16.0297 11.9691 15.8747 12.3551 15.9067 12.7491C15.9387 13.1431 16.1547 13.4991 16.4907 13.7081L35.2747 25.4241L37.3147 26.8451L27.7097 35.2821L18.5417 33.8611C18.1717 33.8031 17.8027 33.9131 17.5247 34.1571L14.6737 36.6621C14.3757 36.9231 14.2207 37.3091 14.2517 37.7031C14.2847 38.0971 14.5007 38.4531 14.8367 38.6621L25.6927 45.4321L31.0077 57.0711C31.0387 57.1381 31.0807 57.1991 31.1227 57.2591H31.1207C31.1207 57.2591 31.1277 57.2691 31.1317 57.2741C31.1507 57.3011 31.1697 57.3281 31.1917 57.3531C31.5547 57.8251 33.3427 60.0371 34.9437 60.0601C35.3287 60.1431 35.7327 60.0381 36.0297 59.7771L38.8807 57.2721C39.1587 57.0271 39.3147 56.6721 39.3057 56.3021L39.0787 47.0271L47.3427 39.7661L55.9667 58.6471C55.9927 58.7021 56.0277 58.7501 56.0597 58.8001L56.0567 58.8011L56.1047 58.8751C56.1117 58.8821 56.1167 58.8921 56.1237 58.9011C56.4317 59.3491 57.8147 61.1991 59.9017 61.6361C59.9887 61.6551 60.0767 61.6641 60.1637 61.6641C60.4647 61.6641 60.7587 61.5551 60.9887 61.3531L64.7907 58.0131C65.0967 57.7441 65.2517 57.3431 65.2087 56.9381L61.9387 26.9461L72.8557 17.3551C75.3417 15.1701 75.6967 11.4571 73.7537 8.85506Z" fill="#002F6C"/>
</svg>
