<svg width="79" height="79" viewBox="0 0 79 79" fill="none" xmlns="http://www.w3.org/2000/svg">
<path fill-rule="evenodd" clip-rule="evenodd" d="M38.768 68.0733C22.354 68.0733 9 54.7193 9 38.3063C9 21.8933 22.354 8.53825 38.768 8.53825C55.181 8.53825 68.535 21.8913 68.535 38.3053C68.535 54.7193 55.181 68.0733 38.768 68.0733ZM65.936 20.9313C60.196 11.9833 50.166 6.03625 38.768 6.03625C20.976 6.03625 6.5 20.5113 6.5 38.3043C6.5 45.4373 8.831 52.0343 12.766 57.3823C18.506 66.3363 28.539 72.2863 39.942 72.2863C57.734 72.2863 72.209 57.8113 72.209 40.0193C72.2152 33.1491 70.0164 26.4584 65.936 20.9313Z" fill="#002F6C"/>
<path fill-rule="evenodd" clip-rule="evenodd" d="M49.7639 38.4742L40.5209 47.7152V21.1062H37.0209V47.7182L27.7779 38.4752L25.4199 40.8312L36.9069 52.3162C37.4014 52.8103 38.0719 53.0879 38.7709 53.0879C39.47 53.0879 40.1404 52.8103 40.6349 52.3162L52.1219 40.8302L49.7639 38.4742Z" fill="#002F6C"/>
</svg>
