<svg width="79" height="79" viewBox="0 0 79 79" fill="none" xmlns="http://www.w3.org/2000/svg">
<path fill-rule="evenodd" clip-rule="evenodd" d="M37.586 27.0813L28.184 36.1613L54.79 36.6263L54.73 40.1263L28.122 39.6613L37.202 49.0643L34.805 51.3803L23.522 39.6943C23.0367 39.1912 22.7709 38.5161 22.7831 37.8173C22.7953 37.1184 23.0844 36.453 23.587 35.9673L35.271 24.6823L37.586 27.0813Z" fill="#002F6C"/>
<path fill-rule="evenodd" clip-rule="evenodd" d="M38.768 68.0733C22.354 68.0733 9 54.7193 9 38.3063C9 21.8933 22.354 8.53825 38.768 8.53825C55.181 8.53825 68.535 21.8913 68.535 38.3053C68.535 54.7193 55.181 68.0733 38.768 68.0733ZM65.936 20.9313C60.196 11.9833 50.166 6.03625 38.768 6.03625C20.976 6.03625 6.5 20.5113 6.5 38.3043C6.5 45.4373 8.831 52.0343 12.766 57.3823C18.506 66.3363 28.539 72.2863 39.942 72.2863C57.734 72.2863 72.209 57.8113 72.209 40.0193C72.2152 33.1491 70.0164 26.4584 65.936 20.9313Z" fill="#002F6C"/>
</svg>
