<svg width="79" height="79" viewBox="0 0 79 79" fill="none" xmlns="http://www.w3.org/2000/svg">
<path fill-rule="evenodd" clip-rule="evenodd" d="M41.1361 46.5401C40.7871 46.9521 40.3511 47.2361 39.8371 47.4031V42.1951C40.4621 42.4261 40.9361 42.7251 41.2411 43.0981C41.6091 43.5511 41.7941 44.0891 41.7941 44.7141C41.7941 45.4131 41.5741 46.0211 41.1361 46.5401ZM36.0421 36.4361C35.7441 36.0131 35.5941 35.5531 35.5941 35.0581C35.5941 34.5171 35.7581 34.0221 36.0841 33.5741C36.3751 33.1761 36.7611 32.8861 37.2291 32.6941V37.3811C36.7111 37.1311 36.3111 36.8181 36.0421 36.4361ZM44.0051 40.4951C43.2441 39.5901 41.8491 38.8461 39.8371 38.2561V32.9041C40.4961 33.3291 40.9291 33.9861 41.1081 34.9041L44.6491 34.4421C44.4061 33.0431 43.8461 31.9261 42.9691 31.0911C42.1771 30.3371 41.1241 29.8651 39.8371 29.6471V28.1871H39.4291H37.4001H37.2291V29.6031C35.7071 29.7871 34.4741 30.3691 33.5441 31.3711C32.5781 32.4111 32.0961 33.6961 32.0961 35.2261C32.0961 36.7371 32.5231 38.0221 33.3761 39.0811C34.2021 40.1061 35.4901 40.8771 37.2291 41.3991V47.2201C36.7931 46.9751 36.3911 46.6201 36.0291 46.1421C35.6181 45.6001 35.3381 44.9561 35.1891 44.2101L31.5361 44.6021C31.8161 46.4391 32.4601 47.8621 33.4681 48.8701C34.4381 49.8411 35.6971 50.4251 37.2291 50.6431V53.2221H37.4001H39.4291H39.8371V50.5321C41.4591 50.2281 42.7461 49.5461 43.6901 48.4781C44.7111 47.3211 45.2221 45.8981 45.2221 44.2101C45.2221 42.6981 44.8171 41.4601 44.0051 40.4951Z" fill="#002F6C"/>
<path fill-rule="evenodd" clip-rule="evenodd" d="M67.7152 27.8536C67.7152 28.4116 67.2622 28.8646 66.7052 28.8646H59.8162L59.2012 24.7686H62.5752C63.2652 24.7686 63.8252 24.2086 63.8252 23.5186V15.5396C63.8252 14.8486 63.2652 14.2896 62.5752 14.2896H14.9612C14.2712 14.2896 13.7112 14.8486 13.7112 15.5396V23.5186C13.7112 24.2086 14.2712 24.7686 14.9612 24.7686H17.5572L16.9432 28.8646H11.0102C10.4532 28.8646 10.0002 28.4116 10.0002 27.8536V11.5456C10.0002 10.9896 10.4532 10.5366 11.0102 10.5366H66.7052C67.2622 10.5366 67.7152 10.9896 67.7152 11.5456V27.8536ZM62.0102 60.3056H14.7492L21.0612 18.2736H55.6972L62.0102 60.3056ZM16.6322 66.3746L17.1682 62.8056H59.5902L60.1262 66.3746H16.6322ZM66.9732 8.03662L66.9882 8.06462C66.8932 8.05662 66.8022 8.03662 66.7052 8.03662H11.0102C9.07424 8.03662 7.50024 9.61062 7.50024 11.5456V27.8536C7.50024 27.8556 7.51624 33.9306 12.0472 33.9566C12.2152 33.9576 12.3632 33.9516 12.5012 33.9416C12.5502 33.9436 12.5962 33.9566 12.6462 33.9566H16.1782L12.0612 61.3706C12.0072 61.7296 12.1122 62.0956 12.3502 62.3716C12.5872 62.6476 12.9332 62.8056 13.2972 62.8056H14.6402L13.9442 67.4386C13.8902 67.7976 13.9962 68.1646 14.2332 68.4396C14.4702 68.7156 14.8172 68.8746 15.1802 68.8746H61.5782C61.9422 68.8746 62.2882 68.7156 62.5252 68.4396C62.7622 68.1646 62.8682 67.7976 62.8142 67.4386L62.1192 62.8056H63.4622C63.8252 62.8056 64.1722 62.6476 64.4092 62.3716C64.6462 62.0956 64.7522 61.7296 64.6982 61.3706L60.5812 33.9566H68.3412C70.2772 33.9566 71.8512 32.3816 71.8512 30.4466V14.1386C71.8512 8.03662 66.9732 8.03662 66.9732 8.03662Z" fill="#002F6C"/>
</svg>
