<svg width="79" height="79" viewBox="0 0 79 79" fill="none" xmlns="http://www.w3.org/2000/svg">
<path fill-rule="evenodd" clip-rule="evenodd" d="M11.885 40.9463H44.885V37.9463H11.885V40.9463Z" fill="#002F6C"/>
<path fill-rule="evenodd" clip-rule="evenodd" d="M11.885 47.9353H30.871V44.9353H11.885V47.9353Z" fill="#002F6C"/>
<path fill-rule="evenodd" clip-rule="evenodd" d="M67.0952 57.757H9.33524C8.04724 57.757 7.00024 56.71 7.00024 55.422V32.23H69.4302V55.422C69.4302 56.71 68.3832 57.757 67.0952 57.757ZM9.33524 16.536H67.0952C68.3832 16.536 69.4302 17.584 69.4302 18.871V22.159H7.00024V18.871C7.00024 17.584 8.04724 16.536 9.33524 16.536ZM73.7982 18.635C72.0522 16.072 69.2842 14.549 69.2842 14.549C69.2842 14.549 69.2762 14.569 69.2732 14.578C68.6152 14.243 67.8822 14.036 67.0952 14.036H9.33524C6.66924 14.036 4.50024 16.205 4.50024 18.871V55.422C4.50024 56.094 4.63924 56.734 4.88824 57.316C4.91724 57.508 5.02924 57.767 5.27224 58.127C7.01624 60.708 9.80724 62.243 9.80724 62.243C9.80724 62.243 9.81324 62.228 9.81524 62.224C10.5052 62.603 11.2842 62.839 12.1252 62.839H69.8862C72.5522 62.839 74.7202 60.67 74.7202 58.004V21.453C74.7202 20.399 74.3722 19.43 73.7982 18.635Z" fill="#002F6C"/>
</svg>
