<svg width="79" height="79" viewBox="0 0 79 79" fill="none" xmlns="http://www.w3.org/2000/svg">
<path fill-rule="evenodd" clip-rule="evenodd" d="M54.1376 53.9244C54.1376 51.8144 52.4276 50.1034 50.3166 50.1034C48.2066 50.1034 46.4956 51.8144 46.4956 53.9244C46.4956 55.2764 47.1996 56.4614 48.2596 57.1404V60.3904C48.2596 61.5274 49.1806 62.4474 50.3166 62.4474C51.4526 62.4474 52.3736 61.5274 52.3736 60.3904V57.1404C53.4336 56.4614 54.1376 55.2764 54.1376 53.9244Z" fill="#002F6C"/>
<path fill-rule="evenodd" clip-rule="evenodd" d="M11.9871 36.2433H32.3081V33.2433H11.9871V36.2433Z" fill="#002F6C"/>
<path fill-rule="evenodd" clip-rule="evenodd" d="M11.9871 43.2323H26.2851V40.2323H11.9871V43.2323Z" fill="#002F6C"/>
<path fill-rule="evenodd" clip-rule="evenodd" d="M69.4295 17.1744H6.99951V13.8184C6.99951 12.5304 8.04751 11.4834 9.33451 11.4834H67.0945C68.3815 11.4834 69.4295 12.5304 69.4295 13.8184V17.1744ZM69.4295 50.3694C69.4295 51.6564 68.3815 52.7044 67.0945 52.7044H64.5775V43.5624H60.3845V42.3164C60.3845 36.5354 55.8675 31.8324 50.3165 31.8324C44.7655 31.8324 40.2485 36.5354 40.2485 42.3164V43.5624H36.0555V52.7044H9.33451C8.04751 52.7044 6.99951 51.6564 6.99951 50.3694V27.2454H69.4295V50.3694ZM42.7485 43.5624V42.3164C42.7485 37.9144 46.1435 34.3324 50.3165 34.3324C54.4895 34.3324 57.8845 37.9144 57.8845 42.3164V43.5624H42.7485ZM62.0775 62.1864C62.0775 64.5584 60.1475 66.4884 57.7745 66.4884H42.8575C40.4855 66.4884 38.5545 64.5584 38.5545 62.1864V46.0624H62.0775V62.1864ZM73.7945 13.6314C72.0495 11.0704 69.2845 9.54938 69.2845 9.54938C69.2845 9.54938 69.2755 9.56938 69.2725 9.57838C68.6145 9.24338 67.8825 9.03638 67.0945 9.03638H9.33451C6.66851 9.03638 4.49951 11.2054 4.49951 13.8714V50.4224C4.49951 51.0934 4.63851 51.7334 4.88751 52.3154C4.91651 52.5074 5.02851 52.7664 5.27151 53.1274C7.01551 55.7084 9.80651 57.2434 9.80651 57.2434C9.80651 57.2434 9.81251 57.2274 9.81451 57.2244C10.5045 57.6034 11.2835 57.8384 12.1245 57.8384H36.0555V62.1864C36.0555 65.9374 39.1065 68.9884 42.8575 68.9884H57.7755C61.5265 68.9884 64.5775 65.9374 64.5775 62.1864V57.8384H69.8845C72.5515 57.8384 74.7205 55.6694 74.7205 53.0034V16.4524C74.7205 15.3974 74.3715 14.4274 73.7945 13.6314Z" fill="#002F6C"/>
</svg>
