<svg width="79" height="79" viewBox="0 0 79 79" fill="none" xmlns="http://www.w3.org/2000/svg">
<path fill-rule="evenodd" clip-rule="evenodd" d="M19.1541 18.9083H50.8171V15.9073H19.1541V18.9083Z" fill="#002F6C"/>
<path fill-rule="evenodd" clip-rule="evenodd" d="M19.1541 26.5103H50.8171V23.5103H19.1541V26.5103Z" fill="#002F6C"/>
<path fill-rule="evenodd" clip-rule="evenodd" d="M19.1541 34.1133H50.8171V31.1123H19.1541V34.1133Z" fill="#002F6C"/>
<path fill-rule="evenodd" clip-rule="evenodd" d="M19.1541 41.7142H50.8171V38.7142H19.1541V41.7142Z" fill="#002F6C"/>
<path fill-rule="evenodd" clip-rule="evenodd" d="M56.9718 68.4689H53.4118H16.5878C14.6098 68.4689 12.9998 66.8599 12.9998 64.8809V9.61489H56.9718V63.3529C57.1248 66.4899 58.1538 67.7739 59.9508 68.4689H56.9718ZM59.4718 56.5149V7.03589H10.4998V64.8029C10.4998 68.1599 13.2318 70.8909 16.5878 70.8909H59.4718V70.8809H63.6168C65.9628 70.8809 67.8648 68.9789 67.8648 66.6329V56.5149H59.4718Z" fill="#002F6C"/>
<path fill-rule="evenodd" clip-rule="evenodd" d="M26.0527 63.1993C30.1957 63.1993 33.5527 59.8423 33.5527 55.6993C33.5527 51.5573 30.1957 48.1993 26.0527 48.1993C21.9107 48.1993 18.5527 51.5573 18.5527 55.6993C18.5527 59.8423 21.9107 63.1993 26.0527 63.1993Z" fill="#002F6C"/>
</svg>
