<svg width="79" height="79" viewBox="0 0 79 79" fill="none" xmlns="http://www.w3.org/2000/svg">
<path fill-rule="evenodd" clip-rule="evenodd" d="M14.526 23.2302H21.5C21.5849 23.2302 21.6663 23.1965 21.7263 23.1365C21.7863 23.0765 21.82 22.9951 21.82 22.9102V16.1282C21.8197 16.0435 21.7859 15.9624 21.7259 15.9026C21.6659 15.8428 21.5847 15.8092 21.5 15.8092H14.527C14.4423 15.8095 14.3612 15.8433 14.3014 15.9033C14.2416 15.9633 14.208 16.0445 14.208 16.1292V22.9102C14.208 23.0872 14.35 23.2302 14.528 23.2302H14.526ZM27.025 23.2302H33.998C34.0829 23.2302 34.1643 23.1965 34.2243 23.1365C34.2843 23.0765 34.318 22.9951 34.318 22.9102V16.1282C34.3177 16.0435 34.2839 15.9624 34.2239 15.9026C34.1639 15.8428 34.0827 15.8092 33.998 15.8092H27.025C26.9403 15.8095 26.8592 15.8433 26.7994 15.9033C26.7396 15.9633 26.706 16.0445 26.706 16.1292V22.9102C26.706 23.0872 26.848 23.2302 27.026 23.2302H27.025ZM14.526 35.7982H21.5C21.5849 35.7982 21.6663 35.7645 21.7263 35.7045C21.7863 35.6445 21.82 35.5631 21.82 35.4782V28.6962C21.8197 28.6115 21.7859 28.5304 21.7259 28.4706C21.6659 28.4108 21.5847 28.3772 21.5 28.3772H14.527C14.4425 28.3775 14.3615 28.4112 14.3017 28.4709C14.242 28.5307 14.2083 28.6117 14.208 28.6962V35.4782C14.208 35.6552 14.35 35.7982 14.528 35.7982H14.526ZM34.063 28.3762H27.091C27.0061 28.3762 26.9247 28.4099 26.8647 28.4699C26.8047 28.5299 26.771 28.6113 26.771 28.6962V35.4792C26.7713 35.5639 26.8051 35.645 26.8651 35.7048C26.9251 35.7646 27.0063 35.7982 27.091 35.7982H34.063C34.1479 35.7982 34.2293 35.7645 34.2893 35.7045C34.3493 35.6445 34.383 35.5631 34.383 35.4782V28.6972C34.383 28.6123 34.3493 28.5309 34.2893 28.4709C34.2293 28.4109 34.1479 28.3772 34.063 28.3772V28.3762ZM14.526 48.3662H21.5C21.5849 48.3662 21.6663 48.3325 21.7263 48.2725C21.7863 48.2125 21.82 48.1311 21.82 48.0462V41.2642C21.82 41.1793 21.7863 41.0979 21.7263 41.0379C21.6663 40.9779 21.5849 40.9442 21.5 40.9442H14.527C14.4423 40.9445 14.3612 40.9783 14.3014 41.0383C14.2416 41.0983 14.208 41.1795 14.208 41.2642V48.0472C14.208 48.2232 14.35 48.3662 14.528 48.3662H14.526ZM27.059 48.3662H34.032C34.1167 48.3659 34.1978 48.3321 34.2576 48.2721C34.3174 48.2121 34.351 48.1309 34.351 48.0462V41.2642C34.351 41.1793 34.3173 41.0979 34.2573 41.0379C34.1973 40.9779 34.1159 40.9442 34.031 40.9442H27.06C26.9751 40.9442 26.8937 40.9779 26.8337 41.0379C26.7737 41.0979 26.74 41.1793 26.74 41.2642V48.0472C26.7403 48.1319 26.7741 48.213 26.8341 48.2728C26.8941 48.3326 26.9753 48.3662 27.06 48.3662H27.059ZM14.526 60.9342H21.5C21.5849 60.9342 21.6663 60.9005 21.7263 60.8405C21.7863 60.7805 21.82 60.6991 21.82 60.6142V53.8322C21.82 53.7473 21.7863 53.6659 21.7263 53.6059C21.6663 53.5459 21.5849 53.5122 21.5 53.5122H14.527C14.4423 53.5125 14.3612 53.5463 14.3014 53.6063C14.2416 53.6663 14.208 53.7475 14.208 53.8322V60.6152C14.208 60.7912 14.35 60.9342 14.528 60.9342H14.526ZM34.097 53.5132H27.124C27.0393 53.5132 26.9581 53.5468 26.8981 53.6066C26.8381 53.6664 26.8043 53.7475 26.804 53.8322V60.6152C26.8043 60.6999 26.8381 60.781 26.8981 60.8408C26.9581 60.9006 27.0393 60.9342 27.124 60.9342H34.097C34.139 60.9342 34.1805 60.9259 34.2193 60.9098C34.2581 60.8937 34.2933 60.8701 34.3229 60.8404C34.3526 60.8107 34.376 60.7754 34.392 60.7366C34.408 60.6978 34.4161 60.6562 34.416 60.6142V53.8322C34.416 53.7473 34.3823 53.6659 34.3223 53.6059C34.2623 53.5459 34.1809 53.5122 34.096 53.5122" fill="#002F6C"/>
<path fill-rule="evenodd" clip-rule="evenodd" d="M41.129 65.2903H62.198V29.9833H41.129V65.2903ZM10 65.2903H38.629V11.5363H10V65.2903ZM70.538 28.3473C70.5372 28.12 70.4464 27.9022 70.2853 27.7418C70.1243 27.5813 69.9063 27.4913 69.679 27.4913L46.888 27.4833V9.90425C46.8875 9.67421 46.7959 9.45374 46.6332 9.29107C46.4705 9.1284 46.25 9.03678 46.02 9.03625H8.75C8.06 9.03625 7.5 9.59625 7.5 10.2863V66.5403C7.5 67.2303 8.06 67.7903 8.75 67.7903L64.155 67.8183C65.8768 67.8135 67.5262 67.1251 68.7406 65.9045C69.955 64.684 70.635 63.0311 70.631 61.3093L70.538 28.3473Z" fill="#002F6C"/>
<path fill-rule="evenodd" clip-rule="evenodd" d="M57.679 39.0583H45.649C45.5924 39.058 45.5383 39.0354 45.4984 38.9953C45.4584 38.9552 45.436 38.9009 45.436 38.8443V34.5613C45.436 34.4433 45.532 34.3473 45.649 34.3473H57.679C57.796 34.3473 57.892 34.4433 57.892 34.5613V38.8443C57.892 38.9009 57.8696 38.9552 57.8297 38.9953C57.7898 39.0354 57.7356 39.058 57.679 39.0583ZM57.679 48.2233H45.649C45.5926 48.223 45.5386 48.2005 45.4987 48.1606C45.4588 48.1207 45.4363 48.0667 45.436 48.0103V43.7263C45.436 43.6093 45.532 43.5133 45.649 43.5133H57.679C57.796 43.5133 57.892 43.6093 57.892 43.7263V48.0103C57.8918 48.0667 57.8692 48.1207 57.8294 48.1606C57.7895 48.2005 57.7354 48.223 57.679 48.2233ZM57.679 57.3893H45.649C45.5924 57.389 45.5383 57.3664 45.4984 57.3263C45.4584 57.2862 45.436 57.2319 45.436 57.1753V52.8923C45.436 52.7743 45.532 52.6783 45.649 52.6783H57.679C57.796 52.6783 57.892 52.7743 57.892 52.8923V57.1753C57.892 57.2319 57.8696 57.2862 57.8297 57.3263C57.7898 57.3664 57.7356 57.389 57.679 57.3893Z" fill="#002F6C"/>
</svg>
