<svg width="79" height="79" viewBox="0 0 79 79" fill="none" xmlns="http://www.w3.org/2000/svg">
<path fill-rule="evenodd" clip-rule="evenodd" d="M45.787 56.0883L49.447 66.0913C46.0398 67.4039 42.4193 68.0752 38.768 68.0713C35.16 68.0713 31.7 67.4263 28.498 66.2453L32.088 56.4273C34.1455 57.1636 36.3148 57.5387 38.5 57.5363C41.082 57.5363 43.543 57.0213 45.787 56.0883ZM10.987 27.6063L20.947 31.2503C19.9886 33.5596 19.4968 36.0359 19.5 38.5363C19.5 40.7863 19.891 42.9453 20.609 44.9473L10.811 48.5333C9.60958 45.2565 8.99649 41.7933 9.00002 38.3033C9.00002 34.5343 9.70402 30.9273 10.987 27.6053V27.6063ZM68.535 38.3033C68.535 41.8393 67.915 45.2333 66.779 48.3823L56.504 44.6223C57.15 42.7123 57.5 40.6653 57.5 38.5363C57.5 36.0763 57.033 33.7263 56.182 31.5693L66.605 27.7553C67.8847 31.1246 68.5387 34.6991 68.535 38.3033ZM38.768 8.53627C42.465 8.53627 46.007 9.21427 49.276 10.4513L45.469 20.8553C43.2497 19.9809 40.8853 19.5334 38.5 19.5363C36.371 19.5363 34.324 19.8863 32.413 20.5323L28.669 10.2993C31.9074 9.12936 35.3248 8.53277 38.768 8.53627Z" fill="#002F6C"/>
<path d="M38.5 19.5363C48.993 19.5363 57.5 28.0433 57.5 38.5363C57.5 49.0293 48.993 57.5363 38.5 57.5363C28.007 57.5363 19.5 49.0293 19.5 38.5363C19.5 28.0433 28.007 19.5363 38.5 19.5363ZM38.5 21.5363C29.111 21.5363 21.5 29.1473 21.5 38.5363C21.5 47.9253 29.111 55.5363 38.5 55.5363C47.889 55.5363 55.5 47.9253 55.5 38.5363C55.5 29.1473 47.889 21.5363 38.5 21.5363Z" fill="#002F6C"/>
<path fill-rule="evenodd" clip-rule="evenodd" d="M38.5 2.03625C39.2956 2.03625 40.0587 2.35233 40.6213 2.91493C41.1839 3.47754 41.5 4.24061 41.5 5.03625V6.15125C51.758 7.01625 60.66 12.7063 65.937 20.9313C69.1073 25.2286 71.1561 30.2487 71.898 35.5373L73 35.5363C73.7956 35.5363 74.5587 35.8523 75.1213 36.4149C75.6839 36.9775 76 37.7406 76 38.5363C76 39.3319 75.6839 40.095 75.1213 40.6576C74.5587 41.2202 73.7956 41.5363 73 41.5363H72.174C71.403 58.1103 58.069 71.4573 41.5 72.2493V73.0363C41.5007 73.8172 41.1969 74.5676 40.6532 75.1281C40.1094 75.6886 39.3686 76.0149 38.588 76.0379C37.8074 76.0608 37.0487 75.7784 36.473 75.2508C35.8973 74.7232 35.55 73.9919 35.505 73.2123L35.5 73.0363V71.9813C25.962 70.6613 17.748 65.1533 12.766 57.3823C9.34526 52.7445 7.23644 47.2713 6.66096 41.5373L5.49996 41.5363C4.71906 41.537 3.96863 41.2332 3.40815 40.6895C2.84766 40.1457 2.52128 39.4049 2.49836 38.6243C2.47545 37.8437 2.7578 37.085 3.28542 36.5093C3.81305 35.9336 4.54436 35.5863 5.32396 35.5413L5.49996 35.5363H6.61796C7.93396 20.1133 20.145 7.75126 35.5 6.20025V5.03625C35.5 4.24061 35.816 3.47754 36.3786 2.91493C36.9413 2.35233 37.7043 2.03625 38.5 2.03625ZM38.768 8.53825C22.354 8.53825 8.99996 21.8913 8.99996 38.3053C8.99996 54.7193 22.354 68.0733 38.768 68.0733C55.181 68.0733 68.535 54.7193 68.535 38.3053C68.535 21.8913 55.181 8.53825 38.768 8.53825Z" fill="#002F6C"/>
</svg>
