<svg width="79" height="79" viewBox="0 0 79 79" fill="none" xmlns="http://www.w3.org/2000/svg">
<path fill-rule="evenodd" clip-rule="evenodd" d="M25.9757 54.5816C27.0697 54.5816 27.9567 53.6947 27.9567 52.6007C27.9567 51.5057 27.0697 50.6187 25.9757 50.6187C24.8807 50.6187 23.9937 51.5057 23.9937 52.6007C23.9937 53.6947 24.8807 54.5816 25.9757 54.5816ZM32.9156 63.0583C34.0096 63.0583 34.8966 62.1703 34.8966 61.0763C34.8966 59.9823 34.0096 59.0952 32.9156 59.0952C31.8206 59.0952 30.9336 59.9823 30.9336 61.0763C30.9336 62.1703 31.8206 63.0583 32.9156 63.0583Z" fill="#002F6C"/>
<path fill-rule="evenodd" clip-rule="evenodd" d="M36.526 38.2923H31.027V32.7933H28.05V38.2923H22.551V41.2693H28.05V46.7683H31.027V41.2693H36.526V38.2923Z" fill="#002F6C"/>
<path fill-rule="evenodd" clip-rule="evenodd" d="M53.438 35.7913L51.334 33.6863L47.074 37.9453L42.815 33.6863L40.71 35.7913L44.969 40.0503L40.71 44.3103L42.815 46.4153L47.074 42.1553L51.334 46.4153L53.438 44.3103L49.179 40.0503L53.438 35.7913Z" fill="#002F6C"/>
<path fill-rule="evenodd" clip-rule="evenodd" d="M25.1861 63.3003L23.0811 61.1953L33.7051 50.5713L35.8101 52.6763L25.1861 63.3003Z" fill="#002F6C"/>
<path fill-rule="evenodd" clip-rule="evenodd" d="M40.9021 56.0703H54.1151V53.0933H40.9021V56.0703Z" fill="#002F6C"/>
<path fill-rule="evenodd" clip-rule="evenodd" d="M40.9021 62.0723H54.1151V59.0953H40.9021V62.0723Z" fill="#002F6C"/>
<path fill-rule="evenodd" clip-rule="evenodd" d="M21.7771 28.1473H55.4451V10.3353H21.7771V28.1473Z" fill="#002F6C"/>
<path fill-rule="evenodd" clip-rule="evenodd" d="M59.2212 65.36C59.2212 66.648 58.1742 67.695 56.8862 67.695H20.3352C19.0482 67.695 18.0002 66.648 18.0002 65.36V8.87101C18.0002 7.58401 19.0482 6.53601 20.3352 6.53601H56.8862C58.1742 6.53601 59.2212 7.58401 59.2212 8.87101V65.36ZM63.7532 9.41701L63.7772 9.40701C63.7772 9.40701 63.6802 9.23101 63.4952 8.94101C63.4822 8.92201 63.4712 8.90201 63.4572 8.88301C62.8842 7.99301 61.5562 6.15201 59.6602 4.87201C59.3362 4.65301 59.0882 4.53301 58.9012 4.49001C58.2862 4.20601 57.6072 4.03601 56.8862 4.03601H20.3352C17.6692 4.03601 15.5002 6.20501 15.5002 8.87101V65.36C15.5002 66.129 15.6972 66.847 16.0182 67.493C16.0172 67.493 16.0132 67.495 16.0132 67.495C16.0132 67.495 16.0472 67.555 16.1062 67.656C16.2222 67.869 16.3492 68.073 16.4952 68.265C17.1332 69.212 18.3802 70.836 20.0962 72.006C20.8912 72.582 21.8612 72.931 22.9162 72.931H59.4672C62.1342 72.931 64.3032 70.762 64.3032 68.096V11.607C64.3032 10.815 64.0932 10.077 63.7532 9.41701Z" fill="#002F6C"/>
</svg>
