<svg width="79" height="79" viewBox="0 0 79 79" fill="none" xmlns="http://www.w3.org/2000/svg">
<path fill-rule="evenodd" clip-rule="evenodd" d="M32.7895 38.1438H26.2015C26.0345 38.1438 25.8995 38.0088 25.8995 37.8418V31.4338C25.8995 31.2678 26.0345 31.1318 26.2015 31.1318H32.7895C32.9565 31.1318 33.0915 31.2678 33.0915 31.4338V37.8418C33.0915 38.0088 32.9565 38.1438 32.7895 38.1438ZM44.5453 38.1438H37.9573C37.7903 38.1438 37.6553 38.0088 37.6553 37.8418V31.4338C37.6553 31.2678 37.7903 31.1318 37.9573 31.1318H44.5453C44.7123 31.1318 44.8473 31.2678 44.8473 31.4338V37.8418C44.8473 38.0088 44.7123 38.1438 44.5453 38.1438ZM56.3012 38.1438H49.7132C49.5472 38.1438 49.4112 38.0088 49.4112 37.8418V31.4338C49.4112 31.2678 49.5472 31.1318 49.7132 31.1318H56.3012C56.4682 31.1318 56.6032 31.2678 56.6032 31.4338V37.8418C56.6032 38.0088 56.4682 38.1438 56.3012 38.1438ZM21.0331 49.5706H14.4451C14.2791 49.5706 14.1431 49.4356 14.1431 49.2686V42.8606C14.1431 42.6946 14.2791 42.5586 14.4451 42.5586H21.0331C21.2001 42.5586 21.3351 42.6946 21.3351 42.8606V49.2686C21.3351 49.4356 21.2001 49.5706 21.0331 49.5706ZM32.7895 49.5706H26.2015C26.0345 49.5706 25.8995 49.4356 25.8995 49.2686V42.8606C25.8995 42.6946 26.0345 42.5586 26.2015 42.5586H32.7895C32.9565 42.5586 33.0915 42.6946 33.0915 42.8606V49.2686C33.0915 49.4356 32.9565 49.5706 32.7895 49.5706ZM44.5453 49.5706H37.9573C37.7903 49.5706 37.6553 49.4356 37.6553 49.2686V42.8606C37.6553 42.6946 37.7903 42.5586 37.9573 42.5586H44.5453C44.7123 42.5586 44.8473 42.6946 44.8473 42.8606V49.2686C44.8473 49.4356 44.7123 49.5706 44.5453 49.5706ZM56.3012 49.5706H49.7132C49.5472 49.5706 49.4112 49.4356 49.4112 49.2686V42.8606C49.4112 42.6946 49.5472 42.5586 49.7132 42.5586H56.3012C56.4682 42.5586 56.6032 42.6946 56.6032 42.8606V49.2686C56.6032 49.4356 56.4682 49.5706 56.3012 49.5706ZM21.0331 60.7176H14.4451C14.2791 60.7176 14.1431 60.5826 14.1431 60.4156V54.0076C14.1431 53.8416 14.2791 53.7056 14.4451 53.7056H21.0331C21.2001 53.7056 21.3351 53.8416 21.3351 54.0076V60.4156C21.3351 60.5826 21.2001 60.7176 21.0331 60.7176ZM32.7895 60.7176H26.2015C26.0345 60.7176 25.8995 60.5826 25.8995 60.4156V54.0076C25.8995 53.8416 26.0345 53.7056 26.2015 53.7056H32.7895C32.9565 53.7056 33.0915 53.8416 33.0915 54.0076V60.4156C33.0915 60.5826 32.9565 60.7176 32.7895 60.7176Z" fill="#002F6C"/>
<path fill-rule="evenodd" clip-rule="evenodd" d="M61.6548 65.7084V65.7164H12.5888C10.6098 65.7164 8.99976 64.1074 8.99976 62.1284V26.1334H61.6548V60.9654C61.6798 64.4074 62.6378 65.7084 64.6338 65.7084H61.6548ZM8.99976 16.8334H13.3098V19.0544C13.3098 20.2994 14.3188 21.3094 15.5638 21.3094C16.8098 21.3094 17.8188 20.2994 17.8188 19.0544V16.8334H53.0078V19.0544C53.0078 20.2994 54.0168 21.3094 55.2618 21.3094C56.5068 21.3094 57.5168 20.2994 57.5168 19.0544V16.8334H61.6548V23.6334H8.99976V16.8334ZM64.1548 56.3304V14.3334H57.5168V12.2914C57.5168 11.0454 56.5068 10.0364 55.2618 10.0364C54.0168 10.0364 53.0078 11.0454 53.0078 12.2914V14.3334H17.8188V12.2914C17.8188 11.0454 16.8098 10.0364 15.5638 10.0364C14.3188 10.0364 13.3098 11.0454 13.3098 12.2914V14.3334H6.49976V62.1284C6.49976 65.4854 9.23176 68.2164 12.5888 68.2164H64.1548V68.2064H68.2998C71.1558 68.2064 73.4708 65.8914 73.4708 63.0354V56.3304H64.1548Z" fill="#002F6C"/>
</svg>
