<svg width="79" height="79" viewBox="0 0 79 79" fill="none" xmlns="http://www.w3.org/2000/svg">
<path fill-rule="evenodd" clip-rule="evenodd" d="M71.139 48.5263H65.955C65.955 48.4993 65.959 48.4733 65.959 48.4463C65.9569 46.5347 65.1966 44.702 63.8449 43.3504C62.4932 41.9987 60.6606 41.2384 58.749 41.2363C54.774 41.2363 51.539 44.4703 51.539 48.4463C51.539 48.4733 51.543 48.4993 51.543 48.5263H23.962C23.962 48.4993 23.966 48.4733 23.966 48.4463C23.9639 46.5347 23.2036 44.702 21.8519 43.3504C20.5002 41.9987 18.6676 41.2384 16.756 41.2363C14.8444 41.2384 13.0118 41.9987 11.6601 43.3504C10.3084 44.702 9.54812 46.5347 9.546 48.4463C9.546 48.4733 9.55 48.4993 9.55 48.5263H6.073V42.6943C6.07356 41.132 6.54715 39.6066 7.43143 38.3187C8.31571 37.0308 9.56924 36.0409 11.027 35.4793C11.817 35.1753 13.87 34.7563 17.187 34.2213C18.8297 33.8858 20.3733 33.1776 21.699 32.1513C23.209 30.9743 25.589 29.2463 28.338 27.7013C34.808 24.0693 39.374 22.3843 46.466 22.5513C46.521 22.5513 52.014 22.4563 55.051 22.7543C63.799 23.6133 69.964 28.3973 71.964 35.8763C72.879 39.2963 72.55 44.9663 71.244 48.2593L71.139 48.5263ZM54.039 48.4463C54.0403 47.1975 54.537 46.0003 55.42 45.1172C56.303 44.2342 57.5002 43.7376 58.749 43.7363C59.9978 43.7376 61.195 44.2342 62.078 45.1172C62.961 46.0003 63.4577 47.1975 63.459 48.4463C63.4574 49.6948 62.9606 50.8918 62.0777 51.7746C61.1947 52.6574 59.9976 53.1539 58.749 53.1553C57.5002 53.1539 56.303 52.6573 55.42 51.7743C54.537 50.8913 54.0403 49.694 54.039 48.4453V48.4463ZM12.046 48.4463C12.0473 47.1975 12.544 46.0003 13.427 45.1172C14.31 44.2342 15.5072 43.7376 16.756 43.7363C18.0048 43.7376 19.202 44.2342 20.085 45.1172C20.968 46.0003 21.4647 47.1975 21.466 48.4463C21.4644 49.6948 20.9676 50.8918 20.0847 51.7746C19.2017 52.6574 18.0046 53.1539 16.756 53.1553C15.5072 53.1539 14.31 52.6573 13.427 51.7743C12.544 50.8913 12.0473 49.694 12.046 48.4453V48.4463ZM75.666 35.7883C74.251 30.1803 67.881 23.7653 60.425 21.6063C58.4176 20.9172 56.3358 20.4674 54.223 20.2663C51.043 19.9543 47.95 20.0533 45.4 20.0533C37.703 20.0533 33.915 21.6633 27.04 25.5233C24.157 27.1433 21.669 28.9503 20.09 30.1803C19.0686 30.9704 17.8794 31.5154 16.614 31.7733C13.006 32.4403 10.921 32.8653 10.357 33.0503C9.511 33.3273 7.582 34.1573 5.982 36.0143C4.38149 37.8719 3.50078 40.2422 3.5 42.6943V49.7773C3.5 50.4373 4.015 50.7883 4.363 50.9473C5.229 51.3273 6.643 51.5843 7.111 51.5843H10.275C10.465 51.9743 10.688 52.3443 10.943 52.6933C12.596 55.2623 16.225 57.0683 19.193 57.0683C22.573 57.0683 25.409 54.7273 26.186 51.5843H51.268C51.347 51.7463 51.431 51.9042 51.521 52.0602C52.961 54.9603 56.981 57.0683 60.187 57.0683C63.566 57.0683 66.402 54.7273 67.179 51.5843H73.275C73.5256 51.5842 73.7703 51.5088 73.9775 51.368C74.1847 51.2271 74.3448 51.0272 74.437 50.7943L74.942 49.5233C76.617 45.2993 76.749 40.3733 75.667 35.7883H75.666Z" fill="#002F6C"/>
<path fill-rule="evenodd" clip-rule="evenodd" d="M46.3449 25.5443L46.8949 33.4063L24.1779 34.9963C23.9019 35.0153 23.0499 34.8063 24.1879 34.0463L24.7009 33.6583C26.0629 32.6453 27.9949 31.3133 30.1859 30.1083C35.9659 26.9293 40.0619 25.4353 46.3449 25.5443ZM54.3199 25.7283C59.8239 26.2583 64.1959 28.4713 66.9539 32.0023L49.8879 33.1963L49.3529 25.5393C51.9209 25.5943 53.5769 25.6573 54.3209 25.7293L54.3199 25.7283Z" fill="#002F6C"/>
</svg>
