<svg width="79" height="79" viewBox="0 0 79 79" fill="none" xmlns="http://www.w3.org/2000/svg">
<path fill-rule="evenodd" clip-rule="evenodd" d="M12.6501 19.0673H43.8641V16.0673H12.6501V19.0673Z" fill="#002F6C"/>
<path fill-rule="evenodd" clip-rule="evenodd" d="M12.6501 26.0463H43.8641V23.0463H12.6501V26.0463Z" fill="#002F6C"/>
<path fill-rule="evenodd" clip-rule="evenodd" d="M12.6501 33.0243H33.5261V30.0243H12.6501V33.0243Z" fill="#002F6C"/>
<path fill-rule="evenodd" clip-rule="evenodd" d="M71.7814 26.4835H59.0754C58.4584 26.4835 57.9574 26.9835 57.9574 27.6015V44.7025C57.9574 45.3205 57.4564 45.8205 56.8394 45.8205H30.0514C29.4324 45.8205 28.9324 46.3215 28.9324 46.9395V48.1845V56.2725C28.9324 56.7815 29.3444 57.1945 29.8544 57.1945L50.7664 57.1885C50.9464 57.1825 62.6864 56.8085 67.7734 61.6495C69.5554 63.3465 70.5204 65.4545 70.7084 68.0735C70.7434 68.5695 71.1354 68.9625 71.6344 68.9605H71.6824C72.1904 68.9575 72.5994 68.5455 72.5994 68.0385V27.3015C72.5994 26.8495 72.2334 26.4835 71.7814 26.4835Z" fill="#002F6C"/>
<path fill-rule="evenodd" clip-rule="evenodd" d="M10.714 44.546C9.446 45.753 8.547 47.134 8 48.722V11.536H49.167V39.747L28.624 39.741C28.117 39.72 16.128 39.395 10.714 44.546ZM49.495 42.247C49.498 42.247 49.501 42.246 49.505 42.246L52.495 42.247C53.693 42.247 54.667 41.273 54.667 40.075V11.105C54.667 9.96401 53.739 9.03601 52.599 9.03601H49.599H10.568H7.568C6.428 9.03601 5.5 9.96401 5.5 11.104V51.841C5.5 53.012 6.439 53.969 7.649 54.007V54.01H7.685C7.693 54.01 7.7 54.013 7.708 54.013H7.721C7.73 54.013 7.737 54.01 7.745 54.01H10.685C10.693 54.01 10.7 54.013 10.708 54.013H10.721C10.73 54.013 10.737 54.01 10.745 54.01H10.796V54.005C11.898 53.966 12.809 53.089 12.889 51.965C13.053 49.668 13.887 47.834 15.438 46.357C19.152 42.822 27.089 42.303 30.246 42.241L49.495 42.247Z" fill="#002F6C"/>
</svg>
