<svg width="79" height="79" viewBox="0 0 79 79" fill="none" xmlns="http://www.w3.org/2000/svg">
<path d="M32.5 15.16C34.4177 14.6664 36.4282 14.4039 38.5 14.4039C40.5718 14.4039 42.5823 14.6664 44.5 15.16C46.4177 14.6664 48.4282 14.4039 50.5 14.4039C63.7548 14.4039 74.5 25.1491 74.5 38.4039C74.5 51.6588 63.7548 62.4039 50.5 62.4039C48.4282 62.4039 46.4177 62.1414 44.5 61.6478C42.5823 62.1414 40.5718 62.4039 38.5 62.4039C36.4282 62.4039 34.4177 62.1414 32.5 61.6478C30.5823 62.1414 28.5718 62.4039 26.5 62.4039C13.2452 62.4039 2.5 51.6588 2.5 38.4039C2.5 25.1491 13.2452 14.4039 26.5 14.4039C28.5718 14.4039 30.5823 14.6664 32.5 15.16ZM25.1629 18.4479C14.7406 19.1359 6.5 27.8076 6.5 38.4039C6.5 49.0003 14.7406 57.672 25.1629 58.3599C25.6048 58.3891 26.0507 58.4039 26.5 58.4039C28.5904 58.4039 30.6059 58.0832 32.5 57.4883C40.6142 54.9398 46.5 47.3592 46.5 38.4039C46.5 29.4486 40.6142 21.8681 32.5 19.3195C30.6059 18.7246 28.5904 18.4039 26.5 18.4039C26.0507 18.4039 25.6048 18.4187 25.1629 18.4479L25.1629 18.4479ZM39.8371 18.4479C46.2669 22.7537 50.5 30.0844 50.5 38.4039C50.5 46.7234 46.2669 54.0542 39.8371 58.3599C50.2594 57.672 58.5 49.0003 58.5 38.4039C58.5 27.8075 50.2594 19.1359 39.8371 18.4479ZM51.8371 18.4479C58.2669 22.7537 62.5 30.0844 62.5 38.4039C62.5 46.7234 58.2669 54.0542 51.8371 58.3599C62.2594 57.672 70.5 49.0003 70.5 38.4039C70.5 27.8075 62.2594 19.1359 51.8371 18.4479Z" fill="#002F6C"/>
<path d="M27.7 51.7163H24.58V48.6863C22 48.3563 19.48 47.3363 17.5 45.8363L19.84 42.4163C21.46 43.6463 22.96 44.4863 24.73 44.8463V40.0763C20.41 38.9063 18.28 37.2263 18.28 33.6863C18.28 30.3563 20.8 28.1663 24.58 27.7763V26.0363H27.7V27.8363C29.83 28.1363 31.66 28.9163 33.28 30.0563L31.27 33.5663C30.07 32.7563 28.81 32.1263 27.55 31.7963V36.3263C32.11 37.5563 34.06 39.4463 34.06 42.8063C34.06 46.1363 31.51 48.3263 27.7 48.7463V51.7163ZM24.73 35.5763V31.5263C23.29 31.7363 22.66 32.4563 22.66 33.4163C22.66 34.3463 23.08 34.9763 24.73 35.5763ZM27.55 44.9963C28.96 44.7863 29.68 44.1263 29.68 43.0463C29.68 42.0263 29.17 41.3963 27.55 40.7963V44.9963Z" fill="#002F6C"/>
</svg>
