<svg width="79" height="79" viewBox="0 0 79 79" fill="none" xmlns="http://www.w3.org/2000/svg">
<path fill-rule="evenodd" clip-rule="evenodd" d="M37.514 35.3122C37.7557 35.0705 38.0426 34.8788 38.3584 34.748C38.6742 34.6172 39.0126 34.5498 39.3545 34.5498C39.6963 34.5498 40.0347 34.6172 40.3505 34.748C40.6663 34.8788 40.9533 35.0705 41.195 35.3122C41.4367 35.5539 41.6284 35.8408 41.7592 36.1566C41.89 36.4724 41.9573 36.8109 41.9573 37.1527C41.9573 37.4945 41.89 37.833 41.7592 38.1488C41.6284 38.4646 41.4367 38.7515 41.195 38.9932L44.072 41.8712C44.093 41.8512 44.119 41.8352 44.133 41.8112L54.597 22.3092C54.6269 22.2533 54.638 22.1893 54.6287 22.1266C54.6194 22.0638 54.5902 22.0058 54.5453 21.961C54.5004 21.9162 54.4423 21.8871 54.3795 21.878C54.3168 21.8688 54.2528 21.8801 54.197 21.9102L34.697 32.3742C34.671 32.3872 34.657 32.4142 34.637 32.4342L37.514 35.3122Z" fill="#002F6C"/>
<path fill-rule="evenodd" clip-rule="evenodd" d="M38.768 68.0733C22.354 68.0733 9 54.7193 9 38.3053C9 21.8913 22.354 8.53825 38.768 8.53825C55.181 8.53825 68.535 21.8913 68.535 38.3053C68.535 54.7193 55.181 68.0733 38.768 68.0733ZM65.938 20.9313C60.195 11.9833 50.165 6.03625 38.767 6.03625C20.976 6.03625 6.5 20.5113 6.5 38.3043C6.5 45.4373 8.831 52.0343 12.766 57.3823C18.506 66.3363 28.54 72.2863 39.942 72.2863C57.734 72.2863 72.209 57.8113 72.209 40.0193C72.2151 33.1493 70.0167 26.4587 65.937 20.9313" fill="#002F6C"/>
<path fill-rule="evenodd" clip-rule="evenodd" d="M41.1059 14.3112C41.1124 13.9899 41.0546 13.6705 40.9361 13.3717C40.8176 13.0729 40.6407 12.8008 40.4157 12.5713C40.1907 12.3418 39.9222 12.1594 39.6258 12.035C39.3295 11.9106 39.0113 11.8465 38.6899 11.8466C38.3685 11.8466 38.0503 11.9108 37.754 12.0354C37.4577 12.16 37.1893 12.3424 36.9644 12.572C36.7395 12.8016 36.5626 13.0738 36.4443 13.3726C36.3259 13.6714 36.2683 13.9909 36.2749 14.3122C36.2878 14.9443 36.5479 15.5462 36.9995 15.9887C37.4511 16.4312 38.0581 16.6791 38.6904 16.6791C39.3226 16.6791 39.9297 16.4312 40.3813 15.9887C40.8329 15.5462 41.093 14.9443 41.1059 14.3122V14.3112ZM38.6899 59.4322C38.3685 59.4257 38.0491 59.4833 37.7503 59.6018C37.4515 59.7202 37.1794 59.8971 36.9498 60.122C36.7203 60.347 36.5379 60.6155 36.4134 60.9118C36.2889 61.2081 36.2247 61.5263 36.2247 61.8477C36.2247 62.1691 36.2889 62.4873 36.4134 62.7836C36.5379 63.0799 36.7203 63.3484 36.9498 63.5734C37.1794 63.7983 37.4515 63.9752 37.7503 64.0936C38.0491 64.2121 38.3685 64.2697 38.6899 64.2632C39.3184 64.2451 39.915 63.9827 40.3531 63.5318C40.7913 63.0809 41.0364 62.4769 41.0364 61.8482C41.0364 61.2195 40.7913 60.6155 40.3531 60.1646C39.915 59.7137 39.3184 59.4513 38.6899 59.4332V59.4322ZM62.5529 35.8902C61.9124 35.8902 61.2981 36.1446 60.8452 36.5975C60.3923 37.0504 60.1379 37.6647 60.1379 38.3052C60.1379 38.9457 60.3923 39.56 60.8452 40.0129C61.2981 40.4658 61.9124 40.7202 62.5529 40.7202C63.1934 40.7202 63.8076 40.4658 64.2605 40.0129C64.7134 39.56 64.9679 38.9457 64.9679 38.3052C64.9679 37.6647 64.7134 37.0504 64.2605 36.5975C63.8076 36.1446 63.1934 35.8902 62.5529 35.8902ZM14.7739 35.8902C14.1334 35.8902 13.5191 36.1446 13.0662 36.5975C12.6133 37.0504 12.3589 37.6647 12.3589 38.3052C12.3589 38.9457 12.6133 39.56 13.0662 40.0129C13.5191 40.4658 14.1334 40.7202 14.7739 40.7202C15.4144 40.7202 16.0286 40.4658 16.4815 40.0129C16.9344 39.56 17.1889 38.9457 17.1889 38.3052C17.1889 37.6647 16.9344 37.0504 16.4815 36.5975C16.0286 36.1446 15.4144 35.8902 14.7739 35.8902ZM37.5139 38.9932C37.026 38.5049 36.752 37.8429 36.752 37.1527C36.752 36.4625 37.026 35.8005 37.5139 35.3122L34.6359 32.4342C34.6159 32.4542 34.5899 32.4702 34.5759 32.4942L24.1119 51.9942C24.0815 52.0501 24.0701 52.1143 24.0792 52.1773C24.0883 52.2402 24.1176 52.2986 24.1626 52.3435C24.2075 52.3885 24.2659 52.4178 24.3288 52.4269C24.3918 52.436 24.456 52.4246 24.5119 52.3942L44.0119 41.9312C44.0369 41.9172 44.0519 41.8902 44.0729 41.8712L41.1949 38.9932C40.7066 39.4808 40.0449 39.7546 39.3549 39.7546C38.6649 39.7546 38.0031 39.4808 37.5149 38.9932" fill="#002F6C"/>
</svg>
