<svg width="79" height="79" viewBox="0 0 79 79" fill="none" xmlns="http://www.w3.org/2000/svg">
<path fill-rule="evenodd" clip-rule="evenodd" d="M38.768 68.0733C22.354 68.0733 9 54.7193 9 38.3053C9 21.8913 22.354 8.53825 38.768 8.53825C55.181 8.53825 68.535 21.8913 68.535 38.3053C68.535 54.7193 55.181 68.0733 38.768 68.0733ZM65.937 20.9313C60.196 11.9833 50.166 6.03625 38.768 6.03625C20.976 6.03625 6.5 20.5113 6.5 38.3043C6.5 45.4373 8.831 52.0343 12.766 57.3833C18.506 66.3363 28.539 72.2863 39.942 72.2863C57.734 72.2863 72.209 57.8113 72.209 40.0193C72.2151 33.1493 70.0167 26.4587 65.937 20.9313Z" fill="#002F6C"/>
<path d="M44.2041 41.0663C48.7051 41.0663 52.4061 44.3263 52.5421 48.3483L52.5461 48.5763V51.8293C52.5461 52.4893 51.9811 53.0023 51.2961 53.0613L51.1661 53.0663H26.8401C26.1461 53.0663 25.6171 52.5943 25.5531 51.9583L25.5471 51.8293V48.5763C25.5471 44.5263 29.1641 41.1923 33.6341 41.0703L33.8881 41.0663H44.2051H44.2041ZM39.0461 21.0663C37.9298 21.0662 36.8245 21.2859 35.7932 21.713C34.7618 22.1402 33.8247 22.7663 33.0354 23.5556C32.2461 24.3449 31.62 25.282 31.1929 26.3133C30.7658 27.3446 30.546 28.45 30.5461 29.5663C30.5461 31.9323 31.5181 34.1453 33.2021 35.7393C34.2101 36.6934 35.4365 37.3863 36.774 37.7572C38.1115 38.1281 39.5194 38.1658 40.8749 37.8671C42.2304 37.5683 43.492 36.9422 44.5497 36.0434C45.6074 35.1446 46.4288 34.0004 46.9423 32.7109C47.4558 31.4214 47.6457 30.0258 47.4954 28.646C47.3452 27.2662 46.8593 25.9441 46.0802 24.7954C45.3012 23.6467 44.2527 22.7062 43.0263 22.0561C41.8 21.4061 40.4331 21.0662 39.0451 21.0663H39.0461Z" fill="#002F6C"/>
</svg>
