<svg width="79" height="79" viewBox="0 0 79 79" fill="none" xmlns="http://www.w3.org/2000/svg">
<path fill-rule="evenodd" clip-rule="evenodd" d="M13.436 47.6829H61.729V17.1459H13.436V47.6829ZM62.487 14.6459H12.677C11.717 14.6459 10.936 15.4269 10.936 16.3869V48.4409C10.936 49.4019 11.717 50.1829 12.677 50.1829H62.487C63.447 50.1829 64.229 49.4019 64.229 48.4409V16.3869C64.229 15.4269 63.447 14.6459 62.487 14.6459Z" fill="#002F6C"/>
<path fill-rule="evenodd" clip-rule="evenodd" d="M67.4102 51.1813C67.4102 52.3453 66.4642 53.2913 65.3002 53.2913H45.7362H31.7322H10.1102C8.94624 53.2913 8.00024 52.3453 8.00024 51.1813V13.6473C8.00024 12.4833 8.94624 11.5363 10.1102 11.5363H65.3002C66.4642 11.5363 67.4102 12.4833 67.4102 13.6473V51.1813ZM68.6412 9.03625H65.3002H13.4522H10.1102C7.56824 9.03625 5.50024 11.1043 5.50024 13.6473V51.1813C5.50024 53.7233 7.56824 55.7913 10.1102 55.7913H13.4522H31.7322V60.5513H34.2322V55.7913H43.2362V60.5513H48.0492V55.7913H65.3002H68.6412C71.1842 55.7913 73.2532 53.7233 73.2532 51.1813V13.6473C73.2532 11.1043 71.1842 9.03625 68.6412 9.03625Z" fill="#002F6C"/>
<path fill-rule="evenodd" clip-rule="evenodd" d="M54.3887 68.3296H24.4137C23.7687 68.3296 23.2407 67.8016 23.2407 67.1566V66.7726C23.2407 63.3506 26.0397 60.5516 29.4617 60.5516H49.3407C52.7627 60.5516 55.5627 63.3506 55.5627 66.7726V67.1566C55.5627 67.8016 55.0347 68.3296 54.3887 68.3296Z" fill="#002F6C"/>
</svg>
