<svg width="79" height="79" viewBox="0 0 79 79" fill="none" xmlns="http://www.w3.org/2000/svg">
<path fill-rule="evenodd" clip-rule="evenodd" d="M38.7678 68.073C22.3538 68.073 8.99976 54.719 8.99976 38.305C8.99976 21.891 22.3538 8.53801 38.7678 8.53801C55.1808 8.53801 68.5348 21.891 68.5348 38.305C68.5348 54.719 55.1808 68.073 38.7678 68.073ZM65.9368 20.931C60.1958 11.983 50.1658 6.03601 38.7678 6.03601C20.9758 6.03601 6.49976 20.511 6.49976 38.304C6.49976 45.437 8.83076 52.034 12.7658 57.382C18.5058 66.336 28.5388 72.286 39.9418 72.286C57.7338 72.286 72.2088 57.811 72.2088 40.019C72.2088 32.881 69.8748 26.281 65.9368 20.931Z" fill="#002F6C"/>
<path fill-rule="evenodd" clip-rule="evenodd" d="M42.5295 46.8933C42.0525 47.4553 41.4585 47.8433 40.7555 48.0713V40.9633C41.6095 41.2783 42.2565 41.6853 42.6725 42.1953C43.1755 42.8123 43.4265 43.5473 43.4265 44.4003C43.4265 45.3553 43.1275 46.1853 42.5295 46.8933ZM35.5775 33.1043C35.1705 32.5253 34.9665 31.8973 34.9665 31.2233C34.9665 30.4843 35.1895 29.8103 35.6345 29.1983C36.0315 28.6543 36.5575 28.2593 37.1975 27.9973V34.3933C36.4905 34.0523 35.9445 33.6263 35.5775 33.1043ZM46.4445 38.6433C45.4065 37.4083 43.5035 36.3923 40.7555 35.5873V28.2843C41.6555 28.8643 42.2465 29.7603 42.4905 31.0133L47.3225 30.3823C46.9915 28.4733 46.2285 26.9493 45.0315 25.8093C43.9495 24.7793 42.5125 24.1363 40.7555 23.8393V21.8463H40.1995H37.4305H37.1975V23.7773C35.1205 24.0293 33.4365 24.8243 32.1685 26.1913C30.8505 27.6103 30.1925 29.3643 30.1925 31.4523C30.1925 33.5153 30.7745 35.2693 31.9395 36.7133C33.0665 38.1133 34.8235 39.1643 37.1975 39.8773V47.8203C36.6025 47.4863 36.0545 47.0023 35.5585 46.3493C34.9985 45.6103 34.6165 44.7313 34.4125 43.7133L29.4275 44.2473C29.8105 46.7563 30.6885 48.6983 32.0635 50.0733C33.3875 51.3973 35.1055 52.1943 37.1975 52.4913V56.0123H37.4305H40.1995H40.7555V52.3413C42.9705 51.9253 44.7275 50.9963 46.0145 49.5383C47.4085 47.9593 48.1065 46.0183 48.1065 43.7133C48.1065 41.6503 47.5515 39.9603 46.4445 38.6433Z" fill="#002F6C"/>
</svg>
