<svg width="79" height="79" viewBox="0 0 79 79" fill="none" xmlns="http://www.w3.org/2000/svg">
<path d="M56.5128 42.0664C60.8478 42.0664 64.4116 45.3258 64.5421 49.3481L64.5458 49.5766V52.8295C64.5458 53.4884 64.0017 54.0027 63.3426 54.0609L63.2178 54.0664H39.7908C39.123 54.0664 38.6131 53.5941 38.5519 52.9587L38.5458 52.8295V49.5766C38.5458 45.5265 42.0291 42.192 46.3333 42.0699L46.5778 42.0664H56.5128ZM51.546 23.0664C47.1268 23.0664 43.546 26.6473 43.546 31.0664C43.546 33.2934 44.4611 35.3754 46.0463 36.8765C47.5218 38.2736 49.4721 39.0664 51.546 39.0664C55.9641 39.0664 59.546 35.4845 59.546 31.0664C59.546 26.6476 55.9645 23.0664 51.546 23.0664Z" fill="#002F6C"/>
<path fill-rule="evenodd" clip-rule="evenodd" d="M13.0801 26.8132H35.5221V23.8132H13.0801V26.8132Z" fill="#002F6C"/>
<path fill-rule="evenodd" clip-rule="evenodd" d="M13.0801 34.2052H35.5221V31.2052H13.0801V34.2052Z" fill="#002F6C"/>
<path fill-rule="evenodd" clip-rule="evenodd" d="M13.0801 41.5973H35.5221V38.5973H13.0801V41.5973Z" fill="#002F6C"/>
<path fill-rule="evenodd" clip-rule="evenodd" d="M69.4298 56.3693C69.4298 57.6573 68.3818 58.7043 67.0948 58.7043H9.33476C8.04776 58.7043 6.99976 57.6573 6.99976 56.3693V19.8183C6.99976 18.5313 8.04776 17.4833 9.33476 17.4833H67.0948C68.3818 17.4833 69.4298 18.5313 69.4298 19.8183V56.3693ZM73.7948 19.6313C72.0488 17.0713 69.2838 15.5493 69.2838 15.5493C69.2838 15.5493 69.2767 15.5693 69.2728 15.5783C68.6158 15.2433 67.8818 15.0363 67.0948 15.0363H9.33476C6.66876 15.0363 4.49976 17.2053 4.49976 19.8713V56.4223C4.49976 57.0943 4.63876 57.7333 4.88776 58.3153C4.91676 58.5083 5.02876 58.7663 5.27176 59.1273C7.01576 61.7083 9.80676 63.2433 9.80676 63.2433C9.80676 63.2433 9.81276 63.2283 9.81476 63.2243C10.5038 63.6033 11.2838 63.8383 12.1248 63.8383H69.8848C72.5518 63.8383 74.7208 61.6693 74.7208 59.0033V22.4523C74.7208 21.3973 74.3708 20.4273 73.7948 19.6313Z" fill="#002F6C"/>
</svg>
