<svg width="79" height="79" viewBox="0 0 79 79" fill="none" xmlns="http://www.w3.org/2000/svg">
<path fill-rule="evenodd" clip-rule="evenodd" d="M55.9405 6.53674C57.2615 6.53674 58.3355 7.58374 58.3355 8.87174V65.3597C58.3355 66.6477 57.2615 67.6947 55.9405 67.6947H55.8755V6.53674H55.9405ZM26.2213 63.0062C26.9113 63.0062 27.4713 63.5662 27.4713 64.2562C27.4713 64.9462 26.9113 65.5062 26.2213 65.5062H19.7763C19.0863 65.5062 18.5263 64.9462 18.5263 64.2562C18.5263 63.5662 19.0863 63.0062 19.7763 63.0062H26.2213ZM37.776 63.0062C38.466 63.0062 39.026 63.5662 39.026 64.2562C39.026 64.9462 38.466 65.5062 37.776 65.5062H31.331C30.641 65.5062 30.081 64.9462 30.081 64.2562C30.081 63.5662 30.641 63.0062 31.331 63.0062H37.776ZM49.3311 63.0062C50.0211 63.0062 50.5811 63.5662 50.5811 64.2562C50.5811 64.9462 50.0211 65.5062 49.3311 65.5062H42.8861C42.1961 65.5062 41.6361 64.9462 41.6361 64.2562C41.6361 63.5662 42.1961 63.0062 42.8861 63.0062H49.3311ZM26.2213 58.3553C26.9113 58.3553 27.4713 58.9153 27.4713 59.6053C27.4713 60.2953 26.9113 60.8553 26.2213 60.8553H19.7763C19.0863 60.8553 18.5263 60.2953 18.5263 59.6053C18.5263 58.9153 19.0863 58.3553 19.7763 58.3553H26.2213ZM37.776 58.3553C38.466 58.3553 39.026 58.9153 39.026 59.6053C39.026 60.2953 38.466 60.8553 37.776 60.8553H31.331C30.641 60.8553 30.081 60.2953 30.081 59.6053C30.081 58.9153 30.641 58.3553 31.331 58.3553H37.776ZM49.3311 58.3553C50.0211 58.3553 50.5811 58.9153 50.5811 59.6053C50.5811 60.2953 50.0211 60.8553 49.3311 60.8553H42.8861C42.1961 60.8553 41.6361 60.2953 41.6361 59.6053C41.6361 58.9153 42.1961 58.3553 42.8861 58.3553H49.3311ZM26.2213 53.7039C26.9113 53.7039 27.4713 54.2639 27.4713 54.9539C27.4713 55.6439 26.9113 56.2039 26.2213 56.2039H19.7763C19.0863 56.2039 18.5263 55.6439 18.5263 54.9539C18.5263 54.2639 19.0863 53.7039 19.7763 53.7039H26.2213ZM37.776 53.7039C38.466 53.7039 39.026 54.2639 39.026 54.9539C39.026 55.6439 38.466 56.2039 37.776 56.2039H31.331C30.641 56.2039 30.081 55.6439 30.081 54.9539C30.081 54.2639 30.641 53.7039 31.331 53.7039H37.776ZM49.3311 53.7039C50.0211 53.7039 50.5811 54.2639 50.5811 54.9539C50.5811 55.6439 50.0211 56.2039 49.3311 56.2039H42.8861C42.1961 56.2039 41.6361 55.6439 41.6361 54.9539C41.6361 54.2639 42.1961 53.7039 42.8861 53.7039H49.3311ZM49.0309 9.08524C49.8859 9.08524 50.5809 9.79624 50.5809 10.6712V49.6882C50.5809 50.5622 49.8859 51.2742 49.0309 51.2742H20.0759C19.2209 51.2742 18.5269 50.5622 18.5269 49.6882V10.6712C18.5269 9.79624 19.2209 9.08524 20.0759 9.08524H49.0309ZM48.0809 11.5862H21.0259V48.7742H48.0809V11.5862ZM18.4585 67.6947C17.1385 67.6947 16.0635 66.6477 16.0635 65.3597V8.87174C16.0635 7.58374 17.1385 6.53674 18.4585 6.53674H53.3755V67.6947H18.4585ZM62.9835 9.41674C62.9895 9.41374 63.0075 9.40674 63.0075 9.40674C63.0075 9.40674 62.9085 9.23174 62.7185 8.94074C62.7055 8.92174 62.6935 8.90274 62.6805 8.88374C62.0915 7.99374 60.7305 6.15274 58.7865 4.87174C58.4535 4.65274 58.1995 4.53274 58.0075 4.48974C57.3765 4.20574 56.6805 4.03674 55.9405 4.03674H18.4585C15.7245 4.03674 13.5005 6.20574 13.5005 8.87174V65.3597C13.5005 66.1297 13.7015 66.8467 14.0305 67.4927L14.0255 67.4947C14.0255 67.4947 14.0605 67.5557 14.1215 67.6557C14.2405 67.8687 14.3705 68.0727 14.5205 68.2647C15.1735 69.2117 16.4525 70.8357 18.2125 72.0057C19.0285 72.5817 20.0225 72.9307 21.1055 72.9307H58.5875C61.3225 72.9307 63.5465 70.7617 63.5465 68.0957V11.6067C63.5465 10.8147 63.3315 10.0767 62.9835 9.41674Z" fill="#002F6C"/>
<path fill-rule="evenodd" clip-rule="evenodd" d="M28.8039 30.6208C32.0419 27.3348 37.3479 27.3348 40.6109 30.6208L42.3149 28.9168C38.1029 24.7058 31.2869 24.7058 27.0999 28.9168L28.8039 30.6208Z" fill="#002F6C"/>
<path fill-rule="evenodd" clip-rule="evenodd" d="M25.4449 27.2129C30.5569 22.0999 38.8579 22.0999 43.9699 27.2129L45.6739 25.5579C39.5879 19.4959 29.8259 19.4959 23.7649 25.5579L25.4449 27.2129ZM32.2119 33.9559C33.5749 32.5189 35.8879 32.5189 37.2759 33.9559L38.9549 32.2519C36.5939 29.9389 32.8209 29.9389 30.5079 32.2519L32.2119 33.9559ZM34.7199 35.0519C33.7699 35.0519 32.9669 35.8309 32.9669 36.8049C32.9669 37.7289 33.7699 38.5089 34.7199 38.5089C35.6689 38.5089 36.4479 37.7049 36.4479 36.8049C36.4479 35.8309 35.6689 35.0519 34.7199 35.0519Z" fill="#002F6C"/>
</svg>
