<svg width="79" height="79" viewBox="0 0 79 79" fill="none" xmlns="http://www.w3.org/2000/svg">
<path fill-rule="evenodd" clip-rule="evenodd" d="M23.146 37.9852H54.808V34.9852H23.146V37.9852Z" fill="#002F6C"/>
<path fill-rule="evenodd" clip-rule="evenodd" d="M23.146 31.5093H54.808V28.5093H23.146V31.5093Z" fill="#002F6C"/>
<path fill-rule="evenodd" clip-rule="evenodd" d="M23.146 24.5332H44.322V21.5332H23.146V24.5332Z" fill="#002F6C"/>
<path fill-rule="evenodd" clip-rule="evenodd" d="M64.114 64.3673C64.114 64.3913 64.108 64.4153 64.107 64.4393L49.205 50.9623C49.675 50.5483 50.151 50.1263 50.667 49.6663C53.827 46.8513 56.007 44.8443 57.514 43.3913L64.114 37.5413V64.3673ZM62.3 66.1793H14.813C14.723 66.1793 14.637 66.1663 14.551 66.1533L29.349 52.7683C32.402 55.5943 34.111 57.0393 35.087 57.7623C35.281 57.9123 35.477 58.0543 35.683 58.1733C35.941 58.3363 36.117 58.4203 36.243 58.4613C36.8505 58.7273 37.5058 58.8668 38.169 58.8713C38.604 58.8713 39.035 58.7913 39.462 58.6723C39.5478 58.6578 39.6317 58.6336 39.712 58.6003C40.3911 58.3758 41.0172 58.0151 41.552 57.5403L42.728 56.4983C43.828 55.6133 45.308 54.3703 47.315 52.6223L62.304 66.1793H62.3ZM13 37.4393L21.507 45.2893C23.4892 47.2335 25.492 49.1566 27.515 51.0583L13 64.1863V37.4383V37.4393ZM13.542 33.4153L16.094 30.9033V36.8913L13.104 34.1323C13.194 33.8643 13.338 33.6153 13.542 33.4153ZM18.594 17.7783C18.594 17.4503 18.861 17.1833 19.189 17.1833H57.778C58.107 17.1833 58.373 17.4503 58.373 17.7783V38.9383C56.771 40.9783 44.267 52.1883 40.075 55.4293C39.452 55.9123 38.675 56.1423 37.888 56.0923C37.2155 56.0512 36.5727 55.8004 36.05 55.3753C32.23 52.2653 20.094 40.6593 18.594 38.6003V17.7783ZM37.286 10.0513C37.636 9.70626 38.096 9.53426 38.556 9.53426C39.018 9.53426 39.478 9.70626 39.828 10.0513L44.537 14.6833H32.577L37.286 10.0513ZM60.873 30.7593L63.573 33.4163C63.808 33.6463 63.968 33.9413 64.05 34.2583L60.873 37.0733V30.7593ZM60.873 27.2503V17.7783C60.8719 16.9577 60.5455 16.1711 59.9653 15.5909C59.3851 15.0107 58.5985 14.6843 57.778 14.6833H48.103L41.582 8.26726C39.914 6.62726 37.2 6.62426 35.532 8.26726L29.011 14.6833H19.189C18.3685 14.6843 17.5819 15.0107 17.0017 15.5909C16.4215 16.1711 16.0951 16.9577 16.094 17.7783V27.3943L11.788 31.6313C11.3812 32.0336 11.058 32.5124 10.837 33.0401C10.6159 33.5679 10.5014 34.1341 10.5 34.7063V64.3663C10.5 65.1323 10.718 65.8403 11.068 66.4643L11.007 66.4213C11.007 66.4213 12.681 69.6813 15.96 71.2143C16.519 71.4713 17.033 71.5083 17.65 71.5083H65.138C66.2818 71.5069 67.3784 71.0518 68.187 70.2428C68.9956 69.4338 69.4502 68.3371 69.451 67.1933V37.5333C69.4497 36.9615 69.3353 36.3956 69.1144 35.8682C68.8935 35.3408 68.5705 34.8623 68.164 34.4603L60.873 27.2513V27.2503Z" fill="#002F6C"/>
</svg>
