<svg width="79" height="79" viewBox="0 0 79 79" fill="none" xmlns="http://www.w3.org/2000/svg">
<path fill-rule="evenodd" clip-rule="evenodd" d="M33.5815 34.7751C33.5815 35.7781 33.7845 36.5151 34.1915 36.9891C34.5975 37.4631 35.1015 37.7001 35.7015 37.7001C36.1505 37.7001 36.5735 37.5891 36.9685 37.3681C37.2685 37.2111 37.5635 36.9621 37.8555 36.6231C38.2745 36.1401 38.6355 35.4381 38.9395 34.5141C39.2435 33.5901 39.3955 32.7301 39.3955 31.9331C39.3955 31.0411 39.1885 30.3561 38.7735 29.8791C38.3595 29.4011 37.8365 29.1621 37.2055 29.1621C36.5255 29.1621 35.8985 29.4241 35.3225 29.9501C34.7455 30.4741 34.3115 31.2221 34.0195 32.1941C33.7275 33.1651 33.5815 34.0251 33.5815 34.7751ZM46.3815 39.6421H48.9045C48.1145 41.2451 46.9025 42.5001 45.2695 43.4081C43.3975 44.4501 41.1165 44.9701 38.4245 44.9701C35.8195 44.9701 33.5695 44.5301 31.6745 43.6501C29.7805 42.7701 28.3715 41.4711 27.4475 39.7541C26.5235 38.0381 26.0615 36.1691 26.0615 34.1471C26.0615 31.9291 26.5865 29.8631 27.6375 27.9491C28.6865 26.0341 30.1235 24.5971 31.9475 23.6381C33.7705 22.6791 35.8545 22.2001 38.1995 22.2001C40.1885 22.2001 41.9565 22.5871 43.5045 23.3601C45.0515 24.1331 46.2335 25.2331 47.0515 26.6581C47.8685 28.0831 48.2765 29.6391 48.2765 31.3291C48.2765 33.3421 47.6565 35.1621 46.4175 36.7881C44.8625 38.8401 42.8695 39.8671 40.4375 39.8671C39.7825 39.8671 39.2895 39.7531 38.9575 39.5231C38.6255 39.2951 38.4045 38.9591 38.2945 38.5171C37.3625 39.4171 36.2895 39.8671 35.0735 39.8671C33.7635 39.8671 32.6755 39.4151 31.8105 38.5111C30.9465 37.6071 30.5145 36.4051 30.5145 34.9051C30.5145 33.0501 31.0355 31.3571 32.0775 29.8251C33.3405 27.9631 34.9585 27.0311 36.9325 27.0311C38.3375 27.0311 39.3755 27.5681 40.0465 28.6411L40.3425 27.3271H43.4695L41.6815 35.8171C41.5705 36.3541 41.5155 36.7011 41.5155 36.8591C41.5155 37.0561 41.5605 37.2051 41.6515 37.3031C41.7425 37.4021 41.8505 37.4511 41.9775 37.4511C42.3555 37.4511 42.8455 37.2221 43.4455 36.7641C44.2505 36.1651 44.9015 35.3591 45.3985 34.3481C45.8965 33.3381 46.1445 32.2931 46.1445 31.2111C46.1445 29.2691 45.4425 27.6441 44.0375 26.3371C42.6325 25.0321 40.6705 24.3791 38.1525 24.3791C36.0125 24.3791 34.1995 24.8141 32.7105 25.6871C31.2235 26.5591 30.1025 27.7871 29.3485 29.3701C28.5945 30.9521 28.2175 32.6001 28.2175 34.3131C28.2175 35.9791 28.6375 37.4951 29.4785 38.8601C30.3195 40.2261 31.4995 41.2221 33.0195 41.8501C34.5385 42.4781 36.2775 42.7921 38.2345 42.7921C40.1225 42.7921 41.7445 42.5291 43.1025 42.0041C44.4595 41.4791 45.5535 40.6921 46.3815 39.6421Z" fill="#002F6C"/>
<path fill-rule="evenodd" clip-rule="evenodd" d="M63.1138 64.3678C63.1138 64.3918 63.1078 64.4158 63.1068 64.4398L48.2048 50.9628C48.6738 50.5488 49.1508 50.1268 49.6668 49.6668C52.8278 46.8518 55.0078 44.8448 56.5128 43.3918L63.1138 37.5418V64.3678ZM61.3008 66.1798H13.8128C13.7228 66.1798 13.6368 66.1668 13.5508 66.1538L28.3488 52.7688C31.4018 55.5948 33.1108 57.0398 34.0868 57.7628C34.2808 57.9128 34.4768 58.0548 34.6828 58.1738C34.9408 58.3368 35.1168 58.4208 35.2428 58.4618C35.8648 58.7268 36.5148 58.8708 37.1688 58.8708C37.6038 58.8708 38.0348 58.7908 38.4618 58.6728C38.5278 58.6628 38.6108 58.6398 38.7128 58.6008C39.3628 58.3838 39.9888 58.0408 40.5518 57.5408L41.7278 56.4988C42.8288 55.6138 44.3088 54.3708 46.3148 52.6228L61.3038 66.1798C61.3028 66.1798 61.3018 66.1798 61.3008 66.1798ZM11.9998 37.4388L20.5068 45.2888C21.6568 46.4238 23.0388 47.7618 24.7328 49.3728C25.3658 49.9748 25.9558 50.5328 26.5148 51.0578L11.9998 64.1868V37.4388ZM12.5418 33.4158L15.0938 30.9038V36.8918L12.1028 34.1328C12.1938 33.8648 12.3378 33.6158 12.5418 33.4158ZM17.5938 17.7788C17.5938 17.4508 17.8598 17.1838 18.1888 17.1838H56.7778C57.1068 17.1838 57.3728 17.4508 57.3728 17.7788V38.9378C55.7708 40.9778 43.2668 52.1878 39.0748 55.4298C38.4518 55.9118 37.6748 56.1428 36.8878 56.0928C36.2138 56.0498 35.5738 55.8028 35.0498 55.3758C31.2298 52.2648 19.0938 40.6598 17.5938 38.6008V17.7788ZM36.2858 10.0518C36.6358 9.70676 37.0958 9.53476 37.5568 9.53476C38.0178 9.53476 38.4778 9.70676 38.8278 10.0518L43.5368 14.6838H31.5768L36.2858 10.0518ZM59.8728 30.7598L62.5728 33.4168C62.8078 33.6468 62.9678 33.9418 63.0498 34.2588L59.8728 37.0738V30.7598ZM67.1638 34.4598L64.4848 31.8238C64.4288 31.7628 64.3858 31.6908 64.3258 31.6328L59.8728 27.2498V17.7788C59.8728 16.0728 58.4848 14.6838 56.7778 14.6838H47.1028L40.5818 8.26776C38.9138 6.62675 36.1998 6.62476 34.5318 8.26776L28.0108 14.6838H18.1888C16.4818 14.6838 15.0938 16.0728 15.0938 17.7788V27.3948L10.7878 31.6318C9.96976 32.4368 9.49976 33.5568 9.49976 34.7058V64.3658C9.49976 65.1308 9.71676 65.8398 10.0678 66.4638L10.0068 66.4208C10.0068 66.4208 11.6808 69.6798 14.9598 71.2138C14.9598 71.2138 14.9428 71.1818 14.9188 71.1378C15.4488 71.3718 16.0328 71.5068 16.6498 71.5068H64.1378C66.5168 71.5068 68.4508 69.5718 68.4508 67.1928V37.5328C68.4508 36.3848 67.9818 35.2638 67.1638 34.4598Z" fill="#002F6C"/>
</svg>
