<svg width="79" height="79" viewBox="0 0 79 79" fill="none" xmlns="http://www.w3.org/2000/svg">
<path fill-rule="evenodd" clip-rule="evenodd" d="M43.0321 54.4433C40.5221 53.7483 38.8631 52.8113 37.1301 51.1093C36.0313 50.0244 35.16 48.7311 34.5672 47.3052C33.9745 45.8793 33.6722 44.3495 33.6781 42.8053C33.6781 40.1473 35.9381 37.9883 38.7141 37.9883C41.4891 37.9883 43.7491 40.1483 43.7491 42.8053C43.7491 44.3423 45.0931 45.5963 46.7591 45.5963C48.424 45.5963 49.7661 44.3423 49.7661 42.8063C49.7661 37.0613 44.8081 32.3913 38.6981 32.3913C34.3541 32.3913 30.3861 34.8083 28.6031 38.5423C28.0111 39.7723 27.7071 41.2173 27.7071 42.8053C27.7071 44.5973 27.9671 46.2993 28.7351 48.3493C28.7844 48.4729 28.8083 48.6052 28.8053 48.7382C28.8024 48.8713 28.7727 49.0024 28.718 49.1237C28.6633 49.245 28.5848 49.3541 28.487 49.4444C28.3893 49.5347 28.2743 49.6044 28.1491 49.6493C28.0251 49.6963 27.8931 49.7184 27.7606 49.7143C27.6281 49.7101 27.4977 49.6799 27.3769 49.6253C27.2562 49.5706 27.1474 49.4927 27.0568 49.3959C26.9662 49.2991 26.8956 49.1854 26.8491 49.0613C26.0741 46.9923 25.6951 44.9373 25.6951 42.8053C25.6951 40.9053 26.0601 39.1703 26.7781 37.6533C28.8921 33.2193 33.5761 30.3493 38.6981 30.3493C45.9191 30.3493 51.7941 35.9243 51.7941 42.7903C51.7941 45.4503 49.534 47.6073 46.7581 47.6073C43.9821 47.6073 41.7221 45.4493 41.7221 42.7903C41.7221 41.2543 40.3791 40.0003 38.7141 40.0003C37.0481 40.0003 35.7051 41.2543 35.7051 42.7903C35.7051 45.3983 36.7121 47.8323 38.5511 49.6553C40.0111 51.0993 41.3971 51.8853 43.5431 52.4793C44.0851 52.6193 44.4001 53.1803 44.2591 53.7063C44.2097 53.9252 44.0878 54.1209 43.9132 54.2618C43.7385 54.4027 43.5214 54.4804 43.2971 54.4823C43.2191 54.4823 43.1331 54.4683 43.0321 54.4433ZM41.4671 49.8433C39.0791 48.2253 37.6531 45.5953 37.6531 42.8053C37.6531 42.2403 38.1001 41.7923 38.6671 41.7923C39.2321 41.7923 39.6791 42.2403 39.6791 42.8053C39.6791 44.9303 40.7671 46.9293 42.6011 48.1623C43.6651 48.8823 44.9121 49.2283 46.4311 49.2283C46.8441 49.2283 47.4571 49.1733 48.0111 49.0783C48.1424 49.0546 48.2772 49.0572 48.4076 49.0859C48.538 49.1147 48.6614 49.169 48.7707 49.2457C48.8799 49.3224 48.9729 49.42 49.0442 49.5329C49.1155 49.6458 49.1637 49.7717 49.1861 49.9033C49.21 50.0349 49.2077 50.1698 49.1791 50.3005C49.1505 50.4311 49.0962 50.5547 49.0195 50.6642C48.9427 50.7737 48.845 50.8669 48.732 50.9383C48.619 51.0097 48.4929 51.058 48.3611 51.0803C47.6431 51.2183 46.9511 51.2713 46.4311 51.2713C44.5261 51.2713 42.8451 50.7893 41.4671 49.8433ZM35.253 54.1553C35.1199 54.1573 34.9878 54.1314 34.8652 54.0794C34.7426 54.0274 34.6322 53.9504 34.5411 53.8533C33.0461 52.3573 32.3541 51.4643 31.3691 49.6863C30.2761 47.7373 29.7021 45.3613 29.7021 42.8063C29.7021 38.0433 33.7701 34.1693 38.7621 34.1693C43.7501 34.1693 47.8181 38.0433 47.8181 42.8053C47.8181 43.3713 47.3701 43.8193 46.8041 43.8193C46.6707 43.8202 46.5385 43.7946 46.4151 43.744C46.2917 43.6934 46.1796 43.6187 46.0853 43.5243C45.9911 43.43 45.9165 43.3178 45.866 43.1944C45.8155 43.0709 45.79 42.9387 45.7911 42.8053C45.7911 39.1653 42.6411 36.1953 38.7611 36.1953C34.8811 36.1953 31.7291 39.1653 31.7291 42.8053C31.7291 45.0153 32.219 47.0473 33.149 48.6953C34.033 50.2833 34.6001 51.0033 35.9991 52.4203C36.1843 52.6151 36.2865 52.8742 36.284 53.1429C36.2816 53.4117 36.1748 53.669 35.9861 53.8603C35.7761 54.0523 35.5181 54.1553 35.253 54.1553ZM24.9231 35.1553C24.8131 35.079 24.7193 34.9815 24.6474 34.8686C24.5754 34.7556 24.5266 34.6295 24.5038 34.4976C24.481 34.3656 24.4846 34.2305 24.5146 34.1C24.5445 33.9694 24.6001 33.8462 24.6781 33.7373C26.2451 31.5223 28.2381 29.7833 30.6081 28.5673C35.5781 26.0033 41.9251 25.9943 46.8961 28.5503C49.2582 29.7588 51.2922 31.5218 52.8241 33.6883C52.9023 33.7972 52.9581 33.9206 52.9883 34.0512C53.0185 34.1819 53.0224 34.3172 52.9999 34.4494C52.9774 34.5816 52.9289 34.708 52.8572 34.8212C52.7854 34.9345 52.6919 35.0324 52.5821 35.1093C52.4734 35.1869 52.3505 35.2423 52.2203 35.2721C52.0902 35.3019 51.9554 35.3056 51.8239 35.283C51.6923 35.2604 51.5665 35.212 51.4537 35.1404C51.341 35.0689 51.2436 34.9757 51.1671 34.8663C49.7841 32.9293 48.034 31.4123 45.9671 30.3543C41.5531 28.0953 35.9121 28.0993 31.5241 30.3703C29.4517 31.4392 27.6666 32.9904 26.3191 34.8933C26.1561 35.1793 25.8491 35.3383 25.5091 35.3383C25.3031 35.3383 25.1031 35.2763 24.9231 35.1553ZM47.8181 27.1533C47.655 27.154 47.4945 27.1126 47.3521 27.0333C44.3921 25.5073 41.8421 24.8613 38.7751 24.8613C35.7151 24.8613 32.8251 25.5913 30.2031 27.0313C29.9658 27.1561 29.6893 27.1835 29.4322 27.1077C29.175 27.0319 28.9576 26.8589 28.8261 26.6253C28.6994 26.3884 28.671 26.1113 28.747 25.8536C28.8229 25.596 28.9972 25.3786 29.2321 25.2483C32.1595 23.6542 35.4417 22.8243 38.7751 22.8353C42.1321 22.8353 45.0681 23.5753 48.2851 25.2313C48.4032 25.2912 48.5082 25.374 48.5939 25.475C48.6796 25.576 48.7442 25.693 48.7841 25.8193C48.824 25.9456 48.8382 26.0786 48.826 26.2105C48.8138 26.3424 48.7754 26.4705 48.7131 26.5873C48.6321 26.7562 48.5052 26.8989 48.3469 26.999C48.1886 27.0991 48.0053 27.1526 47.8181 27.1533Z" fill="#002F6C"/>
<path fill-rule="evenodd" clip-rule="evenodd" d="M38.768 68.0733C22.354 68.0733 9.00002 54.7193 9.00002 38.3063C9.00002 21.8933 22.354 8.53825 38.768 8.53825C55.181 8.53825 68.536 21.8913 68.536 38.3053C68.536 54.7193 55.18 68.0733 38.768 68.0733ZM65.937 20.9313C60.197 11.9833 50.166 6.03625 38.767 6.03625C20.977 6.03625 6.50002 20.5113 6.50002 38.3043C6.49325 45.1703 8.68955 51.8573 12.766 57.3823C18.506 66.3363 28.539 72.2863 39.943 72.2863C57.735 72.2863 72.209 57.8113 72.209 40.0193C72.2151 33.1493 70.0167 26.4587 65.937 20.9313Z" fill="#002F6C"/>
</svg>
