<svg width="79" height="79" viewBox="0 0 79 79" fill="none" xmlns="http://www.w3.org/2000/svg">
<path fill-rule="evenodd" clip-rule="evenodd" d="M56.972 68.4686H53.412H16.588C14.61 68.4686 13 66.8596 13 64.8806V9.61464H56.972V63.3536C57.125 66.4896 58.154 67.7736 59.951 68.4686H56.972ZM59.472 56.5146V7.03564H10.5V64.8026C10.5 68.1596 13.232 70.8906 16.588 70.8906H59.472V70.8806H63.617C65.962 70.8806 67.865 68.9786 67.865 66.6326V56.5146H59.472Z" fill="#002F6C"/>
<path fill-rule="evenodd" clip-rule="evenodd" d="M19.155 18.9082H50.817V15.9072H19.155V18.9082Z" fill="#002F6C"/>
<path fill-rule="evenodd" clip-rule="evenodd" d="M19.155 27.2052H50.817V24.2052H19.155V27.2052Z" fill="#002F6C"/>
<path fill-rule="evenodd" clip-rule="evenodd" d="M19.155 35.5033H50.817V32.5033H19.155V35.5033Z" fill="#002F6C"/>
<path fill-rule="evenodd" clip-rule="evenodd" d="M19.1541 43.8003H40.3301V40.8003H19.1541V43.8003Z" fill="#002F6C"/>
</svg>
