<svg width="79" height="79" viewBox="0 0 79 79" fill="none" xmlns="http://www.w3.org/2000/svg">
<path fill-rule="evenodd" clip-rule="evenodd" d="M65.789 34.4777C65.789 34.9937 65.441 35.4297 65.029 35.4297H62.521V35.4337H13.285V35.4297H10.76C10.348 35.4297 10 34.9937 10 34.4777V22.3697C10 21.8537 10.348 21.4177 10.76 21.4177H65.029C65.441 21.4177 65.789 21.8537 65.789 22.3697V34.4777ZM58.818 66.9007H16.988C14.946 66.9007 13.285 65.2387 13.285 63.1967V37.9337H62.521V63.1967C62.521 65.2387 60.86 66.9007 58.818 66.9007ZM71.636 23.5177C69.858 20.6477 66.502 19.2857 66.384 19.2387C65.97 19.0377 65.514 18.9177 65.029 18.9177H10.76C8.962 18.9177 7.5 20.4657 7.5 22.3697V34.4777C7.5 36.3807 8.962 37.9297 10.76 37.9297H10.785V63.1967C10.785 64.1467 11.006 65.0447 11.39 65.8507L11.373 65.8477C13.731 71.0397 19.475 72.4577 19.475 72.4577L19.467 72.4497C20.02 72.6117 20.604 72.7027 21.209 72.7027H63.039C66.46 72.7027 69.242 69.9197 69.242 66.4997V41.2177C70.977 41.1417 72.369 39.6347 72.369 37.7807V25.6717C72.369 24.8527 72.087 24.1097 71.636 23.5177Z" fill="#002F6C"/>
<path fill-rule="evenodd" clip-rule="evenodd" d="M52.5858 13.0841C52.2118 14.2541 51.0718 15.6561 48.9988 16.0771L42.1658 17.4661L44.6568 11.7831C45.2568 10.4161 46.6428 9.3941 48.2738 9.1171C48.5618 9.0681 48.8448 9.0431 49.1208 9.0431C50.2588 9.0431 51.2878 9.4471 51.9758 10.1861C52.9718 11.2561 52.7858 12.4601 52.5858 13.0841ZM26.9238 16.0771C24.8508 15.6571 23.7118 14.2551 23.3368 13.0841C23.1378 12.4611 22.9518 11.2561 23.9478 10.1861C24.6338 9.4471 25.6638 9.0431 26.8018 9.0431C27.0788 9.0431 27.3618 9.0681 27.6488 9.1171C29.2808 9.3941 30.6668 10.4161 31.2658 11.7831L33.7568 17.4661L26.9238 16.0771ZM54.9008 7.4541C53.1278 5.5451 50.4048 4.6901 47.6058 5.1651C44.6178 5.6721 42.1468 7.5441 40.9948 10.1701L37.9608 17.0901L34.9278 10.1701C33.7768 7.5441 31.3058 5.6721 28.3168 5.1651C25.5228 4.6901 22.7948 5.5451 21.0208 7.4541C19.3038 9.3001 18.7458 11.8631 19.5278 14.3081C20.4478 17.1821 22.9778 19.3651 26.1288 20.0051L35.6758 21.9451V66.9001H40.1308V21.9691L49.7938 20.0051C52.9458 19.3651 55.4758 17.1821 56.3958 14.3071C57.1778 11.8631 56.6188 9.3001 54.9008 7.4541Z" fill="#002F6C"/>
</svg>
