<svg width="79" height="79" viewBox="0 0 79 79" fill="none" xmlns="http://www.w3.org/2000/svg">
<path fill-rule="evenodd" clip-rule="evenodd" d="M39.218 5.93628C50.616 5.93628 60.647 11.8833 66.388 20.8313C70.4667 26.3591 72.6647 33.0495 72.659 39.9193C72.659 57.7113 58.185 72.1863 40.393 72.1863C28.989 72.1863 18.956 66.2363 13.216 57.2833C9.14012 51.7577 6.9439 45.0705 6.94996 38.2043C6.94996 20.4113 21.426 5.93628 39.218 5.93628ZM39.218 8.43828C38.0668 8.43802 36.9165 8.50413 35.773 8.63628C37.031 11.0313 36.331 12.0063 33.676 11.5623C29.297 10.8293 35.106 16.8053 28.794 17.0423C22.482 17.2803 24.918 26.2023 21.291 26.2023C18.948 26.2023 16.899 24.3743 15.143 20.7173C11.4368 25.7944 9.44293 31.9194 9.44996 38.2053C9.44996 50.4203 16.847 60.9413 27.396 65.5253C28.228 65.5083 29.051 65.5753 29.251 65.6953C30.087 66.2013 29.331 62.6723 30.731 62.6723C32.129 62.6723 39.351 60.5323 41.399 61.6023C43.447 62.6723 47.644 65.1293 45.956 65.4123C44.45 65.6653 43.357 66.0293 45.593 67.2853C58.953 64.3593 68.986 52.4313 68.986 38.2053C68.986 21.7913 55.631 8.43828 39.218 8.43828Z" fill="#002F6C"/>
<path fill-rule="evenodd" clip-rule="evenodd" d="M48.913 58.1363C47.87 58.8343 45.738 58.1233 44.655 56.3453C43.573 54.5663 43.868 53.5783 43.2771 53.1833C42.687 52.7883 42.884 52.7883 42.293 53.1833C41.703 53.5783 41.309 53.4793 40.423 52.5903C39.5371 51.7013 38.848 51.3063 37.667 51.3063C36.487 51.3063 36.0931 51.0093 34.5181 51.8003C32.9431 52.5903 32.353 53.8753 31.368 53.8753C30.384 53.8753 29.203 53.7753 28.514 54.2703C27.825 54.7643 28.318 55.0603 27.334 55.0603C26.349 55.0603 25.464 53.7763 25.66 52.3933C25.857 51.0093 24.38 49.1333 23.692 48.2433C23.002 47.3533 21.822 44.3903 23.889 42.7103C25.955 41.0303 28.711 40.7343 29.203 39.8453C29.695 38.9553 29.695 40.0853 29.893 38.3633C30.089 36.6403 31.3691 37.4733 31.861 36.4853C32.353 35.4973 33.4351 33.9163 34.1241 34.3123C34.814 34.7073 35.3051 35.3983 35.6991 35.2013C36.0931 35.0033 36.0931 34.8063 36.3881 34.3113C36.6831 33.8183 37.471 32.7313 38.947 32.5333C40.351 32.3453 41.309 32.3363 42.3391 32.7873C43.3691 33.2383 42.785 33.5213 42.0961 34.5093C41.4071 35.4973 42.293 36.0903 42.982 36.2883C43.672 36.4853 45.3441 38.4613 46.0331 38.0663C46.7231 37.6713 47.509 36.4863 47.509 35.5963C47.509 34.7063 47.903 32.4343 47.903 32.1383C47.903 31.8423 48.3951 31.0513 49.084 33.6203C49.774 36.1893 50.3081 35.3043 50.757 36.2883C51.2071 37.2723 51.2491 37.2763 51.2491 38.3633C51.2491 39.4493 53.4151 42.2163 53.9071 42.7103C54.3991 43.2043 57.3521 47.2553 56.3671 49.4293C55.383 51.6023 53.907 53.5793 52.923 55.5543C51.938 57.5303 49.956 57.4383 48.913 58.1363ZM49.312 60.3913C49.799 60.1593 50.192 60.5543 49.996 60.9283C49.799 61.3023 49.462 61.9623 49.312 61.9623C49.1621 61.9623 48.9831 62.0923 48.9831 62.3823C48.9831 62.6723 48.567 62.6743 48.396 62.5283C48.225 62.3823 47.825 61.3683 47.919 61.0543C47.967 60.8943 47.542 60.4693 47.791 60.1963C48.041 59.9223 48.8241 60.6233 49.3111 60.3913H49.312Z" fill="#002F6C"/>
<path fill-rule="evenodd" clip-rule="evenodd" d="M31.7021 21.8762C30.0601 20.7782 25.4601 24.3392 25.4601 26.1462C25.4601 27.9532 27.7911 29.5462 28.7861 28.7752C29.7801 28.0052 33.3461 22.9722 31.7021 21.8752V21.8762ZM30.0181 33.3742C30.8201 32.8192 24.4361 31.5142 22.0481 28.9472C20.1901 26.9492 20.1621 26.9372 19.1201 27.6592C18.1601 28.3232 22.2481 35.2692 30.0181 33.3742ZM53.1461 24.4072C56.2261 24.4072 55.3131 28.6372 54.9901 28.9862C54.6671 29.3362 49.8131 29.6432 48.6641 28.9862C47.5141 28.3292 47.0141 26.2142 45.6861 26.2142C44.3571 26.2142 39.5281 23.8552 38.4791 22.1072C37.4291 20.3592 50.0671 24.4072 53.1461 24.4072ZM63.0651 49.7522C63.0551 50.6402 62.8931 52.6282 61.7561 52.9402C60.9621 53.1572 61.9011 54.6602 62.3051 54.2362C63.0491 53.4552 64.1471 53.1562 63.7101 51.0792C63.2721 49.0022 63.0691 49.3212 63.0651 49.7522ZM60.5101 53.8662C60.2131 54.1702 59.7361 54.7682 59.4301 54.8932C58.8601 55.1262 57.8901 55.5722 57.4261 55.5722C56.9621 55.5722 56.4171 56.1152 56.1101 56.4802C55.8031 56.8462 56.2041 57.3802 56.5831 57.3802C56.9631 57.3802 58.2151 57.2562 58.3151 56.6932C58.4151 56.1302 59.1651 55.7992 59.4311 55.7992C59.6971 55.7992 60.5811 54.8232 60.9221 54.6142C61.2641 54.4042 60.5811 53.7912 60.5091 53.8652L60.5101 53.8662ZM32.9801 25.5212C33.3231 24.4422 34.4601 26.4362 35.0961 27.2222C35.7321 28.0092 35.0961 28.0092 33.6121 28.0092C32.7281 28.0092 32.3441 27.8812 32.1521 27.8312C31.6421 27.6992 32.6361 26.5992 32.9801 25.5212Z" fill="#002F6C"/>
</svg>
