<svg width="79" height="79" viewBox="0 0 79 79" fill="none" xmlns="http://www.w3.org/2000/svg">
<path fill-rule="evenodd" clip-rule="evenodd" d="M39.2179 5.93628C50.6159 5.93628 60.6469 11.8833 66.388 20.8313C70.325 26.1813 72.659 32.7823 72.659 39.9193C72.659 57.7113 58.185 72.1863 40.393 72.1863C28.989 72.1863 18.956 66.2363 13.216 57.2833C9.28095 51.9343 6.94995 45.3373 6.94995 38.2043C6.94995 20.4113 21.4259 5.93628 39.2179 5.93628ZM17.0614 58.0301C21.1925 62.6333 26.7335 65.9466 32.9974 67.2829C30.4808 65.2433 28.2849 62.0417 26.5941 58.0303L17.0614 58.0301ZM38.8235 58.0484L29.4756 58.0485C31.9175 63.4074 35.2828 66.8466 38.8231 67.2293L38.8235 58.0484ZM61.3707 58.0301L52.2469 58.0303L52.0374 58.5175C50.4115 62.2211 48.347 65.1983 45.9964 67.1573L46.3607 67.0699C52.2445 65.6149 57.4444 62.4051 61.3707 58.0301ZM49.4886 58.0485L41.4565 58.0484L41.4577 66.9452C44.5075 65.9578 47.3516 62.7383 49.4886 58.0485ZM38.8235 40.6034L25.6972 40.6036C25.902 46.146 26.8939 51.218 28.4071 55.4159L38.8235 55.4154V40.6034ZM53.267 40.6036L41.4565 40.6034V55.4154L50.5571 55.4159C52.0703 51.218 53.0622 46.146 53.267 40.6036ZM68.887 40.5844H55.8364L55.8028 41.3583C55.5457 46.5 54.6402 51.2804 53.2442 55.3975L63.4788 55.3971C66.5048 51.1482 68.4439 46.0742 68.887 40.5844ZM23.0047 40.5844H9.54515C9.98817 46.0742 11.9273 51.1482 14.9533 55.3971L25.5969 55.3975L25.3912 54.775C24.0446 50.5923 23.1965 45.7615 23.0047 40.5844ZM27.7541 23.4865C26.4781 27.7009 25.7051 32.6429 25.6599 37.9705H38.8235V23.4874L27.7541 23.4865ZM51.2101 23.4865L41.4565 23.4874V37.9705H53.3043C53.2592 32.6429 52.4861 27.7009 51.2101 23.4865ZM65.0948 23.469H53.9253L54.1131 24.1563C55.2138 28.3096 55.846 32.9928 55.8768 37.9522L68.9833 37.9515C68.9455 32.6903 67.5358 27.7493 65.0948 23.469ZM24.9158 23.469H13.3373C10.9388 27.6748 9.53599 32.5185 9.45205 37.677L9.44995 37.9513L22.964 37.9518L22.9777 36.9976C23.0845 32.1183 23.7736 27.5265 24.9158 23.469ZM38.8231 9.69952C34.8656 10.1272 31.1267 14.3745 28.6519 20.8532L38.8235 20.8544L38.8231 9.69952ZM41.4577 9.98363L41.4565 20.8544L50.3123 20.8532C48.1139 15.0982 44.9182 11.104 41.4577 9.98363ZM33.5803 8.93628L32.9661 9.06159C25.6203 10.6373 19.2712 14.9316 15.0279 20.836H25.7464L25.9258 20.3359C27.8054 15.204 30.467 11.1939 33.5803 8.93628ZM45.417 9.05134C48.5631 11.4035 51.2376 15.5518 53.0947 20.836H63.4042C59.1516 14.9186 52.7839 10.6184 45.417 9.05134Z" fill="#002F6C"/>
<path d="M52.252 26.1142C54.4335 26.1142 56.202 24.3458 56.202 22.1642C56.202 19.9827 54.4335 18.2142 52.252 18.2142C50.0705 18.2142 48.302 19.9827 48.302 22.1642C48.302 24.3458 50.0705 26.1142 52.252 26.1142Z" fill="#002F6C"/>
<path d="M51.252 60.6753C53.4335 60.6753 55.202 58.9068 55.202 56.7253C55.202 54.5437 53.4335 52.7753 51.252 52.7753C49.0705 52.7753 47.302 54.5437 47.302 56.7253C47.302 58.9068 49.0705 60.6753 51.252 60.6753Z" fill="#002F6C"/>
<path d="M23.9449 42.9012C26.1264 42.9012 27.8949 41.1327 27.8949 38.9512C27.8949 36.7697 26.1264 35.0012 23.9449 35.0012C21.7633 35.0012 19.9949 36.7697 19.9949 38.9512C19.9949 41.1327 21.7633 42.9012 23.9449 42.9012Z" fill="#002F6C"/>
</svg>
