<svg width="79" height="79" viewBox="0 0 79 79" fill="none" xmlns="http://www.w3.org/2000/svg">
<path fill-rule="evenodd" clip-rule="evenodd" d="M8.5 7.49225L27.112 26.0203C27.4804 26.387 27.9765 26.5966 28.4962 26.6052C29.0159 26.6138 29.5187 26.4206 29.899 26.0663L40.685 16.0093C40.8431 15.8624 41.0517 15.782 41.2675 15.7848C41.4833 15.7876 41.6897 15.8734 41.844 16.0243L63.768 37.4683H50.943L50.898 41.1593H68.25C69.205 41.1593 69.978 40.3863 69.978 39.4323V22.2603H66.338L66.376 35.1723L42.511 11.8293C42.1924 11.5171 41.7658 11.3399 41.3198 11.3345C40.8739 11.3291 40.443 11.4959 40.117 11.8003L28.996 22.1683C28.8794 22.2772 28.725 22.3365 28.5655 22.3337C28.4059 22.3309 28.2537 22.2662 28.141 22.1533L10.946 5.03625L8.5 7.49225Z" fill="#002F6C"/>
<path fill-rule="evenodd" clip-rule="evenodd" d="M52.1139 69.0213H63.1689V58.8963H52.1139V69.0203V69.0213ZM38.5599 69.0213H49.6149V51.0463H38.5599V69.0213ZM25.0049 69.0213H36.0599V42.6393H25.0049V69.0213ZM11.4509 69.0213H22.5049V34.7903H11.4509V69.0203V69.0213ZM63.9709 56.3973H52.1149V50.2453C52.1149 49.7946 51.936 49.3623 51.6174 49.0436C51.2988 48.7248 50.8666 48.5455 50.4159 48.5453H38.5599V41.8373C38.5594 41.3871 38.3803 40.9555 38.062 40.6372C37.7437 40.3189 37.3121 40.1398 36.8619 40.1393H25.0049V33.9883C25.0044 33.5383 24.8255 33.1068 24.5074 32.7886C24.1893 32.4703 23.7579 32.2911 23.3079 32.2903H10.6489C10.1988 32.2908 9.76717 32.4699 9.44884 32.7882C9.13052 33.1065 8.95146 33.5381 8.95093 33.9883V71.5213C8.95293 71.6843 9.10193 71.7823 9.30893 71.9093C10.3889 72.5723 13.7909 73.2923 14.4489 73.2923H69.9319V61.7243C69.9319 59.8963 66.8149 56.8693 64.6869 56.4663C64.4507 56.4227 64.2111 56.3993 63.9709 56.3963V56.3973Z" fill="#002F6C"/>
</svg>
