<svg width="79" height="79" viewBox="0 0 79 79" fill="none" xmlns="http://www.w3.org/2000/svg">
<path fill-rule="evenodd" clip-rule="evenodd" d="M25.355 57.2003V40.3643H28.581V49.2993L32.36 45.0043H36.334L32.166 49.4603L36.633 57.2003H33.153L30.085 51.7223L28.581 53.2963V57.2003H25.355Z" fill="#002F6C"/>
<path fill-rule="evenodd" clip-rule="evenodd" d="M41.0748 50.8493C41.0748 52.1433 41.3248 53.0903 41.8268 53.6923C42.3268 54.2923 42.9468 54.5933 43.6818 54.5933C44.4708 54.5933 45.1368 54.2853 45.6798 53.6683C46.2238 53.0533 46.4958 52.1393 46.4958 50.9303C46.4958 49.6663 46.2358 48.7293 45.7148 48.1173C45.1938 47.5033 44.5348 47.1973 43.7398 47.1973C42.9658 47.1973 42.3278 47.4973 41.8268 48.0993C41.3258 48.7003 41.0748 49.6173 41.0748 50.8493ZM38.1918 58.0043L41.8788 58.4523C41.9388 58.8803 42.0818 59.1763 42.3038 59.3373C42.6098 59.5673 43.0918 59.6813 43.7508 59.6813C44.5928 59.6813 45.2248 59.5543 45.6458 59.3023C45.9288 59.1333 46.1438 58.8623 46.2888 58.4863C46.3878 58.2193 46.4378 57.7243 46.4378 57.0063V55.2243C45.4728 56.5433 44.2558 57.2003 42.7858 57.2003C41.1478 57.2003 39.8498 56.5073 38.8928 55.1223C38.1418 54.0283 37.7668 52.6633 37.7668 51.0343C37.7668 48.9893 38.2598 47.4283 39.2428 46.3483C40.2268 45.2683 41.4498 44.7283 42.9118 44.7283C44.4208 44.7283 45.6648 45.3913 46.6448 46.7143V45.0043H49.6648V55.9483C49.6648 57.3883 49.5468 58.4643 49.3088 59.1753C49.0718 59.8873 48.7388 60.4473 48.3088 60.8523C47.8808 61.2573 47.3088 61.5763 46.5928 61.8053C45.8768 62.0353 44.9718 62.1513 43.8768 62.1513C41.8098 62.1513 40.3438 61.7963 39.4788 61.0873C38.6128 60.3793 38.1808 59.4823 38.1808 58.3943C38.1808 58.2883 38.1848 58.1583 38.1908 58.0043" fill="#002F6C"/>
<path fill-rule="evenodd" clip-rule="evenodd" d="M47.2118 18.3302L44.9228 26.7202C41.9634 25.7772 38.8531 25.3983 35.7538 25.6032C35.2532 25.6355 34.7536 25.6828 34.2558 25.7452L32.2328 18.3302C32.0458 17.6442 32.1568 16.9442 32.5298 16.4582C32.6628 16.2832 32.7648 16.2292 32.7808 16.2252H46.6608C46.6808 16.2312 46.7818 16.2832 46.9158 16.4582C47.2878 16.9462 47.3988 17.6462 47.2118 18.3302ZM46.6638 13.7262H28.0538C27.2088 13.7262 26.4138 14.1562 25.8158 14.9392C24.9728 16.0422 24.7038 17.5562 25.0938 18.9872L28.0988 30.0012L29.3858 29.5132C31.4775 28.717 33.6772 28.2406 35.9108 28.1002C39.1157 27.8862 42.3291 28.3671 45.3308 29.5102L46.6198 30.0012L49.6238 18.9892C50.0148 17.5562 49.7448 16.0422 48.9018 14.9412C48.3038 14.1572 47.5088 13.7262 46.6638 13.7262Z" fill="#002F6C"/>
<path fill-rule="evenodd" clip-rule="evenodd" d="M46.5689 69.8833H28.1369C27.1744 69.8815 26.2221 69.6855 25.337 69.3072C24.452 68.9288 23.6523 68.3758 22.9859 67.6813C18.7709 63.2713 14.6799 55.5103 15.0129 49.2083C15.1796 46.1693 15.9628 43.196 17.3149 40.4692C18.667 37.7425 20.5597 35.3194 22.8779 33.3473L23.4849 32.8323L20.0809 20.3543C19.2689 17.3713 19.8679 14.1703 21.6859 11.7893C23.2659 9.72226 25.5839 8.53625 28.0479 8.53625H46.6579C49.1219 8.53625 51.4399 9.72226 53.0199 11.7893C54.8379 14.1693 55.4379 17.3713 54.6249 20.3543L51.2179 32.8463L51.8209 33.3603C54.2935 35.4644 56.2805 38.0796 57.6451 41.0256C59.0096 43.9717 59.7192 47.1786 59.7249 50.4253C59.7249 56.2343 55.7129 63.4873 51.7499 67.6493C51.0815 68.3516 50.2779 68.9115 49.3876 69.2954C48.4973 69.6794 47.5385 69.8793 46.5689 69.8833ZM58.7769 31.9853L61.7709 21.0113C62.7869 17.2813 62.0279 13.2673 59.7399 10.2713C57.6849 7.58125 54.6419 6.03625 51.3919 6.03625H28.0539C24.8039 6.03625 21.7619 7.58026 19.7059 10.2723C17.4179 13.2683 16.6589 17.2823 17.6759 21.0113L20.6649 31.9693C15.8075 36.3795 12.8824 42.5253 12.5229 49.0763C12.1349 56.4133 16.7409 64.7593 21.1859 69.4093C22.0862 70.3473 23.1664 71.0941 24.3619 71.6051C25.5575 72.1161 26.8438 72.3808 28.1439 72.3833H51.3029C52.6111 72.3786 53.9048 72.1096 55.1063 71.5923C56.3079 71.0751 57.3925 70.3203 58.2949 69.3733C62.6009 64.8513 66.9589 56.8903 66.9589 50.4253C66.9531 46.9515 66.2224 43.5172 64.8135 40.342C63.4046 37.1668 61.3486 34.3205 58.7769 31.9853Z" fill="#002F6C"/>
</svg>
