<svg width="79" height="79" viewBox="0 0 79 79" fill="none" xmlns="http://www.w3.org/2000/svg">
<path fill-rule="evenodd" clip-rule="evenodd" d="M64.279 53.1812C64.279 57.0012 61.119 60.1132 57.229 60.1272C56.1644 60.1191 55.1462 59.6905 54.3962 58.9349C53.6462 58.1793 53.2252 57.1579 53.225 56.0932V44.7792C53.225 42.5522 55.03 40.7412 57.249 40.7412H61.282V33.9552C61.282 21.1222 50.694 10.6832 37.68 10.6832C24.666 10.6832 14.077 21.1232 14.077 33.9552V40.7412H19.143C20.2118 40.7442 21.2357 41.171 21.9901 41.928C22.7445 42.685 23.1678 43.7105 23.167 44.7792V56.0932C23.167 57.1614 22.7434 58.1859 21.989 58.9422C21.2346 59.6984 20.2111 60.1246 19.143 60.1272H18.157C14.256 60.1272 11.082 57.0112 11.082 53.1812V33.9552C11.082 19.5212 23.014 7.77924 37.68 7.77924C52.347 7.77924 64.279 19.5212 64.279 33.9552V53.1812ZM37.173 5.20224C21.317 5.47224 8.5 18.2622 8.5 33.9562V53.1822C8.5 58.1642 12.391 62.2602 17.33 62.6762C19.059 62.8082 21.533 63.0202 23.864 62.6182C25.4046 62.3558 26.8027 61.557 27.8111 60.363C28.8195 59.1691 29.3731 57.657 29.374 56.0942V44.7792C29.374 41.1242 26.409 38.1512 22.767 38.1512H20.283V33.9562C20.283 23.1532 28.749 14.2732 39.492 13.3642C50.236 14.2732 58.7 23.1542 58.7 33.9562V38.1522H57.25C53.607 38.1522 50.643 41.1252 50.643 44.7802V56.0942C50.6445 57.6594 51.2001 59.1735 52.2115 60.3681C53.2228 61.5627 54.6245 62.3606 56.168 62.6202C58.306 62.9472 59.908 62.8992 61.701 62.6732L61.707 62.6722C66.621 62.2312 70.485 58.1462 70.485 53.1822V33.9552C70.485 18.1392 57.469 5.26724 41.443 5.19324L37.173 5.20324V5.20224Z" fill="#002F6C"/>
<path fill-rule="evenodd" clip-rule="evenodd" d="M56.168 62.6162C56.9204 62.7341 57.679 62.8082 58.44 62.8382C57.819 67.3042 54.151 70.7712 49.682 70.9052L49.412 70.9092H45.128C44.651 72.0952 43.549 72.9492 42.248 73.0272L42.051 73.0332H35.834C33.996 73.0332 32.5 71.4912 32.5 69.5982C32.5 67.7642 33.898 66.2612 35.652 66.1632L35.834 66.1582H42.051C43.371 66.1582 44.513 66.9552 45.052 68.1082L45.128 68.2842H49.413C52.688 68.2842 55.407 65.8022 55.905 62.5652C55.992 62.5852 56.08 62.6012 56.168 62.6152V62.6162Z" fill="#002F6C"/>
</svg>
