<svg width="79" height="79" viewBox="0 0 79 79" fill="none" xmlns="http://www.w3.org/2000/svg">
<path fill-rule="evenodd" clip-rule="evenodd" d="M38.768 68.0733C22.354 68.0733 9 54.7193 9 38.3053C9 21.8913 22.354 8.53825 38.768 8.53825C55.181 8.53825 68.535 21.8913 68.535 38.3053C68.535 54.7193 55.181 68.0733 38.768 68.0733ZM65.937 20.9313C60.196 11.9833 50.166 6.03625 38.768 6.03625C20.976 6.03625 6.5 20.5113 6.5 38.3043C6.5 45.4373 8.831 52.0343 12.766 57.3823C18.506 66.3363 28.539 72.2863 39.942 72.2863C57.734 72.2863 72.209 57.8113 72.209 40.0193C72.2151 33.1493 70.0167 26.4587 65.937 20.9313Z" fill="#002F6C"/>
<path fill-rule="evenodd" clip-rule="evenodd" d="M47.048 24.0363C43.744 24.0363 39.565 25.7893 38.5 32.6263C37.435 25.7893 33.256 24.0363 29.95 24.0363C24.099 24.0363 19.5 28.5203 19.5 34.2273C19.5 41.2313 25.96 46.9373 35.746 55.5913L38.497 58.0313V58.0363L38.5 58.0333L38.503 58.0363V58.0323L41.253 55.5913C51.039 46.9363 57.5 41.2313 57.5 34.2263C57.5 28.5203 52.902 24.0363 47.048 24.0363Z" fill="#002F6C"/>
</svg>
