<svg width="79" height="79" viewBox="0 0 79 79" fill="none" xmlns="http://www.w3.org/2000/svg">
<path fill-rule="evenodd" clip-rule="evenodd" d="M27.3429 67.9993L42.0629 74.0213V51.6903L27.3289 45.6383L27.3429 67.9993Z" fill="#002F6C"/>
<path fill-rule="evenodd" clip-rule="evenodd" d="M57.9765 36.5933V63.2093C57.9765 64.4793 56.9465 65.5093 55.6765 65.5093L47.7975 65.5103V43.1393H24.8535V65.5193L14.6715 65.5213V36.5933H7.90751L36.3245 10.4333L64.7445 36.5933H57.9765ZM41.6835 7.03625H36.3245L1.49951 39.0933H12.1715V68.0223L17.5305 68.0213V68.0223L23.0285 68.0193L27.3535 68.0183V45.6393H45.2975V68.0113L51.6565 68.0103V68.0113L59.3445 68.0103C62.9295 68.0093 65.8355 65.1023 65.8355 61.5163V39.0933H71.1515H76.5105L41.6835 7.03625Z" fill="#002F6C"/>
</svg>
