<svg width="79" height="79" viewBox="0 0 79 79" fill="none" xmlns="http://www.w3.org/2000/svg">
<path fill-rule="evenodd" clip-rule="evenodd" d="M37.813 11.1862H40.313V2.03723H37.813V11.1862Z" fill="#002F6C"/>
<path fill-rule="evenodd" clip-rule="evenodd" d="M62.4761 33.9092H71.6261V31.4092H62.4761V33.9092Z" fill="#002F6C"/>
<path fill-rule="evenodd" clip-rule="evenodd" d="M6.5 33.9092H15.65V31.4092H6.5V33.9092Z" fill="#002F6C"/>
<path fill-rule="evenodd" clip-rule="evenodd" d="M57.97 48.2453L64.44 54.7153L66.207 52.9473L59.738 46.4773L57.97 48.2453Z" fill="#002F6C"/>
<path fill-rule="evenodd" clip-rule="evenodd" d="M15.1541 12.4572L21.6241 18.9282L23.3911 17.1612L16.9221 10.6892L15.1541 12.4572Z" fill="#002F6C"/>
<path fill-rule="evenodd" clip-rule="evenodd" d="M13.718 52.9473L15.486 54.7153L21.955 48.2453L20.188 46.4773L13.718 52.9473Z" fill="#002F6C"/>
<path fill-rule="evenodd" clip-rule="evenodd" d="M61.2051 10.6902L54.7351 17.1602L56.5031 18.9282L62.9731 12.4582L61.2051 10.6902Z" fill="#002F6C"/>
<path fill-rule="evenodd" clip-rule="evenodd" d="M48.975 43.0192C46.129 47.2892 45.635 51.9292 45.627 54.6112H30.927C30.919 51.9302 30.424 47.2892 27.578 43.0192C23.826 37.3922 23.75 32.6532 23.75 32.6092C23.75 24.5822 30.26 18.0452 38.277 17.9992C46.294 18.0452 52.803 24.5812 52.803 32.6052C52.803 32.6522 52.728 37.3912 48.975 43.0192ZM38.466 71.5192C36.823 71.5192 35.412 70.2702 34.754 68.4842H42.178C41.521 70.2712 40.11 71.5192 38.466 71.5192ZM30.816 59.9612V58.8102C30.816 58.1702 30.824 57.6192 30.838 57.1102H45.714C45.734 57.7382 45.738 58.3312 45.739 58.8242V59.9622H30.816V59.9612ZM45.74 62.4612L45.741 65.0082H30.816V62.4622H45.74V62.4612ZM45.121 16.9722C42.9208 15.991 40.537 15.4892 38.128 15.5002C28.8 15.6252 21.25 23.2522 21.25 32.6102C21.25 32.8312 21.298 38.1082 25.497 44.4072C28.473 48.8702 28.515 53.8492 28.397 55.7822C28.34 56.6602 28.317 57.5952 28.317 58.8112V66.2582C28.317 66.9482 28.875 67.5082 29.567 67.5082H31.955C32.09 68.4512 32.363 69.3382 32.759 70.1362C34.279 74.0262 38.884 76.0292 41.807 76.0292C45.055 76.0292 47.742 73.1652 48.161 69.4692L50.332 69.5392C50.614 69.5392 50.882 69.4292 51.079 69.2292C51.1774 69.1315 51.2554 69.0152 51.3086 68.8872C51.3618 68.7591 51.3891 68.6218 51.389 68.4832L51.384 61.0472C51.384 59.8582 51.359 58.8972 51.305 58.0202C51.185 56.0672 51.228 51.0342 54.235 46.5252C58.401 40.2732 58.45 35.0552 58.45 34.8352C58.45 27.5042 52.275 19.8822 45.121 16.9722Z" fill="#002F6C"/>
</svg>
