<svg width="79" height="79" viewBox="0 0 79 79" fill="none" xmlns="http://www.w3.org/2000/svg">
<path fill-rule="evenodd" clip-rule="evenodd" d="M60.468 30.9142H35.908L38.283 24.3622C38.599 23.4932 39.424 22.9142 40.35 22.9142H64.907L62.532 29.4672C62.218 30.3352 61.393 30.9142 60.468 30.9142Z" fill="#002F6C"/>
<path fill-rule="evenodd" clip-rule="evenodd" d="M17.885 44.5913H50.885V41.5913H17.885V44.5913Z" fill="#002F6C"/>
<path fill-rule="evenodd" clip-rule="evenodd" d="M10.885 51.5803H46.885V48.5803H10.885V51.5803Z" fill="#002F6C"/>
<path fill-rule="evenodd" clip-rule="evenodd" d="M69.4308 56.422C69.4308 57.71 68.3828 58.757 67.0958 58.757H9.33476C8.04776 58.757 6.99976 57.71 6.99976 56.422V19.871C6.99976 18.584 8.04776 17.536 9.33476 17.536H67.0958C68.3828 17.536 69.4308 18.584 69.4308 19.871V56.422ZM73.8008 19.638C72.0547 17.073 69.2848 15.549 69.2848 15.549C69.2848 15.549 69.2767 15.569 69.2728 15.578C68.6158 15.243 67.8828 15.036 67.0958 15.036H9.33476C6.66876 15.036 4.49976 17.205 4.49976 19.871V56.422C4.49976 57.094 4.63976 57.734 4.88876 58.317C4.91776 58.509 5.03076 58.768 5.27276 59.127C7.01676 61.708 9.80776 63.243 9.80776 63.243C9.80776 63.243 9.81376 63.228 9.81576 63.224C10.5048 63.603 11.2848 63.839 12.1258 63.839H69.8857C72.5518 63.839 74.7208 61.67 74.7208 59.004V22.453C74.7208 21.401 74.3737 20.433 73.8008 19.638Z" fill="#002F6C"/>
</svg>
