<svg width="79" height="79" viewBox="0 0 79 79" fill="none" xmlns="http://www.w3.org/2000/svg">
<path fill-rule="evenodd" clip-rule="evenodd" d="M42.3563 62.8498C42.3563 65.1698 40.4753 67.0518 38.1553 67.0518C35.8353 67.0518 33.9543 65.1698 33.9543 62.8498C33.9543 60.5298 35.8353 58.6488 38.1553 58.6488C40.4753 58.6488 42.3563 60.5298 42.3563 62.8498Z" fill="#002F6C"/>
<path fill-rule="evenodd" clip-rule="evenodd" d="M57.705 67.7893C57.705 69.0773 56.657 70.1243 55.37 70.1243H21.257C19.97 70.1243 18.922 69.0773 18.922 67.7893V6.87225C18.922 5.58425 19.97 4.53625 21.257 4.53625H55.37C56.657 4.53625 57.705 5.58425 57.705 6.87225V67.7893ZM62.158 7.58225C62.165 7.58026 62.184 7.57225 62.184 7.57225C62.184 7.57225 60.738 4.73425 58.213 2.91025C58.201 2.90125 58.192 2.89725 58.181 2.88925C58.151 2.86825 58.12 2.85125 58.09 2.83125C57.879 2.68825 57.702 2.59325 57.558 2.54125C56.917 2.22826 56.208 2.03625 55.448 2.03625H21.335C18.669 2.03625 16.5 4.20525 16.5 6.87225V67.7893C16.5 68.6023 16.714 69.3603 17.071 70.0293C17.067 70.0312 17.052 70.0373 17.052 70.0373C17.052 70.0373 18.327 72.4903 20.556 74.2853C21.407 75.0633 22.527 75.5503 23.772 75.5503H57.886C60.552 75.5503 62.721 73.3813 62.721 70.7153V9.79825C62.721 8.99525 62.505 8.24925 62.158 7.58225Z" fill="#002F6C"/>
<path fill-rule="evenodd" clip-rule="evenodd" d="M24.8769 53.2924H51.9069V10.6124H24.8769V53.2924ZM52.5238 8.11243H24.1029C23.1079 8.11243 22.2979 8.92243 22.2979 9.91643V53.9884C22.2979 54.9824 23.1079 55.7924 24.1029 55.7924H52.5238C53.5189 55.7924 54.3288 54.9824 54.3288 53.9884V9.91643C54.3288 8.92243 53.5189 8.11243 52.5238 8.11243Z" fill="#002F6C"/>
</svg>
