<svg width="79" height="79" viewBox="0 0 79 79" fill="none" xmlns="http://www.w3.org/2000/svg">
<path fill-rule="evenodd" clip-rule="evenodd" d="M66.3798 20.8063C60.6388 11.8583 50.6088 5.91125 39.2108 5.91125C27.7288 5.91125 17.6348 11.9443 11.9138 21.0023L13.7208 22.8223C18.9398 14.1943 28.4118 8.41325 39.2108 8.41325C55.6238 8.41325 68.9778 21.7663 68.9778 38.1803C68.9778 54.5943 55.6238 67.9483 39.2108 67.9483C28.5958 67.9483 19.2658 62.3583 13.9938 53.9723L12.2038 55.7753C12.5308 56.2753 12.8558 56.7773 13.2088 57.2573C18.9488 66.2113 28.9818 72.1613 40.3848 72.1613C58.1768 72.1613 72.6518 57.6863 72.6518 39.8943C72.6518 32.7563 70.3178 26.1563 66.3798 20.8063Z" fill="#002F6C"/>
<path fill-rule="evenodd" clip-rule="evenodd" d="M6.48633 23.8824V53.9194C6.48633 54.1814 6.59133 54.4304 6.77333 54.6144C7.15533 55.0004 7.77333 55.0004 8.15433 54.6144L23.0603 39.5954C23.4423 39.2124 23.4423 38.5894 23.0603 38.2044L8.15433 23.1854C7.97033 23.0004 7.72433 22.8984 7.46533 22.8984C6.92433 22.8984 6.48633 23.3394 6.48633 23.8824Z" fill="#002F6C"/>
<path fill-rule="evenodd" clip-rule="evenodd" d="M43.3447 46.6642C42.8677 47.2262 42.2737 47.6142 41.5717 47.8412V40.7342C42.4247 41.0492 43.0727 41.4562 43.4877 41.9662C43.9907 42.5832 44.2417 43.3182 44.2417 44.1712C44.2417 45.1262 43.9437 45.9562 43.3447 46.6642ZM36.3927 32.8752C35.9857 32.2962 35.7827 31.6682 35.7827 30.9942C35.7827 30.2552 36.0047 29.5802 36.4497 28.9692C36.8477 28.4242 37.3727 28.0292 38.0127 27.7682V34.1632C37.3057 33.8222 36.7597 33.3962 36.3927 32.8752ZM47.2597 38.4142C46.2217 37.1782 44.3187 36.1622 41.5717 35.3582V28.0542C42.4707 28.6342 43.0627 29.5302 43.3067 30.7832L48.1387 30.1532C47.8077 28.2432 47.0427 26.7192 45.8467 25.5802C44.7657 24.5502 43.3277 23.9072 41.5717 23.6102V21.6162H41.0147H38.2447H38.0127V23.5482C35.9357 23.8002 34.2517 24.5952 32.9837 25.9612C31.6657 27.3812 31.0077 29.1352 31.0077 31.2232C31.0077 33.2852 31.5897 35.0392 32.7547 36.4842C33.8817 37.8832 35.6387 38.9352 38.0127 39.6482V47.5912C37.4177 47.2572 36.8687 46.7722 36.3737 46.1192C35.8137 45.3812 35.4317 44.5022 35.2287 43.4832L30.2427 44.0182C30.6247 46.5262 31.5037 48.4682 32.8787 49.8432C34.2027 51.1672 35.9207 51.9652 38.0127 52.2622V55.7832H38.2447H41.0147H41.5717V52.1122C43.7857 51.6962 45.5427 50.7662 46.8297 49.3092C48.2237 47.7292 48.9207 45.7882 48.9207 43.4832C48.9207 41.4212 48.3667 39.7302 47.2597 38.4142Z" fill="#002F6C"/>
</svg>
