<svg width="79" height="79" viewBox="0 0 79 79" fill="none" xmlns="http://www.w3.org/2000/svg">
<path fill-rule="evenodd" clip-rule="evenodd" d="M64.0001 54.6364C58.6601 62.6534 49.5431 67.9484 39.2111 67.9484C22.7971 67.9484 9.44312 54.5944 9.44312 38.1804C9.44312 21.7664 22.7971 8.41338 39.2111 8.41338C51.3421 8.41338 61.7951 15.7114 66.4271 26.1454L68.9581 24.9314C68.1991 23.4904 67.3401 22.1094 66.3801 20.8064C60.6391 11.8584 50.6091 5.91138 39.2111 5.91138C21.4191 5.91138 6.94312 20.3864 6.94312 38.1794C6.94312 45.3124 9.27311 51.9094 13.2091 57.2574C18.9491 66.2114 28.9811 72.1614 40.3851 72.1614C51.8471 72.1614 61.9251 66.1494 67.6501 57.1174L64.0001 54.6364Z" fill="#002F6C"/>
<path fill-rule="evenodd" clip-rule="evenodd" d="M54.6396 23.9382V53.9752C54.6396 54.2372 54.7437 54.4862 54.9267 54.6692C55.3087 55.0562 55.9266 55.0562 56.3076 54.6692L71.2136 39.6512C71.5956 39.2682 71.5956 38.6452 71.2136 38.2602L56.3076 23.2412C56.1236 23.0562 55.8766 22.9542 55.6176 22.9542C55.0776 22.9542 54.6396 23.3952 54.6396 23.9382Z" fill="#002F6C"/>
<path fill-rule="evenodd" clip-rule="evenodd" d="M40.343 46.6642C39.866 47.2262 39.272 47.6142 38.57 47.8412V40.7342C39.423 41.0492 40.071 41.4562 40.486 41.9662C40.989 42.5832 41.24 43.3182 41.24 44.1712C41.24 45.1262 40.942 45.9562 40.343 46.6642ZM33.391 32.8752C32.984 32.2962 32.78 31.6682 32.78 30.9942C32.78 30.2552 33.003 29.5802 33.448 28.9692C33.846 28.4242 34.371 28.0292 35.011 27.7682V34.1632C34.304 33.8222 33.758 33.3962 33.391 32.8752ZM44.258 38.4142C43.22 37.1782 41.317 36.1622 38.57 35.3582V28.0542C39.469 28.6342 40.061 29.5302 40.305 30.7832L45.136 30.1532C44.805 28.2432 44.041 26.7192 42.845 25.5802C41.763 24.5502 40.325 23.9072 38.57 23.6102V21.6162H38.013H35.243H35.011V23.5482C32.934 23.8002 31.25 24.5952 29.982 25.9612C28.664 27.3812 28.005 29.1352 28.005 31.2232C28.005 33.2852 28.587 35.0392 29.752 36.4842C30.88 37.8832 32.637 38.9352 35.011 39.6482V47.5912C34.416 47.2572 33.867 46.7722 33.372 46.1192C32.812 45.3812 32.43 44.5022 32.226 43.4832L27.241 44.0182C27.623 46.5262 28.502 48.4682 29.877 49.8432C31.201 51.1672 32.919 51.9652 35.011 52.2622V55.7832H35.243H38.013H38.57V52.1122C40.784 51.6962 42.54 50.7662 43.827 49.3092C45.222 47.7292 45.919 45.7882 45.919 43.4832C45.919 41.4212 45.365 39.7302 44.258 38.4142Z" fill="#002F6C"/>
</svg>
