<svg width="79" height="79" viewBox="0 0 79 79" fill="none" xmlns="http://www.w3.org/2000/svg">
<path fill-rule="evenodd" clip-rule="evenodd" d="M41.3909 24.2592L44.9889 18.0422C45.1009 17.8472 45.3959 17.9052 45.4289 18.1272L46.4619 25.2352C46.4691 25.2831 46.4906 25.3276 46.5237 25.363C46.5567 25.3984 46.5997 25.4228 46.6469 25.4332L53.6719 26.9332C53.7203 26.9434 53.7642 26.9684 53.7977 27.0048C53.8311 27.0412 53.8523 27.0871 53.8584 27.1361C53.8644 27.1851 53.855 27.2348 53.8315 27.2782C53.8079 27.3216 53.7714 27.3566 53.7269 27.3782L47.2869 30.5572C47.2432 30.5787 47.2072 30.613 47.1836 30.6555C47.16 30.6981 47.15 30.7468 47.1549 30.7952L47.8979 37.9392C47.9033 37.9881 47.8932 38.0375 47.8692 38.0804C47.8451 38.1233 47.8083 38.1576 47.7638 38.1785C47.7193 38.1994 47.6693 38.2059 47.621 38.1971C47.5726 38.1883 47.5282 38.1645 47.4939 38.1292L42.4799 32.9862C42.4462 32.9515 42.4026 32.9279 42.355 32.9188C42.3074 32.9097 42.2582 32.9154 42.2139 32.9352L35.6479 35.8492C35.6031 35.8694 35.553 35.875 35.5048 35.8653C35.4566 35.8556 35.4127 35.831 35.3791 35.7951C35.3455 35.7592 35.3239 35.7137 35.3174 35.665C35.311 35.6162 35.3199 35.5667 35.3429 35.5232L38.6849 29.1632C38.7073 29.1206 38.716 29.0721 38.71 29.0244C38.7039 28.9766 38.6833 28.9319 38.6509 28.8962L33.8509 23.5522C33.8181 23.5156 33.7974 23.4697 33.7918 23.4209C33.7862 23.372 33.796 23.3226 33.8197 23.2795C33.8434 23.2364 33.88 23.2018 33.9243 23.1804C33.9686 23.1591 34.0184 23.152 34.0669 23.1602L41.1469 24.3742C41.1946 24.3825 41.2437 24.3759 41.2876 24.3554C41.3314 24.3348 41.3678 24.3012 41.3919 24.2592" fill="#002F6C"/>
<path fill-rule="evenodd" clip-rule="evenodd" d="M27.749 52.3202L33.66 56.9382L35.199 54.9672L29.288 50.3502L27.749 52.3202Z" fill="#002F6C"/>
<path fill-rule="evenodd" clip-rule="evenodd" d="M19.3049 45.7252L25.2159 50.3422L26.7549 48.3722L20.8439 43.7552L19.3049 45.7252Z" fill="#002F6C"/>
<path fill-rule="evenodd" clip-rule="evenodd" d="M39.505 58.3312L37.732 56.9462L36.192 58.9162L37.966 60.3022L29.473 71.1752L24.331 67.1582C27.056 63.6182 26.416 58.5182 22.89 55.7632C19.362 53.0072 14.258 53.6222 11.484 57.1232L6.50498 53.2332L14.999 42.3612L16.772 43.7472L18.311 41.7772L16.537 40.3922L42.588 7.04122L65.556 24.9812L39.505 58.3312ZM51.897 5.06022C51.6578 4.84233 51.3435 4.72552 51.02 4.73428C50.6966 4.74305 50.3891 4.8767 50.162 5.10722L47.562 7.75422L43.142 4.30222C43.0126 4.20107 42.8646 4.12639 42.7064 4.08245C42.5482 4.03851 42.3829 4.02618 42.2199 4.04614C42.057 4.06611 41.8995 4.11799 41.7566 4.19881C41.6137 4.27964 41.4881 4.38784 41.387 4.51722L3.76498 52.6812C3.56112 52.9425 3.46936 53.274 3.50986 53.6029C3.55037 53.9318 3.71982 54.2312 3.98098 54.4352L11.017 59.9322C11.1608 60.0442 11.3273 60.1235 11.5049 60.1644C11.6826 60.2053 11.867 60.2069 12.0453 60.1691C12.2236 60.1313 12.3915 60.055 12.5373 59.9455C12.683 59.836 12.803 59.696 12.889 59.5352C13.058 59.2192 13.231 58.9482 13.419 58.7082C14.3422 57.5283 15.6958 56.7629 17.1828 56.5801C18.6698 56.3973 20.1685 56.812 21.35 57.7332C22.5293 58.657 23.2942 60.0108 23.477 61.4977C23.6597 62.9846 23.2455 64.4833 22.325 65.6652C22.137 65.9052 21.917 66.1392 21.65 66.3802C21.5145 66.5023 21.4074 66.6526 21.3363 66.8206C21.2651 66.9885 21.2317 67.17 21.2383 67.3523C21.2448 67.5346 21.2913 67.7132 21.3743 67.8756C21.4574 68.038 21.575 68.1802 21.719 68.2922L28.919 73.9152C29.0481 74.0167 29.1961 74.0916 29.3543 74.1356C29.5125 74.1797 29.6779 74.1921 29.8409 74.172C30.0039 74.1519 30.1613 74.0998 30.3041 74.0187C30.4469 73.9375 30.5723 73.829 30.673 73.6992L75.31 28.1992C75.4274 28.0793 75.5195 27.937 75.5808 27.7808C75.6421 27.6246 75.6713 27.4576 75.6667 27.2898C75.6622 27.1221 75.6239 26.9569 75.5542 26.8043C75.4845 26.6516 75.3848 26.5145 75.261 26.4012L51.897 5.06022Z" fill="#002F6C"/>
</svg>
