<svg width="79" height="79" viewBox="0 0 79 79" fill="none" xmlns="http://www.w3.org/2000/svg">
<path fill-rule="evenodd" clip-rule="evenodd" d="M15.51 13.7643C15.537 13.1643 15.966 12.7023 16.473 12.7293L66.637 15.4493C67.649 15.4603 68.483 16.2033 68.5 17.1093C68.516 18.0143 67.71 18.7393 66.7 18.7273C66.6318 18.7261 66.5638 18.7217 66.496 18.7143L16.357 15.1023C15.857 15.0663 15.475 14.5573 15.501 13.9623L15.511 13.7643H15.51Z" fill="#002F6C"/>
<path fill-rule="evenodd" clip-rule="evenodd" d="M49.58 61.2343L48.904 61.6013V67.2313H23.534V61.6013L22.858 61.2343C14.158 56.5083 8.54599 47.5003 8.09999 37.6173H64.34C63.892 47.5013 58.28 56.5083 49.58 61.2343ZM72.086 38.2363C71.507 37.6403 67.531 35.7823 65.918 35.2893C65.552 35.1793 65.061 35.0293 64.642 35.0273H35.932C35.737 33.6773 35.259 32.8223 34.823 32.0543C34.342 31.2073 33.963 30.5393 33.963 29.0713C33.963 27.6023 34.342 26.9333 34.823 26.0873C35.385 25.0973 36.024 23.9773 36.024 21.8193C36.024 19.6633 35.384 18.5413 34.824 17.5523C34.342 16.7063 33.962 16.0403 33.962 14.5723C33.962 13.1063 34.342 12.4393 34.823 11.5953C35.385 10.6073 36.024 9.48725 36.024 7.33125C36.024 6.61625 35.447 6.03625 34.736 6.03625C34.023 6.03625 33.447 6.61625 33.447 7.33125C33.447 8.79726 33.067 9.46425 32.587 10.3073C32.024 11.2973 31.386 12.4173 31.386 14.5733C31.386 16.7283 32.024 17.8493 32.586 18.8383C33.066 19.6833 33.447 20.3523 33.447 21.8183C33.447 23.2883 33.067 23.9563 32.587 24.8023C32.024 25.7923 31.386 26.9133 31.386 29.0713C31.386 31.2283 32.024 32.3493 32.586 33.3393C32.896 33.8863 33.164 34.3633 33.316 35.0273H29.376C29.182 33.6773 28.704 32.8223 28.266 32.0543C27.786 31.2073 27.406 30.5393 27.406 29.0713C27.406 27.6023 27.786 26.9333 28.266 26.0873C28.829 25.0973 29.467 23.9773 29.467 21.8193C29.467 19.6633 28.829 18.5413 28.267 17.5523C27.785 16.7063 27.406 16.0403 27.406 14.5723C27.406 13.1063 27.786 12.4393 28.266 11.5953C28.829 10.6073 29.467 9.48725 29.467 7.33125C29.4676 7.16168 29.4349 6.99364 29.3705 6.83675C29.3062 6.67986 29.2115 6.53719 29.092 6.41691C28.9725 6.29664 28.8304 6.20111 28.6739 6.13579C28.5174 6.07047 28.3496 6.03665 28.18 6.03625C27.469 6.03625 26.892 6.61625 26.892 7.33125C26.892 8.79726 26.512 9.46425 26.031 10.3073C25.468 11.2973 24.83 12.4173 24.83 14.5733C24.83 16.7283 25.468 17.8493 26.03 18.8383C26.512 19.6833 26.892 20.3523 26.892 21.8183C26.892 23.2883 26.512 23.9563 26.031 24.8023C25.468 25.7923 24.83 26.9133 24.83 29.0713C24.83 31.2283 25.468 32.3493 26.03 33.3393C26.342 33.8863 26.61 34.3633 26.76 35.0273H22.82C22.626 33.6773 22.148 32.8223 21.711 32.0543C21.23 31.2073 20.851 30.5393 20.851 29.0713C20.851 27.6023 21.23 26.9333 21.711 26.0873C22.274 25.0973 22.911 23.9773 22.911 21.8193C22.911 19.6633 22.274 18.5413 21.711 17.5523C21.23 16.7063 20.851 16.0403 20.851 14.5723C20.851 13.1063 21.23 12.4393 21.711 11.5953C22.274 10.6073 22.911 9.48725 22.911 7.33125C22.911 6.61625 22.335 6.03625 21.623 6.03625C20.911 6.03625 20.335 6.61625 20.335 7.33125C20.335 8.79726 19.955 9.46425 19.475 10.3073C18.912 11.2973 18.274 12.4173 18.274 14.5733C18.274 16.7283 18.912 17.8493 19.474 18.8383C19.956 19.6833 20.335 20.3523 20.335 21.8183C20.335 23.2883 19.955 23.9563 19.475 24.8023C18.912 25.7923 18.274 26.9133 18.274 29.0713C18.274 31.2283 18.912 32.3493 19.474 33.3393C19.786 33.8863 20.052 34.3633 20.204 35.0273H7.47599C6.94799 35.0273 6.43099 35.2453 6.05999 35.6273C5.87625 35.8158 5.73206 36.0391 5.63589 36.2842C5.53972 36.5293 5.49351 36.7911 5.49999 37.0543C5.74999 47.8493 11.652 57.7713 20.957 63.1343V67.6283C20.957 68.4653 21.432 69.1863 22.12 69.5553C24.07 71.0173 28.644 72.0363 28.703 72.0363H54.862C55.4421 72.0341 55.9977 71.8019 56.4068 71.3906C56.8159 70.9792 57.0451 70.4224 57.044 69.8423V65.3503C66.354 59.9823 72.256 50.0533 72.5 39.2523C72.506 38.7563 72.49 38.6683 72.087 38.2363H72.086Z" fill="#002F6C"/>
<path fill-rule="evenodd" clip-rule="evenodd" d="M15.501 10.6783C15.4872 10.4334 15.5706 10.1931 15.7329 10.0092C15.8951 9.82543 16.1233 9.71298 16.368 9.69626L66.493 6.73826C67.502 6.64226 68.396 7.18726 68.492 7.95526C68.587 8.72326 67.848 9.42526 66.84 9.52126C66.773 9.52726 66.704 9.53126 66.638 9.53126L16.46 11.7273C16.2175 11.7357 15.9816 11.6479 15.8037 11.483C15.6257 11.3182 15.5201 11.0896 15.51 10.8473L15.501 10.6773V10.6783Z" fill="#002F6C"/>
</svg>
