<svg width="79" height="79" viewBox="0 0 79 79" fill="none" xmlns="http://www.w3.org/2000/svg">
<path fill-rule="evenodd" clip-rule="evenodd" d="M29.78 45.2012L35.112 44.6492C35.264 45.8552 35.715 46.8102 36.464 47.5152C37.213 48.2202 38.076 48.5722 39.053 48.5722C40.171 48.5722 41.117 48.1182 41.891 47.2122C42.666 46.3032 43.051 44.9352 43.051 43.1072C43.051 41.3922 42.669 40.1072 41.9 39.2512C41.133 38.3932 40.133 37.9652 38.9 37.9652C37.365 37.9652 35.988 38.6452 34.769 40.0032L30.427 39.3752L33.17 24.8452H47.318V29.8532H37.225L36.387 34.5952C37.581 33.9982 38.8 33.6992 40.044 33.6992C42.418 33.6992 44.43 34.5632 46.081 36.2892C47.731 38.0162 48.556 40.2572 48.556 43.0122C48.556 45.3092 47.889 47.3602 46.556 49.1622C44.741 51.6262 42.221 52.8572 38.996 52.8572C36.42 52.8572 34.318 52.1652 32.693 50.7812C31.068 49.3972 30.097 47.5382 29.78 45.2012Z" fill="#002F6C"/>
<path fill-rule="evenodd" clip-rule="evenodd" d="M38.768 68.0733C22.355 68.0733 9.00001 54.7193 9.00001 38.3043C9.00001 21.8903 22.355 8.53825 38.768 8.53825C55.181 8.53825 68.536 21.8903 68.536 38.3043C68.536 54.7193 55.181 68.0733 38.768 68.0733ZM38.768 6.03625C20.976 6.03625 6.50001 20.5103 6.50001 38.3033C6.49374 45.1695 8.68998 51.8567 12.766 57.3823C18.506 66.3363 28.539 72.2863 39.943 72.2863C57.735 72.2863 72.209 57.8103 72.209 40.0183C72.2146 33.1485 70.0166 26.4582 65.938 20.9303C60.197 11.9833 50.166 6.03625 38.768 6.03625Z" fill="#002F6C"/>
</svg>
