<svg width="79" height="79" viewBox="0 0 79 79" fill="none" xmlns="http://www.w3.org/2000/svg">
<path fill-rule="evenodd" clip-rule="evenodd" d="M29.936 44.5502L35.116 43.9222C35.281 45.2422 35.725 46.2522 36.449 46.9502C37.172 47.6502 38.048 47.9972 39.077 47.9972C40.181 47.9972 41.111 47.5782 41.866 46.7402C42.622 45.9032 42.999 44.7732 42.999 43.3512C42.999 42.0052 42.637 40.9392 41.914 40.1522C41.19 39.3642 40.308 38.9722 39.267 38.9722C38.582 38.9722 37.762 39.1052 36.81 39.3702L37.401 35.0102C38.848 35.0482 39.953 34.7342 40.714 34.0682C41.476 33.4012 41.857 32.5152 41.857 31.4112C41.857 30.4722 41.578 29.7232 41.019 29.1632C40.46 28.6062 39.717 28.3252 38.79 28.3252C37.876 28.3252 37.096 28.6452 36.449 29.2792C35.801 29.9132 35.408 30.8392 35.268 32.0592L30.335 31.2202C30.678 29.5322 31.196 28.1832 31.887 27.1742C32.58 26.1642 33.544 25.3712 34.782 24.7942C36.02 24.2162 37.407 23.9272 38.943 23.9272C41.571 23.9272 43.678 24.7652 45.265 26.4412C46.573 27.8122 47.227 29.3612 47.227 31.0872C47.227 33.5372 45.887 35.4922 43.208 36.9522C44.808 37.2952 46.087 38.0642 47.045 39.2572C48.004 40.4502 48.484 41.8912 48.484 43.5792C48.484 46.0292 47.588 48.1192 45.798 49.8452C44.008 51.5712 41.781 52.4352 39.115 52.4352C36.588 52.4352 34.494 51.7072 32.831 50.2552C31.167 48.8002 30.203 46.9002 29.936 44.5502Z" fill="#002F6C"/>
<path fill-rule="evenodd" clip-rule="evenodd" d="M38.768 68.0733C22.355 68.0733 9.00001 54.7193 9.00001 38.3043C9.00001 21.8903 22.355 8.53825 38.768 8.53825C55.181 8.53825 68.536 21.8903 68.536 38.3043C68.536 54.7193 55.181 68.0733 38.768 68.0733ZM65.938 20.9303C60.197 11.9823 50.166 6.03625 38.768 6.03625C20.976 6.03625 6.50001 20.5103 6.50001 38.3033C6.49374 45.1695 8.68998 51.8567 12.766 57.3823C18.506 66.3363 28.539 72.2863 39.943 72.2863C57.735 72.2863 72.209 57.8103 72.209 40.0183C72.2146 33.1485 70.0166 26.4582 65.938 20.9303Z" fill="#002F6C"/>
</svg>
