<svg width="79" height="79" viewBox="0 0 79 79" fill="none" xmlns="http://www.w3.org/2000/svg">
<path fill-rule="evenodd" clip-rule="evenodd" d="M47.737 46.5283V51.4993H28.979C29.182 49.6203 29.792 47.8403 30.807 46.1573C31.823 44.4753 33.829 42.2443 36.825 39.4643C39.237 37.2163 40.715 35.6943 41.262 34.8943C41.999 33.7893 42.366 32.6973 42.366 31.6183C42.366 30.4243 42.046 29.5083 41.405 28.8663C40.764 28.2263 39.878 27.9063 38.749 27.9063C37.632 27.9063 36.743 28.2413 36.083 28.9143C35.423 29.5873 35.042 30.7043 34.94 32.2653L29.608 31.7323C29.925 28.7873 30.923 26.6743 32.598 25.3923C34.274 24.1093 36.368 23.4673 38.882 23.4673C41.637 23.4673 43.801 24.2103 45.376 25.6973C46.95 27.1803 47.736 29.0283 47.736 31.2373C47.7408 32.4659 47.5117 33.6843 47.061 34.8273C46.61 35.9633 45.895 37.1533 44.919 38.3973C44.269 39.2223 43.102 40.4103 41.415 41.9583C39.725 43.5083 38.657 44.5363 38.205 45.0443C37.7914 45.5012 37.4245 45.9983 37.11 46.5283H47.737Z" fill="#002F6C"/>
<path fill-rule="evenodd" clip-rule="evenodd" d="M38.768 68.0733C22.355 68.0733 9.00001 54.7193 9.00001 38.3053C9.00001 21.8913 22.355 8.53825 38.768 8.53825C55.181 8.53825 68.536 21.8913 68.536 38.3053C68.536 54.7193 55.181 68.0733 38.768 68.0733ZM65.938 20.9313C60.197 11.9833 50.166 6.03625 38.768 6.03625C20.976 6.03625 6.50001 20.5103 6.50001 38.3033C6.4936 45.1695 8.68985 51.8568 12.766 57.3823C18.506 66.3363 28.539 72.2863 39.943 72.2863C57.735 72.2863 72.209 57.8113 72.209 40.0193C72.215 33.1495 70.017 26.459 65.938 20.9313Z" fill="#002F6C"/>
</svg>
