<svg width="79" height="79" viewBox="0 0 79 79" fill="none" xmlns="http://www.w3.org/2000/svg">
<path fill-rule="evenodd" clip-rule="evenodd" d="M43.8733 46.0099C43.8733 42.4199 40.9633 39.5099 37.3733 39.5099C33.7833 39.5099 30.8733 42.4199 30.8733 46.0099C30.8733 48.3099 32.0703 50.3259 33.8733 51.4809V57.0099C33.8733 58.9429 35.4403 60.5099 37.3733 60.5099C39.3063 60.5099 40.8733 58.9429 40.8733 57.0099V51.4809C42.6753 50.3259 43.8733 48.3099 43.8733 46.0099Z" fill="#002F6C"/>
<path fill-rule="evenodd" clip-rule="evenodd" d="M57.768 63.504C57.768 65.877 55.838 67.807 53.466 67.807H20.303C17.93 67.807 16 65.877 16 63.504V31.307H57.768V63.504ZM63.497 32.644L63.499 32.64L59.686 29.371L59.685 29.372C59.333 29.023 58.849 28.807 58.315 28.807H54.34V21.203C54.34 11.737 46.946 4.03601 37.857 4.03601C28.768 4.03601 21.373 11.737 21.373 21.203V21.62H25.373V21.203C25.373 13.943 30.974 8.03601 37.857 8.03601C44.74 8.03601 50.34 13.943 50.34 21.203V28.807H15.439C14.37 28.807 13.5 29.676 13.5 30.746V63.504C13.5 63.638 13.512 63.768 13.52 63.9C13.519 63.9 13.513 63.897 13.513 63.897C13.513 63.897 13.517 64.007 13.535 64.194C13.535 64.197 13.536 64.2 13.536 64.202C13.683 65.696 14.789 72.295 22.737 73.456C23.191 73.552 23.662 73.605 24.145 73.605H57.308C61.059 73.605 64.111 70.553 64.111 66.802V34.058C64.111 33.501 63.873 33 63.497 32.644Z" fill="#002F6C"/>
</svg>
