<svg width="79" height="79" viewBox="0 0 79 79" fill="none" xmlns="http://www.w3.org/2000/svg">
<path fill-rule="evenodd" clip-rule="evenodd" d="M28.291 24.3313H51.996V21.3313H28.291V24.3313Z" fill="#002F6C"/>
<path fill-rule="evenodd" clip-rule="evenodd" d="M28.291 64.3113H51.996V61.3113H28.291V64.3113Z" fill="#002F6C"/>
<path fill-rule="evenodd" clip-rule="evenodd" d="M61.7245 69.1408C61.7245 70.4288 60.6765 71.4758 59.3895 71.4758H20.3345C19.0475 71.4758 17.9995 70.4288 17.9995 69.1408V66.1998L17.9615 66.2508V14.1578V12.0758C17.9615 13.0618 19.1615 14.0858 20.4835 14.0988H59.3895C60.6765 14.0988 61.7245 15.1458 61.7245 16.4338V69.1408ZM59.3895 11.5988H56.9265L56.9585 8.07079C56.9715 5.85579 55.1875 4.04979 52.9725 4.0367C52.8185 4.03579 52.6645 4.04279 52.5125 4.05979L19.6395 7.65079L19.6415 7.65979C15.5615 8.13379 15.5275 11.1208 15.5275 11.1208V16.1638C15.5225 16.2558 15.4995 16.3418 15.4995 16.4338V69.1408C15.4995 71.8078 17.6685 73.9758 20.3345 73.9758H59.3895C62.0555 73.9758 64.2245 71.8078 64.2245 69.1408V16.4338C64.2245 13.7678 62.0555 11.5988 59.3895 11.5988Z" fill="#002F6C"/>
<path fill-rule="evenodd" clip-rule="evenodd" d="M31.99 35.3038C32.66 35.5358 33.355 35.7408 34.068 35.9148C34.381 34.9758 34.839 33.8578 35.488 32.8258C34.18 33.4178 32.995 34.2568 31.99 35.3038ZM44.798 32.8258C45.447 33.8578 45.906 34.9758 46.218 35.9148C46.93 35.7408 47.626 35.5358 48.294 35.3038C47.29 34.2568 46.106 33.4188 44.798 32.8258ZM36.163 36.3298C37.123 36.4758 38.101 36.5708 39.085 36.6098V32.1038C38.252 32.5448 37.449 33.4958 36.778 34.8548C36.553 35.3108 36.347 35.8058 36.163 36.3298ZM41.201 32.1038V36.6098C42.184 36.5708 43.163 36.4758 44.123 36.3298C43.938 35.8048 43.732 35.3108 43.507 34.8548C42.837 33.4958 42.035 32.5448 41.201 32.1038ZM28.885 42.0718H33.005C33.061 40.6448 33.232 39.2648 33.513 37.9598C32.512 37.7118 31.54 37.4078 30.612 37.0538C29.643 38.5678 29.052 40.2858 28.885 42.0718ZM35.124 42.0718H39.085V38.7288C37.903 38.6848 36.73 38.5678 35.589 38.3828C35.335 39.5508 35.179 40.7878 35.124 42.0718ZM41.201 42.0718H45.161C45.107 40.7868 44.951 39.5498 44.697 38.3828C43.554 38.5678 42.383 38.6848 41.201 38.7288V42.0718ZM47.281 42.0718H51.401C51.233 40.2858 50.642 38.5678 49.674 37.0538C48.745 37.4088 47.772 37.7118 46.77 37.9598C47.053 39.2668 47.224 40.6468 47.281 42.0718ZM35.124 44.1898C35.179 45.4728 35.335 46.7098 35.589 47.8778C36.732 47.6918 37.906 47.5748 39.085 47.5328V44.1898H35.124ZM41.201 47.5328C42.381 47.5748 43.553 47.6918 44.697 47.8778C44.951 46.7108 45.107 45.4738 45.161 44.1898H41.201V47.5328ZM46.77 48.3008C47.771 48.5478 48.745 48.8508 49.674 49.2068C50.642 47.6938 51.233 45.9748 51.401 44.1898H47.281C47.224 45.6138 47.053 46.9928 46.77 48.3008ZM28.885 44.1898C29.052 45.9738 29.643 47.6928 30.612 49.2068C31.541 48.8508 32.513 48.5478 33.513 48.3008C33.232 46.9948 33.061 45.6158 33.005 44.1898H28.885ZM31.99 50.9568C32.995 52.0038 34.18 52.8428 35.488 53.4348C34.839 52.4028 34.381 51.2848 34.068 50.3458C33.356 50.5188 32.661 50.7238 31.99 50.9568ZM46.218 50.3458C45.906 51.2848 45.447 52.4028 44.798 53.4348C46.106 52.8428 47.29 52.0038 48.294 50.9568C47.625 50.7238 46.929 50.5188 46.218 50.3458ZM36.163 49.9318C36.348 50.4578 36.554 50.9518 36.778 51.4058C37.449 52.7638 38.252 53.7158 39.085 54.1578V49.6508C38.099 49.6908 37.121 49.7848 36.163 49.9318ZM41.201 49.6508V54.1578C42.035 53.7158 42.837 52.7638 43.507 51.4058C43.732 50.9498 43.939 50.4558 44.123 49.9318C43.165 49.7848 42.186 49.6908 41.201 49.6508ZM40.139 56.5538C36.64 56.5538 33.35 55.2318 30.828 52.8008C28.177 50.2468 26.719 46.8128 26.719 43.1308C26.719 37.0928 30.775 31.7668 36.585 30.1808C40.656 29.0638 44.921 29.8928 48.283 32.4568C51.641 35.0188 53.568 38.9088 53.568 43.1308C53.568 50.3818 47.895 56.2748 40.654 56.5438C40.482 56.5508 40.311 56.5538 40.139 56.5538Z" fill="#002F6C"/>
</svg>
