<svg width="79" height="79" viewBox="0 0 79 79" fill="none" xmlns="http://www.w3.org/2000/svg">
<path fill-rule="evenodd" clip-rule="evenodd" d="M38.2109 67.9484C21.7969 67.9484 8.44287 54.5944 8.44287 38.1804C8.44287 21.7664 21.7969 8.41338 38.2109 8.41338C54.6239 8.41338 67.9779 21.7664 67.9779 38.1804C67.9779 54.5944 54.6239 67.9484 38.2109 67.9484ZM65.3799 20.8064C59.6389 11.8584 49.6089 5.91138 38.2109 5.91138C20.4189 5.91138 5.94287 20.3864 5.94287 38.1794C5.94287 45.3124 8.27387 51.9094 12.2089 57.2574C17.9489 66.2114 27.9819 72.1614 39.3849 72.1614C57.1769 72.1614 71.6519 57.6864 71.6519 39.8944C71.6519 32.7564 69.3179 26.1564 65.3799 20.8064Z" fill="#002F6C"/>
<path fill-rule="evenodd" clip-rule="evenodd" d="M46.249 46.3918C46.249 48.2728 46.466 49.5298 46.9 50.1608C47.229 50.6478 47.683 50.8908 48.262 50.8908C48.854 50.8908 49.308 50.6548 49.624 50.1808C50.058 49.5358 50.274 48.2728 50.274 46.3918C50.274 44.5108 50.064 43.2478 49.643 42.6028C49.314 42.1298 48.854 41.8928 48.262 41.8928C47.67 41.8928 47.216 42.1298 46.9 42.6028C46.466 43.2478 46.249 44.5108 46.249 46.3918ZM41.928 46.4118C41.928 43.8198 42.497 41.8998 43.634 40.6498C44.772 39.3998 46.328 38.7748 48.301 38.7748C50.288 38.7748 51.85 39.3998 52.988 40.6498C54.126 41.8998 54.695 43.8198 54.695 46.4118C54.695 49.0168 54.126 50.9438 52.988 52.1938C51.85 53.4428 50.308 54.0678 48.36 54.0678C46.348 54.0678 44.772 53.4428 43.634 52.1938C42.497 50.9438 41.928 49.0168 41.928 46.4118ZM32.392 54.0088H27.902L45.238 23.4818H49.609L32.392 54.0088ZM26.733 31.0788C26.733 32.9598 26.95 34.2238 27.384 34.8678C27.713 35.3418 28.167 35.5788 28.746 35.5788C29.338 35.5788 29.798 35.3418 30.127 34.8678C30.548 34.2238 30.759 32.9598 30.759 31.0788C30.759 29.1978 30.548 27.9418 30.127 27.3098C29.798 26.8238 29.338 26.5798 28.746 26.5798C28.167 26.5798 27.713 26.8168 27.384 27.2898C26.95 27.9348 26.733 29.1978 26.733 31.0788ZM22.412 31.1188C22.412 28.5268 22.98 26.6058 24.119 25.3568C25.256 24.1068 26.799 23.4818 28.746 23.4818C30.759 23.4818 32.334 24.1038 33.472 25.3468C34.61 26.5898 35.179 28.5138 35.179 31.1188C35.179 33.7098 34.61 35.6308 33.472 36.8808C32.334 38.1308 30.791 38.7548 28.845 38.7548C26.832 38.7548 25.256 38.1338 24.119 36.8908C22.98 35.6468 22.412 33.7238 22.412 31.1188Z" fill="#002F6C"/>
</svg>
