<svg width="79" height="79" viewBox="0 0 79 79" fill="none" xmlns="http://www.w3.org/2000/svg">
<path fill-rule="evenodd" clip-rule="evenodd" d="M14.9321 12.5453C13.4671 21.8153 15.9101 26.6893 19.5061 29.1633C27.8601 34.9123 38.0271 24.1233 31.7931 16.1263C29.1091 12.6823 24.1011 10.5323 14.9331 12.5453" fill="#002F6C"/>
<path fill-rule="evenodd" clip-rule="evenodd" d="M19.8611 49.9192H56.5581V45.3612H19.8611V49.9192ZM52.1581 52.7492L50.5051 69.8692H25.9151L24.2301 52.4192H43.4291L52.1931 52.4752L52.1581 52.7492ZM43.9801 11.9982C46.0251 9.02624 49.5441 7.53224 54.4721 7.53224C55.4631 7.53224 56.5281 7.61024 57.6321 7.73024C55.4341 9.38824 49.6571 14.1082 44.5861 21.3762C42.5451 19.0252 41.6361 15.4032 43.9801 11.9982ZM58.8641 9.93124C59.6391 15.8392 58.4221 20.0932 55.2191 22.5902C52.2411 24.9122 48.9221 24.5342 46.4881 23.0052C51.1991 16.1842 56.6061 11.6612 58.8641 9.93124ZM57.7181 42.8612H38.5811C39.4591 36.0362 42.0131 30.0862 45.0721 25.1652C45.7181 25.5552 46.4781 25.8922 47.3081 26.1652C47.7851 26.3362 48.2741 26.4772 48.7771 26.5762C50.2711 26.9272 51.8101 27.1032 53.0391 27.1032C55.0531 27.1032 57.1661 26.4552 59.1651 24.8972C63.7031 21.3602 65.0601 15.2652 63.1981 6.78324C63.1445 6.53742 63.0178 6.31354 62.8347 6.14098C62.6516 5.96841 62.4206 5.85522 62.1721 5.81624C60.9355 5.6153 59.6945 5.44225 58.4501 5.29724C50.5781 4.31924 45.0231 6.09124 41.9311 10.5802C38.6411 15.3622 40.1551 20.4452 43.1721 23.5122C40.3861 27.9182 37.9601 33.1232 36.6911 39.0462C35.4081 34.3752 33.4821 30.5452 31.3841 27.5082C30.8271 28.1612 30.1121 28.7602 29.4081 29.2492C32.1901 33.3462 34.0411 37.9042 34.9681 42.8612H18.6111C17.9211 42.8612 17.3611 43.4212 17.3611 44.1112V51.1692C17.3611 51.8592 17.9211 52.4192 18.6111 52.4192H21.7191L23.5351 71.2392C23.5731 71.6282 23.7971 71.9432 24.1021 72.1452C24.4161 72.4512 25.3631 73.0352 28.0281 73.0352H54.8881C55.5321 73.0352 56.0711 72.5462 56.1321 71.9052L57.9611 52.9682L61.0561 53.0852C61.7471 53.0852 62.3061 52.5252 62.3061 51.8352V44.7772C62.3061 44.3142 62.0431 43.9262 61.6681 43.7102C60.7451 43.2782 59.1921 42.8612 57.7181 42.8612Z" fill="#002F6C"/>
</svg>
