<svg width="79" height="79" viewBox="0 0 79 79" fill="none" xmlns="http://www.w3.org/2000/svg">
<path fill-rule="evenodd" clip-rule="evenodd" d="M69.499 32.6963C69.499 34.6653 67.63 36.2653 65.333 36.2653C63.035 36.2653 61.166 34.6653 61.166 32.6973V29.1273H69.499V32.6973V32.6963ZM36.767 64.8523L36.714 42.4813L15.746 42.5313L15.799 64.9113L9.659 64.9753L9.558 38.5803C10.0857 38.7021 10.6254 38.7645 11.167 38.7663C13.398 38.7663 15.373 37.7593 16.583 36.2223C17.794 37.7593 19.769 38.7663 22 38.7663C24.231 38.7663 26.206 37.7593 27.416 36.2223C28.627 37.7593 30.602 38.7663 32.833 38.7663C35.064 38.7663 37.039 37.7593 38.25 36.2223C39.46 37.7593 41.435 38.7663 43.666 38.7663C45.897 38.7663 47.872 37.7593 49.083 36.2223C50.293 37.7593 52.268 38.7663 54.499 38.7663C56.73 38.7663 58.705 37.7593 59.916 36.2213C61.037 37.6453 62.816 38.6033 64.845 38.7393L64.94 62.5323C64.9408 62.8343 64.8821 63.1335 64.7672 63.4129C64.6524 63.6922 64.4836 63.9462 64.2706 64.1604C64.0576 64.3745 63.8045 64.5446 63.5257 64.6609C63.247 64.7772 62.948 64.8375 62.646 64.8383L36.767 64.8523ZM7 29.1283H15.333V32.6973C15.333 34.6653 13.464 36.2653 11.167 36.2653C8.869 36.2653 7 34.6653 7 32.6973V29.1273V29.1283ZM26.166 29.1283V32.6973C26.166 34.6653 24.297 36.2653 22 36.2653C19.702 36.2653 17.833 34.6653 17.833 32.6973V29.1273H26.166V29.1283ZM37 29.1283V32.6973C37 34.6653 35.131 36.2653 32.834 36.2653C30.536 36.2653 28.667 34.6653 28.667 32.6973V29.1273H37V29.1283ZM47.833 29.1283V32.6973C47.833 34.6653 45.964 36.2653 43.667 36.2653C41.369 36.2653 39.5 34.6653 39.5 32.6973V29.1273H47.833V29.1283ZM58.666 29.1283V32.6973C58.666 34.6653 56.797 36.2653 54.5 36.2653C52.202 36.2653 50.333 34.6653 50.333 32.6973V29.1273H58.666V29.1283ZM12.631 13.5363H63.868L68.926 26.6283H7.573L12.631 13.5363ZM69.03 11.8363C68.9391 11.6008 68.7791 11.3983 68.571 11.2555C68.3629 11.1127 68.1164 11.0363 67.864 11.0363H11.773C11.257 11.0363 10.794 11.3543 10.607 11.8363L4.584 27.4263C4.5367 27.5561 4.51168 27.6931 4.51 27.8313L4.5 32.6963C4.5 34.6313 5.504 36.3543 7.06 37.4663L7.163 66.8933C7.16379 67.049 7.22637 67.1981 7.33699 67.3078C7.4476 67.4175 7.59722 67.4788 7.753 67.4783L18.305 67.4383V67.4023L18.252 45.0223L34.22 44.9853L34.273 67.3573L64.884 67.3313C65.6536 67.3309 66.4155 67.1787 67.1262 66.8834C67.8369 66.5881 68.4824 66.1556 69.0257 65.6105C69.569 65.0655 69.9995 64.4186 70.2924 63.7069C70.5854 62.9953 70.7351 62.2328 70.733 61.4633L70.658 38.4223C73.262 37.5953 75.139 35.3443 75.139 32.6963V31.9163C75.139 29.0833 74.62 26.3043 73.599 23.6563L69.03 11.8363Z" fill="#002F6C"/>
<path fill-rule="evenodd" clip-rule="evenodd" d="M44.916 54.9273H57.92V45.0433H44.916V54.9273ZM42.416 57.4273H60.42V42.5433H42.416V57.4273Z" fill="#002F6C"/>
<path fill-rule="evenodd" clip-rule="evenodd" d="M18.305 67.4393L31.403 73.4023V51.0713L18.25 45.0193L18.305 67.4393Z" fill="#002F6C"/>
</svg>
