<svg width="79" height="79" viewBox="0 0 79 79" fill="none" xmlns="http://www.w3.org/2000/svg">
<path fill-rule="evenodd" clip-rule="evenodd" d="M25.935 22.4313C25.7728 22.4573 25.6174 22.515 25.4776 22.6011C25.3378 22.6872 25.2163 22.8001 25.1201 22.9331C25.0239 23.0662 24.9548 23.2169 24.9169 23.3767C24.8789 23.5365 24.8729 23.7022 24.899 23.8643L27.908 42.5923C27.9659 42.9146 28.1479 43.2014 28.415 43.3909C28.6822 43.5803 29.013 43.6574 29.3363 43.6056C29.6597 43.5537 29.9498 43.377 30.1442 43.1134C30.3386 42.8499 30.4218 42.5206 30.376 42.1963L27.368 23.4663C27.3152 23.139 27.1345 22.8461 26.8658 22.652C26.5971 22.4579 26.2622 22.3785 25.935 22.4313ZM37.566 23.2443C36.876 23.2443 36.316 23.8043 36.316 24.4943V42.3943C36.316 42.7258 36.4477 43.0437 36.6821 43.2782C36.9165 43.5126 37.2344 43.6443 37.566 43.6443C37.8975 43.6443 38.2154 43.5126 38.4498 43.2782C38.6843 43.0437 38.816 42.7258 38.816 42.3943V24.4943C38.816 23.8043 38.256 23.2443 37.566 23.2443ZM48.389 24.1513C48.2264 24.1271 48.0607 24.1355 47.9013 24.1758C47.742 24.2161 47.5923 24.2876 47.4608 24.3862C47.3293 24.4848 47.2186 24.6085 47.1352 24.7501C47.0519 24.8917 46.9974 25.0485 46.975 25.2113L44.547 42.2173C44.5237 42.3797 44.5327 42.5452 44.5734 42.7041C44.6141 42.8631 44.6857 43.0125 44.7841 43.1438C44.8825 43.2751 45.0059 43.3857 45.1471 43.4694C45.2882 43.553 45.4445 43.608 45.607 43.6313C45.7694 43.6545 45.9348 43.6455 46.0938 43.6049C46.2528 43.5642 46.4022 43.4926 46.5335 43.3941C46.6648 43.2957 46.7754 43.1724 46.8591 43.0312C46.9427 42.89 46.9977 42.7337 47.021 42.5713L49.45 25.5653C49.4731 25.4028 49.4641 25.2373 49.4233 25.0783C49.3825 24.9193 49.3108 24.7698 49.2123 24.6385C49.1138 24.5072 48.9904 24.3966 48.8491 24.313C48.7078 24.2294 48.5515 24.1745 48.389 24.1513ZM58.486 25.2143C58.1647 25.1332 57.8244 25.1828 57.5395 25.352C57.2547 25.5212 57.0485 25.7964 56.966 26.1173L52.808 42.4563C52.7675 42.6154 52.7588 42.7809 52.7823 42.9433C52.8058 43.1058 52.8611 43.2621 52.945 43.4032C53.0289 43.5443 53.1398 43.6674 53.2713 43.7657C53.4028 43.8639 53.5524 43.9353 53.7115 43.9758C53.8706 44.0162 54.0361 44.0249 54.1985 44.0014C54.361 43.9779 54.5172 43.9226 54.6583 43.8387C54.7994 43.7548 54.9226 43.644 55.0209 43.5125C55.1191 43.381 55.1905 43.2314 55.231 43.0723L59.389 26.7353C59.4295 26.5762 59.4383 26.4107 59.4149 26.2482C59.3914 26.0857 59.3362 25.9294 59.2523 25.7882C59.1685 25.6471 59.0576 25.5238 58.9261 25.4255C58.7946 25.3272 58.6451 25.2558 58.486 25.2153" fill="#002F6C"/>
<path fill-rule="evenodd" clip-rule="evenodd" d="M27.42 69.3193C26.296 69.3179 25.2184 68.8708 24.4237 68.0759C23.629 67.281 23.1821 66.2033 23.181 65.0793C23.1823 63.9551 23.6295 62.8775 24.4243 62.0826C25.2192 61.2877 26.2969 60.8406 27.421 60.8393C28.5448 60.8411 29.622 61.2885 30.4164 62.0833C31.2108 62.8781 31.6577 63.9555 31.659 65.0793C31.658 66.2033 31.211 67.281 30.4163 68.0759C29.6216 68.8708 28.544 69.3179 27.42 69.3193ZM27.42 58.3393C25.6332 58.3414 23.9202 59.0522 22.6568 60.3158C21.3934 61.5793 20.6829 63.2924 20.681 65.0793C20.681 68.7783 23.677 71.7893 27.369 71.8173H28.913C32.591 71.7713 35.57 68.7673 35.57 65.0803C35.57 61.4093 32.618 58.4193 28.964 58.3473L27.42 58.3403V58.3393ZM51.36 65.0803C51.3613 63.9565 51.8082 62.8791 52.6026 62.0843C53.3971 61.2895 54.4742 60.8421 55.598 60.8403C56.7222 60.8413 57.8 61.2884 58.595 62.0833C59.3899 62.8782 59.837 63.9561 59.838 65.0803C59.8367 66.2043 59.3895 67.2819 58.5946 68.0766C57.7997 68.8713 56.722 69.3182 55.598 69.3193C54.474 69.3179 53.3964 68.8708 52.6017 68.0759C51.807 67.281 51.3601 66.2033 51.359 65.0793L51.36 65.0803ZM55.598 58.3403C53.8112 58.3424 52.0982 59.0532 50.8348 60.3168C49.5714 61.5803 48.8609 63.2934 48.859 65.0803C48.859 68.7783 51.855 71.7893 55.547 71.8173H57.091V71.8153C60.769 71.7713 63.748 68.7683 63.748 65.0803C63.748 61.4093 60.796 58.4193 57.142 58.3473L55.598 58.3403ZM62.287 46.7343H22.257L22.255 46.7273H22.238L17.274 17.1333L18.533 17.2843L18.534 17.2893L67.974 23.2073L62.287 46.7343ZM73.527 20.7883C35.72 16.5013 16.802 14.3573 16.773 14.3563L15.493 7.92626C15.4452 7.6883 15.3295 7.46929 15.1598 7.29573C14.9901 7.12216 14.7738 7.00147 14.537 6.94826L6.02001 5.06626C5.69632 4.99465 5.35743 5.05456 5.07791 5.23281C4.79838 5.41107 4.60112 5.69306 4.52951 6.01676C4.4579 6.34045 4.51782 6.67934 4.69607 6.95886C4.87432 7.23838 5.15632 7.43565 5.48001 7.50726L13.2 9.21326C15.478 22.3783 19.856 47.5533 20.957 54.9713C21.0011 55.2677 21.1503 55.5385 21.3774 55.7342C21.6045 55.9298 21.8943 56.0374 22.194 56.0373H59.976C60.3075 56.0373 60.6255 55.9056 60.8599 55.6711C61.0943 55.4367 61.226 55.1188 61.226 54.7873C61.226 54.4557 61.0943 54.1378 60.8599 53.9034C60.6255 53.6689 60.3075 53.5373 59.976 53.5373H23.271L22.645 49.3243H67.119C67.74 49.3243 68.281 48.8983 68.428 48.2943L74.676 22.4423C74.7209 22.2573 74.726 22.0649 74.6911 21.8778C74.6562 21.6908 74.582 21.5132 74.4734 21.3569C74.3648 21.2006 74.2243 21.0691 74.0612 20.9711C73.8981 20.8731 73.716 20.8107 73.527 20.7883Z" fill="#002F6C"/>
</svg>
