<svg width="79" height="79" viewBox="0 0 79 79" fill="none" xmlns="http://www.w3.org/2000/svg">
<path fill-rule="evenodd" clip-rule="evenodd" d="M39.0966 47.1925L28.3236 54.6895C27.9866 54.9235 27.5426 54.6015 27.6616 54.2085L31.4626 41.6465C31.5146 41.4725 31.4536 41.2855 31.3096 41.1755L20.8506 33.2465C20.5236 32.9985 20.6936 32.4775 21.1036 32.4695L34.2256 32.2015C34.4066 32.1975 34.5666 32.0825 34.6256 31.9115L38.9346 19.5135C39.0696 19.1265 39.6176 19.1265 39.7516 19.5135L44.0616 31.9115C44.1206 32.0825 44.2806 32.1975 44.4616 32.2015L57.5836 32.4695C57.9936 32.4775 58.1626 32.9985 57.8356 33.2465L47.3766 41.1755C47.2336 41.2855 47.1716 41.4725 47.2246 41.6465L51.0256 54.2085C51.1446 54.6015 50.7006 54.9235 50.3646 54.6895L39.5906 47.1925C39.4426 47.0885 39.2446 47.0885 39.0966 47.1925Z" fill="#002F6C"/>
<path fill-rule="evenodd" clip-rule="evenodd" d="M39.2109 67.9484C22.7969 67.9484 9.4419 54.5944 9.4419 38.1804C9.4419 21.7664 22.7969 8.41338 39.2109 8.41338C55.6239 8.41338 68.9779 21.7664 68.9779 38.1804C68.9779 54.5944 55.6239 67.9484 39.2109 67.9484ZM66.3799 20.8064C60.6389 11.8584 50.6079 5.91138 39.2109 5.91138C21.4189 5.91138 6.94189 20.3864 6.94189 38.1794C6.94189 45.3124 9.2739 51.9094 13.2089 57.2574C18.9489 66.2114 28.9819 72.1614 40.3849 72.1614C58.1769 72.1614 72.6509 57.6864 72.6509 39.8944C72.6509 32.7564 70.3169 26.1564 66.3799 20.8064Z" fill="#002F6C"/>
</svg>
