<svg width="79" height="79" viewBox="0 0 79 79" fill="none" xmlns="http://www.w3.org/2000/svg">
<path fill-rule="evenodd" clip-rule="evenodd" d="M56.972 68.4693H16.587C15.6358 68.4679 14.724 68.0895 14.0514 67.4169C13.3788 66.7443 13.0003 65.8324 12.999 64.8813V9.61625H56.972V63.3563C57.124 66.4913 58.154 67.7763 59.952 68.4703H56.972V68.4693ZM59.472 56.5153V7.03625H10.5V64.8033C10.5021 66.4172 11.1442 67.9645 12.2855 69.1058C13.4267 70.247 14.974 70.8891 16.588 70.8913L63.618 70.8813C64.7445 70.8807 65.8247 70.433 66.6212 69.6365C67.4177 68.8399 67.8655 67.7597 67.866 66.6333V56.5163H59.473L59.472 56.5153Z" fill="#002F6C"/>
<path fill-rule="evenodd" clip-rule="evenodd" d="M19.155 42.9562H50.817V39.9562H19.155V42.9562Z" fill="#002F6C"/>
<path fill-rule="evenodd" clip-rule="evenodd" d="M19.155 51.2543H50.817V48.2543H19.155V51.2543Z" fill="#002F6C"/>
<path fill-rule="evenodd" clip-rule="evenodd" d="M19.155 59.5513H39.182V56.5513H19.155V59.5513Z" fill="#002F6C"/>
<path fill-rule="evenodd" clip-rule="evenodd" d="M16.389 19.5523H20.237V30.3253H23.354V19.5523H27.193V16.8593H16.389V19.5523Z" fill="#002F6C"/>
<path fill-rule="evenodd" clip-rule="evenodd" d="M35.464 24.6963H32.827L34.132 20.8963L35.464 24.6963ZM35.639 16.8593H32.677L27.725 30.3263H30.885L31.895 27.3813H36.435L37.504 30.3263H40.73L35.699 17.0213L35.639 16.8613V16.8593Z" fill="#002F6C"/>
<path fill-rule="evenodd" clip-rule="evenodd" d="M49.506 23.4043L53.464 16.8593H50.011L47.748 20.7793L45.438 16.8593H41.959L45.903 23.3093L41.566 30.3253H45.118L47.7 26.0733L50.274 30.3253H53.848L49.506 23.4043Z" fill="#002F6C"/>
</svg>
