<svg width="79" height="79" viewBox="0 0 79 79" fill="none" xmlns="http://www.w3.org/2000/svg">
<path fill-rule="evenodd" clip-rule="evenodd" d="M9.66749 62.0981C9.66749 60.1041 11.2955 58.4881 13.3035 58.4881C15.3115 58.4881 16.9395 60.1041 16.9395 62.0981C16.9395 64.0921 15.3115 65.7081 13.3035 65.7081C11.2955 65.7081 9.66749 64.0921 9.66749 62.0981ZM6.50049 69.1881H20.0055V32.5831H6.50049V69.1881Z" fill="#002F6C"/>
<path fill-rule="evenodd" clip-rule="evenodd" d="M66.0961 43.4608L57.3311 63.9218C56.6311 65.6018 54.9901 66.6878 53.1501 66.6878H23.7631H22.5051V33.1348C22.5051 31.9148 22.9711 30.7768 23.8201 29.9308L42.0491 11.6968L42.1611 11.8078L44.2351 13.8628C44.7991 14.4268 45.1271 15.2048 45.1401 16.0038L43.0501 34.3848H61.8481C65.5051 34.3848 66.3981 35.2778 66.3981 38.9358C66.3981 40.6538 66.2301 43.0468 66.0961 43.4608ZM65.6061 31.8848H61.8481H49.6111L51.3091 17.0918L51.3931 16.1688L51.3991 16.0558C51.3991 14.5798 50.8011 13.1358 49.7561 12.0908L47.2851 9.64377C46.8961 9.25777 46.3921 9.06277 45.8821 9.04377V9.03577H42.0921V9.04177C41.5371 9.03077 40.9801 9.23077 40.5601 9.64977L22.0531 28.1608C20.7321 29.4798 20.0051 31.2468 20.0051 33.1348V69.1878H25.0871H53.1501H56.9081C59.7591 69.1878 62.3051 67.4988 63.3921 64.8948L72.1661 44.4088C72.6271 43.2328 72.6561 38.9778 72.6561 38.9358C72.6561 33.9278 70.6131 31.8848 65.6061 31.8848Z" fill="#002F6C"/>
</svg>
