<svg width="79" height="79" viewBox="0 0 79 79" fill="none" xmlns="http://www.w3.org/2000/svg">
<path fill-rule="evenodd" clip-rule="evenodd" d="M34.1217 46.0763L26.2987 40.6603C26.1607 40.5643 25.9707 40.5993 25.8747 40.7373L23.9447 43.5263C23.8497 43.6653 23.8837 43.8543 24.0217 43.9503L35.1567 51.6583C35.2957 51.7533 35.4847 51.7193 35.5807 51.5803L52.0557 27.7833C52.1507 27.6443 52.1167 27.4543 51.9777 27.3593L49.1677 25.4143C49.0287 25.3193 48.8397 25.3533 48.7437 25.4923L34.5457 45.9993C34.4497 46.1383 34.2597 46.1723 34.1217 46.0763Z" fill="#002F6C"/>
<path fill-rule="evenodd" clip-rule="evenodd" d="M38.2109 67.9484C21.7969 67.9484 8.44287 54.5944 8.44287 38.1804C8.44287 21.7664 21.7969 8.41338 38.2109 8.41338C54.6239 8.41338 67.9779 21.7664 67.9779 38.1804C67.9779 54.5944 54.6239 67.9484 38.2109 67.9484ZM65.3799 20.8064C59.6389 11.8584 49.6089 5.91138 38.2109 5.91138C20.4189 5.91138 5.94287 20.3864 5.94287 38.1794C5.94287 45.3124 8.27387 51.9094 12.2089 57.2574C17.9489 66.2114 27.9819 72.1614 39.3849 72.1614C57.1769 72.1614 71.6519 57.6864 71.6519 39.8944C71.6519 32.7564 69.3179 26.1564 65.3799 20.8064Z" fill="#002F6C"/>
</svg>
