<svg width="79" height="79" viewBox="0 0 79 79" fill="none" xmlns="http://www.w3.org/2000/svg">
<path fill-rule="evenodd" clip-rule="evenodd" d="M19.021 61.1943C18.8123 61.413 18.5619 61.5878 18.2846 61.7084C18.0073 61.829 17.7088 61.893 17.4064 61.8966C17.1041 61.9002 16.8041 61.8433 16.524 61.7292C16.244 61.6152 15.9895 61.4464 15.7757 61.2327C15.5618 61.0189 15.3928 60.7646 15.2786 60.4846C15.1644 60.2046 15.1073 59.9047 15.1107 59.6023C15.1141 59.3 15.1779 59.0014 15.2983 58.724C15.4188 58.4467 15.5934 58.1962 15.812 57.9873C16.2394 57.5719 16.8131 57.3414 17.409 57.3456C18.005 57.3497 18.5754 57.5881 18.997 58.0093C19.4186 58.4305 19.6576 59.0007 19.6623 59.5967C19.6669 60.1926 19.437 60.7665 19.022 61.1943H19.021ZM18.652 54.9853C17.8435 54.7693 16.9925 54.7695 16.1841 54.9859C15.3758 55.2023 14.6384 55.6273 14.046 56.2183C13.4553 56.8109 13.0306 57.5483 12.8142 58.3566C12.5978 59.1649 12.5974 60.0158 12.813 60.8243C13.0861 61.8359 13.6841 62.7297 14.5149 63.3682C15.3456 64.0068 16.3632 64.3546 17.411 64.3583C18.6773 64.3581 19.892 63.8561 20.789 62.9623C21.3795 62.3695 21.8043 61.6322 22.0208 60.824C22.2373 60.0158 22.2381 59.1649 22.023 58.3563C21.8056 57.5482 21.3797 56.8114 20.7879 56.2198C20.1961 55.6282 19.4592 55.2024 18.651 54.9853" fill="#002F6C"/>
<path fill-rule="evenodd" clip-rule="evenodd" d="M23.297 65.4693C20.055 68.7093 14.78 68.7093 11.539 65.4693C8.29702 62.2273 8.29702 56.9523 11.539 53.7103C11.939 53.3113 12.38 52.9513 12.851 52.6413C13.202 52.4093 13.413 52.0173 13.413 51.5973V24.6933C13.413 24.2673 13.195 23.8703 12.837 23.6403C12.3286 23.3174 11.8569 22.9402 11.43 22.5153C8.39002 19.4733 8.20102 14.6423 10.867 11.3803L10.924 15.7823C10.929 16.1523 11.097 16.5003 11.382 16.7343L16.416 20.8513C16.6324 21.0289 16.9023 21.1285 17.1821 21.1342C17.462 21.1398 17.7357 21.0511 17.959 20.8823L23.506 16.7073C23.812 16.4773 23.996 16.1203 24.004 15.7383L24.094 11.8313C26.394 15.0743 26.092 19.6113 23.187 22.5163C22.798 22.9063 22.367 23.2583 21.904 23.5663C21.7327 23.6804 21.5921 23.835 21.4948 24.0164C21.3975 24.1978 21.3464 24.4004 21.346 24.6063V51.5523C21.346 51.9773 21.562 52.3723 21.919 52.6033C22.422 52.9273 22.885 53.3003 23.297 53.7113C24.0716 54.4817 24.6856 55.398 25.1036 56.4073C25.5215 57.4167 25.7351 58.4989 25.732 59.5913C25.7349 60.6834 25.5211 61.7652 25.1032 62.7741C24.6852 63.7831 24.0713 64.6991 23.297 65.4693ZM26.353 25.1963C26.745 24.8993 27.116 24.5763 27.463 24.2293C31.678 20.0123 31.678 13.1523 27.463 8.93428C27.0555 8.53288 26.6168 8.1644 26.151 7.83228C25.811 7.58628 23.541 7.48228 22.811 7.61928C22.6561 7.66299 22.5042 7.71643 22.356 7.77928C22.1518 7.88037 21.9792 8.03535 21.8567 8.22746C21.7342 8.41957 21.6665 8.64151 21.661 8.86928L21.518 15.0743L18.579 17.2863L15.922 15.1143L15.839 8.55728C15.836 8.33306 15.7728 8.11378 15.656 7.92237C15.5392 7.73096 15.373 7.57448 15.175 7.46928C14.862 7.30228 13.253 7.20528 12.379 7.28928C11.935 7.34528 11.675 7.40728 11.397 7.58128C10.77 7.99228 10.187 8.46628 9.66202 8.99128C5.44502 13.2063 5.44502 20.0673 9.66202 24.2833C10.045 24.6663 10.464 25.0243 10.912 25.3533V50.9503C10.5095 51.2544 10.1285 51.5862 9.77202 51.9433C5.55402 56.1593 5.55402 63.0203 9.77202 67.2373C10.7754 68.2416 11.9673 69.0379 13.2792 69.5806C14.5912 70.1232 15.9973 70.4014 17.417 70.3993C17.504 70.3993 18.505 70.3753 20.42 70.3273C23.1161 70.2229 25.6719 69.0988 27.571 67.1823C28.5787 66.1808 29.3777 64.9893 29.9216 63.6768C30.4656 62.3643 30.7438 60.957 30.74 59.5363C30.74 56.6493 29.615 53.9333 27.573 51.8913C27.1937 51.5117 26.7862 51.1614 26.354 50.8433V25.1963H26.353ZM56.579 18.2933H45.372C45.2721 18.2928 45.1764 18.2529 45.1057 18.1823C45.0349 18.1118 44.9948 18.0162 44.994 17.9163L44.957 10.0263C44.957 9.92636 44.9964 9.83045 45.0665 9.75933C45.1367 9.68821 45.2321 9.64759 45.332 9.64628H45.352L52.238 9.96828C54.837 10.0903 57.291 10.7853 59.336 11.9803C63.914 14.6523 66.089 18.6873 67.074 21.3333C61.676 18.5313 56.847 18.3033 56.579 18.2933ZM54.232 66.9163C53.94 67.2063 53.597 67.4163 53.232 67.5763C53.179 67.6033 53.129 67.6353 53.072 67.6563C53.062 67.6603 53.055 67.6663 53.045 67.6713L53.039 67.6673C52.639 67.8193 52.209 67.9023 51.769 67.9043C51.3163 67.9001 50.869 67.8049 50.4538 67.6243C50.0385 67.4438 49.6639 67.1815 49.352 66.8533C49.0375 66.5269 48.7918 66.1405 48.6296 65.7172C48.4675 65.2939 48.3921 64.8423 48.408 64.3893L49.628 20.9693L54.24 20.9683L55.239 64.4813C55.2426 64.9339 55.1554 65.3826 54.9824 65.8009C54.8094 66.2191 54.5543 66.5984 54.232 66.9163ZM38.459 18.2233H41.911V9.53628H38.459V18.2233ZM63.646 9.99628C61.254 8.60028 58.405 7.78628 55.405 7.64628L45.468 7.15028C44.841 7.12842 44.2235 7.30899 43.707 7.66528C43.2882 7.26127 42.729 7.03544 42.147 7.03528H35.96V20.7233H42.149C42.709 20.7233 43.217 20.5113 43.612 20.1733C44.1125 20.5716 44.7324 20.79 45.372 20.7933H47.152L45.93 64.3133C45.9028 65.098 46.0335 65.8802 46.3146 66.6134C46.5956 67.3466 47.0212 68.0158 47.566 68.5813C48.1135 69.1558 48.7713 69.6139 49.5 69.9283C50.244 70.3003 51.956 70.5173 54.638 70.5783C55.4095 70.5807 56.1739 70.4307 56.8873 70.1369C57.6007 69.8431 58.249 69.4113 58.795 68.8663C59.3563 68.3123 59.8002 67.6509 60.1001 66.9215C60.4001 66.1922 60.5501 65.4099 60.541 64.6213L59.511 21.2483C61.331 21.6473 65.761 23.4923 67.816 24.6373C68.431 24.9163 69.089 24.9943 69.672 24.9903C70.896 24.9513 71.89 24.8343 72.425 24.4593C72.7097 24.2485 72.9247 23.9571 73.042 23.6228C73.1593 23.2886 73.1736 22.9268 73.083 22.5843C72.428 20.0733 70.198 13.8223 63.645 9.99628H63.646Z" fill="#002F6C"/>
<path fill-rule="evenodd" clip-rule="evenodd" d="M51.7701 67.9243C52.2101 67.9223 52.6401 67.8393 53.0401 67.6873L53.0451 67.6912L53.0731 67.6772C53.1281 67.6542 53.1791 67.6212 53.2331 67.5972C53.5971 67.4352 53.9391 67.2273 54.2311 66.9373C54.5536 66.6194 54.8089 66.2399 54.9819 65.8215C55.1549 65.403 55.242 64.954 55.2381 64.5012L54.8401 47.1432H48.8931L48.4081 64.4093C48.3921 64.8621 48.4674 65.3136 48.6296 65.7368C48.7918 66.1599 49.0375 66.5461 49.3521 66.8722C49.664 67.2006 50.0386 67.4629 50.4538 67.6436C50.869 67.8243 51.3163 67.9197 51.7691 67.9243" fill="#002F6C"/>
</svg>
