<svg width="79" height="79" viewBox="0 0 79 79" fill="none" xmlns="http://www.w3.org/2000/svg">
<path fill-rule="evenodd" clip-rule="evenodd" d="M59.1119 32.6293C59.1119 33.0423 58.7929 33.3773 58.3979 33.3773H36.7619C36.2679 33.3773 35.9229 32.8643 36.0899 32.3773L40.2979 18.0993C40.344 17.9569 40.4335 17.8326 40.5539 17.7436C40.6742 17.6547 40.8193 17.6056 40.9689 17.6033H58.3999C58.7939 17.6033 59.1129 17.9383 59.1129 18.3513V32.6293H59.1119Z" fill="#002F6C"/>
<path fill-rule="evenodd" clip-rule="evenodd" d="M52.653 50.0723C52.6546 48.7167 53.1938 47.4171 54.1523 46.4586C55.1109 45.5001 56.4105 44.9609 57.766 44.9593C59.1212 44.9614 60.4201 45.5009 61.3781 46.4594C62.336 47.4179 62.8747 48.7172 62.876 50.0723C62.8747 51.4273 62.336 52.7265 61.378 53.6849C60.42 54.6432 59.1211 55.1824 57.766 55.1843C56.4106 55.183 55.111 54.644 54.1524 53.6856C53.1939 52.7272 52.6546 51.4278 52.653 50.0723ZM50.153 50.0723C50.153 54.2693 53.569 57.6843 57.766 57.6843C61.963 57.6843 65.376 54.2693 65.376 50.0723C65.376 45.8743 61.963 42.4593 57.766 42.4593C53.569 42.4593 50.153 45.8743 50.153 50.0723ZM9.03003 54.3753C9.03082 55.0124 9.28425 55.6231 9.73473 56.0736C10.1852 56.5241 10.796 56.7775 11.433 56.7783C12.0697 56.777 12.6798 56.5233 13.1297 56.0728C13.5796 55.6224 13.8325 55.0119 13.833 54.3753C13.8322 53.7389 13.5792 53.1288 13.1293 52.6788C12.6794 52.2287 12.0694 51.9753 11.433 51.9743C10.7963 51.9748 10.1858 52.2279 9.7355 52.6781C9.28518 53.1282 9.03182 53.7386 9.03103 54.3753H9.03003Z" fill="#002F6C"/>
<path fill-rule="evenodd" clip-rule="evenodd" d="M46.512 50.2433C46.512 44.0383 51.56 38.9893 57.765 38.9893C63.97 38.9893 69.019 44.0393 69.019 50.2433C69.019 56.4483 63.969 61.4963 57.765 61.4963C51.56 61.4963 46.512 56.4483 46.512 50.2433ZM31.642 47.2333V31.2383L36.488 16.1363C36.7282 15.3805 37.2031 14.721 37.8436 14.2535C38.4841 13.786 39.257 13.5347 40.05 13.5363H63.506V37.7563C61.7071 36.9209 59.7474 36.4885 57.764 36.4893C51.214 36.4893 45.731 41.0943 44.353 47.2333H31.642ZM20.267 53.2193C20.0934 51.9803 19.6592 50.7922 18.993 49.7333H44.037C44.032 49.9043 44.012 50.0713 44.012 50.2433C44.012 51.2673 44.142 52.2593 44.359 53.2193H20.267ZM5 54.4193C5.00185 52.7145 5.67989 51.0801 6.88535 49.8746C8.09081 48.6692 9.72523 47.9911 11.43 47.9893C13.1347 47.9914 14.769 48.6695 15.9744 49.8749C17.1798 51.0803 17.8579 52.7146 17.86 54.4193C17.8581 56.124 17.1801 57.7585 15.9747 58.9639C14.7692 60.1694 13.1348 60.8474 11.43 60.8493C9.72523 60.8474 8.09081 60.1694 6.88535 58.9639C5.67989 57.7585 5.00185 56.124 5 54.4193ZM7.664 39.5203C7.66393 38.7285 7.92518 37.9588 8.40722 37.3307C8.88927 36.7025 9.56515 36.251 10.33 36.0463L29.14 32.9103V47.2343H16.65C15.1336 46.1324 13.3074 45.5388 11.433 45.5383C10.1295 45.5392 8.84221 45.8277 7.663 46.3833V39.5213L7.664 39.5203ZM70.591 15.7203C70.591 14.8553 70.059 14.1443 69.4 13.6083L65.953 11.0363H40.05C38.7271 11.0332 37.4377 11.4518 36.3688 12.2314C35.3 13.0109 34.5074 14.1107 34.106 15.3713L29.301 30.3483L16.954 32.4063V25.1593C16.954 24.7614 16.796 24.3799 16.5147 24.0986C16.2334 23.8173 15.8518 23.6593 15.454 23.6593H10.981V26.6593H13.954V32.9063L9.864 33.5883L9.762 33.6103C8.44666 33.9425 7.27986 34.7043 6.44658 35.7749C5.6133 36.8455 5.16122 38.1636 5.162 39.5203V48.1153C4.31831 48.9443 3.64835 49.9333 3.19128 51.0243C2.73421 52.1152 2.49921 53.2864 2.5 54.4693C2.5 55.4723 2.674 56.4333 2.98 57.3343C4.223 61.9563 11.307 65.4363 15.968 65.4363C20.478 65.4363 24.211 62.0923 24.844 57.7543H46.196C49.516 62.6193 56.656 66.0313 62.301 66.0313C69.911 66.0313 76.103 59.8413 76.103 52.2293C76.103 47.7293 73.935 43.7323 70.591 41.2143V15.7203Z" fill="#002F6C"/>
</svg>
