<svg width="79" height="79" viewBox="0 0 79 79" fill="none" xmlns="http://www.w3.org/2000/svg">
<path fill-rule="evenodd" clip-rule="evenodd" d="M38.5 27.0363H64.5V24.0363H38.5V27.0363Z" fill="#002F6C"/>
<path fill-rule="evenodd" clip-rule="evenodd" d="M46.5 34.0363H63.5V31.0363H46.5V34.0363Z" fill="#002F6C"/>
<path fill-rule="evenodd" clip-rule="evenodd" d="M67.9563 54.8318H64.4245C63.8144 51.0674 60.569 48.1833 56.6566 48.1833C52.7473 48.1833 49.5008 51.0674 48.8907 54.8318H33.5436V19.8531C33.5436 19.176 34.0908 18.6245 34.7638 18.6245H66.9147C67.4893 18.6245 67.9563 19.0953 67.9563 19.6723V54.8318ZM60.2411 60.0659C60.0909 60.2048 59.9345 60.3385 59.768 60.4601C59.6665 60.5326 59.563 60.599 59.4564 60.6643C59.2463 60.7981 59.03 60.9207 58.8016 61.0228C58.7356 61.0524 58.6676 61.0749 58.5996 61.1025C58.3286 61.2107 58.0484 61.3026 57.757 61.3649C57.7296 61.3721 57.6992 61.3741 57.6697 61.3802C57.3418 61.4446 57.0048 61.4834 56.6566 61.4834C56.3094 61.4834 55.9724 61.4446 55.6445 61.3802C55.6161 61.3741 55.5856 61.3721 55.5562 61.3649C55.2658 61.3026 54.9867 61.2107 54.7156 61.1025C54.6486 61.0749 54.5786 61.0524 54.5136 61.0228C54.2852 60.9207 54.068 60.7971 53.8578 60.6654C53.7523 60.599 53.6487 60.5326 53.5482 60.4601C53.3817 60.3385 53.2244 60.2048 53.0731 60.0659C52.9675 59.9688 52.866 59.8728 52.7686 59.7687V59.7676C51.8752 58.8076 51.3169 57.5259 51.3169 56.1094C51.3169 54.7951 51.8072 53.6053 52.5879 52.6708C52.6457 52.6013 52.6985 52.5288 52.7584 52.4635C52.8873 52.3246 53.0264 52.199 53.1685 52.0744C53.2721 51.9835 53.3756 51.8946 53.4863 51.8109C53.6172 51.7128 53.7523 51.6219 53.8923 51.5351C54.0355 51.4463 54.1857 51.3666 54.338 51.2921C54.4669 51.2287 54.5938 51.1654 54.7288 51.1123C54.9197 51.0368 55.1187 50.9806 55.3217 50.9275C55.4333 50.8979 55.542 50.8601 55.6577 50.8376C55.9805 50.7753 56.3115 50.7365 56.6525 50.7365C56.6546 50.7365 56.6556 50.7365 56.6566 50.7365C56.6586 50.7365 56.6597 50.7365 56.6617 50.7365C57.0028 50.7365 57.3347 50.7753 57.6575 50.8376C57.7733 50.8601 57.8809 50.8979 57.9936 50.9275C58.1956 50.9806 58.3945 51.0368 58.5874 51.1123C58.7204 51.1654 58.8473 51.2287 58.9762 51.2921C59.1305 51.3666 59.2787 51.4463 59.4239 51.5351C59.563 51.6219 59.698 51.7128 59.829 51.8109C59.9406 51.8946 60.0431 51.9835 60.1477 52.0744C60.2888 52.199 60.4279 52.3246 60.5568 52.4635C60.6177 52.5299 60.6695 52.6013 60.7274 52.6708C61.508 53.6063 61.9983 54.7951 61.9983 56.1094C61.9983 57.6802 61.3131 59.0824 60.2411 60.0659ZM31.0058 54.8328H27.7887C27.1786 51.0684 23.9332 48.1833 20.0208 48.1833C16.1104 48.1833 12.864 51.0684 12.2549 54.8328H9.62362C9.3008 54.8328 9.03788 54.5683 9.03788 54.2436V39.7894C9.03788 39.3329 9.20741 38.8968 9.51703 38.5608L20.098 27.0511C20.437 26.6824 20.9182 26.471 21.4177 26.471H31.0058V54.8328ZM23.9098 59.7676V59.7687C23.8134 59.8728 23.7109 59.9688 23.6063 60.0648C23.454 60.2048 23.2977 60.3385 23.1302 60.4611C23.0297 60.5336 22.9262 60.599 22.8206 60.6654C22.6105 60.7981 22.3942 60.9207 22.1658 61.0228C22.0998 61.0524 22.0318 61.0759 21.9628 61.1025C21.6928 61.2107 21.4126 61.3026 21.1212 61.3649C21.0928 61.3721 21.0634 61.3741 21.0339 61.3802C20.706 61.4446 20.368 61.4834 20.0208 61.4834C19.6736 61.4834 19.3356 61.4446 19.0087 61.3802C18.9793 61.3741 18.9498 61.3721 18.9204 61.3649C18.63 61.3026 18.3509 61.2107 18.0788 61.1025C18.0118 61.0759 17.9428 61.0524 17.8768 61.0228C17.6484 60.9207 17.4322 60.7971 17.222 60.6654C17.1175 60.599 17.0129 60.5336 16.9134 60.4611C16.7469 60.3385 16.5886 60.2058 16.4373 60.0659C16.3317 59.9688 16.2292 59.8728 16.1328 59.7687C16.1328 59.7676 16.1318 59.7676 16.1318 59.7676C15.2384 58.8076 14.6811 57.5259 14.6811 56.1094C14.6811 55.6672 14.7491 55.2444 14.8496 54.8328C14.8496 54.8318 14.8506 54.8318 14.8506 54.8318C15.0486 54.0209 15.4333 53.2917 15.9511 52.6718C16.0089 52.6024 16.0617 52.5299 16.1216 52.4635C16.2505 52.3246 16.3896 52.2 16.5307 52.0754C16.6353 51.9835 16.7398 51.8946 16.8495 51.8109C16.9814 51.7128 17.1154 51.6219 17.2555 51.5362C17.3997 51.4463 17.5489 51.3666 17.7022 51.2921C17.8311 51.2287 17.958 51.1654 18.092 51.1123C18.2829 51.0368 18.4839 50.9806 18.6859 50.9275C18.7975 50.8979 18.9062 50.8601 19.0209 50.8376C19.3437 50.7753 19.6746 50.7365 20.0167 50.7365C20.0178 50.7365 20.0198 50.7365 20.0208 50.7365C20.0218 50.7365 20.0238 50.7365 20.0249 50.7365C20.367 50.7365 20.6979 50.7753 21.0217 50.8376C21.1365 50.8601 21.2441 50.8979 21.3578 50.9275C21.5588 50.9806 21.7587 51.0368 21.9516 51.1123C22.0846 51.1654 22.2115 51.2287 22.3404 51.2921C22.4947 51.3666 22.6429 51.4463 22.7871 51.5351C22.9272 51.6219 23.0612 51.7128 23.1921 51.8109C23.3038 51.8946 23.4084 51.9835 23.5119 52.0754C23.653 52.2 23.7921 52.3246 23.92 52.4635C23.9819 52.5299 24.0337 52.6024 24.0916 52.6718C24.6103 53.2917 24.995 54.0209 25.193 54.8318V54.8328C25.2945 55.2444 25.3625 55.6672 25.3625 56.1094C25.3625 57.5259 24.8042 58.8076 23.9098 59.7676ZM72.0717 20.3382C72.0727 20.328 72.0747 20.3229 72.0768 20.3137C72.0463 20.2677 72.0209 20.2351 71.9915 20.1911C71.9265 20.0829 71.8555 19.9818 71.7803 19.8817C69.946 17.1906 68.7795 16.6013 68.7795 16.6013L68.7866 16.6187C68.2405 16.2786 67.603 16.0723 66.9147 16.0723H34.7638C32.6919 16.0723 31.0058 17.7687 31.0058 19.8531V23.9178H21.4177C20.2127 23.9178 19.0523 24.4284 18.2352 25.3179L7.65321 36.8277C6.90911 37.6366 6.5 38.6885 6.5 39.7894V54.2436C6.5 54.8533 6.6807 55.416 6.98017 55.898L6.97002 55.897C6.97002 55.897 7.85726 57.5668 9.52617 58.9128C9.68656 59.064 9.86218 59.1937 10.051 59.3081C10.0743 59.3244 10.0957 59.3438 10.12 59.3602C10.1282 59.3612 10.1342 59.3581 10.1424 59.3581C10.5921 59.6114 11.1027 59.7676 11.6539 59.7676H13.0386C14.3552 62.3004 16.9885 64.0366 20.0208 64.0366C23.0541 64.0366 25.6874 62.3004 27.004 59.7676H34.4877H35.5739H49.6754C50.9921 62.3004 53.6254 64.0366 56.6566 64.0366C59.6899 64.0366 62.3232 62.3004 63.6398 59.7676H71.0718C71.8727 59.7676 72.5244 59.113 72.5244 58.3072V22.056C72.5244 21.4299 72.3509 20.8509 72.0717 20.3382Z" fill="#002F6C"/>
</svg>
