<svg width="79" height="79" viewBox="0 0 79 79" fill="none" xmlns="http://www.w3.org/2000/svg">
<path fill-rule="evenodd" clip-rule="evenodd" d="M33.9631 72.1803C28.6031 72.0823 26.6611 67.2053 26.6631 63.9503V63.9433C26.6631 62.7393 27.6411 61.7623 28.8451 61.7633H28.8621C29.1485 61.7634 29.432 61.8199 29.6965 61.9297C29.961 62.0394 30.2013 62.2002 30.4036 62.4028C30.606 62.6055 30.7664 62.846 30.8758 63.1106C30.9852 63.3753 31.0414 63.6589 31.0411 63.9453C31.0501 64.5923 31.2371 67.7513 34.0411 67.8023C34.9701 67.8113 35.6511 67.5913 36.1511 67.1073C37.0871 66.2003 37.3131 64.5123 37.3201 63.9373V55.3563H41.6991V63.9523C41.6991 64.3463 41.6291 67.8653 39.2311 70.2193C37.2811 72.1333 35.1441 72.2023 33.9631 72.1793V72.1803Z" fill="#002F6C"/>
<path fill-rule="evenodd" clip-rule="evenodd" d="M61.749 34.7502C59.616 34.7502 57.679 35.2282 56.143 36.0362V36.0352H56.139C55.243 22.2012 49.516 14.4382 45.458 10.6232C45.4605 10.623 45.463 10.6237 45.465 10.6252L45.462 10.6232C46.1781 10.8151 46.8863 11.0353 47.585 11.2832C47.711 11.3282 47.831 11.3832 47.956 11.4302C48.52 11.6382 49.081 11.8542 49.631 12.0962C49.85 12.1922 50.061 12.3052 50.277 12.4062C50.723 12.6162 51.168 12.8232 51.603 13.0542C51.869 13.1942 52.127 13.3542 52.39 13.5042C52.76 13.7142 53.133 13.9222 53.494 14.1492C53.791 14.3352 54.078 14.5382 54.368 14.7342C54.68 14.9442 54.994 15.1502 55.299 15.3722C55.617 15.6042 55.924 15.8522 56.233 16.0962C56.493 16.3012 56.757 16.5022 57.011 16.7152C57.343 16.9952 57.663 17.2892 57.984 17.5832C58.197 17.7782 58.414 17.9692 58.623 18.1712C58.964 18.4992 59.291 18.8412 59.617 19.1852C59.789 19.3652 59.965 19.5452 60.133 19.7312C60.475 20.1082 60.802 20.4982 61.126 20.8912C61.262 21.0572 61.4 21.2202 61.533 21.3882C61.87 21.8142 62.192 22.2522 62.509 22.6962C62.612 22.8422 62.718 22.9862 62.819 23.1352C63.145 23.6092 63.454 24.0932 63.755 24.5842C63.833 24.7132 63.912 24.8402 63.989 24.9692C64.296 25.4872 64.586 26.0152 64.863 26.5512L65.035 26.8832C65.316 27.4412 65.58 28.0082 65.829 28.5832L65.953 28.8752C66.4939 30.1602 66.9486 31.4798 67.314 32.8252L67.379 33.0692C67.548 33.7132 67.698 34.3632 67.827 35.0212L67.85 35.1192L67.845 35.1182C67.933 35.5762 68.031 36.0312 68.1 36.4962C66.463 35.4122 64.226 34.7502 61.749 34.7502ZM46.035 34.7502C44.028 34.7502 42.201 35.1802 40.712 35.9032V35.9012C40.711 35.9012 40.709 35.9012 40.707 35.9032V10.2362C40.707 10.1602 40.678 10.0942 40.664 10.0222L40.67 10.0252L40.669 10.0222C41.377 10.4582 42.841 11.4652 44.542 13.2122L44.572 13.2442C44.9115 13.5947 45.2413 13.9545 45.561 14.3232L45.655 14.4332C45.798 14.5982 45.94 14.7692 46.084 14.9432L46.202 15.0912C46.3895 15.322 46.5725 15.5564 46.751 15.7942C46.882 15.9682 47.013 16.1462 47.145 16.3292L47.298 16.5442C47.424 16.7232 47.55 16.9062 47.676 17.0932L47.841 17.3412C47.962 17.5262 48.084 17.7162 48.204 17.9102C48.262 18.0002 48.319 18.0922 48.376 18.1852C48.493 18.3772 48.61 18.5752 48.727 18.7752L48.902 19.0802C49.0771 19.3934 49.2488 19.7084 49.417 20.0252C49.527 20.2352 49.636 20.4542 49.744 20.6732C49.802 20.7902 49.859 20.9032 49.916 21.0212C50.022 21.2442 50.128 21.4742 50.232 21.7052C50.287 21.8272 50.344 21.9472 50.398 22.0722C50.502 22.3102 50.603 22.5542 50.704 22.7992C50.756 22.9252 50.809 23.0482 50.859 23.1762C50.961 23.4312 51.059 23.6932 51.156 23.9562C51.203 24.0832 51.252 24.2082 51.298 24.3362C51.397 24.6152 51.493 24.9022 51.589 25.1902C51.629 25.3102 51.671 25.4292 51.71 25.5522C51.811 25.8672 51.906 26.1912 52.001 26.5172C52.031 26.6212 52.063 26.7212 52.094 26.8262C52.202 27.2122 52.306 27.6082 52.406 28.0102L52.444 28.1572C52.782 29.5342 53.066 31.0032 53.283 32.5692C53.292 32.6292 53.299 32.6952 53.307 32.7562C53.368 33.2142 53.426 33.6782 53.476 34.1532C53.488 34.2652 53.496 34.3822 53.507 34.4952C53.545 34.8752 53.583 35.2532 53.612 35.6442L53.607 35.6422C53.656 36.2842 53.696 36.9372 53.722 37.6072C52.121 35.8812 49.312 34.7502 46.035 34.7502ZM38.212 10.2362V35.7842L38.207 35.7822V37.7442C38.197 37.7542 38.186 37.7642 38.176 37.7762C36.606 35.9512 33.706 34.7502 30.319 34.7502C28.218 34.7502 26.306 35.2142 24.781 36.0002V35.9992H24.776C25.884 16.5382 37.682 10.2842 38.209 10.0162C38.228 10.0052 38.241 9.98624 38.261 9.97524L38.26 9.97924L38.265 9.97524C38.246 10.0622 38.212 10.1442 38.212 10.2372V10.2362ZM22.312 35.7032L22.309 35.7012C22.272 36.3052 22.228 36.9002 22.213 37.5282C20.6 35.8482 17.83 34.7512 14.604 34.7512C14.361 34.7512 14.121 34.7612 13.882 34.7752C13.826 34.7782 13.77 34.7772 13.715 34.7802C12.835 34.8382 11.993 34.9802 11.206 35.1952V35.1942C10.128 35.4872 9.152 35.9142 8.326 36.4502C10.301 23.0142 20.91 12.0402 33.866 10.0002C33.532 10.2782 33.178 10.5942 32.815 10.9302C32.8174 10.93 32.8198 10.9294 32.822 10.9282C28.739 14.7082 23.118 22.3022 22.312 35.7032ZM34.196 7.42324C18.67 9.50124 6.091 23.4122 5.53 39.8282C5.51603 40.2065 5.50603 40.5848 5.5 40.9632C5.5 41.6532 6.06 42.2132 6.75 42.2132H9.289C10.619 42.2132 10.643 41.4002 10.668 40.8772C10.743 39.3032 13.131 36.9922 16.357 37.3972C18.942 37.8292 20.96 39.1702 21.172 40.7022V41.1402C21.172 41.8302 21.757 42.3902 22.478 42.3902H24.727C26.011 42.3902 26.371 41.7002 26.371 40.9632C26.371 39.3822 29.02 37.0632 32.073 37.3982C34.806 37.8542 36.93 39.3232 36.93 40.9632C36.93 41.3152 37.211 42.2702 38.212 42.3752V55.3552H40.712V42.3592C41.614 42.2122 42.087 41.5992 42.087 40.9642C42.087 39.3832 44.677 36.9342 47.788 37.3992C50.28 37.8142 52.574 39.3392 52.576 40.5392V41.1412C52.576 41.8312 53.185 42.3912 53.937 42.3912H56.278C57.398 42.3912 57.802 41.5532 57.802 40.9642C57.802 39.3792 60.697 37.0482 63.531 37.3972C66.401 37.8642 68.35 39.3932 68.35 40.8812C68.395 42.0512 68.957 42.3912 69.741 42.3912H71.972C73.236 42.3912 73.602 41.7492 73.582 40.6212C73.408 23.5062 60.108 8.88724 43.882 7.19924C39.509 6.83024 37.448 7.05324 34.196 7.42324Z" fill="#002F6C"/>
</svg>
