<svg width="78" height="78" viewBox="0 0 78 78" fill="none" xmlns="http://www.w3.org/2000/svg">
<path fill-rule="evenodd" clip-rule="evenodd" d="M2 25.025L4.02 27.243L14.694 17.524L12.674 15.306L2 25.025Z" fill="#004833"/>
<path fill-rule="evenodd" clip-rule="evenodd" d="M12.1731 26.43L14.1961 28.645L21.1291 22.315L19.1061 20.1L12.1731 26.43Z" fill="#004833"/>
<path fill-rule="evenodd" clip-rule="evenodd" d="M42.8191 71.941L44.8461 74.153L55.4921 64.403L53.4651 62.191L42.8191 71.941Z" fill="#004833"/>
<path fill-rule="evenodd" clip-rule="evenodd" d="M44.2879 63.905L51.2199 57.576L49.1969 55.36L42.2649 61.689L44.2879 63.905Z" fill="#004833"/>
<path fill-rule="evenodd" clip-rule="evenodd" d="M67.6467 13.1538L56.2407 23.1728C55.9347 23.4418 55.7787 23.8418 55.8227 24.2478L59.0927 54.2408L57.0427 56.0428L46.7977 33.6118C46.6327 33.2528 46.3087 32.9918 45.9217 32.9088C45.8347 32.8898 45.7477 32.8818 45.6607 32.8818C45.3597 32.8818 45.0657 32.9898 44.8347 33.1918L33.4297 43.2118C33.1517 43.4568 32.9957 43.8108 33.0047 44.1808L33.2317 53.4568L32.0837 54.4668L27.3107 44.0148C27.2087 43.7928 27.0427 43.6038 26.8347 43.4738L17.0867 37.3938L18.2357 36.3838L27.4047 37.8048C27.7717 37.8608 28.1427 37.7528 28.4207 37.5088L39.8267 27.4908C40.1237 27.2298 40.2797 26.8428 40.2477 26.4498C40.2157 26.0548 39.9987 25.6998 39.6637 25.4908L18.7407 12.4398L20.7907 10.6388L50.1127 17.7468C50.5087 17.8408 50.9257 17.7388 51.2317 17.4708L62.6377 7.45281C63.4027 6.77981 64.3727 6.43381 65.3967 6.50881C66.4097 6.57281 67.3357 7.02681 68.0047 7.78881C68.6727 8.54981 69.0037 9.52581 68.9377 10.5388C68.8697 11.5528 68.4117 12.4818 67.6467 13.1538ZM73.2537 8.81881C73.2457 8.80681 73.2477 8.80181 73.2387 8.78981C70.9327 5.74881 67.4567 4.43281 67.4567 4.43281V4.43581C66.8557 4.20181 66.2167 4.05581 65.5547 4.01381C63.8787 3.90181 62.2527 4.46281 60.9877 5.57381L50.0697 15.1638L20.7487 8.05581C20.3507 7.96181 19.9347 8.06281 19.6287 8.33181L15.8267 11.6718C15.5297 11.9328 15.3747 12.3188 15.4067 12.7128C15.4387 13.1068 15.6547 13.4628 15.9907 13.6718L34.7747 25.3878L36.8147 26.8088L27.2097 35.2458L18.0417 33.8248C17.6717 33.7668 17.3027 33.8768 17.0247 34.1208L14.1737 36.6258C13.8757 36.8868 13.7207 37.2728 13.7517 37.6668C13.7847 38.0608 14.0007 38.4168 14.3367 38.6258L25.1927 45.3958L30.5077 57.0348C30.5387 57.1018 30.5807 57.1628 30.6227 57.2228H30.6207C30.6207 57.2228 30.6277 57.2328 30.6317 57.2378C30.6507 57.2648 30.6697 57.2918 30.6917 57.3168C31.0547 57.7888 32.8427 60.0008 34.4437 60.0238C34.8287 60.1068 35.2327 60.0018 35.5297 59.7408L38.3807 57.2358C38.6587 56.9908 38.8147 56.6358 38.8057 56.2658L38.5787 46.9908L46.8427 39.7298L55.4667 58.6108C55.4927 58.6658 55.5277 58.7138 55.5597 58.7638L55.5567 58.7648L55.6047 58.8388C55.6117 58.8458 55.6167 58.8558 55.6237 58.8648C55.9317 59.3128 57.3147 61.1628 59.4017 61.5998C59.4887 61.6188 59.5767 61.6278 59.6637 61.6278C59.9647 61.6278 60.2587 61.5188 60.4887 61.3168L64.2907 57.9768C64.5967 57.7078 64.7517 57.3068 64.7087 56.9018L61.4387 26.9098L72.3557 17.3188C74.8417 15.1338 75.1967 11.4208 73.2537 8.81881Z" fill="#004833"/>
</svg>
