<svg width="78" height="78" viewBox="0 0 78 78" fill="none" xmlns="http://www.w3.org/2000/svg">
<path fill-rule="evenodd" clip-rule="evenodd" d="M40.6361 46.5039C40.2871 46.9159 39.8511 47.1999 39.3371 47.3669V42.1589C39.9621 42.3899 40.4361 42.6889 40.7411 43.0619C41.1091 43.5149 41.2941 44.0529 41.2941 44.6779C41.2941 45.3769 41.0741 45.9849 40.6361 46.5039ZM35.5421 36.3999C35.2441 35.9769 35.0941 35.5169 35.0941 35.0219C35.0941 34.4809 35.2581 33.9859 35.5841 33.5379C35.8751 33.1399 36.2611 32.8499 36.7291 32.6579V37.3449C36.2111 37.0949 35.8111 36.7819 35.5421 36.3999ZM43.5051 40.4589C42.7441 39.5539 41.3491 38.8099 39.3371 38.2199V32.8679C39.9961 33.2929 40.4291 33.9499 40.6081 34.8679L44.1491 34.4059C43.9061 33.0069 43.3461 31.8899 42.4691 31.0549C41.6771 30.3009 40.6241 29.8289 39.3371 29.6109V28.1509H38.9291H36.9001H36.7291V29.5669C35.2071 29.7509 33.9741 30.3329 33.0441 31.3349C32.0781 32.3749 31.5961 33.6599 31.5961 35.1899C31.5961 36.7009 32.0231 37.9859 32.8761 39.0449C33.7021 40.0699 34.9901 40.8409 36.7291 41.3629V47.1839C36.2931 46.9389 35.8911 46.5839 35.5291 46.1059C35.1181 45.5639 34.8381 44.9199 34.6891 44.1739L31.0361 44.5659C31.3161 46.4029 31.9601 47.8259 32.9681 48.8339C33.9381 49.8049 35.1971 50.3889 36.7291 50.6069V53.1859H36.9001H38.9291H39.3371V50.4959C40.9591 50.1919 42.2461 49.5099 43.1901 48.4419C44.2111 47.2849 44.7221 45.8619 44.7221 44.1739C44.7221 42.6619 44.3171 41.4239 43.5051 40.4589Z" fill="#004833"/>
<path fill-rule="evenodd" clip-rule="evenodd" d="M67.2152 27.8174C67.2152 28.3754 66.7622 28.8284 66.2052 28.8284H59.3162L58.7012 24.7324H62.0752C62.7652 24.7324 63.3252 24.1724 63.3252 23.4824V15.5034C63.3252 14.8124 62.7652 14.2534 62.0752 14.2534H14.4612C13.7712 14.2534 13.2112 14.8124 13.2112 15.5034V23.4824C13.2112 24.1724 13.7712 24.7324 14.4612 24.7324H17.0572L16.4432 28.8284H10.5102C9.95324 28.8284 9.50024 28.3754 9.50024 27.8174V11.5094C9.50024 10.9534 9.95324 10.5004 10.5102 10.5004H66.2052C66.7622 10.5004 67.2152 10.9534 67.2152 11.5094V27.8174ZM61.5102 60.2694H14.2492L20.5612 18.2374H55.1972L61.5102 60.2694ZM16.1322 66.3384L16.6682 62.7694H59.0902L59.6262 66.3384H16.1322ZM66.4732 8.0004L66.4882 8.0284C66.3932 8.0204 66.3022 8.0004 66.2052 8.0004H10.5102C8.57424 8.0004 7.00024 9.5744 7.00024 11.5094V27.8174C7.00024 27.8194 7.01624 33.8944 11.5472 33.9204C11.7152 33.9214 11.8632 33.9154 12.0012 33.9054C12.0502 33.9074 12.0962 33.9204 12.1462 33.9204H15.6782L11.5612 61.3344C11.5072 61.6934 11.6122 62.0594 11.8502 62.3354C12.0872 62.6114 12.4332 62.7694 12.7972 62.7694H14.1402L13.4442 67.4024C13.3902 67.7614 13.4962 68.1284 13.7332 68.4034C13.9702 68.6794 14.3172 68.8384 14.6802 68.8384H61.0782C61.4422 68.8384 61.7882 68.6794 62.0252 68.4034C62.2622 68.1284 62.3682 67.7614 62.3142 67.4024L61.6192 62.7694H62.9622C63.3252 62.7694 63.6722 62.6114 63.9092 62.3354C64.1462 62.0594 64.2522 61.6934 64.1982 61.3344L60.0812 33.9204H67.8412C69.7772 33.9204 71.3512 32.3454 71.3512 30.4104V14.1024C71.3512 8.0004 66.4732 8.0004 66.4732 8.0004Z" fill="#004833"/>
</svg>
