<svg width="78" height="78" viewBox="0 0 78 78" fill="none" xmlns="http://www.w3.org/2000/svg">
<path fill-rule="evenodd" clip-rule="evenodd" d="M8.50002 38.269C8.50002 21.855 21.854 8.50199 38.268 8.50199C54.681 8.50199 68.035 21.855 68.035 38.269C68.035 54.683 54.68 68.037 38.268 68.037C21.854 68.037 8.50002 54.683 8.50002 38.269ZM38.268 5.99899C20.476 5.99999 6.00002 20.476 6.00002 38.269C5.99325 45.135 8.18955 51.8221 12.266 57.347C18.006 66.3 28.039 72.25 39.442 72.25C57.234 72.25 71.709 57.775 71.709 39.983C71.7151 33.113 69.5167 26.4224 65.437 20.895C59.696 11.947 49.666 5.99999 38.267 5.99999L38.268 5.99899Z" fill="#004833"/>
<path fill-rule="evenodd" clip-rule="evenodd" d="M54.931 38.297L55 40.377L53.503 44.202L52.689 44.672L50.921 48.632L47.996 49.84L47.248 48.967L45.821 49.437L43.031 47.559L42.557 46.083L40.923 45.745L41.74 43.668L40.312 45.544L39.562 45.076L38.882 43.2L36.503 42.326L32.356 43.2L30.996 44.003L30.52 44.874L27.595 45.209L26.302 46.417L23.854 45.947L24.128 43.668L23.175 41.519L21.272 38.768L21.406 38.031L21.069 37.025L21 35.279L21.406 34.474L24.06 33.064L28.14 30.18L28.75 28.503L29.84 28.368L31.268 25.953L32.151 25.752L33.443 26.825L34.667 26.891L34.394 26.29L36.571 23.337L40.585 24.141L41.263 23.941L41.605 24.341L40.109 26.691L44.934 29.241L45.752 27.094L45.887 24.677L46.907 23L47.589 24.276L47.926 26.624L49.287 27.228L49.832 30.986L52.009 32.796L52.415 34.474L53.299 34.542L54.931 38.297ZM47.316 53.934L46.839 52.456L46.569 51.115L47.791 51.65L49.151 51.382V52.992L48.811 53.797L48.402 53.528L47.996 54L47.316 53.934Z" fill="#004833"/>
</svg>
