<svg width="78" height="78" viewBox="0 0 78 78" fill="none" xmlns="http://www.w3.org/2000/svg">
<path fill-rule="evenodd" clip-rule="evenodd" d="M14.026 23.194H21C21.0849 23.194 21.1663 23.1603 21.2263 23.1003C21.2863 23.0403 21.32 22.9589 21.32 22.874V16.092C21.3197 16.0073 21.2859 15.9262 21.2259 15.8664C21.1659 15.8066 21.0847 15.773 21 15.773H14.027C13.9423 15.7733 13.8612 15.8071 13.8014 15.8671C13.7416 15.9271 13.708 16.0083 13.708 16.093V22.874C13.708 23.051 13.85 23.194 14.028 23.194H14.026ZM26.525 23.194H33.498C33.5829 23.194 33.6643 23.1603 33.7243 23.1003C33.7843 23.0403 33.818 22.9589 33.818 22.874V16.092C33.8177 16.0073 33.7839 15.9262 33.7239 15.8664C33.6639 15.8066 33.5827 15.773 33.498 15.773H26.525C26.4403 15.7733 26.3592 15.8071 26.2994 15.8671C26.2396 15.9271 26.206 16.0083 26.206 16.093V22.874C26.206 23.051 26.348 23.194 26.526 23.194H26.525ZM14.026 35.762H21C21.0849 35.762 21.1663 35.7283 21.2263 35.6683C21.2863 35.6083 21.32 35.5269 21.32 35.442V28.66C21.3197 28.5753 21.2859 28.4942 21.2259 28.4344C21.1659 28.3746 21.0847 28.341 21 28.341H14.027C13.9425 28.3413 13.8615 28.375 13.8017 28.4347C13.742 28.4945 13.7083 28.5755 13.708 28.66V35.442C13.708 35.619 13.85 35.762 14.028 35.762H14.026ZM33.563 28.34H26.591C26.5061 28.34 26.4247 28.3737 26.3647 28.4337C26.3047 28.4937 26.271 28.5751 26.271 28.66V35.443C26.2713 35.5277 26.3051 35.6088 26.3651 35.6686C26.4251 35.7284 26.5063 35.762 26.591 35.762H33.563C33.6479 35.762 33.7293 35.7283 33.7893 35.6683C33.8493 35.6083 33.883 35.5269 33.883 35.442V28.661C33.883 28.5761 33.8493 28.4947 33.7893 28.4347C33.7293 28.3747 33.6479 28.341 33.563 28.341V28.34ZM14.026 48.33H21C21.0849 48.33 21.1663 48.2963 21.2263 48.2363C21.2863 48.1763 21.32 48.0949 21.32 48.01V41.228C21.32 41.1431 21.2863 41.0617 21.2263 41.0017C21.1663 40.9417 21.0849 40.908 21 40.908H14.027C13.9423 40.9083 13.8612 40.9421 13.8014 41.0021C13.7416 41.0621 13.708 41.1433 13.708 41.228V48.011C13.708 48.187 13.85 48.33 14.028 48.33H14.026ZM26.559 48.33H33.532C33.6167 48.3298 33.6978 48.2959 33.7576 48.2359C33.8174 48.1759 33.851 48.0947 33.851 48.01V41.228C33.851 41.1431 33.8173 41.0617 33.7573 41.0017C33.6973 40.9417 33.6159 40.908 33.531 40.908H26.56C26.4751 40.908 26.3937 40.9417 26.3337 41.0017C26.2737 41.0617 26.24 41.1431 26.24 41.228V48.011C26.2403 48.0957 26.2741 48.1768 26.3341 48.2366C26.3941 48.2964 26.4753 48.33 26.56 48.33H26.559ZM14.026 60.898H21C21.0849 60.898 21.1663 60.8643 21.2263 60.8043C21.2863 60.7443 21.32 60.6629 21.32 60.578V53.796C21.32 53.7111 21.2863 53.6297 21.2263 53.5697C21.1663 53.5097 21.0849 53.476 21 53.476H14.027C13.9423 53.4763 13.8612 53.5101 13.8014 53.5701C13.7416 53.6301 13.708 53.7113 13.708 53.796V60.579C13.708 60.755 13.85 60.898 14.028 60.898H14.026ZM33.597 53.477H26.624C26.5393 53.477 26.4581 53.5106 26.3981 53.5704C26.3381 53.6302 26.3043 53.7113 26.304 53.796V60.579C26.3043 60.6637 26.3381 60.7448 26.3981 60.8046C26.4581 60.8644 26.5393 60.898 26.624 60.898H33.597C33.639 60.898 33.6805 60.8897 33.7193 60.8736C33.7581 60.8575 33.7933 60.834 33.8229 60.8042C33.8526 60.7745 33.876 60.7392 33.892 60.7004C33.908 60.6616 33.9161 60.62 33.916 60.578V53.796C33.916 53.7111 33.8823 53.6297 33.8223 53.5697C33.7623 53.5097 33.6809 53.476 33.596 53.476" fill="#004833"/>
<path fill-rule="evenodd" clip-rule="evenodd" d="M40.629 65.254H61.698V29.947H40.629V65.254ZM9.5 65.254H38.129V11.5H9.5V65.254ZM70.038 28.311C70.0372 28.0837 69.9464 27.866 69.7853 27.7055C69.6243 27.5451 69.4063 27.455 69.179 27.455L46.388 27.447V9.868C46.3875 9.63795 46.2959 9.41748 46.1332 9.25482C45.9705 9.09215 45.75 9.00053 45.52 9H8.25C7.56 9 7 9.56 7 10.25V66.504C7 67.194 7.56 67.754 8.25 67.754L63.655 67.782C65.3768 67.7772 67.0262 67.0889 68.2406 65.8683C69.455 64.6477 70.135 62.9948 70.131 61.273L70.038 28.311Z" fill="#004833"/>
<path fill-rule="evenodd" clip-rule="evenodd" d="M57.179 39.022H45.149C45.0924 39.0217 45.0383 38.9991 44.9984 38.959C44.9584 38.9189 44.936 38.8646 44.936 38.808V34.525C44.936 34.407 45.032 34.311 45.149 34.311H57.179C57.296 34.311 57.392 34.407 57.392 34.525V38.808C57.392 38.8646 57.3696 38.9189 57.3297 38.959C57.2898 38.9991 57.2356 39.0217 57.179 39.022ZM57.179 48.187H45.149C45.0926 48.1867 45.0386 48.1642 44.9987 48.1243C44.9588 48.0844 44.9363 48.0304 44.936 47.974V43.69C44.936 43.573 45.032 43.477 45.149 43.477H57.179C57.296 43.477 57.392 43.573 57.392 43.69V47.974C57.3918 48.0304 57.3692 48.0844 57.3294 48.1243C57.2895 48.1642 57.2354 48.1867 57.179 48.187ZM57.179 57.353H45.149C45.0924 57.3527 45.0383 57.3301 44.9984 57.29C44.9584 57.2499 44.936 57.1956 44.936 57.139V52.856C44.936 52.738 45.032 52.642 45.149 52.642H57.179C57.296 52.642 57.392 52.738 57.392 52.856V57.139C57.392 57.1956 57.3696 57.2499 57.3297 57.29C57.2898 57.3301 57.2356 57.3527 57.179 57.353Z" fill="#004833"/>
</svg>
