<svg width="78" height="78" viewBox="0 0 78 78" fill="none" xmlns="http://www.w3.org/2000/svg">
<path fill-rule="evenodd" clip-rule="evenodd" d="M21.3559 24.727H12.7719C12.541 24.727 12.3165 24.8024 12.1323 24.9418C11.9482 25.0811 11.8147 25.2768 11.7519 25.499L9.39593 33.919C8.85176 35.8637 8.57587 37.8736 8.57593 39.893V43.826C8.57593 44.664 9.50893 45.176 10.2079 44.713C12.6309 43.102 15.5979 40.411 22.0639 40.123C22.6359 40.098 23.0939 39.647 23.0939 39.075V25.78C23.0939 25.196 22.6209 24.727 22.0369 24.727" fill="#004833"/>
<path fill-rule="evenodd" clip-rule="evenodd" d="M28.352 37.53H36.924V27.267H28.352V37.53ZM39.424 37.53H47.848V27.267H39.424V37.53ZM50.348 37.53H58.707V27.267H50.348V37.53ZM68.015 51.66C67.104 49.266 64.791 47.557 62.081 47.557C59.371 47.557 57.058 49.267 56.147 51.66H21.461C20.55 49.266 18.238 47.557 15.528 47.557C12.818 47.557 10.505 49.267 9.594 51.66H5.5V38.946C5.5 36.19 5.962 33.474 6.875 30.872L8.824 25.312C9.2154 24.1984 9.94272 23.2336 10.9056 22.5508C11.8685 21.8681 13.0196 21.5009 14.2 21.5H67.97C68.974 21.5 69.791 22.316 69.791 23.32V24.768H27.131L25.852 24.798V38.749L25.881 40.029H69.791V51.66H68.015ZM58.228 53.91C58.2293 52.8885 58.6357 51.9093 59.358 51.187C60.0803 50.4647 61.0595 50.0583 62.081 50.057C63.1026 50.0581 64.082 50.4643 64.8043 51.1867C65.5267 51.909 65.9329 52.8884 65.934 53.91C65.9329 54.9316 65.5267 55.9112 64.8044 56.6337C64.0821 57.3562 63.1026 57.7627 62.081 57.764C61.0594 57.7627 60.0799 57.3562 59.3576 56.6337C58.6353 55.9112 58.2291 54.9316 58.228 53.91ZM11.675 53.91C11.6761 52.8884 12.0823 51.909 12.8047 51.1867C13.527 50.4643 14.5064 50.0581 15.528 50.057C16.5495 50.0583 17.5287 50.4647 18.251 51.187C18.9733 51.9093 19.3797 52.8885 19.381 53.91C19.3799 54.9316 18.9737 55.9112 18.2514 56.6337C17.5291 57.3562 16.5496 57.7627 15.528 57.764C14.5064 57.7627 13.5269 57.3562 12.8046 56.6337C12.0823 55.9112 11.6761 54.9316 11.675 53.91ZM61.208 37.53H69.791V27.267H61.208V37.53ZM66.971 19H14.2C12.5015 19.0013 10.8452 19.5296 9.45959 20.5121C8.074 21.4945 7.02735 22.8826 6.464 24.485L4.515 30.045C3.51129 32.9052 2.99905 35.9148 3 38.946V53.793H3.017C3.0262 53.9293 3.06901 54.0611 3.1416 54.1768C3.21419 54.2925 3.31431 54.3884 3.433 54.456L5.944 55.879C6.209 56.03 6.51 56.109 6.815 56.109H9.575C10.472 58.531 12.798 60.264 15.528 60.264C18.257 60.264 20.583 58.531 21.48 56.109H56.128C57.026 58.531 59.352 60.264 62.081 60.264C64.811 60.264 67.136 58.531 68.034 56.109H75.231C75.2846 56.1091 75.3377 56.0987 75.3873 56.0782C75.4369 56.0578 75.4819 56.0277 75.5198 55.9898C75.5577 55.9519 75.5878 55.9069 75.6082 55.8573C75.6287 55.8077 75.6391 55.7546 75.639 55.701V25.27C75.639 22.996 71.398 19.441 68.94 19.12C68.2854 19.0555 67.6286 19.0155 66.971 19Z" fill="#004833"/>
</svg>
