<svg width="78" height="78" viewBox="0 0 78 78" fill="none" xmlns="http://www.w3.org/2000/svg">
<path fill-rule="evenodd" clip-rule="evenodd" d="M12.1501 19.031H43.3641V16.031H12.1501V19.031Z" fill="#004833"/>
<path fill-rule="evenodd" clip-rule="evenodd" d="M12.1501 26.01H43.3641V23.01H12.1501V26.01Z" fill="#004833"/>
<path fill-rule="evenodd" clip-rule="evenodd" d="M12.1501 32.988H33.0261V29.988H12.1501V32.988Z" fill="#004833"/>
<path fill-rule="evenodd" clip-rule="evenodd" d="M71.2814 26.4472H58.5754C57.9584 26.4472 57.4574 26.9472 57.4574 27.5652V44.6662C57.4574 45.2842 56.9564 45.7842 56.3394 45.7842H29.5514C28.9324 45.7842 28.4324 46.2852 28.4324 46.9032V48.1482V56.2362C28.4324 56.7452 28.8444 57.1582 29.3544 57.1582L50.2664 57.1522C50.4464 57.1462 62.1864 56.7722 67.2734 61.6132C69.0554 63.3102 70.0204 65.4182 70.2084 68.0372C70.2434 68.5332 70.6354 68.9262 71.1344 68.9242H71.1824C71.6904 68.9212 72.0994 68.5092 72.0994 68.0022V27.2652C72.0994 26.8132 71.7334 26.4472 71.2814 26.4472Z" fill="#004833"/>
<path fill-rule="evenodd" clip-rule="evenodd" d="M10.214 44.5097C8.946 45.7167 8.047 47.0977 7.5 48.6857V11.4997H48.667V39.7107L28.124 39.7047C27.617 39.6837 15.628 39.3587 10.214 44.5097ZM48.995 42.2107C48.998 42.2107 49.001 42.2097 49.005 42.2097L51.995 42.2107C53.193 42.2107 54.167 41.2367 54.167 40.0387V11.0687C54.167 9.9277 53.239 8.99969 52.099 8.99969H49.099H10.068H7.068C5.928 8.99969 5 9.9277 5 11.0677V51.8047C5 52.9757 5.939 53.9327 7.149 53.9707V53.9737H7.185C7.193 53.9737 7.2 53.9767 7.208 53.9767H7.221C7.23 53.9767 7.237 53.9737 7.245 53.9737H10.185C10.193 53.9737 10.2 53.9767 10.208 53.9767H10.221C10.23 53.9767 10.237 53.9737 10.245 53.9737H10.296V53.9687C11.398 53.9297 12.309 53.0527 12.389 51.9287C12.553 49.6317 13.387 47.7977 14.938 46.3207C18.652 42.7857 26.589 42.2667 29.746 42.2047L48.995 42.2107Z" fill="#004833"/>
</svg>
