<svg width="78" height="78" viewBox="0 0 78 78" fill="none" xmlns="http://www.w3.org/2000/svg">
<path d="M32 15.1237C33.9177 14.6302 35.9282 14.3676 38 14.3676C40.0718 14.3676 42.0823 14.6302 44 15.1237C45.9177 14.6302 47.9282 14.3676 50 14.3676C63.2548 14.3676 74 25.1128 74 38.3676C74 51.6225 63.2548 62.3676 50 62.3676C47.9282 62.3676 45.9177 62.1051 44 61.6115C42.0823 62.1051 40.0718 62.3676 38 62.3676C35.9282 62.3676 33.9177 62.1051 32 61.6115C30.0823 62.1051 28.0718 62.3676 26 62.3676C12.7452 62.3676 2 51.6225 2 38.3676C2 25.1128 12.7452 14.3676 26 14.3676C28.0718 14.3676 30.0823 14.6302 32 15.1237ZM24.6629 18.4116C14.2406 19.0996 6 27.7713 6 38.3676C6 48.964 14.2406 57.6357 24.6629 58.3237C25.1048 58.3528 25.5507 58.3676 26 58.3676C28.0904 58.3676 30.1059 58.0469 32 57.452C40.1142 54.9035 46 47.3229 46 38.3676C46 29.4124 40.1142 21.8318 32 19.2832C30.1059 18.6884 28.0904 18.3676 26 18.3676C25.5507 18.3676 25.1048 18.3825 24.6629 18.4116L24.6629 18.4116ZM39.3371 18.4116C45.7669 22.7174 50 30.0482 50 38.3676C50 46.6871 45.7669 54.0179 39.3371 58.3237C49.7594 57.6357 58 48.964 58 38.3676C58 27.7713 49.7594 19.0996 39.3371 18.4116ZM51.3371 18.4116C57.7669 22.7174 62 30.0482 62 38.3676C62 46.6871 57.7669 54.0179 51.3371 58.3237C61.7594 57.6357 70 48.964 70 38.3676C70 27.7713 61.7594 19.0996 51.3371 18.4116Z" fill="#004833"/>
<path d="M27.2 51.68H24.08V48.65C21.5 48.32 18.98 47.3 17 45.8L19.34 42.38C20.96 43.61 22.46 44.45 24.23 44.81V40.04C19.91 38.87 17.78 37.19 17.78 33.65C17.78 30.32 20.3 28.13 24.08 27.74V26H27.2V27.8C29.33 28.1 31.16 28.88 32.78 30.02L30.77 33.53C29.57 32.72 28.31 32.09 27.05 31.76V36.29C31.61 37.52 33.56 39.41 33.56 42.77C33.56 46.1 31.01 48.29 27.2 48.71V51.68ZM24.23 35.54V31.49C22.79 31.7 22.16 32.42 22.16 33.38C22.16 34.31 22.58 34.94 24.23 35.54ZM27.05 44.96C28.46 44.75 29.18 44.09 29.18 43.01C29.18 41.99 28.67 41.36 27.05 40.76V44.96Z" fill="#004833"/>
</svg>
