<svg width="78" height="78" viewBox="0 0 78 78" fill="none" xmlns="http://www.w3.org/2000/svg">
<path fill-rule="evenodd" clip-rule="evenodd" d="M37.014 35.276C37.2557 35.0343 37.5426 34.8426 37.8584 34.7118C38.1742 34.581 38.5126 34.5136 38.8545 34.5136C39.1963 34.5136 39.5347 34.581 39.8505 34.7118C40.1663 34.8426 40.4533 35.0343 40.695 35.276C40.9367 35.5177 41.1284 35.8046 41.2592 36.1204C41.39 36.4362 41.4573 36.7747 41.4573 37.1165C41.4573 37.4583 41.39 37.7968 41.2592 38.1126C41.1284 38.4284 40.9367 38.7153 40.695 38.957L43.572 41.835C43.593 41.815 43.619 41.799 43.633 41.775L54.097 22.273C54.1269 22.2171 54.138 22.1531 54.1287 22.0904C54.1194 22.0276 54.0902 21.9696 54.0453 21.9248C54.0004 21.8801 53.9423 21.8509 53.8795 21.8418C53.8168 21.8326 53.7528 21.8439 53.697 21.874L34.197 32.338C34.171 32.351 34.157 32.378 34.137 32.398L37.014 35.276Z" fill="#004833"/>
<path fill-rule="evenodd" clip-rule="evenodd" d="M38.268 68.037C21.854 68.037 8.5 54.683 8.5 38.269C8.5 21.855 21.854 8.502 38.268 8.502C54.681 8.502 68.035 21.855 68.035 38.269C68.035 54.683 54.681 68.037 38.268 68.037ZM65.438 20.895C59.695 11.947 49.665 6 38.267 6C20.476 6 6 20.475 6 38.268C6 45.401 8.331 51.998 12.266 57.346C18.006 66.3 28.04 72.25 39.442 72.25C57.234 72.25 71.709 57.775 71.709 39.983C71.7151 33.1131 69.5167 26.4224 65.437 20.895" fill="#004833"/>
<path fill-rule="evenodd" clip-rule="evenodd" d="M40.6059 14.275C40.6124 13.9537 40.5546 13.6343 40.4361 13.3355C40.3176 13.0367 40.1407 12.7646 39.9157 12.5351C39.6907 12.3056 39.4222 12.1233 39.1258 11.9988C38.8295 11.8744 38.5113 11.8103 38.1899 11.8104C37.8685 11.8104 37.5503 11.8746 37.254 11.9992C36.9577 12.1238 36.6893 12.3062 36.4644 12.5358C36.2395 12.7654 36.0626 13.0376 35.9443 13.3364C35.8259 13.6352 35.7683 13.9547 35.7749 14.276C35.7878 14.9081 36.0479 15.51 36.4995 15.9525C36.9511 16.395 37.5581 16.6429 38.1904 16.6429C38.8226 16.6429 39.4297 16.395 39.8813 15.9525C40.3329 15.51 40.593 14.9081 40.6059 14.276V14.275ZM38.1899 59.396C37.8685 59.3895 37.5491 59.4471 37.2503 59.5656C36.9515 59.684 36.6794 59.8609 36.4498 60.0859C36.2203 60.3108 36.0379 60.5793 35.9134 60.8756C35.7889 61.1719 35.7247 61.4901 35.7247 61.8115C35.7247 62.1329 35.7889 62.4511 35.9134 62.7474C36.0379 63.0437 36.2203 63.3122 36.4498 63.5372C36.6794 63.7621 36.9515 63.939 37.2503 64.0575C37.5491 64.1759 37.8685 64.2335 38.1899 64.227C38.8184 64.2089 39.415 63.9466 39.8531 63.4956C40.2913 63.0447 40.5364 62.4407 40.5364 61.812C40.5364 61.1833 40.2913 60.5793 39.8531 60.1284C39.415 59.6775 38.8184 59.4151 38.1899 59.397V59.396ZM62.0529 35.854C61.4124 35.854 60.7981 36.1084 60.3452 36.5613C59.8923 37.0142 59.6379 37.6285 59.6379 38.269C59.6379 38.9095 59.8923 39.5238 60.3452 39.9767C60.7981 40.4296 61.4124 40.684 62.0529 40.684C62.6934 40.684 63.3076 40.4296 63.7605 39.9767C64.2134 39.5238 64.4679 38.9095 64.4679 38.269C64.4679 37.6285 64.2134 37.0142 63.7605 36.5613C63.3076 36.1084 62.6934 35.854 62.0529 35.854ZM14.2739 35.854C13.6334 35.854 13.0191 36.1084 12.5662 36.5613C12.1133 37.0142 11.8589 37.6285 11.8589 38.269C11.8589 38.9095 12.1133 39.5238 12.5662 39.9767C13.0191 40.4296 13.6334 40.684 14.2739 40.684C14.9144 40.684 15.5286 40.4296 15.9815 39.9767C16.4344 39.5238 16.6889 38.9095 16.6889 38.269C16.6889 37.6285 16.4344 37.0142 15.9815 36.5613C15.5286 36.1084 14.9144 35.854 14.2739 35.854ZM37.0139 38.957C36.526 38.4687 36.252 37.8067 36.252 37.1165C36.252 36.4263 36.526 35.7643 37.0139 35.276L34.1359 32.398C34.1159 32.418 34.0899 32.434 34.0759 32.458L23.6119 51.958C23.5815 52.0139 23.5701 52.0781 23.5792 52.1411C23.5883 52.204 23.6176 52.2624 23.6626 52.3073C23.7075 52.3523 23.7659 52.3816 23.8288 52.3907C23.8918 52.3998 23.956 52.3884 24.0119 52.358L43.5119 41.895C43.5369 41.881 43.5519 41.854 43.5729 41.835L40.6949 38.957C40.2066 39.4446 39.5449 39.7184 38.8549 39.7184C38.1649 39.7184 37.5031 39.4446 37.0149 38.957" fill="#004833"/>
</svg>
