<svg width="78" height="78" viewBox="0 0 78 78" fill="none" xmlns="http://www.w3.org/2000/svg">
<path fill-rule="evenodd" clip-rule="evenodd" d="M30.763 51.597L23.688 44.522L25.809 42.401L32.884 49.476L30.763 51.597Z" fill="#004833"/>
<path fill-rule="evenodd" clip-rule="evenodd" d="M35.4419 46.919L28.3669 39.844L30.4879 37.723L37.5629 44.798L35.4419 46.919Z" fill="#004833"/>
<path fill-rule="evenodd" clip-rule="evenodd" d="M40.121 42.24L33.046 35.165L35.167 33.044L42.242 40.119L40.121 42.24Z" fill="#004833"/>
<path fill-rule="evenodd" clip-rule="evenodd" d="M44.8 37.562L37.724 30.487L39.846 28.366L46.92 35.441L44.8 37.562Z" fill="#004833"/>
<path fill-rule="evenodd" clip-rule="evenodd" d="M49.478 32.883L42.403 25.808L44.524 23.687L51.599 30.762L49.478 32.883Z" fill="#004833"/>
<path fill-rule="evenodd" clip-rule="evenodd" d="M65.841 30.134C63.945 37.794 59.161 45.752 52.372 52.542C45.582 59.332 37.624 64.115 29.965 66.011C23.095 67.711 17.261 66.881 13.361 63.693L25.207 51.847L23.439 50.079L11.594 61.925C8.414 58.024 7.587 52.196 9.285 45.332C11.181 37.672 15.965 29.715 22.755 22.924C31.974 13.704 42.989 8.57003 51.736 8.57003C55.431 8.57003 58.713 9.50103 61.291 11.414L49.585 23.121L51.352 24.888L63.147 13.094C66.643 16.989 67.606 23.002 65.841 30.134ZM59.462 7.39303C55.373 5.71803 50.299 5.53803 44.642 6.93803C36.547 8.94103 28.174 13.958 21.068 21.066C13.96 28.173 8.943 36.546 6.939 44.641C4.88 52.96 6.232 60.027 10.746 64.54C10.968 64.762 11.21 64.959 11.445 65.166C11.457 65.179 15.717 68.915 19.803 70.4C21.938 71.176 24.307 71.553 26.832 71.553C36.31 71.552 47.977 66.218 57.653 56.542C64.761 49.435 69.779 41.062 71.781 32.967C73.834 24.671 72.494 17.621 68.011 13.106C64.865 9.93703 62.765 8.74603 59.462 7.39303Z" fill="#004833"/>
</svg>
