<svg width="78" height="78" viewBox="0 0 78 78" fill="none" xmlns="http://www.w3.org/2000/svg">
<path fill-rule="evenodd" clip-rule="evenodd" d="M65.289 34.4415C65.289 34.9575 64.941 35.3935 64.529 35.3935H62.021V35.3975H12.785V35.3935H10.26C9.848 35.3935 9.5 34.9575 9.5 34.4415V22.3335C9.5 21.8175 9.848 21.3815 10.26 21.3815H64.529C64.941 21.3815 65.289 21.8175 65.289 22.3335V34.4415ZM58.318 66.8645H16.488C14.446 66.8645 12.785 65.2025 12.785 63.1605V37.8975H62.021V63.1605C62.021 65.2025 60.36 66.8645 58.318 66.8645ZM71.136 23.4815C69.358 20.6115 66.002 19.2495 65.884 19.2025C65.47 19.0015 65.014 18.8815 64.529 18.8815H10.26C8.462 18.8815 7 20.4295 7 22.3335V34.4415C7 36.3445 8.462 37.8935 10.26 37.8935H10.285V63.1605C10.285 64.1105 10.506 65.0085 10.89 65.8145L10.873 65.8115C13.231 71.0035 18.975 72.4215 18.975 72.4215L18.967 72.4135C19.52 72.5755 20.104 72.6665 20.709 72.6665H62.539C65.96 72.6665 68.742 69.8835 68.742 66.4635V41.1815C70.477 41.1055 71.869 39.5985 71.869 37.7445V25.6355C71.869 24.8165 71.587 24.0735 71.136 23.4815Z" fill="#004833"/>
<path fill-rule="evenodd" clip-rule="evenodd" d="M52.0858 13.0479C51.7118 14.2179 50.5718 15.6199 48.4988 16.0409L41.6658 17.4299L44.1568 11.7469C44.7568 10.3799 46.1428 9.35791 47.7738 9.08091C48.0618 9.03191 48.3448 9.00691 48.6208 9.00691C49.7588 9.00691 50.7878 9.41091 51.4758 10.1499C52.4718 11.2199 52.2858 12.4239 52.0858 13.0479ZM26.4238 16.0409C24.3508 15.6209 23.2118 14.2189 22.8368 13.0479C22.6378 12.4249 22.4518 11.2199 23.4478 10.1499C24.1338 9.41091 25.1638 9.00691 26.3018 9.00691C26.5788 9.00691 26.8618 9.03191 27.1488 9.08091C28.7808 9.35791 30.1668 10.3799 30.7658 11.7469L33.2568 17.4299L26.4238 16.0409ZM54.4008 7.41791C52.6278 5.50891 49.9048 4.65391 47.1058 5.12891C44.1178 5.63591 41.6468 7.50791 40.4948 10.1339L37.4608 17.0539L34.4278 10.1339C33.2768 7.50791 30.8058 5.63591 27.8168 5.12891C25.0228 4.65391 22.2948 5.50891 20.5208 7.41791C18.8038 9.26391 18.2458 11.8269 19.0278 14.2719C19.9478 17.1459 22.4778 19.3289 25.6288 19.9689L35.1758 21.9089V66.8639H39.6308V21.9329L49.2938 19.9689C52.4458 19.3289 54.9758 17.1459 55.8958 14.2709C56.6778 11.8269 56.1188 9.26391 54.4008 7.41791Z" fill="#004833"/>
</svg>
