<svg width="78" height="78" viewBox="0 0 78 78" fill="none" xmlns="http://www.w3.org/2000/svg">
<path fill-rule="evenodd" clip-rule="evenodd" d="M38.718 5.90002C50.116 5.90002 60.147 11.847 65.888 20.795C69.9667 26.3229 72.1647 33.0133 72.159 39.883C72.159 57.675 57.685 72.15 39.893 72.15C28.489 72.15 18.456 66.2 12.716 57.247C8.64012 51.7214 6.4439 45.0342 6.44996 38.168C6.44996 20.375 20.926 5.90002 38.718 5.90002ZM38.718 8.40202C37.5668 8.40176 36.4165 8.46787 35.273 8.60002C36.531 10.995 35.831 11.97 33.176 11.526C28.797 10.793 34.606 16.769 28.294 17.006C21.982 17.244 24.418 26.166 20.791 26.166C18.448 26.166 16.399 24.338 14.643 20.681C10.9368 25.7581 8.94293 31.8831 8.94996 38.169C8.94996 50.384 16.347 60.905 26.896 65.489C27.728 65.472 28.551 65.539 28.751 65.659C29.587 66.165 28.831 62.636 30.231 62.636C31.629 62.636 38.851 60.496 40.899 61.566C42.947 62.636 47.144 65.093 45.456 65.376C43.95 65.629 42.857 65.993 45.093 67.249C58.453 64.323 68.486 52.395 68.486 38.169C68.486 21.755 55.131 8.40202 38.718 8.40202Z" fill="#004833"/>
<path fill-rule="evenodd" clip-rule="evenodd" d="M48.413 58.1C47.37 58.798 45.238 58.087 44.155 56.309C43.073 54.53 43.368 53.542 42.7771 53.147C42.187 52.752 42.384 52.752 41.793 53.147C41.203 53.542 40.809 53.443 39.923 52.554C39.0371 51.665 38.348 51.27 37.167 51.27C35.987 51.27 35.5931 50.973 34.0181 51.764C32.4431 52.554 31.853 53.839 30.868 53.839C29.884 53.839 28.703 53.739 28.014 54.234C27.325 54.728 27.818 55.024 26.834 55.024C25.849 55.024 24.964 53.74 25.16 52.357C25.357 50.973 23.88 49.097 23.192 48.207C22.502 47.317 21.322 44.354 23.389 42.674C25.455 40.994 28.211 40.698 28.703 39.809C29.195 38.919 29.195 40.049 29.393 38.327C29.589 36.604 30.8691 37.437 31.361 36.449C31.853 35.461 32.9351 33.88 33.6241 34.276C34.314 34.671 34.8051 35.362 35.1991 35.165C35.5931 34.967 35.5931 34.77 35.8881 34.275C36.1831 33.782 36.971 32.695 38.447 32.497C39.851 32.309 40.809 32.3 41.8391 32.751C42.8691 33.202 42.285 33.485 41.5961 34.473C40.9071 35.461 41.793 36.054 42.482 36.252C43.172 36.449 44.8441 38.425 45.5331 38.03C46.2231 37.635 47.009 36.45 47.009 35.56C47.009 34.67 47.403 32.398 47.403 32.102C47.403 31.806 47.8951 31.015 48.584 33.584C49.274 36.153 49.8081 35.268 50.257 36.252C50.7071 37.236 50.7491 37.24 50.7491 38.327C50.7491 39.413 52.9151 42.18 53.4071 42.674C53.8991 43.168 56.8521 47.219 55.8671 49.393C54.883 51.566 53.407 53.543 52.423 55.518C51.438 57.494 49.456 57.402 48.413 58.1ZM48.812 60.355C49.299 60.123 49.692 60.518 49.496 60.892C49.299 61.266 48.962 61.926 48.812 61.926C48.6621 61.926 48.4831 62.056 48.4831 62.346C48.4831 62.636 48.067 62.638 47.896 62.492C47.725 62.346 47.325 61.332 47.419 61.018C47.467 60.858 47.042 60.433 47.291 60.16C47.541 59.886 48.3241 60.587 48.8111 60.355H48.812Z" fill="#004833"/>
<path fill-rule="evenodd" clip-rule="evenodd" d="M31.2021 21.84C29.5601 20.742 24.9601 24.303 24.9601 26.11C24.9601 27.917 27.2911 29.51 28.2861 28.739C29.2801 27.969 32.8461 22.936 31.2021 21.839V21.84ZM29.5181 33.338C30.3201 32.783 23.9361 31.478 21.5481 28.911C19.6901 26.913 19.6621 26.901 18.6201 27.623C17.6601 28.287 21.7481 35.233 29.5181 33.338ZM52.6461 24.371C55.7261 24.371 54.8131 28.601 54.4901 28.95C54.1671 29.3 49.3131 29.607 48.1641 28.95C47.0141 28.293 46.5141 26.178 45.1861 26.178C43.8571 26.178 39.0281 23.819 37.9791 22.071C36.9291 20.323 49.5671 24.371 52.6461 24.371ZM62.5651 49.716C62.5551 50.604 62.3931 52.592 61.2561 52.904C60.4621 53.121 61.4011 54.624 61.8051 54.2C62.5491 53.419 63.6471 53.12 63.2101 51.043C62.7721 48.966 62.5691 49.285 62.5651 49.716ZM60.0101 53.83C59.7131 54.134 59.2361 54.732 58.9301 54.857C58.3601 55.09 57.3901 55.536 56.9261 55.536C56.4621 55.536 55.9171 56.079 55.6101 56.444C55.3031 56.81 55.7041 57.344 56.0831 57.344C56.4631 57.344 57.7151 57.22 57.8151 56.657C57.9151 56.094 58.6651 55.763 58.9311 55.763C59.1971 55.763 60.0811 54.787 60.4221 54.578C60.7641 54.368 60.0811 53.755 60.0091 53.829L60.0101 53.83ZM32.4801 25.485C32.8231 24.406 33.9601 26.4 34.5961 27.186C35.2321 27.973 34.5961 27.973 33.1121 27.973C32.2281 27.973 31.8441 27.845 31.6521 27.795C31.1421 27.663 32.1361 26.563 32.4801 25.485Z" fill="#004833"/>
</svg>
