<svg width="78" height="78" viewBox="0 0 78 78" fill="none" xmlns="http://www.w3.org/2000/svg">
<path fill-rule="evenodd" clip-rule="evenodd" d="M24.8551 57.164V40.328H28.0811V49.263L31.8601 44.968H35.8341L31.6661 49.424L36.1331 57.164H32.6531L29.5851 51.686L28.0811 53.26V57.164H24.8551Z" fill="#004833"/>
<path fill-rule="evenodd" clip-rule="evenodd" d="M40.5751 50.813C40.5751 52.107 40.8251 53.054 41.3271 53.656C41.8271 54.256 42.4471 54.557 43.1821 54.557C43.9711 54.557 44.6371 54.249 45.1801 53.632C45.7241 53.017 45.9961 52.103 45.9961 50.894C45.9961 49.63 45.7361 48.693 45.2151 48.081C44.6941 47.467 44.0351 47.161 43.2401 47.161C42.4661 47.161 41.8281 47.461 41.3271 48.063C40.8261 48.664 40.5751 49.581 40.5751 50.813ZM37.6921 57.968L41.3791 58.416C41.4391 58.844 41.5821 59.14 41.8041 59.301C42.1101 59.531 42.5921 59.645 43.2511 59.645C44.0931 59.645 44.7251 59.518 45.1461 59.266C45.4291 59.097 45.6441 58.826 45.7891 58.45C45.8881 58.183 45.9381 57.688 45.9381 56.97V55.188C44.9731 56.507 43.7561 57.164 42.2861 57.164C40.6481 57.164 39.3501 56.471 38.3931 55.086C37.6421 53.992 37.2671 52.627 37.2671 50.998C37.2671 48.953 37.7601 47.392 38.7431 46.312C39.7271 45.232 40.9501 44.692 42.4121 44.692C43.9211 44.692 45.1651 45.355 46.1451 46.678V44.968H49.1651V55.912C49.1651 57.352 49.0471 58.428 48.8091 59.139C48.5721 59.851 48.2391 60.411 47.8091 60.816C47.3811 61.221 46.8091 61.54 46.0931 61.769C45.3771 61.999 44.4721 62.115 43.3771 62.115C41.3101 62.115 39.8441 61.76 38.9791 61.051C38.1131 60.343 37.6811 59.446 37.6811 58.358C37.6811 58.252 37.6851 58.122 37.6911 57.968" fill="#004833"/>
<path fill-rule="evenodd" clip-rule="evenodd" d="M46.7121 18.294L44.4231 26.684C41.4636 25.741 38.3534 25.3621 35.2541 25.567C34.7534 25.5993 34.2539 25.6466 33.7561 25.709L31.7331 18.294C31.5461 17.608 31.6571 16.908 32.0301 16.422C32.1631 16.247 32.2651 16.193 32.2811 16.189H46.1611C46.1811 16.195 46.2821 16.247 46.4161 16.422C46.7881 16.91 46.8991 17.61 46.7121 18.294ZM46.1641 13.69H27.5541C26.7091 13.69 25.9141 14.12 25.3161 14.903C24.4731 16.006 24.2041 17.52 24.5941 18.951L27.5991 29.965L28.8861 29.477C30.9777 28.6808 33.1774 28.2044 35.4111 28.064C38.616 27.85 41.8293 28.3309 44.8311 29.474L46.1201 29.965L49.1241 18.953C49.5151 17.52 49.2451 16.006 48.4021 14.905C47.8041 14.121 47.0091 13.69 46.1641 13.69Z" fill="#004833"/>
<path fill-rule="evenodd" clip-rule="evenodd" d="M46.069 69.847H27.637C26.6745 69.8452 25.7222 69.6493 24.8371 69.2709C23.9521 68.8925 23.1524 68.3396 22.486 67.645C18.271 63.235 14.18 55.474 14.513 49.172C14.6797 46.133 15.4629 43.1597 16.815 40.433C18.1671 37.7062 20.0599 35.2831 22.378 33.311L22.985 32.796L19.581 20.318C18.769 17.335 19.368 14.134 21.186 11.753C22.766 9.686 25.084 8.5 27.548 8.5H46.158C48.622 8.5 50.94 9.686 52.52 11.753C54.338 14.133 54.938 17.335 54.125 20.318L50.718 32.81L51.321 33.324C53.7936 35.4281 55.7807 38.0433 57.1452 40.9894C58.5097 43.9354 59.2193 47.1423 59.225 50.389C59.225 56.198 55.213 63.451 51.25 67.613C50.5816 68.3153 49.7781 68.8753 48.8877 69.2592C47.9974 69.6431 47.0386 69.843 46.069 69.847ZM58.277 31.949L61.271 20.975C62.287 17.245 61.528 13.231 59.24 10.235C57.185 7.545 54.142 6 50.892 6H27.554C24.304 6 21.262 7.544 19.206 10.236C16.918 13.232 16.159 17.246 17.176 20.975L20.165 31.933C15.3076 36.3432 12.3826 42.489 12.023 49.04C11.635 56.377 16.241 64.723 20.686 69.373C21.5863 70.311 22.6665 71.0579 23.8621 71.5688C25.0576 72.0798 26.3439 72.3445 27.644 72.347H50.803C52.1112 72.3424 53.4049 72.0733 54.6064 71.5561C55.808 71.0388 56.8926 70.284 57.795 69.337C62.101 64.815 66.459 56.854 66.459 50.389C66.4532 46.9153 65.7225 43.481 64.3136 40.3057C62.9047 37.1305 60.8487 34.2843 58.277 31.949Z" fill="#004833"/>
</svg>
