<svg width="78" height="78" viewBox="0 0 78 78" fill="none" xmlns="http://www.w3.org/2000/svg">
<path fill-rule="evenodd" clip-rule="evenodd" d="M26.8429 67.963L41.5629 73.985V51.654L26.8289 45.602L26.8429 67.963Z" fill="#004833"/>
<path fill-rule="evenodd" clip-rule="evenodd" d="M57.4765 36.557V63.173C57.4765 64.443 56.4465 65.473 55.1765 65.473L47.2975 65.474V43.103H24.3535V65.483L14.1715 65.485V36.557H7.40751L35.8245 10.397L64.2445 36.557H57.4765ZM41.1835 7H35.8245L0.999512 39.057H11.6715V67.986L17.0305 67.985V67.986L22.5285 67.983L26.8535 67.982V45.603H44.7975V67.975L51.1565 67.974V67.975L58.8445 67.974C62.4295 67.973 65.3355 65.066 65.3355 61.48V39.057H70.6515H76.0105L41.1835 7Z" fill="#004833"/>
</svg>
