<svg width="78" height="78" viewBox="0 0 78 78" fill="none" xmlns="http://www.w3.org/2000/svg">
<path fill-rule="evenodd" clip-rule="evenodd" d="M59.968 30.8779H35.408L37.783 24.3259C38.099 23.4569 38.924 22.8779 39.85 22.8779H64.407L62.032 29.4309C61.718 30.2989 60.893 30.8779 59.968 30.8779Z" fill="#004833"/>
<path fill-rule="evenodd" clip-rule="evenodd" d="M17.385 44.555H50.385V41.555H17.385V44.555Z" fill="#004833"/>
<path fill-rule="evenodd" clip-rule="evenodd" d="M10.385 51.544H46.385V48.544H10.385V51.544Z" fill="#004833"/>
<path fill-rule="evenodd" clip-rule="evenodd" d="M68.9308 56.3857C68.9308 57.6737 67.8828 58.7207 66.5958 58.7207H8.83476C7.54776 58.7207 6.49976 57.6737 6.49976 56.3857V19.8347C6.49976 18.5477 7.54776 17.4997 8.83476 17.4997H66.5958C67.8828 17.4997 68.9308 18.5477 68.9308 19.8347V56.3857ZM73.3008 19.6017C71.5547 17.0367 68.7848 15.5127 68.7848 15.5127C68.7848 15.5127 68.7767 15.5327 68.7728 15.5417C68.1158 15.2067 67.3828 14.9997 66.5958 14.9997H8.83476C6.16876 14.9997 3.99976 17.1687 3.99976 19.8347V56.3857C3.99976 57.0577 4.13976 57.6977 4.38876 58.2807C4.41776 58.4727 4.53076 58.7317 4.77276 59.0907C6.51676 61.6717 9.30776 63.2067 9.30776 63.2067C9.30776 63.2067 9.31376 63.1917 9.31576 63.1877C10.0048 63.5667 10.7848 63.8027 11.6258 63.8027H69.3857C72.0518 63.8027 74.2208 61.6337 74.2208 58.9677V22.4167C74.2208 21.3647 73.8737 20.3967 73.3008 19.6017Z" fill="#004833"/>
</svg>
