<svg width="78" height="78" viewBox="0 0 78 78" fill="none" xmlns="http://www.w3.org/2000/svg">
<path fill-rule="evenodd" clip-rule="evenodd" d="M41.8563 62.8135C41.8563 65.1335 39.9753 67.0155 37.6553 67.0155C35.3353 67.0155 33.4543 65.1335 33.4543 62.8135C33.4543 60.4935 35.3353 58.6125 37.6553 58.6125C39.9753 58.6125 41.8563 60.4935 41.8563 62.8135Z" fill="#004833"/>
<path fill-rule="evenodd" clip-rule="evenodd" d="M57.205 67.753C57.205 69.041 56.157 70.088 54.87 70.088H20.757C19.47 70.088 18.422 69.041 18.422 67.753V6.836C18.422 5.548 19.47 4.5 20.757 4.5H54.87C56.157 4.5 57.205 5.548 57.205 6.836V67.753ZM61.658 7.546C61.665 7.544 61.684 7.536 61.684 7.536C61.684 7.536 60.238 4.698 57.713 2.874C57.701 2.865 57.692 2.861 57.681 2.853C57.651 2.832 57.62 2.815 57.59 2.795C57.379 2.652 57.202 2.557 57.058 2.505C56.417 2.192 55.708 2 54.948 2H20.835C18.169 2 16 4.169 16 6.836V67.753C16 68.566 16.214 69.324 16.571 69.993C16.567 69.995 16.552 70.001 16.552 70.001C16.552 70.001 17.827 72.454 20.056 74.249C20.907 75.027 22.027 75.514 23.272 75.514H57.386C60.052 75.514 62.221 73.345 62.221 70.679V9.762C62.221 8.959 62.005 8.213 61.658 7.546Z" fill="#004833"/>
<path fill-rule="evenodd" clip-rule="evenodd" d="M24.3769 53.2562H51.4069V10.5762H24.3769V53.2562ZM52.0238 8.07617H23.6029C22.6079 8.07617 21.7979 8.88617 21.7979 9.88017V53.9522C21.7979 54.9462 22.6079 55.7562 23.6029 55.7562H52.0238C53.0189 55.7562 53.8288 54.9462 53.8288 53.9522V9.88017C53.8288 8.88617 53.0189 8.07617 52.0238 8.07617Z" fill="#004833"/>
</svg>
