<svg width="78" height="78" viewBox="0 0 78 78" fill="none" xmlns="http://www.w3.org/2000/svg">
<path fill-rule="evenodd" clip-rule="evenodd" d="M63.5001 54.6001C58.1601 62.6171 49.0431 67.9121 38.7111 67.9121C22.2971 67.9121 8.94312 54.5581 8.94312 38.1441C8.94312 21.7301 22.2971 8.37712 38.7111 8.37712C50.8421 8.37712 61.2951 15.6751 65.9271 26.1091L68.4581 24.8951C67.6991 23.4541 66.8401 22.0731 65.8801 20.7701C60.1391 11.8221 50.1091 5.87512 38.7111 5.87512C20.9191 5.87512 6.44312 20.3501 6.44312 38.1431C6.44312 45.2761 8.77311 51.8731 12.7091 57.2211C18.4491 66.1751 28.4811 72.1251 39.8851 72.1251C51.3471 72.1251 61.4251 66.1131 67.1501 57.0811L63.5001 54.6001Z" fill="#004833"/>
<path fill-rule="evenodd" clip-rule="evenodd" d="M54.1396 23.9019V53.9389C54.1396 54.2009 54.2437 54.4499 54.4267 54.6329C54.8087 55.0199 55.4266 55.0199 55.8076 54.6329L70.7136 39.6149C71.0956 39.2319 71.0956 38.6089 70.7136 38.2239L55.8076 23.2049C55.6236 23.0199 55.3766 22.9179 55.1176 22.9179C54.5776 22.9179 54.1396 23.3589 54.1396 23.9019Z" fill="#004833"/>
<path fill-rule="evenodd" clip-rule="evenodd" d="M39.843 46.6279C39.366 47.1899 38.772 47.5779 38.07 47.8049V40.6979C38.923 41.0129 39.571 41.4199 39.986 41.9299C40.489 42.5469 40.74 43.2819 40.74 44.1349C40.74 45.0899 40.442 45.9199 39.843 46.6279ZM32.891 32.8389C32.484 32.2599 32.28 31.6319 32.28 30.9579C32.28 30.2189 32.503 29.5439 32.948 28.9329C33.346 28.3879 33.871 27.9929 34.511 27.7319V34.1269C33.804 33.7859 33.258 33.3599 32.891 32.8389ZM43.758 38.3779C42.72 37.1419 40.817 36.1259 38.07 35.3219V28.0179C38.969 28.5979 39.561 29.4939 39.805 30.7469L44.636 30.1169C44.305 28.2069 43.541 26.6829 42.345 25.5439C41.263 24.5139 39.825 23.8709 38.07 23.5739V21.5799H37.513H34.743H34.511V23.5119C32.434 23.7639 30.75 24.5589 29.482 25.9249C28.164 27.3449 27.505 29.0989 27.505 31.1869C27.505 33.2489 28.087 35.0029 29.252 36.4479C30.38 37.8469 32.137 38.8989 34.511 39.6119V47.5549C33.916 47.2209 33.367 46.7359 32.872 46.0829C32.312 45.3449 31.93 44.4659 31.726 43.4469L26.741 43.9819C27.123 46.4899 28.002 48.4319 29.377 49.8069C30.701 51.1309 32.419 51.9289 34.511 52.2259V55.7469H34.743H37.513H38.07V52.0759C40.284 51.6599 42.04 50.7299 43.327 49.2729C44.722 47.6929 45.419 45.7519 45.419 43.4469C45.419 41.3849 44.865 39.6939 43.758 38.3779Z" fill="#004833"/>
</svg>
