<svg width="78" height="78" viewBox="0 0 78 78" fill="none" xmlns="http://www.w3.org/2000/svg">
<path fill-rule="evenodd" clip-rule="evenodd" d="M40.592 37.265C40.1803 37.7519 39.6385 38.1115 39.03 38.302V32.042C39.782 32.32 40.352 32.678 40.718 33.127C41.161 33.67 41.382 34.317 41.382 35.069C41.382 35.911 41.119 36.641 40.592 37.265ZM34.47 25.12C34.1209 24.638 33.9326 24.0581 33.932 23.463C33.932 22.812 34.129 22.219 34.52 21.68C34.87 21.2 35.333 20.853 35.897 20.622V26.255C35.274 25.955 34.793 25.58 34.47 25.12ZM44.042 29.998C43.127 28.911 41.452 28.016 39.032 27.307V20.875C39.823 21.385 40.344 22.175 40.559 23.278L44.814 22.723C44.524 21.041 43.851 19.699 42.797 18.695C41.844 17.788 40.578 17.222 39.031 16.96V15.204H35.896V16.904C34.067 17.127 32.584 17.828 31.467 19.032C30.307 20.281 29.727 21.826 29.727 23.665C29.727 25.482 30.239 27.027 31.265 28.299C32.258 29.532 33.805 30.457 35.896 31.085V38.081C35.372 37.787 34.889 37.361 34.452 36.786C33.959 36.135 33.623 35.361 33.443 34.464L29.053 34.934C29.39 37.144 30.163 38.854 31.374 40.066C32.54 41.232 34.054 41.934 35.896 42.196V45.296H39.031V42.063C40.981 41.697 42.528 40.878 43.662 39.593C44.889 38.203 45.505 36.493 45.505 34.463C45.505 32.647 45.015 31.159 44.041 29.998" fill="#004833"/>
<path fill-rule="evenodd" clip-rule="evenodd" d="M49.556 64.324C51.574 64.324 53.441 64.249 55.152 64.132C48.476 67.784 34.678 72.595 19.842 61.567C22.421 61.511 24.875 61.402 27.22 61.251C35.527 63.598 43.235 64.324 49.556 64.324ZM18.386 37.762C18.386 22.118 27.008 9.38999 37.605 9.38999C48.202 9.38999 56.824 22.118 56.824 37.762C56.824 40.979 56.429 43.923 55.724 46.588C46.711 48.169 34.193 48.77 19.179 45.358C18.667 43.023 18.387 40.49 18.387 37.762H18.386ZM71.08 56.94L70.48 54.512C70.338 54.548 64.155 56.014 55.315 56.243C65.461 52.87 69.545 49.101 69.853 48.805L68.122 47.003C68.034 47.087 62.198 52.469 46.577 56.029C37.987 55.369 28.232 53.219 19.335 47.983C27.357 49.774 34.654 50.454 41.095 50.454C60.232 50.454 71.832 44.492 72.558 44.108L71.388 41.898C71.302 41.944 68.333 43.456 63.008 44.945C63.207 43.378 63.314 41.79 63.314 40.203C63.314 23.125 51.414 8.00399 39.513 7.03899C37.647 6.91899 35.626 7.01699 32.256 8.12099C22.859 11.515 15.886 23.639 15.886 38.039C15.886 40.287 16.096 42.534 16.501 44.72C12.8997 43.8001 9.346 42.7027 5.853 41.432L5 43.782C7.449 44.672 9.843 45.45 12.187 46.137C20.409 52.615 29.789 55.947 38.614 57.522C35.234 58.032 31.51 58.443 27.428 58.72C21.0473 56.8727 14.935 54.2004 9.246 50.771L7.956 52.912C11.968 55.3268 16.1878 57.3783 20.565 59.042C17.408 59.125 14.082 59.137 10.543 59.049L10.48 61.549C12.272 61.594 14.013 61.615 15.708 61.615C23.632 68.157 32.205 70.79 39.004 70.79C50.488 70.79 59.094 64.728 60.643 63.562C64.011 63.084 65.985 62.554 66.059 62.534L65.386 60.126C65.196 60.178 52.246 63.646 35.153 60.533C39.571 60.008 43.485 59.321 46.947 58.544C49.07 58.692 51.127 58.764 53.075 58.764C63.452 58.764 70.922 56.979 71.081 56.94H71.08Z" fill="#004833"/>
</svg>
