<svg width="78" height="78" viewBox="0 0 78 78" fill="none" xmlns="http://www.w3.org/2000/svg">
<path fill-rule="evenodd" clip-rule="evenodd" d="M42.762 52.16H37.412V31.994C35.456 33.822 33.152 35.174 30.498 36.05V31.193C31.895 30.736 33.412 29.87 35.05 28.595C36.688 27.318 37.811 25.83 38.42 24.129H42.762V52.16Z" fill="#004833"/>
<path fill-rule="evenodd" clip-rule="evenodd" d="M38.268 68.037C21.855 68.037 8.5 54.683 8.5 38.269C8.5 21.855 21.855 8.502 38.268 8.502C54.681 8.502 68.036 21.855 68.036 38.269C68.036 54.683 54.681 68.037 38.268 68.037ZM65.438 20.895C59.697 11.947 49.666 6 38.268 6C20.476 6 6 20.475 6 38.268C6 45.401 8.331 51.998 12.266 57.346C18.006 66.3 28.039 72.25 39.443 72.25C57.235 72.25 71.709 57.775 71.709 39.983C71.715 33.1132 69.5169 26.4227 65.438 20.895Z" fill="#004833"/>
</svg>
