<svg width="78" height="78" viewBox="0 0 78 78" fill="none" xmlns="http://www.w3.org/2000/svg">
<path fill-rule="evenodd" clip-rule="evenodd" d="M27.791 24.295H51.496V21.295H27.791V24.295Z" fill="#004833"/>
<path fill-rule="evenodd" clip-rule="evenodd" d="M27.791 64.275H51.496V61.275H27.791V64.275Z" fill="#004833"/>
<path fill-rule="evenodd" clip-rule="evenodd" d="M61.2246 69.1045C61.2246 70.3925 60.1766 71.4395 58.8896 71.4395H19.8346C18.5476 71.4395 17.4996 70.3925 17.4996 69.1045V66.1635L17.4616 66.2145V14.1215V12.0395C17.4616 13.0255 18.6616 14.0495 19.9836 14.0625H58.8896C60.1766 14.0625 61.2246 15.1095 61.2246 16.3975V69.1045ZM58.8896 11.5625H56.4266L56.4586 8.03448C56.4716 5.81948 54.6876 4.01348 52.4726 4.00038C52.3186 3.99948 52.1646 4.00648 52.0126 4.02348L19.1396 7.61448L19.1416 7.62348C15.0616 8.09748 15.0276 11.0845 15.0276 11.0845V16.1275C15.0226 16.2195 14.9996 16.3055 14.9996 16.3975V69.1045C14.9996 71.7715 17.1686 73.9395 19.8346 73.9395H58.8896C61.5556 73.9395 63.7246 71.7715 63.7246 69.1045V16.3975C63.7246 13.7315 61.5556 11.5625 58.8896 11.5625Z" fill="#004833"/>
<path fill-rule="evenodd" clip-rule="evenodd" d="M31.4902 35.2675C32.1602 35.4995 32.8552 35.7045 33.5682 35.8785C33.8812 34.9395 34.3392 33.8215 34.9882 32.7895C33.6802 33.3815 32.4952 34.2205 31.4902 35.2675ZM44.2982 32.7895C44.9472 33.8215 45.4062 34.9395 45.7182 35.8785C46.4302 35.7045 47.1262 35.4995 47.7942 35.2675C46.7902 34.2205 45.6062 33.3825 44.2982 32.7895ZM35.6632 36.2935C36.6232 36.4395 37.6012 36.5345 38.5852 36.5735V32.0675C37.7522 32.5085 36.9492 33.4595 36.2782 34.8185C36.0532 35.2745 35.8472 35.7695 35.6632 36.2935ZM40.7012 32.0675V36.5735C41.6842 36.5345 42.6632 36.4395 43.6232 36.2935C43.4382 35.7685 43.2322 35.2745 43.0072 34.8185C42.3372 33.4595 41.5352 32.5085 40.7012 32.0675ZM28.3852 42.0355H32.5052C32.5612 40.6085 32.7322 39.2285 33.0132 37.9235C32.0122 37.6755 31.0402 37.3715 30.1122 37.0175C29.1432 38.5315 28.5522 40.2495 28.3852 42.0355ZM34.6242 42.0355H38.5852V38.6925C37.4032 38.6485 36.2302 38.5315 35.0892 38.3465C34.8352 39.5145 34.6792 40.7515 34.6242 42.0355ZM40.7012 42.0355H44.6612C44.6072 40.7505 44.4512 39.5135 44.1972 38.3465C43.0542 38.5315 41.8832 38.6485 40.7012 38.6925V42.0355ZM46.7812 42.0355H50.9012C50.7332 40.2495 50.1422 38.5315 49.1742 37.0175C48.2452 37.3725 47.2722 37.6755 46.2702 37.9235C46.5532 39.2305 46.7242 40.6105 46.7812 42.0355ZM34.6242 44.1535C34.6792 45.4365 34.8352 46.6735 35.0892 47.8415C36.2322 47.6555 37.4062 47.5385 38.5852 47.4965V44.1535H34.6242ZM40.7012 47.4965C41.8812 47.5385 43.0532 47.6555 44.1972 47.8415C44.4512 46.6745 44.6072 45.4375 44.6612 44.1535H40.7012V47.4965ZM46.2702 48.2645C47.2712 48.5115 48.2452 48.8145 49.1742 49.1705C50.1422 47.6575 50.7332 45.9385 50.9012 44.1535H46.7812C46.7242 45.5775 46.5532 46.9565 46.2702 48.2645ZM28.3852 44.1535C28.5522 45.9375 29.1432 47.6565 30.1122 49.1705C31.0412 48.8145 32.0132 48.5115 33.0132 48.2645C32.7322 46.9585 32.5612 45.5795 32.5052 44.1535H28.3852ZM31.4902 50.9205C32.4952 51.9675 33.6802 52.8065 34.9882 53.3985C34.3392 52.3665 33.8812 51.2485 33.5682 50.3095C32.8562 50.4825 32.1612 50.6875 31.4902 50.9205ZM45.7182 50.3095C45.4062 51.2485 44.9472 52.3665 44.2982 53.3985C45.6062 52.8065 46.7902 51.9675 47.7942 50.9205C47.1252 50.6875 46.4292 50.4825 45.7182 50.3095ZM35.6632 49.8955C35.8482 50.4215 36.0542 50.9155 36.2782 51.3695C36.9492 52.7275 37.7522 53.6795 38.5852 54.1215V49.6145C37.5992 49.6545 36.6212 49.7485 35.6632 49.8955ZM40.7012 49.6145V54.1215C41.5352 53.6795 42.3372 52.7275 43.0072 51.3695C43.2322 50.9135 43.4392 50.4195 43.6232 49.8955C42.6652 49.7485 41.6862 49.6545 40.7012 49.6145ZM39.6392 56.5175C36.1402 56.5175 32.8502 55.1955 30.3282 52.7645C27.6772 50.2105 26.2192 46.7765 26.2192 43.0945C26.2192 37.0565 30.2752 31.7305 36.0852 30.1445C40.1562 29.0275 44.4212 29.8565 47.7832 32.4205C51.1412 34.9825 53.0682 38.8725 53.0682 43.0945C53.0682 50.3455 47.3952 56.2385 40.1542 56.5075C39.9822 56.5145 39.8112 56.5175 39.6392 56.5175Z" fill="#004833"/>
</svg>
