<svg width="78" height="78" viewBox="0 0 78 78" fill="none" xmlns="http://www.w3.org/2000/svg">
<path fill-rule="evenodd" clip-rule="evenodd" d="M25.435 22.395C25.2728 22.4211 25.1174 22.4788 24.9776 22.5649C24.8378 22.651 24.7163 22.7638 24.6201 22.8969C24.5239 23.03 24.4548 23.1807 24.4169 23.3405C24.3789 23.5002 24.3729 23.6659 24.399 23.828L27.408 42.556C27.4659 42.8784 27.6479 43.1651 27.915 43.3546C28.1822 43.5441 28.513 43.6212 28.8363 43.5693C29.1597 43.5174 29.4498 43.3407 29.6442 43.0772C29.8386 42.8136 29.9218 42.4843 29.876 42.16L26.868 23.43C26.8152 23.1028 26.6345 22.8099 26.3658 22.6158C26.0971 22.4217 25.7622 22.3423 25.435 22.395ZM37.066 23.208C36.376 23.208 35.816 23.768 35.816 24.458V42.358C35.816 42.6896 35.9477 43.0075 36.1821 43.2419C36.4165 43.4763 36.7344 43.608 37.066 43.608C37.3975 43.608 37.7154 43.4763 37.9498 43.2419C38.1843 43.0075 38.316 42.6896 38.316 42.358V24.458C38.316 23.768 37.756 23.208 37.066 23.208ZM47.889 24.115C47.7264 24.0909 47.5607 24.0992 47.4013 24.1395C47.242 24.1799 47.0923 24.2514 46.9608 24.35C46.8293 24.4485 46.7186 24.5722 46.6352 24.7138C46.5519 24.8555 46.4974 25.0122 46.475 25.175L44.047 42.181C44.0237 42.3435 44.0327 42.5089 44.0734 42.6679C44.1141 42.8269 44.1857 42.9763 44.2841 43.1076C44.3825 43.2389 44.5059 43.3495 44.6471 43.4331C44.7882 43.5168 44.9445 43.5718 45.107 43.595C45.2694 43.6183 45.4348 43.6093 45.5938 43.5686C45.7528 43.5279 45.9022 43.4563 46.0335 43.3579C46.1648 43.2594 46.2754 43.1361 46.3591 42.9949C46.4427 42.8538 46.4977 42.6975 46.521 42.535L48.95 25.529C48.9731 25.3665 48.9641 25.201 48.9233 25.042C48.8825 24.883 48.8108 24.7336 48.7123 24.6023C48.6138 24.471 48.4904 24.3604 48.3491 24.2768C48.2078 24.1932 48.0515 24.1382 47.889 24.115ZM57.986 25.178C57.6647 25.097 57.3244 25.1465 57.0395 25.3157C56.7547 25.485 56.5485 25.7601 56.466 26.081L52.308 42.42C52.2675 42.5791 52.2588 42.7446 52.2823 42.9071C52.3058 43.0696 52.3611 43.2258 52.445 43.3669C52.5289 43.508 52.6398 43.6312 52.7713 43.7294C52.9028 43.8277 53.0524 43.8991 53.2115 43.9395C53.3706 43.98 53.5361 43.9887 53.6985 43.9652C53.861 43.9417 54.0172 43.8864 54.1583 43.8025C54.2994 43.7186 54.4226 43.6077 54.5209 43.4762C54.6191 43.3447 54.6905 43.1951 54.731 43.036L58.889 26.699C58.9295 26.5399 58.9383 26.3744 58.9149 26.2119C58.8914 26.0494 58.8362 25.8931 58.7523 25.752C58.6685 25.6108 58.5576 25.4876 58.4261 25.3893C58.2946 25.291 58.1451 25.2195 57.986 25.179" fill="#004833"/>
<path fill-rule="evenodd" clip-rule="evenodd" d="M26.92 69.283C25.796 69.2817 24.7184 68.8345 23.9237 68.0396C23.129 67.2447 22.6821 66.167 22.681 65.043C22.6823 63.9189 23.1295 62.8412 23.9243 62.0463C24.7192 61.2515 25.7969 60.8043 26.921 60.803C28.0448 60.8049 29.122 61.2522 29.9164 62.047C30.7108 62.8418 31.1577 63.9192 31.159 65.043C31.158 66.167 30.711 67.2447 29.9163 68.0396C29.1216 68.8345 28.044 69.2817 26.92 69.283ZM26.92 58.303C25.1332 58.3051 23.4202 59.0159 22.1568 60.2795C20.8934 61.5431 20.1829 63.2562 20.181 65.043C20.181 68.742 23.177 71.753 26.869 71.781H28.413C32.091 71.735 35.07 68.731 35.07 65.044C35.07 61.373 32.118 58.383 28.464 58.311L26.92 58.304V58.303ZM50.86 65.044C50.8613 63.9202 51.3082 62.8428 52.1026 62.048C52.8971 61.2532 53.9742 60.8059 55.098 60.804C56.2222 60.8051 57.3 61.2521 58.095 62.047C58.8899 62.842 59.337 63.9198 59.338 65.044C59.3367 66.168 58.8895 67.2456 58.0946 68.0403C57.2997 68.835 56.222 69.2819 55.098 69.283C53.974 69.2817 52.8964 68.8345 52.1017 68.0396C51.307 67.2447 50.8601 66.167 50.859 65.043L50.86 65.044ZM55.098 58.304C53.3112 58.3061 51.5982 59.0169 50.3348 60.2805C49.0714 61.5441 48.3609 63.2572 48.359 65.044C48.359 68.742 51.355 71.753 55.047 71.781H56.591V71.779C60.269 71.735 63.248 68.732 63.248 65.044C63.248 61.373 60.296 58.383 56.642 58.311L55.098 58.304ZM61.787 46.698H21.757L21.755 46.691H21.738L16.774 17.097L18.033 17.248L18.034 17.253L67.474 23.171L61.787 46.698ZM73.027 20.752C35.22 16.465 16.302 14.321 16.273 14.32L14.993 7.89C14.9452 7.65204 14.8295 7.43304 14.6598 7.25947C14.4901 7.08591 14.2738 6.96522 14.037 6.912L5.52001 5.03C5.19632 4.95839 4.85743 5.0183 4.57791 5.19656C4.29838 5.37481 4.10112 5.6568 4.02951 5.9805C3.9579 6.3042 4.01782 6.64308 4.19607 6.92261C4.37432 7.20213 4.65632 7.39939 4.98001 7.471L12.7 9.177C14.978 22.342 19.356 47.517 20.457 54.935C20.5011 55.2315 20.6503 55.5022 20.8774 55.6979C21.1045 55.8936 21.3943 56.0011 21.694 56.001H59.476C59.8075 56.001 60.1255 55.8693 60.3599 55.6349C60.5943 55.4005 60.726 55.0825 60.726 54.751C60.726 54.4195 60.5943 54.1015 60.3599 53.8671C60.1255 53.6327 59.8075 53.501 59.476 53.501H22.771L22.145 49.288H66.619C67.24 49.288 67.781 48.862 67.928 48.258L74.176 22.406C74.2209 22.221 74.226 22.0287 74.1911 21.8416C74.1562 21.6545 74.082 21.4769 73.9734 21.3206C73.8648 21.1643 73.7243 21.0328 73.5612 20.9348C73.3981 20.8368 73.216 20.7745 73.027 20.752Z" fill="#004833"/>
</svg>
