<svg width="78" height="78" viewBox="0 0 78 78" fill="none" xmlns="http://www.w3.org/2000/svg">
<path fill-rule="evenodd" clip-rule="evenodd" d="M56.472 68.433H16.087C15.1358 68.4317 14.224 68.0532 13.5514 67.3806C12.8788 66.708 12.5003 65.7962 12.499 64.845V9.58H56.472V63.32C56.624 66.455 57.654 67.74 59.452 68.434H56.472V68.433ZM58.972 56.479V7H10V64.767C10.0021 66.381 10.6442 67.9283 11.7855 69.0695C12.9267 70.2108 14.474 70.8529 16.088 70.855L63.118 70.845C64.2445 70.8445 65.3247 70.3967 66.1212 69.6002C66.9177 68.8037 67.3655 67.7235 67.366 66.597V56.48H58.973L58.972 56.479Z" fill="#004833"/>
<path fill-rule="evenodd" clip-rule="evenodd" d="M18.655 42.92H50.317V39.92H18.655V42.92Z" fill="#004833"/>
<path fill-rule="evenodd" clip-rule="evenodd" d="M18.655 51.218H50.317V48.218H18.655V51.218Z" fill="#004833"/>
<path fill-rule="evenodd" clip-rule="evenodd" d="M18.655 59.515H38.682V56.515H18.655V59.515Z" fill="#004833"/>
<path fill-rule="evenodd" clip-rule="evenodd" d="M15.889 19.516H19.737V30.289H22.854V19.516H26.693V16.823H15.889V19.516Z" fill="#004833"/>
<path fill-rule="evenodd" clip-rule="evenodd" d="M34.964 24.66H32.327L33.632 20.86L34.964 24.66ZM35.139 16.823H32.177L27.225 30.29H30.385L31.395 27.345H35.935L37.004 30.29H40.23L35.199 16.985L35.139 16.825V16.823Z" fill="#004833"/>
<path fill-rule="evenodd" clip-rule="evenodd" d="M49.006 23.368L52.964 16.823H49.511L47.248 20.743L44.938 16.823H41.459L45.403 23.273L41.066 30.289H44.618L47.2 26.037L49.774 30.289H53.348L49.006 23.368Z" fill="#004833"/>
</svg>
