<svg width="78" height="78" viewBox="0 0 78 78" fill="none" xmlns="http://www.w3.org/2000/svg">
<path fill-rule="evenodd" clip-rule="evenodd" d="M55.496 43.43L52.496 43.36C52.499 43.24 52.5 43.12 52.5 43C52.5 33.873 45.512 26.377 36.595 25.572L36.525 22.556C47.135 23.336 55.5 32.19 55.5 43C55.5 43.144 55.499 43.287 55.496 43.43ZM73.49 43.849L70.492 43.779C70.497 43.519 70.5 43.26 70.5 43C70.5 23.787 55.237 8.13899 36.175 7.51999L36.105 4.51599C56.857 5.09999 73.5 22.106 73.5 43C73.5 43.284 73.497 43.566 73.49 43.849Z" fill="#004833"/>
<path fill-rule="evenodd" clip-rule="evenodd" d="M64.4929 43.6401L61.4939 43.5701C61.4979 43.3801 61.4999 43.1901 61.4999 43.0001C61.4999 28.8291 50.3769 17.2561 36.3849 16.5361L36.3149 13.5291C51.9969 14.2161 64.4999 27.1491 64.4999 43.0001C64.4999 43.2141 64.4979 43.4271 64.4929 43.6401Z" fill="#004833"/>
<path fill-rule="evenodd" clip-rule="evenodd" d="M55.791 62.729L53.533 64.915C52.7305 65.6893 51.8876 66.4206 51.008 67.106L50.889 67.212C50.543 67.56 49.326 68.28 47.191 68.521C42.922 69.005 33.811 67.762 20.932 53.998C7.07598 39.203 8.02198 29.892 9.07198 26.576C9.46007 25.3681 10.1886 24.298 11.17 23.494L14.797 19.999C14.8584 19.9385 14.9312 19.8909 15.0112 19.8588C15.0912 19.8267 15.1767 19.8109 15.2629 19.8122C15.3491 19.8135 15.4341 19.8319 15.5131 19.8664C15.5921 19.9009 15.6634 19.9507 15.723 20.013L24.879 29.548L24.877 29.559L25.318 30.02C25.553 30.263 25.613 30.689 25.311 30.981L20.539 35.561L20.535 35.563C17.73 38.269 20.631 42.009 22.187 44.017C24.627 47.177 27.747 50.427 30.967 53.17C34.344 56.042 36.543 57.761 38.65 57.531C39.404 57.445 40.09 57.107 40.668 56.545L45.541 52.027C45.6469 51.9242 45.7842 51.8598 45.931 51.844C46.0292 51.8323 46.1288 51.8441 46.2217 51.8783C46.3145 51.9126 46.3979 51.9683 46.465 52.041L55.803 61.765C55.8657 61.829 55.9152 61.9047 55.9485 61.9879C55.9819 62.071 55.9985 62.1599 55.9973 62.2495C55.9962 62.3391 55.9774 62.4276 55.942 62.5098C55.9066 62.5921 55.8553 62.6666 55.791 62.729ZM53.275 50.315C52.7202 49.7319 51.9593 49.3891 51.155 49.36L45.992 49.352C45.8786 49.3471 45.7651 49.3495 45.652 49.359C44.967 49.4367 44.326 49.7355 43.826 50.21L40.306 53.476C39.381 52.781 38.418 51.972 37.589 51.267C34.495 48.633 31.505 45.516 29.166 42.487C26.949 39.627 26.418 38.19 27.271 37.364C30.313 34.377 32.075 32.637 32.557 32.145C33.281 31.406 33.167 29.855 32.55 28.841L22.523 18.276C21.939 17.676 21.163 17.356 20.346 17.333C16.78 17.326 14.964 17.326 14.9 17.333C14.2063 17.4124 13.5583 17.7189 13.057 18.205L9.58698 21.561C8.31698 22.819 7.21298 24.169 6.68998 25.821C3.13998 37.035 14.191 50.457 19.107 55.706C31.237 68.668 40.49 71.101 45.724 71.101H50.724C51.368 71.101 51.954 71.064 52.474 71.005C54.666 70.758 56.574 70.023 57.602 69.035C58.524 68.313 61.474 65.654 62.728 64.318C63.1906 63.7766 63.4592 63.0962 63.4911 62.3848C63.523 61.6733 63.3164 60.9716 62.904 60.391L53.275 50.315Z" fill="#004833"/>
</svg>
