<svg width="78" height="78" viewBox="0 0 78 78" fill="none" xmlns="http://www.w3.org/2000/svg">
<path fill-rule="evenodd" clip-rule="evenodd" d="M18.521 61.158C18.3123 61.3767 18.0619 61.5515 17.7846 61.6721C17.5073 61.7927 17.2088 61.8567 16.9064 61.8603C16.6041 61.8638 16.3041 61.8069 16.024 61.6929C15.744 61.5789 15.4895 61.4101 15.2757 61.1963C15.0618 60.9826 14.8928 60.7283 14.7786 60.4483C14.6644 60.1683 14.6073 59.8684 14.6107 59.566C14.6141 59.2637 14.6779 58.965 14.7983 58.6877C14.9188 58.4103 15.0934 58.1599 15.312 57.951C15.7394 57.5356 16.3131 57.3051 16.909 57.3092C17.505 57.3134 18.0754 57.5518 18.497 57.973C18.9186 58.3942 19.1576 58.9644 19.1623 59.5604C19.1669 60.1563 18.937 60.7302 18.522 61.158H18.521ZM18.152 54.949C17.3435 54.733 16.4925 54.7332 15.6841 54.9496C14.8758 55.1659 14.1384 55.5909 13.546 56.182C12.9553 56.7746 12.5306 57.512 12.3142 58.3203C12.0978 59.1285 12.0974 59.9795 12.313 60.788C12.5861 61.7996 13.1841 62.6934 14.0149 63.3319C14.8456 63.9704 15.8632 64.3183 16.911 64.322C18.1773 64.3218 19.392 63.8198 20.289 62.926C20.8795 62.3332 21.3043 61.5959 21.5208 60.7877C21.7373 59.9795 21.7381 59.1286 21.523 58.32C21.3056 57.5119 20.8797 56.7751 20.2879 56.1835C19.6961 55.5918 18.9592 55.1661 18.151 54.949" fill="#004833"/>
<path fill-rule="evenodd" clip-rule="evenodd" d="M22.797 65.433C19.555 68.673 14.28 68.673 11.039 65.433C7.79702 62.191 7.79702 56.916 11.039 53.674C11.439 53.275 11.88 52.915 12.351 52.605C12.702 52.373 12.913 51.981 12.913 51.561V24.657C12.913 24.231 12.695 23.834 12.337 23.604C11.8286 23.2811 11.3569 22.9039 10.93 22.479C7.89002 19.437 7.70102 14.606 10.367 11.344L10.424 15.746C10.429 16.116 10.597 16.464 10.882 16.698L15.916 20.815C16.1324 20.9926 16.4023 21.0923 16.6821 21.0979C16.962 21.1035 17.2357 21.0148 17.459 20.846L23.006 16.671C23.312 16.441 23.496 16.084 23.504 15.702L23.594 11.795C25.894 15.038 25.592 19.575 22.687 22.48C22.298 22.87 21.867 23.222 21.404 23.53C21.2327 23.6441 21.0921 23.7987 20.9948 23.9801C20.8975 24.1616 20.8464 24.3642 20.846 24.57V51.516C20.846 51.941 21.062 52.336 21.419 52.567C21.922 52.891 22.385 53.264 22.797 53.675C23.5716 54.4454 24.1856 55.3618 24.6036 56.3711C25.0215 57.3804 25.2351 58.4626 25.232 59.555C25.2349 60.6471 25.0211 61.7289 24.6032 62.7379C24.1852 63.7468 23.5713 64.6629 22.797 65.433ZM25.853 25.16C26.245 24.863 26.616 24.54 26.963 24.193C31.178 19.976 31.178 13.116 26.963 8.89802C26.5555 8.49663 26.1168 8.12814 25.651 7.79602C25.311 7.55002 23.041 7.44602 22.311 7.58302C22.1561 7.62673 22.0042 7.68017 21.856 7.74302C21.6518 7.84412 21.4792 7.9991 21.3567 8.19121C21.2342 8.38332 21.1665 8.60525 21.161 8.83302L21.018 15.038L18.079 17.25L15.422 15.078L15.339 8.52102C15.336 8.29681 15.2728 8.07752 15.156 7.88612C15.0392 7.69471 14.873 7.53822 14.675 7.43302C14.362 7.26602 12.753 7.16902 11.879 7.25302C11.435 7.30902 11.175 7.37102 10.897 7.54502C10.27 7.95602 9.68702 8.43002 9.16202 8.95502C4.94502 13.17 4.94502 20.031 9.16202 24.247C9.54502 24.63 9.96402 24.988 10.412 25.317V50.914C10.0095 51.2182 9.62853 51.55 9.27202 51.907C5.05402 56.123 5.05402 62.984 9.27202 67.201C10.2754 68.2054 11.4673 69.0017 12.7792 69.5443C14.0912 70.0869 15.4973 70.3651 16.917 70.363C17.004 70.363 18.005 70.339 19.92 70.291C22.6161 70.1866 25.1719 69.0626 27.071 67.146C28.0787 66.1445 28.8777 64.953 29.4216 63.6406C29.9656 62.3281 30.2438 60.9207 30.24 59.5C30.24 56.613 29.115 53.897 27.073 51.855C26.6937 51.4755 26.2862 51.1251 25.854 50.807V25.16H25.853ZM56.079 18.257H44.872C44.7721 18.2565 44.6764 18.2166 44.6057 18.1461C44.5349 18.0755 44.4948 17.9799 44.494 17.88L44.457 9.99002C44.457 9.8901 44.4964 9.7942 44.5665 9.72308C44.6367 9.65195 44.7321 9.61134 44.832 9.61002H44.852L51.738 9.93202C54.337 10.054 56.791 10.749 58.836 11.944C63.414 14.616 65.589 18.651 66.574 21.297C61.176 18.495 56.347 18.267 56.079 18.257ZM53.732 66.88C53.44 67.17 53.097 67.38 52.732 67.54C52.679 67.567 52.629 67.599 52.572 67.62C52.562 67.624 52.555 67.63 52.545 67.635L52.539 67.631C52.139 67.783 51.709 67.866 51.269 67.868C50.8163 67.8638 50.369 67.7686 49.9538 67.5881C49.5385 67.4075 49.1639 67.1453 48.852 66.817C48.5375 66.4906 48.2918 66.1042 48.1296 65.6809C47.9675 65.2576 47.8921 64.806 47.908 64.353L49.128 20.933L53.74 20.932L54.739 64.445C54.7426 64.8976 54.6554 65.3464 54.4824 65.7646C54.3094 66.1829 54.0543 66.5622 53.732 66.88ZM37.959 18.187H41.411V9.50002H37.959V18.187ZM63.146 9.96002C60.754 8.56402 57.905 7.75002 54.905 7.61002L44.968 7.11402C44.341 7.09217 43.7235 7.27274 43.207 7.62902C42.7882 7.22502 42.229 6.99919 41.647 6.99902H35.46V20.687H41.649C42.209 20.687 42.717 20.475 43.112 20.137C43.6125 20.5353 44.2324 20.7537 44.872 20.757H46.652L45.43 64.277C45.4028 65.0618 45.5335 65.844 45.8146 66.5772C46.0956 67.3104 46.5212 67.9796 47.066 68.545C47.6135 69.1195 48.2713 69.5777 49 69.892C49.744 70.264 51.456 70.481 54.138 70.542C54.9095 70.5445 55.6739 70.3945 56.3873 70.1007C57.1007 69.8069 57.749 69.3751 58.295 68.83C58.8563 68.276 59.3002 67.6146 59.6001 66.8853C59.9001 66.1559 60.0501 65.3736 60.041 64.585L59.011 21.212C60.831 21.611 65.261 23.456 67.316 24.601C67.931 24.88 68.589 24.958 69.172 24.954C70.396 24.915 71.39 24.798 71.925 24.423C72.2097 24.2122 72.4247 23.9208 72.542 23.5866C72.6593 23.2523 72.6736 22.8905 72.583 22.548C71.928 20.037 69.698 13.786 63.145 9.96002H63.146Z" fill="#004833"/>
<path fill-rule="evenodd" clip-rule="evenodd" d="M51.2701 67.8881C51.7101 67.8861 52.1401 67.8031 52.5401 67.6511L52.5451 67.6551L52.5731 67.6411C52.6281 67.6181 52.6791 67.5851 52.7331 67.5611C53.0971 67.3991 53.4391 67.1911 53.7311 66.9011C54.0536 66.5832 54.3089 66.2037 54.4819 65.7853C54.6549 65.3668 54.742 64.9178 54.7381 64.4651L54.3401 47.1071H48.3931L47.9081 64.3731C47.8921 64.8259 47.9674 65.2774 48.1296 65.7006C48.2918 66.1237 48.5375 66.5099 48.8521 66.8361C49.164 67.1644 49.5386 67.4267 49.9538 67.6074C50.369 67.7881 50.8163 67.8836 51.2691 67.8881" fill="#004833"/>
</svg>
