<svg width="78" height="78" viewBox="0 0 78 78" fill="none" xmlns="http://www.w3.org/2000/svg">
<path fill-rule="evenodd" clip-rule="evenodd" d="M68.8052 65.865H11.0882C9.11024 65.865 7.50024 64.255 7.50024 62.277V25.487V21.893V18.949C8.17124 20.682 9.50883 21.893 11.4362 21.893H68.8052V65.865ZM53.3662 19.393V11H9.24824C6.90224 11 5.00024 12.902 5.00024 15.248V19.393V21.347V62.277C5.00024 65.634 7.73124 68.365 11.0882 68.365H71.3052V19.393H53.3662Z" fill="#004833"/>
<path fill-rule="evenodd" clip-rule="evenodd" d="M73.1484 32.6428C73.7014 32.6428 74.1484 33.0908 74.1484 33.6428V53.6428C74.1484 54.1948 73.7014 54.6428 73.1484 54.6428H56.1484C56.0014 54.6428 55.8604 54.6108 55.7344 54.5538C50.3274 53.8588 46.1484 49.2388 46.1484 43.6428C46.1484 38.0468 50.3274 33.4268 55.7344 32.7328C55.8604 32.6748 56.0014 32.6428 56.1484 32.6428H73.1484ZM56.6484 39.1428C54.1634 39.1428 52.1484 41.1578 52.1484 43.6428C52.1484 46.1278 54.1634 48.1428 56.6484 48.1428C59.1334 48.1428 61.1484 46.1278 61.1484 43.6428C61.1484 41.1578 59.1334 39.1428 56.6484 39.1428Z" fill="#004833"/>
</svg>
