<svg width="180" height="22" viewBox="0 0 180 22" fill="none" xmlns="http://www.w3.org/2000/svg">
<g clip-path="url(#clip0_139_1251)">
<path d="M37.6182 0.716309V4.59042H43.0716V21.2453H47.1959V4.59042H52.6367V0.716309H37.6182Z" fill="white"/>
<path fill-rule="evenodd" clip-rule="evenodd" d="M34.9164 10.2894C36.116 9.33094 36.8064 7.87434 36.7883 6.34062C36.7883 4.59042 36.2953 3.19524 35.2097 2.22983C34.124 1.26441 32.5704 0.716309 30.555 0.716309H21.0273V8.43339L24.0285 10.7441L21.0273 13.0611V21.2453H31.0666C35.0287 21.2453 37.5682 18.8598 37.5682 15.1477C37.683 13.1563 36.6549 11.2728 34.9164 10.2894ZM25.1828 4.49076H30.555C31.9152 4.49076 32.77 5.26932 32.77 6.55862C32.7796 7.14017 32.5464 7.69948 32.1262 8.1024C31.7059 8.50532 31.1367 8.7155 30.555 8.68253H25.189L25.1828 4.49076ZM25.189 17.4397H30.555V17.446C31.8279 17.446 33.369 17.0162 33.369 14.9483C33.369 13.3476 32.3333 12.457 30.4614 12.457H25.189V17.4397Z" fill="white"/>
<path d="M7.45622 11.7843C7.01627 11.7817 6.62596 11.502 6.48285 11.0867C6.43835 10.9801 6.41504 10.8658 6.41422 10.7504C6.41234 10.6386 6.43581 10.5279 6.48285 10.4265C6.61818 10.0073 7.0088 9.72304 7.44998 9.72265H18.8184C18.6134 8.45062 18.0182 7.27335 17.115 6.35305L17.0651 6.29699L15.6362 4.85821L15.5801 4.81461L10.7694 0L0 10.7441L10.7632 21.4945L15.5551 16.6923L15.6362 16.6176L17.0651 15.185L17.1337 15.1103C18.021 14.1918 18.6065 13.025 18.8121 11.7656L7.45622 11.7843Z" fill="#007BC6"/>
<path d="M60.3096 0.666504H69.1736C69.7567 0.666504 70.3982 0.73457 71.098 0.870702C71.8172 1.00683 72.4781 1.28882 73.0807 1.71666C73.7028 2.12506 74.2179 2.7182 74.6261 3.4961C75.0343 4.25455 75.2384 5.25609 75.2384 6.50072C75.2384 8.32878 74.6747 9.73871 73.5473 10.7305C72.4198 11.7223 70.8064 12.2182 68.7071 12.2182H61.5925V21.4946H60.3096V0.666504ZM61.5925 11.1097H68.9112C69.8442 11.1097 70.6315 10.9736 71.273 10.7013C71.9339 10.4096 72.4587 10.0401 72.8475 9.59285C73.2363 9.14556 73.5181 8.64966 73.6931 8.10513C73.868 7.5606 73.9555 7.01608 73.9555 6.47155C73.9555 6.0826 73.8972 5.62559 73.7805 5.10051C73.6639 4.55598 73.4306 4.04063 73.0807 3.55444C72.7309 3.04881 72.2352 2.63069 71.5937 2.30009C70.9717 1.95003 70.1358 1.77501 69.0861 1.77501H61.5925V11.1097Z" fill="white"/>
<path d="M86.3926 18.5192H86.3343C86.1594 18.9664 85.9066 19.3943 85.5762 19.8027C85.2457 20.1916 84.8375 20.5417 84.3516 20.8528C83.885 21.164 83.3505 21.4071 82.7479 21.5821C82.1453 21.7571 81.4844 21.8447 80.7651 21.8447C79.1712 21.8447 77.9368 21.5043 77.0621 20.8237C76.1873 20.1236 75.75 19.054 75.75 17.6149C75.75 16.7397 75.9249 16.0299 76.2748 15.4854C76.6247 14.9214 77.0621 14.4838 77.5869 14.1727C78.1312 13.8421 78.7241 13.6087 79.3656 13.4726C80.0265 13.3364 80.6582 13.2392 81.2608 13.1808L82.9811 13.035C83.7781 12.9767 84.4002 12.8891 84.8472 12.7725C85.3138 12.6363 85.6637 12.4613 85.8969 12.2474C86.1302 12.014 86.276 11.7223 86.3343 11.3722C86.3926 11.0222 86.4218 10.5846 86.4218 10.0595C86.4218 9.65116 86.344 9.27194 86.1885 8.92189C86.033 8.57184 85.79 8.26067 85.4596 7.9884C85.1291 7.71614 84.7015 7.50222 84.1766 7.34664C83.6518 7.19106 83.0103 7.11327 82.2522 7.11327C80.9109 7.11327 79.8224 7.44388 78.9865 8.10509C78.1701 8.7663 77.723 9.76785 77.6452 11.1097H76.5372C76.615 9.45668 77.1398 8.22177 78.1118 7.40498C79.1031 6.56875 80.5027 6.15063 82.3105 6.15063C84.1183 6.15063 85.4304 6.51041 86.2468 7.22996C87.0827 7.93006 87.5006 8.85382 87.5006 10.0012V18.7234C87.5006 18.9373 87.5006 19.1512 87.5006 19.3651C87.5201 19.579 87.5589 19.7735 87.6172 19.9485C87.6756 20.1236 87.7728 20.2694 87.9088 20.3861C88.0449 20.4833 88.2393 20.532 88.492 20.532C88.6864 20.532 88.9585 20.5028 89.3084 20.4444V21.3779C89.0168 21.4557 88.7155 21.4946 88.4045 21.4946C87.9574 21.4946 87.5978 21.4363 87.3257 21.3196C87.073 21.2029 86.8786 21.0473 86.7425 20.8528C86.6064 20.6584 86.5092 20.4347 86.4509 20.1819C86.4121 19.9096 86.3926 19.6179 86.3926 19.3068V18.5192ZM86.3926 12.9767C86.1205 13.3073 85.7025 13.5309 85.1388 13.6476C84.5945 13.7643 83.9822 13.8518 83.3019 13.9101L81.4358 14.0852C80.8915 14.1435 80.3472 14.231 79.8029 14.3477C79.2586 14.4449 78.763 14.62 78.3159 14.8728C77.8882 15.1256 77.5383 15.4756 77.2662 15.9229C76.994 16.3508 76.858 16.9147 76.858 17.6149C76.858 18.7234 77.2079 19.5499 77.9077 20.0944C78.6074 20.6195 79.5697 20.882 80.7943 20.882C82.0578 20.882 83.0589 20.6584 83.7976 20.2111C84.5362 19.7443 85.1 19.2193 85.4887 18.6358C85.8775 18.033 86.1205 17.4593 86.2177 16.9147C86.3343 16.3508 86.3926 15.9715 86.3926 15.7771V12.9767Z" fill="white"/>
<path d="M91.0288 6.50068H92.1368V9.7095H92.1952C92.3895 9.14552 92.6617 8.64962 93.0116 8.22177C93.3809 7.77448 93.7988 7.39527 94.2654 7.08411C94.7513 6.77295 95.2762 6.53958 95.8399 6.384C96.4036 6.22842 96.9771 6.15063 97.5602 6.15063C98.435 6.15063 99.1736 6.25759 99.7762 6.47151C100.398 6.68543 100.904 6.96742 101.292 7.31747C101.681 7.66752 101.982 8.06619 102.196 8.51348C102.43 8.94133 102.595 9.37889 102.692 9.82618C102.789 10.2735 102.848 10.711 102.867 11.1389C102.886 11.5473 102.896 11.907 102.896 12.2182V21.4946H101.788V12.014C101.788 11.6445 101.759 11.1778 101.701 10.6138C101.642 10.0498 101.467 9.51504 101.176 9.0094C100.904 8.48432 100.476 8.03703 99.8928 7.66752C99.3291 7.29802 98.5419 7.11327 97.5311 7.11327C96.6758 7.11327 95.9176 7.26885 95.2567 7.58001C94.5958 7.89117 94.0321 8.32874 93.5656 8.89271C93.099 9.43724 92.7394 10.0984 92.4867 10.8763C92.2535 11.6348 92.1368 12.471 92.1368 13.385V21.4946H91.0288V6.50068Z" fill="white"/>
<path d="M105.449 13.9976C105.449 12.928 105.595 11.9265 105.886 10.993C106.197 10.0401 106.645 9.20387 107.228 8.48431C107.811 7.76476 108.53 7.20079 109.385 6.79239C110.241 6.36455 111.222 6.15063 112.33 6.15063C113.438 6.15063 114.42 6.36455 115.275 6.79239C116.131 7.20079 116.85 7.76476 117.433 8.48431C118.016 9.20387 118.453 10.0401 118.745 10.993C119.056 11.9265 119.212 12.928 119.212 13.9976C119.212 15.0672 119.056 16.0785 118.745 17.0314C118.453 17.9844 118.016 18.8206 117.433 19.5401C116.85 20.2402 116.131 20.8042 115.275 21.2321C114.42 21.6405 113.438 21.8447 112.33 21.8447C111.222 21.8447 110.241 21.6405 109.385 21.2321C108.53 20.8042 107.811 20.2402 107.228 19.5401C106.645 18.8206 106.197 17.9844 105.886 17.0314C105.595 16.0785 105.449 15.0672 105.449 13.9976ZM106.557 13.9976C106.557 14.8922 106.683 15.7576 106.936 16.5939C107.189 17.4107 107.558 18.1399 108.044 18.7817C108.53 19.4235 109.133 19.9388 109.852 20.3278C110.571 20.6973 111.397 20.882 112.33 20.882C113.263 20.882 114.09 20.6973 114.809 20.3278C115.528 19.9388 116.131 19.4235 116.617 18.7817C117.102 18.1399 117.472 17.4107 117.725 16.5939C117.977 15.7576 118.104 14.8922 118.104 13.9976C118.104 13.1031 117.977 12.2474 117.725 11.4306C117.472 10.5943 117.102 9.85536 116.617 9.21359C116.131 8.57183 115.528 8.0662 114.809 7.6967C114.09 7.30775 113.263 7.11327 112.33 7.11327C111.397 7.11327 110.571 7.30775 109.852 7.6967C109.133 8.0662 108.53 8.57183 108.044 9.21359C107.558 9.85536 107.189 10.5943 106.936 11.4306C106.683 12.2474 106.557 13.1031 106.557 13.9976Z" fill="white"/>
<path d="M122.918 9.82621H123.005C123.141 9.34003 123.384 8.88302 123.734 8.45517C124.104 8.02733 124.541 7.65783 125.046 7.34667C125.571 7.03551 126.145 6.80215 126.767 6.64657C127.408 6.47154 128.069 6.39375 128.749 6.4132V7.5217C128.166 7.44391 127.496 7.50225 126.738 7.69673C125.999 7.8912 125.289 8.31904 124.609 8.98025C124.337 9.27196 124.094 9.55395 123.88 9.82621C123.686 10.0984 123.52 10.3999 123.384 10.7305C123.248 11.0611 123.141 11.4306 123.064 11.839C122.986 12.2474 122.937 12.7336 122.918 13.2975V21.4946H121.81V6.50071H122.918V9.82621Z" fill="white"/>
<path d="M139.298 18.5192H139.24C139.065 18.9664 138.812 19.3943 138.482 19.8027C138.152 20.1916 137.743 20.5417 137.257 20.8528C136.791 21.164 136.256 21.4071 135.654 21.5821C135.051 21.7571 134.39 21.8447 133.671 21.8447C132.077 21.8447 130.843 21.5043 129.968 20.8237C129.093 20.1236 128.656 19.054 128.656 17.6149C128.656 16.7397 128.831 16.0299 129.181 15.4854C129.531 14.9214 129.968 14.4838 130.493 14.1727C131.037 13.8421 131.63 13.6087 132.271 13.4726C132.932 13.3364 133.564 13.2392 134.167 13.1808L135.887 13.035C136.684 12.9767 137.306 12.8891 137.753 12.7725C138.22 12.6363 138.57 12.4613 138.803 12.2474C139.036 12.014 139.182 11.7223 139.24 11.3722C139.298 11.0222 139.328 10.5846 139.328 10.0595C139.328 9.65116 139.25 9.27194 139.094 8.92189C138.939 8.57184 138.696 8.26067 138.365 7.9884C138.035 7.71614 137.607 7.50222 137.082 7.34664C136.558 7.19106 135.916 7.11327 135.158 7.11327C133.817 7.11327 132.728 7.44388 131.892 8.10509C131.076 8.7663 130.629 9.76785 130.551 11.1097H129.443C129.521 9.45668 130.046 8.22177 131.018 7.40498C132.009 6.56875 133.409 6.15063 135.216 6.15063C137.024 6.15063 138.336 6.51041 139.153 7.22996C139.989 7.93006 140.406 8.85382 140.406 10.0012V18.7234C140.406 18.9373 140.406 19.1512 140.406 19.3651C140.426 19.579 140.465 19.7735 140.523 19.9485C140.581 20.1236 140.679 20.2694 140.815 20.3861C140.951 20.4833 141.145 20.532 141.398 20.532C141.592 20.532 141.864 20.5028 142.214 20.4444V21.3779C141.923 21.4557 141.621 21.4946 141.31 21.4946C140.863 21.4946 140.504 21.4363 140.232 21.3196C139.979 21.2029 139.784 21.0473 139.648 20.8528C139.512 20.6584 139.415 20.4347 139.357 20.1819C139.318 19.9096 139.298 19.6179 139.298 19.3068V18.5192ZM139.298 12.9767C139.026 13.3073 138.608 13.5309 138.045 13.6476C137.5 13.7643 136.888 13.8518 136.208 13.9101L134.342 14.0852C133.797 14.1435 133.253 14.231 132.709 14.3477C132.164 14.4449 131.669 14.62 131.222 14.8728C130.794 15.1256 130.444 15.4756 130.172 15.9229C129.9 16.3508 129.764 16.9147 129.764 17.6149C129.764 18.7234 130.114 19.5499 130.813 20.0944C131.513 20.6195 132.475 20.882 133.7 20.882C134.964 20.882 135.965 20.6584 136.703 20.2111C137.442 19.7443 138.006 19.2193 138.395 18.6358C138.783 18.033 139.026 17.4593 139.124 16.9147C139.24 16.3508 139.298 15.9715 139.298 15.7771V12.9767Z" fill="white"/>
<path d="M143.964 6.50068H145.072V9.56364H145.13C145.247 9.09691 145.451 8.65935 145.742 8.25096C146.034 7.82311 146.384 7.4536 146.792 7.14245C147.22 6.83129 147.686 6.58819 148.192 6.41317C148.716 6.23814 149.261 6.15063 149.824 6.15063C150.544 6.15063 151.166 6.24786 151.691 6.44234C152.215 6.61736 152.663 6.86046 153.032 7.17162C153.401 7.46333 153.693 7.80366 153.907 8.1926C154.12 8.5621 154.266 8.94133 154.344 9.33028H154.402C154.849 8.28012 155.442 7.4925 156.181 6.96742C156.939 6.42289 157.93 6.15063 159.155 6.15063C159.835 6.15063 160.457 6.25759 161.021 6.47151C161.604 6.66598 162.1 6.97714 162.508 7.40498C162.936 7.81338 163.266 8.33847 163.5 8.98023C163.733 9.622 163.849 10.3804 163.849 11.2556V21.4946H162.741V11.2264C162.741 10.2735 162.596 9.52476 162.304 8.98023C162.013 8.43571 161.663 8.0273 161.254 7.75504C160.866 7.46333 160.467 7.2883 160.059 7.22996C159.67 7.15217 159.369 7.11327 159.155 7.11327C158.475 7.11327 157.843 7.22996 157.26 7.46333C156.696 7.6967 156.2 8.04675 155.773 8.51348C155.364 8.98022 155.044 9.56364 154.81 10.2637C154.577 10.9444 154.461 11.732 154.461 12.6266V21.4946H153.353V11.2264C153.353 10.2929 153.207 9.55393 152.915 9.0094C152.643 8.44543 152.313 8.0273 151.924 7.75504C151.555 7.48277 151.166 7.30775 150.758 7.22996C150.369 7.15217 150.058 7.11327 149.824 7.11327C149.3 7.11327 148.755 7.22024 148.192 7.43417C147.628 7.64808 147.113 7.97868 146.646 8.42597C146.18 8.87326 145.801 9.44697 145.509 10.1471C145.218 10.8472 145.072 11.6737 145.072 12.6266V21.4946H143.964V6.50068Z" fill="white"/>
<path d="M177.084 18.5192H177.026C176.851 18.9664 176.598 19.3943 176.268 19.8027C175.937 20.1916 175.529 20.5417 175.043 20.8528C174.577 21.164 174.042 21.4071 173.439 21.5821C172.837 21.7571 172.176 21.8447 171.457 21.8447C169.863 21.8447 168.628 21.5043 167.754 20.8237C166.879 20.1236 166.442 19.054 166.442 17.6149C166.442 16.7397 166.616 16.0299 166.966 15.4854C167.316 14.9214 167.754 14.4838 168.278 14.1727C168.823 13.8421 169.416 13.6087 170.057 13.4726C170.718 13.3364 171.35 13.2392 171.952 13.1808L173.673 13.035C174.47 12.9767 175.092 12.8891 175.539 12.7725C176.005 12.6363 176.355 12.4613 176.589 12.2474C176.822 12.014 176.968 11.7223 177.026 11.3722C177.084 11.0222 177.113 10.5846 177.113 10.0595C177.113 9.65116 177.036 9.27194 176.88 8.92189C176.725 8.57184 176.482 8.26067 176.151 7.9884C175.821 7.71614 175.393 7.50222 174.868 7.34664C174.343 7.19106 173.702 7.11327 172.944 7.11327C171.603 7.11327 170.514 7.44388 169.678 8.10509C168.862 8.7663 168.415 9.76785 168.337 11.1097H167.229C167.307 9.45668 167.831 8.22177 168.803 7.40498C169.795 6.56875 171.194 6.15063 173.002 6.15063C174.81 6.15063 176.122 6.51041 176.938 7.22996C177.774 7.93006 178.192 8.85382 178.192 10.0012V18.7234C178.192 18.9373 178.192 19.1512 178.192 19.3651C178.212 19.579 178.251 19.7735 178.309 19.9485C178.367 20.1236 178.464 20.2694 178.6 20.3861C178.736 20.4833 178.931 20.532 179.184 20.532C179.378 20.532 179.65 20.5028 180 20.4444V21.3779C179.708 21.4557 179.407 21.4946 179.096 21.4946C178.649 21.4946 178.289 21.4363 178.017 21.3196C177.765 21.2029 177.57 21.0473 177.434 20.8528C177.298 20.6584 177.201 20.4347 177.143 20.1819C177.104 19.9096 177.084 19.6179 177.084 19.3068V18.5192ZM177.084 12.9767C176.812 13.3073 176.394 13.5309 175.83 13.6476C175.286 13.7643 174.674 13.8518 173.993 13.9101L172.127 14.0852C171.583 14.1435 171.039 14.231 170.495 14.3477C169.95 14.4449 169.455 14.62 169.007 14.8728C168.58 15.1256 168.23 15.4756 167.958 15.9229C167.686 16.3508 167.55 16.9147 167.55 17.6149C167.55 18.7234 167.899 19.5499 168.599 20.0944C169.299 20.6195 170.261 20.882 171.486 20.882C172.749 20.882 173.75 20.6584 174.489 20.2111C175.228 19.7443 175.792 19.2193 176.18 18.6358C176.569 18.033 176.812 17.4593 176.909 16.9147C177.026 16.3508 177.084 15.9715 177.084 15.7771V12.9767Z" fill="white"/>
</g>
<defs>
<clipPath id="clip0_139_1251">
<rect width="180" height="22" fill="white"/>
</clipPath>
</defs>
</svg>
