<svg width="178" height="60" viewBox="0 0 178 60" fill="none" xmlns="http://www.w3.org/2000/svg">
<g clip-path="url(#clip0_94_2142)">
<path d="M33.2183 9.56848C24.9561 13.3416 19.3692 20.5672 19.3692 28.8609C19.3692 39.3285 29.0105 47.815 40.9042 47.815C46.3633 47.815 50.2013 46.5541 54.6885 43.8531C55.1665 43.5678 55.7016 43.3534 56.0557 43.8C56.2583 44.0557 56.1738 44.3665 56.0183 44.6498C51.1161 53.6439 41.1423 59.8957 29.9488 59.8957C13.4105 59.8957 0.00195312 46.4872 0.00195312 29.9488C0.00195312 20.5042 4.3731 12.0806 11.2033 6.59208C16.3357 2.46881 29.1974 1.89831 33.2183 9.56848Z" fill="url(#paint0_linear_94_2142)"/>
<path d="M55.672 21.1652C55.672 31.1134 46.1723 39.177 34.4517 39.177C32.7461 39.177 28.129 38.9429 24.8241 37.4046C23.8838 36.9679 23.9802 36.417 24.6274 36.1495C26.1284 35.5298 37.9061 33.2695 37.9061 21.1652C37.9061 9.06097 25.4084 0.210478 11.2031 6.59212C16.3336 2.46884 22.853 0.00195312 29.9487 0.00195312C43.8569 0.00195313 55.672 9.47605 55.672 21.1652Z" fill="#E50056"/>
<path d="M76.9909 21.8596C70.5384 21.8596 67.084 25.7429 67.084 30.7672V30.9108C67.084 35.9645 69.8243 39.2773 76.7056 39.2773C81.6728 39.2773 85.0151 37.678 86.4414 33.9088H81.6453C80.9312 35.1363 79.5896 35.8229 77.0204 35.8229C73.5089 35.8229 71.7659 34.5383 71.3096 32.1973H86.6715V30.4563C86.6696 25.4852 83.3292 21.8596 76.9909 21.8596ZM71.3646 28.9396C71.9351 26.6262 73.8197 25.2845 77.0755 25.2845C80.2446 25.2845 81.8715 26.455 82.3004 28.9396H71.3646Z" fill="white"/>
<path d="M106.056 17.9193H102.344C102.344 18.661 102.317 19.861 102.173 20.6321C101.915 22.0033 101.573 22.2924 100.346 22.4065C99.5745 22.4636 98.7187 22.4636 97.8905 22.4636H94.979V21.7751C94.979 19.2905 95.4649 18.8341 97.6348 18.8341H99.0728V15.2931H97.1489C92.4099 15.2931 90.781 16.8924 90.781 21.6039V22.4636H86.9272V26.1718H90.781V38.7915H94.9495L94.9771 26.1718H101.886V31.3121C101.886 36.8793 103.371 38.7934 108.824 38.7934H111.936V34.8787H109.965C106.595 34.8787 106.054 34.3928 106.054 30.596V26.1698H111.936V22.4616H106.054V17.9193H106.056Z" fill="white"/>
<path d="M124.987 21.9167C121.788 21.9167 119.333 23.2308 118.076 25.4853L117.712 22.4617H113.965V44.5869H118.277V36.1928C119.447 38.1345 121.59 39.2184 124.873 39.2184C129.498 39.2184 133.324 36.421 133.324 30.7948V30.6512C133.326 24.9718 130.127 21.9167 124.987 21.9167ZM128.843 30.7672C128.843 33.8794 127.216 35.5928 123.504 35.5928C119.992 35.5928 118.192 33.8518 118.192 30.7397V30.6256C118.192 27.3994 120.221 25.4853 123.561 25.4853C127.072 25.4853 128.843 27.2558 128.843 30.6531V30.7672Z" fill="white"/>
<path d="M144.832 21.8596C138.98 21.8596 135.01 25.1429 135.01 30.6255V30.7967C135.01 36.1357 137.951 39.2773 144.746 39.2773C151.342 39.2773 154.682 35.994 154.682 30.7967V30.6255C154.682 25.0858 150.799 21.8596 144.832 21.8596ZM150.201 30.7672C150.201 33.8793 148.574 35.5927 144.832 35.5927C141.234 35.5927 139.493 33.9088 139.493 30.7672V30.6236C139.493 27.2537 141.435 25.4832 144.889 25.4832C148.43 25.4832 150.201 27.3108 150.201 30.6236V30.7672Z" fill="white"/>
<path d="M166.046 28.798C161.791 28.5127 160.621 28.2275 160.621 27.0275C160.621 26.0281 161.449 25.1724 164.504 25.1724C167.187 25.1724 168.844 25.7999 169.216 27.4288H173.898C173.012 23.7462 170.101 21.8616 164.561 21.8616C159.021 21.8616 156.338 24.2026 156.338 27.3717C156.338 30.7691 159.193 31.855 164.276 32.1403C168.501 32.3685 169.816 32.6262 169.816 33.8537C169.816 35.0537 168.789 35.7953 165.704 35.7953C162.535 35.7953 161.107 35.1108 160.65 33.3678H155.681C156.395 37.3081 159.478 39.2773 165.531 39.2773C171.269 39.2773 174.153 36.9363 174.153 33.6806C174.155 30.1671 171.7 29.1403 166.046 28.798Z" fill="white"/>
<path d="M176.003 25.4478C175.483 25.4478 175.052 25.2983 174.71 25.0013C174.368 24.7042 174.199 24.2695 174.199 23.701V23.6164C174.199 23.4354 174.218 23.2642 174.26 23.1049C174.301 22.9455 174.358 22.8 174.433 22.6682C174.59 22.3987 174.803 22.1901 175.072 22.0426C175.342 21.8951 175.645 21.8223 175.983 21.8223C176.152 21.8223 176.312 21.84 176.463 21.8734C176.613 21.9069 176.758 21.96 176.896 22.0288C177.165 22.1724 177.382 22.377 177.543 22.6446C177.706 22.9101 177.787 23.2308 177.787 23.6065V23.701C177.787 23.8878 177.767 24.0629 177.726 24.2223C177.685 24.3816 177.624 24.5252 177.543 24.6492C177.386 24.9128 177.173 25.1114 176.904 25.2452C176.636 25.379 176.335 25.4478 176.003 25.4478ZM176.003 25.1469C176.428 25.1469 176.778 25.021 177.049 24.7711C177.321 24.5213 177.458 24.1574 177.458 23.6813V23.6242C177.458 23.1482 177.319 22.7803 177.041 22.5206C176.762 22.261 176.41 22.1311 175.985 22.1311C175.566 22.1311 175.218 22.2649 174.942 22.5344C174.667 22.8039 174.529 23.1698 174.529 23.6341V23.6813C174.529 24.1514 174.667 24.5134 174.942 24.7672C175.218 25.019 175.57 25.1469 176.003 25.1469ZM176.022 23.8505H175.637V24.537H175.318V22.6859H176.06C176.317 22.6859 176.5 22.7351 176.609 22.8354C176.719 22.9357 176.774 23.0675 176.774 23.2308C176.774 23.3626 176.742 23.4669 176.679 23.5455C176.616 23.6242 176.522 23.6793 176.398 23.7108C176.516 23.7364 176.601 23.7836 176.652 23.8524C176.701 23.9213 176.727 24.0275 176.727 24.1711V24.4426C176.727 24.4623 176.731 24.478 176.736 24.4937C176.742 24.5095 176.748 24.5233 176.756 24.5351H176.428C176.422 24.5292 176.416 24.5173 176.414 24.5016C176.41 24.4859 176.41 24.4662 176.41 24.4406V24.1692C176.41 24.0492 176.388 23.9665 176.345 23.9193C176.298 23.8741 176.192 23.8505 176.022 23.8505ZM176.022 23.577C176.186 23.5829 176.3 23.5573 176.365 23.4964C176.43 23.4373 176.463 23.3508 176.463 23.2387C176.463 23.1442 176.428 23.0734 176.359 23.0282C176.29 22.981 176.184 22.9573 176.04 22.9573H175.637V23.577H176.022Z" fill="white"/>
</g>
<defs>
<linearGradient id="paint0_linear_94_2142" x1="28.3495" y1="39.8184" x2="16.8895" y2="-19.1381" gradientUnits="userSpaceOnUse">
<stop offset="0.1411" stop-color="#E50056"/>
<stop offset="0.75" stop-color="#1F0038"/>
</linearGradient>
<clipPath id="clip0_94_2142">
<rect width="177.836" height="60" fill="white"/>
</clipPath>
</defs>
</svg>
