<svg width="32" height="32" viewBox="0 0 32 32" fill="none" xmlns="http://www.w3.org/2000/svg">
<path d="M31.9994 15.9997C31.9994 7.16338 24.836 0 15.9997 0C7.16338 0 0 7.16338 0 15.9997C0 23.5029 5.16598 29.7991 12.1348 31.5283V20.8892H8.83566V15.9997H12.1348V13.8928C12.1348 8.44719 14.5994 5.92308 19.9458 5.92308C20.9596 5.92308 22.7087 6.12212 23.4242 6.32051V10.7524C23.0466 10.7127 22.3906 10.6929 21.5759 10.6929C18.9526 10.6929 17.9388 11.6868 17.9388 14.2704V15.9997H23.165L22.2671 20.8892H17.9388V31.8822C25.8612 30.9255 32 24.18 32 15.9997H31.9994Z" fill="#0866FF"/>
<path d="M22.2664 20.8892L23.1643 15.9997H17.9381V14.2704C17.9381 11.6868 18.9519 10.6929 21.5752 10.6929C22.3899 10.6929 23.0459 10.7128 23.4235 10.7524V6.32053C22.708 6.12149 20.9589 5.9231 19.9451 5.9231C14.5987 5.9231 12.1341 8.4472 12.1341 13.8929V15.9997H8.83496V20.8892H12.1341V31.5283C13.3718 31.8355 14.6665 31.9994 15.999 31.9994C16.655 31.9994 17.302 31.9591 17.9375 31.8823V20.8892H22.2657H22.2664Z" fill="white"/>
</svg>
