<svg width="71" height="50" viewBox="0 0 71 50" fill="none" xmlns="http://www.w3.org/2000/svg">
<g clip-path="url(#clip0_94_2100)">
<path d="M42.8144 11.8982H28.1392V38.1019H42.8144V11.8982Z" fill="#FF5F00"/>
<path d="M29.0707 25C29.0707 19.9074 31.4467 15.0463 35.4533 11.8981C28.1855 6.20369 17.6101 7.45369 11.8798 14.7222C6.19604 21.9444 7.45391 32.4074 14.7682 38.1018C20.8712 42.8704 29.3968 42.8704 35.4998 38.1018C31.4467 34.9537 29.0707 30.0926 29.0707 25Z" fill="#EB001B"/>
<path d="M62.6142 25C62.6142 34.213 55.1135 41.6667 45.8425 41.6667C42.0689 41.6667 38.435 40.4167 35.5 38.1018C42.7677 32.4074 44.0256 21.9444 38.2953 14.6759C37.4567 13.6574 36.5249 12.6852 35.5 11.8981C42.7677 6.20369 53.3432 7.45369 59.0269 14.7222C61.3563 17.6389 62.6142 21.25 62.6142 25Z" fill="#F79E1B"/>
</g>
<defs>
<clipPath id="clip0_94_2100">
<rect width="71" height="50" fill="white"/>
</clipPath>
</defs>
</svg>
