<svg width="65" height="65" viewBox="0 0 65 65" fill="none" xmlns="http://www.w3.org/2000/svg">
<g clip-path="url(#clip0_94_2468)">
<path d="M49.6727 0H14.5127C10.6681 0.00331005 6.98186 1.53205 4.2633 4.25061C1.54474 6.96917 0.0160054 10.6554 0.0126953 14.5V49.6725C0.0126953 53.5181 1.54037 57.2063 4.25965 59.9255C6.97892 62.6448 10.6671 64.1725 14.5127 64.1725H49.6727C53.5183 64.1725 57.2065 62.6448 59.9257 59.9255C62.645 57.2063 64.1727 53.5181 64.1727 49.6725V14.5125C64.1743 12.6073 63.8005 10.7204 63.0725 8.95975C62.3446 7.19909 61.2768 5.59914 59.9302 4.25137C58.5836 2.9036 56.9845 1.83442 55.2245 1.10494C53.4645 0.375468 51.5779 -7.07943e-07 49.6727 0ZM37.3102 47.895C35.6886 47.9182 34.0785 47.6188 32.5737 47.0143C31.0688 46.4098 29.6991 45.5121 28.5441 44.3736C27.3892 43.235 26.4721 41.8783 25.8461 40.3822C25.2201 38.8861 24.8978 37.2805 24.8978 35.6587C24.8978 34.037 25.2201 32.4314 25.8461 30.9353C26.4721 29.4392 27.3892 28.0825 28.5441 26.9439C29.6991 25.8054 31.0688 24.9077 32.5737 24.3032C34.0785 23.6987 35.6886 23.3993 37.3102 23.4225H51.1152V19.62L58.2127 25.5275L51.1027 31.4425V27.56H37.1327C32.8552 27.56 29.3177 31.3825 29.3177 35.6575C29.271 36.7362 29.4431 37.8132 29.8236 38.8237C30.2042 39.8341 30.7854 40.757 31.5322 41.5369C32.279 42.3167 33.1759 42.9373 34.1689 43.3613C35.1619 43.7853 36.2305 44.0038 37.3102 44.0038C38.3899 44.0038 39.4585 43.7853 40.4515 43.3613C41.4445 42.9373 42.3414 42.3167 43.0882 41.5369C43.835 40.757 44.4162 39.8341 44.7967 38.8237C45.1773 37.8132 45.3494 36.7362 45.3027 35.6575C45.2793 33.8343 44.7345 32.0559 43.7327 30.5325H48.4227C49.1624 32.1399 49.5461 33.8881 49.5477 35.6575C49.5617 37.2684 49.2547 38.8661 48.6447 40.3571C48.0347 41.8482 47.1338 43.2028 45.9946 44.3419C44.8555 45.4811 43.5008 46.382 42.0098 46.992C40.5187 47.602 38.9211 47.909 37.3102 47.895ZM20.3102 43.645C21.2889 43.5967 22.2559 43.4107 23.1827 43.0925V47.2975C22.2683 47.6664 21.2958 47.8703 20.3102 47.9C18.2848 47.8835 16.3485 47.0644 14.9262 45.6223C13.5038 44.1803 12.7114 42.233 12.7227 40.2075V27.56H7.94019V23.4225H12.7277V18.1725H16.8802V23.4225H28.2127C26.5952 24.5316 25.2009 25.9352 24.1027 27.56H16.8802V40.2025C16.8861 41.1119 17.2498 41.9825 17.8926 42.6258C18.5355 43.2691 19.4058 43.6334 20.3152 43.64L20.3102 43.645Z" fill="#231F20"/>
</g>
<defs>
<clipPath id="clip0_94_2468">
<rect width="64.1825" height="64.1825" fill="white"/>
</clipPath>
</defs>
</svg>
