<svg width="170" height="51" viewBox="0 0 170 51" fill="none" xmlns="http://www.w3.org/2000/svg">
<g clip-path="url(#clip0_139_1242)">
<path d="M169.7 37C168.6 40.8 166.2 42.4 162.8 42.4C158.2 42.4 155.3 38.9 155.3 34C155.3 29.2 158.3 25.5 162.8 25.5C167.8 25.5 170.2 30.1 169.9 35H159.3C159.4 37.8 160.7 39.1 162.9 39.1C164.1 39.1 165.1 38.5 165.7 37.8C166.1 37.3 166.7 37 167.3 37H169.7V37ZM166 32.3C165.6 30.1 164.8 28.9 162.8 28.9C160.2 28.9 159.5 31.1 159.5 32.3H166Z" fill="#E30000"/>
<path d="M150.7 27.2C151.4 26.2 152.3 25.5 153.2 25.5V41C153.2 43.6 152.3 48.1 145.6 48.1C142.7 48.1 139.3 46.6 139.1 42.9H141.8C142.5 42.9 143.2 43.3 143.5 43.9C144.1 44.8 145 45.1 146.1 45.1C148.3 45.1 149.4 43.4 149.3 41.1V39H149.2C148.3 40.7 146.6 41.5 144.8 41.5C140.4 41.5 138.5 37.9 138.5 33.5C138.5 28.6 141.4 25.5 145.8 25.5C147.8 25.5 149.4 26.1 150.7 27.2ZM149.4 33.8C149.4 31.2 148.6 28.9 146 28.9C143.7 28.9 142.7 31.1 142.7 33.5C142.7 35.8 143.5 38.3 146 38.3C148.2 38.2 149.4 36.1 149.4 33.8Z" fill="#E30000"/>
<path d="M117.8 39.1C120.5 39.1 121.4 36.5 121.4 34C121.4 31.4 120.6 28.8 117.8 28.8C115.1 28.8 114.3 31.4 114.3 34C114.2 36.5 115 39.1 117.8 39.1ZM117.8 25.5C122.4 25.5 125.4 28.9 125.4 34C125.4 39.1 122.4 42.4 117.8 42.4C113.2 42.4 110.2 39 110.2 34C110.2 28.9 113.2 25.5 117.8 25.5Z" fill="#E30000"/>
<path d="M107.9 37C106.8 40.8 104.4 42.4 101 42.4C96.4 42.4 93.5 38.9 93.5 34C93.5 29.2 96.5 25.5 101 25.5C106 25.5 108.4 30.1 108.1 35H97.6C97.7 37.8 99 39.1 101.2 39.1C102.4 39.1 103.4 38.5 104 37.8C104.4 37.3 105 37 105.6 37H107.9V37ZM104.1 32.3C103.7 30.1 102.9 28.9 100.9 28.9C98.3 28.9 97.6 31.1 97.6 32.3H104.1Z" fill="#E30000"/>
<path d="M56.9 30.6C56.1 30.6 55.5 30.2 55.1 29.5C54.6 28.6 53.7 28.4 52.6 28.4C51.7 28.4 50.4 28.6 50.4 29.9C50.4 31.5 52.7 31.7 55 32.3C57.4 32.9 59.6 33.8 59.6 36.8C59.6 41 56.3 42.4 52.9 42.4C49.5 42.4 46.2 41 46 36.8H49.8C49.8 38.7 51.3 39.5 52.9 39.5C54.1 39.5 55.5 39 55.5 37.5C55.5 36.2 53.8 35.7 50.9 35C48.6 34.4 46.2 33.5 46.2 30.7C46.2 26.6 49.4 25.5 52.6 25.5C55.8 25.5 58.8 26.7 59.1 30.6H56.9Z" fill="#E30000"/>
<path d="M67.1001 26H70.0001V26.9C70.0001 28 69.1001 28.9 68.0001 28.9H67.1001V36.8C67.1001 38.3 67.4001 38.7 68.8001 38.7C69.2001 38.7 69.6001 38.7 70.0001 38.6V42C69.3001 42.1 68.4001 42.2 67.6001 42.2C65.1001 42.2 63.0001 41.6 63.0001 38.4V28.9H60.6001V28C60.6001 26.9 61.5001 26 62.6001 26H63.0001V21.2H65.0001C66.1001 21.2 67.0001 22.1 67.0001 23.2V26H67.1001Z" fill="#E30000"/>
<path d="M88.9998 27.2C89.6998 26.2 90.5998 25.5 91.4998 25.5V41C91.4998 43.6 90.6998 48.1 83.8998 48.1C80.9998 48.1 77.5998 46.6 77.3998 42.9H80.0998C80.7998 42.9 81.4998 43.3 81.7998 43.9C82.3998 44.8 83.2998 45.1 84.3998 45.1C86.5998 45.1 87.6998 43.4 87.5998 41.1V39H87.4998C86.5998 40.7 84.8998 41.5 83.0998 41.5C78.6998 41.5 76.7998 37.9 76.7998 33.5C76.7998 28.6 79.6998 25.5 84.0998 25.5C86.0998 25.5 87.6998 26.1 88.9998 27.2ZM87.6998 33.8C87.6998 31.2 86.8998 28.9 84.2998 28.9C81.9998 28.8 80.9998 31 80.9998 33.4C80.9998 35.7 81.7998 38.2 84.2998 38.2C86.4998 38.2 87.6998 36.1 87.6998 33.8Z" fill="#E30000"/>
<path d="M76.2999 40.2C76.2999 41.4 75.2999 42.4 74.0999 42.4C72.8999 42.4 71.8999 41.4 71.8999 40.2C71.8999 39 72.8999 38 74.0999 38C75.2999 38 76.2999 39 76.2999 40.2Z" fill="#E30000"/>
<path d="M40.5 39.3C42.3 42.2 45.6 44.3 48.9 44.8C54.8 45.5 60.4 42.7 66.3 44.9C69.1 45.9 71.4 47.5 72.8 49.9C71.6 49.4 70.8 49 69.3 48.5C66.7 47.7 64.5 48 61.9 48.4C56.9 49.1 52 50.7 47.2 48.4C43.6 46.7 41.4 43.1 40.5 39.3Z" fill="#FFCD00"/>
<path d="M34.0999 16.5C34.4999 18.1 34.0999 19.6 33.8999 21.5C33.6999 23.1 34.1999 24.7 35.6999 25.1C36.8999 25.5 39.6999 25.4 41.5999 27.1C42.1999 27.7 42.3999 27.8 42.4999 28.7C42.5999 29.2 42.4999 29.9 42.3999 30.3C41.8999 31.7 41.3999 33 40.5999 34.1C39.2999 35.6 37.8999 37 36.0999 37.6C32.7999 38.7 30.7999 35.4 28.1999 34C27.0999 33.4 25.6999 33 24.5999 34.1C22.8999 35.8 23.0999 38.4 23.9999 40.3C25.7999 43.8 29.4999 46.9 32.0999 49.5C27.4999 50.7 22.7999 51.9 18.1999 50.6C15.9999 50 13.9999 47.3 13.0999 45.2C11.4999 41.8 10.4999 33.7 2.3999 28C6.3999 28.5 8.0999 28.9 10.6999 27.1C11.2999 26.7 11.3999 26 11.3999 25.3C10.9999 22.5 8.6999 21 7.1999 19.1C8.2999 19.5 9.3999 19.8 10.5999 19.9C12.2999 20.1 13.8999 19.7 15.2999 18.9C19.9999 16.1 14.5999 9.59998 14.5999 9.59998C14.5999 9.59998 19.5999 13.2 22.6999 12.7C23.7999 12.5 24.4999 12.1 24.9999 11.2C26.3999 8.89998 27.5999 6.49998 28.5999 4.09998C28.3999 6.29998 28.0999 8.69998 28.6999 10.8C29.2999 12.8 30.9999 13.2 32.5999 14.3C33.2999 14.7 33.8999 15.2 34.0999 16.5Z" fill="#78BE20"/>
<path d="M9.3 33.9C9.9 35.1 10.2 35.7 10 37.2C9.9 38.1 9.2 38.6 8.6 39C8.6 39 9.2 37 8.4 35.5C7.2 33 6.2 33.2 1.2 31.3C0.6 31.1 0 30.3 0 30.2C0 30.1 4 30.8 6 31.4C7.1 31.7 8.7 32.8 9.3 33.9Z" fill="#004833"/>
<path d="M25.5001 19.4C24.7001 20.5 24.9001 22.2 26.3001 22.3C27.2001 22.3 28.2001 21.9 28.5001 21C28.8001 20.1 28.4001 19.3 27.7001 18.7C27.0001 18.3 26.1001 18.6 25.5001 19.4Z" fill="white"/>
<path d="M7.2998 21.3C8.3998 21.9 9.5998 22.8 10.5998 23.8C11.6998 24.9 13.0998 27.6 11.2998 29.7C10.5998 30.5 9.3998 30.9 8.2998 30.9C6.5998 31 4.4998 30.4 3.2998 29.5C3.5998 29.5 7.2998 30.2 9.0998 29.3C9.6998 29 10.2998 28.3 9.8998 26.7C9.3998 24.6 7.3998 23.1 4.1998 21C3.7998 20.8 3.5998 20.3 3.3998 19.8C3.2998 19.6 5.2998 20.1 7.2998 21.3Z" fill="#004833"/>
<path d="M10.8002 21.8C11.9002 22.8 13.5002 23 14.7002 22.2C16.0002 21.3 16.0002 19 15.7002 17.7C15.0002 14 13.0002 10.8 10.3002 9.29999C11.6002 12.2 13.2002 15.2 13.8002 18.3C13.9002 19 14.0002 19.8 13.7002 20.4C13.0002 21.8 10.5002 20.9 9.2002 20.2C9.7002 20.8 10.8002 21.8 10.8002 21.8Z" fill="#004833"/>
<path d="M19.2999 13C21.5999 12.7 21.5999 10.6 21.8999 8.9C22.1999 7.4 22.8999 5.9 23.8999 4.6C24.6999 3.6 25.0999 3.3 25.7999 2.4C27.3999 0.5 28.3999 0 28.3999 0C28.3999 0 25.0999 5.3 24.3999 7.9C23.7999 10.2 24.4999 13 21.8999 14.5C19.6999 15.7 17.4999 14.7 15.9999 13.4C15.1999 12.7 14.6999 12 14.3999 10.9C15.8999 11.8 17.2999 13.2 19.2999 13Z" fill="#004833"/>
<path d="M28.0999 12.4C29.0999 13.4 30.2999 13.8 31.4999 14.6C32.5999 15.3 33.2999 16.1 33.6999 17.3C34.1999 19 33.3999 20.8 33.4999 22.6C33.6999 25.6 35.7999 25.5 38.4999 25.6C40.0999 25.7 42.8999 27 42.5999 29.3C42.4999 30.3 42.2999 30.9 41.6999 31.6C40.9999 32.1 40.1999 32.4 39.5999 31.9C40.8999 31.5 41.3999 31 41.4999 29.6C41.5999 28.9 41.0999 28.1 40.7999 27.9C40.2999 27.4 39.4999 26.7 37.4999 26.8C35.9999 26.8 34.6999 26.9 33.2999 25.9C32.5999 25.4 32.2999 25 31.8999 24.2C30.9999 22.3 32.1999 20.1 31.8999 18.2C31.7999 17.2 30.6999 16.2 29.7999 15.6C28.3999 14.7 26.7999 14.2 25.8999 12.5C24.7999 9.99998 25.8999 6.99998 27.4999 4.59998C27.3999 7.19998 26.1999 10.3 28.0999 12.4Z" fill="#004833"/>
<path d="M29.1 21.6C30 20.6 29.5 19.2 28.3 18.7C27.7 18.4 26.8 18.3 26.1 18.5C25.9 18.6 25.3 18.7 25 19.2C25.3 19.1 25.8 19 26.3 18.9C27 18.9 27.1 19.2 27.1 19.2C27.1 19.2 26.2 19.4 26 20.2C25.8 20.8 26 21.5 26.5 21.8C27.2 22.6 28.4 22.4 29.1 21.6Z" fill="#004833"/>
<path d="M16.7002 21.1C17.6002 19.8 18.6002 18.6 19.7002 17.6C19.6002 18.7 19.1002 19.8 18.6002 20.8C16.1002 26 14.0002 29.6 13.2002 36.5C12.4002 43.1 14.0002 46.4 15.0002 47.9C15.3002 48.4 15.1002 49.6 14.5002 50.2C13.9002 51 12.2002 50 12.2002 50C12.2002 50 11.9002 49.2 11.6002 48.4C11.0002 46.2 10.6002 44 10.5002 41.6C10.1002 34.4 12.2002 27.3 16.7002 21.1Z" fill="#004833"/>
<path d="M32.5999 30.6C34.9999 32.4 37.5999 33.4 40.1999 34.5C39.8999 35.5 39.5999 35.6 38.8999 36.3C37.0999 35.8 35.1999 35 33.9999 33.8C32.2999 32.3 30.9999 31 30.3999 28.8C31.2999 29.2 31.7999 30 32.5999 30.6Z" fill="#004833"/>
<path d="M27.1 32.4C29.7 32.8 30.6 34.4 32.4 36C33.8 37.2 35.3 38.1 37.3 37.7C37 39.2 35.2 39.6 33.6 39.3C30.9 38.9 30.4 36.8 28.6 34.9C27.4 33.6 25.2 33.8 23.9 35.5C22.2 37.6 23.9 41.2 25.3 42.9C26.8 44.7 28.1 46 29.6 47.4C29.6 47.4 31.7 49.4 32.8 50.9C28.6 48.8 25.8 46.9 22.8 43.2C21.4 41.4 21.1 39.9 21 38.1C21.1 36.4 21.2 35.2 22.4 33.8C23.6 32.3 25.3 32 27.3 32.3" fill="#004833"/>
<path d="M38.2001 29.1C37.7001 29.3 37.2001 29.9 37.4001 30.4C37.6001 31 38.3001 31.1 38.9001 30.7C39.1001 30.5 39.2001 30.2 39.3001 30C39.3001 29.6 39.0001 29.2 38.5001 29C38.4001 29 38.3001 29.1 38.2001 29.1Z" fill="white"/>
<path d="M38.7999 28.6C39.0999 28.6 39.3999 28.8 39.6999 29C39.9999 29.3 39.8999 29.9 39.4999 30.3C38.9999 30.7 38.4999 30.8 37.9999 30.3C37.6999 30 37.6999 29.4 37.9999 29C38.1999 28.7 38.3999 28.6 38.7999 28.6Z" fill="#004833"/>
<path d="M131.5 34.4V42H127.5V25.5C127.5 25.5 128.9 25.3 130.3 27.5C131 26.7 132.7 25.5 135 25.5C137.7 25.5 139.2 26.8 139.2 26.8C139.2 26.8 138.6 27.6 138.2 28.6C137.7 29.5 137.4 30.5 137.4 30.5C137.4 30.5 136.4 29.6 135.2 29.6C133.8 29.6 131.5 30.7 131.5 34.4Z" fill="#E30000"/>
</g>
<defs>
<clipPath id="clip0_139_1242">
<rect width="170" height="51" fill="white"/>
</clipPath>
</defs>
</svg>
