<svg width="233" height="48" viewBox="0 0 233 48" fill="none" xmlns="http://www.w3.org/2000/svg">
<g clip-path="url(#clip0_163_1612)">
<path fill-rule="evenodd" clip-rule="evenodd" d="M81.0002 44H229V4H81.0002V44ZM77.0002 48H233V0H77.0002V48ZM63.2102 17.86C63.2152 17.77 63.1862 17.627 63.1242 17.426C62.9762 16.959 62.7142 16.813 62.2792 16.621C61.9753 16.4786 61.6479 16.3929 61.3132 16.368C61.2028 16.3613 61.092 16.3646 60.9822 16.378C60.0772 16.545 59.1712 16.72 58.2652 16.906C57.3702 17.09 56.5352 17.39 55.6722 17.682C54.6502 18.026 53.4612 18.214 53.7172 19.577C53.7922 19.972 54.0102 19.995 54.2722 20.224C54.6812 20.579 54.6452 20.896 54.5922 21.382C54.5132 22.105 54.5822 22.861 54.4262 23.572C54.3952 23.716 54.2492 23.859 53.9882 24.002C53.7412 24.138 53.6452 24.466 53.7062 24.729C53.7842 25.067 54.0132 25.249 54.3002 25.424C54.1802 26.66 54.2272 28.05 54.4472 29.596C54.5202 30.129 54.7752 30.601 55.2102 31.016C55.6452 31.427 56.1202 31.688 56.6362 31.795C58.2762 32.148 62.0662 32.175 62.4082 32.101C62.7482 32.026 62.9182 31.936 63.0652 31.69C63.2112 31.444 63.2522 31.18 63.1882 30.896C62.9932 30.046 62.5742 29.711 62.1352 29.808C61.9502 29.841 61.8892 29.884 61.7312 30.023C61.5712 30.163 61.4182 30.235 61.2712 30.24C59.1562 30.404 57.6592 30.206 56.7802 29.647C56.6232 29.35 56.5352 28.942 56.5182 28.425C56.4912 27.66 56.6282 26.61 56.9272 25.279C57.4322 25.064 58.1132 24.934 58.9722 24.886C59.5372 24.856 60.1092 24.865 60.6662 24.748C60.9402 24.69 61.2112 24.604 61.4532 24.464C61.7492 24.292 62.2722 23.904 62.0802 23.512C62.0092 23.363 61.9022 23.242 61.8072 23.11C61.7342 23.009 61.6312 22.98 61.5172 22.937C61.4093 22.895 61.2983 22.8612 61.1852 22.836C60.9383 22.783 60.6856 22.7619 60.4332 22.773C60.1582 22.783 59.7302 22.843 59.1502 22.951C58.5682 23.061 58.1402 23.121 57.8672 23.131C57.5225 23.1486 57.1773 23.106 56.8472 23.005C56.8642 21.399 56.7472 20.212 56.9352 19.757C57.6232 19.525 58.6352 19.265 59.9682 18.977C61.3002 18.689 62.3122 18.429 63.0012 18.197C63.062 18.1633 63.1131 18.1147 63.1499 18.0557C63.1866 17.9967 63.2077 17.9294 63.2112 17.86H63.2102ZM45.9752 23.358C46.0122 22.908 46.0122 22.329 45.9752 21.619C45.9364 21.0399 45.909 20.4602 45.8932 19.88C45.8932 19.327 45.9392 18.834 46.0302 18.4C46.1402 18.141 46.4142 18.012 46.8522 18.012C47.4372 18.012 47.8622 18.158 48.1272 18.452C48.3922 18.747 48.5522 19.075 48.6072 19.439C48.6252 19.682 48.6072 19.958 48.5522 20.269C48.3502 21.256 47.4922 22.286 45.9752 23.359V23.358ZM50.9092 28.599C49.8372 27.677 48.8542 26.663 47.7562 25.772C47.3742 25.462 47.1802 25.193 47.1802 24.968C47.1802 24.76 47.3462 24.57 47.6742 24.398C48.472 23.9878 49.1658 23.4013 49.7032 22.683C50.3432 21.871 50.6632 21.058 50.6632 20.244C50.6632 19.275 50.3252 18.374 49.6492 17.544C48.9172 16.644 48.0592 16.178 47.0712 16.142C45.1162 16.056 44.0472 16.549 43.8642 17.622C43.5912 19.232 43.4532 21.213 43.4532 23.566V26.396C43.4427 27.5908 43.3971 28.7849 43.3162 29.977L43.1792 30.912C43.1151 31.2545 43.0783 31.6016 43.0692 31.95C43.0692 32.833 43.4712 33.36 44.2762 33.534C44.4032 33.568 44.5642 33.542 44.7562 33.455C45.0422 33.326 45.1572 33.275 45.1892 32.971C45.2192 32.679 45.3132 32.385 45.3602 32.094C45.4762 31.367 45.5442 30.633 45.5902 29.9C45.7372 27.997 45.8382 26.82 45.8932 26.37C46.6782 27.01 47.1352 27.709 48.7442 29.352C49.4292 30.052 50.1312 30.737 50.8622 31.392C51.2882 31.772 51.6772 32.219 52.1862 32.5C52.5192 32.684 52.6652 32.564 52.9982 32.425C53.3052 32.297 53.6782 32.08 53.6782 31.715C53.6782 31.628 53.6612 31.597 53.5952 31.481C53.4472 31.213 52.1702 29.673 50.9092 28.599V28.599ZM35.4692 25.617C35.8779 24.1593 36.3534 22.7211 36.8942 21.307C37.0582 22 37.2312 22.693 37.4142 23.384C37.5972 24.18 37.7162 24.899 37.7712 25.539C36.5282 25.539 35.7602 25.565 35.4682 25.617H35.4692ZM38.9222 20.399C38.8492 20.049 38.7312 18.981 38.6212 18.271C38.4742 17.44 38.1452 16.817 37.6342 16.401C37.4387 16.2476 37.1967 16.1654 36.9482 16.168C36.6012 16.168 36.3732 16.29 36.2632 16.532C35.7882 17.622 35.2492 19.188 34.6452 21.23C33.9322 23.583 33.4112 25.193 33.0832 26.058C33.0472 26.179 32.8782 26.27 32.5762 26.331C32.2742 26.391 32.0822 26.47 32.0002 26.565C31.9172 26.66 31.8772 26.75 31.8772 26.836C31.8772 26.941 32.0052 27.087 32.2612 27.278C32.5172 27.468 32.6362 27.641 32.6172 27.798C32.5622 28.333 32.2612 29.234 31.7132 30.497C31.2552 31.604 31.0552 32.487 31.1092 33.145C31.1462 33.472 31.4672 33.733 32.0692 33.923C32.5442 34.062 32.8552 33.975 33.0012 33.663C33.2932 33.006 33.5942 32.045 33.9062 30.782C34.2352 29.415 34.4982 28.463 34.7002 27.927C35.1022 27.598 35.6602 27.39 36.3732 27.304C36.9932 27.251 37.6152 27.201 38.2372 27.148C38.5832 28.031 38.8852 29.13 39.1412 30.445C39.2412 30.957 39.4162 31.485 39.7662 31.892C39.9672 32.125 40.2482 32.354 40.5472 32.457C40.9232 32.587 41.1972 32.36 41.4712 32.132C41.7812 31.872 41.9372 31.57 41.9372 31.223C41.9372 31.016 41.8832 30.773 41.7722 30.497C40.7862 27.849 38.9962 20.748 38.9222 20.399V20.399ZM24.7342 18.263C24.7342 17.269 23.5782 16.871 22.7612 16.871C22.6322 16.871 22.5232 16.881 22.4322 16.898C21.5362 17.112 20.6402 17.335 19.7452 17.568C18.7222 17.834 17.8712 18.138 17.1952 18.476C16.4682 18.765 15.4202 18.941 14.9882 19.642C14.3552 20.667 14.9492 21.327 15.9902 21.527C15.8802 23.079 15.8072 23.927 15.7702 24.069C15.7332 24.212 15.5832 24.349 15.3182 24.483C15.0532 24.618 14.9112 24.765 14.8932 24.925C14.8382 25.246 15.0672 25.575 15.5782 25.915C15.4142 27.146 15.4142 28.538 15.5782 30.089C15.6332 30.625 15.8712 31.106 16.2912 31.535C16.7112 31.962 17.1782 32.239 17.6892 32.364C19.3162 32.774 21.2342 32.944 23.4462 32.873C23.5816 32.8689 23.7138 32.8312 23.8309 32.7633C23.948 32.6954 24.0464 32.5994 24.1172 32.484C24.2732 32.244 24.3232 31.981 24.2672 31.695C24.1872 31.273 24.1022 30.843 23.6282 30.765C23.1902 30.693 22.8022 30.761 22.3772 30.779C21.1872 30.829 19.9192 30.824 18.7772 30.444C18.3262 30.294 17.9632 30.139 17.7822 29.674C17.5822 29.161 17.6762 28.774 17.7352 28.244C17.8212 27.439 18.0052 26.644 18.2102 25.861C18.7222 25.666 19.4072 25.559 20.2662 25.541C20.8542 25.531 21.4462 25.519 22.0282 25.441C22.4532 25.383 23.1052 25.347 23.3732 24.966C23.6852 24.523 23.3002 23.908 23.1172 23.801C22.7512 23.587 22.3122 23.48 21.8012 23.48C21.5272 23.48 21.0972 23.525 20.5122 23.614C19.9282 23.704 19.4982 23.748 19.2242 23.748C18.8412 23.748 18.5032 23.695 18.2102 23.588C18.2822 21.982 18.4012 20.948 18.5662 20.483C19.2422 20.216 20.2392 19.903 21.5552 19.547C22.8702 19.19 23.8662 18.877 24.5422 18.61C24.601 18.5732 24.6495 18.522 24.6831 18.4613C24.7167 18.4006 24.7343 18.3324 24.7342 18.263V18.263ZM12.1602 17.04C11.7492 17.04 11.4772 17.159 11.3482 17.395C10.7312 18.581 10.2262 20.112 9.83423 21.99C9.51466 23.6011 9.20665 25.2145 8.91023 26.83C8.83523 26.502 8.63923 25.28 8.32123 23.166C8.20123 22.296 8.03823 21.425 7.77523 20.584C7.72053 20.4072 7.6605 20.2321 7.59523 20.059C7.54223 19.919 7.49323 19.696 7.39123 19.585C7.15123 19.32 6.61423 19.227 6.27623 19.227C5.56623 19.227 5.09923 19.647 4.87523 20.485C4.72523 21.179 4.02123 23.563 3.82523 24.41C3.62823 25.258 3.45523 25.837 3.30723 26.146C2.89523 21.716 2.38723 17.583 2.24123 17.204C2.09523 16.825 1.55923 16.52 1.03723 16.52C0.88723 16.52 0.58923 16.575 0.58923 16.575C0.58923 16.575 0.22423 16.703 0.11223 16.903C0.0573503 16.9971 0.0216692 17.1011 0.00725094 17.2091C-0.00716735 17.3171 -3.67574e-05 17.4268 0.0282303 17.532C0.36423 18.808 0.63023 20.832 0.82723 23.603C1.02223 26.375 1.28823 28.417 1.62523 29.729L1.96123 31.261C2.14823 31.844 2.60423 32.176 3.08123 32.246C3.55923 32.315 3.71623 32.336 3.86723 32.191C4.37223 31.716 4.81023 30.604 5.18423 28.854C5.61223 26.831 5.95823 25.564 6.22123 25.052C6.36923 26.092 6.52923 27.068 6.69623 27.979C7.03223 29.711 7.21023 30.622 7.22923 30.714C7.44223 31.834 8.02223 32.391 8.71423 32.738C8.89923 32.828 9.11523 32.875 9.35723 32.875C9.88223 32.875 10.1982 32.692 10.3112 32.327C10.7212 31.033 11.1272 29.009 11.5292 26.256C11.9312 23.504 12.3562 21.452 12.8042 20.102C12.8222 20.03 12.9722 19.702 13.2542 19.118C13.4762 18.681 13.5882 18.335 13.5882 18.08C13.5882 17.697 13.3742 17.405 12.9442 17.204C12.6988 17.0902 12.4307 17.0341 12.1602 17.04" fill="black"/>
<path fill-rule="evenodd" clip-rule="evenodd" d="M205.192 25.89V18.403H209.512C212.261 18.403 214.139 19.669 214.139 22.093V22.136C214.139 24.406 212.217 25.89 209.382 25.89H205.192ZM204.059 32.63H205.192V26.936H209.316C212.503 26.936 215.273 25.276 215.273 22.07V22.026C215.273 19.082 212.961 17.357 209.599 17.357H204.059V32.63ZM193.783 32.873C197.491 32.873 200.043 30.535 200.043 26.15V17.357H198.91V26.284C198.91 29.97 196.924 31.846 193.824 31.846C190.594 31.846 188.652 29.773 188.652 26.172V17.357H187.518V26.284C187.518 30.559 190.116 32.873 193.783 32.873V32.873ZM176.703 31.866C172.927 31.866 170.177 28.769 170.177 24.992V24.95C170.177 21.175 172.885 18.12 176.659 18.12C180.433 18.12 183.183 21.218 183.183 24.992V25.038C183.183 28.814 180.478 31.866 176.703 31.866ZM176.659 32.893C181.283 32.893 184.362 29.163 184.362 24.993V24.95C184.362 20.782 181.326 17.094 176.703 17.094C172.078 17.094 168.999 20.826 168.999 24.992V25.038C168.999 29.206 172.034 32.893 176.659 32.893ZM155.799 25.277V18.403H161.011C163.783 18.403 165.398 19.693 165.398 21.742V21.787C165.398 23.99 163.5 25.277 160.948 25.277H155.8H155.799ZM154.663 32.63H155.8V26.304H160.794L165.661 32.63H167.1L162.06 26.107C164.635 25.758 166.533 24.297 166.533 21.742V21.7C166.537 20.6375 166.12 19.6165 165.374 18.86C164.459 17.945 162.953 17.357 161.079 17.357H154.663V32.63V32.63ZM144.907 32.893C147.393 32.893 149.532 31.823 150.907 30.603V24.71H144.711V25.757H149.817V30.142C148.702 31.082 146.892 31.887 144.95 31.887C140.868 31.887 138.403 28.943 138.403 24.991V24.949C138.403 21.261 141.001 18.119 144.711 18.119C147.023 18.119 148.418 18.904 149.621 19.951L150.362 19.103C148.834 17.835 147.264 17.093 144.775 17.093C140.215 17.093 137.225 20.867 137.225 24.991V25.037C137.225 29.337 140.084 32.892 144.907 32.892V32.893Z" fill="black"/>
<path fill-rule="evenodd" clip-rule="evenodd" d="M134 17C133.425 17.23 133.044 18.68 133.044 18.68L129.507 30.697C129.099 32.205 127.824 33 126.379 33H118.615C119.171 32.901 119.781 31.307 119.781 31.307L123.726 19.343C124.284 17.516 125.23 17 126.676 17H134V17ZM101.323 17C102.769 17 103.714 17.516 104.274 19.343L108.217 31.307C108.217 31.307 108.827 32.901 109.385 33H101.622C100.175 33 98.9 32.205 98.492 30.697L94.957 18.68C94.957 18.68 94.575 17.229 94 17H101.323ZM118.231 17V33H109.769V17H118.231Z" fill="#DA1710"/>
</g>
<defs>
<clipPath id="clip0_163_1612">
<rect width="233" height="48" fill="white"/>
</clipPath>
</defs>
</svg>
